<?xml version="1.0" encoding="UTF-8"?> <svg xmlns="http://www.w3.org/2000/svg" width="100" height="100" viewBox="0 0 100 100" fill="none"><path d="M35.8795 16.264C36.5485 16.172 37.224 16.1998 37.897 16.1958C41.7657 16.1958 45.6348 16.1958 49.5035 16.1958C47.1562 17.6448 45.0629 19.5335 43.4927 21.8072C42.2135 23.66 41.274 25.781 40.9731 28.0219C40.8695 28.8277 40.8665 29.6419 40.8665 30.4532C40.8665 35.4124 40.867 40.3716 40.8665 45.3303C38.9919 45.1896 37.1911 44.5116 35.5781 43.5675C32.9389 42.0002 30.7819 39.6927 29.2276 37.0609C28.8655 36.4426 28.5556 35.785 28.4022 35.0816C28.2169 34.2495 28.2264 33.3909 28.2214 32.5428C28.2214 30.2214 28.2214 27.8995 28.2214 25.5781C28.2234 25.0966 28.2094 24.6136 28.2577 24.1336C28.4142 22.3926 29.121 20.7104 30.2414 19.3688C31.6407 17.6752 33.6941 16.5311 35.8795 16.264Z" fill="#171717"></path><path d="M54.4815 16.2097C55.4444 16.1828 56.4079 16.2017 57.3713 16.1962C58.9325 16.1962 60.4937 16.1962 62.0549 16.1962C62.5551 16.1982 63.0562 16.1828 63.5544 16.2345C65.2047 16.3873 66.8028 17.0294 68.106 18.0511C69.3568 19.0265 70.3387 20.3442 70.9056 21.8255C71.2862 22.8153 71.4815 23.8753 71.48 24.9353C71.4795 29.1006 71.4805 33.2655 71.4795 37.4308C70.0538 35.1402 68.2096 33.0924 65.9963 31.537C64.459 30.4571 62.7394 29.6199 60.9117 29.1653C59.8546 28.8873 58.7581 28.8077 57.6692 28.8097C52.5546 28.8067 47.4396 28.8092 42.3251 28.8082C42.4521 27.1493 42.9941 25.5422 43.7757 24.0798C45.0545 21.6976 46.9664 19.6921 49.1602 18.1277C49.8965 17.6164 50.6462 17.1075 51.4796 16.7668C52.4276 16.3693 53.4613 16.2395 54.4815 16.2097Z" fill="#171717"></path><path d="M58.8484 30.2642C60.6791 30.4149 62.4465 31.0486 64.0292 31.9648C65.1794 32.6318 66.24 33.4486 67.1964 34.3703C67.2731 34.4429 67.3663 34.4996 67.4196 34.5941C68.3516 35.5049 69.1706 36.5286 69.8954 37.61C70.4419 38.4307 70.9465 39.2992 71.2016 40.2587C71.5164 41.44 71.4711 42.6736 71.4815 43.8848C71.4805 46.156 71.483 48.4272 71.4805 50.6984C71.4755 52.4787 70.8967 54.2484 69.8575 55.6944C68.4836 57.6299 66.2997 58.9734 63.9435 59.2987C63.2027 59.4141 62.4515 59.3818 61.7048 59.3857C57.8785 59.3857 54.0517 59.3862 50.2253 59.3857C52.5886 57.9054 54.7022 55.9919 56.2779 53.6844C57.5322 51.8614 58.4369 49.7707 58.7453 47.5722C58.8653 46.6624 58.8454 45.7432 58.8484 44.8284C58.8484 39.9737 58.8484 35.1189 58.8484 30.2642Z" fill="#171717"></path><path d="M28.2214 38.1504C29.968 40.9568 32.3516 43.41 35.2569 45.0217C37.2151 46.1045 39.4274 46.8049 41.6805 46.788C46.9166 46.788 52.1532 46.787 57.3893 46.7885C57.2488 48.5294 56.664 50.2167 55.8096 51.7343C54.4472 54.1626 52.4386 56.1931 50.1402 57.75C49.387 58.2499 48.6098 58.7359 47.749 59.0283C46.8409 59.3392 45.8705 59.3636 44.9205 59.385C42.8607 59.386 40.8013 59.377 38.7414 59.374C38.0116 59.3691 37.2818 59.3845 36.5521 59.3646C34.823 59.2905 33.1248 58.6757 31.7424 57.6371C30.4452 56.6686 29.4215 55.3375 28.8277 53.8323C28.4267 52.8216 28.2199 51.7343 28.2214 50.6469C28.2219 46.4816 28.2214 42.3157 28.2214 38.1504Z" fill="#171717"></path><path d="M49.1849 69.598C53.0106 69.5916 56.8363 69.598 60.662 69.5938C60.6642 70.0513 60.6663 70.511 60.6749 70.9685C56.8428 70.9771 53.0106 70.9857 49.1785 70.9642C49.1828 70.5088 49.1849 70.0534 49.1849 69.598Z" fill="#171717"></path><path d="M61.7532 69.6002C62.5565 69.5916 63.3599 69.5916 64.1654 69.6002C64.1504 73.2412 64.1547 76.8843 64.1612 80.5274C64.1053 80.9076 64.58 81.0386 64.8765 81.0129C67.3875 81.0214 69.8986 81.0172 72.4076 81.015C72.7319 81.0386 73.2518 80.9183 73.1852 80.493C73.1658 78.9722 73.2174 77.4449 73.1615 75.9241C72.5365 75.5933 71.804 75.6019 71.1166 75.546C69.9223 75.5331 68.6764 75.4709 67.5401 75.9069C67.5551 77.2967 67.5444 78.6844 67.5508 80.0742C66.7431 80.0742 65.9355 80.0806 65.1278 80.0656C65.1557 78.708 65.1342 77.3504 65.1385 75.9928C65.0827 75.2689 65.7164 74.7362 66.3243 74.4806C67.1641 74.1691 68.0706 74.124 68.9535 74.0445C70.6032 73.9801 72.2787 73.9822 73.8983 74.3367C74.4912 74.4484 75.0046 74.7878 75.4213 75.2131C75.4063 77.1915 75.4084 79.1698 75.4192 81.1482C74.7447 81.973 73.6792 82.3855 72.6288 82.3833C70.049 82.3876 67.467 82.3833 64.8851 82.3855C63.9292 82.3941 62.9303 82.1363 62.2107 81.4811C61.9315 81.2341 61.7381 80.8797 61.7596 80.4995C61.7553 76.8671 61.7725 73.2326 61.7532 69.6002Z" fill="#171717"></path><path d="M49.1849 71.7741C53.0128 71.7762 56.8428 71.7612 60.6728 71.7805C60.6663 72.2423 60.6642 72.7042 60.6642 73.166C56.8385 73.166 53.0106 73.1703 49.1849 73.166C49.1849 72.702 49.1849 72.238 49.1849 71.7741Z" fill="#171717"></path><path d="M24.1083 74.1627C24.9224 74.1542 25.7365 74.1542 26.5485 74.1606C26.527 76.2077 26.5399 78.2548 26.5399 80.3019C26.5163 81.0602 27.0576 81.6874 27.6483 82.0912C29.2293 83.1803 31.3021 83.2619 33.1173 82.8237C34.318 82.5166 35.6412 81.681 35.7057 80.3126C35.725 78.2634 35.7229 76.2098 35.7014 74.1606C36.509 74.1563 37.3146 74.1499 38.1222 74.167C38.09 76.285 38.1244 78.4009 38.1051 80.5167C38.09 81.4769 37.4542 82.2996 36.7153 82.8517C35.0849 84.1061 32.9626 84.5379 30.9413 84.5057C28.9586 84.4928 26.9136 83.9429 25.3649 82.6626C24.6668 82.0891 24.1233 81.2492 24.1276 80.3191C24.1126 78.2677 24.1512 76.2163 24.1083 74.1627Z" fill="#171717"></path><path d="M42.5216 74.7443C44.3689 74.029 46.3774 74.1965 48.3171 74.1622C48.3214 76.4627 48.3192 78.7633 48.3149 81.0639C50.2761 81.1133 52.4779 81.167 54.0438 79.7772C54.8601 79.165 55.0405 77.8848 54.3187 77.1308C53.0364 75.7152 50.9892 75.4811 49.1849 75.5584C49.1849 75.0966 49.1849 74.6347 49.1827 74.1729C51.2255 74.0977 53.3672 74.334 55.1307 75.4467C56.1747 76.0589 57.1843 77.0835 57.1155 78.3853C57.0747 79.934 55.6914 80.9973 54.4025 81.5988C52.523 82.5267 50.3835 82.4623 48.3428 82.4387C48.4245 83.7898 47.3955 84.8617 46.2657 85.4309C45.6964 85.1044 45.1121 84.8037 44.5214 84.518C45.2625 84.0583 45.9456 83.3795 45.9692 82.4472C43.8641 82.4537 41.6516 81.878 40.0771 80.4216C39.177 79.6268 38.8205 78.2499 39.3661 77.1544C39.9912 75.9257 41.2864 75.2298 42.5216 74.7443ZM41.8535 77.2683C41.2628 77.9256 41.3745 78.9717 41.9631 79.5925C42.9684 80.6901 44.5257 81.0789 45.9692 81.0575C45.9026 79.2187 45.9563 77.38 45.9391 75.5434C44.4377 75.6078 42.8782 76.1298 41.8535 77.2683Z" fill="#171717"></path><path d="M58.3571 74.137C59.1648 74.1134 59.9725 74.1177 60.7801 74.1348C60.7415 76.6932 60.7694 79.2537 60.763 81.812C60.7479 82.435 60.8446 83.0966 60.5589 83.6744C60.1959 84.4735 59.4569 85.0105 58.7094 85.4208C58.138 85.0986 57.5516 84.7978 56.9373 84.5658C57.601 84.0933 58.3249 83.5004 58.355 82.6133C58.3829 79.7885 58.3743 76.9617 58.3571 74.137Z" fill="#171717"></path><path d="M30.4043 76.7898C31.3473 76.1884 32.7091 77.0433 32.5846 78.1517C32.5545 79.2451 31.1475 79.9131 30.2818 79.2408C29.4076 78.6866 29.4828 77.256 30.4043 76.7898Z" fill="#171717"></path><path d="M65.8217 83.3628C66.6315 82.7076 67.8172 83.279 68.0965 84.2048C68.2941 83.7237 68.6206 83.2361 69.1705 83.1308C69.9331 82.8924 70.7107 83.4616 70.9276 84.1833C71.1575 83.7387 71.4689 83.2661 71.9931 83.1458C72.8093 82.8601 73.7394 83.5325 73.8383 84.3681C73.98 85.3562 72.906 86.297 71.9437 85.9684C71.4732 85.7579 71.1467 85.3476 70.9276 84.8944C70.7257 85.5538 70.0856 86.1166 69.366 86.0199C68.7452 85.9555 68.2941 85.4357 68.1008 84.8729C67.8129 85.6913 66.8377 86.3787 66.0043 85.8524C65.0505 85.397 64.898 83.932 65.8217 83.3628Z" fill="#171717"></path></svg> 