<?xml version="1.0" encoding="UTF-8"?> <svg xmlns="http://www.w3.org/2000/svg" width="100" height="100" viewBox="0 0 100 100" fill="none"><path fill-rule="evenodd" clip-rule="evenodd" d="M61.9114 52.4341L61.2447 52.5637H62.023L61.9114 52.4341ZM58.5781 53.0821L58.5443 53.0887V53.6005H62.9162L62.4696 53.0821H58.5781ZM58.5443 54.1189V54.6374H63.8094L63.3628 54.1189H58.5443ZM58.5443 55.1558V55.6742H64.7027L64.256 55.1558H58.5443ZM58.5443 56.1926V56.711H65.3624L65.4077 56.4927L65.1492 56.1926H58.5443ZM58.5443 57.2294V57.7479H65.147L65.2546 57.2294H58.5443ZM58.5443 58.2663V58.7847H64.9315L65.0392 58.2663H58.5443ZM58.5443 59.3031V59.8215H64.7161L64.8237 59.3031H58.5443ZM58.5443 60.34V60.8584H64.5005L64.6083 60.34H58.5443ZM58.5443 61.3768V61.8952H64.285L64.3928 61.3768H58.5443ZM58.5443 62.4136V62.932H64.0696L64.1774 62.4136H58.5443ZM58.5443 63.4505V63.9689H63.8541L63.9619 63.4505H58.5443ZM58.5443 64.4873V65.0057H62.9491L63.551 64.4873H58.5443ZM58.5443 65.5241V66.0425H61.7452L62.3472 65.5241H58.5443ZM58.5443 66.561V67.0794H60.5413L61.1432 66.561H58.5443ZM58.5443 67.5978V68.1162H59.3373L59.9393 67.5978H58.5443ZM58.5443 68.6346V68.7992L58.7354 68.6346H58.5443Z" fill="black"></path><path fill-rule="evenodd" clip-rule="evenodd" d="M47.077 28.1963L46.5642 28.7147H48.4804L47.9676 28.1963H47.077ZM56.6003 28.1963L56.0875 28.7147H58.0037L57.4909 28.1963H56.6003ZM46.0514 29.2331L45.5386 29.7515H49.506L48.9932 29.2331H46.0514ZM55.5747 29.2331L55.0619 29.7515H59.0293L58.5165 29.2331H55.5747ZM45.0258 30.27L44.5131 30.7884H50.5316L50.0188 30.27H45.0258ZM54.5491 30.27L54.0363 30.7884H60.0548L59.542 30.27H54.5491ZM44.0003 31.3068L43.4875 31.8252H51.5571L51.0443 31.3068H44.0003ZM53.5235 31.3068L53.0107 31.8252H61.0804L60.5676 31.3068H53.5235ZM43.187 32.3436L43.6998 32.862H51.3448L51.8576 32.3436H43.187ZM52.7103 32.3436L53.2231 32.862H60.8681L61.3809 32.3436H52.7103ZM52.284 32.5599L51.9852 32.862H52.5828L52.284 32.5599ZM44.2126 33.3805L44.7254 33.8989H50.3192L50.832 33.3805H44.2126ZM51.4724 33.3805L50.9596 33.8989H53.6084L53.0956 33.3805H51.4724ZM53.7359 33.3805L54.2487 33.8989H59.8425L60.3553 33.3805H53.7359ZM45.2382 34.4173L45.751 34.9357H49.2937L49.8064 34.4173H45.2382ZM50.4468 34.4173L49.934 34.9357H54.634L54.1212 34.4173H50.4468ZM54.7614 34.4173L55.2742 34.9357H58.8169L59.3297 34.4173H54.7614ZM46.2637 35.4541L46.7765 35.9726H48.2681L48.7809 35.4541H46.2637ZM49.4212 35.4541L48.9084 35.9726H55.6596L55.1468 35.4541H49.4212ZM55.787 35.4541L56.2998 35.9726H57.7914L58.3041 35.4541H55.787ZM47.2893 36.491L47.5223 36.7265L47.7553 36.491H47.2893ZM48.3956 36.491L47.8829 37.0094H56.6851L56.1724 36.491H48.3956ZM56.8126 36.491L57.0456 36.7265L57.2786 36.491H56.8126ZM48.315 37.5278L48.8278 38.0462H55.7402L56.253 37.5278H48.315ZM49.3406 38.5646L49.8534 39.0831H54.7146L55.2274 38.5646H49.3406ZM50.3662 39.6015L50.879 40.1199H53.689L54.2018 39.6015H50.3662ZM51.3918 40.6383L51.9045 41.1567H52.6635L53.1763 40.6383H51.3918Z" fill="black"></path><path fill-rule="evenodd" clip-rule="evenodd" d="M47.2021 27.4219H38.3192L42.7607 31.9121L47.2021 27.4219Z" fill="black"></path><path fill-rule="evenodd" clip-rule="evenodd" d="M56.7254 27.4219H47.8425L52.284 31.9121L56.7254 27.4219Z" fill="black"></path><path fill-rule="evenodd" clip-rule="evenodd" d="M66.2485 27.4219H57.3656L61.8071 31.9121L66.2485 27.4219Z" fill="black"></path><path fill-rule="evenodd" clip-rule="evenodd" d="M57.2745 38.0225L52.7418 42.6049V70.4956L57.1036 67.9497L57.2745 38.0225Z" fill="black"></path><path fill-rule="evenodd" clip-rule="evenodd" d="M58.5564 45.8906V53.2966C69.7286 60.4113 58.3733 69.744 52.5128 71.4412C65.7394 70.2394 74.3451 55.1274 58.5564 45.8906Z" fill="black"></path><path fill-rule="evenodd" clip-rule="evenodd" d="M33.8328 26.5234V26.6413H33.9353L33.8328 26.5234ZM33.8328 27.1597V27.6781H34.8377L34.3865 27.1597H33.8328ZM33.8328 28.1965V28.7149H35.7401L35.2889 28.1965H33.8328ZM33.8328 29.2334V29.7518H36.6425L36.1913 29.2334H33.8328ZM33.8328 30.2702V30.7886H37.5448L37.0937 30.2702H33.8328ZM33.8328 31.307V31.8254H38.4472L37.996 31.307H33.8328ZM33.8328 32.3439V32.8623H39.3495L38.8983 32.3439H33.8328ZM33.8328 33.3807V33.8991H40.2519L39.8007 33.3807H33.8328ZM33.8328 34.4175V34.936H41.1543L40.7031 34.4175H33.8328ZM33.8328 35.4544V35.9728H42.0567L41.6055 35.4544H33.8328ZM33.8328 36.4912V37.0096H42.9591L42.5079 36.4912H33.8328ZM33.8328 37.528V38.0465H43.8614L43.4102 37.528H33.8328ZM33.8328 38.5649V39.0833H44.7638L44.3126 38.5649H33.8328ZM33.8328 39.6017V40.1201H45.6662L45.215 39.6017H33.8328ZM33.8328 40.6386V41.157H46.5685L46.1174 40.6386H33.8328ZM33.8328 41.6754V42.1938H47.4709L47.0197 41.6754H33.8328ZM33.8328 42.7122V43.2306H48.3733L47.9221 42.7122H33.8328ZM33.8328 43.7491V44.2675H49.2756L48.8245 43.7491H33.8328ZM33.8328 44.7859V45.3043H50.178L49.7268 44.7859H33.8328ZM33.8328 45.8227V46.3411H51.0804L50.6292 45.8227H33.8328ZM33.8328 46.8596V47.378H51.4141V46.8596H33.8328ZM33.8328 47.8964V48.4148H51.4141V47.8964H33.8328ZM33.8328 48.9332V49.4517H51.4141V48.9332H33.8328ZM33.8328 49.9701V50.4885H51.4141V49.9701H33.8328ZM33.8328 51.0069V51.5253H51.4141V51.0069H33.8328ZM33.8328 52.0437V52.5622H51.4141V52.0437H33.8328ZM33.8328 53.0806V53.599H51.4141V53.0806H33.8328ZM33.8328 54.1174V54.6358H51.4141V54.1174H33.8328ZM33.8328 55.1543V55.6727H51.4141V55.1543H33.8328ZM33.8328 56.1911V56.7095H51.4141V56.1911H33.8328ZM33.8328 57.2279V57.7463H51.4141V57.2279H33.8328ZM33.8328 58.2648V58.7591C33.8328 58.7672 33.833 58.7752 33.833 58.7832H51.4141V58.2648H33.8328ZM33.8539 59.3016C33.8673 59.4755 33.8871 59.6483 33.913 59.82H51.4141V59.3016H33.8539ZM34.01 60.3384C34.0493 60.5125 34.0951 60.6853 34.1466 60.8568H51.4141V60.3384H34.01ZM34.3231 61.3753C34.3888 61.5495 34.4597 61.7224 34.5375 61.8937H51.4141V61.3753H34.3231ZM34.7935 62.4121C34.8866 62.5867 34.9864 62.7594 35.0915 62.9305H51.4141V62.4121H34.7935ZM35.4312 63.4489C35.5532 63.6238 35.6811 63.7966 35.8148 63.9674H51.4141V63.4489H35.4312ZM36.244 64.4858C36.397 64.661 36.556 64.8339 36.7207 65.0042H51.4141V64.4858H36.244ZM37.2478 65.5226C37.4354 65.6985 37.6291 65.8713 37.8282 66.041H51.4141V65.5226H37.2478ZM38.4654 66.5594C38.6927 66.736 38.9253 66.9091 39.1638 67.0779H51.4141V66.5594H38.4654ZM39.9333 67.5963C40.2096 67.7741 40.4914 67.9472 40.7786 68.1147H51.4141V67.5963H39.9333ZM41.7156 68.6331C42.0587 68.8134 42.4071 68.9863 42.76 69.1515H51.4141V68.6331H41.7156ZM43.9407 69.67C44.3932 69.8556 44.8503 70.0285 45.3097 70.1884H51.4141V69.67H43.9407ZM46.9707 70.7068C47.7411 70.9194 48.5094 71.0934 49.2645 71.2252H51.4141V70.7068H46.9707ZM51.3264 71.4815C51.3556 71.4836 51.385 71.4863 51.4141 71.4882V71.4815H51.3264Z" fill="black"></path><path fill-rule="evenodd" clip-rule="evenodd" d="M44.7639 13.1465C41.1347 13.1508 37.418 15.0423 34.9847 19.8373C30.1781 29.3093 40.5767 38.4585 51.4296 47.7163V41.7626C47.0757 37.5166 41.9377 33.5477 37.3711 27.4923C36.0469 25.7363 36.7664 22.009 38.2777 20.0298C43.9989 14.2191 50.1694 18.1794 50.2486 21.9158C50.3279 25.6522 51.5575 26.8623 53.0743 26.8623C54.501 26.8613 55.6894 25.7853 55.8091 24.3861C55.8462 24.2222 55.8613 24.0279 55.8895 23.581C56.2388 18.0377 50.6151 13.1395 44.7639 13.1465Z" fill="black"></path><path d="M85.9791 79.55C86.0018 79.4835 86.0481 79.472 86.118 79.5157C86.5173 79.7591 86.7169 80.0858 86.7169 80.4956C86.7004 80.8015 86.6356 81.0688 86.5224 81.2977C86.4113 81.5265 86.2971 81.7002 86.1798 81.8188C85.9781 82.0248 85.6879 82.1767 85.3093 82.2745C85.2619 82.2828 85.2249 82.2869 85.1981 82.2869C85.1611 82.2869 85.1426 82.2776 85.1426 82.2588C85.1426 82.2256 85.1981 82.1683 85.3093 82.0872C85.5315 81.9312 85.7394 81.7533 85.9328 81.5536C86.1221 81.3622 86.2168 81.2352 86.2168 81.1728C86.2168 81.0105 86.0409 80.7848 85.6889 80.4956C85.6231 80.4415 85.6025 80.376 85.6272 80.299C85.7198 80.118 85.8371 79.8684 85.9791 79.55Z" fill="black"></path><path d="M84.8648 79.019C84.8566 79.2457 84.8504 79.4496 84.8463 79.6306C84.8442 79.8095 84.836 79.9614 84.8216 80.0863C84.7969 80.3546 84.7454 80.5929 84.6672 80.8009C84.5911 81.0069 84.5304 81.1442 84.4851 81.2128C84.4419 81.2815 84.4059 81.3314 84.3771 81.3626C84.3442 81.3938 84.3184 81.4042 84.2999 81.3938C84.2834 81.3834 84.2773 81.3658 84.2814 81.3408C84.2814 81.3345 84.2999 81.2399 84.3369 81.0568C84.374 80.8737 84.3966 80.6969 84.4049 80.5263C84.4151 80.3536 84.4172 80.1112 84.411 79.7991C84.4049 79.485 84.4121 79.2447 84.4326 79.0783C84.445 78.9826 84.4656 78.8827 84.4944 78.7787C84.5232 78.6746 84.5561 78.5737 84.5932 78.4759C84.6323 78.3761 84.6724 78.2814 84.7135 78.192C84.7547 78.1025 84.7928 78.0234 84.8278 77.9548C84.8566 77.9111 84.8813 77.8945 84.9018 77.9049C84.9224 77.9132 84.9317 77.9298 84.9296 77.9548C84.9255 77.9694 84.9204 78.0016 84.9142 78.0515C84.9101 78.0994 84.9049 78.1576 84.8988 78.2263C84.8946 78.2929 84.8905 78.3646 84.8864 78.4416C84.8823 78.5186 84.8782 78.5945 84.8741 78.6694C84.872 78.7423 84.8699 78.8099 84.8679 78.8723C84.8658 78.9347 84.8648 78.9836 84.8648 79.019Z" fill="black"></path><path d="M83.2103 75.3029C83.2288 75.3091 83.2175 75.3611 83.1763 75.4589C83.1681 75.4984 83.1465 75.5484 83.1115 75.6087C83.0045 75.7918 82.7966 76.0508 82.4879 76.3858C82.4159 76.4544 82.3459 76.5221 82.278 76.5886C82.2101 76.6552 82.1443 76.7218 82.0805 76.7884C82.1052 76.7155 82.136 76.6406 82.1731 76.5637C82.1998 76.5096 82.2533 76.4347 82.3336 76.339C82.562 76.0893 82.7369 75.8937 82.8584 75.7523C83.0209 75.5567 83.1382 75.4069 83.2103 75.3029ZM80.9136 80.5738C80.9136 80.4594 80.8426 80.371 80.7006 80.3085C80.5586 80.2482 80.3734 80.218 80.145 80.218C80.0236 80.218 79.9444 80.2274 79.9073 80.2461C79.7818 80.3023 79.719 80.4303 79.719 80.63C79.719 80.8214 79.7684 80.9712 79.8672 81.0794C79.9495 81.1709 80.0606 81.2167 80.2006 81.2167C80.4167 81.2167 80.5895 81.1449 80.7192 81.0014C80.8488 80.8578 80.9136 80.7153 80.9136 80.5738ZM81.2316 80.5145C81.2069 80.5208 81.176 80.5957 81.139 80.7392C81.0937 80.8952 81.0649 80.9899 81.0525 81.0232C80.9105 81.4081 80.8035 81.6609 80.7315 81.7815C80.5195 82.1123 80.2541 82.2777 79.9351 82.2777C79.7129 82.2777 79.5451 82.1685 79.4319 81.9501C79.3208 81.7358 79.2653 81.4268 79.2653 81.0232C79.2653 80.8609 79.2961 80.5738 79.3579 80.1619C79.4217 79.7291 79.4772 79.3786 79.5246 79.1102C79.5739 78.8127 79.6202 78.5516 79.6635 78.3269C79.7005 78.0897 79.7437 77.9118 79.7931 77.7932L80.108 77.1348C80.1203 77.116 80.1357 77.1108 80.1543 77.1192C80.1666 77.1316 80.1707 77.1576 80.1666 77.1972C80.1646 77.2367 80.1522 77.3199 80.1296 77.4468C80.1275 77.451 80.0596 77.9097 79.9258 78.8231C79.8867 79.0769 79.8559 79.2818 79.8332 79.4379C79.8127 79.5939 79.7993 79.701 79.7931 79.7593C79.8384 79.7593 80.1255 79.4503 80.6543 78.8324C81.4466 77.9066 81.9261 77.3501 82.0928 77.1628C82.2965 76.9319 82.4756 76.728 82.6299 76.5512C82.7843 76.3723 82.9129 76.2214 83.0158 76.0987C83.4438 75.5848 83.7906 75.1125 84.0561 74.6819C84.1157 74.5966 84.1497 74.557 84.1579 74.5633C84.1682 74.5695 84.1703 74.5934 84.1641 74.635C84.1106 74.8306 84.0807 74.9367 84.0746 74.9534C83.9984 75.1656 83.8842 75.3882 83.7319 75.6212C83.6373 75.7897 83.4953 75.9978 83.3059 76.2453C83.131 76.4784 82.8769 76.7915 82.5435 77.1847C82.5332 77.1909 82.3614 77.3813 82.028 77.7558C81.921 77.8785 81.8129 78.0034 81.7039 78.1303C81.5969 78.2551 81.4909 78.3831 81.3859 78.5141L80.8149 79.1851L80.2963 79.778C80.3004 79.778 80.3035 79.7791 80.3055 79.7811C80.3096 79.7832 80.3148 79.7843 80.321 79.7843L81.0155 79.9341C81.0608 79.9465 81.1061 79.9601 81.1513 79.9746C81.1966 79.9871 81.2419 79.9986 81.2871 80.009C81.4888 80.0672 81.6246 80.0963 81.6946 80.0963C81.7666 80.0963 81.8778 80.0058 82.028 79.8248C82.1082 79.725 82.169 79.649 82.2101 79.597C82.2307 79.5866 82.2564 79.5845 82.2873 79.5908C82.3243 79.6012 82.348 79.6064 82.3583 79.6064L82.4355 79.597C82.4828 79.5908 82.5198 79.5669 82.5466 79.5252C82.5589 79.5065 82.5713 79.4878 82.5836 79.4691C82.596 79.4503 82.6104 79.4316 82.6268 79.4129C82.6845 79.3255 82.7277 79.2787 82.7565 79.2725C82.7894 79.2787 82.8429 79.2912 82.917 79.3099C82.9458 79.3078 83.0034 79.2506 83.0899 79.1383L83.1948 78.9916C83.2236 78.9916 83.2638 79.0062 83.3152 79.0353L83.3615 79.0103C83.4212 78.9729 83.4582 78.9344 83.4726 78.8949C83.4891 78.847 83.4973 78.8033 83.4973 78.7638C83.4973 78.7409 83.4942 78.6608 83.4881 78.5235V78.3425C83.5395 78.1989 83.6043 78.0575 83.6825 77.9181C83.7628 77.7787 83.8245 77.6715 83.8678 77.5966C83.8698 77.5841 83.8852 77.5675 83.9141 77.5467C83.9264 77.5467 83.9326 77.607 83.9326 77.7277C83.9326 77.7651 83.9326 77.8036 83.9326 77.8432C83.9326 77.8827 83.9326 77.9212 83.9326 77.9586C83.9326 78.071 83.9243 78.1968 83.9079 78.3362C83.8935 78.5048 83.8276 78.6982 83.7103 78.9167C83.5889 79.1352 83.4726 79.2974 83.3615 79.4035C83.3286 79.4389 83.2843 79.4764 83.2288 79.5159C83.2 79.5346 83.1722 79.5533 83.1454 79.5721C83.1207 79.5887 83.096 79.6043 83.0713 79.6189C82.9787 79.6875 82.9242 79.7281 82.9077 79.7406C82.8707 79.7718 82.8275 79.7999 82.7781 79.8248L82.6176 79.8966C82.5826 79.9237 82.5486 79.9497 82.5157 79.9746C82.4848 79.9975 82.455 80.0214 82.4262 80.0464L82.1391 80.2087C82.1021 80.2337 82.0403 80.295 81.9539 80.3928C81.8057 80.5509 81.6792 80.63 81.5742 80.63C81.566 80.63 81.4971 80.6019 81.3674 80.5457C81.3201 80.527 81.2748 80.5176 81.2316 80.5176V80.5145ZM80.2963 76.1517C80.2963 76.1143 80.3621 75.9738 80.4938 75.7304C80.6255 75.4849 80.7068 75.3601 80.7377 75.3559C80.7871 75.3559 80.8642 75.4017 80.9692 75.4932C81.0762 75.5827 81.1482 75.668 81.1853 75.7492C81.2532 75.6368 81.318 75.5276 81.3797 75.4215C81.4703 75.2717 81.5259 75.1968 81.5464 75.1968C81.6205 75.1968 81.7152 75.2498 81.8304 75.3559C81.9416 75.4745 81.9971 75.5837 81.9971 75.6836C81.9971 75.798 81.9416 75.9416 81.8304 76.1143C81.7152 76.2786 81.6329 76.3608 81.5835 76.3608C81.5444 76.3608 81.4878 76.3223 81.4137 76.2453C81.3108 76.1351 81.2254 76.055 81.1575 76.005C80.9887 76.3546 80.856 76.5293 80.7593 76.5293C80.7387 76.5293 80.6564 76.4721 80.5123 76.3577C80.3683 76.2412 80.2963 76.1725 80.2963 76.1517ZM80.7192 74.9908C80.7192 74.9596 80.7758 74.8223 80.8889 74.5789C81.0042 74.3355 81.0803 74.2117 81.1174 74.2075C81.2038 74.2075 81.2995 74.2606 81.4044 74.3667C81.5094 74.4852 81.5619 74.5997 81.5619 74.7099C81.5619 74.8119 81.5125 74.9534 81.4137 75.1344C81.317 75.3154 81.246 75.4059 81.2007 75.4059C81.1719 75.4059 81.1091 75.3632 81.0124 75.2779C80.9178 75.1926 80.8447 75.1312 80.7932 75.0938C80.7439 75.0563 80.7192 75.022 80.7192 74.9908ZM83.0991 74.1701C83.0991 74.1014 83.1537 73.9578 83.2627 73.7394C83.3718 73.5209 83.4428 73.4034 83.4757 73.3867C83.5416 73.3576 83.6352 73.4096 83.7566 73.5428C83.8801 73.6739 83.946 73.7768 83.9542 73.8517C83.9542 73.9495 83.9027 74.092 83.7998 74.2793C83.6969 74.4644 83.6229 74.557 83.5776 74.557C83.5591 74.557 83.4984 74.5217 83.3955 74.4509C83.2926 74.3781 83.2154 74.3209 83.164 74.2793C83.1207 74.2418 83.0991 74.2054 83.0991 74.1701Z" fill="black"></path><path d="M78.5553 80.7151C78.5553 80.8504 78.5326 81.0012 78.4874 81.1676C78.4441 81.3341 78.3865 81.4849 78.3145 81.6201C78.2034 81.8344 78.0892 81.9978 77.9719 82.1101C77.8546 82.2224 77.7239 82.2786 77.5798 82.2786C77.3514 82.2786 77.2372 82.1382 77.2372 81.8573C77.2372 81.7616 77.2526 81.6586 77.2835 81.5484C77.3226 81.4339 77.3709 81.3268 77.4286 81.2269C77.4882 81.1271 77.5387 81.0428 77.5798 80.9742C77.5387 80.9617 77.5129 80.9544 77.5027 80.9523C77.4944 80.9482 77.4872 80.9461 77.481 80.9461C77.4749 80.9211 77.4954 80.8535 77.5428 80.7432L77.87 79.9911C77.9009 79.9121 77.9369 79.8726 77.978 79.8726C78.0089 79.8726 78.0552 79.8923 78.1169 79.9319C78.1807 79.9714 78.2342 80.0067 78.2775 80.038C78.3803 80.1316 78.4524 80.2221 78.4935 80.3095C78.5347 80.3968 78.5553 80.5321 78.5553 80.7151ZM78.1077 81.4548C78.1077 81.3653 78.0768 81.2925 78.0151 81.2363C77.9842 81.2051 77.94 81.1718 77.8823 81.1364C77.8247 81.099 77.7774 81.0771 77.7403 81.0709C77.7136 81.0709 77.6652 81.126 77.5953 81.2363C77.5253 81.3445 77.4903 81.436 77.4903 81.5109C77.4903 81.6524 77.5736 81.7231 77.7403 81.7231C77.8144 81.7231 77.8937 81.6961 77.978 81.642C78.0645 81.5858 78.1077 81.5234 78.1077 81.4548Z" fill="black"></path><path d="M74.9251 80.4145C74.6473 80.4145 74.4415 80.3052 74.3077 80.0868C74.2007 79.9099 74.1472 79.6811 74.1472 79.4002C74.1554 79.3357 74.1699 79.2629 74.1904 79.1818C74.209 79.0985 74.2347 79.0195 74.2676 78.9446C74.3005 78.8697 74.3396 78.8052 74.3849 78.7511C74.4302 78.697 74.4837 78.6637 74.5454 78.6512C74.5454 78.8884 74.5732 79.0705 74.6288 79.1974C74.6679 79.2827 74.7347 79.344 74.8294 79.3815C74.9241 79.4189 75.0218 79.4314 75.1227 79.4189C75.1659 79.3024 75.2081 79.1901 75.2492 79.0819C75.2554 79.0694 75.3079 78.9446 75.4067 78.7074C75.4828 78.541 75.5692 78.4037 75.6659 78.2955C75.81 78.1353 75.9705 78.0552 76.1475 78.0552C76.2298 78.0552 76.2998 78.0708 76.3574 78.102C76.415 78.1311 76.4531 78.18 76.4716 78.2487C76.4778 78.3132 76.4593 78.3662 76.4161 78.4078C76.3749 78.4473 76.342 78.4671 76.3173 78.4671C76.3111 78.4671 76.273 78.4578 76.2031 78.439C76.1351 78.4203 76.0714 78.4109 76.0117 78.4109C75.88 78.4109 75.7637 78.4702 75.6629 78.5888C75.562 78.7074 75.5116 78.8104 75.5116 78.8978C75.5116 78.9706 75.5445 79.0434 75.6104 79.1162C75.6783 79.189 75.7688 79.2255 75.882 79.2255C76.0281 79.2192 76.1732 79.11 76.3173 78.8978C76.3481 78.8478 76.3934 78.7698 76.4531 78.6637C76.5148 78.5576 76.5642 78.5129 76.6013 78.5295C76.6342 78.542 76.6332 78.5992 76.5982 78.7012C76.5632 78.801 76.5056 78.9342 76.4253 79.1006C76.3101 79.3316 76.1835 79.5438 76.0456 79.7373C75.7143 80.1887 75.3408 80.4145 74.9251 80.4145Z" fill="black"></path><path d="M73.502 80.854C73.4897 80.829 73.4773 80.804 73.465 80.7791C73.4588 80.7333 73.4464 80.6605 73.4279 80.5606C73.4115 80.5107 73.4176 80.4587 73.4464 80.4046C73.4773 80.3547 73.5061 80.3203 73.5329 80.3016L73.7428 80.13C73.9403 79.9427 74.07 79.7055 74.1317 79.4184C74.1379 79.381 74.1544 79.2822 74.1811 79.122C74.1935 79.02 74.212 78.8359 74.2367 78.5696C74.247 78.4489 74.2552 78.3439 74.2614 78.2544C74.2696 78.1649 74.284 78.0328 74.3046 77.8581C74.3272 77.6833 74.3571 77.5585 74.3941 77.4836L74.5145 77.237L74.7059 76.8719C74.7306 76.8594 74.7429 76.8781 74.7429 76.9281C74.7368 76.9926 74.7213 77.0748 74.6966 77.1746C74.6678 77.3057 74.6369 77.5273 74.604 77.8393C74.5629 78.1618 74.5423 78.4364 74.5423 78.6632L74.4682 79.5807C74.4497 79.691 74.4373 79.7586 74.4312 79.7836C74.3941 79.9167 74.3406 79.9833 74.2706 79.9833C74.2521 80.0249 74.2305 80.0675 74.2058 80.1112C74.1564 80.1882 74.0803 80.286 73.9774 80.4046C73.8704 80.5232 73.7901 80.6074 73.7366 80.6574C73.6358 80.7447 73.5576 80.8103 73.502 80.854Z" fill="black"></path><path d="M73.6471 80.9637C73.5401 81.2654 73.4403 81.488 73.3477 81.6316C73.2551 81.7751 73.1821 81.8646 73.1286 81.8999C73.0771 81.9332 72.9989 81.9696 72.894 82.0092C72.789 82.0487 72.6285 82.1038 72.4124 82.1746C72.1984 82.2432 72.0718 82.2776 72.0327 82.2776C72.008 82.2776 71.9957 82.2713 71.9957 82.2588C71.971 82.2255 72.0986 82.1142 72.3784 81.9249C72.6604 81.7335 72.8415 81.6087 72.9217 81.5504C73.004 81.4901 73.0874 81.4027 73.1718 81.2883C73.2582 81.1739 73.321 81.0449 73.3601 80.9013C73.3374 80.8992 73.3148 80.9013 73.2922 80.9075C73.2716 80.9138 73.25 80.9211 73.2273 80.9294C73.2068 80.9377 73.1851 80.946 73.1625 80.9543C73.1399 80.9606 73.1183 80.9637 73.0977 80.9637C72.9824 80.9596 72.8857 80.9221 72.8075 80.8514C72.7314 80.7785 72.6995 80.6984 72.7118 80.6111C72.7242 80.5591 72.7417 80.4977 72.7643 80.4269C72.789 80.3562 72.8384 80.2449 72.9125 80.093C72.9866 79.9391 73.0606 79.8122 73.1347 79.7123C73.2109 79.6124 73.286 79.5625 73.3601 79.5625C73.4877 79.5625 73.5936 79.6176 73.678 79.7279C73.7624 79.8361 73.8046 79.9672 73.8046 80.1211C73.8046 80.1981 73.7994 80.2751 73.7891 80.352C73.7809 80.429 73.7716 80.4935 73.7614 80.5455C73.7511 80.5955 73.7356 80.661 73.7151 80.7421C73.6945 80.8212 73.6718 80.8951 73.6471 80.9637Z" fill="black"></path><path d="M69.5293 81.9371C69.4244 82.1244 69.3328 82.3959 69.2546 82.7517C69.1764 83.1074 69.1126 83.5412 69.0632 84.053C69.0138 84.5669 68.9809 85.0485 68.9644 85.4979C68.95 85.9473 68.9367 86.3363 68.9243 86.6651C68.912 86.9959 68.8842 87.1332 68.841 87.077C68.8101 87.0416 68.7947 86.9803 68.7947 86.8929C68.7905 86.5933 68.7926 86.1637 68.8008 85.604C68.8111 85.0444 68.8358 84.4493 68.8749 83.8189C68.9161 83.1886 69.0128 82.6362 69.1651 82.1618C69.2104 82.0328 69.2608 81.9049 69.3163 81.778C69.4316 81.5346 69.5674 81.3109 69.7238 81.107C69.802 81.0113 69.8956 80.9104 70.0047 80.8043C70.1138 80.6982 70.2126 80.615 70.301 80.5547C70.3916 80.4922 70.4719 80.4413 70.5418 80.4017C70.6118 80.3622 70.6591 80.3352 70.6838 80.3206L70.9462 79.7838C71.0059 79.6611 71.0573 79.5841 71.1005 79.5529C71.1129 79.5404 71.1829 79.5435 71.3104 79.5623C71.4401 79.581 71.5759 79.6164 71.7179 79.6684C71.862 79.7204 71.935 79.8005 71.9371 79.9087C71.933 79.9794 71.9227 80.0439 71.9062 80.1021C71.8897 80.1604 71.8578 80.2374 71.8105 80.3331C71.7652 80.4288 71.7076 80.5151 71.6376 80.5921C71.5697 80.667 71.5039 80.7232 71.4401 80.7606C71.3763 80.7981 71.2899 80.8355 71.1808 80.873C71.0717 80.9083 70.9493 80.9416 70.8135 80.9728C70.6776 81.004 70.5356 81.0519 70.3875 81.1164C70.2393 81.1788 70.085 81.286 69.9244 81.4378C69.766 81.5897 69.6343 81.7561 69.5293 81.9371Z" fill="black"></path><path d="M68.5107 79.4314C68.3563 79.9869 68.1834 80.3135 67.9921 80.4113C67.7245 80.5424 67.5609 80.6298 67.5013 80.6735C67.4436 80.7192 67.4056 80.7546 67.387 80.7796C67.3253 80.867 67.2646 80.9793 67.2049 81.1166C67.1041 81.3788 67.0228 81.5806 66.9611 81.7221C66.8582 81.9363 66.7069 82.0893 66.5073 82.1808C66.4106 82.2182 66.284 82.2505 66.1276 82.2775C65.963 82.3129 65.8344 82.3306 65.7417 82.3306C65.6615 82.3389 65.6111 82.3202 65.5905 82.2744C65.5843 82.2453 65.6152 82.2058 65.6831 82.1558C65.7078 82.1371 65.7922 82.0747 65.9362 81.9686C65.9527 81.954 66.0638 81.8812 66.2696 81.7501C66.4301 81.6399 66.5063 81.5879 66.498 81.5941C66.6771 81.4505 66.8005 81.3382 66.8684 81.2571C66.889 81.23 66.9611 81.074 67.0845 80.7889C67.2121 80.506 67.3078 80.3219 67.3716 80.2366C67.4375 80.1492 67.5393 80.0608 67.6772 79.9713C67.7307 79.9422 67.8223 79.8933 67.9519 79.8246C68.0651 79.7685 68.1454 79.7206 68.1927 79.6811C68.2359 79.6436 68.2915 79.5625 68.3594 79.4377C68.4273 79.3149 68.4746 79.2556 68.5014 79.2598C68.5302 79.2681 68.5333 79.3253 68.5107 79.4314ZM67.0104 84.5401C67.0104 84.5026 67.0722 84.3601 67.1957 84.1125C67.3212 83.865 67.3984 83.7412 67.4272 83.7412C67.4766 83.7412 67.5517 83.7869 67.6525 83.8785C67.7554 83.97 67.8233 84.0553 67.8562 84.1344C67.9221 84.0241 67.9838 83.9159 68.0415 83.8098C68.1279 83.6579 68.1824 83.582 68.2051 83.582C68.275 83.582 68.3625 83.6351 68.4674 83.7412C68.5765 83.8618 68.631 83.9721 68.631 84.072C68.631 84.1885 68.5765 84.332 68.4674 84.5026C68.3625 84.6691 68.2853 84.7523 68.2359 84.7523C68.1989 84.7523 68.1454 84.7128 68.0754 84.6337C67.9766 84.5255 67.8943 84.4464 67.8285 84.3965C67.6679 84.746 67.5414 84.9208 67.4488 84.9208C67.4282 84.9208 67.35 84.8626 67.2142 84.746C67.0784 84.6316 67.0104 84.563 67.0104 84.5401ZM67.4457 85.417C67.4478 85.3858 67.5085 85.261 67.6278 85.0425C67.7492 84.8261 67.8243 84.72 67.8532 84.7242C67.9272 84.7304 68.0075 84.7876 68.0939 84.8958C68.1824 85.0061 68.2236 85.1112 68.2174 85.211C68.2112 85.3192 68.1608 85.4534 68.0661 85.6136C67.9674 85.7655 67.8995 85.8414 67.8624 85.8414C67.8377 85.8393 67.8079 85.8165 67.7729 85.7728C67.7276 85.7249 67.6823 85.6791 67.6371 85.6354C67.5918 85.5918 67.5486 85.5512 67.5074 85.5137C67.4663 85.4763 67.4457 85.444 67.4457 85.417ZM67.0722 77.4591C67.0722 77.3905 67.1267 77.2469 67.2358 77.0285C67.3449 76.81 67.4159 76.6925 67.4488 76.6758C67.5146 76.6467 67.6083 76.6987 67.7297 76.8318C67.8532 76.9629 67.919 77.0659 67.9272 77.1408C67.9272 77.2386 67.8758 77.3811 67.7729 77.5683C67.67 77.7535 67.5959 77.8461 67.5506 77.8461C67.5321 77.8461 67.4714 77.8107 67.3685 77.74C67.2656 77.6672 67.1885 77.61 67.137 77.5683C67.0938 77.5309 67.0722 77.4945 67.0722 77.4591Z" fill="black"></path><path d="M63.4327 78.4834C63.4327 78.5958 63.4338 78.679 63.4358 78.7331C63.4358 78.8101 63.4533 78.9099 63.4883 79.0327C63.5254 79.1284 63.5871 79.2074 63.6735 79.2698C63.7558 79.3323 63.867 79.3635 64.0069 79.3635C64.1983 79.3635 64.3495 79.3104 64.4607 79.2043C64.6088 79.0649 64.7087 78.9838 64.7601 78.9609C64.7951 78.9463 64.8342 78.9442 64.8774 78.9546C64.9227 78.963 64.97 78.965 65.0194 78.9609C65.075 78.9609 65.1274 78.8974 65.1768 78.7705C65.2262 78.6415 65.2602 78.5718 65.2787 78.5614C65.2972 78.551 65.3188 78.5489 65.3435 78.5552C65.4155 78.5802 65.4649 78.5926 65.4917 78.5926C65.5452 78.5926 65.5915 78.5562 65.6306 78.4834C65.6471 78.4584 65.6738 78.3929 65.7108 78.2868C65.7417 78.1973 65.7664 78.1526 65.7849 78.1526C65.8096 78.1526 65.822 78.1807 65.822 78.2369C65.822 78.4491 65.7613 78.6551 65.6398 78.8548C65.5143 79.0545 65.3867 79.1544 65.2571 79.1544C65.1727 79.275 65.1243 79.3416 65.112 79.3541C65.0297 79.4519 64.9546 79.5008 64.8867 79.5008C64.8187 79.4883 64.7622 79.4821 64.7169 79.4821C64.6716 79.4821 64.6232 79.4945 64.5718 79.5195C64.5101 79.5445 64.3928 79.6724 64.2199 79.9033C64.047 80.1301 63.8598 80.2435 63.6581 80.2435C63.44 80.2435 63.2794 80.1457 63.1765 79.9502C63.0819 79.7567 63.0345 79.5174 63.0345 79.2324C63.086 79.0015 63.1426 78.8142 63.2043 78.6707C63.264 78.5209 63.3227 78.446 63.3803 78.446C63.3926 78.446 63.4101 78.4584 63.4327 78.4834ZM63.6365 74.8009C63.6365 74.7656 63.6982 74.6293 63.8217 74.3921C63.9452 74.1549 64.0213 74.0343 64.0501 74.0301C64.0975 74.0301 64.1705 74.0738 64.2693 74.1612C64.3681 74.2486 64.4349 74.3318 64.4699 74.4108C64.5337 74.3027 64.5955 74.1966 64.6551 74.0925C64.7395 73.9469 64.791 73.8741 64.8095 73.8741C64.8795 73.8741 64.969 73.9261 65.078 74.0301C65.183 74.1445 65.2355 74.2507 65.2355 74.3484C65.2355 74.4587 65.183 74.5971 65.078 74.7635C64.969 74.9237 64.8918 75.0038 64.8465 75.0038C64.8095 75.0038 64.756 74.9663 64.686 74.8914C64.5893 74.7853 64.509 74.7084 64.4452 74.6605C64.2868 74.9975 64.1623 75.1661 64.0717 75.1661C64.0511 75.1661 63.9729 75.1109 63.8371 75.0007C63.7034 74.8883 63.6365 74.8217 63.6365 74.8009ZM64.0316 73.6744C64.0316 73.6452 64.0851 73.5131 64.1921 73.278C64.3012 73.0408 64.3732 72.9202 64.4082 72.916C64.4885 72.916 64.578 72.967 64.6768 73.0689C64.7755 73.1854 64.8249 73.2967 64.8249 73.4029C64.8249 73.5027 64.7786 73.64 64.686 73.8148C64.5955 73.9895 64.5286 74.0769 64.4854 74.0769C64.4586 74.0769 64.4 74.0364 64.3094 73.9552C64.2209 73.872 64.152 73.8127 64.1026 73.7773C64.0553 73.7399 64.0316 73.7056 64.0316 73.6744Z" fill="black"></path><path d="M63.4327 78.5169L63.3463 79.0412C63.3175 79.2555 63.2846 79.4271 63.2475 79.5561C63.2166 79.6892 63.1847 79.7558 63.1518 79.7558C63.1271 79.7558 63.088 79.8016 63.0345 79.8931C62.9337 80.0679 62.8771 80.1844 62.8647 80.2427C62.8195 80.2655 62.7773 80.278 62.7382 80.2801C62.6991 80.2843 62.659 80.2718 62.6178 80.2427L62.7351 80.0242C62.8092 79.8827 62.8647 79.7745 62.9018 79.6996C62.9718 79.5623 63.0129 79.4562 63.0253 79.3813L63.0345 79.1722L63.0623 78.676C63.0808 78.5013 63.1086 78.3265 63.1456 78.1518C63.1703 78.0228 63.2002 77.8886 63.2352 77.7492C63.2804 77.6015 63.3175 77.486 63.3463 77.4028C63.4101 77.2551 63.4873 77.1053 63.5778 76.9534C63.6025 76.9368 63.6221 76.9316 63.6365 76.9378C63.6488 76.9544 63.6447 76.9971 63.6241 77.0657C63.5768 77.3487 63.5439 77.5526 63.5253 77.6774C63.4636 78.1122 63.4327 78.3921 63.4327 78.5169ZM64.0254 76.2356C64.1653 76.0838 64.4617 75.8216 64.9144 75.4492C65.1181 75.2911 65.3198 75.1298 65.5194 74.9655C65.7211 74.799 65.9238 74.6326 66.1275 74.4662C66.4033 74.2352 66.6811 73.9887 66.961 73.7266C67.1503 73.5497 67.4004 73.3063 67.7111 72.9963C68.1844 72.5386 68.4211 72.3035 68.4211 72.291C68.4211 72.3243 68.4149 72.3534 68.4026 72.3784C68.384 72.4658 68.3233 72.5989 68.2204 72.7779C68.134 72.9401 68.0496 73.0743 67.9673 73.1804C67.8624 73.3177 67.7543 73.4499 67.6432 73.5768C67.4827 73.7515 67.388 73.8535 67.3592 73.8826C67.2789 73.9637 67.1184 74.1135 66.8777 74.332C66.748 74.4464 66.4918 74.669 66.109 74.9998C65.8971 75.185 65.683 75.3618 65.467 75.5303C65.3394 75.6302 65.2118 75.729 65.0842 75.8268C64.9587 75.9225 64.8331 76.0172 64.7076 76.1108L64.0532 76.6288C63.9297 76.7287 63.8402 76.8005 63.7846 76.8442C63.6961 76.9108 63.6488 76.9347 63.6426 76.916C63.6879 76.7745 63.7435 76.6476 63.8093 76.5352C63.8731 76.4166 63.9451 76.3168 64.0254 76.2356Z" fill="black"></path><path d="M63.0377 81.632C63.0377 81.58 62.9266 81.502 62.7043 81.398C62.478 81.2919 62.3648 81.1629 62.3648 81.011C62.3648 80.9007 62.3884 80.7769 62.4358 80.6396C62.4852 80.5002 62.5438 80.3681 62.6117 80.2433C62.6261 80.2225 62.6457 80.2069 62.6704 80.1965C62.6971 80.1861 62.7228 80.1809 62.7475 80.1809C62.7743 80.1809 62.798 80.1861 62.8185 80.1965C62.8391 80.2069 62.8515 80.2225 62.8556 80.2433C62.8556 80.287 62.8906 80.3307 62.9605 80.3744C63.0305 80.4181 63.1005 80.4659 63.1704 80.5179C63.2425 80.5679 63.2939 80.6261 63.3248 80.6927C63.3557 80.7634 63.3711 80.8695 63.3711 81.011C63.3711 81.217 63.3443 81.4271 63.2908 81.6414C63.2394 81.8515 63.1427 82.1105 63.0007 82.4185C62.7743 82.897 62.4687 83.2777 62.0839 83.5606C61.9419 83.6522 61.803 83.7208 61.6671 83.7666C61.519 83.8165 61.3595 83.8415 61.1887 83.8415C60.7915 83.8415 60.4859 83.6917 60.2719 83.3921C60.0908 83.1362 60.0002 82.8086 60.0002 82.4091C60.0002 82.2323 60.0373 82.0003 60.1114 81.7132C60.1855 81.4344 60.2626 81.1941 60.3429 80.9923C60.4293 80.7821 60.5034 80.6053 60.5651 80.4618C60.5837 80.4285 60.6094 80.3765 60.6423 80.3057C60.6773 80.235 60.7215 80.1434 60.775 80.0311C60.8121 79.9541 60.8419 79.8896 60.8646 79.8376C60.8893 79.7856 60.914 79.7377 60.9386 79.694C60.988 79.6108 61.0251 79.5703 61.0498 79.5723C61.0848 79.5786 61.094 79.615 61.0776 79.6816C61.0611 79.7585 61.0405 79.8251 61.0158 79.8813C60.7977 80.3931 60.6475 80.7509 60.5651 80.9548C60.419 81.3252 60.346 81.6123 60.346 81.8162C60.346 82.199 60.4633 82.4736 60.6979 82.64C60.8707 82.7545 61.095 82.8117 61.3708 82.8117C61.8647 82.8117 62.2783 82.6712 62.6117 82.3904C62.8957 82.1511 63.0377 81.8983 63.0377 81.632Z" fill="black"></path><path d="M59.4786 80.9637C59.3716 81.2654 59.2717 81.488 59.1791 81.6316C59.0865 81.7751 59.0135 81.8646 58.96 81.8999C58.9085 81.9332 58.8303 81.9696 58.7254 82.0092C58.6204 82.0487 58.4599 82.1038 58.2438 82.1746C58.0298 82.2432 57.9032 82.2776 57.8641 82.2776C57.8394 82.2776 57.8271 82.2713 57.8271 82.2588C57.8024 82.2255 57.93 82.1142 58.2099 81.9249C58.4918 81.7335 58.6729 81.6087 58.7532 81.5504C58.8355 81.4901 58.9188 81.4027 59.0032 81.2883C59.0896 81.1739 59.1524 81.0449 59.1915 80.9013C59.1689 80.8992 59.1462 80.9013 59.1236 80.9075C59.103 80.9138 59.0814 80.9211 59.0588 80.9294C59.0382 80.9377 59.0166 80.946 58.9939 80.9543C58.9713 80.9606 58.9497 80.9637 58.9291 80.9637C58.8139 80.9596 58.7171 80.9221 58.6389 80.8514C58.5628 80.7785 58.5309 80.6984 58.5433 80.6111C58.5556 80.5591 58.5731 80.4977 58.5957 80.4269C58.6204 80.3562 58.6698 80.2449 58.7439 80.093C58.818 79.9391 58.8921 79.8122 58.9661 79.7123C59.0423 79.6124 59.1174 79.5625 59.1915 79.5625C59.3191 79.5625 59.4251 79.6176 59.5094 79.7279C59.5938 79.8361 59.636 79.9672 59.636 80.1211C59.636 80.1981 59.6309 80.2751 59.6206 80.352C59.6123 80.429 59.6031 80.4935 59.5928 80.5455C59.5825 80.5955 59.5671 80.661 59.5465 80.7421C59.5259 80.8212 59.5033 80.8951 59.4786 80.9637Z" fill="black"></path><path d="M55.9163 81.2537C56.0089 81.2308 56.0841 81.2059 56.1417 81.1788C56.1952 81.1601 56.2775 81.1101 56.3886 81.029C56.5759 80.8938 56.7241 80.7325 56.8331 80.5453C56.8043 80.5182 56.7436 80.4881 56.651 80.4548C56.5584 80.4194 56.4905 80.4017 56.4473 80.4017C56.3464 80.4017 56.2538 80.4371 56.1695 80.5078C56.1201 80.5453 56.0635 80.616 55.9997 80.7201L55.6509 81.2755C55.7167 81.2818 55.8052 81.2745 55.9163 81.2537ZM54.9995 80.7481C54.9995 80.9104 55.052 81.0415 55.157 81.1414C55.2496 81.2246 55.3484 81.2662 55.4533 81.2662L55.9163 80.5266C56.0604 80.3081 56.1777 80.1646 56.2682 80.0959C56.3506 80.0273 56.4442 79.9929 56.5491 79.9929C56.6171 79.9929 56.7436 80.021 56.9288 80.0772C57.0255 80.1084 57.1079 80.124 57.1758 80.124C57.2375 80.124 57.2962 80.1146 57.3517 80.0959C57.4032 80.0772 57.4289 80.0959 57.4289 80.1521C57.4227 80.2083 57.3939 80.2925 57.3425 80.4049C57.2869 80.5172 57.2406 80.5786 57.2036 80.589C57.1624 80.6015 57.1264 80.6296 57.0955 80.6732C57.0832 80.6857 57.0523 80.7263 57.0029 80.795L56.5862 81.4441C56.4133 81.7104 56.2466 81.9059 56.0861 82.0308C55.87 82.1951 55.6323 82.2773 55.373 82.2773C55.2475 82.2773 55.1457 82.2638 55.0675 82.2367C54.9913 82.2118 54.9203 82.165 54.8545 82.0963C54.7495 82.0089 54.6775 81.8976 54.6384 81.7624C54.6199 81.7062 54.5962 81.6428 54.5674 81.572C54.5674 81.4971 54.5808 81.4108 54.6075 81.313C54.6322 81.2152 54.6662 81.1237 54.7094 81.0384C54.7505 80.9531 54.7968 80.8823 54.8483 80.8262C54.8997 80.7679 54.9502 80.7419 54.9995 80.7481ZM55.9997 77.6461C55.9997 77.5775 56.0542 77.4339 56.1633 77.2155C56.2724 76.997 56.3434 76.8795 56.3763 76.8628C56.4421 76.8337 56.5358 76.8857 56.6572 77.0189C56.7807 77.1499 56.8465 77.2529 56.8547 77.3278C56.8547 77.4256 56.8033 77.5681 56.7004 77.7554C56.5975 77.9405 56.5234 78.0331 56.4781 78.0331C56.4596 78.0331 56.3989 77.9977 56.296 77.927C56.1931 77.8542 56.116 77.797 56.0645 77.7554C56.0213 77.7179 55.9997 77.6815 55.9997 77.6461Z" fill="black"></path><path d="M54.3481 81.9492C54.2843 82.0303 54.2288 82.0886 54.1814 82.124C54.1197 82.1676 54.0569 82.203 53.9931 82.2301C53.9314 82.255 53.8625 82.2758 53.7863 82.2925C53.7102 82.3112 53.6351 82.3299 53.561 82.3486L53.2554 82.4235C53.1319 82.4443 53.0568 82.4475 53.03 82.4329C53.03 82.3892 53.0804 82.3341 53.1813 82.2675C53.2739 82.2093 53.3675 82.15 53.4622 82.0896C53.5589 82.0272 53.6556 81.9669 53.7524 81.9086C53.9952 81.7359 54.1773 81.5747 54.2987 81.4249C54.3913 81.3105 54.4634 81.2096 54.5148 81.1222C54.5498 81.0723 54.6012 80.9859 54.6691 80.8632L54.8667 80.4512C54.914 80.3555 54.9593 80.2775 55.0025 80.2172C55.0416 80.1589 55.0787 80.1308 55.1137 80.1329C55.1445 80.1496 55.1538 80.1808 55.1414 80.2265C55.1065 80.3306 55.0848 80.3982 55.0766 80.4294C55.0272 80.5938 55.0025 80.7092 55.0025 80.7758C54.984 80.832 54.9717 80.8673 54.9655 80.8819C54.8914 81.0504 54.8142 81.2096 54.734 81.3594C54.7093 81.4197 54.5807 81.6163 54.3481 81.9492Z" fill="black"></path><path d="M52.493 80.678C52.493 80.8839 52.5342 81.0389 52.6165 81.143C52.6947 81.2491 52.7863 81.3021 52.8912 81.3021C52.9097 81.298 52.9406 81.221 52.9838 81.0712C53.0291 80.9193 53.0672 80.8278 53.098 80.7966C53.1721 80.7737 53.2328 80.7997 53.2802 80.8746C53.3295 80.9474 53.3573 81.0348 53.3635 81.1367C53.3635 81.3718 53.3141 81.6027 53.2153 81.8295C53.0754 82.1291 52.8881 82.2789 52.6535 82.2789C52.5218 82.2727 52.4117 82.2186 52.3232 82.1166C52.2347 82.0126 52.1751 81.8784 52.1442 81.7141C52.1113 81.5497 52.0948 81.3999 52.0948 81.2647C52.0927 81.2085 52.0979 81.1502 52.1102 81.0899C52.1226 81.0275 52.1401 80.9672 52.1627 80.9089C52.1833 80.8506 52.207 80.7966 52.2337 80.7466C52.2605 80.6946 52.2893 80.6499 52.3201 80.6124C52.349 80.575 52.3788 80.5479 52.4097 80.5313C52.4405 80.5146 52.4683 80.5105 52.493 80.5188V80.678Z" fill="black"></path><path d="M52.4961 80.5147C52.4899 80.6312 52.4775 80.7384 52.459 80.8362C52.4405 80.9319 52.4148 81.013 52.3818 81.0796C52.351 81.1461 52.3119 81.1961 52.2645 81.2294C52.2172 81.2627 52.1596 81.2741 52.0917 81.2637C52.0958 81.0203 52.1215 80.6812 52.1688 80.2463C52.2162 79.8094 52.2882 79.3278 52.3849 78.8014C52.4343 78.6475 52.5341 78.377 52.6844 77.99C52.7008 77.9526 52.7173 77.937 52.7337 77.9432C52.7502 77.9495 52.7584 77.9651 52.7584 77.99C52.7502 78.1814 52.7121 78.5455 52.6442 79.0823C52.5763 79.6191 52.5341 79.9873 52.5177 80.187C52.5033 80.3868 52.4961 80.496 52.4961 80.5147Z" fill="black"></path><path d="M48.1591 81.2631C48.4245 81.2631 48.7219 81.2506 49.0512 81.2256C49.3804 81.2007 49.6953 81.1549 49.9958 81.0883C50.2962 81.0197 50.5679 80.9344 50.8107 80.8324C51.0556 80.7284 51.2284 80.6337 51.3293 80.5484C51.4322 80.4631 51.5145 80.3674 51.5762 80.2613C51.638 80.1552 51.6781 80.1022 51.6966 80.1022C51.7213 80.1022 51.7306 80.1375 51.7244 80.2083C51.712 80.3081 51.6719 80.4423 51.604 80.6108C51.5155 80.8272 51.427 80.9999 51.3385 81.1289C51.25 81.2558 51.143 81.364 51.0175 81.4535C50.8385 81.5762 50.6358 81.6885 50.4094 81.7905C50.2118 81.8716 49.9958 81.9455 49.7612 82.0121C49.4031 82.1057 49.0491 82.1733 48.6993 82.2149C48.3515 82.2565 48.014 82.2773 47.6868 82.2773C47.3081 82.2773 47.018 82.2617 46.8163 82.2305C46.487 82.1785 46.2524 82.0786 46.1125 81.9309C45.987 81.8165 45.9242 81.6605 45.9242 81.4628C45.9242 81.3858 45.9345 81.2756 45.9551 81.132C45.9777 80.9885 46.0034 80.8449 46.0322 80.7014C46.061 80.5578 46.0827 80.4631 46.0971 80.4174C46.1135 80.3716 46.1372 80.3487 46.1681 80.3487C46.1989 80.3487 46.2185 80.3768 46.2267 80.433C46.2349 80.4871 46.2432 80.5734 46.2514 80.692C46.2617 80.8106 46.3512 80.9177 46.52 81.0134C46.8513 81.1736 47.3977 81.2568 48.1591 81.2631ZM47.764 79.6341C47.764 79.5925 47.8267 79.4551 47.9523 79.2221C48.0778 78.9891 48.156 78.8653 48.1869 78.8508C48.2383 78.83 48.3144 78.8684 48.4153 78.9662C48.5161 79.064 48.5923 79.1503 48.6437 79.2252C48.7055 79.1233 48.7734 79.0089 48.8474 78.882C48.9236 78.7551 48.975 78.6906 49.0018 78.6885C49.0779 78.6885 49.1695 78.7457 49.2765 78.8601C49.3835 78.9725 49.4401 79.0786 49.4463 79.1784C49.4463 79.297 49.3887 79.4375 49.2734 79.5997C49.1623 79.7599 49.081 79.84 49.0296 79.84C48.9946 79.84 48.9318 79.7953 48.8413 79.7058C48.7528 79.6143 48.6746 79.5436 48.6067 79.4936C48.44 79.8327 48.3072 80.0023 48.2085 80.0023C48.1838 80.0023 48.1488 79.9825 48.1035 79.943C48.0603 79.9056 47.9924 79.8494 47.8998 79.7745C47.8092 79.6996 47.764 79.6528 47.764 79.6341Z" fill="black"></path><path d="M44.566 81.4719C44.5207 81.5072 44.4723 81.5228 44.4209 81.5187C44.3694 81.5145 44.3293 81.4989 44.3005 81.4719C44.4158 81.2284 44.5536 80.9996 44.7141 80.7853C44.8747 80.5689 45.0177 80.3973 45.1432 80.2704C45.2605 80.158 45.3552 80.0831 45.4272 80.0457C45.4889 80.0145 45.5229 80.0176 45.5291 80.0551C45.5373 80.0883 45.5044 80.1757 45.4303 80.3172C45.3624 80.4503 45.313 80.5606 45.2821 80.648C45.2574 80.7042 45.205 80.7562 45.1247 80.804C45.0424 80.8477 44.9405 80.9393 44.8191 81.0787C44.7018 81.2285 44.6174 81.3595 44.566 81.4719ZM43.9486 85.7723C43.9486 85.8076 43.9702 85.844 44.0134 85.8815C44.0649 85.9231 44.1421 85.9793 44.2449 86.05C44.3478 86.1228 44.4085 86.1592 44.4271 86.1592C44.4723 86.1592 44.5464 86.0656 44.6493 85.8784C44.7522 85.6932 44.8037 85.5517 44.8037 85.4539C44.7954 85.379 44.7296 85.275 44.6061 85.1419C44.4847 85.0108 44.3911 84.9598 44.3252 84.9889C44.2923 85.0056 44.2213 85.1231 44.1122 85.3416C44.0031 85.56 43.9486 85.7036 43.9486 85.7723Z" fill="black"></path><path d="M44.5598 81.4734C44.4589 81.6981 44.3632 81.9446 44.2727 82.213C44.2171 82.3857 44.1739 82.472 44.143 82.472C44.1101 82.472 44.0937 82.4502 44.0937 82.4065C44.1081 82.3274 44.1214 82.2463 44.1338 82.1631L44.1801 81.8011C44.1945 81.645 44.1698 81.5327 44.106 81.464C44.0422 81.3933 43.9527 81.3579 43.8374 81.3579C43.7181 81.3579 43.5936 81.4526 43.4639 81.6419C43.3343 81.8291 43.2355 81.9602 43.1676 82.0351C43.1017 82.1079 43.0266 82.1672 42.9423 82.213C42.8579 82.2567 42.7581 82.2785 42.6428 82.2785C42.4556 82.2785 42.3053 82.1891 42.1922 82.0101C42.0769 81.8312 42.0193 81.5826 42.0193 81.2643C42.0358 81.1519 42.0574 81.049 42.0841 80.9553C42.1109 80.8617 42.1417 80.7816 42.1767 80.715C42.2096 80.6485 42.2467 80.5975 42.2878 80.5621C42.329 80.5267 42.3722 80.5111 42.4175 80.5153C42.4175 80.7587 42.4607 80.9543 42.5471 81.102C42.6356 81.2476 42.7848 81.3205 42.9947 81.3205C43.147 81.3205 43.2674 81.2924 43.3559 81.2362C43.3868 81.2175 43.4629 81.1467 43.5843 81.024C43.6461 80.9595 43.7088 80.896 43.7726 80.8336C43.8632 80.7608 43.9547 80.7244 44.0473 80.7244C44.1729 80.7244 44.284 80.7795 44.3807 80.8898C44.4425 80.9668 44.4826 81.0261 44.5011 81.0677C44.5196 81.1072 44.534 81.1426 44.5443 81.1738C44.5546 81.2029 44.5629 81.23 44.569 81.2549C44.5752 81.2861 44.5762 81.3225 44.5721 81.3641C44.5701 81.4058 44.5659 81.4422 44.5598 81.4734Z" fill="black"></path><path d="M41.7662 81.9492C41.7024 82.0303 41.6468 82.0886 41.5995 82.124C41.5378 82.1676 41.475 82.203 41.4112 82.2301C41.3495 82.255 41.2805 82.2758 41.2044 82.2925C41.1283 82.3112 41.0531 82.3299 40.9791 82.3486L40.6735 82.4235C40.55 82.4443 40.4749 82.4475 40.4481 82.4329C40.4481 82.3892 40.4985 82.3341 40.5994 82.2675C40.692 82.2093 40.7856 82.15 40.8803 82.0896C40.977 82.0272 41.0737 81.9669 41.1704 81.9086C41.4133 81.7359 41.5954 81.5747 41.7168 81.4249C41.8094 81.3105 41.8814 81.2096 41.9329 81.1222C41.9679 81.0723 42.0193 80.9859 42.0872 80.8632L42.2848 80.4512C42.3321 80.3555 42.3774 80.2775 42.4206 80.2172C42.4597 80.1589 42.4968 80.1308 42.5317 80.1329C42.5626 80.1496 42.5719 80.1808 42.5595 80.2265C42.5245 80.3306 42.5029 80.3982 42.4947 80.4294C42.4453 80.5938 42.4206 80.7092 42.4206 80.7758C42.4021 80.832 42.3898 80.8673 42.3836 80.8819C42.3095 81.0504 42.2323 81.2096 42.1521 81.3594C42.1274 81.4197 41.9987 81.6163 41.7662 81.9492Z" fill="black"></path><path d="M40.9389 78.7065C40.9307 78.9332 40.9245 79.1371 40.9204 79.3181C40.9183 79.497 40.9101 79.6489 40.8957 79.7738C40.871 80.0421 40.8195 80.2804 40.7413 80.4884C40.6652 80.6944 40.6045 80.8317 40.5592 80.9003C40.516 80.969 40.48 81.0189 40.4512 81.0501C40.4182 81.0813 40.3925 81.0917 40.374 81.0813C40.3575 81.0709 40.3514 81.0533 40.3555 81.0283C40.3555 81.022 40.374 80.9274 40.411 80.7443C40.4481 80.5612 40.4707 80.3844 40.479 80.2138C40.4892 80.0411 40.4913 79.7987 40.4851 79.4866C40.479 79.1725 40.4862 78.9322 40.5067 78.7658C40.5191 78.6701 40.5397 78.5702 40.5685 78.4662C40.5973 78.3621 40.6302 78.2612 40.6673 78.1634C40.7064 78.0636 40.7465 77.9689 40.7876 77.8795C40.8288 77.79 40.8669 77.7109 40.9019 77.6423C40.9307 77.5986 40.9554 77.582 40.9759 77.5924C40.9965 77.6007 41.0058 77.6173 41.0037 77.6423C40.9996 77.6569 40.9945 77.6891 40.9883 77.739C40.9842 77.7869 40.979 77.8451 40.9729 77.9138C40.9687 77.9804 40.9646 78.0521 40.9605 78.1291C40.9564 78.2061 40.9523 78.282 40.9482 78.3569C40.9461 78.4298 40.944 78.4974 40.942 78.5598C40.9399 78.6222 40.9389 78.6711 40.9389 78.7065Z" fill="black"></path><path d="M38.0958 79.3072C38.1884 79.3259 38.2707 79.2708 38.3428 79.1418C38.4169 79.0107 38.4673 78.9535 38.494 78.9701C38.5475 78.9909 38.5815 79.0045 38.5959 79.0107C38.6926 79.0461 38.7811 78.9327 38.8614 78.6705C38.8758 78.6518 38.9056 78.6539 38.9509 78.6768C38.9982 78.6997 39.0373 78.6882 39.0682 78.6425C39.1032 78.5988 39.1381 78.5311 39.1731 78.4396C39.2081 78.346 39.2308 78.2992 39.241 78.2992C39.2616 78.2971 39.275 78.3106 39.2812 78.3397C39.2873 78.3668 39.2863 78.399 39.2781 78.4365C39.2534 78.5738 39.2102 78.7122 39.1484 78.8515C39.0949 78.9805 39.0301 79.0773 38.954 79.1418C38.8799 79.2083 38.8099 79.2739 38.7441 79.3384C38.6761 79.407 38.6144 79.4507 38.5588 79.4694C38.495 79.4944 38.4354 79.5183 38.3798 79.5412C38.1534 79.7805 38.0053 79.897 37.9353 79.8907C37.925 79.8658 37.9137 79.8283 37.9013 79.7784C37.889 79.7285 37.8808 79.6744 37.8766 79.6161C37.8705 79.5579 37.8715 79.4996 37.8797 79.4414C37.888 79.381 37.9065 79.3269 37.9353 79.2791L38.0958 79.3072ZM38.4971 76.4174C38.4971 76.3799 38.563 76.2395 38.6947 75.9961C38.8264 75.7506 38.9077 75.6257 38.9385 75.6216C38.9879 75.6216 39.0651 75.6673 39.17 75.7589C39.2771 75.8484 39.3491 75.9337 39.3861 76.0148C39.454 75.9024 39.5189 75.7932 39.5806 75.6871C39.6711 75.5373 39.7267 75.4624 39.7473 75.4624C39.8214 75.4624 39.916 75.5155 40.0313 75.6216C40.1424 75.7402 40.198 75.8494 40.198 75.9493C40.198 76.0637 40.1424 76.2072 40.0313 76.3799C39.916 76.5443 39.8337 76.6265 39.7843 76.6265C39.7452 76.6265 39.6886 76.588 39.6145 76.511C39.5117 76.4007 39.4263 76.3206 39.3583 76.2707C39.1896 76.6202 39.0569 76.795 38.9601 76.795C38.9396 76.795 38.8572 76.7378 38.7132 76.6233C38.5691 76.5068 38.4971 76.4382 38.4971 76.4174ZM38.92 75.2565C38.92 75.2252 38.9766 75.0879 39.0898 74.8445C39.205 74.6011 39.2812 74.4773 39.3182 74.4731C39.4046 74.4731 39.5003 74.5262 39.6053 74.6323C39.7102 74.7509 39.7627 74.8653 39.7627 74.9756C39.7627 75.0775 39.7133 75.219 39.6145 75.4C39.5178 75.581 39.4468 75.6715 39.4016 75.6715C39.3727 75.6715 39.31 75.6289 39.2133 75.5436C39.1186 75.4583 39.0455 75.3969 38.9941 75.3594C38.9447 75.322 38.92 75.2877 38.92 75.2565Z" fill="black"></path><path d="M37.9292 79.8891C37.9066 79.8933 37.8829 79.8901 37.8582 79.8798C37.8356 79.8694 37.813 79.8569 37.7903 79.8423C37.7389 79.809 37.6957 79.7872 37.6607 79.7768C37.5104 79.7456 37.3612 79.7799 37.2131 79.8798C37.067 79.9775 36.9373 80.1201 36.8241 80.3073C36.8118 80.3239 36.7912 80.3343 36.7624 80.3385C36.7336 80.3427 36.7048 80.3437 36.676 80.3416C36.6451 80.3395 36.6173 80.3343 36.5926 80.326C36.5679 80.3198 36.5535 80.3135 36.5494 80.3073C36.6605 80.1284 36.7912 79.9546 36.9414 79.7861C37.0917 79.6176 37.2378 79.4969 37.3798 79.4241C37.5218 79.3513 37.7049 79.3024 37.9292 79.2774L37.9817 79.4023C37.9961 79.4501 38.0033 79.499 38.0033 79.5489C38.0033 79.6051 37.9961 79.6644 37.9817 79.7268C37.9508 79.8225 37.9333 79.8766 37.9292 79.8891ZM35.8765 77.302C35.8765 77.2604 35.9392 77.1231 36.0648 76.8901C36.1903 76.6571 36.2685 76.5333 36.2994 76.5187C36.3508 76.4979 36.427 76.5364 36.5278 76.6342C36.6286 76.732 36.7048 76.8183 36.7562 76.8932C36.818 76.7913 36.8859 76.6768 36.96 76.5499C37.0361 76.423 37.0875 76.3585 37.1143 76.3564C37.1904 76.3564 37.282 76.4137 37.389 76.5281C37.496 76.6404 37.5526 76.7465 37.5588 76.8464C37.5588 76.965 37.5012 77.1054 37.3859 77.2677C37.2748 77.4279 37.1935 77.508 37.1421 77.508C37.1071 77.508 37.0443 77.4633 36.9538 77.3738C36.8653 77.2823 36.7871 77.2115 36.7192 77.1616C36.5525 77.5007 36.4198 77.6703 36.321 77.6703C36.2963 77.6703 36.2613 77.6505 36.216 77.611C36.1728 77.5735 36.1059 77.5174 36.0154 77.4425C35.9228 77.3676 35.8765 77.3208 35.8765 77.302Z" fill="black"></path><path d="M36.9971 81.632C36.9971 81.58 36.8859 81.502 36.6637 81.398C36.4373 81.2919 36.3241 81.1629 36.3241 81.011C36.3241 80.9007 36.3478 80.7769 36.3951 80.6396C36.4445 80.5002 36.5032 80.3681 36.5711 80.2433C36.5855 80.2225 36.605 80.2069 36.6297 80.1965C36.6565 80.1861 36.6822 80.1809 36.7069 80.1809C36.7336 80.1809 36.7573 80.1861 36.7779 80.1965C36.7985 80.2069 36.8108 80.2225 36.8149 80.2433C36.8149 80.287 36.8499 80.3307 36.9199 80.3744C36.9899 80.4181 37.0598 80.4659 37.1298 80.5179C37.2018 80.5679 37.2533 80.6261 37.2841 80.6927C37.315 80.7634 37.3304 80.8695 37.3304 81.011C37.3304 81.217 37.3037 81.4271 37.2502 81.6414C37.1987 81.8515 37.102 82.1105 36.96 82.4185C36.7336 82.897 36.428 83.2777 36.0432 83.5606C35.9012 83.6522 35.7623 83.7208 35.6265 83.7666C35.4783 83.8165 35.3188 83.8415 35.148 83.8415C34.7509 83.8415 34.4453 83.6917 34.2312 83.3921C34.0501 83.1362 33.9596 82.8086 33.9596 82.4091C33.9596 82.2323 33.9966 82.0003 34.0707 81.7132C34.1448 81.4344 34.222 81.1941 34.3022 80.9923C34.3887 80.7821 34.4628 80.6053 34.5245 80.4618C34.543 80.4285 34.5687 80.3765 34.6017 80.3057C34.6366 80.235 34.6809 80.1434 34.7344 80.0311C34.7714 79.9541 34.8013 79.8896 34.8239 79.8376C34.8486 79.7856 34.8733 79.7377 34.898 79.694C34.9474 79.6108 34.9844 79.5703 35.0091 79.5723C35.0441 79.5786 35.0534 79.615 35.0369 79.6816C35.0204 79.7585 34.9999 79.8251 34.9752 79.8813C34.757 80.3931 34.6068 80.7509 34.5245 80.9548C34.3784 81.3252 34.3053 81.6123 34.3053 81.8162C34.3053 82.199 34.4226 82.4736 34.6572 82.64C34.8301 82.7545 35.0544 82.8117 35.3302 82.8117C35.8241 82.8117 36.2377 82.6712 36.5711 82.3904C36.8551 82.1511 36.9971 81.8983 36.9971 81.632Z" fill="black"></path><path d="M33.086 81.64C33.2198 81.7752 33.2867 81.8751 33.2867 81.9396C33.2867 81.9999 33.2774 82.0613 33.2589 82.1237C33.2404 82.184 33.2146 82.2381 33.1817 82.286C33.1488 82.3359 33.1086 82.3765 33.0613 82.4077C33.014 82.4389 32.9625 82.4545 32.907 82.4545C32.6929 82.4545 32.5859 82.2829 32.5859 81.9396C32.5859 81.7232 32.7053 81.3238 32.944 80.7412C33.1951 80.1108 33.3906 79.8102 33.5305 79.8393C33.4523 79.9496 33.3772 80.0786 33.3052 80.2263C33.2331 80.3719 33.1673 80.5197 33.1076 80.6694C33.05 80.8192 33.0006 80.9628 32.9594 81.1001C32.9203 81.2353 32.8936 81.3487 32.8792 81.4403L33.086 81.64Z" fill="black"></path><path d="M30.2399 81.0761C30.172 81.2322 30.102 81.3778 30.03 81.513C29.96 81.6462 29.9003 81.7346 29.8509 81.7783C29.7769 81.8532 29.7017 81.9115 29.6256 81.9531C29.5495 81.9926 29.4826 82.0269 29.425 82.056C29.3694 82.0852 29.2902 82.1185 29.1873 82.1559C29.0988 82.1934 29.0093 82.2235 28.9187 82.2464C28.8549 82.261 28.8138 82.261 28.7952 82.2464C28.7788 82.2152 28.7849 82.184 28.8138 82.1528C28.8385 82.1299 28.8693 82.1049 28.9064 82.0779C28.9434 82.0488 29.0957 81.9437 29.3632 81.7627C29.6328 81.5796 29.8695 81.3258 30.0732 81.0012C30.1473 80.8847 30.2028 80.8286 30.2399 80.8327C30.279 80.8348 30.2985 80.8577 30.2985 80.9014C30.2903 80.9492 30.2708 81.0075 30.2399 81.0761ZM30.8727 79.2911C30.8953 79.2349 30.9375 79.2276 30.9992 79.2692C31.3944 79.5085 31.5919 79.8278 31.5919 80.2273C31.5919 80.4333 31.5466 80.6757 31.4561 80.9544C31.3491 81.2852 31.2133 81.5349 31.0486 81.7034C31.0034 81.7554 30.9005 81.8345 30.74 81.9406C30.5815 82.0467 30.4601 82.1216 30.3757 82.1653C30.2913 82.2069 30.2275 82.2277 30.1843 82.2277C30.1658 82.2277 30.1565 82.2194 30.1565 82.2027C30.1565 82.1778 30.1915 82.1299 30.2615 82.0592C30.459 81.8615 30.6494 81.6504 30.8326 81.4257C31.026 81.1739 31.1227 81.0044 31.1227 80.917C31.1227 80.8171 31.0733 80.7006 30.9746 80.5675C30.8758 80.4343 30.7585 80.3272 30.6227 80.246C30.5547 80.2086 30.5321 80.1545 30.5547 80.0837C30.5568 80.0713 30.6628 79.807 30.8727 79.2911Z" fill="black"></path><path d="M28.008 80.678C28.008 80.8839 28.0492 81.0389 28.1315 81.143C28.2097 81.2491 28.3013 81.3021 28.4062 81.3021C28.4247 81.298 28.4556 81.221 28.4988 81.0712C28.5441 80.9193 28.5822 80.8278 28.613 80.7966C28.6871 80.7737 28.7478 80.7997 28.7952 80.8746C28.8446 80.9474 28.8723 81.0348 28.8785 81.1367C28.8785 81.3718 28.8291 81.6027 28.7303 81.8295C28.5904 82.1291 28.4031 82.2789 28.1685 82.2789C28.0368 82.2727 27.9267 82.2186 27.8382 82.1166C27.7498 82.0126 27.6901 81.8784 27.6592 81.7141C27.6263 81.5497 27.6098 81.3999 27.6098 81.2647C27.6078 81.2085 27.6129 81.1502 27.6253 81.0899C27.6376 81.0275 27.6551 80.9672 27.6777 80.9089C27.6983 80.8506 27.722 80.7966 27.7487 80.7466C27.7755 80.6946 27.8043 80.6499 27.8352 80.6124C27.864 80.575 27.8938 80.5479 27.9247 80.5313C27.9555 80.5146 27.9833 80.5105 28.008 80.5188V80.678Z" fill="black"></path><path d="M28.0111 80.5147C28.0049 80.6312 27.9925 80.7384 27.974 80.8362C27.9555 80.9319 27.9298 81.013 27.8969 81.0796C27.866 81.1461 27.8269 81.1961 27.7796 81.2294C27.7322 81.2627 27.6746 81.2741 27.6067 81.2637C27.6108 81.0203 27.6365 80.6812 27.6839 80.2463C27.7312 79.8094 27.8032 79.3278 27.8999 78.8014C27.9493 78.6475 28.0491 78.377 28.1994 77.99C28.2158 77.9526 28.2323 77.937 28.2488 77.9432C28.2652 77.9495 28.2734 77.9651 28.2734 77.99C28.2652 78.1814 28.2271 78.5455 28.1592 79.0823C28.0913 79.6191 28.0491 79.9873 28.0327 80.187C28.0183 80.3868 28.0111 80.496 28.0111 80.5147Z" fill="black"></path><path d="M26.2301 80.2437C26.335 79.994 26.4019 79.8369 26.4307 79.7724C26.5686 79.4437 26.6375 79.2201 26.6375 79.1015C26.6375 79.0619 26.619 78.9922 26.582 78.8924C26.5387 78.7821 26.4976 78.6864 26.4585 78.6053C26.44 78.5741 26.4214 78.5429 26.4029 78.5116C26.3844 78.4804 26.3669 78.4492 26.3504 78.418C26.3134 78.3619 26.298 78.3182 26.3041 78.287C26.333 78.1996 26.3587 78.1216 26.3813 78.0529C26.4019 77.9842 26.4214 77.9249 26.44 77.875C26.5223 77.6254 26.585 77.4568 26.6283 77.3695C26.7332 77.4048 26.8351 77.5234 26.9339 77.7252C27.0265 77.9291 27.0728 78.1372 27.0728 78.3494C27.0728 78.5678 27.0131 78.8424 26.8937 79.1732C26.8217 79.3501 26.7507 79.529 26.6807 79.71C26.6128 79.8889 26.5449 80.0668 26.477 80.2437C26.4667 80.2665 26.4503 80.2832 26.4276 80.2936C26.4029 80.304 26.3772 80.3092 26.3504 80.3092C26.3216 80.3092 26.2959 80.3029 26.2733 80.2905C26.2506 80.2801 26.2362 80.2645 26.2301 80.2437ZM26.1158 76.0026C26.1158 75.9339 26.1704 75.7904 26.2794 75.5719C26.3885 75.3535 26.4595 75.2359 26.4924 75.2193C26.5583 75.1901 26.6519 75.2422 26.7733 75.3753C26.8968 75.5064 26.9627 75.6094 26.9709 75.6843C26.9709 75.782 26.9195 75.9246 26.8166 76.1118C26.7137 76.297 26.6396 76.3895 26.5943 76.3895C26.5758 76.3895 26.5151 76.3542 26.4122 76.2834C26.3093 76.2106 26.2321 76.1534 26.1807 76.1118C26.1375 76.0743 26.1158 76.0379 26.1158 76.0026Z" fill="black"></path><path d="M26.6499 81.632C26.6499 81.58 26.5388 81.502 26.3165 81.398C26.0901 81.2919 25.977 81.1629 25.977 81.011C25.977 80.9007 26.0006 80.7769 26.048 80.6396C26.0973 80.5002 26.156 80.3681 26.2239 80.2433C26.2383 80.2225 26.2579 80.2069 26.2826 80.1965C26.3093 80.1861 26.335 80.1809 26.3597 80.1809C26.3865 80.1809 26.4101 80.1861 26.4307 80.1965C26.4513 80.2069 26.4636 80.2225 26.4678 80.2433C26.4678 80.287 26.5027 80.3307 26.5727 80.3744C26.6427 80.4181 26.7127 80.4659 26.7826 80.5179C26.8547 80.5679 26.9061 80.6261 26.937 80.6927C26.9678 80.7634 26.9833 80.8695 26.9833 81.011C26.9833 81.217 26.9565 81.4271 26.903 81.6414C26.8516 81.8515 26.7548 82.1105 26.6128 82.4185C26.3865 82.897 26.0809 83.2777 25.6961 83.5606C25.5541 83.6522 25.4151 83.7208 25.2793 83.7666C25.1312 83.8165 24.9717 83.8415 24.8009 83.8415C24.4037 83.8415 24.0981 83.6917 23.8841 83.3921C23.703 83.1362 23.6124 82.8086 23.6124 82.4091C23.6124 82.2323 23.6495 82.0003 23.7236 81.7132C23.7976 81.4344 23.8748 81.1941 23.9551 80.9923C24.0415 80.7821 24.1156 80.6053 24.1773 80.4618C24.1958 80.4285 24.2216 80.3765 24.2545 80.3057C24.2895 80.235 24.3337 80.1434 24.3872 80.0311C24.4243 79.9541 24.4541 79.8896 24.4767 79.8376C24.5014 79.7856 24.5261 79.7377 24.5508 79.694C24.6002 79.6108 24.6373 79.5703 24.662 79.5723C24.6969 79.5786 24.7062 79.615 24.6897 79.6816C24.6733 79.7585 24.6527 79.8251 24.628 79.8813C24.4099 80.3931 24.2596 80.7509 24.1773 80.9548C24.0312 81.3252 23.9582 81.6123 23.9582 81.8162C23.9582 82.199 24.0755 82.4736 24.3101 82.64C24.4829 82.7545 24.7072 82.8117 24.983 82.8117C25.4769 82.8117 25.8905 82.6712 26.2239 82.3904C26.5079 82.1511 26.6499 81.8983 26.6499 81.632Z" fill="black"></path><path d="M22.9302 79.644C22.922 79.8707 22.9158 80.0746 22.9117 80.2556C22.9097 80.4345 22.9014 80.5864 22.887 80.7113C22.8623 80.9796 22.8109 81.2179 22.7327 81.4259C22.6565 81.6319 22.5958 81.7692 22.5505 81.8378C22.5073 81.9065 22.4713 81.9564 22.4425 81.9876C22.4096 82.0188 22.3839 82.0292 22.3653 82.0188C22.3489 82.0084 22.3427 81.9908 22.3468 81.9658C22.3468 81.9595 22.3653 81.8649 22.4024 81.6818C22.4394 81.4987 22.4621 81.3219 22.4703 81.1513C22.4806 80.9786 22.4826 80.7362 22.4765 80.4241C22.4703 80.11 22.4775 79.8697 22.4981 79.7033C22.5104 79.6076 22.531 79.5077 22.5598 79.4037C22.5886 79.2996 22.6215 79.1987 22.6586 79.101C22.6977 79.0011 22.7378 78.9064 22.779 78.817C22.8201 78.7275 22.8582 78.6484 22.8932 78.5798C22.922 78.5361 22.9467 78.5195 22.9673 78.5299C22.9879 78.5382 22.9971 78.5548 22.9951 78.5798C22.9909 78.5944 22.9858 78.6266 22.9796 78.6765C22.9755 78.7244 22.9704 78.7826 22.9642 78.8513C22.9601 78.9179 22.956 78.9896 22.9518 79.0666C22.9477 79.1436 22.9436 79.2195 22.9395 79.2944C22.9374 79.3673 22.9354 79.4349 22.9333 79.4973C22.9313 79.5597 22.9302 79.6086 22.9302 79.644Z" fill="black"></path><path d="M22.0906 79.3759C21.9363 79.9314 21.7634 80.2581 21.572 80.3559C21.3045 80.4869 21.1409 80.5743 21.0812 80.618C21.0236 80.6638 20.9855 80.6991 20.967 80.7241C20.9053 80.8115 20.8446 80.9238 20.7849 81.0611C20.684 81.3233 20.6027 81.5251 20.541 81.6666C20.4381 81.8809 20.2869 82.0338 20.0872 82.1253C19.9905 82.1628 19.864 82.195 19.7076 82.2221C19.5429 82.2574 19.4143 82.2751 19.3217 82.2751C19.2414 82.2834 19.191 82.2647 19.1704 82.2189C19.1643 82.1898 19.1951 82.1503 19.2631 82.1003C19.2877 82.0816 19.3402 82.0421 19.4205 81.9818C19.5007 81.9214 19.6438 81.8257 19.8496 81.6947C20.0101 81.5844 20.0862 81.5324 20.078 81.5386C20.257 81.4075 20.3805 81.2952 20.4484 81.2016C20.469 81.1745 20.541 81.0185 20.6645 80.7335C20.7921 80.4505 20.8878 80.2664 20.9516 80.1811C21.0174 80.0937 21.1193 80.0053 21.2572 79.9158C21.3107 79.8867 21.4022 79.8378 21.5319 79.7692C21.6451 79.713 21.7253 79.6651 21.7727 79.6256C21.8159 79.5882 21.8714 79.507 21.9394 79.3822C22.0073 79.2594 22.0546 79.2001 22.0814 79.2043C22.1102 79.2126 22.1132 79.2698 22.0906 79.3759ZM20.4731 84.8747C20.4731 84.8934 20.5184 84.9402 20.6089 85.0151C20.7015 85.09 20.7694 85.1462 20.8127 85.1836C20.8579 85.2232 20.8929 85.2429 20.9176 85.2429C21.0164 85.2429 21.1491 85.0734 21.3158 84.7343C21.3837 84.7842 21.4619 84.8539 21.5504 84.9433C21.641 85.0349 21.7037 85.0807 21.7387 85.0807C21.7902 85.0807 21.8714 85.0006 21.9826 84.8404C22.0978 84.6781 22.1554 84.5377 22.1554 84.4191C22.1493 84.3192 22.0927 84.2121 21.9857 84.0976C21.8786 83.9853 21.7871 83.9291 21.7109 83.9291C21.6842 83.9312 21.6327 83.9957 21.5566 84.1226C21.4825 84.2495 21.4146 84.3639 21.3529 84.4659C21.3014 84.391 21.2253 84.3046 21.1244 84.2069C21.0236 84.1091 20.9474 84.0706 20.896 84.0914C20.8651 84.1059 20.7869 84.2297 20.6614 84.4628C20.5359 84.6958 20.4731 84.8331 20.4731 84.8747Z" fill="black"></path><path d="M19.1148 79.644C19.1066 79.8707 19.1004 80.0746 19.0963 80.2556C19.0942 80.4345 19.086 80.5864 19.0716 80.7113C19.0469 80.9796 18.9954 81.2179 18.9172 81.4259C18.8411 81.6319 18.7804 81.7692 18.7351 81.8378C18.6919 81.9065 18.6559 81.9564 18.6271 81.9876C18.5942 82.0188 18.5684 82.0292 18.5499 82.0188C18.5334 82.0084 18.5273 81.9908 18.5314 81.9658C18.5314 81.9595 18.5499 81.8649 18.5869 81.6818C18.624 81.4987 18.6466 81.3219 18.6549 81.1513C18.6651 80.9786 18.6672 80.7362 18.661 80.4241C18.6549 80.11 18.6621 79.8697 18.6826 79.7033C18.695 79.6076 18.7156 79.5077 18.7444 79.4037C18.7732 79.2996 18.8061 79.1987 18.8432 79.101C18.8823 79.0011 18.9224 78.9064 18.9635 78.817C19.0047 78.7275 19.0428 78.6484 19.0778 78.5798C19.1066 78.5361 19.1313 78.5195 19.1518 78.5299C19.1724 78.5382 19.1817 78.5548 19.1796 78.5798C19.1755 78.5944 19.1704 78.6266 19.1642 78.6765C19.1601 78.7244 19.1549 78.7826 19.1488 78.8513C19.1446 78.9179 19.1405 78.9896 19.1364 79.0666C19.1323 79.1436 19.1282 79.2195 19.1241 79.2944C19.122 79.3673 19.1199 79.4349 19.1179 79.4973C19.1158 79.5597 19.1148 79.6086 19.1148 79.644Z" fill="black"></path><path d="M16.5867 80.7444C16.5991 80.8068 16.5939 80.8755 16.5713 80.9504C16.5507 81.0253 16.5157 81.1096 16.4663 81.2032C16.419 81.2947 16.3552 81.379 16.2749 81.456C16.2235 81.5059 16.1823 81.5309 16.1515 81.5309C16.133 81.5309 16.0897 81.5038 16.0218 81.4497C15.956 81.3956 15.8963 81.3457 15.8428 81.2999C15.7893 81.2542 15.743 81.2125 15.7039 81.1751C15.6648 81.1376 15.6452 81.1064 15.6452 81.0815C15.6864 80.9983 15.7162 80.9348 15.7347 80.8911C15.7965 80.7496 15.849 80.6383 15.8922 80.5572C15.9375 80.476 16.0084 80.3564 16.1052 80.1983C16.1607 80.2441 16.2286 80.2992 16.3089 80.3637C16.3912 80.4282 16.455 80.4885 16.5003 80.5447C16.5456 80.6009 16.5744 80.6675 16.5867 80.7444ZM17.9851 80.2857C17.9295 81.2656 17.6486 82.1082 17.1424 82.8135C16.6423 83.498 16.0414 83.8433 15.3396 83.8496C14.9754 83.8329 14.6862 83.7112 14.4722 83.4844C14.2603 83.2598 14.1481 82.9456 14.1358 82.542C14.1337 81.9054 14.3405 81.2146 14.7562 80.4698C14.8365 80.32 14.8838 80.2722 14.8982 80.3263C14.9147 80.3803 14.9136 80.4355 14.8951 80.4917C14.6214 81.0409 14.4815 81.5153 14.4753 81.9147C14.4877 82.2143 14.5926 82.4421 14.7902 82.5981C14.9898 82.7542 15.2532 82.8385 15.5804 82.8509C15.9817 82.8509 16.3675 82.7438 16.738 82.5295C17.1063 82.2819 17.3625 81.9522 17.5066 81.5402C17.5622 81.3967 17.5899 81.2063 17.5899 80.9691C17.5899 80.8797 17.5889 80.7652 17.5869 80.6258C17.5869 80.4865 17.5869 80.3876 17.5869 80.3294C17.5992 80.1567 17.6393 79.9674 17.7072 79.7614C17.7752 79.5533 17.8307 79.4025 17.8739 79.3089C17.9192 79.2153 17.9573 79.1685 17.9881 79.1685C18.0108 79.1685 18.02 79.1924 18.0159 79.2402C18.0139 79.2881 18.0097 79.3807 18.0036 79.518C17.9974 79.6553 17.9912 79.9112 17.9851 80.2857Z" fill="black"></path></svg> 