<?xml version="1.0" encoding="UTF-8"?> <svg xmlns="http://www.w3.org/2000/svg" width="100" height="100" viewBox="0 0 100 100" fill="none"><g clip-path="url(#clip0_9871_3409)"><path d="M55.7349 67.797H49.2274V52.3732H32.9877V67.7908C32.7043 67.8107 32.5236 67.8342 32.3417 67.8342C30.1969 67.8417 28.0521 67.8471 25.9072 67.8504C24.5659 67.8504 23.2827 67.6022 22.0911 66.9668C21.5382 66.6839 21.0474 66.2927 20.6479 65.8163C20.2483 65.3399 19.948 64.788 19.7648 64.1933C19.4529 63.2241 19.443 62.2289 19.5593 61.246C19.7561 59.5844 20.5431 58.2379 22.0762 57.507C22.8991 57.1136 23.8222 56.9138 24.7193 56.7066C25.2873 56.5738 25.8899 56.5825 26.5519 56.5291C26.5717 55.1107 26.5779 53.7444 26.5519 52.4104C26.4532 52.377 26.3529 52.3488 26.2512 52.326C26.1692 52.3152 26.0865 52.3107 26.0038 52.3124C23.7022 52.362 21.4971 52.8162 19.474 53.9566C17.5609 55.0338 16.2122 56.6123 15.5502 58.7157C14.8339 60.9585 14.8124 63.3663 15.4883 65.6216C16.0872 67.6754 17.3444 69.2415 19.1584 70.3584C21.1803 71.6055 23.4238 72.1379 25.76 72.1764C29.4908 72.2396 33.224 72.195 36.956 72.1913C37.1763 72.1913 37.3953 72.1615 37.6985 72.1379V56.6532H44.2654V72.1478H60.3281V52.4067H55.7349V67.797Z" fill="black"></path><path d="M57.5719 47.3593C62.3705 51.3304 69.5747 51.5786 74.679 47.9277C77.2894 46.0981 79.2047 43.4354 80.1124 40.374C80.5195 39.035 80.7942 37.6712 80.6371 36.2254H74.8807C74.8299 38.7074 73.939 40.8008 72.1237 42.4588C70.28 44.1415 68.0948 44.824 65.6274 44.6081C61.805 44.2755 58.709 41.219 58.1881 37.2157C57.9445 35.4344 58.3151 33.623 59.2387 32.0819C60.8559 29.3431 63.3221 27.9743 66.4799 27.8043V22.0959C62.6267 21.7385 56.3134 24.1435 53.5119 30.4314C50.8812 36.3433 52.5121 43.1698 57.5719 47.3593Z" fill="black"></path><path d="M85.8438 60.7714C85.3217 57.391 83.5769 54.8768 80.4228 53.4423C78.2091 52.4359 75.8605 52.2324 73.4686 52.3254C73.35 52.3488 73.2351 52.388 73.127 52.4421V56.5186C73.4141 56.5373 73.6554 56.5422 73.8942 56.572C74.8928 56.6961 75.9075 56.7544 76.8863 56.9728C78.2982 57.288 79.5789 57.9085 80.4747 59.1147C82.441 61.7517 81.3409 65.8668 78.313 67.1809C76.8281 67.8275 75.2566 67.9801 73.6542 67.897C73.3993 67.8833 73.1431 67.897 72.8672 67.897V72.0927C73.029 72.1416 73.1945 72.1769 73.3621 72.1982C75.3049 72.2825 77.2377 72.2255 79.1223 71.6757C81.6837 70.9311 83.7687 69.5499 84.9492 67.0606C85.8801 65.1048 86.1922 62.9102 85.8438 60.7714Z" fill="black"></path><path d="M64.3215 52.4489C64.3463 55.7412 64.3908 59.0024 64.3908 62.2649C64.3908 65.5274 64.3475 68.8221 64.3228 72.1541H69.1907V52.4365L64.3215 52.4489Z" fill="black"></path><path d="M79.0595 35.5686H80.6743C80.3303 31.5045 78.9345 28.0509 75.8138 25.4548C73.3217 23.3799 70.415 22.3164 67.152 22V23.7224C70.2789 24.0699 73.1286 25.0503 75.3745 27.3324C77.6204 29.6145 78.6784 32.4215 79.0595 35.5686Z" fill="black"></path><path d="M56.393 46.4006C53.8242 46.4006 51.3036 46.3758 48.7372 46.4192V50.4275H56.393V46.4006Z" fill="black"></path><path d="M36.995 77.8968H44.7152V74.0498H36.9864C36.953 75.3553 36.9369 76.6124 36.995 77.8968Z" fill="black"></path><path d="M76.9934 35.5368H78.5611C78.1677 32.2843 77.0428 29.4636 74.6299 27.2894C72.535 25.4019 70.0515 24.3806 67.1758 24.1113V25.7779C67.4233 25.8288 67.6707 25.8884 67.9034 25.9231C69.3227 26.1341 70.6764 26.5498 71.9163 27.2882C74.6905 28.9324 76.1569 31.469 76.7941 34.5589C76.8647 34.8841 76.934 35.2204 76.9934 35.5368Z" fill="black"></path><path d="M67.1895 26.2168V27.8065C71.6577 28.5002 74.2823 31.0615 74.9307 35.5339H76.3425C76.6507 34.1689 75.3675 31.0578 73.7576 29.3291C71.9968 27.4329 69.7571 26.5221 67.1895 26.2168Z" fill="black"></path><path d="M31.7072 50.4645V46.3892C30.429 46.4078 29.2163 46.3123 27.9455 46.4525C27.9455 47.8424 27.9109 49.1441 27.9628 50.4645H31.7072Z" fill="black"></path></g><defs><clipPath id="clip0_9871_3409"><rect width="70.9812" height="55.8977" fill="white" transform="translate(15 22)"></rect></clipPath></defs></svg> 