<?xml version="1.0" encoding="UTF-8"?> <svg xmlns="http://www.w3.org/2000/svg" width="100" height="100" viewBox="0 0 100 100" fill="none"><g clip-path="url(#clip0_9871_1763)"><path d="M36.0475 35.4361C35.9575 35.5157 35.9315 35.6127 35.8891 35.6992C35.3499 36.7967 34.8089 37.8941 34.2784 38.9959C34.1901 39.1785 34.0819 39.2538 33.8768 39.2538C30.2936 39.2486 26.7104 39.2495 23.1272 39.2486C23.0407 39.2486 22.9507 39.2608 22.8633 39.214C22.8494 39.0764 22.9386 38.9751 22.9939 38.8652C24.4766 35.9415 25.9652 33.0213 27.4452 30.0968C28.386 28.2368 29.2922 26.3604 30.1629 24.4667C30.1993 24.3871 30.2356 24.3057 30.2772 24.2287C30.3516 24.0885 30.4676 24.0088 30.6303 24.0045C30.7186 24.0028 30.8069 24.0019 30.8943 24.0019C34.3502 24.0019 37.8062 24.0019 41.2621 24.0019C41.3011 24.0019 41.3409 24.0054 41.3798 24.0019C41.643 23.9777 41.7936 24.1066 41.8983 24.3412C42.1458 24.8951 42.4072 25.443 42.6668 25.9909C44.3355 29.51 46.1185 32.972 47.8884 36.4409C49.6229 39.8398 51.379 43.23 52.9291 46.7171C54.0681 49.279 54.0551 51.8798 52.9819 54.472C52.9404 54.5715 52.8919 54.6676 52.846 54.7645C52.0247 56.5094 50.6295 57.471 48.7479 57.7799C47.8261 57.9314 46.8983 57.9695 45.9687 57.9695C39.9872 57.9721 34.0049 57.9721 28.0234 57.9721C27.936 57.9721 27.8468 57.9825 27.7577 57.9496C27.7412 57.8319 27.8148 57.7445 27.8615 57.6518C29.2801 54.7948 30.7039 51.9404 32.1172 49.0816C32.2202 48.873 32.3388 48.8055 32.5664 48.8055C35.4936 48.8125 38.4207 48.809 41.3478 48.8081C41.5538 48.8081 41.7589 48.8081 41.9649 48.8003C42.3959 48.7848 42.5613 48.5216 42.3708 48.1304C41.7884 46.9343 41.1998 45.7408 40.6087 44.549C39.1434 41.595 37.6539 38.6532 36.2214 35.6836C36.1808 35.5988 36.1617 35.4958 36.0483 35.4361H36.0475Z" fill="black"></path><path d="M49.8427 35.4031C49.7406 35.4403 49.7016 35.5251 49.6393 35.5857C49.3961 35.8237 49.1408 35.7891 48.9625 35.494C48.9478 35.4689 48.9348 35.442 48.9218 35.4161C47.7629 33.1294 46.5616 30.8635 45.4451 28.5561C44.9258 27.4811 44.4221 26.3992 43.9106 25.32C43.8396 25.1694 43.7712 25.0179 43.7323 24.8552C43.6925 24.6899 43.6916 24.5263 43.7401 24.3627C43.8344 24.0433 43.8759 24.0096 44.2074 24.0096C47.8304 24.0096 51.4526 24.0105 55.0756 24.0044C55.3586 24.0044 55.555 24.0702 55.6831 24.3497C57.6911 28.7378 59.925 33.0143 62.1121 37.3141C63.683 40.4014 65.2617 43.486 66.6802 46.6468C67.8331 49.2165 67.8495 51.8208 66.7824 54.4286C66.7157 54.5913 66.6335 54.748 66.5547 54.9055C65.7775 56.4746 64.5069 57.386 62.8045 57.7236C61.9468 57.8932 61.0804 57.9668 60.2071 57.9668C57.9456 57.9676 55.684 57.9668 53.4224 57.9676C53.1983 57.9676 52.9784 57.959 52.878 57.7166C52.7794 57.4795 52.9083 57.3116 53.0685 57.1471C54.3632 55.8238 55.066 54.2217 55.2859 52.3964C55.4062 51.3959 55.3517 50.404 55.1275 49.4208C55.1119 49.3541 55.0989 49.2858 55.0963 49.2182C55.0859 48.9733 55.2071 48.8279 55.4486 48.8002C55.555 48.7881 55.6641 48.7846 55.7714 48.7898C56.1557 48.8115 56.3574 48.4869 56.1756 48.1381C55.8311 47.4795 55.5126 46.807 55.1846 46.1397C53.4649 42.6344 51.6914 39.1559 49.9925 35.6411C49.9544 35.5623 49.9275 35.4766 49.8445 35.4048L49.8427 35.4031Z" fill="black"></path><path d="M63.6 35.3918C63.5238 35.4723 63.4615 35.5468 63.3896 35.6125C63.1811 35.8038 62.9534 35.7839 62.7838 35.5589C62.7431 35.5043 62.7128 35.442 62.6817 35.3814C60.9706 32.0484 59.2491 28.7197 57.6851 25.313C57.6358 25.2066 57.589 25.0993 57.5475 24.9893C57.4696 24.7808 57.4705 24.5652 57.5181 24.3532C57.5856 24.0537 57.6522 24.0044 57.9569 24.0044C61.5981 24.0053 65.2401 24.0087 68.8813 24.0044C69.1591 24.0044 69.3391 24.0858 69.4594 24.348C71.8603 29.5782 74.5607 34.6596 77.1494 39.7955C78.2815 42.0406 79.3989 44.2935 80.4314 46.5863C81.6059 49.194 81.6345 51.8303 80.5361 54.4745C80.4799 54.6095 80.4115 54.7402 80.3466 54.8717C79.5728 56.453 78.3023 57.38 76.5868 57.7201C75.749 57.8863 74.9017 57.9633 74.0483 57.9642C71.7573 57.9668 69.4672 57.965 67.1762 57.9642C67.0983 57.9642 67.0178 57.9668 66.9425 57.9503C66.6552 57.8889 66.5254 57.5816 66.6829 57.3341C66.7296 57.2605 66.7954 57.1991 66.8569 57.1359C68.0781 55.8774 68.7696 54.3645 69.0275 52.6405C69.1859 51.5819 69.1418 50.5338 68.915 49.49C68.8986 49.4139 68.8813 49.3368 68.8709 49.2598C68.8345 49.001 68.9721 48.8227 69.2353 48.7976C69.3711 48.7846 69.5105 48.7968 69.6455 48.7786C69.9666 48.7362 70.0964 48.5077 69.9753 48.2065C69.9424 48.1251 69.9 48.0472 69.861 47.9685C67.8444 43.8469 65.7646 39.7566 63.7618 35.6281C63.7246 35.5511 63.703 35.4619 63.5965 35.391L63.6 35.3918Z" fill="black"></path><path d="M22.7083 59.0132C20.0988 59.0089 17.9774 56.9083 17.9999 54.3144C18.0233 51.6954 20.1126 49.6606 22.7169 49.6485C25.3195 49.6364 27.4296 51.7595 27.4218 54.3534C27.414 56.9343 25.3074 59.0167 22.7074 59.0124L22.7083 59.0132Z" fill="black"></path><path d="M18.289 48.7244C18.2804 48.6058 18.341 48.5236 18.3808 48.437C18.8205 47.4867 19.2697 46.5416 19.6972 45.5861C19.795 45.368 19.9214 45.3152 20.1438 45.3134C23.3254 45.2866 26.507 45.2883 29.6895 45.2909C30.0911 45.2909 30.4926 45.2909 30.8934 45.3004C31.0924 45.3048 31.108 45.3316 31.0241 45.5047C30.5221 46.5338 30.0149 47.5594 29.5129 48.5885C29.4592 48.6984 29.39 48.7581 29.2636 48.7443C29.1961 48.7374 29.1269 48.7434 29.0585 48.7434C25.5826 48.7434 22.1076 48.7434 18.6318 48.7434C18.5184 48.7434 18.4024 48.7573 18.2908 48.7252L18.289 48.7244Z" fill="black"></path><path d="M20.2434 44.531C20.2338 44.4106 20.291 44.3379 20.3282 44.2609C20.6588 43.5737 20.9998 42.8917 21.3218 42.2002C21.4204 41.9881 21.5399 41.9033 21.7831 41.9033C23.8664 41.9076 25.9496 41.8929 28.0338 41.8912C29.4817 41.8903 30.9289 41.8998 32.3769 41.9067C32.5024 41.9067 32.6305 41.8955 32.7534 41.9301C32.7932 42.0461 32.7144 42.1223 32.6729 42.2053C32.331 42.8977 31.9779 43.585 31.6446 44.2817C31.5468 44.4859 31.43 44.5604 31.198 44.5595C27.6374 44.5526 24.0767 44.5561 20.5169 44.5561C20.4303 44.5561 20.3412 44.5682 20.2451 44.531H20.2434Z" fill="black"></path><path d="M32.9888 65.9505C33.0589 65.9228 33.0848 65.8544 33.1195 65.7982C33.3194 65.4736 33.5989 65.233 33.9209 65.0382C34.0378 64.9673 34.1589 64.9024 34.274 64.8279C34.5882 64.6263 34.609 64.4436 34.3537 64.1624C34.2948 64.0974 34.2334 64.0334 34.1684 63.9737C34.075 63.888 34.0776 63.804 34.1208 63.6863C34.3424 63.0865 34.6947 62.5837 35.1629 62.1483C35.7792 61.5745 36.3781 60.9834 36.9796 60.3948C37.4833 59.9024 37.981 59.403 38.4267 58.8551C38.4934 58.7737 38.5548 58.6811 38.6786 58.6353C38.7193 58.6984 38.6968 58.759 38.6751 58.8187C38.5289 59.2307 38.2952 59.5899 38.0096 59.9162C37.3769 60.6389 36.6905 61.3088 35.9912 61.9648C35.5844 62.3465 35.1716 62.7213 34.7605 63.0987C34.6886 63.1644 34.6142 63.2259 34.5692 63.2648C34.5562 63.3704 34.6021 63.3981 34.6341 63.431C34.9379 63.7409 34.9708 64.0992 34.8254 64.4895C34.6947 64.8418 34.4783 65.1213 34.1364 65.2944C33.9711 65.3784 33.8058 65.4641 33.6431 65.555C33.5245 65.6207 33.4051 65.69 33.3661 65.8414C33.4527 65.9046 33.5375 65.8458 33.6189 65.8484C33.9928 65.8605 34.1459 66.0786 33.985 66.4092C33.7772 66.8368 33.4778 67.1847 32.9931 67.2998C32.4219 67.4357 31.9225 67.7101 31.4291 68.0164C30.0149 68.8949 28.5132 69.57 26.8731 69.9067C25.4061 70.2079 23.9287 70.3126 22.4383 70.1196C22.0306 70.0668 21.623 70.008 21.2378 69.8574C21.0829 69.7968 21.0007 69.8453 20.9306 69.9777C20.767 70.2893 20.6017 70.6 20.432 70.909C20.3377 71.0812 20.2235 71.2404 20.0798 71.3755C19.9612 71.4871 19.8193 71.5512 19.6574 71.5572C19.5224 71.5624 19.4635 71.4793 19.499 71.346C19.5276 71.2387 19.5916 71.1478 19.6704 71.0769C20.2581 70.548 20.6406 69.8799 20.9712 69.1762C20.9963 69.1234 21.0292 69.0741 21.0639 69.0265C21.2525 68.7651 21.4334 68.7011 21.7502 68.779C22.0635 68.856 22.3751 68.9391 22.691 69.0049C23.2692 69.1269 23.8586 69.1174 24.4454 69.1329C26.5261 69.1875 28.5037 68.7487 30.4009 67.9031C30.8501 67.7031 31.2344 67.4643 31.4335 66.977C31.5503 66.6905 31.7468 66.436 31.9354 66.185C32.0004 66.0994 32.067 66.0145 32.1406 65.9358C32.4513 65.6043 32.6218 65.6026 32.9394 65.9254C32.9516 65.9375 32.9723 65.941 32.9896 65.9488L32.9888 65.9505Z" fill="black"></path><path d="M33.8014 39.9349C33.5946 40.3556 33.4137 40.7217 33.2337 41.0878C33.1791 41.1986 33.0727 41.183 32.9766 41.1847C32.3803 41.1916 31.7831 41.2012 31.1868 41.202C28.2034 41.2046 25.22 41.2055 22.2366 41.2046C22.1223 41.2046 22.0029 41.2306 21.893 41.1752C21.8436 41.0973 21.9025 41.041 21.9293 40.9848C22.0747 40.6862 22.2288 40.3911 22.3716 40.0916C22.4244 39.9817 22.4893 39.9176 22.6183 39.9349C22.6667 39.941 22.7161 39.9349 22.7645 39.9349C26.3252 39.9349 29.8859 39.9349 33.4457 39.9349C33.5427 39.9349 33.6396 39.9349 33.8006 39.9349H33.8014Z" fill="black"></path><path d="M40.7428 67.599C40.6398 67.8275 40.5386 68.0569 40.433 68.2845C40.2278 68.7302 40.0521 69.1846 39.9682 69.671C39.9466 69.7974 39.9336 69.9229 39.9362 70.0501C39.9466 70.5867 40.2529 70.9537 40.78 71.0628C41.1236 71.1337 41.4612 71.1009 41.7961 71.0117C42.254 70.8897 42.6339 70.6395 42.9533 70.2959C43.0191 70.225 43.0762 70.1436 43.1255 70.0597C43.3463 69.6814 43.2969 69.5507 42.891 69.4175C42.807 69.3898 42.7205 69.3707 42.6383 69.3396C42.3267 69.2227 42.2133 69.0444 42.2401 68.7069C42.2479 68.6099 42.2635 68.5104 42.2964 68.4204C42.5033 67.85 42.8521 67.3887 43.374 67.0728C43.6224 66.9231 43.8924 66.8599 44.1901 66.9161C44.4835 66.9715 44.6687 66.8088 44.6462 66.544C44.6307 66.3614 44.5701 66.3068 44.3849 66.3086C44.3199 66.3086 44.2516 66.3492 44.191 66.2947C44.3771 65.7849 45.1041 65.5556 45.5282 65.8715C45.6675 65.9753 45.6987 66.0991 45.626 66.2575C45.5853 66.3458 45.4979 66.4055 45.4737 66.5085C45.5247 66.5899 45.5948 66.5492 45.652 66.5293C45.8112 66.4747 45.9514 66.3882 46.0709 66.267C46.2145 66.1207 46.3651 65.9805 46.5123 65.8369C46.6525 65.7001 46.8039 65.662 46.9935 65.7417C47.2021 65.8291 47.2055 65.8204 47.3501 65.6326C47.4513 65.5002 47.5569 65.3712 47.6521 65.2353C47.7629 65.0778 47.9152 65.0112 48.0849 65.0873C48.3887 65.2241 48.5557 65.0873 48.7055 64.8424C48.8171 64.6589 48.9539 64.491 49.0793 64.3162C49.2178 64.124 49.3849 63.9605 49.5727 63.8159C49.6584 63.7501 49.7501 63.6947 49.8548 63.6636C50.311 63.526 50.5983 63.7415 50.5057 64.2063C50.3291 65.0917 49.8644 65.7875 48.9902 66.1147C48.5678 66.2731 48.1204 66.2809 47.7482 65.939C47.6591 65.8568 47.6011 65.8767 47.5318 65.9598C47.4254 66.087 47.3172 66.2142 47.2003 66.3328C47.0766 66.46 46.9355 66.5232 46.7511 66.4401C46.572 66.3596 46.4093 66.4107 46.2639 66.5388C46.102 66.6807 45.9367 66.8192 45.7697 66.9542C45.5749 67.1126 45.3482 67.1775 45.1102 67.0996C44.9379 67.0434 44.8029 67.0832 44.6696 67.1749C44.5251 67.2745 44.3849 67.3818 44.2429 67.4856C44.1062 67.5852 43.9668 67.6215 43.8076 67.5272C43.599 67.4034 43.3947 67.4458 43.1974 67.5635C43.0537 67.6492 42.9222 67.7522 42.8131 67.8786C42.6383 68.0811 42.6547 68.1607 42.8927 68.2689C42.9905 68.3131 43.0909 68.3529 43.1922 68.3892C43.4025 68.4654 43.4969 68.6203 43.5081 68.8376C43.5237 69.144 43.4709 69.4426 43.4008 69.7377C43.2493 70.3756 42.9845 70.9598 42.5396 71.4497C42.2038 71.8201 41.8048 72.0919 41.3071 72.2C40.2313 72.4346 39.4575 71.756 39.5571 70.6586C39.5839 70.366 39.6315 70.077 39.7059 69.7922C39.9137 69.0003 40.2798 68.2802 40.6831 67.5765C40.703 67.5834 40.7238 67.5904 40.7437 67.5973L40.7428 67.599Z" fill="black"></path><path d="M33.1827 68.2998C33.2078 68.4253 33.1342 68.5265 33.0926 68.6339C32.9628 68.9714 32.8408 69.3098 32.7542 69.6629C32.5933 70.3216 32.8728 71.0192 33.8119 71.1836C35.0461 71.4 36.231 70.602 36.5365 69.3617C36.6715 68.8156 36.675 68.2556 36.6983 67.7C36.733 66.8492 36.7477 65.9984 36.7745 65.1467C36.7909 64.63 37.0255 64.1774 37.2081 63.7074C37.2687 64.2319 37.151 64.7495 37.1882 65.28C37.3276 65.293 37.3682 65.1753 37.4314 65.1026C38.264 64.1531 39.0473 63.163 39.8332 62.1755C40.0954 61.8466 40.3482 61.5099 40.6078 61.1793C40.6606 61.1118 40.6961 61.0261 40.8017 60.9819C40.8363 61.046 40.8199 61.1083 40.8008 61.168C40.7073 61.4588 40.568 61.7254 40.3888 61.9747C39.6809 62.9613 38.9019 63.8926 38.1359 64.8334C38.0745 64.9087 38.0165 64.9858 37.9628 65.0559C37.9758 65.087 37.9775 65.1121 37.9897 65.119C38.3731 65.3346 38.4319 65.4618 38.3731 65.9041C38.3272 66.2511 38.2017 66.5644 38.0026 66.8509C37.8469 67.0751 37.6417 67.1971 37.3604 67.1937C37.0939 67.1902 37.0843 67.198 37.074 67.4689C37.048 68.1561 36.9545 68.8321 36.7658 69.4942C36.5927 70.1017 36.334 70.6695 35.9627 71.181C35.5541 71.7436 35.0452 72.1764 34.3468 72.3226C33.8084 72.4351 33.2943 72.3841 32.8598 71.9937C32.4937 71.6657 32.3786 71.2382 32.3933 70.7734C32.4219 69.9044 32.7127 69.1081 33.1221 68.3508C33.1368 68.324 33.1576 68.3058 33.1904 68.3067L33.1835 68.3006L33.1827 68.2998Z" fill="black"></path><path d="M65.3413 68.4477C65.4132 68.497 65.4175 68.5766 65.4279 68.6519C65.466 68.935 65.6365 69.1003 65.8926 69.2033C66.1523 69.308 66.4258 69.3357 66.6976 69.3461C67.5977 69.3798 68.4978 69.3738 69.391 69.2439C69.8956 69.1712 70.3837 69.0284 70.8537 68.8276C71.1367 68.7065 71.3834 68.536 71.5556 68.2711C71.6301 68.156 71.7253 68.0565 71.8309 67.9682C71.9806 67.8427 72.1459 67.7856 72.3458 67.8141C72.602 67.8513 72.6453 67.8193 72.7353 67.5796C72.8011 67.403 72.8193 67.2178 72.8236 67.0317C72.8297 66.7677 72.8452 66.5029 72.8297 66.2398C72.7933 65.5855 73.0149 64.9891 73.22 64.3876C73.2252 64.372 73.246 64.3616 73.2719 64.3374C73.336 64.4014 73.3135 64.4819 73.31 64.5512C73.2676 65.3423 73.233 66.1342 73.1741 66.9235C73.1352 67.4437 72.9318 67.9059 72.5977 68.3109C72.4774 68.4572 72.3441 68.5403 72.1442 68.5178C71.8586 68.4858 71.6292 68.6 71.4561 68.8285C71.373 68.9376 71.2787 69.0397 71.2103 69.1574C70.974 69.5659 70.6157 69.8238 70.1977 70.0142C69.6576 70.26 69.0829 70.3803 68.5013 70.4556C67.6643 70.5638 66.8248 70.5837 65.9853 70.4764C65.4426 70.4072 65.2046 70.1631 65.1786 69.6187C65.1622 69.2656 65.195 68.9151 65.266 68.5689C65.2764 68.5187 65.2937 68.4754 65.3405 68.4477H65.3413Z" fill="black"></path><path d="M54.8765 67.6313C54.7796 67.8425 54.6827 68.0528 54.5849 68.264C54.3875 68.6907 54.217 69.1269 54.1287 69.5917C54.1192 69.6393 54.1071 69.6869 54.1002 69.7354C53.9807 70.5957 54.4369 71.1193 55.3058 71.1046C56.0164 71.0925 56.6153 70.8172 57.0991 70.2954C57.2272 70.1569 57.325 69.9993 57.3761 69.8176C57.4263 69.6384 57.3951 69.5657 57.2246 69.4904C57.1 69.4359 56.9659 69.4021 56.8369 69.3563C56.4526 69.2195 56.3453 69.0482 56.3912 68.6457C56.4059 68.5176 56.45 68.399 56.4959 68.2805C56.624 67.9524 56.7443 67.6218 56.8828 67.2981C57.0342 66.9441 57.0732 66.5962 56.843 66.2673C56.6223 65.9531 56.6214 65.6441 56.7945 65.3118C56.8663 65.1742 56.8975 65.0166 56.9563 64.8721C57.0109 64.7388 57.0697 64.7276 57.1667 64.834C57.3562 65.0426 57.454 65.2971 57.5016 65.5714C57.5596 65.9072 57.518 66.237 57.4047 66.5538C57.2471 66.9952 57.074 67.4314 56.9087 67.8702C56.8031 68.1498 56.8144 68.1766 57.0784 68.2891C57.1147 68.3047 57.1519 68.3168 57.1883 68.3315C57.6115 68.502 57.686 68.6119 57.6496 69.0611C57.5864 69.8262 57.3579 70.5351 56.9122 71.1669C56.6543 71.5322 56.3323 71.8273 55.9324 72.0333C55.5343 72.2384 55.1163 72.2903 54.6792 72.1986C54.1755 72.0939 53.8786 71.7771 53.7531 71.2881C53.6683 70.9592 53.6951 70.6303 53.7444 70.2979C53.8604 69.5147 54.3642 68.2588 54.8783 67.6305L54.8765 67.6313Z" fill="black"></path><path d="M59.7675 68.0134C59.8177 68.1805 59.7562 68.2662 59.7251 68.3553C59.5624 68.8279 59.8506 69.2771 60.3491 69.3281C60.4582 69.3394 60.5638 69.323 60.6702 69.3056C60.7775 69.2883 60.8909 69.2719 60.8866 69.1204C60.8814 68.9568 60.7758 68.8357 60.6235 68.8253C60.5464 68.8201 60.4694 68.8244 60.3932 68.8244C60.3396 68.7413 60.4028 68.692 60.4452 68.6461C60.6278 68.4497 60.8347 68.2878 61.1082 68.2402C61.2752 68.2116 61.4388 68.2315 61.5954 68.3025C61.8715 68.4289 61.92 68.5639 61.7841 68.8383C61.746 68.9162 61.6803 68.9811 61.6673 69.0988C61.8464 69.0867 61.9763 69.014 62.0697 68.8694C62.1701 68.7128 62.2705 68.557 62.3701 68.3995C62.512 68.1753 62.6721 67.9658 62.8833 67.8005C63.0339 67.6828 63.1153 67.5123 63.2278 67.3652C63.3412 67.2172 63.3714 67.2154 63.4952 67.3531C63.5662 67.4336 63.6337 67.5184 63.6917 67.6093C63.8354 67.8351 63.8492 68.0697 63.7047 68.3008C63.5645 68.5258 63.3766 68.6608 63.0928 68.5959C62.8444 68.5388 62.6548 68.6383 62.4999 68.8261C62.3562 68.9993 62.2125 69.1724 62.0637 69.3411C61.8793 69.5506 61.6811 69.7393 61.3695 69.7142C61.2674 69.7064 61.212 69.7843 61.1497 69.8431C60.9783 70.0041 60.8044 70.1608 60.607 70.2906C60.0046 70.6887 59.391 70.3745 59.2646 69.8466C59.2516 69.7921 59.2361 69.7332 59.1651 69.6994C58.9106 69.9703 58.754 70.352 58.3636 70.4827C58.0971 70.5719 57.8227 70.6273 57.5293 70.6221C57.969 70.2395 58.5134 69.9972 58.8933 69.5437C59.2672 69.0979 59.4334 68.5345 59.7675 68.0126V68.0134Z" fill="black"></path><path d="M72.0092 71.5575C72.1295 71.4778 72.248 71.3948 72.3709 71.3195C72.9629 70.9568 73.4606 70.4912 73.8717 69.9338C74.1798 69.5166 74.4793 69.0925 74.7831 68.6728C74.8861 68.5299 74.9899 68.3871 75.099 68.2495C75.6512 67.5485 76.3609 67.1399 77.2662 67.1443C77.6297 67.146 77.8833 67.0196 78.0642 66.7089C78.1473 66.5661 78.2581 66.4389 78.3663 66.3125C78.5108 66.1429 78.696 66.0234 78.9219 66.0209C79.14 66.0191 79.2976 65.9369 79.4135 65.7586C79.4283 65.7352 79.4542 65.7153 79.4888 65.7292C79.4984 66.0676 79.1764 66.535 78.8613 66.599C78.5636 66.6596 78.3507 66.8171 78.1715 67.0543C77.9353 67.3658 77.6782 67.6618 77.4307 67.9648C77.2273 68.2123 76.9754 68.3421 76.6457 68.3551C76 68.3811 75.4565 68.6425 75.0142 69.1159C74.7597 69.3885 74.5312 69.6819 74.3079 69.9788C73.7384 70.7387 72.982 71.2416 72.113 71.5921C72.0888 71.6016 72.0594 71.6008 72.0325 71.6042C72.0256 71.5886 72.0178 71.5731 72.0109 71.5575H72.0092Z" fill="black"></path><path d="M79.1002 59.8838C78.9133 60.2412 78.6874 60.5667 78.3827 60.8298C77.8271 61.3101 77.2368 61.7429 76.6292 62.1549C75.6261 62.8352 74.5927 63.4687 73.5523 64.0901C73.4952 64.1239 73.4433 64.175 73.3645 64.1637C73.3091 64.0867 73.3784 64.0382 73.4113 63.9863C73.5818 63.7188 73.7973 63.4973 74.0639 63.3224C75.1743 62.592 76.2761 61.8493 77.3675 61.0894C77.8565 60.7484 78.3438 60.4048 78.8129 60.0361C78.896 59.9712 78.9695 59.8881 79.1002 59.8838Z" fill="black"></path><path d="M71.9244 75.003C71.7997 75.3432 71.7556 75.6712 71.6638 75.9862C71.6474 76.0425 71.631 76.0996 71.624 76.1576C71.6067 76.2943 71.5479 76.3584 71.3964 76.3575C71.2519 76.3575 71.1878 76.3056 71.1584 76.1671C71.0995 75.8902 71.0303 75.6149 70.9619 75.3397C70.9394 75.2497 70.9074 75.1614 70.8252 75.0809C70.8252 75.3033 70.8252 75.5258 70.8252 75.7482C70.8252 75.9049 70.8191 76.0615 70.8191 76.2182C70.8191 76.3454 70.7369 76.3523 70.6417 76.3532C70.5447 76.3532 70.4643 76.3428 70.4651 76.2173C70.4651 76.0217 70.4625 75.8261 70.4625 75.6305C70.4625 75.2981 70.4634 74.9649 70.4625 74.6326C70.4625 74.5123 70.4824 74.4327 70.6356 74.4231C71.0268 74.3989 71.0277 74.3963 71.1324 74.7763C71.212 75.0662 71.2657 75.3648 71.3938 75.6816C71.5262 75.3613 71.5721 75.0549 71.6621 74.7624C71.682 74.6975 71.7037 74.6317 71.7149 74.5642C71.7331 74.4543 71.8006 74.4197 71.9019 74.4266C71.9114 74.4266 71.9218 74.4266 71.9313 74.4266C72.3701 74.4301 72.3182 74.3911 72.3208 74.7927C72.3234 75.2428 72.3234 75.6928 72.3208 76.1429C72.319 76.3428 72.3 76.3523 72.1338 76.3549C72.0031 76.3567 71.9659 76.2978 71.9676 76.1775C71.9711 75.904 71.9676 75.6296 71.9633 75.3553C71.9616 75.2505 71.9798 75.1432 71.9261 75.0039L71.9244 75.003Z" fill="black"></path><path d="M37.7334 75.0073C37.6088 75.344 37.5647 75.6729 37.4738 75.9879C37.4547 76.0537 37.434 76.1204 37.4271 76.1879C37.4132 76.329 37.3301 76.3558 37.2046 76.3558C37.0817 76.3558 37.0064 76.3298 36.9761 76.1939C36.8939 75.8235 36.7978 75.4557 36.707 75.0835C36.6014 75.1328 36.642 75.2168 36.6403 75.2808C36.6325 75.5838 36.6282 75.8875 36.6317 76.1905C36.6334 76.3246 36.5676 76.3532 36.4508 76.3549C36.3279 76.3566 36.2716 76.3142 36.2725 76.187C36.2751 75.6591 36.2742 75.1302 36.2725 74.6023C36.2725 74.4828 36.3192 74.4326 36.4456 74.424C36.8376 74.398 36.835 74.3954 36.9406 74.778C37.0211 75.0679 37.0731 75.3665 37.202 75.6816C37.3336 75.3717 37.3734 75.0731 37.4634 74.7892C37.4842 74.7243 37.5058 74.6585 37.5153 74.591C37.5344 74.4543 37.614 74.4222 37.7412 74.4248C38.1774 74.4326 38.1264 74.3911 38.129 74.7944C38.1316 75.2445 38.1316 75.6945 38.1281 76.1446C38.1264 76.3437 38.1065 76.3523 37.9394 76.3549C37.807 76.3566 37.7733 76.2952 37.775 76.1758C37.7784 75.9023 37.775 75.6279 37.7707 75.3535C37.7689 75.2497 37.7888 75.1432 37.7326 75.0082L37.7334 75.0073Z" fill="black"></path><path d="M50.6443 70.4531C51.1818 70.0065 51.8162 69.7589 52.075 69.0821C51.9313 69.0951 51.8274 69.1124 51.7227 69.1115C51.3073 69.109 51.1117 68.8484 51.2354 68.4546C51.3298 68.1543 51.4656 67.8713 51.6716 67.6298C51.9019 67.3598 52.171 67.3788 52.3684 67.6757C52.4567 67.8081 52.5043 67.9552 52.5129 68.1162C52.525 68.3542 52.4861 68.5836 52.4168 68.8095C52.3138 69.1479 52.1641 69.4655 51.9971 69.7763C51.8352 70.0774 51.5903 70.2739 51.2545 70.3475C51.0753 70.3873 50.9039 70.4669 50.6443 70.4522V70.4531Z" fill="black"></path><path d="M61.1626 76.3526C61.0319 76.3526 60.954 76.3482 60.8761 76.3534C60.7671 76.3612 60.6935 76.3205 60.6355 76.2253C60.5386 76.0669 60.4313 75.9146 60.3274 75.7614C60.2833 75.6965 60.2409 75.629 60.1707 75.59C60.0833 75.5407 59.9829 75.5026 59.8912 75.5494C59.8098 75.59 59.8427 75.6887 59.841 75.764C59.8367 75.9103 59.8349 76.0574 59.8401 76.2037C59.8453 76.3491 59.7527 76.3534 59.648 76.3534C59.5441 76.3534 59.4532 76.3526 59.4541 76.2054C59.4576 75.6671 59.4567 75.1296 59.4541 74.5913C59.4541 74.4857 59.4853 74.4225 59.603 74.4259C59.9154 74.4355 60.2287 74.3991 60.5403 74.4484C60.8372 74.496 60.9869 74.6328 61.0207 74.8786C61.0562 75.14 60.9462 75.3217 60.6719 75.4533C60.6459 75.4654 60.6182 75.4767 60.5749 75.4957C60.8147 75.7363 60.9826 76.0159 61.1635 76.3526H61.1626Z" fill="black"></path><path d="M78.1327 63.7892C78.0098 63.9355 77.9094 64.0671 77.796 64.1874C77.6592 64.3328 77.6289 64.331 77.4749 64.2263C77.1523 64.0047 77.0967 63.7324 77.3078 63.4093C77.3883 63.2864 77.4705 63.1661 77.5502 63.0432C77.6021 62.9627 77.6636 62.954 77.7492 62.9964C78.0132 63.1271 78.1595 63.3392 78.1967 63.6906C78.3568 63.4474 78.4832 63.2535 78.613 63.0613C78.7541 62.8528 78.7974 62.8476 79.0042 63.0025C79.3141 63.2353 79.3651 63.4846 79.1687 63.8152C79.154 63.8403 79.1375 63.8645 79.1211 63.8888C78.845 64.2955 78.787 64.3051 78.4044 64.0056C78.3196 63.9398 78.2365 63.8723 78.1327 63.7901V63.7892Z" fill="black"></path><path d="M42.466 64.323C42.6391 64.0617 42.7707 63.86 42.9057 63.6601C43.0364 63.4662 43.058 63.4636 43.2484 63.596C43.6007 63.841 43.6552 64.1127 43.4233 64.471C43.135 64.915 43.0727 64.9272 42.6659 64.6087C42.4975 64.4765 42.3469 64.4918 42.2141 64.6545C42.183 64.6926 42.151 64.729 42.1172 64.7644C41.9251 64.9618 41.9078 64.9661 41.6879 64.7844C41.5685 64.6857 41.3781 64.6234 41.3486 64.4771C41.3158 64.3135 41.4923 64.1932 41.5737 64.0521C41.6464 63.9249 41.739 63.8098 41.8126 63.6834C41.8766 63.5726 41.9536 63.564 42.0549 63.622C42.2981 63.7622 42.4522 63.9621 42.4651 64.3239L42.466 64.323Z" fill="black"></path><path d="M77.4307 75.6347C77.4307 75.4053 77.4307 75.1759 77.4307 74.9457C77.4307 74.8289 77.435 74.7112 77.4298 74.5943C77.4238 74.4662 77.4826 74.429 77.6047 74.423C77.7587 74.416 77.7821 74.4948 77.7812 74.6203C77.7786 75.1283 77.7812 75.6364 77.7786 76.1444C77.7786 76.2145 77.8141 76.3245 77.7085 76.3392C77.5908 76.3556 77.4532 76.4058 77.3571 76.2786C77.3216 76.2319 77.2939 76.1799 77.2636 76.1297C77.0975 75.8536 76.933 75.5767 76.7651 75.3014C76.7366 75.2547 76.7184 75.1941 76.6093 75.1673C76.6093 75.3118 76.6093 75.4434 76.6093 75.5741C76.6093 75.7697 76.605 75.9653 76.6102 76.16C76.6137 76.2881 76.5842 76.3574 76.4328 76.3565C76.2848 76.3548 76.2527 76.2907 76.2545 76.16C76.2588 75.6615 76.2545 75.1638 76.2579 74.6653C76.2579 74.5857 76.2155 74.4827 76.3315 74.4359C76.4483 74.3892 76.6292 74.4342 76.6933 74.5372C76.8326 74.7614 76.9651 74.989 77.1001 75.2158C77.1884 75.362 77.2775 75.5074 77.3658 75.6528C77.3874 75.6468 77.4091 75.6407 77.4307 75.6355V75.6347Z" fill="black"></path><path d="M51.385 75.6298C51.385 75.2905 51.3885 74.9512 51.3833 74.612C51.3816 74.4787 51.424 74.4198 51.5685 74.4215C51.7261 74.4233 51.7373 74.5107 51.7364 74.6301C51.7338 75.1287 51.7364 75.6263 51.7338 76.1249C51.7338 76.2045 51.7737 76.3083 51.6516 76.3464C51.527 76.3862 51.3487 76.3421 51.2846 76.2478C51.2241 76.1595 51.1721 76.0651 51.1167 75.9734C50.9558 75.7068 50.7948 75.4402 50.6338 75.1728C50.5291 75.2169 50.5663 75.2957 50.5654 75.3554C50.5611 75.6384 50.5594 75.9223 50.5637 76.2053C50.5654 76.3525 50.4719 76.349 50.3689 76.3516C50.2599 76.3551 50.2097 76.3144 50.2097 76.1993C50.2123 75.6722 50.2097 75.1442 50.2114 74.6171C50.2114 74.5453 50.1872 74.4423 50.2997 74.4319C50.4105 74.4215 50.5386 74.3817 50.6208 74.5046C50.6641 74.5695 50.7022 74.6379 50.742 74.7054C50.9315 75.0213 51.1219 75.3372 51.3115 75.6532C51.3357 75.6454 51.3599 75.6376 51.385 75.6298Z" fill="black"></path><path d="M43.161 75.6498C43.161 75.2846 43.1653 74.9435 43.1593 74.6025C43.1567 74.4571 43.2216 74.4208 43.3549 74.4234C43.4934 74.4268 43.5124 74.5013 43.5115 74.6129C43.5098 75.121 43.5124 75.629 43.5089 76.1371C43.5089 76.2158 43.5488 76.3361 43.4155 76.3448C43.2969 76.3534 43.1558 76.4045 43.0684 76.266C42.9948 76.1509 42.9273 76.0315 42.8563 75.9146C42.7058 75.6671 42.5552 75.4196 42.3457 75.1833C42.3431 75.391 42.3405 75.5987 42.3379 75.8065C42.337 75.9233 42.3327 76.041 42.3388 76.1578C42.3457 76.2877 42.3111 76.3543 42.1622 76.356C42.0125 76.3569 41.9813 76.2911 41.9831 76.1613C41.9874 75.7995 41.9848 75.4386 41.9839 75.0768C41.9839 74.9496 41.9753 74.8224 41.9865 74.696C41.9952 74.6017 41.9268 74.4692 42.0843 74.4286C42.2453 74.387 42.3518 74.4329 42.447 74.5896C42.6244 74.8812 42.7966 75.1772 42.9749 75.4689C43.013 75.5312 43.0277 75.6178 43.1601 75.6498H43.161Z" fill="black"></path><path d="M40.458 75.6321C40.458 75.3621 40.458 75.0912 40.458 74.8212C40.458 74.7329 40.4606 74.6455 40.4598 74.5572C40.4598 74.4299 40.5446 74.4256 40.6389 74.4256C40.7402 74.4256 40.8086 74.449 40.8077 74.5702C40.806 75.1172 40.8077 75.6642 40.8068 76.2111C40.8068 76.2709 40.8016 76.3427 40.7272 76.3436C40.6069 76.3462 40.4693 76.405 40.375 76.2761C40.3343 76.2215 40.3023 76.1601 40.2676 76.1021C40.0807 75.794 39.8937 75.485 39.7076 75.1769C39.6012 75.2158 39.6401 75.2954 39.6393 75.3543C39.6349 75.6278 39.6306 75.9013 39.6393 76.1748C39.6436 76.3237 39.5761 76.354 39.4454 76.3557C39.3087 76.3574 39.2827 76.2899 39.2836 76.1748C39.2853 75.6667 39.2818 75.1587 39.2861 74.6515C39.2861 74.5736 39.2437 74.4533 39.3718 74.436C39.4913 74.4196 39.6254 74.3841 39.7102 74.5295C39.8721 74.8082 40.04 75.0834 40.2062 75.3595C40.2659 75.4582 40.3282 75.5542 40.3897 75.652C40.413 75.646 40.4355 75.6399 40.4589 75.6339L40.458 75.6321Z" fill="black"></path><path d="M35.2702 76.3242C34.975 76.4021 34.7812 76.3423 34.6608 76.0827C34.6037 75.9606 34.5137 75.8533 34.4358 75.7408C34.3856 75.6681 34.3302 75.6023 34.2445 75.5651C34.0455 75.4794 33.9581 75.5322 33.9529 75.7495C33.9494 75.8862 33.9468 76.023 33.9529 76.1588C33.9589 76.2878 33.9278 76.3588 33.7772 76.3545C33.6465 76.351 33.5807 76.3233 33.5824 76.1753C33.5885 75.6482 33.5859 75.1211 33.585 74.594C33.585 74.4945 33.6093 74.4218 33.7304 74.4252C34.042 74.4339 34.3553 74.3984 34.6652 74.4477C34.9681 74.4953 35.1049 74.6252 35.1369 74.8805C35.1715 75.1601 35.0754 75.3202 34.7924 75.4526C34.7664 75.4647 34.7396 75.4751 34.6937 75.4941C34.9361 75.733 35.1031 76.0126 35.271 76.3224L35.2702 76.3242Z" fill="black"></path><path d="M47.9629 74.8296C47.9517 74.975 47.8807 75.0858 47.769 75.1766C47.7197 75.2164 47.6254 75.2467 47.6583 75.3272C47.6981 75.4242 47.7604 75.5185 47.8547 75.5756C47.8937 75.599 47.924 75.5635 47.9421 75.5254C47.9802 75.4441 48.0495 75.4579 48.1187 75.4674C48.2684 75.4873 48.2901 75.5159 48.2485 75.6535C48.2399 75.6812 48.2321 75.7115 48.2156 75.7349C48.1265 75.8621 48.1715 75.9504 48.2927 76.0205C48.3792 76.0716 48.4277 76.1287 48.3429 76.2274C48.2702 76.313 48.2035 76.4152 48.0858 76.3061C47.9525 76.1815 47.8435 76.2187 47.7024 76.3018C47.4999 76.4212 47.2722 76.4169 47.0498 76.3433C46.6534 76.2118 46.5331 75.7565 46.8135 75.4467C46.8585 75.3965 46.9131 75.3523 46.9693 75.3142C47.0446 75.2632 47.0818 75.2156 47.0204 75.1247C46.8975 74.9421 46.8369 74.7447 47.0057 74.5613C47.1779 74.3734 47.4099 74.3812 47.6349 74.4297C47.8305 74.4721 47.9646 74.6504 47.9629 74.8304V74.8296Z" fill="black"></path><path d="M27.1822 74.9665C27.0013 75.0097 26.8672 75.0573 26.7183 74.8626C26.4933 74.5683 25.9956 74.7016 25.871 75.0686C25.8009 75.2763 25.8035 75.4944 25.8736 75.703C25.9973 76.0691 26.4621 76.1963 26.7694 75.9583C26.8559 75.8917 26.8542 75.8086 26.8343 75.7229C26.8135 75.6312 26.7296 75.6545 26.6646 75.6493C26.6162 75.6459 26.5668 75.6467 26.5184 75.6467C26.4085 75.6467 26.3955 75.5741 26.3963 75.4892C26.3972 75.4139 26.4145 75.3507 26.5063 75.3499C26.7114 75.349 26.9165 75.3482 27.1216 75.3499C27.2099 75.3499 27.2341 75.4087 27.2341 75.4866C27.2341 75.6035 27.2212 75.7229 27.2376 75.838C27.2731 76.0786 27.1476 76.1989 26.9451 76.2734C26.714 76.3582 26.482 76.4179 26.2302 76.3746C25.8589 76.3106 25.5992 76.1193 25.4919 75.7515C25.3742 75.3516 25.4123 74.9725 25.71 74.6583C25.9852 74.3684 26.5772 74.313 26.9078 74.5328C27.0593 74.6332 27.158 74.77 27.1822 74.9665Z" fill="black"></path><path d="M21.3772 74.9636C21.1842 75.0087 21.0509 75.0554 20.902 74.8615C20.677 74.5681 20.1785 74.7023 20.0547 75.0692C19.9846 75.277 19.9872 75.4951 20.0582 75.7037C20.1819 76.0689 20.6485 76.1961 20.954 75.9581C21.0397 75.8915 21.0388 75.8084 21.0189 75.7218C20.9973 75.6309 20.9133 75.6543 20.8493 75.6491C20.8008 75.6457 20.7515 75.6465 20.703 75.6465C20.5922 75.6465 20.5809 75.5738 20.5818 75.4881C20.5818 75.412 20.6009 75.3497 20.6926 75.3497C20.8977 75.3488 21.1028 75.3479 21.308 75.3497C21.3971 75.3505 21.4196 75.4102 21.4196 75.4873C21.4196 75.6535 21.417 75.8196 21.4214 75.9858C21.4239 76.0897 21.3668 76.1485 21.2863 76.1927C20.9471 76.3805 20.5922 76.4532 20.2148 76.326C19.7769 76.1779 19.5285 75.6612 19.641 75.1428C19.7769 74.5144 20.478 74.1942 21.0431 74.5023C21.2145 74.5958 21.3227 74.7386 21.3772 74.9636Z" fill="black"></path><path d="M23.5513 75.4111C23.5652 76.1917 22.9212 76.5215 22.3033 76.3406C22.2565 76.3268 22.2106 76.3077 22.1674 76.2861C21.777 76.0922 21.6048 75.624 21.726 75.0891C21.8212 74.6702 22.1258 74.4218 22.5638 74.4071C23.1869 74.3863 23.5556 74.7619 23.5513 75.4119V75.4111Z" fill="black"></path><path d="M27.5413 75.447C27.5413 74.9009 27.7594 74.546 28.1584 74.4448C28.7634 74.2916 29.3181 74.5581 29.3926 75.2453C29.4133 75.4349 29.396 75.6184 29.3398 75.7958C29.2177 76.187 28.8317 76.4259 28.3981 76.3895C27.9368 76.3515 27.62 76.0684 27.5551 75.6331C27.5439 75.5561 27.5439 75.4773 27.5413 75.4461V75.447Z" fill="black"></path><path d="M68.3101 75.3644C68.3118 75.3324 68.3118 75.2536 68.3222 75.1766C68.3819 74.7205 68.7134 74.4236 69.1764 74.4072C69.6949 74.389 70.0428 74.646 70.138 75.1186C70.1631 75.2432 70.1796 75.3687 70.1674 75.4977C70.1043 76.1676 69.5988 76.5207 68.9479 76.3485C68.5386 76.2403 68.3127 75.9071 68.3092 75.3644H68.3101Z" fill="black"></path><path d="M45.2842 75.3454C45.6962 75.3514 45.639 75.2891 45.6425 75.7297C45.646 76.1564 45.5914 76.2282 45.1829 76.3338C45.0418 76.3701 44.8973 76.4056 44.7484 76.3883C44.3745 76.345 44.0664 76.1988 43.934 75.818C43.7946 75.4164 43.8085 75.0243 44.0984 74.6867C44.3659 74.376 44.9665 74.3042 45.3145 74.5249C45.3898 74.5725 45.4573 74.6305 45.5031 74.7066C45.5499 74.7863 45.6364 74.8702 45.5568 74.9672C45.4945 75.0425 45.2625 75.0139 45.1976 74.9239C45.0609 74.7317 44.8809 74.6746 44.6593 74.7292C44.4221 74.7871 44.3018 74.9499 44.2568 75.1809C44.23 75.3177 44.2309 75.4527 44.2603 75.5877C44.3494 76.004 44.6922 76.1789 45.0816 76.0101C45.2011 75.9582 45.2876 75.8933 45.2608 75.7487C45.2331 75.6024 45.1119 75.6604 45.0245 75.6457C44.9536 75.6336 44.8635 75.6769 44.8255 75.573C44.7787 75.4441 44.8402 75.3532 44.9856 75.3454C45.073 75.3411 45.1613 75.3454 45.285 75.3454H45.2842Z" fill="black"></path><path d="M52.1433 75.3937C52.1433 75.1401 52.1476 74.8856 52.1415 74.632C52.1381 74.4875 52.1805 74.4139 52.3415 74.4226C52.5656 74.4347 52.7915 74.4148 53.0148 74.4355C53.3983 74.471 53.619 74.6666 53.7081 75.0414C53.7722 75.3106 53.773 75.5841 53.6787 75.8498C53.5688 76.157 53.3507 76.3301 53.0226 76.3466C52.7985 76.357 52.5734 76.3448 52.3493 76.3544C52.2013 76.3604 52.1372 76.3111 52.1424 76.1562C52.1511 75.9026 52.145 75.6481 52.1441 75.3945L52.1433 75.3937Z" fill="black"></path><path d="M29.7076 75.393C29.7076 75.129 29.712 74.8642 29.7059 74.6002C29.7024 74.4522 29.7726 74.421 29.9041 74.4219C30.0313 74.4219 30.0798 74.4704 30.0755 74.595C30.0703 74.7317 30.0824 74.8694 30.0737 75.0061C30.0642 75.1524 30.1352 75.1991 30.2668 75.1887C30.2763 75.1887 30.2867 75.1887 30.2962 75.1887C30.4693 75.1766 30.6805 75.258 30.8068 75.148C30.9271 75.0433 30.8449 74.8339 30.8527 74.6712C30.8648 74.4392 30.8795 74.4236 31.0725 74.4236C31.2032 74.4236 31.2404 74.4825 31.2396 74.6019C31.2361 75.1299 31.2353 75.6587 31.2396 76.1867C31.2404 76.3165 31.1842 76.3563 31.063 76.3537C30.9462 76.3511 30.8458 76.3511 30.8536 76.1892C30.8605 76.0335 30.8492 75.8759 30.8553 75.7201C30.8605 75.5799 30.8259 75.5124 30.6623 75.5072C30.0781 75.4856 30.0781 75.4795 30.0746 76.0612C30.0746 76.1001 30.072 76.1399 30.0746 76.1789C30.0841 76.2983 30.0435 76.3598 29.9102 76.3554C29.7907 76.352 29.6999 76.3468 29.705 76.1867C29.7137 75.9227 29.7076 75.6587 29.7076 75.3939V75.393Z" fill="black"></path><path d="M56.6508 74.4064C56.9018 74.4038 57.1121 74.4332 57.2748 74.6046C57.3017 74.6332 57.3285 74.6643 57.3441 74.6989C57.3821 74.7838 57.4626 74.8729 57.3735 74.9638C57.3043 75.0339 57.0827 74.988 57.0169 74.9023C56.8663 74.7076 56.6768 74.6557 56.4846 74.7552C56.3314 74.8348 56.3193 74.9854 56.4708 75.0694C56.5625 75.1204 56.6698 75.1481 56.7728 75.1758C56.9148 75.2148 57.0576 75.2468 57.1891 75.3143C57.3813 75.413 57.4808 75.5774 57.4817 75.7886C57.4817 76.0084 57.3882 76.1919 57.1822 76.2889C56.8836 76.4291 56.5772 76.4282 56.2734 76.2967C56.1419 76.2395 56.0467 76.1383 55.9947 76.0084C55.9653 75.9357 55.8822 75.8501 55.9714 75.7696C56.051 75.6977 56.2613 75.7436 56.3236 75.8345C56.4708 76.0509 56.6716 76.1279 56.8983 76.0491C57.0065 76.0119 57.0905 75.9453 57.0957 75.8206C57.1009 75.7012 57.0143 75.6484 56.9174 75.6172C56.7971 75.5783 56.6724 75.5497 56.5504 75.5142C56.5037 75.5013 56.4569 75.4848 56.4119 75.4675C56.1116 75.3524 55.9558 75.1274 55.9973 74.8712C56.0406 74.6115 56.2518 74.4402 56.5668 74.4116C56.6058 74.4081 56.6447 74.4073 56.6534 74.4073L56.6508 74.4064Z" fill="black"></path><path d="M62.0066 76.3415C61.991 76.2463 62.0343 76.1779 62.062 76.1078C62.2567 75.6075 62.4566 75.1098 62.6479 74.6087C62.6955 74.4841 62.7544 74.42 62.9007 74.4209C63.0487 74.4209 63.1291 74.4676 63.1845 74.6087C63.3853 75.1272 63.5982 75.6413 63.8068 76.1562C63.8285 76.2108 63.857 76.2627 63.8389 76.3241C63.7861 76.3588 63.7263 76.3467 63.6692 76.3527C63.5351 76.3683 63.4373 76.3285 63.4104 76.1839C63.368 75.9546 63.2244 75.8862 63.0088 75.92C62.9612 75.9277 62.911 75.926 62.8626 75.92C62.6358 75.8931 62.4748 75.9407 62.416 76.2038C62.3614 76.4462 62.158 76.3302 62.0075 76.3397L62.0066 76.3415Z" fill="black"></path><path d="M76.0017 76.3428C75.9281 76.3463 75.8701 76.3463 75.813 76.3532C75.6893 76.3671 75.5992 76.3264 75.5759 76.1966C75.5326 75.9508 75.3759 75.8876 75.1526 75.9213C75.105 75.9283 75.0548 75.9274 75.0064 75.9213C74.7891 75.8962 74.6307 75.9369 74.5814 76.194C74.5338 76.4441 74.3278 76.3281 74.1919 76.3472C74.153 76.3117 74.1573 76.2849 74.1677 76.2572C74.3841 75.7032 74.6048 75.1502 74.8142 74.5937C74.8653 74.4595 74.9415 74.4188 75.0773 74.4232C75.1951 74.4266 75.2773 74.4448 75.3266 74.5712C75.5464 75.1346 75.7758 75.6937 76.0008 76.2554C76.0078 76.2719 76.0008 76.2935 76.0008 76.3446L76.0017 76.3428Z" fill="black"></path><path d="M33.3679 76.3527C33.2571 76.3527 33.1991 76.3466 33.142 76.3536C33.0009 76.3717 32.9161 76.312 32.8892 76.1761C32.8477 75.9606 32.7153 75.8923 32.5093 75.9208C32.4426 75.9303 32.3717 75.9312 32.305 75.9208C32.0869 75.8871 31.9631 75.9667 31.9008 76.1874C31.848 76.3735 31.829 76.3683 31.5027 76.3311C31.4698 76.2843 31.4914 76.2393 31.5088 76.196C31.7147 75.669 31.9268 75.1445 32.1259 74.6148C32.1787 74.4746 32.2531 74.4209 32.4037 74.4209C32.5456 74.4209 32.6105 74.4763 32.6599 74.6027C32.8849 75.173 33.1186 75.7408 33.3661 76.3527H33.3679Z" fill="black"></path><path d="M55.2245 75.1559C55.2245 74.9698 55.2305 74.7837 55.2227 74.5985C55.2158 74.4444 55.3006 74.4237 55.4253 74.4254C55.5369 74.4271 55.6157 74.4453 55.6131 74.5838C55.6062 74.975 55.6217 75.3671 55.5966 75.7574C55.5707 76.1694 55.3768 76.3459 54.9657 76.3901C54.8177 76.4057 54.6714 76.3901 54.5295 76.3485C54.2802 76.2767 54.1253 76.1131 54.101 75.8491C54.0621 75.4294 54.0881 75.0079 54.0811 74.5872C54.0794 74.4548 54.1495 74.4245 54.2664 74.4254C54.3797 74.4254 54.4542 74.4462 54.4516 74.5829C54.4472 74.8564 54.4498 75.1308 54.4516 75.4051C54.4516 75.5125 54.4481 75.6215 54.4602 75.728C54.4905 75.9746 54.629 76.0828 54.8835 76.0707C55.1085 76.0595 55.2072 75.9617 55.2184 75.715C55.2271 75.5298 55.2201 75.3428 55.2201 75.1576H55.2236L55.2245 75.1559Z" fill="black"></path><path d="M73.2434 74.4257C73.4191 74.424 73.5956 74.4179 73.7687 74.456C74.0431 74.5166 74.1902 74.7053 74.1946 75.0056C74.1989 75.3042 74.0578 75.5128 73.799 75.5829C73.6276 75.6296 73.4511 75.6348 73.2745 75.6279C73.1646 75.6236 73.1127 75.666 73.1161 75.7803C73.1205 75.9265 73.1144 76.0737 73.1144 76.2199C73.1144 76.3748 73.0002 76.348 72.9067 76.3515C72.8132 76.3549 72.7284 76.3489 72.7293 76.2199C72.731 75.6721 72.731 75.1242 72.7293 74.5763C72.7293 74.4612 72.7855 74.4223 72.892 74.4249C73.0097 74.4283 73.1265 74.4249 73.2442 74.4249L73.2434 74.4257Z" fill="black"></path><path d="M68.027 74.9597C67.827 75.0264 67.6963 75.0385 67.557 74.8507C67.3761 74.6057 66.9823 74.6758 66.8499 74.9589C66.7253 75.2272 66.7365 75.5119 66.843 75.7854C66.9096 75.9568 67.0576 76.039 67.235 76.0459C67.4047 76.052 67.5302 75.968 67.6185 75.82C67.6574 75.7543 67.6513 75.64 67.7898 75.666C68.0304 75.7118 68.0694 75.788 67.9396 76.0009C67.7734 76.2736 67.5181 76.361 67.2143 76.3515C66.894 76.3411 66.6439 76.2043 66.5002 75.9187C66.3176 75.5552 66.3211 75.1761 66.5141 74.8195C66.6976 74.4794 67.0161 74.372 67.3865 74.4101C67.7076 74.443 67.9266 74.6083 68.027 74.958V74.9597Z" fill="black"></path><path d="M78.0513 74.46C78.349 74.3717 78.523 74.4461 78.6338 74.6963C78.7039 74.8555 78.8112 74.9983 78.9124 75.1645C79.0734 75.0226 79.1383 74.8365 79.237 74.6755C79.4041 74.4029 79.3997 74.4003 79.7494 74.4548C79.7736 74.5439 79.7044 74.5985 79.6672 74.6625C79.6092 74.7638 79.5503 74.8676 79.4794 74.9602C79.2084 75.3125 79.0457 75.6907 79.108 76.152C79.1331 76.3381 79.0933 76.3485 78.9159 76.3546C78.78 76.3598 78.703 76.3122 78.7298 76.1702C78.8268 75.6613 78.5887 75.264 78.3126 74.8763C78.2235 74.7508 78.1482 74.6149 78.0521 74.4591L78.0513 74.46Z" fill="black"></path><path d="M58.4415 74.4262C58.6371 74.4262 58.8327 74.4297 59.0283 74.4245C59.1503 74.421 59.2057 74.4643 59.2023 74.5941C59.1988 74.7075 59.1529 74.7551 59.0422 74.7465C59.0326 74.7465 59.0222 74.7465 59.0127 74.7465C58.7525 74.7615 58.6224 74.9026 58.6224 75.1697C58.6224 75.5021 58.6172 75.8344 58.6241 76.1668C58.6267 76.3052 58.58 76.3563 58.4389 76.3554C58.3013 76.3554 58.2459 76.3104 58.2485 76.1694C58.2537 75.7885 58.2511 75.4069 58.2485 75.0252C58.2468 74.7517 58.245 74.7517 57.9759 74.7465C57.9274 74.7456 57.8781 74.743 57.8296 74.7465C57.7145 74.7543 57.6764 74.6971 57.6764 74.5881C57.6764 74.4825 57.7075 74.4228 57.8253 74.4245C58.0304 74.4288 58.2355 74.4254 58.4415 74.4254V74.4262Z" fill="black"></path><path d="M64.4888 75.2589C64.4888 75.4441 64.4862 75.6293 64.4888 75.8145C64.4931 76.0422 64.4948 76.0448 64.7147 76.0491C64.9094 76.0534 65.105 76.0543 65.2997 76.0491C65.4174 76.0465 65.4512 76.1027 65.4503 76.2092C65.4495 76.3061 65.4097 76.3511 65.3119 76.3503C64.9605 76.3494 64.6099 76.3486 64.2585 76.3511C64.1495 76.3511 64.0993 76.3105 64.1001 76.1962C64.1027 75.6596 64.1036 75.1239 64.0984 74.5873C64.0967 74.428 64.1902 74.4228 64.3079 74.4219C64.4247 74.4202 64.4922 74.4514 64.4888 74.5847C64.4836 74.8088 64.487 75.033 64.487 75.2572L64.4888 75.2589Z" fill="black"></path><path d="M23.8595 75.3931C23.8595 75.13 23.8647 74.866 23.8569 74.6037C23.8526 74.4566 23.9218 74.4229 24.0525 74.4229C24.1814 74.4229 24.2516 74.4514 24.249 74.6011C24.242 75.001 24.2446 75.4009 24.2472 75.8007C24.249 76.0439 24.2524 76.0457 24.4878 76.05C24.6731 76.0535 24.8583 76.0535 25.0435 76.05C25.1456 76.0483 25.2097 76.076 25.2088 76.1954C25.2079 76.3045 25.1681 76.3538 25.0547 76.3521C24.7137 76.3486 24.3719 76.3486 24.0308 76.3521C23.9088 76.3538 23.8543 76.3096 23.8569 76.1824C23.8621 75.9193 23.8586 75.6562 23.8586 75.3931H23.8595Z" fill="black"></path><path d="M46.8628 62.4878C46.7979 62.7596 46.6222 63.0063 46.3504 63.1863C46.2959 63.2227 46.2405 63.2192 46.1886 63.1785C46.1808 63.1725 46.1739 63.1655 46.1661 63.1603C45.6251 62.815 45.6243 62.8107 45.9731 62.2801C46.0588 62.1494 46.1479 62.0213 46.2379 61.8941C46.2717 61.8474 46.3063 61.805 46.3816 61.824C46.5936 61.8794 46.8671 62.2221 46.8637 62.4878H46.8628Z" fill="black"></path><path d="M57.4046 62.741C57.4072 62.9764 57.0974 63.4239 56.8767 63.5079C56.8386 63.5226 56.8031 63.5312 56.7659 63.5087C56.7495 63.4992 56.733 63.4888 56.7157 63.4784C56.1895 63.1591 56.1774 63.1106 56.5071 62.5974C56.5911 62.4667 56.6794 62.3377 56.7659 62.2087C56.8005 62.1568 56.8412 62.1257 56.9113 62.1412C57.1311 62.188 57.4012 62.5151 57.4038 62.741H57.4046Z" fill="black"></path><path d="M78.7757 62.0904C78.7826 62.3448 78.4961 62.8053 78.3144 62.884C78.2434 62.9143 78.1811 62.8996 78.124 62.8546C77.9941 62.7516 77.8669 62.646 77.7354 62.5448C77.6549 62.4824 77.6635 62.4193 77.7137 62.344C77.8635 62.1163 78.0141 61.8887 78.1586 61.6576C78.2183 61.5624 78.2832 61.5529 78.3758 61.6057C78.5862 61.7269 78.7601 61.8731 78.7766 62.0904H78.7757Z" fill="black"></path><path d="M68.2148 66.7321C68.4078 66.5745 68.4943 66.3417 68.6363 66.147C68.7765 65.9548 68.8085 65.9453 69.0076 66.0829C69.333 66.3088 69.3892 66.5728 69.185 66.9138C69.1651 66.9476 69.1434 66.9796 69.1209 67.0116C68.8552 67.3829 68.7998 67.3933 68.4415 67.1034C68.3238 67.0082 68.1187 66.9493 68.2182 66.7217L68.2156 66.7312L68.2148 66.7321Z" fill="black"></path><path d="M68.2182 66.7227C68.1143 66.9348 67.9689 67.1182 67.814 67.2931C67.6902 67.4324 67.6435 67.429 67.4929 67.3208C67.179 67.0957 67.1271 66.8231 67.3371 66.5029C67.4012 66.4051 67.4643 66.3064 67.531 66.2103C67.6591 66.0242 67.6868 66.0234 67.8772 66.1515C68.0858 66.2925 68.187 66.4916 68.2156 66.734C68.2156 66.7331 68.2191 66.7227 68.2191 66.7227H68.2182Z" fill="black"></path><path d="M49.8055 75.3871C49.8055 75.6502 49.7986 75.9142 49.8081 76.1773C49.8133 76.3288 49.7406 76.353 49.6125 76.3548C49.4749 76.3565 49.4213 76.3089 49.4221 76.1687C49.4265 75.6511 49.4213 75.1344 49.4256 74.6168C49.4273 74.4394 49.4585 74.4282 49.6359 74.4221C49.7934 74.4169 49.8081 74.5043 49.8064 74.6246C49.803 74.8782 49.8055 75.1318 49.8055 75.3863V75.3871Z" fill="black"></path><path d="M38.8785 75.3817C38.8785 75.6448 38.8725 75.9088 38.8811 76.1719C38.8863 76.3182 38.824 76.3546 38.6907 76.3546C38.5583 76.3546 38.4943 76.3182 38.4951 76.1737C38.5003 75.6466 38.4995 75.1195 38.4951 74.5924C38.4943 74.4392 38.5808 74.4228 38.7037 74.4219C38.8257 74.421 38.882 74.4617 38.8794 74.5898C38.8742 74.8529 38.8777 75.1169 38.8777 75.38L38.8785 75.3817Z" fill="black"></path><path d="M61.7892 75.3854C61.7892 75.6485 61.7823 75.9125 61.7918 76.1756C61.797 76.3254 61.7278 76.353 61.5979 76.3548C61.462 76.3565 61.4049 76.3115 61.4067 76.1704C61.411 75.6529 61.4058 75.1361 61.4101 74.6186C61.4118 74.4394 61.4421 74.4282 61.6196 74.4221C61.7736 74.4169 61.7944 74.4991 61.7918 74.6238C61.7875 74.8774 61.7901 75.131 61.7901 75.3854H61.7892Z" fill="black"></path><path d="M41.5806 75.3973C41.5806 75.6604 41.5771 75.9243 41.5823 76.1875C41.5849 76.3164 41.5295 76.3571 41.4075 76.3545C41.2898 76.3528 41.1963 76.3493 41.198 76.1901C41.2023 75.6534 41.2015 75.1168 41.1989 74.5802C41.1989 74.4426 41.2802 74.4253 41.391 74.4253C41.4992 74.4253 41.584 74.4357 41.5814 74.5776C41.5762 74.8511 41.5797 75.1238 41.5806 75.3973Z" fill="black"></path><path d="M36.92 60.2278C36.8568 60.1508 36.8897 60.0815 36.9407 60.0166C37.2489 59.6237 37.5777 59.2515 37.9707 58.9391C38.0036 58.9131 38.0391 58.9036 38.078 58.9226L38.0763 58.9166C37.8357 59.3182 37.5042 59.6393 37.1736 59.9638C37.0853 60.0504 36.9736 60.1153 36.9148 60.2313C36.9052 60.2183 36.8957 60.2053 36.8862 60.1923C36.8975 60.2044 36.9087 60.2157 36.92 60.2278Z" fill="black"></path><path d="M39.9302 61.4473C39.8462 61.7623 39.2326 62.5698 38.8267 62.9255C38.8682 62.6841 39.3347 62.054 39.9302 61.4473Z" fill="black"></path><path d="M33.1892 68.3052C33.1892 68.2977 33.1892 68.2903 33.19 68.2837C33.2099 68.2886 33.2082 68.2944 33.1826 68.3002L33.1892 68.306V68.3052Z" fill="black"></path><path d="M36.9161 60.2327L36.9069 60.2197L36.9208 60.2281L36.9161 60.2327Z" fill="black"></path><path d="M38.0788 58.9242L38.0641 58.9043C38.0641 58.9043 38.0745 58.9155 38.0753 58.9164C38.0762 58.9173 38.0788 58.9233 38.0788 58.9233V58.9242Z" fill="black"></path><path d="M31.411 67.3396C31.6248 66.9977 31.8143 66.6732 32.0714 66.3936C32.1389 66.32 32.2229 66.2707 32.3215 66.2517C32.4401 66.2292 32.5293 66.2837 32.6046 66.3676C32.6868 66.4603 32.6418 66.5494 32.5933 66.6368C32.5795 66.6619 32.5613 66.6853 32.5431 66.7087C32.383 66.9103 31.7347 67.2799 31.4102 67.3405L31.411 67.3396Z" fill="white"></path><path d="M32.3984 67.2313C32.5611 66.9405 32.7541 66.6731 32.9973 66.4437C33.1358 66.313 33.2985 66.2654 33.482 66.3009C33.6672 66.3373 33.7148 66.4827 33.5824 66.6177C33.3885 66.8142 33.154 66.9587 32.9004 67.0617C32.7351 67.1283 32.5932 67.2737 32.3906 67.2305H32.3984V67.2313Z" fill="white"></path><path d="M32.3906 67.231C32.3989 67.2326 32.4129 67.2334 32.4137 67.2367C32.4187 67.2623 32.4137 67.2615 32.3997 67.2326C32.3981 67.2326 32.3906 67.231 32.3906 67.231Z" fill="white"></path><path d="M48.9522 65.1566C48.8068 65.1627 48.7713 65.1125 48.8336 65.0199C49.0024 64.768 49.1988 64.5395 49.4689 64.3889C49.61 64.3102 49.7571 64.2868 49.9172 64.3448C50.1535 64.4313 50.1821 64.5222 49.9986 64.6875C49.8012 64.8658 49.5684 64.9879 49.3157 65.0666C49.1859 65.1064 49.0526 65.1324 48.9522 65.1566Z" fill="white"></path><path d="M37.6469 66.3529C37.4279 66.3555 37.2211 66.2274 37.215 66.0846C37.2081 65.9357 37.4236 65.7574 37.6304 65.7418C37.8477 65.7254 38.103 65.8942 38.0961 66.0491C38.09 66.1954 37.8615 66.3494 37.6478 66.352L37.6469 66.3529Z" fill="white"></path><path d="M60.1898 74.7431C60.2773 74.7482 60.3664 74.7456 60.4521 74.7612C60.5603 74.7803 60.6209 74.8547 60.6269 74.9664C60.6321 75.0754 60.5862 75.1585 60.4798 75.1931C60.2989 75.252 60.112 75.2286 59.9276 75.2199C59.8679 75.2173 59.8488 75.1689 59.8445 75.1178C59.8393 75.0598 59.8462 75.0001 59.8393 74.9421C59.8211 74.7846 59.8973 74.7318 60.0436 74.7465C60.092 74.7508 60.1414 74.7465 60.1898 74.7465C60.1898 74.7448 60.1898 74.7439 60.1898 74.7422V74.7431Z" fill="white"></path><path d="M34.2775 75.2281C34.268 75.2281 34.2584 75.2281 34.2481 75.2281C33.9581 75.2264 33.8975 75.1485 33.9538 74.8594C33.9668 74.791 33.9997 74.7529 34.0663 74.7521C34.2221 74.7495 34.3779 74.746 34.5328 74.7538C34.6678 74.7607 34.7509 74.843 34.7544 74.978C34.7578 75.0991 34.686 75.1814 34.5674 75.2047C34.4731 75.2238 34.3753 75.2264 34.2783 75.2359V75.2281H34.2775Z" fill="white"></path><path d="M47.3216 76.068C47.1684 76.0654 47.0706 75.9944 47.0429 75.8646C47.0134 75.7287 47.1 75.5313 47.2272 75.5062C47.3986 75.4716 47.4272 75.6551 47.5172 75.7417C47.5717 75.7945 47.6807 75.8594 47.6098 75.9563C47.5457 76.0455 47.4341 76.0706 47.3216 76.068Z" fill="white"></path><path d="M47.6375 74.8078C47.6409 74.9073 47.5241 75.0423 47.4453 75.0423C47.3761 75.0423 47.2618 74.8969 47.267 74.8095C47.2731 74.703 47.3466 74.658 47.4401 74.6563C47.5466 74.6546 47.6219 74.7056 47.6383 74.8078H47.6375Z" fill="white"></path><path d="M23.1584 75.3754C23.1532 75.5138 23.1523 75.6411 23.0969 75.7596C23.006 75.9535 22.8606 76.0634 22.6416 76.0695C22.4235 76.0756 22.2591 75.9838 22.1656 75.7908C22.0401 75.5303 22.0436 75.2585 22.1604 74.9971C22.2487 74.7998 22.4218 74.7081 22.633 74.7115C22.845 74.715 23.0026 74.818 23.096 75.0144C23.1532 75.1339 23.1497 75.2611 23.1584 75.3754Z" fill="white"></path><path d="M29.0101 75.3929C29.0179 75.5123 28.9937 75.6283 28.9504 75.7365C28.8725 75.9338 28.7306 76.055 28.5107 76.0688C28.2831 76.0827 28.1039 75.9953 28.0096 75.7867C27.891 75.5262 27.8936 75.2527 28.0096 74.9921C28.0979 74.7948 28.2727 74.7057 28.4848 74.7117C28.6968 74.7186 28.8586 74.8208 28.9426 75.0207C28.9919 75.1384 29.017 75.263 29.0092 75.3929H29.0101Z" fill="white"></path><path d="M68.6943 75.3952C68.7099 75.2507 68.7099 75.1235 68.7688 75.0057C68.8657 74.8119 69.0258 74.7158 69.2379 74.7106C69.4534 74.7054 69.6395 74.83 69.7174 75.0326C69.7996 75.249 69.8048 75.4714 69.7338 75.693C69.6524 75.9483 69.4664 76.0807 69.2084 76.0686C68.973 76.0582 68.7895 75.9085 68.7298 75.667C68.7065 75.5727 68.7039 75.474 68.6943 75.3952Z" fill="white"></path><path d="M52.5171 75.3975C52.5171 75.2313 52.5171 75.0652 52.5171 74.8981C52.5171 74.8237 52.5327 74.77 52.6201 74.7492C53.0615 74.6462 53.3316 74.8453 53.348 75.298C53.3523 75.4243 53.3506 75.5533 53.3316 75.6779C53.2952 75.9142 53.1792 76.0181 52.9421 76.0449C52.8651 76.0536 52.7854 76.0449 52.7075 76.0501C52.5734 76.0596 52.5076 76.0103 52.5145 75.8666C52.5223 75.7108 52.5163 75.5533 52.5163 75.3966L52.5171 75.3975Z" fill="white"></path><path d="M63.1446 75.5789C62.9828 75.6066 62.84 75.6083 62.6929 75.5806C62.6652 75.4603 62.7335 75.3685 62.7673 75.2716C62.801 75.1729 62.8201 75.0656 62.8945 74.9834C63.0365 75.1626 63.059 75.2154 63.1446 75.5797V75.5789Z" fill="white"></path><path d="M75.0713 74.9346C75.1872 75.1622 75.2651 75.3535 75.3084 75.5707C75.1466 75.6131 74.9986 75.6123 74.8341 75.5707C74.8852 75.3561 74.9536 75.1613 75.0713 74.9346Z" fill="white"></path><path d="M32.3863 74.9258C32.5066 75.1525 32.5776 75.3507 32.6382 75.5671C32.4755 75.6242 32.3257 75.5914 32.1587 75.5948C32.1924 75.3585 32.2868 75.1699 32.3863 74.9258Z" fill="white"></path><path d="M73.4113 75.307C73.2174 75.3058 73.1191 75.225 73.1162 75.0646C73.1153 74.9962 73.1162 74.9287 73.1188 74.8604C73.1205 74.8093 73.1343 74.7608 73.1958 74.7556C73.3412 74.7427 73.4892 74.7297 73.6303 74.7729C73.7428 74.8076 73.8016 74.8984 73.8034 75.017C73.8051 75.1477 73.7445 75.2455 73.6173 75.2819C73.5342 75.3052 73.4451 75.3035 73.4104 75.307H73.4113Z" fill="white"></path></g><defs><clipPath id="clip0_9871_1763"><rect width="63.3402" height="52.395" fill="white" transform="translate(18 24)"></rect></clipPath></defs></svg> 