<?xml version="1.0" encoding="UTF-8"?> <svg xmlns="http://www.w3.org/2000/svg" width="100" height="100" viewBox="0 0 100 100" fill="none"><g clip-path="url(#clip0_9871_873)"><path d="M78.0141 35.7268C70.427 32.0923 60.3767 30.0869 49.7144 30.0869C39.052 30.0869 28.9958 32.0923 21.413 35.7268C13.4389 39.5477 9.04773 44.7728 9.04773 50.441C9.04773 56.1093 13.4389 61.3344 21.413 65.1553C28.9958 68.7898 39.0494 70.7952 49.7144 70.7952C60.3793 70.7952 70.4278 68.7932 78.0149 65.1587C85.989 61.3344 90.381 56.1093 90.381 50.441C90.381 44.7728 85.989 39.5477 78.0141 35.7268ZM76.5895 62.164C69.4381 65.5898 59.8947 67.4767 49.7135 67.4767C39.5323 67.4767 29.9872 65.5872 22.8376 62.164C16.1742 58.9709 12.3524 54.6982 12.3524 50.441C12.3524 46.1838 16.1742 41.9112 22.8376 38.7181C29.9881 35.2922 39.5323 33.4054 49.7135 33.4054C59.8947 33.4054 69.4381 35.2948 76.5895 38.7181C83.2537 41.9112 87.0763 46.1838 87.0763 50.441C87.0763 54.6982 83.2537 58.9709 76.5895 62.164Z" fill="black"></path><path d="M55.1833 47.0834C55.1833 46.9403 55.1748 46.7359 55.1577 46.4702C55.1405 46.2045 55.116 45.9114 55.084 45.5908C55.0503 45.2707 55.0144 44.9364 54.9762 44.5877C54.9379 44.239 54.8962 43.9103 54.8512 43.6017L52.3683 44.0166C52.4893 45.0111 52.575 45.7737 52.6252 46.3045C52.6748 46.8344 52.6997 47.2054 52.6997 47.4149C52.6983 47.4853 52.6782 47.5541 52.6415 47.6142C52.5837 47.6961 52.5034 47.7594 52.4103 47.7962C52.2568 47.8627 52.0958 47.91 51.9309 47.9371C51.666 47.9806 51.3978 48.0002 51.1295 47.9955H50.716C50.1755 47.9955 49.7928 47.8987 49.5679 47.7052C49.341 47.512 49.2255 47.1556 49.2255 46.636V44.8453H47.0021C47.0021 45.5524 46.9855 46.1132 46.9524 46.5278C46.9357 46.8476 46.8828 47.1645 46.7949 47.4725C46.723 47.6872 46.6236 47.8289 46.4978 47.895C46.3454 47.9668 46.1781 48.001 46.0098 47.9946C45.8026 47.9947 45.5966 47.9638 45.3985 47.9027C45.1722 47.8234 44.972 47.6831 44.8198 47.4974C44.8309 47.3531 44.8395 47.1822 44.8446 46.9821C44.8497 46.782 44.8532 46.5784 44.8532 46.3689V45.1751H42.6221C42.6271 45.6375 42.605 46.0997 42.5561 46.5595C42.5272 46.8549 42.4548 47.1443 42.3412 47.4184C42.2664 47.605 42.133 47.7621 41.9611 47.8658C41.7813 47.9542 41.5825 47.9969 41.3824 47.9903C41.1638 47.9888 40.9466 47.9553 40.7377 47.8907C40.5168 47.8243 40.335 47.664 40.1923 47.4098C40.2035 47.2663 40.2112 47.1006 40.2172 46.9125C40.2232 46.7244 40.2257 46.5286 40.2257 46.3234V45.1768H37.9938C37.9997 45.6531 37.9751 46.1293 37.9201 46.6025C37.8705 46.9678 37.774 47.2523 37.6308 47.4561C37.4907 47.6583 37.2868 47.8072 37.052 47.8787C36.7401 47.9658 36.4168 48.0052 36.0931 47.9955H35.7592C35.5313 47.9983 35.3039 47.9732 35.082 47.9208C34.8902 47.8745 34.7119 47.7836 34.5615 47.6554C34.4011 47.5132 34.2827 47.3296 34.219 47.1246C34.1341 46.8428 34.0951 46.549 34.1035 46.2546V39.0405L31.5419 39.2896L31.7893 51.2272C31.7776 51.4216 31.6954 51.6048 31.5582 51.7425C31.3684 51.9448 31.1409 52.1079 30.8887 52.2226C30.5433 52.3841 30.18 52.5037 29.8065 52.579C29.3169 52.6786 28.8181 52.7258 28.3185 52.7199C27.915 52.7283 27.512 52.6838 27.1199 52.5876C26.8346 52.5177 26.5653 52.3939 26.3263 52.2226C26.134 52.0828 25.9827 51.8939 25.8879 51.6755C25.7978 51.4546 25.7529 51.2177 25.7561 50.979C25.7561 50.8359 25.7615 50.6621 25.7724 50.4577C25.7886 50.2131 25.8172 49.9695 25.858 49.7277C25.9014 49.446 25.9619 49.1145 26.0395 48.7332C26.1171 48.3519 26.2178 47.9125 26.3417 47.4149L24.3589 46.8335C23.9068 48.0358 23.6149 49.0223 23.483 49.793C23.3512 50.5636 23.285 51.1517 23.2844 51.557C23.2844 52.9718 23.6922 54.0579 24.5078 54.8154C25.3235 55.5729 26.5409 55.9513 28.1601 55.9508C28.9475 55.9568 29.7309 55.8392 30.482 55.6021C31.1653 55.39 31.8061 55.0589 32.3749 54.6239C32.9068 54.2135 33.3413 53.69 33.6471 53.0909C33.962 52.461 34.1208 51.7643 34.1103 51.0598V50.6458C34.2948 50.8535 34.5312 51.008 34.7952 51.0933C35.1076 51.1884 35.4329 51.2339 35.7592 51.2281H36.0897C36.7952 51.2281 37.3682 51.1259 37.8088 50.9215C38.2513 50.7156 38.6287 50.3914 38.8996 49.9845C39.1388 50.3471 39.4515 50.6549 39.8173 50.888C40.1752 51.117 40.6681 51.2315 41.2959 51.2315C41.7138 51.2314 42.1286 51.1602 42.5227 51.0211C42.9188 50.8826 43.2824 50.5648 43.6135 50.0678C43.7496 50.27 43.9169 50.4492 44.1092 50.5986C44.2946 50.74 44.4957 50.8596 44.7085 50.955C44.91 51.0463 45.1206 51.1157 45.3369 51.162C45.5324 51.2048 45.7318 51.227 45.9319 51.2281C46.3896 51.2391 46.8396 51.109 47.2212 50.8554C47.5631 50.627 47.8545 50.3306 48.0774 49.9845C48.2081 50.2339 48.3881 50.454 48.6065 50.6312C48.8083 50.7928 49.0342 50.9215 49.276 51.0125C49.5103 51.0995 49.7544 51.1572 50.0028 51.1843C50.2416 51.2112 50.4817 51.225 50.722 51.2255H51.0525C51.5888 51.2294 52.1229 51.1568 52.6389 51.01C53.1225 50.873 53.5708 50.6328 53.9531 50.3057C54.351 49.9541 54.6597 49.5125 54.8537 49.0175C55.0735 48.4907 55.1833 47.846 55.1833 47.0834Z" fill="black"></path><path d="M53.4471 42.4401L54.935 40.9484V40.6993L53.4471 39.2075H53.1996L51.7117 40.6993V40.9484L53.1996 42.4401H53.4471Z" fill="black"></path><path d="M58.9837 51.1459V39.0425L56.4221 39.2915L56.6704 51.3116L58.9837 51.1459Z" fill="black"></path><path d="M69.1486 52.4551L67.7437 53.8644L66.3388 52.4551H66.0905L64.6855 53.8644V54.1126L66.0905 55.5219H66.3388L67.7437 54.1126L69.1486 55.5219H69.396L70.801 54.1126V53.8644L69.396 52.4551H69.1486Z" fill="black"></path><path d="M65.5117 51.2284H65.843C66.3793 51.2322 66.9135 51.1596 67.4294 51.0129C67.9129 50.8758 68.3612 50.6356 68.7436 50.3086C69.1412 49.9567 69.4499 49.5152 69.6443 49.0204C69.8646 48.4896 69.9747 47.8429 69.9747 47.0803C69.9747 46.9372 69.9665 46.7328 69.9499 46.4671C69.9334 46.2014 69.9085 45.9083 69.8754 45.5877C69.8418 45.2676 69.8061 44.9332 69.7684 44.5846C69.7307 44.2359 69.6894 43.9072 69.6443 43.5986L67.1615 44.0134C67.283 45.008 67.3686 45.7706 67.4183 46.3014C67.468 46.8312 67.4928 47.2023 67.4928 47.4118C67.4913 47.4821 67.4715 47.5508 67.4354 47.6111C67.3772 47.6929 67.2966 47.7561 67.2034 47.7931C67.0502 47.8595 66.8895 47.9068 66.7248 47.934C66.4597 47.9775 66.1912 47.997 65.9226 47.9924H65.51C65.2043 47.9997 64.8988 47.9689 64.6007 47.9005C64.3629 47.8358 64.1553 47.6892 64.0143 47.4865C63.8226 47.2031 63.6799 46.8892 63.5922 46.5581C63.4718 46.1545 63.3397 45.6106 63.1958 44.9264L60.713 45.5894C60.9664 46.9274 61.1539 48.0356 61.2755 48.9139C61.3971 49.7922 61.4576 50.3974 61.457 50.7294C61.4267 50.9164 61.3563 51.0946 61.2507 51.2516C61.0905 51.4756 60.8866 51.6647 60.6514 51.8073C60.2971 52.0312 59.9203 52.2172 59.5273 52.3621C58.9413 52.5793 58.3404 52.7538 57.7294 52.8842L58.3081 55.6204C59.9827 55.5758 61.3023 55.1364 62.2669 54.3021C63.2315 53.4679 63.7737 52.2438 63.8936 50.6298C64.0779 50.8416 64.3139 51.0018 64.5785 51.0944C64.8749 51.1884 65.1846 51.233 65.4954 51.2267L65.5117 51.2284Z" fill="black"></path><path d="M71.462 51.3116L73.7762 51.1459V39.0425L71.2146 39.2915L71.462 51.3116Z" fill="black"></path><path d="M42.1211 60.8231L40.0629 58.019H38.265V65.1696H40.0518V61.1598L41.4815 63.0938H42.5003L43.8 61.1598V65.1696H45.7494V58.019H43.9626L42.1211 60.8231Z" fill="black"></path><path d="M46.746 59.6388H49.0858V65.1696H51.0686V59.6388H53.3973V58.019H46.746V59.6388Z" fill="black"></path><path d="M59.3767 61.9636L56.1704 58.019H54.3939V65.1696H56.1815V61.0833L59.5282 65.1696H61.1643V58.019H59.3767V61.9636Z" fill="black"></path></g><defs><clipPath id="clip0_9871_873"><rect width="82" height="41" fill="white" transform="translate(9 30)"></rect></clipPath></defs></svg> 