<?xml version="1.0" encoding="UTF-8"?> <svg xmlns="http://www.w3.org/2000/svg" width="100" height="100" viewBox="0 0 100 100" fill="none"><path fill-rule="evenodd" clip-rule="evenodd" d="M75.222 82.3724H75.7343C76.2466 82.3724 76.6052 82.1089 76.8175 81.582C77.0004 82.0943 77.403 82.3431 78.0104 82.3431C78.4276 82.3431 78.7496 82.0943 78.9765 81.6039C79.3131 82.1162 79.7157 82.3651 80.1768 82.3651C80.7257 82.3651 81.1575 81.9552 81.4722 81.1428C81.6917 80.5573 81.8015 79.9206 81.8015 79.2326C81.8015 78.9618 81.7722 78.6764 81.721 78.3763C81.6405 77.9226 81.5307 77.6591 81.377 77.5713C81.3258 77.5713 81.0257 77.8714 80.4915 78.4788C80.6964 78.8887 80.7988 79.1887 80.7988 79.3863C80.7988 79.6571 80.6159 79.7962 80.2573 79.7962C79.9718 79.7962 79.7669 79.6718 79.6205 79.4156C79.5766 79.379 79.5034 79.1668 79.3937 78.7789C79.3351 78.5447 79.2326 78.4203 79.0863 78.4203C78.9911 78.4203 78.8374 78.6398 78.6325 79.0789C78.4276 79.5181 78.2446 79.7376 78.0836 79.7376C77.8128 79.7376 77.6079 79.6205 77.4761 79.3937C77.4469 79.3571 77.3737 79.1521 77.2346 78.7789C77.1541 78.5447 77.037 78.4203 76.876 78.4203C76.7443 78.4203 76.6125 78.5593 76.4954 78.8301C76.4588 78.9545 76.393 79.1448 76.2978 79.3937C76.2027 79.5913 76.049 79.6937 75.8367 79.7157C75.7782 79.7303 75.6099 79.7376 75.3391 79.7376C75.0683 79.723 74.8194 79.6352 74.5779 79.4815C74.4608 79.4083 74.2852 79.2326 74.051 78.9692C73.8387 78.7423 73.6558 78.5959 73.5094 78.5374C73.4069 78.5959 73.2093 78.9106 72.9239 79.4815C72.8214 79.7084 72.6458 80.067 72.4116 80.55C73.3118 81.3917 73.7582 81.9113 73.7582 82.1016C73.7582 82.3285 73.363 82.7456 72.5799 83.3385C71.9066 83.8288 71.3869 84.1582 71.021 84.3192C70.8893 84.385 70.6478 84.5021 70.2965 84.6632C70.1354 84.751 70.0549 84.8608 70.0549 85.0071C70.0549 85.1169 70.1062 85.2047 70.2159 85.2779C70.3184 85.3438 70.4355 85.3804 70.5599 85.3804H73.5899C73.7363 85.3145 73.9266 85.095 74.1461 84.7144C74.4169 84.2899 74.6072 83.8947 74.7023 83.5287C74.7902 83.214 74.8341 82.7822 74.8341 82.226C74.9292 82.2992 75.0536 82.3431 75.2146 82.3577L75.222 82.3724Z" fill="black"></path><path fill-rule="evenodd" clip-rule="evenodd" d="M77.4834 75.9389L77.5127 76.0121L78.2811 76.7659H78.3324C78.3763 76.744 78.6251 76.5098 79.0716 76.0633L79.862 76.7805C79.862 76.7805 80.1621 76.5171 80.6524 76.0194V75.9974L80.6158 75.9243L79.862 75.1851H79.7668C79.7668 75.1851 79.5326 75.4412 79.0642 75.8877C78.8447 75.6681 78.5812 75.4339 78.2811 75.1851L78.2006 75.2217L77.4761 75.9462L77.4834 75.9389Z" fill="black"></path><path fill-rule="evenodd" clip-rule="evenodd" d="M53.6902 17.5869C65.2904 18.4652 74.4315 28.1625 74.4315 39.9823C74.4315 51.802 65.2904 61.4994 53.6902 62.3776V56.5519C62.0775 55.6883 68.6277 48.5964 68.6277 39.9823C68.6277 31.3681 62.0775 24.2762 53.6902 23.4126V17.5869ZM50.4626 62.3923C38.7599 61.6165 29.509 51.8825 29.509 39.9823C29.509 28.082 38.7672 18.3481 50.4699 17.5723V23.3907C41.9802 24.1518 35.3201 31.2876 35.3201 39.9823C35.3201 48.6769 41.9802 55.8127 50.4699 56.5739V62.3923H50.4626Z" stroke="black" stroke-width="1.46375" stroke-miterlimit="22.93"></path><path fill-rule="evenodd" clip-rule="evenodd" d="M53.6902 12.1055C65.2904 12.9837 74.4315 22.681 74.4315 34.5008C74.4315 46.3206 65.2904 56.0179 53.6902 56.8962V51.0705C62.0775 50.2068 68.6277 43.115 68.6277 34.5008C68.6277 25.8867 62.0775 18.7948 53.6902 17.9312V12.1055ZM50.4626 56.9108C38.7599 56.135 29.509 46.4011 29.509 34.5008C29.509 22.6005 38.7672 12.8666 50.4699 12.0908V17.9092C41.9802 18.6704 35.3201 25.8061 35.3201 34.5008C35.3201 43.1955 41.9802 50.3313 50.4699 51.0924V56.9108H50.4626Z" stroke="black" stroke-width="1.46375" stroke-miterlimit="22.93"></path><path fill-rule="evenodd" clip-rule="evenodd" d="M59.589 66.9156C61.3967 66.9156 62.8678 68.3793 62.8678 70.1944C62.8678 72.0094 61.4041 73.4732 59.589 73.4732C57.774 73.4732 56.3102 72.0094 56.3102 70.1944C56.3102 68.3793 57.774 66.9156 59.589 66.9156ZM44.6222 29.7656C46.4299 29.7656 47.901 31.2294 47.901 33.0444C47.901 34.8595 46.4372 36.3232 44.6222 36.3232C42.8071 36.3232 41.3434 34.8595 41.3434 33.0444C41.3434 31.2294 42.8071 29.7656 44.6222 29.7656ZM59.589 29.7656C61.3967 29.7656 62.8678 31.2294 62.8678 33.0444C62.8678 34.8595 61.4041 36.3232 59.589 36.3232C57.774 36.3232 56.3102 34.8595 56.3102 33.0444C56.3102 31.2294 57.774 29.7656 59.589 29.7656ZM52.0946 29.7656C53.9024 29.7656 55.3734 31.2294 55.3734 33.0444C55.3734 34.8595 53.9097 36.3232 52.0946 36.3232C50.2796 36.3232 48.8158 34.8595 48.8158 33.0444C48.8158 31.2294 50.2796 29.7656 52.0946 29.7656ZM44.6222 37.3113C46.4299 37.3113 47.901 38.775 47.901 40.59C47.901 42.4051 46.4372 43.8688 44.6222 43.8688C42.8071 43.8688 41.3434 42.4051 41.3434 40.59C41.3434 38.775 42.8071 37.3113 44.6222 37.3113ZM59.589 37.3113C61.3967 37.3113 62.8678 38.775 62.8678 40.59C62.8678 42.4051 61.4041 43.8688 59.589 43.8688C57.774 43.8688 56.3102 42.4051 56.3102 40.59C56.3102 38.775 57.774 37.3113 59.589 37.3113ZM52.0946 37.3113C53.9024 37.3113 55.3734 38.775 55.3734 40.59C55.3734 42.4051 53.9097 43.8688 52.0946 43.8688C50.2796 43.8688 48.8158 42.4051 48.8158 40.59C48.8158 38.775 50.2796 37.3113 52.0946 37.3113ZM44.6222 44.7105C46.4299 44.7105 47.901 46.1743 47.901 47.9893C47.901 49.8044 46.4372 51.2681 44.6222 51.2681C42.8071 51.2681 41.3434 49.8044 41.3434 47.9893C41.3434 46.1743 42.8071 44.7105 44.6222 44.7105ZM59.589 44.7105C61.3967 44.7105 62.8678 46.1743 62.8678 47.9893C62.8678 49.8044 61.4041 51.2681 59.589 51.2681C57.774 51.2681 56.3102 49.8044 56.3102 47.9893C56.3102 46.1743 57.774 44.7105 59.589 44.7105ZM52.0946 44.7105C53.9024 44.7105 55.3734 46.1743 55.3734 47.9893C55.3734 49.8044 53.9097 51.2681 52.0946 51.2681C50.2796 51.2681 48.8158 49.8044 48.8158 47.9893C48.8158 46.1743 50.2796 44.7105 52.0946 44.7105ZM44.6222 51.9121C46.4299 51.9121 47.901 53.3759 47.901 55.1909C47.901 57.006 46.4372 58.4697 44.6222 58.4697C42.8071 58.4697 41.3434 57.006 41.3434 55.1909C41.3434 53.3759 42.8071 51.9121 44.6222 51.9121ZM59.589 51.9121C61.3967 51.9121 62.8678 53.3759 62.8678 55.1909C62.8678 57.006 61.4041 58.4697 59.589 58.4697C57.774 58.4697 56.3102 57.006 56.3102 55.1909C56.3102 53.3759 57.774 51.9121 59.589 51.9121ZM52.0946 51.9121C53.9024 51.9121 55.3734 53.3759 55.3734 55.1909C55.3734 57.006 53.9097 58.4697 52.0946 58.4697C50.2796 58.4697 48.8158 57.006 48.8158 55.1909C48.8158 53.3759 50.2796 51.9121 52.0946 51.9121ZM44.6222 59.3114C46.4299 59.3114 47.901 60.7752 47.901 62.5902C47.901 64.4052 46.4372 65.869 44.6222 65.869C42.8071 65.869 41.3434 64.4052 41.3434 62.5902C41.3434 60.7752 42.8071 59.3114 44.6222 59.3114ZM59.589 59.3114C61.3967 59.3114 62.8678 60.7752 62.8678 62.5902C62.8678 64.4052 61.4041 65.869 59.589 65.869C57.774 65.869 56.3102 64.4052 56.3102 62.5902C56.3102 60.7752 57.774 59.3114 59.589 59.3114Z" fill="black"></path><path fill-rule="evenodd" clip-rule="evenodd" d="M78.2153 74.599C78.2153 74.599 78.5081 74.8991 79.035 75.4041L79.1521 75.3675C79.4083 75.1626 79.5473 75.0381 79.562 75.0016C79.7303 74.8552 79.8401 74.7234 79.8913 74.6063C79.8767 74.5697 79.6059 74.3063 79.1009 73.8159L78.9838 73.8525L78.2446 74.6063H78.2153V74.599Z" fill="black"></path><path fill-rule="evenodd" clip-rule="evenodd" d="M66.9885 82.3724H68.4595C69.3231 82.3724 69.9965 82.1163 70.4868 81.6039C70.9772 81.0916 71.2407 80.4329 71.2846 79.6206C71.2846 78.6179 70.7723 77.5201 69.7476 76.3345C71.3504 75.91 72.1848 75.6611 72.2506 75.5806C72.3238 74.4023 72.3531 73.7948 72.3531 73.7656V73.6924L67.7643 75.1049C67.7643 75.1049 67.6179 75.6831 67.4203 76.8394C67.735 77.0663 68.1521 77.4835 68.6718 78.0763C69.1841 78.6691 69.4768 79.1009 69.5354 79.3644C69.55 79.6279 69.2353 79.7523 68.584 79.7377H67.1422C66.864 79.7377 66.6445 79.6938 66.4835 79.6133C66.6884 79.2985 66.7909 79.0204 66.7909 78.7862C66.7909 78.552 66.6884 78.4203 66.4835 78.4203C66.4542 78.4203 66.2785 78.5593 65.9419 78.8375L65.3198 79.3717C64.5001 79.906 63.2925 80.1768 61.697 80.1768C60.2699 80.1768 59.4282 79.8548 59.172 79.2107C59.1428 79.0424 59.1135 78.7935 59.0769 78.4715C59.0403 78.1495 58.9086 77.9885 58.6671 77.9885C58.3816 77.9885 58.1913 78.2593 58.0816 78.7935C57.9864 79.1668 57.9352 79.5547 57.9352 79.9499C57.9352 81.8016 59.0037 82.731 61.1481 82.731C63.0583 82.731 64.5001 82.2846 65.4588 81.3771C65.7004 81.7796 65.9492 82.0504 66.2273 82.1894C66.4176 82.2846 66.6664 82.3431 66.9812 82.3651V82.3797L66.9885 82.3724Z" fill="black"></path><path fill-rule="evenodd" clip-rule="evenodd" d="M60.2917 76.7812L60.321 76.869L61.1114 77.5862C61.1114 77.5862 61.1554 77.6082 61.1627 77.6082C61.17 77.6082 61.4115 77.3667 61.8799 76.891C62.0702 77.1032 62.3337 77.3447 62.663 77.6082C62.7435 77.5935 62.8899 77.4691 63.1095 77.2422C63.329 77.0154 63.4608 76.869 63.5047 76.8251L63.4388 76.7373L62.7216 76.0713L62.6557 76.02L62.5752 76.0713L61.8726 76.708L61.148 76.02H61.1114C61.0675 76.0566 60.7967 76.3055 60.2917 76.7812Z" fill="black"></path><path fill-rule="evenodd" clip-rule="evenodd" d="M53.2365 75.8007C53.3828 76.818 53.7268 78.8233 54.2684 81.8167C54.3635 82.2338 54.4953 82.4388 54.6636 82.4388C54.949 82.4388 55.1906 82.007 55.3882 81.1507C55.5931 80.4407 55.6955 79.116 55.6955 77.1912C55.6955 75.2664 55.5492 74.0881 55.2564 73.6709C55.1613 73.7221 54.488 74.4321 53.2365 75.8007Z" fill="black"></path><path fill-rule="evenodd" clip-rule="evenodd" d="M49.3867 84.1366C49.4233 84.1805 49.5551 84.3196 49.7819 84.5538C50.0088 84.7953 50.1552 84.9124 50.2064 84.9197L50.3016 84.9051L50.9749 84.2684C51.1871 84.4733 51.4286 84.7002 51.6994 84.9417C51.7873 84.927 51.9483 84.7953 52.1752 84.5611C52.402 84.3196 52.5338 84.1805 52.5557 84.1293C52.5265 84.0561 52.402 83.9097 52.1752 83.6975C51.9483 83.4852 51.7873 83.3681 51.6994 83.3389C51.6628 83.3535 51.4213 83.5804 50.9749 84.0122C50.7992 83.8219 50.5431 83.6023 50.2064 83.3389C50.1552 83.3535 49.8917 83.6097 49.416 84.0927L49.3867 84.1293V84.1366Z" fill="black"></path><path fill-rule="evenodd" clip-rule="evenodd" d="M49.0648 82.372H49.5698C51.2457 82.372 52.0801 81.4938 52.0801 79.7373C52.0801 78.515 51.8386 77.5563 51.3555 76.8683C51.2531 76.7439 51.1213 76.5975 50.975 76.4365H50.9237C50.9091 76.5024 50.4846 77.1098 49.6576 78.2443C49.6942 78.3394 49.9064 78.5516 50.3089 78.8956C50.6383 79.2103 50.7993 79.4299 50.7993 79.547C50.8139 79.6714 50.5285 79.7373 49.9284 79.7373H49.2111C48.9403 79.7226 48.6915 79.6348 48.45 79.4811C48.3329 79.4079 48.1572 79.2323 47.923 78.9688C47.7108 78.7419 47.5278 78.5956 47.3814 78.537C47.279 78.5956 47.0814 78.9103 46.7959 79.4811C46.6935 79.708 46.5178 80.0666 46.2836 80.5497C47.1838 81.3913 47.6303 81.9109 47.6303 82.1012C47.6303 82.3281 47.2351 82.7453 46.452 83.3381C45.7786 83.8285 45.259 84.1578 44.8931 84.3188C44.7613 84.3847 44.5198 84.5018 44.1685 84.6628C44.0075 84.7506 43.927 84.8604 43.927 85.0068C43.927 85.1166 43.9782 85.2044 44.088 85.2776C44.1905 85.3434 44.3076 85.38 44.432 85.38H47.462C47.5937 85.3142 47.7693 85.1166 47.9889 84.7945C48.2817 84.3554 48.4719 83.9309 48.5744 83.5357C48.6622 83.221 48.7061 82.7892 48.7061 82.233C48.8013 82.3062 48.9257 82.3501 49.0867 82.3647L49.0648 82.372Z" fill="black"></path><path fill-rule="evenodd" clip-rule="evenodd" d="M45.8445 76.5613C45.8445 76.6199 45.9909 76.7809 46.2763 77.0297C46.5617 77.2859 46.7301 77.4176 46.7886 77.4396C46.8618 77.4249 47.0301 77.2859 47.3009 77.0297C47.5717 76.7736 47.7254 76.6199 47.7547 76.5613L47.7034 76.4369C47.44 76.1954 47.1326 75.9319 46.7813 75.6318C46.7081 75.6757 46.5471 75.8221 46.2836 76.0636C46.0201 76.3125 45.8811 76.4735 45.8518 76.5613H45.8445Z" fill="black"></path><path fill-rule="evenodd" clip-rule="evenodd" d="M39.4407 75.8007C39.587 76.818 39.931 78.8233 40.4726 81.8167C40.5678 82.2338 40.6995 82.4388 40.8678 82.4388C41.1533 82.4388 41.3948 82.007 41.5924 81.1507C41.7973 80.4407 41.8998 79.116 41.8998 77.1912C41.8998 75.2664 41.7534 74.0881 41.4606 73.6709C41.3655 73.7221 40.6922 74.4321 39.4407 75.8007Z" fill="black"></path><path fill-rule="evenodd" clip-rule="evenodd" d="M35.5909 84.1366C35.6275 84.1805 35.7593 84.3196 35.9862 84.5538C36.213 84.7953 36.3594 84.9124 36.4106 84.9197L36.5058 84.9051L37.1791 84.2684C37.3914 84.4733 37.6329 84.7002 37.9037 84.9417C37.9915 84.927 38.1525 84.7953 38.3794 84.5611C38.6063 84.3196 38.738 84.1805 38.76 84.1293C38.7307 84.0561 38.6063 83.9097 38.3794 83.6975C38.1525 83.4852 37.9915 83.3681 37.9037 83.3389C37.8671 83.3535 37.6256 83.5804 37.1791 84.0122C37.0035 83.8219 36.7473 83.6023 36.4106 83.3389C36.3594 83.3535 36.0959 83.6097 35.6202 84.0927L35.5909 84.1293V84.1366Z" fill="black"></path><path fill-rule="evenodd" clip-rule="evenodd" d="M35.2762 82.372H35.7812C37.4572 82.372 38.2915 81.4938 38.2915 79.7373C38.2915 78.515 38.05 77.5563 37.567 76.8683C37.4645 76.7439 37.3328 76.5975 37.1864 76.4365H37.1352C37.1205 76.5024 36.696 77.1098 35.869 78.2443C35.9056 78.3394 36.1178 78.5516 36.5204 78.8956C36.8497 79.2103 37.0107 79.4299 37.0107 79.547C37.0254 79.6714 36.7399 79.7373 36.1398 79.7373H35.4226C35.1518 79.7226 34.9029 79.6348 34.6614 79.4811C34.5443 79.4079 34.3687 79.2323 34.1345 78.9688C33.9222 78.7419 33.7393 78.5956 33.5929 78.537C33.4904 78.5956 33.2928 78.9103 33.0147 79.4811C32.9122 79.708 32.7366 80.0666 32.5024 80.5497C33.4026 81.3913 33.849 81.9109 33.849 82.1012C33.849 82.3281 33.4538 82.7453 32.6707 83.3381C31.9974 83.8285 31.4778 84.1578 31.1118 84.3188C30.9801 84.3847 30.7386 84.5018 30.3873 84.6628C30.2263 84.7506 30.1458 84.8604 30.1458 85.0068C30.1458 85.1166 30.197 85.2044 30.3068 85.2776C30.4092 85.3434 30.5263 85.38 30.6507 85.38H33.6807C33.8271 85.3142 34.0174 85.0946 34.2369 84.714C34.5077 84.2895 34.698 83.8943 34.7932 83.5284C34.881 83.2137 34.9249 82.7819 34.9249 82.2257C35.02 82.2988 35.1445 82.3428 35.3055 82.3574L35.2762 82.372Z" fill="black"></path><path fill-rule="evenodd" clip-rule="evenodd" d="M28.3308 75.8007C28.4772 76.818 28.8212 78.8233 29.3628 81.8167C29.4579 82.2338 29.5896 82.4388 29.758 82.4388C30.0434 82.4388 30.2849 82.007 30.4825 81.1507C30.6874 80.4407 30.7899 79.116 30.7899 77.1912C30.7899 75.2664 30.6435 74.0881 30.3508 73.6709C30.2556 73.7221 29.5823 74.4321 28.3308 75.8007Z" fill="black"></path><path fill-rule="evenodd" clip-rule="evenodd" d="M20.3461 82.7159C20.3461 83.6235 20.6901 84.2895 21.378 84.714C21.9635 85.1238 22.7393 85.3287 23.72 85.3287C25.0301 85.3287 25.9961 85.0213 26.6182 84.4139C27.233 83.7991 27.5404 82.8696 27.5404 81.6108C27.5404 81.1278 27.416 80.491 27.1598 79.7079C26.911 78.9248 26.6036 78.4564 26.2523 78.3027C26.1718 78.3613 25.7912 79.0492 25.1033 80.3666C25.2789 80.491 25.5351 80.7399 25.8717 81.1058C26.245 81.5376 26.4279 81.8231 26.4279 81.9621C26.4279 82.5257 25.6156 82.8038 23.9981 82.8038C22.3807 82.8038 21.6342 82.4232 21.6342 81.6694C21.6342 81.5449 21.6561 81.3473 21.6927 81.0765C21.7293 80.8057 21.7513 80.6008 21.7513 80.4618C21.7513 80.1836 21.6268 80.0446 21.378 80.0446C21.0414 80.0446 20.7779 80.4178 20.573 81.1644C20.4266 81.7352 20.3461 82.2549 20.3461 82.7306V82.7159Z" fill="black"></path><path fill-rule="evenodd" clip-rule="evenodd" d="M22.5782 77.9807C22.5929 78.0247 22.9003 78.332 23.4931 78.8956H23.559C23.5882 78.8517 23.7419 78.7053 24.0274 78.4491C24.3128 78.193 24.4592 78.0393 24.4592 77.9807C24.4592 77.9295 24.3128 77.7758 24.0274 77.5123C23.7419 77.2489 23.559 77.0952 23.4931 77.0513C23.4345 77.0952 23.2735 77.2416 23.0174 77.4904C22.7612 77.7392 22.6148 77.9076 22.5782 77.9807Z" fill="black"></path></svg> 