<?xml version="1.0" encoding="UTF-8"?> <svg xmlns="http://www.w3.org/2000/svg" width="100" height="100" viewBox="0 0 100 100" fill="none"><g clip-path="url(#clip0_9871_304)"><path d="M71.4669 58.7986C76.0181 58.825 79.6119 55.1662 79.6037 50.7166C79.5956 46.2244 75.9571 42.6041 71.4303 42.6488C67.0702 42.6915 63.3117 46.3077 63.4621 51.0113C63.5983 55.2475 67.0539 58.764 71.4669 58.8006V58.7986ZM73.7252 57.0423C73.7699 56.9549 73.7882 56.9123 73.8126 56.8716C74.1643 56.3045 74.522 55.7394 74.8635 55.1662C74.9407 55.0381 75.0119 54.9771 75.1664 54.9792C75.6481 54.9893 76.1278 54.9832 76.6096 54.9832C76.6157 55.0056 76.6238 55.03 76.6299 55.0523C75.8514 55.9589 74.8981 56.6114 73.7232 57.0403L73.7252 57.0423ZM72.2007 51.365H74.6379C74.5505 51.8508 74.4814 52.3123 74.3838 52.7676C74.3269 53.0379 74.2313 53.2981 74.1399 53.5603C74.1195 53.6173 74.0443 53.6965 73.9935 53.6986C73.402 53.7087 72.8105 53.7047 72.2007 53.7047V51.3671V51.365ZM72.1966 50.056V47.572C72.7861 47.572 73.3695 47.57 73.9508 47.5761C73.9955 47.5761 74.0647 47.6289 74.0809 47.6737C74.3614 48.4176 74.5464 49.184 74.5972 49.9787C74.5972 49.9991 74.585 50.0214 74.5749 50.056H72.1966ZM77.878 52.8631C77.8129 53.0989 77.7052 53.3225 77.6015 53.5461C77.5711 53.6112 77.4918 53.6965 77.4328 53.6986C76.7885 53.7087 76.1441 53.7047 75.4794 53.7047C75.5567 53.3733 75.642 53.0725 75.6969 52.7656C75.7701 52.357 75.8148 51.9444 75.8839 51.5358C75.8961 51.4667 75.9734 51.3549 76.0221 51.3549C76.7356 51.3427 77.4491 51.3467 78.254 51.3467C78.1199 51.8874 78.0101 52.3793 77.8739 52.8631H77.878ZM77.3597 47.572C77.4084 47.572 77.4775 47.6167 77.4999 47.6615C77.88 48.3912 78.1158 49.1636 78.1931 49.9848C78.1931 49.9991 78.1849 50.0133 78.1727 50.0539C78.1016 50.06 78.0203 50.0722 77.939 50.0722C77.317 50.0722 76.6929 50.0763 76.0709 50.0661C76.0079 50.0661 75.9002 49.9889 75.89 49.934C75.7518 49.1575 75.6258 48.379 75.4936 47.57C76.0852 47.57 76.7214 47.57 77.3597 47.5741V47.572ZM76.51 46.2223C76.5019 46.2426 76.4937 46.263 76.4836 46.2833C75.9856 46.2833 75.4875 46.2853 74.9895 46.2792C74.9408 46.2792 74.8757 46.2305 74.8472 46.1857C74.4875 45.5983 74.1338 45.0068 73.7659 44.3909C74.8432 44.771 75.7498 45.3828 76.508 46.2203L76.51 46.2223ZM72.1946 44.6267C72.6865 45.1308 73.0483 45.6694 73.4183 46.267H72.1946V44.6267ZM72.1925 55.093C72.1925 55.0584 72.2678 54.9954 72.3104 54.9934C72.6906 54.9853 73.0727 54.9893 73.5036 54.9893C73.1337 55.6561 72.7231 56.2313 72.1885 56.8045C72.1885 56.1906 72.1865 55.6418 72.1946 55.093H72.1925ZM66.4421 55.0462C66.4502 55.0259 66.4604 55.0076 66.4685 54.9873C66.8974 54.9873 67.3263 54.9832 67.7552 54.9914C67.8101 54.9914 67.8893 55.0361 67.9178 55.0849C68.2674 55.6764 68.6109 56.274 68.9687 56.8919C67.9747 56.4752 67.1352 55.8634 66.4421 55.0483V55.0462ZM70.8977 57.0606C70.2554 56.4264 69.7757 55.7597 69.3325 54.9893C69.8489 54.9893 70.3021 54.9853 70.7554 54.9954C70.8042 54.9954 70.8916 55.0767 70.8937 55.1215C70.9018 55.7414 70.8998 56.3634 70.8998 57.0606H70.8977ZM70.8937 53.5746C70.8937 53.6173 70.8042 53.6965 70.7554 53.6986C70.1253 53.7067 69.4952 53.7067 68.865 53.6986C68.8122 53.6986 68.7288 53.6477 68.7105 53.603C68.4422 52.8875 68.2898 52.1476 68.2308 51.365H70.8998C70.8998 52.1171 70.9018 52.8469 70.8937 53.5766V53.5746ZM70.8815 44.3685V46.2691H69.4321C69.8346 45.5637 70.3001 44.96 70.8815 44.3685ZM69.2268 47.5639C69.7777 47.5578 70.3306 47.5639 70.9018 47.5639C70.9018 48.2001 70.9038 48.8059 70.9018 49.4096C70.9018 49.621 70.9546 49.8995 70.8449 50.0235C70.7493 50.1312 70.4566 50.0682 70.2513 50.0702C69.5907 50.0743 68.9321 50.0702 68.1841 50.0702C68.3081 49.4584 68.4199 48.8973 68.5398 48.3363C68.5662 48.2103 68.615 48.0863 68.6577 47.9643C68.8183 47.5009 68.7248 47.568 69.2309 47.5619L69.2268 47.5639ZM69.0114 44.5047C68.9707 44.588 68.9545 44.6267 68.9341 44.6612C68.6353 45.143 68.3304 45.6227 68.0418 46.1105C67.9645 46.2426 67.8853 46.2955 67.7349 46.2914C67.3547 46.2833 66.9726 46.2894 66.5925 46.2894C66.5864 46.267 66.5803 46.2447 66.5742 46.2223C67.2409 45.4784 68.0377 44.9153 69.0114 44.5047ZM64.9988 49.2856C65.1635 48.7612 65.3566 48.2428 65.5517 47.7285C65.5782 47.6574 65.69 47.572 65.7631 47.57C66.2998 47.5558 66.8364 47.5619 67.369 47.5619C67.2084 48.3973 67.0519 49.2185 66.8913 50.058H64.8688C64.9114 49.7897 64.9236 49.5275 64.9988 49.2856ZM65.5172 53.6112C65.1574 52.9139 64.9663 52.1679 64.8708 51.3447C65.4135 51.3447 65.9136 51.3447 66.4116 51.3447C66.9238 51.3447 66.9096 51.3467 66.9929 51.8508C67.0885 52.418 67.2145 52.981 67.3263 53.5441C67.3344 53.5868 67.3385 53.6315 67.3486 53.7047C66.7673 53.7047 66.1981 53.7047 65.631 53.7006C65.5904 53.7006 65.5355 53.6518 65.5152 53.6112H65.5172Z" fill="#171717"></path><path d="M51.5931 52.0569C52.3025 57.2585 56.5793 60.4661 60.5004 60.7792C57.9392 57.907 56.6179 54.5469 56.6118 50.7173C56.6078 46.8816 57.9473 43.5297 60.5126 40.6372C54.8434 41.2551 50.8329 46.4771 51.5931 52.0589V52.0569Z" fill="#171717"></path><path d="M75.8491 31.6795C71.7655 29.8786 67.9887 30.4965 64.6022 33.4114C62.972 34.816 61.1568 38.4809 61.5146 39.6375C64.3786 37.0845 67.7488 35.7734 71.554 35.7856C75.3552 35.7957 78.7213 37.119 81.5895 39.7026C81.311 36.6982 79.3941 33.2447 75.8471 31.6795H75.8491Z" fill="#171717"></path><path d="M91.5231 50.3594C91.3625 44.7797 86.787 40.9704 82.561 40.6655C85.0714 43.5418 86.4333 46.8713 86.4333 50.707C86.4333 54.5488 85.0795 57.8906 82.5468 60.7811C86.852 60.4314 91.702 56.4961 91.5231 50.3594Z" fill="#171717"></path><path d="M61.4555 61.733C61.9271 66.6704 66.3807 71.0448 72.0662 70.7195C77.7638 70.3943 81.2397 65.8146 81.5833 61.731C78.709 64.3023 75.353 65.6358 71.5275 65.6378C67.702 65.6398 64.346 64.3104 61.4535 61.733H61.4555Z" fill="#171717"></path><path d="M75.1782 38.0436C76.5869 38.0192 77.6154 38.6981 78.4061 39.7938C79.0281 40.6556 78.9976 41.5561 78.4874 42.4566C78.1927 42.977 77.8796 43.4892 77.5707 44.0014C77.3349 44.3937 77.0361 44.4588 76.6682 44.1803C75.853 43.5603 74.9709 43.0664 73.983 42.7859C73.4972 42.6477 72.9971 42.5562 72.4991 42.4627C72.0702 42.3814 71.8934 42.109 72.0052 41.6821C72.1718 41.052 72.304 40.4097 72.495 39.7877C72.7796 38.8648 73.4158 38.3038 74.3732 38.129C74.6375 38.0802 74.9078 38.0721 75.1741 38.0436H75.1782Z" fill="#171717"></path><path d="M58.8374 47.0625C58.8231 45.664 59.5163 44.6599 60.5773 43.861C61.4392 43.2126 62.3458 43.2431 63.2544 43.7594C63.7951 44.0663 64.3277 44.3895 64.8562 44.7168C65.1916 44.9262 65.2464 45.2453 65.0066 45.5604C64.3927 46.3674 63.8906 47.2374 63.6081 48.213C63.4617 48.7212 63.3642 49.2436 63.2686 49.764C63.1975 50.1502 62.9475 50.3474 62.5653 50.2559C61.8945 50.0933 61.2156 49.951 60.557 49.7457C59.7561 49.4977 59.2175 48.9489 58.9979 48.1297C58.9065 47.7841 58.8882 47.4183 58.8353 47.0625H58.8374Z" fill="#171717"></path><path d="M75.1377 63.3918C74.3328 63.3958 73.597 63.219 73.0278 62.597C72.7818 62.3266 72.5867 62.0258 72.4952 61.668C72.3225 60.9912 72.1456 60.3143 71.9789 59.6353C71.9058 59.3386 72.0989 59.0743 72.4322 59.0032C72.9282 58.8975 73.4323 58.8284 73.9181 58.6861C74.9223 58.3934 75.8411 57.9218 76.6663 57.2713C77.018 56.9928 77.3452 57.062 77.5688 57.4421C77.888 57.9848 78.2234 58.5194 78.5262 59.0703C79.0141 59.9565 78.9917 60.8285 78.3961 61.6701C77.9327 62.3246 77.3452 62.8307 76.6053 63.1438C76.1399 63.3409 75.6418 63.4019 75.1377 63.3918Z" fill="#171717"></path><path d="M58.8701 54.3477C58.8823 53.7257 58.9493 53.118 59.3356 52.5956C59.6608 52.1545 60.0734 51.8353 60.606 51.6931C61.2727 51.5121 61.9435 51.3414 62.6143 51.1727C62.9009 51.0995 63.2221 51.3231 63.2587 51.6178C63.4538 53.2013 64.025 54.6283 65.0129 55.8865C65.2548 56.1955 65.1958 56.5288 64.8624 56.7321C64.2445 57.1081 63.6388 57.5106 62.9924 57.8237C62.096 58.2566 61.23 58.1265 60.4495 57.4944C59.862 57.0187 59.3477 56.4719 59.0998 55.7483C58.9473 55.3051 58.9067 54.8214 58.8152 54.3579C58.8335 54.3538 58.8538 54.3518 58.8721 54.3477H58.8701Z" fill="#171717"></path><path d="M67.9014 38.06C68.4848 38.0641 69.0539 38.123 69.5601 38.4584C70.1089 38.8223 70.4666 39.3182 70.6171 39.9646C70.7512 40.548 70.9118 41.1273 71.05 41.7107C71.1537 42.1478 70.9829 42.4018 70.5439 42.4608C68.999 42.662 67.6148 43.2434 66.3789 44.1906C66.0455 44.4467 65.7162 44.3837 65.5028 44.028C65.1837 43.4934 64.8727 42.9547 64.5535 42.4201C64.0352 41.5522 64.0433 40.4545 64.8259 39.554C65.2955 39.0154 65.8138 38.5235 66.5029 38.2938C66.948 38.1454 67.4278 38.0946 67.8912 37.999C67.8953 38.0194 67.8993 38.0397 67.9014 38.06Z" fill="#171717"></path><path d="M84.1791 54.3435C84.2299 55.8985 83.4412 56.9901 82.189 57.7747C81.5203 58.1935 80.7662 58.1792 80.0669 57.8194C79.4185 57.4861 78.8005 57.0938 78.1745 56.7177C77.8757 56.5368 77.8167 56.1811 78.0342 55.9026C78.6359 55.1322 79.1237 54.2968 79.4043 53.3597C79.5628 52.8312 79.6705 52.2864 79.7783 51.7458C79.8758 51.2498 80.1055 51.0933 80.5893 51.2193C81.1178 51.3575 81.6423 51.5059 82.1769 51.6116C83.2704 51.8311 84.1323 52.7092 84.177 54.0468C84.1811 54.1464 84.177 54.246 84.177 54.3476L84.1791 54.3435Z" fill="#171717"></path><path d="M84.1893 47.178C84.1751 47.9484 84.0043 48.6558 83.4169 49.2087C83.1242 49.4831 82.7908 49.6782 82.4026 49.7778C81.7765 49.9364 81.1504 50.0949 80.5223 50.2474C80.1158 50.347 79.8841 50.1782 79.7906 49.7676C79.6422 49.1091 79.5121 48.4444 79.3047 47.8041C79.0486 47.0093 78.6075 46.3019 78.1034 45.6352C77.7884 45.2205 77.8371 44.94 78.2823 44.6696C78.8393 44.3302 79.3901 43.9724 79.9694 43.6736C80.8537 43.2163 81.7257 43.2773 82.5266 43.8871C83.173 44.379 83.7198 44.9685 83.9759 45.7531C84.1243 46.2064 84.1629 46.6962 84.2503 47.1699C84.23 47.1739 84.2096 47.176 84.1893 47.18V47.178Z" fill="#171717"></path><path d="M67.8953 63.4083C66.5272 63.4144 65.5068 62.7883 64.7019 61.7211C64.023 60.8186 64.0535 59.9039 64.586 58.9648C64.8828 58.4424 65.1938 57.9322 65.5048 57.4179C65.7203 57.0622 66.0475 56.9992 66.3809 57.2635C67.2123 57.922 68.1392 58.3957 69.1515 58.6884C69.6434 58.8307 70.1556 58.9059 70.6597 59.0136C70.9362 59.0725 71.1374 59.3205 71.0744 59.5868C70.8996 60.3348 70.7471 61.093 70.4991 61.8167C70.1983 62.6989 69.5133 63.1827 68.6026 63.3392C68.3689 63.3798 68.129 63.388 67.8932 63.4103L67.8953 63.4083Z" fill="#171717"></path><path d="M34.645 46.4147C34.9946 46.3862 35.3097 46.37 35.6207 46.3354C36.2102 46.2683 36.7936 46.1789 37.3363 45.9126C38.3282 45.4268 38.997 44.6463 39.4808 43.6726C39.7552 43.1177 40.0703 42.5831 40.3874 42.0017C40.4626 42.1156 40.5114 42.1887 40.5581 42.2639C41.3997 43.573 42.8246 44.1015 44.3105 43.6462C45.3817 43.3189 46.1074 42.5709 46.6643 41.646C47.3168 40.5605 47.6644 39.3735 47.7721 38.1132C47.8331 37.4058 47.7132 36.7391 47.2538 36.1821C47.1014 35.9971 46.8717 35.8386 46.646 35.7573C46.2456 35.615 46.0281 35.7268 45.8411 36.1028C45.7049 36.3773 45.589 36.6618 45.4711 36.9464C45.2882 37.3936 45.1093 37.8428 44.9304 38.2921C44.8593 38.4689 44.7333 38.5461 44.5483 38.4994C44.2962 38.4364 44.0259 38.4039 43.8003 38.288C42.7453 37.7392 42.2961 36.8041 42.1863 35.6638C42.1131 34.8893 42.2107 34.125 42.353 33.3689C42.7107 31.45 43.0888 29.5352 43.4588 27.6184C43.4832 27.4903 43.5137 27.3582 43.5035 27.2301C43.4974 27.1509 43.4425 27.0452 43.3775 27.0106C43.3266 26.9822 43.2087 27.0248 43.1539 27.0736C43.0583 27.159 42.9709 27.2627 42.9099 27.3745C42.2656 28.5392 41.6253 29.7039 40.9911 30.8727C40.8163 31.1959 40.5886 31.5171 40.5175 31.8667C40.2654 33.1006 40.0255 34.3405 39.8629 35.5906C39.6759 37.0318 39.5702 38.4831 39.4401 39.9304C39.3792 40.6134 39.0377 41.1033 38.44 41.4021C37.8119 41.7151 37.1351 41.77 36.4582 41.6277C35.7589 41.4814 35.2203 41.1073 35.0536 40.3634C34.9926 40.0951 34.9499 39.8145 34.9621 39.5401C35.0068 38.4323 35.0353 37.3225 35.1471 36.2207C35.2975 34.7226 35.5191 33.2307 35.702 31.7346C35.7244 31.5455 35.7772 31.2915 35.5353 31.2163C35.3016 31.1451 35.1898 31.3626 35.0963 31.5415C34.4356 32.7916 33.7913 34.0519 33.1124 35.2918C32.7465 35.9585 32.4985 36.6517 32.4599 37.4099C32.3887 38.7779 32.3094 40.1459 32.2851 41.5159C32.2281 44.6889 32.1936 47.8599 32.1672 51.033C32.1529 52.8827 32.1001 54.7244 31.72 56.5456C31.2768 58.6698 30.4861 60.6354 29.0917 62.3226C27.6912 64.0158 25.9573 65.2598 23.8799 65.9651C21.713 66.701 19.4771 66.8656 17.2065 66.5567C15.1494 66.2761 13.4013 65.3797 11.9317 63.9345C11.082 63.099 10.6409 62.0929 10.7771 60.8753C10.895 59.8244 11.1044 58.7897 11.4479 57.7937C11.8016 56.7713 12.2285 55.7732 12.6269 54.765C12.9013 54.0658 13.1818 53.3685 13.4582 52.6713L13.4034 52.6347C13.0131 53.1206 12.5944 53.584 12.2407 54.0942C11.082 55.7671 10.0027 57.4847 9.56564 59.5174C9.39489 60.3122 9.18959 61.105 9.07983 61.9079C8.90908 63.1458 9.0717 64.3817 9.21398 65.6135C9.43961 67.5486 10.399 69.1016 11.7894 70.4086C12.9135 71.4636 14.3181 71.9087 15.8121 72.0714C17.3509 72.238 18.8855 72.1649 20.404 71.8478C22.8025 71.3477 24.8881 70.2379 26.7114 68.6097C28.3132 67.1787 29.5348 65.4488 30.6487 63.6336C31.8094 61.7392 32.657 59.7126 33.2242 57.564C33.6917 55.7935 34.0759 54.0048 34.2751 52.1835C34.4255 50.8074 34.4804 49.4211 34.5718 48.0409C34.6084 47.4981 34.6247 46.9554 34.6511 46.4188L34.645 46.4147Z" fill="#171717"></path><path d="M40.1003 53.6587C40.1429 53.5408 40.0738 53.4636 39.9356 53.5022C39.8624 53.5225 39.7913 53.553 39.7222 53.5876C39.2262 53.8457 38.7993 54.1913 38.4314 54.6161C37.9659 55.1548 37.5675 55.7341 37.3683 56.4313C37.1813 57.0818 37.3236 57.3643 37.9354 57.5534C38.2688 57.657 38.3135 57.7526 38.1692 58.0697C38.1346 58.1469 38.094 58.2221 38.0472 58.2912C37.5167 59.0576 36.789 59.4255 35.854 59.332C35.2746 59.273 34.7502 58.9092 34.8396 58.1632C34.8701 57.9132 34.9128 57.657 35.0002 57.4233C35.2279 56.8135 35.4881 56.2138 35.7279 55.6081C35.7788 55.48 35.7991 55.3418 35.8336 55.2077C35.8052 55.1975 35.7747 55.1873 35.7462 55.1792C35.6974 55.2646 35.6405 55.3438 35.5978 55.4333C35.3539 55.9537 35.1039 56.474 34.8742 57.0005C34.5795 57.6814 34.3457 58.3827 34.3925 59.1389C34.4433 59.9682 34.7827 60.4927 35.6304 60.6065C36.1345 60.6736 36.6162 60.5557 37.0289 60.2548C38.2078 59.393 38.5839 58.153 38.6205 56.7667C38.6245 56.5716 38.5209 56.4151 38.3277 56.3338C38.2363 56.2951 38.1448 56.2545 38.0574 56.2098C37.8541 56.1061 37.8053 55.9699 37.9253 55.7809C38.2302 55.3073 38.6164 54.9149 39.1429 54.6913C39.2486 54.6466 39.3868 54.6893 39.5087 54.6771C39.5738 54.671 39.6775 54.6548 39.6957 54.6141C39.8401 54.3011 39.9763 53.986 40.0942 53.6628L40.1003 53.6587Z" fill="#171717"></path><path d="M48.0602 54.99C47.9891 55.0896 47.9261 55.1994 47.8407 55.2847C47.6801 55.4433 47.3691 55.4514 47.2268 55.3172C47.0906 55.1872 47.111 54.9493 47.2797 54.7542C47.4382 54.5712 47.6151 54.5082 47.8549 54.6139C47.9322 54.6485 48.048 54.5956 48.1456 54.5834C48.1233 54.4635 48.1314 54.3212 48.0684 54.2277C48.0216 54.1586 47.8814 54.1261 47.7818 54.122C47.5216 54.1119 47.3468 54.2785 47.2309 54.4818C47.0622 54.7745 46.9321 55.0876 46.7695 55.3843C46.7227 55.4717 46.5967 55.6018 46.552 55.5856C46.4402 55.5449 46.3284 55.4494 46.2633 55.3457C46.2024 55.2502 46.2024 55.116 46.1759 55.0001C46.1515 54.9941 46.1272 54.99 46.1007 54.9839C46.0458 55.0794 45.9788 55.1709 45.9381 55.2725C45.8101 55.5795 45.7836 55.8945 45.8527 56.2218C45.8954 56.419 45.8019 56.5267 45.5987 56.5267C45.5316 56.5267 45.4604 56.5104 45.3954 56.4901C44.9909 56.3641 44.8852 56.3966 44.6148 56.7198C44.5112 56.8438 44.4116 56.9739 44.2896 57.0755C43.9379 57.3642 43.4033 57.293 43.196 56.8906C43.0761 56.6568 43.007 56.358 43.0293 56.0978C43.1005 55.2176 43.2224 54.3416 43.32 53.4634C43.3383 53.3069 43.3383 53.1463 43.3464 52.9878C43.32 52.9837 43.2915 52.9797 43.2651 52.9756C43.133 53.3659 42.9501 53.748 42.883 54.1505C42.7346 55.0347 42.6269 55.9291 42.5374 56.8235C42.509 57.1141 42.5516 57.4231 42.6167 57.7097C42.698 58.0715 42.9318 58.3338 43.318 58.3866C43.6635 58.4354 43.8953 58.2281 44.0843 57.9658C44.125 57.9089 44.1554 57.848 44.1961 57.791C44.2937 57.6528 44.3729 57.4882 44.501 57.3886C44.6433 57.2768 44.8425 57.1426 44.999 57.165C45.3181 57.2097 45.5295 57.0694 45.747 56.8946C45.8426 56.8174 45.9279 56.7259 46.0276 56.6568C46.0784 56.6202 46.1576 56.5897 46.2125 56.6039C46.7105 56.7279 47.0988 56.5125 47.4504 56.2035C47.8814 55.8275 48.0928 55.3091 48.3245 54.807C48.3387 54.7766 48.3225 54.7298 48.3204 54.6912C48.2025 54.7806 48.1314 54.8843 48.0582 54.988L48.0602 54.99Z" fill="#171717"></path><path d="M45.3304 46.8672C45.1902 46.9648 45.054 47.1213 44.8873 47.164C44.6495 47.2249 44.4767 47.3469 44.2998 47.5014C44.1555 47.6274 43.9807 47.7453 43.7998 47.7982C43.5051 47.8876 43.312 47.7148 43.2998 47.4059C43.2998 47.3672 43.2835 47.3286 43.2672 47.2636C42.9908 47.5095 42.8668 47.8063 42.8099 48.1254C42.7509 48.4568 42.5802 48.599 42.2448 48.5523C42.0293 48.9344 41.9988 48.9487 41.7 48.8145C41.6817 48.8369 41.6594 48.8572 41.6411 48.8816C41.4988 49.0849 41.3443 49.2332 41.0658 49.0971C41.0008 49.0645 40.8849 49.1011 40.8077 49.1397C40.6776 49.2048 40.5577 49.2902 40.4398 49.3755C40.1938 49.5544 39.9458 49.5768 39.6572 49.469C39.4864 49.404 39.2771 49.3776 39.1002 49.4101C38.4416 49.532 38.0453 49.9996 37.7241 50.5423C37.6997 50.583 37.7017 50.6399 37.6875 50.711C37.7464 50.6988 37.7851 50.7008 37.8156 50.6846C38.2201 50.4793 38.6164 50.4346 39.0535 50.6236C39.3624 50.7557 39.6897 50.713 39.956 50.461C40.1125 50.3126 40.2731 50.1703 40.4194 50.0138C40.5617 49.8613 40.7203 49.8004 40.9296 49.8024C41.0658 49.8024 41.2081 49.7495 41.3362 49.6947C41.5029 49.6235 41.6634 49.532 41.82 49.4385C42.1147 49.2637 42.4135 49.093 42.692 48.8958C42.9014 48.7474 43.0538 48.5523 43.3689 48.5767C43.7104 48.6031 43.9136 48.3328 44.0803 48.0644C44.2063 47.8632 44.3649 47.727 44.619 47.7291C44.9971 47.7331 45.4036 47.2107 45.3284 46.8733L45.3304 46.8672Z" fill="#171717"></path><path d="M48.6822 46.002C48.4098 46.3171 48.1333 46.624 47.8711 46.9432C47.6109 47.2623 47.5296 47.7075 47.1759 47.9778C47.1292 47.9067 47.1027 47.8619 47.0723 47.8193C46.8304 47.4696 46.5316 47.4554 46.31 47.8152C46.1291 48.1059 45.9807 48.423 45.8567 48.7421C45.7408 49.0368 45.9461 49.2909 46.2693 49.2909C46.3811 49.2909 46.4909 49.2584 46.6352 49.236C46.5255 49.5979 46.3405 49.8641 46.062 50.0613C45.749 50.2829 45.4278 50.4963 45.1148 50.7179C45.0416 50.7707 44.9826 50.8459 44.9176 50.911C44.9298 50.9293 44.942 50.9476 44.9522 50.9659C45.1615 50.8988 45.3668 50.8073 45.5823 50.7728C46.3344 50.6528 46.7104 50.1508 46.93 49.482C46.9483 49.4231 46.9706 49.3661 46.9869 49.3072C47.1109 48.8071 47.3853 48.3803 47.6536 47.9514C47.8284 47.6749 48.0784 47.5753 48.4077 47.6404C48.5216 47.6627 48.6761 47.6323 48.7736 47.5672C49.3285 47.1973 49.2655 46.311 48.6801 46L48.6822 46.002Z" fill="#171717"></path><path d="M49.7069 53.7095C49.3877 54.2908 49.1621 54.8986 49.1479 55.5735C49.1337 56.2016 49.1154 56.8317 49.0828 57.4598C49.0727 57.6549 49.0178 57.846 48.9812 58.0391C49.0036 58.0513 49.028 58.0635 49.0503 58.0777C49.1337 57.9598 49.2333 57.848 49.2963 57.72C49.53 57.2545 49.6479 56.7565 49.6683 56.2361C49.7008 55.484 49.7292 54.7319 49.7597 53.9798C49.7638 53.8924 49.7679 53.805 49.7719 53.7176C49.7496 53.7156 49.7272 53.7115 49.7048 53.7095H49.7069Z" fill="#171717"></path><path d="M44.9583 53.3971C45.1271 53.5536 45.2389 53.5049 45.3466 53.3402C45.436 53.204 45.5214 53.0678 45.619 52.9133C45.7531 53.0333 45.8548 53.139 45.9706 53.2243C46.0235 53.263 46.1332 53.3036 46.1637 53.2792C46.3812 53.1003 46.5459 52.8788 46.5784 52.5881C46.6069 52.3279 46.4199 52.1856 46.2471 52.0433C46.1393 51.9559 46.0357 51.9661 45.9584 52.0942C45.8649 52.2507 45.7674 52.4072 45.6556 52.5901C45.5397 52.4682 45.4564 52.3686 45.3588 52.2812C45.1718 52.1125 45.0945 52.1267 44.9685 52.3381C44.9096 52.4377 44.8526 52.5373 44.8018 52.641C44.5274 53.1898 44.5538 53.019 44.9583 53.391V53.3971Z" fill="#171717"></path><path d="M41.883 55.4625C41.7529 55.7573 41.635 56.0581 41.5008 56.3508C41.2772 56.8448 41.015 57.3103 40.5231 57.5989C40.265 57.7513 40.021 57.9262 39.7791 58.103C39.6958 58.164 39.6369 58.2575 39.5677 58.3368C39.584 58.3652 39.6003 58.3937 39.6165 58.4221C39.954 58.3408 40.2934 58.2656 40.6308 58.1782C41.013 58.0786 41.2874 57.8428 41.4256 57.4729C41.6411 56.8996 41.8484 56.3224 42.0436 55.743C42.0924 55.5987 42.0883 55.4341 42.1106 55.2796C42.0802 55.2694 42.0517 55.2572 42.0212 55.2471C41.9745 55.3182 41.9175 55.3853 41.883 55.4625Z" fill="#171717"></path><path d="M43.4379 59.8584C43.3017 59.7629 43.1777 59.7568 43.0944 59.9194C42.9684 60.1633 42.8403 60.4073 42.7387 60.6614C42.7123 60.7244 42.761 60.8606 42.82 60.9073C42.9826 61.0415 43.1696 61.1472 43.379 61.2854C43.4827 61.1289 43.5904 60.9927 43.6737 60.8423C43.9258 60.3869 43.8648 60.1552 43.4379 59.8564V59.8584Z" fill="#171717"></path></g><defs><clipPath id="clip0_9871_304"><rect width="82.5273" height="45.1522" fill="white" transform="translate(9 27)"></rect></clipPath></defs></svg> 