<?xml version="1.0" encoding="UTF-8"?> <svg xmlns="http://www.w3.org/2000/svg" width="100" height="100" viewBox="0 0 100 100" fill="none"><g clip-path="url(#clip0_9871_3381)"><path d="M31.8282 78.098H31.5125V76.2175H31.1007V75.9293H32.2263V76.2175H31.8145V78.098H31.8282ZM68.6694 78.098V75.9293H68.9577V77.2195L69.5479 76.4509H69.8911L69.2871 77.2333L70.0009 78.098H69.6165L68.9577 77.2607V78.098H68.6694ZM66.9125 78.098H66.6242V76.4509H66.8987V76.643C66.9536 76.5744 67.0085 76.5195 67.0635 76.4783C67.1321 76.4371 67.2007 76.4234 67.2831 76.4234V76.7391C67.1458 76.7528 67.0497 76.794 66.9948 76.8626C66.9399 76.9313 66.9125 77.0411 66.9125 77.1921V78.098ZM63.6868 77.2607C63.6868 77.4254 63.7417 77.5627 63.8515 77.6725C63.9613 77.7823 64.0986 77.8372 64.2496 77.8372C64.4006 77.8372 64.5241 77.7823 64.6339 77.6725C64.7437 77.5627 64.7986 77.4254 64.7986 77.2744C64.7986 77.1097 64.7437 76.9725 64.6339 76.8626C64.5241 76.7528 64.4006 76.6842 64.2496 76.6842C64.0986 76.6842 63.9613 76.7391 63.8515 76.8489C63.7417 76.9724 63.6868 77.1097 63.6868 77.2607ZM64.7986 78.098V77.8921C64.7163 77.9745 64.6339 78.0294 64.5516 78.0705C64.4555 78.1117 64.3594 78.1255 64.2496 78.1255C64.0025 78.1255 63.7966 78.0431 63.6319 77.8784C63.4672 77.7137 63.3848 77.5078 63.3848 77.2607C63.3848 77.1509 63.3985 77.0411 63.4397 76.9313C63.4809 76.8215 63.5358 76.7391 63.6182 76.6567C63.7005 76.5744 63.7966 76.5058 63.8927 76.4646C63.9888 76.4234 64.0986 76.4097 64.2221 76.4097C64.3319 76.4097 64.4417 76.4234 64.5378 76.4646C64.6339 76.5058 64.7163 76.5607 64.7986 76.643V76.4509H65.1006V78.098H64.7986ZM61.1612 76.9313H61.3945C61.5592 76.9313 61.669 76.9038 61.7514 76.8489C61.82 76.794 61.8612 76.6979 61.8612 76.5744C61.8612 76.4508 61.82 76.3548 61.7514 76.2999C61.6828 76.245 61.5592 76.2038 61.4082 76.2038H61.1749V76.9313H61.1612ZM61.1612 78.098H60.8455V75.9293H61.3533C61.4906 75.9293 61.6004 75.9293 61.6828 75.943C61.7514 75.9567 61.82 75.9842 61.8749 76.0116C61.971 76.0665 62.0397 76.1351 62.0946 76.2312C62.1495 76.3273 62.1769 76.4371 62.1769 76.5469C62.1769 76.7528 62.1083 76.9038 61.971 77.0274C61.8338 77.1509 61.6553 77.2058 61.422 77.2058H61.1749V78.098H61.1612ZM56.1785 76.4509H56.4942L56.9335 77.6725L57.4139 76.4509H57.7296L56.8511 78.6196H56.5354L56.7688 78.0431L56.1785 76.4509ZM53.2274 78.2215H53.5431C53.5843 78.3039 53.6529 78.3588 53.7215 78.4C53.7902 78.4412 53.8863 78.4549 53.9823 78.4549C54.1471 78.4549 54.2843 78.4 54.3804 78.3039C54.4765 78.2078 54.5314 78.0705 54.5314 77.9058V77.8784C54.4628 77.9607 54.3667 78.0156 54.2843 78.0568C54.1882 78.098 54.0922 78.1117 53.9823 78.1117C53.7353 78.1117 53.5294 78.0294 53.3647 77.8647C53.2 77.6999 53.1176 77.494 53.1176 77.247C53.1176 77.1372 53.1313 77.0274 53.1725 76.9175C53.2137 76.8077 53.2686 76.7254 53.3509 76.643C53.4333 76.5607 53.5294 76.492 53.6255 76.4509C53.7215 76.4097 53.8314 76.3959 53.9549 76.3959C54.0647 76.3959 54.1745 76.4097 54.2706 76.4509C54.3667 76.492 54.449 76.5469 54.5314 76.6293V76.4371H54.8334V77.8097C54.8334 78.098 54.7647 78.3176 54.6138 78.4823C54.4628 78.6471 54.2569 78.7294 53.9961 78.7294C53.8039 78.7294 53.6529 78.6882 53.5157 78.5921C53.3784 78.5098 53.2823 78.3862 53.2274 78.2215ZM53.4196 77.2607C53.4196 77.4254 53.4745 77.5627 53.5843 77.6725C53.6941 77.7823 53.8314 77.8372 53.9823 77.8372C54.1333 77.8372 54.2569 77.7823 54.3667 77.6725C54.4765 77.5627 54.5314 77.4254 54.5314 77.2744C54.5314 77.1097 54.4765 76.9725 54.3667 76.8626C54.2569 76.7528 54.1196 76.6842 53.9686 76.6842C53.8176 76.6842 53.6804 76.7391 53.5706 76.8489C53.4745 76.9724 53.4196 77.1097 53.4196 77.2607ZM50.3861 77.2744C50.3861 77.4391 50.441 77.5764 50.5371 77.6862C50.6469 77.796 50.7704 77.8509 50.9214 77.8509C51.0724 77.8509 51.1959 77.796 51.3057 77.6862C51.4155 77.5764 51.4567 77.4391 51.4567 77.2744C51.4567 77.1097 51.4018 76.9725 51.3057 76.8626C51.1959 76.7528 51.0724 76.6979 50.9214 76.6979C50.7704 76.6979 50.6331 76.7528 50.5371 76.8626C50.441 76.9725 50.3861 77.1097 50.3861 77.2744ZM50.0841 77.2744C50.0841 77.1646 50.0978 77.0548 50.139 76.945C50.1802 76.8489 50.2351 76.7528 50.3174 76.6705C50.3998 76.5744 50.4959 76.5058 50.592 76.4646C50.7018 76.4234 50.7979 76.3959 50.9077 76.3959C51.0312 76.3959 51.141 76.4234 51.2371 76.4646C51.3469 76.5058 51.4293 76.5744 51.5116 76.6567C51.594 76.7391 51.6489 76.8352 51.7038 76.9313C51.745 77.0411 51.7724 77.1372 51.7724 77.247C51.7724 77.3568 51.7587 77.4666 51.7175 77.5764C51.6763 77.6862 51.6214 77.7823 51.5528 77.8509C51.4704 77.947 51.3744 78.0156 51.2646 78.0568C51.1547 78.098 51.0449 78.1255 50.9351 78.1255C50.8116 78.1255 50.7018 78.098 50.6057 78.0568C50.5096 78.0156 50.4135 77.947 50.3312 77.8647C50.2488 77.7823 50.1939 77.6862 50.1527 77.5901C50.0978 77.494 50.0841 77.3842 50.0841 77.2744ZM48.3546 75.9155H48.6428V78.0843H48.3546V75.9155ZM45.5407 77.2744C45.5407 77.4391 45.5956 77.5764 45.6917 77.6862C45.8015 77.796 45.925 77.8509 46.076 77.8509C46.227 77.8509 46.3506 77.796 46.4604 77.6862C46.5565 77.5764 46.6114 77.4391 46.6114 77.2744C46.6114 77.1097 46.5565 76.9725 46.4604 76.8626C46.3506 76.7528 46.227 76.6979 46.076 76.6979C45.925 76.6979 45.8015 76.7528 45.6917 76.8626C45.5956 76.9725 45.5407 77.1097 45.5407 77.2744ZM45.2387 77.2744C45.2387 77.1646 45.2525 77.0548 45.2936 76.945C45.3348 76.8489 45.3897 76.7528 45.4721 76.6705C45.5544 76.5744 45.6505 76.5058 45.7466 76.4646C45.8564 76.4234 45.9525 76.3959 46.0623 76.3959C46.1858 76.3959 46.2957 76.4234 46.3917 76.4646C46.5015 76.5058 46.5839 76.5744 46.6663 76.6567C46.7486 76.7391 46.8035 76.8352 46.8584 76.9313C46.8996 77.0411 46.9271 77.1372 46.9271 77.247C46.9271 77.3568 46.9133 77.4666 46.8722 77.5764C46.831 77.6862 46.7761 77.7823 46.7074 77.8509C46.6251 77.947 46.529 78.0156 46.4329 78.0568C46.3231 78.098 46.2133 78.1255 46.1035 78.1255C45.98 78.1255 45.8701 78.098 45.7741 78.0568C45.6642 78.0156 45.5819 77.947 45.4995 77.8647C45.4172 77.7823 45.3623 77.6862 45.3211 77.5901C45.2525 77.494 45.2387 77.3842 45.2387 77.2744ZM42.6994 78.098H42.3974V76.4509H42.6857V76.643C42.7406 76.5744 42.8092 76.5195 42.8915 76.4783C42.9602 76.4509 43.0563 76.4234 43.1523 76.4234C43.372 76.4234 43.5367 76.492 43.6465 76.6156C43.7563 76.7391 43.8249 76.9175 43.8249 77.1646V78.098H43.523V77.2195C43.523 77.0411 43.4955 76.9175 43.4269 76.8352C43.3582 76.7528 43.2622 76.7116 43.1249 76.7116C42.9739 76.7116 42.8778 76.7666 42.8092 76.8626C42.7406 76.9587 42.7131 77.1234 42.7131 77.3568V78.098H42.6994ZM39.8031 78.098H39.5012V75.9293H39.8031V76.643C39.8443 76.5744 39.913 76.5195 39.9953 76.4783C40.0639 76.4371 40.16 76.4234 40.2561 76.4234C40.462 76.4234 40.613 76.492 40.7228 76.6156C40.8326 76.7391 40.8875 76.9175 40.8875 77.1509V78.098H40.5855V77.247C40.5855 77.0685 40.5581 76.9313 40.4895 76.8352C40.4345 76.7528 40.3385 76.6979 40.2012 76.6979C40.1188 76.6979 40.0502 76.7117 39.9953 76.7528C39.9404 76.794 39.8855 76.8352 39.858 76.9038C39.8306 76.945 39.8169 76.9999 39.8169 77.0548C39.8031 77.1097 39.8031 77.2058 39.8031 77.3431V78.098ZM38.0325 77.5352C37.9638 77.7411 37.8677 77.8784 37.7305 77.9882C37.5932 78.0843 37.4285 78.1392 37.2363 78.1392C37.1128 78.1392 37.003 78.1117 36.9069 78.0705C36.8108 78.0294 36.7147 77.9607 36.6324 77.8784C36.55 77.796 36.4951 77.6999 36.4539 77.6039C36.4128 77.494 36.3853 77.3842 36.3853 77.2744C36.3853 77.1646 36.399 77.0548 36.4402 76.9587C36.4814 76.8626 36.5363 76.7666 36.6187 76.6842C36.701 76.5881 36.7971 76.5195 36.9069 76.4783C37.0167 76.4371 37.1265 76.4097 37.2501 76.4097C37.4422 76.4097 37.6069 76.4646 37.7442 76.5607C37.8815 76.6705 37.9776 76.8077 38.0462 76.9999H37.7168C37.6618 76.9038 37.5932 76.8215 37.5109 76.7803C37.4285 76.7254 37.3324 76.7116 37.2226 76.7116C37.0716 76.7116 36.9481 76.7666 36.852 76.8764C36.7559 76.9862 36.701 77.1234 36.701 77.2882C36.701 77.4529 36.7559 77.5901 36.852 77.6999C36.9618 77.8097 37.0853 77.8647 37.2363 77.8647C37.3461 77.8647 37.4285 77.8372 37.5109 77.7823C37.5932 77.7274 37.6618 77.645 37.703 77.549H38.0325V77.5352ZM34.7244 77.1234C34.6833 76.9862 34.6284 76.8764 34.5323 76.8077C34.4362 76.7391 34.3401 76.6979 34.2028 76.6979C34.0793 76.6979 33.9558 76.7391 33.8597 76.8077C33.7636 76.8901 33.695 76.9862 33.6675 77.1234H34.7244ZM33.6675 77.3842C33.695 77.5215 33.7499 77.6313 33.8597 77.7137C33.9558 77.796 34.0793 77.8372 34.2166 77.8372C34.3126 77.8372 34.395 77.8097 34.4774 77.7686C34.5597 77.7274 34.6284 77.6588 34.6695 77.5764H34.999C34.9166 77.7548 34.8205 77.8921 34.6833 77.9882C34.546 78.0843 34.3813 78.1392 34.2166 78.1392C34.093 78.1392 33.9832 78.1117 33.8871 78.0705C33.7911 78.0294 33.695 77.9607 33.6126 77.8784C33.5303 77.796 33.4753 77.6999 33.4342 77.5901C33.393 77.4803 33.3655 77.3705 33.3655 77.2607C33.3655 77.1509 33.3793 77.0411 33.4204 76.9313C33.4616 76.8352 33.5165 76.7391 33.5989 76.6567C33.6812 76.5607 33.7773 76.5058 33.8734 76.4509C33.9695 76.4097 34.093 76.3822 34.2028 76.3822C34.3401 76.3822 34.4774 76.4234 34.6009 76.4783C34.7244 76.5469 34.8205 76.643 34.9029 76.7528C34.9441 76.8352 34.9852 76.9038 35.0127 76.9999C35.0401 77.096 35.0401 77.1921 35.0401 77.3019V77.3431H33.6675V77.3842Z" fill="black"></path><path d="M20.4916 84.1219V84.218H19.0916V84.1219H19.2014C19.3386 84.1219 19.4347 84.0807 19.5033 83.9983C19.5445 83.9434 19.5582 83.8199 19.5582 83.6277V81.5139C19.5582 81.3492 19.5445 81.2394 19.5308 81.1845C19.5171 81.1433 19.4759 81.1158 19.4347 81.0747C19.3661 81.0335 19.2837 81.0197 19.2151 81.0197H19.1053V80.9237H20.5054V81.0197H20.3818C20.2446 81.0197 20.1485 81.0609 20.0936 81.1433C20.0524 81.1982 20.0387 81.3217 20.0387 81.5139V83.6277C20.0387 83.7924 20.0524 83.9023 20.0661 83.9572C20.0798 83.9983 20.121 84.0258 20.1622 84.067C20.2308 84.1082 20.2995 84.1219 20.3818 84.1219H20.4916ZM80.9832 80.9237H82.1225V81.0197H82.0538C82.0126 81.0197 81.944 81.0335 81.8754 81.0747C81.793 81.1158 81.7244 81.1707 81.6558 81.2394C81.5871 81.308 81.5048 81.4178 81.4087 81.5825L80.6126 82.8316V83.6552C80.6126 83.8611 80.64 83.9846 80.6812 84.0258C80.7361 84.0944 80.8459 84.1219 80.9694 84.1219H81.0793V84.218H79.6929V84.1219H79.8027C79.94 84.1219 80.0361 84.0807 80.1047 83.9983C80.1321 83.9434 80.1596 83.8336 80.1596 83.6415V82.8591L79.2537 81.4864C79.1439 81.3217 79.0752 81.2256 79.034 81.1845C78.9929 81.1433 78.9242 81.1021 78.8007 81.0335C78.7732 81.0197 78.7183 81.006 78.6634 81.006V80.9099H80.0635V81.006H79.9949C79.9263 81.006 79.8439 81.0197 79.789 81.0609C79.7204 81.1021 79.6929 81.1433 79.6929 81.2256C79.6929 81.2805 79.7478 81.3904 79.8439 81.5413L80.5302 82.5983L81.1753 81.5825C81.2714 81.4315 81.3263 81.3217 81.3263 81.2394C81.3263 81.1982 81.3126 81.157 81.2852 81.1158C81.2577 81.0747 81.2302 81.0472 81.1891 81.0335C81.1479 81.0197 81.0793 81.006 80.9969 81.006V80.9237H80.9832ZM76.1378 81.1158V82.4061H76.8516C77.0437 82.4061 77.1673 82.3786 77.2222 82.3237C77.3045 82.2551 77.3594 82.1178 77.3594 81.9257H77.4418V83.065H77.3594C77.332 82.9002 77.3183 82.8042 77.2908 82.763C77.2634 82.7081 77.2085 82.6669 77.1535 82.6257C77.0849 82.5983 76.9888 82.5708 76.8516 82.5708H76.1378V83.6552C76.1378 83.8062 76.1378 83.8885 76.1515 83.916C76.1653 83.9434 76.1927 83.9709 76.2202 83.9983C76.2476 84.0121 76.3162 84.0258 76.3986 84.0258H76.9614C77.1398 84.0258 77.2771 84.0121 77.3594 83.9846C77.4418 83.9572 77.5242 83.9023 77.6065 83.8336C77.7026 83.7375 77.8124 83.5866 77.9085 83.3807H78.0046L77.7163 84.2042H75.1907V84.1082H75.3005C75.3829 84.1082 75.4515 84.0944 75.5201 84.0532C75.575 84.0258 75.6025 83.9846 75.6299 83.9434C75.6437 83.8885 75.6574 83.7924 75.6574 83.6277V81.5002C75.6574 81.2943 75.6437 81.1707 75.5888 81.1158C75.5339 81.0472 75.4378 81.0197 75.3005 81.0197H75.1907V80.9237H77.7163L77.7575 81.6374H77.6614C77.634 81.459 77.5928 81.3492 77.5516 81.2805C77.5104 81.2119 77.4555 81.1707 77.3732 81.1296C77.3045 81.1021 77.1947 81.0884 77.03 81.0884H76.1378V81.1158ZM74.422 83.2983L74.5044 83.312L74.2299 84.2042H71.6905V84.1082H71.814C71.9513 84.1082 72.0474 84.067 72.116 83.9709C72.1572 83.916 72.1709 83.8062 72.1709 83.614V81.5002C72.1709 81.2943 72.1435 81.1707 72.1023 81.1158C72.0337 81.0472 71.9513 81.006 71.8278 81.006H71.7042V80.9099H73.1867V81.006C73.0082 81.006 72.8847 81.0197 72.8161 81.0609C72.7474 81.0884 72.6925 81.1433 72.6788 81.1845C72.6513 81.2394 72.6376 81.3629 72.6376 81.5551V83.614C72.6376 83.7513 72.6513 83.8336 72.6788 83.8885C72.6925 83.9297 72.7337 83.9434 72.7612 83.9709C72.8023 83.9846 72.9259 83.9983 73.1455 83.9983H73.3788C73.6259 83.9983 73.8044 83.9846 73.9142 83.9434C74.0102 83.9023 74.1063 83.8474 74.1887 83.7513C74.2573 83.6552 74.3397 83.5042 74.422 83.2983ZM70.9081 83.2983L70.9905 83.312L70.7159 84.2042H68.1766V84.1082H68.3001C68.4374 84.1082 68.5335 84.067 68.6021 83.9709C68.6296 83.916 68.657 83.8062 68.657 83.614V81.5002C68.657 81.2943 68.6296 81.1707 68.5884 81.1158C68.5197 81.0472 68.4374 81.006 68.3138 81.006H68.1903V80.9099H69.6727V81.006C69.4943 81.006 69.3708 81.0197 69.3021 81.0609C69.2335 81.0884 69.1786 81.1433 69.1649 81.1845C69.1374 81.2394 69.1237 81.3629 69.1237 81.5551V83.614C69.1237 83.7513 69.1374 83.8336 69.1649 83.8885C69.1786 83.9297 69.2198 83.9434 69.2472 83.9709C69.2884 83.9846 69.4119 83.9983 69.6178 83.9983H69.8512C70.0983 83.9983 70.2767 83.9846 70.3865 83.9434C70.4826 83.9023 70.5787 83.8474 70.661 83.7513C70.7297 83.6552 70.812 83.5042 70.9081 83.2983ZM66.2549 83.1061H64.9921L64.7725 83.6277C64.7176 83.7513 64.6901 83.8473 64.6901 83.916C64.6901 83.9709 64.7176 84.0121 64.7588 84.0532C64.7999 84.0944 64.9097 84.1219 65.0745 84.1219V84.218H64.045V84.1219C64.1823 84.0944 64.2646 84.067 64.3058 84.0258C64.3881 83.9434 64.4842 83.7924 64.5803 83.5591L65.7333 80.855H65.8157L66.955 83.5866C67.051 83.8062 67.1334 83.9434 67.202 84.0121C67.2844 84.0807 67.3805 84.1219 67.5177 84.1219V84.218H66.2275V84.1219C66.351 84.1081 66.4471 84.0944 66.4883 84.0532C66.5294 84.0121 66.5569 83.9709 66.5569 83.916C66.5569 83.8473 66.5294 83.7375 66.4608 83.5866L66.2549 83.1061ZM66.1863 82.9277L65.6372 81.5963L65.0607 82.9277H66.1863ZM64.0724 80.9237H63.0567V81.0197C63.0704 81.0197 63.0841 81.0197 63.0979 81.0335C63.2077 81.0472 63.29 81.0747 63.3312 81.1296C63.3724 81.1707 63.3999 81.2119 63.3999 81.2668C63.3999 81.3354 63.3587 81.4727 63.29 81.6512L62.5214 83.5454L61.6841 81.6237C61.6154 81.459 61.5743 81.3217 61.5743 81.2394C61.5743 81.1845 61.6017 81.1296 61.6429 81.1021C61.6841 81.0609 61.7802 81.0335 61.9449 81.0197V80.9237H60.5997V81.0197C60.6958 81.0335 60.7781 81.0472 60.833 81.0747C60.888 81.1021 60.9429 81.1433 60.984 81.1982C61.0115 81.2256 61.0527 81.3217 61.1213 81.459L62.3429 84.2866H62.4253L63.5646 81.5002C63.6332 81.3355 63.7018 81.2119 63.7979 81.1433C63.8528 81.0884 63.9489 81.0472 64.0587 81.0335V80.9237H64.0724ZM54.217 80.9237H55.1092L57.1132 83.3807V81.5002C57.1132 81.2943 57.0858 81.1707 57.0446 81.1158C56.9897 81.0472 56.8936 81.0197 56.7564 81.0197H56.6465V80.9237H57.7858V81.0197H57.676C57.5387 81.0197 57.4427 81.0609 57.3878 81.1433C57.3466 81.1982 57.3329 81.308 57.3329 81.5002V84.2591H57.2505L55.0818 81.6237V83.6415C55.0818 83.8473 55.1092 83.9709 55.1504 84.0121C55.2053 84.0807 55.3014 84.1082 55.4386 84.1082H55.5484V84.2042H54.4092V84.1082H54.519C54.6562 84.1082 54.7523 84.067 54.821 83.9846C54.8621 83.9297 54.8759 83.8199 54.8759 83.6277V81.3629C54.7798 81.2531 54.7111 81.1845 54.6562 81.1433C54.6013 81.1021 54.5327 81.0747 54.4366 81.0472C54.3954 81.0335 54.3131 81.0335 54.2307 81.0335V80.9237H54.217ZM52.0208 80.855C52.4463 80.855 52.8169 81.0197 53.1326 81.3354C53.4483 81.6649 53.5993 82.0629 53.5993 82.5434C53.5993 83.0375 53.4483 83.4493 53.1326 83.7787C52.8169 84.1081 52.4326 84.2729 51.9934 84.2729C51.5404 84.2729 51.1698 84.1082 50.8541 83.7924C50.5521 83.4767 50.3874 83.0512 50.3874 82.5434C50.3874 82.0218 50.5658 81.5962 50.9227 81.2668C51.2247 80.9923 51.5816 80.855 52.0208 80.855ZM51.9659 81.0335C51.6776 81.0335 51.4306 81.1433 51.2659 81.3629C51.0462 81.6374 50.9364 82.0355 50.9364 82.5571C50.9364 83.0924 51.0462 83.5042 51.2796 83.7924C51.458 84.0121 51.6914 84.1219 51.9796 84.1219C52.2816 84.1219 52.5424 83.9983 52.7483 83.765C52.9542 83.5179 53.0503 83.1473 53.0503 82.6257C53.0503 82.0629 52.9405 81.6512 52.7208 81.3766C52.5287 81.1433 52.2816 81.0335 51.9659 81.0335ZM49.3854 80.855L49.454 81.9669H49.3854C49.2893 81.6374 49.1383 81.3904 48.9599 81.2394C48.7677 81.0884 48.5481 81.0197 48.2873 81.0197C48.0676 81.0197 47.8755 81.0747 47.697 81.1845C47.5186 81.2943 47.3813 81.4727 47.2853 81.7198C47.1892 81.9669 47.1343 82.2551 47.1343 82.6257C47.1343 82.9277 47.1754 83.1748 47.2715 83.3944C47.3676 83.614 47.5049 83.7787 47.697 83.8885C47.8892 83.9983 48.1088 84.067 48.3559 84.067C48.5755 84.067 48.754 84.0258 48.9187 83.9297C49.0834 83.8336 49.2618 83.6552 49.454 83.3807L49.5226 83.4218C49.3579 83.7101 49.1657 83.9297 48.9461 84.067C48.7265 84.2042 48.4657 84.2729 48.1637 84.2729C47.6147 84.2729 47.2029 84.067 46.9009 83.6689C46.6813 83.3669 46.5715 83.01 46.5715 82.612C46.5715 82.2826 46.6401 81.9806 46.7911 81.7061C46.9421 81.4315 47.1343 81.2256 47.3951 81.0747C47.6559 80.9237 47.9304 80.855 48.2324 80.855C48.4657 80.855 48.6991 80.9099 48.9324 81.0335C49.001 81.0746 49.0422 81.0884 49.0834 81.0884C49.1246 81.0884 49.1657 81.0747 49.1932 81.0472C49.2344 81.006 49.2618 80.9374 49.2893 80.8688H49.3854V80.855ZM45.7891 84.1219V84.218H44.389V84.1219H44.4988C44.6361 84.1219 44.7322 84.0807 44.7871 83.9983C44.8283 83.9434 44.842 83.8199 44.842 83.6277V81.5139C44.842 81.3492 44.8283 81.2394 44.8145 81.1845C44.8008 81.1433 44.7596 81.1158 44.7184 81.0747C44.6498 81.0335 44.5675 81.0197 44.4988 81.0197H44.389V80.9237H45.7891V81.0197H45.6793C45.542 81.0197 45.4459 81.0609 45.391 81.1433C45.3498 81.1982 45.3361 81.3217 45.3361 81.5139V83.6277C45.3361 83.7924 45.3499 83.9023 45.3636 83.9572C45.3773 83.9983 45.4185 84.0258 45.4597 84.067C45.5283 84.1082 45.5969 84.1219 45.6793 84.1219H45.7891ZM43.5792 83.2983L43.6615 83.312L43.387 84.2042H40.8476V84.1082H40.9712C41.1084 84.1082 41.2045 84.067 41.2732 83.9709C41.3006 83.916 41.3281 83.8062 41.3281 83.614V81.5002C41.3281 81.2943 41.3006 81.1707 41.2594 81.1158C41.1908 81.0472 41.1084 81.006 40.9849 81.006H40.8614V80.9099H42.3438V81.006C42.1654 81.006 42.0418 81.0197 41.9732 81.0609C41.9046 81.0884 41.8497 81.1433 41.8222 81.1845C41.7948 81.2394 41.781 81.3629 41.781 81.5551V83.614C41.781 83.7513 41.7948 83.8336 41.8222 83.8885C41.8359 83.9297 41.8771 83.9434 41.9183 83.9709C41.9595 83.9846 42.083 83.9983 42.2889 83.9983H42.5222C42.7693 83.9983 42.9478 83.9846 43.0576 83.9434C43.1537 83.9023 43.2497 83.8474 43.3321 83.7513C43.4144 83.6552 43.4968 83.5042 43.5792 83.2983ZM40.1339 84.1219V84.218H38.7338V84.1219H38.8436C38.9809 84.1219 39.077 84.0807 39.1319 83.9983C39.173 83.9434 39.1868 83.8199 39.1868 83.6277V81.5139C39.1868 81.3492 39.173 81.2394 39.1593 81.1845C39.1456 81.1433 39.1044 81.1158 39.0632 81.0747C38.9946 81.0335 38.9122 81.0197 38.8436 81.0197H38.7338V80.9237H40.1339V81.0197H40.0103C39.8731 81.0197 39.777 81.0609 39.7221 81.1433C39.6809 81.1982 39.6672 81.3217 39.6672 81.5139V83.6277C39.6672 83.7924 39.6809 83.9023 39.6946 83.9572C39.7084 83.9983 39.7495 84.0258 39.7907 84.067C39.8594 84.1082 39.928 84.1219 40.0103 84.1219H40.1339ZM37.622 80.855V81.9943H37.5396C37.5122 81.7747 37.4573 81.5962 37.3886 81.4727C37.32 81.3492 37.2102 81.2394 37.0729 81.1707C36.9357 81.0884 36.7847 81.0609 36.6474 81.0609C36.4827 81.0609 36.3454 81.1158 36.2356 81.2119C36.1258 81.3217 36.0709 81.4315 36.0709 81.5551C36.0709 81.6512 36.1121 81.7472 36.1807 81.8296C36.2768 81.9531 36.5239 82.1179 36.8945 82.31C37.1965 82.4747 37.4161 82.5983 37.5259 82.6944C37.6357 82.7767 37.7181 82.8865 37.7867 83.0101C37.8416 83.1336 37.8828 83.2571 37.8828 83.3807C37.8828 83.6277 37.7867 83.8474 37.5945 84.0258C37.4024 84.2042 37.1553 84.3003 36.8533 84.3003C36.7572 84.3003 36.6749 84.2866 36.5788 84.2729C36.5239 84.2591 36.4278 84.2317 36.2631 84.1905C36.1121 84.1356 36.0023 84.1082 35.9611 84.1082C35.9199 84.1082 35.8925 84.1219 35.865 84.1493C35.8376 84.1768 35.8238 84.218 35.8101 84.3003H35.7278V83.1748H35.8101C35.8513 83.4081 35.9062 83.5866 35.9748 83.6964C36.0435 83.8062 36.1533 83.916 36.3043 83.9846C36.4552 84.067 36.6062 84.0944 36.7847 84.0944C36.9906 84.0944 37.1416 84.0395 37.2651 83.9297C37.3749 83.8199 37.4435 83.6964 37.4435 83.5591C37.4435 83.4767 37.4161 83.3944 37.3749 83.312C37.3337 83.2297 37.2651 83.1473 37.169 83.0787C37.1004 83.0375 36.9357 82.9277 36.6611 82.7767C36.3866 82.6257 36.1807 82.4885 36.0572 82.4061C35.9336 82.31 35.8513 82.2139 35.7827 82.0904C35.7278 81.9806 35.6866 81.857 35.6866 81.7198C35.6866 81.4864 35.7827 81.2805 35.9611 81.1158C36.1395 80.9511 36.3729 80.855 36.6474 80.855C36.8259 80.855 37.0043 80.8962 37.1965 80.9786C37.2925 81.0197 37.3475 81.0335 37.3886 81.0335C37.4298 81.0335 37.471 81.0197 37.4984 80.9923C37.5259 80.9648 37.5396 80.9099 37.5671 80.8413H37.622V80.855ZM28.9058 80.9237H29.798L31.802 83.3807V81.5002C31.802 81.2943 31.7746 81.1707 31.7334 81.1158C31.6785 81.0472 31.5824 81.0197 31.4452 81.0197H31.3354V80.9237H32.4746V81.0197H32.3648C32.2276 81.0197 32.1315 81.0609 32.0766 81.1433C32.0354 81.1982 32.0217 81.308 32.0217 81.5002V84.2591H31.9393L29.7843 81.6237V83.6415C29.7843 83.8473 29.8117 83.9709 29.8529 84.0121C29.9078 84.0807 30.0039 84.1082 30.1412 84.1082H30.251V84.2042H29.1117V84.1082H29.2215C29.3588 84.1082 29.4549 84.067 29.5235 83.9846C29.5647 83.9297 29.5784 83.8199 29.5784 83.6277V81.3629C29.4823 81.2531 29.4137 81.1845 29.3588 81.1433C29.3039 81.1021 29.2352 81.0747 29.1392 81.0472C29.098 81.0335 29.0156 81.0335 28.9333 81.0335V80.9237H28.9058ZM27.1763 83.1061H25.8998L25.6801 83.6277C25.6252 83.7513 25.5978 83.8473 25.5978 83.916C25.5978 83.9709 25.6252 84.0121 25.6664 84.0532C25.7076 84.0944 25.8174 84.1219 25.9821 84.1219V84.218H24.9527V84.1219C25.0899 84.0944 25.1723 84.067 25.2135 84.0258C25.2958 83.9434 25.3919 83.7924 25.488 83.5591L26.641 80.855H26.7233L27.8626 83.5866C27.9587 83.8062 28.0411 83.9434 28.1097 84.0121C28.1783 84.0807 28.2881 84.1219 28.4254 84.1219V84.218H27.1351V84.1219C27.2724 84.1081 27.3547 84.0944 27.3959 84.0532C27.4371 84.0121 27.4646 83.9709 27.4646 83.916C27.4646 83.8473 27.4371 83.7375 27.3685 83.5866L27.1763 83.1061ZM27.1077 82.9277L26.5449 81.5963L25.9684 82.9277H27.1077ZM24.4585 84.2042H23.58L22.4682 82.6669C22.3859 82.6669 22.3172 82.6669 22.2623 82.6669C22.2486 82.6669 22.2211 82.6669 22.1937 82.6669C22.1662 82.6669 22.1388 82.6669 22.1251 82.6669V83.614C22.1251 83.8199 22.1525 83.9434 22.1937 83.9983C22.2486 84.067 22.3447 84.1082 22.4682 84.1082H22.5917V84.2042H21.1917V84.1082H21.3152C21.4525 84.1082 21.5485 84.067 21.6172 83.9709C21.6446 83.916 21.6721 83.8062 21.6721 83.614V81.5002C21.6721 81.2943 21.6446 81.1707 21.6035 81.1158C21.5348 81.0472 21.4525 81.006 21.3289 81.006H21.2054V80.9099H22.3996C22.7427 80.9099 23.0035 80.9374 23.1682 80.9923C23.333 81.0472 23.4702 81.1296 23.5938 81.2668C23.7036 81.4041 23.7722 81.5688 23.7722 81.761C23.7722 81.9669 23.7036 82.1316 23.58 82.2826C23.4428 82.4336 23.2506 82.5296 22.9761 82.5983L23.6487 83.5454C23.7997 83.765 23.9369 83.9023 24.0467 83.9709C24.1565 84.0395 24.3075 84.0807 24.486 84.1082V84.2042H24.4585ZM22.1251 82.5296C22.1525 82.5296 22.18 82.5296 22.2074 82.5296C22.2349 82.5296 22.2486 82.5296 22.2623 82.5296C22.578 82.5296 22.8114 82.461 22.9624 82.3237C23.1271 82.1865 23.1957 82.0218 23.1957 81.8021C23.1957 81.5963 23.1271 81.4315 23.0035 81.308C22.88 81.1845 22.7016 81.1158 22.4957 81.1158C22.3996 81.1158 22.276 81.1296 22.1113 81.157V82.5296H22.1251Z" fill="black"></path><path d="M33.5177 56.108H37.7454L42.2888 70.9048H40.573H38.5964H32.6392H30.4019H28.6586L31.6235 61.722H35.1923L33.6275 67.336H37.3748L33.5177 56.108ZM72.5826 70.8911H76.6867C79.5281 70.8911 81.0791 69.7244 81.8478 67.1713C82.9047 63.3829 78.7182 60.6102 77.3456 58.0571C77.0436 57.5218 77.1123 56.8355 77.3456 56.0942H73.365C72.2943 59.2238 75.7534 61.8593 77.3456 64.2339C78.4574 65.6065 78.279 67.4733 75.7945 67.5419H72.5826V70.8911ZM67.5862 70.8911H71.5669V56.108H67.5862V70.8911ZM54.4091 56.108H58.3897H59.3917H59.4191C63.5096 56.108 66.8176 59.416 66.8176 63.5064C66.8176 67.5968 63.5096 70.9048 59.4191 70.9048H59.3917H58.3897H54.4091V61.873H58.3897V67.5556H58.8015C61.0388 67.5556 62.8507 65.7438 62.8507 63.5064C62.8507 61.269 61.0388 59.4572 58.8152 59.4572H58.8015H58.4034H54.4228V56.108H54.4091ZM43.2496 56.108H47.2302H49.6598C51.8697 56.108 53.4345 57.81 53.4345 59.8278C53.4894 60.5553 53.407 61.2416 52.9815 62.1475C52.2678 63.1633 51.4305 63.575 50.6892 63.5613C50.4559 63.5613 50.4834 63.9182 50.6892 63.9319C52.2952 63.9868 52.8168 65.634 52.8443 66.938V70.9048H48.8637V67.6655C48.8637 66.8282 49.0695 65.2359 46.7635 65.2359H47.2165H43.2359V61.722H44.6634H47.2165H48.0401C50.1127 61.722 50.1539 59.4297 48.0401 59.4572H47.2165H44.6634H43.2359V56.108H43.2496ZM19.5032 56.108H23.4838H25.3643C27.89 56.108 29.9214 58.1532 29.9214 60.6651C29.9214 63.1907 27.8762 65.2222 25.3643 65.2222H23.4701V70.8911H19.4895V65.2222V61.7083H20.917H23.4701H24.2937C26.3663 61.7083 26.4075 59.416 24.2937 59.4434H23.4701H20.917H19.5032V56.108Z" fill="black"></path><path d="M47.5739 48.9666C47.368 48.8293 47.2582 48.6235 46.9288 48.4313C46.7504 48.3215 46.3386 48.0881 46.2699 47.896H46.517C46.97 47.896 47.3818 47.4155 47.3818 46.9626V46.4684C47.3818 46.139 47.121 45.8782 47.0523 45.6037H46.97C46.9288 45.7135 46.7229 46.0566 46.7229 46.139C46.7229 46.3037 47.0935 46.6194 47.0935 46.9214V46.9626C47.0935 47.1136 46.6268 47.3057 46.4347 47.3057L45.6934 47.2646L45.5699 47.1822C45.5424 47.3195 45.4052 47.6763 45.4052 47.7587V47.8822C45.062 47.9783 44.5816 48.6921 44.5816 49.1862C44.5816 49.5157 44.7326 49.5157 44.7463 49.7627C44.513 49.8176 44.4306 49.9686 44.1424 49.9686H44.06C43.8129 49.9686 43.4423 49.8588 43.4423 49.6392V49.5568C43.4423 49.3098 43.5247 49.3098 43.5659 49.145C43.2639 49.2274 43.0305 50.1608 42.3442 50.1608C42.1658 50.1608 41.8501 49.9686 41.8501 49.7902V49.749C41.8501 49.5568 41.9736 49.5019 42.0148 49.3372C41.6305 49.3647 41.2599 50.3941 40.6696 50.3941H40.299C40.1069 50.3941 39.7637 50.1196 39.7637 49.9C39.7637 49.7627 39.7912 49.7353 39.8049 49.6117C38.995 49.8039 37.9244 50.7647 36.9498 50.7647H36.4969C36.3321 50.7647 35.9478 50.6 35.9615 50.4765L36.0164 49.8588H35.8517C35.8517 49.8588 34.0124 50.5177 33.8065 50.5863C33.2437 50.7785 32.1731 50.9981 31.4456 50.9981H30.6632C29.9906 50.9981 28.7415 50.6824 28.7415 50.1333C28.7415 50.0235 29.4827 49.8039 29.6612 49.6941C29.9906 49.5157 30.2377 49.3784 30.5397 49.1725C31.075 48.8156 31.7338 48.4862 31.7338 47.6352V47.3469C31.7338 46.5782 31.1299 45.837 30.3475 45.837C30.3063 45.837 30.073 45.9743 30.0181 46.0017C30.0181 45.4939 29.9357 45.1919 29.4416 45.1919H28.9474C26.9297 45.1919 25.7767 48.8293 24.4864 48.8293C24.006 48.8293 23.6354 48.5136 23.6354 48.0469L23.6216 47.9234L23.7177 47.3195C24.706 47.2371 27.2728 46.0841 27.2728 45.2743V45.1919C27.2728 44.5468 26.8885 44.4644 26.3532 44.3546C26.0924 44.2997 25.0217 44.0663 25.0217 43.8742C25.0217 43.4487 25.9551 42.4055 26.2845 42.4055H26.4081C26.6002 42.4055 26.7375 42.529 26.7787 42.6937C26.9846 42.6388 27.0258 42.4604 27.0258 42.1996V42.1584C27.0258 41.9525 26.765 41.7054 26.614 41.7054C25.7355 41.7054 24.7335 43.1055 24.7335 43.9977V44.2448C24.7335 44.9585 26.3532 44.9174 26.9022 45.1782C26.7924 45.5762 24.706 46.5645 24.0883 46.5645L23.9511 46.5508L24.253 45.9057C23.9236 45.9331 23.9373 46.6331 23.6765 46.6331H22.8942C22.3451 46.6331 21.7137 46.0155 21.7137 45.3703V44.9174C21.7137 44.4095 22.0569 43.8604 22.0843 43.5722C21.6862 43.7781 21.4254 44.7527 21.4254 45.3703V45.6998C21.4254 46.0017 21.7274 46.6331 21.9059 46.8116C22.1118 47.0312 22.6196 47.3332 23.0177 47.3332H23.5118L23.4707 47.7038V48.1568C23.4707 48.8431 23.9923 49.296 24.6923 49.296C25.1041 49.296 25.5159 49.0078 25.7355 48.7882C25.9002 48.6235 26.3943 47.9509 26.4492 47.9097C26.3532 48.294 26.161 48.4038 26.161 48.9666C26.161 49.5843 26.614 50.2706 27.1767 50.2706L27.7532 50.2843L28.2062 50.2431V50.1608H28.4121C28.4121 50.751 28.6592 51.0393 29.0161 51.2726C29.2631 51.4373 29.9494 51.7119 30.3338 51.7119H30.8691C31.8025 51.7119 32.6261 51.4511 33.3673 51.2726C33.8751 51.1491 35.3301 50.5726 35.6047 50.5726V50.7785C35.6047 51.0393 36.0027 51.4236 36.2223 51.4236H36.4282C37.9656 51.4236 39.2833 50.2431 39.4892 50.2431C39.5166 50.2431 39.7362 51.053 40.3402 51.053C40.6696 51.053 40.8618 50.9569 41.0265 50.7922C41.1226 50.6961 41.4108 50.353 41.4383 50.2294H41.5618C41.5893 50.4079 41.8775 50.7647 42.056 50.7647H42.3031C42.5776 50.7647 43.058 50.3118 43.0717 50.0235H43.1953C43.2227 50.3667 43.7169 50.5589 44.0875 50.5589H44.211C44.3071 50.5589 45.4052 49.9823 45.4326 49.9823H45.4738C45.5974 49.9823 45.9542 50.1333 46.0503 50.1882C46.3523 50.1882 46.4209 50.3118 46.7366 50.3118H46.8602C47.272 50.3118 47.6014 49.7353 47.6014 49.4058L47.6151 49.3647L47.5739 48.9666ZM30.9515 46.9488C30.7456 47.0449 29.922 46.9351 29.9769 46.7704C30.073 46.4547 30.7181 46.5508 30.9515 46.9488ZM27.8356 49.6117H27.4238C26.9846 49.6117 26.4492 49.2411 26.4492 48.8431V48.6784C26.4492 47.4018 27.8631 45.8096 29.1396 45.8096C29.3729 45.8096 29.8808 45.9331 29.8808 46.139C29.8808 46.1527 29.5102 46.6194 29.5102 47.0449V47.1273C29.5102 48.0332 31.4319 47.3606 31.4319 47.9097V48.0332C31.3907 48.047 30.4985 48.6509 30.1828 48.7882C29.9632 48.8843 29.7573 49.0078 29.5239 49.1039C29.318 49.2 29.0161 49.2823 28.8239 49.3921L28.9474 48.9803C28.5356 49.0764 28.9337 49.6117 27.8356 49.6117ZM46.1052 48.9254C46.1052 49.0352 45.6934 49.296 45.6111 49.296H45.5424C45.3366 49.296 44.9248 49.0078 44.9248 48.7607V48.7195C44.9248 48.5274 45.4326 48.1019 45.6523 48.1019C45.8719 48.1019 46.1052 48.6509 46.1052 48.8842V48.9254ZM46.1327 49.4882C46.2699 49.2823 46.4072 49.0352 46.4209 48.8156C47.7524 49.5706 47.6288 50.0922 46.1327 49.4882ZM37.1145 44.5193C36.6204 44.5193 36.1674 45.2331 36.1674 45.7409V45.7821C36.1674 46.1253 36.7027 46.3586 37.1557 46.3586C37.8008 46.3586 38.0754 46.3449 38.295 46.7704C38.0342 46.9488 36.9773 47.3881 36.5792 47.3881H36.1674C35.7831 47.3881 35.5223 47.0038 35.5223 46.6194V46.4547C35.1791 46.4822 34.8085 47.4842 34.0536 47.4842H33.7653C33.1751 47.4842 32.8182 46.9488 32.8182 46.3449C32.8182 45.6037 32.7359 45.0821 32.7359 44.2997C32.7359 43.38 32.6947 40.8544 32.4476 40.3328C31.9397 40.7034 32.2417 41.5407 32.2417 42.2545C32.2554 43.0918 32.2829 43.8193 32.2829 44.6291C32.2829 45.4801 32.2554 46.2076 32.4064 46.9214C32.53 47.5116 32.8457 48.2254 33.5183 48.2254H33.8065C34.3418 48.2254 35.0419 47.7312 35.1517 47.3332H35.234V47.4567C35.234 47.7312 35.6458 48.1156 36.0164 48.1156H36.4694C37.1832 48.1156 37.8695 47.6626 38.3087 47.3881C38.3087 47.0587 38.4734 46.9077 38.4734 46.4822V46.0292C38.4597 45.3566 37.7597 44.5193 37.1145 44.5193ZM36.6478 45.439C36.7577 45.137 37.3479 45.1919 37.5812 45.6174C37.3204 45.7135 36.6067 45.5762 36.6478 45.439ZM31.6789 49.3784L32.3104 48.6509L33.0516 49.2686L33.1065 49.2823L32.4751 49.9549L31.6789 49.3784ZM42.0697 47.745C42.1109 47.6901 42.6599 47.0861 42.6737 47.0861C42.7972 47.0861 43.4149 47.6077 43.4561 47.745C43.2502 47.8136 43.0168 48.3215 42.7972 48.3215C42.7972 48.3077 42.1383 47.7862 42.0697 47.745ZM41.3285 46.3861C41.3559 46.2763 41.8638 45.686 41.9874 45.686C42.0423 45.686 42.6188 46.2076 42.6737 46.3037C42.605 46.4135 42.1932 46.9214 42.0697 46.9214C41.9874 46.9214 41.4932 46.441 41.3285 46.3861ZM33.7242 43.3663C33.7242 43.3251 34.2595 42.8035 34.3418 42.7486L35.0968 43.3526C35.0281 43.4624 34.5752 43.984 34.4654 43.984C34.383 43.984 33.7242 43.4761 33.7242 43.3663ZM36.2223 43.0369C36.2223 42.982 36.7577 42.4741 36.84 42.4192L37.5812 43.0094C37.4989 43.133 37.0459 43.6408 36.9224 43.6408C36.8949 43.6546 36.2223 43.1467 36.2223 43.0369ZM35.8243 38.068H35.6184C35.3713 38.1092 35.1517 38.2327 34.9458 38.4523L34.8772 38.3974C34.7399 38.6582 33.9575 39.5504 33.6143 39.5504H33.532C32.9555 39.5504 32.5574 39.3308 32.5574 38.7817V38.617C32.1045 38.6308 32.077 39.6877 30.8416 39.6877L30.5534 39.7975C30.7181 39.5504 31.0475 39.3857 31.0475 38.9327V38.8915C31.0475 38.37 30.2926 38.0268 29.7024 38.0268H29.62C28.769 38.0268 28.3297 38.6582 27.9317 38.768L28.0003 36.5993L27.8493 33.8266V33.456L28.1513 33.5932L28.0003 32.8657L27.6023 31.8774C27.4513 31.9186 27.3003 32.1382 27.314 32.3304L27.5611 36.4208V39.0014C27.5611 39.0837 27.2042 39.4818 27.1218 39.5916C26.9434 39.8249 26.8473 39.9896 26.4492 39.9896L26.2022 40.0034L25.7492 39.9485C25.7629 39.7426 26.0375 39.5092 26.0375 39.1661V38.6719C26.0375 38.4386 25.8865 38.0131 25.6669 38.0131H25.5021C25.1727 38.0131 24.6648 38.6033 24.5413 38.8641C24.4589 39.0151 24.3491 39.372 24.3491 39.5641C24.3491 40.0171 24.3766 40.0171 23.855 40.0171C22.1255 40.0171 22.6059 38.466 21.9333 38.466C21.8372 38.466 21.7411 38.4386 21.6451 38.466C20.6705 38.7817 20.5195 41.0877 19.7234 41.0877H19.5999C18.79 41.0877 18.6527 39.7426 18.7763 38.8504C18.4606 40.0308 18.5841 41.5819 19.5999 41.6917H19.6822C20.8489 41.6917 20.4921 39.1935 21.7274 39.1935H21.8098C22.2353 39.1935 22.1529 40.7034 23.4844 40.7034H23.8962C23.9923 40.7034 23.9785 40.6622 24.0609 40.6211C24.4315 40.6211 24.7746 40.4152 24.8021 40.4152C24.9943 40.4152 25.5159 40.6622 25.9414 40.6622C27.1356 40.6622 28.2474 40.4975 29.5377 40.4975C30.1416 40.4975 30.7867 40.4563 31.226 40.2916C31.7338 40.1132 32.1456 39.4681 32.2829 39.4269C32.2966 39.8112 32.6261 40.1681 33.0241 40.1681H33.3535C33.9987 40.1681 34.2595 39.1798 34.534 39.1798C34.6164 39.1798 35.1654 39.7975 35.5497 39.7975H35.8792C36.0439 39.7975 36.3733 39.2896 36.3733 39.0974V38.9327C36.387 38.5758 36.1812 38.068 35.8243 38.068ZM25.6806 39.3308C25.6806 39.4543 25.2551 39.7014 25.1453 39.7014C25.0354 39.7014 24.6923 39.4681 24.6923 39.2484V39.2073C24.6923 39.0425 25.1864 38.7131 25.3923 38.7131C25.5433 38.7131 25.6806 39.0151 25.6806 39.1661V39.3308ZM28.3846 39.9485H27.9729L27.2042 39.9073C27.2728 39.6465 28.8651 38.6033 29.2906 38.6033H29.7024C29.9906 38.6033 30.4985 38.9602 30.5122 39.221C29.9494 39.3308 29.1533 39.9485 28.3846 39.9485ZM35.0968 38.7406C35.4537 38.4523 35.8105 38.6582 35.8517 39.1523C35.4811 39.1112 35.234 38.8915 35.0968 38.7406ZM23.7589 36.6404C23.9236 36.6816 24.404 37.1758 24.5001 37.1758C24.6511 37.1758 24.9531 36.7365 25.0766 36.6404C25.159 36.6954 25.7492 37.1758 25.7767 37.1758C25.9002 37.1758 26.3669 36.6679 26.4355 36.5581C26.3943 36.5032 25.7355 35.9404 25.6943 35.9404C25.557 35.9404 25.2413 36.4757 25.1178 36.4757C24.9943 36.4757 24.4864 35.9404 24.4178 35.9404C24.308 35.9404 23.7864 36.5306 23.7589 36.6404ZM31.7201 37.1895L32.5025 37.8072C32.5574 37.766 33.079 37.2169 33.079 37.1895C33.079 37.0934 32.4888 36.5993 32.379 36.5306L31.7201 37.1895ZM45.6523 51.2177L46.4347 51.8354C46.4896 51.7942 47.0112 51.2452 47.0112 51.2177C47.0112 51.1216 46.4209 50.6275 46.3111 50.5589L45.6523 51.2177ZM40.6285 47.745C40.8343 47.6626 41.0677 47.1685 41.2873 47.1685C41.3834 47.1685 41.905 47.6626 42.0285 47.745L41.4246 48.4038L40.6285 47.745ZM33.1477 49.2549C33.2163 49.145 33.683 48.6372 33.8065 48.6372C33.8477 48.6372 34.4516 49.1725 34.5066 49.2549L33.9026 49.8725L33.1477 49.2549Z" fill="black"></path><path d="M61.1484 39.1136C60.5719 38.6469 60.2837 36.7115 60.1327 35.0918C59.7895 31.1524 59.3366 27.5698 58.6091 25.5932C58.6914 25.2638 58.815 24.9481 58.8973 24.6187C59.5837 25.6344 60.2562 30.5484 60.5582 33.9525C60.6818 35.2016 60.8053 36.3272 61.1347 37.6174C61.4504 38.4959 62.9329 38.4822 63.8113 38.1116C64.4153 37.7959 64.9781 37.2605 65.5408 36.6978C65.6507 36.5879 65.7605 36.6017 65.6918 36.8213C65.5683 37.3154 65.6369 37.7547 66.1311 38.0841C67.0507 38.5096 68.7391 37.7821 70.0705 37.0546C70.4274 36.835 70.2901 36.3683 70.0842 36.2036C69.6724 35.9154 69.3293 35.7369 68.0253 35.8056C67.4351 35.8742 66.8997 35.4899 66.8448 34.7075C66.8586 33.5545 67.7782 32.0308 68.9861 32.7583C69.9195 33.3897 70.4823 34.378 70.647 35.9154C70.6607 37.1233 70.2352 38.0704 68.6979 38.9214C66.7213 39.896 65.3899 39.5528 65.3349 38.0567C65.3349 37.9057 65.184 37.8919 65.1291 38.0018C64.2369 39.2371 62.5073 40.1979 61.1484 39.1136ZM67.6821 34.3918C67.9978 34.5839 68.4645 34.6251 68.9724 34.6251C69.2469 34.6388 69.2607 34.529 69.0273 34.2819C68.7116 33.9388 68.4234 33.7192 67.9567 33.7603C67.5174 33.8427 67.4488 34.2408 67.6821 34.3918ZM79.7063 45.4963L80.9005 46.2512L81.2162 45.4963L82.4378 46.2649L81.9712 47.2532L80.8456 46.4571L80.4613 47.2532L79.3357 46.4571L78.9514 47.2532L77.7984 46.4434L78.1964 45.51L79.3906 46.2649L79.7063 45.4963ZM72.3765 39.0587C72.6236 39.0175 72.5961 39.2646 72.4451 39.3469C72.0608 39.7038 71.5529 40.0744 71.0725 40.3901C70.8529 40.5274 70.8803 40.6372 71.1411 40.5686C71.5941 40.4038 72.3216 40.1842 72.4726 40.0332C72.8981 39.5116 72.9805 38.8528 73.0903 38.6194C73.1726 38.3861 72.8981 38.0292 72.5412 38.0292C72.2942 38.0429 71.9785 38.0567 71.6902 38.0429C71.4294 37.988 71.2235 37.8919 71.4019 37.5213C71.5118 37.3566 71.9235 36.6703 72.1294 37.0409C72.1843 37.1233 72.3216 37.1233 72.3353 36.9997C72.4451 36.6154 72.4589 36.2722 72.2667 36.0252C72.1843 35.9291 72.0883 35.8879 71.9785 36.0389C70.9902 37.0409 70.949 37.8096 71.0176 38.5371C71.0725 39.3332 72.1843 39.0724 72.3765 39.0587ZM64.7173 31.4269L66.0075 32.3054L65.3487 33.4309L64.1545 32.4975L64.7173 31.4269ZM67.9429 27.7345L69.2332 28.613L68.5743 29.7386L67.3802 28.8052L67.9429 27.7345ZM59.1856 35.1192C59.4738 34.8584 59.3915 34.4741 59.1993 34.3231C58.966 34.1447 58.6365 33.9662 57.4286 33.9937C56.8521 34.0074 56.2345 33.678 56.1795 32.9368C56.1933 31.8524 57.058 30.3837 58.1836 31.07C59.0621 31.6602 59.5699 32.6073 59.7209 34.0486C59.7621 34.8859 59.6111 35.7369 58.8699 36.5468C56.907 38.7292 55.1226 39.7587 53.901 39.6764C51.6224 39.3606 51.444 37.3703 51.5813 35.3938C50.6753 36.135 49.8106 37.0958 49.0831 38.0567C47.6693 39.896 46.7084 40.0195 45.6378 38.9763C44.5809 37.7135 45.1436 36.0252 45.8437 34.0211C45.8849 33.8976 46.0084 33.9251 45.9535 34.076C44.9789 37.1782 45.0201 38.7704 46.6535 38.6606C47.2987 38.6057 48.383 37.741 50.0302 35.6271C51.1283 34.2957 51.9519 33.7329 52.7068 33.4035C53.9147 32.8819 54.8618 32.9368 55.3971 33.98C55.4521 34.3643 55.4246 34.7486 55.356 35.1604C54.5049 33.98 53.2559 34.1447 52.0205 35.0506C51.9381 35.1055 51.8695 35.1604 51.8009 35.229C51.5263 37.7272 52.8029 38.139 53.2833 38.3449C55.4109 39.0038 58.2385 36.2036 59.1856 35.1192ZM56.9619 32.6485C57.2639 32.827 57.6894 32.8681 58.1698 32.8681C58.4306 32.8819 58.4444 32.7721 58.2248 32.5524C57.9228 32.2367 57.6483 32.0308 57.2227 32.0583C56.7972 32.1132 56.7149 32.4014 56.9619 32.6485ZM45.5966 26.9384C45.6378 26.8698 45.528 26.8286 45.4731 26.9384C42.9886 31.8936 45.6241 36.5056 51.2244 33.6231C53.2833 32.5799 54.5187 31.6053 54.9854 30.9327C55.2187 30.5896 55.8227 28.9424 54.2853 28.4895C53.4755 28.2012 52.5558 28.1051 51.7322 27.7483C51.0459 27.4188 50.9361 27.158 51.444 26.2658C52.1715 25.0991 53.8461 23.0127 54.45 24.4814C54.5736 24.7559 54.7108 24.6598 54.7657 24.4265C54.903 23.8637 54.8618 23.4108 54.601 23.0539C54.3265 22.697 53.9147 22.6558 53.297 23.0264C52.2127 23.7539 51.3342 25.0991 50.8675 26.5678C50.5792 27.5698 50.7165 28.1738 51.0871 28.6816C51.5813 29.3405 54.4089 29.615 54.6834 29.917C54.7383 29.9994 54.9305 30.1092 54.7383 30.3013C48.6164 35.0232 42.8788 33.8153 45.5966 26.9384ZM46.379 25.1265L47.381 25.8129L46.8869 26.6639L47.381 27.007L46.8869 27.8581L47.381 28.2012L46.8732 29.0797L45.9398 28.3522L46.379 27.5149L45.9398 27.1718L46.379 26.3345L45.9398 25.9913L46.379 25.1265ZM37.8138 17.9752C38.3492 18.3732 38.5962 18.7576 38.9531 19.1282C39.4061 19.5811 40.6552 20.4459 41.6297 20.7891C43.4416 21.5028 42.5631 22.1205 42.4121 22.2029C41.3278 22.9166 40.2434 23.6441 39.159 24.3579C36.5785 26.005 35.1098 25.3736 36.4412 21.9832C36.4687 21.9146 36.3726 21.8597 36.3451 21.9695C35.096 24.8932 35.7 27.1855 37.8825 26.1697C37.0177 29.2444 38.9668 31.0014 41.0258 29.917C42.1101 29.313 43.4279 28.4071 44.2377 27.3914C44.9378 26.6913 45.4868 25.6893 45.4593 24.7697C45.926 24.7559 46.3516 24.6736 46.7496 24.5089C48.6164 23.6716 48.1909 21.6126 47.3261 20.3224C47.2438 20.1988 47.2987 20.0341 47.3948 20.0753C47.4634 20.1027 47.532 20.1439 47.6006 20.1714C47.7242 20.2263 47.7791 20.0341 47.6418 19.8968C47.2712 19.5674 46.9006 19.238 46.53 18.8948C46.4888 19.2929 46.3927 19.6635 46.3653 20.0616C46.5163 20.1988 46.681 20.4184 46.7496 20.5969C46.983 21.091 47.3673 21.8185 47.6693 22.3401C47.8614 22.697 47.8477 22.8068 47.5595 23.0539C46.6673 23.6578 45.0338 23.9598 44.1691 23.0676C44.1279 23.3559 44.1005 23.6304 44.0593 23.9186C46.2829 25.5658 44.0318 26.76 42.8925 27.6933C39.9002 29.917 37.3746 29.2993 38.0335 26.0599C38.2943 25.9227 38.5825 25.7442 38.8845 25.5109C39.8316 24.8246 40.8885 24.1932 41.8356 23.5343C42.7553 22.8205 43.0024 22.3676 42.9337 21.3244C42.8788 20.4047 42.7416 20.3086 41.918 19.7596C40.765 19.2792 39.7218 18.7164 38.9668 18.0301C38.8708 17.9614 38.8296 17.8379 38.9943 17.8242H39.3786C39.5022 17.8242 39.5296 17.7006 39.3924 17.6457C38.9119 17.3987 38.3629 17.1516 37.9511 16.8771C37.8138 16.8084 37.7452 16.9045 37.7315 17.0281C37.7178 17.3163 37.704 17.7006 37.8138 17.9752ZM34.4372 24.1932L35.4255 24.8657L34.9176 25.7305L34.0117 25.0167L33.5999 25.7305L32.6802 25.003L33.1195 24.1794L34.094 24.8383L34.4372 24.1932ZM19.5168 22.093C17.8971 28.5856 25.1582 26.8286 27.7662 24.1383C28.1231 23.6304 28.6035 23.4657 27.5054 21.1459C27.6427 20.9263 27.7113 20.6518 27.7113 20.3361C27.7113 20.1851 27.8349 20.1576 27.8898 20.3086C28.4388 21.7636 29.9761 21.5714 30.6213 20.6243C30.786 20.3773 31.0056 20.1027 31.1703 19.8557C31.239 19.7459 31.5409 19.7321 31.3076 20.0067C31.1566 20.2263 31.1841 20.5145 31.3213 20.693C32.2959 21.7773 32.9273 20.5008 33.2018 19.6498C33.2842 19.4439 33.5038 19.4439 33.3803 19.6772C33.2979 19.8419 33.2842 20.5969 33.8607 20.7753C34.6842 20.9538 35.1647 20.7616 35.7549 20.3773C36.002 20.1165 36.3863 20.0204 35.9059 19.4027C35.4255 18.7027 35 18.0575 34.849 17.1791C34.849 16.9045 34.7254 16.7535 34.6019 16.7261C34.6705 16.5614 34.7666 16.3417 34.8352 16.1908C34.9039 16.0947 34.9862 16.026 35.0549 16.1359C35.3157 16.4378 35.6588 16.8496 35.9745 17.083C36.0843 17.1928 36.0157 17.2751 35.8922 17.234C35.7823 17.1928 35.4529 17.0692 35.5353 17.33C35.7137 17.8791 36.2628 18.6615 36.3726 19.5811C36.4824 20.5969 35.7 21.2557 35 21.7773C34.1215 22.3813 33.5724 21.9283 33.1744 21.1322C33.1195 20.9949 32.9273 20.9949 32.8861 21.1871C32.639 22.3127 31.3762 22.6833 30.9782 21.6813C30.8546 21.3518 30.7723 21.3106 30.5527 21.5577C30.0311 22.1342 29.5644 22.5323 28.7957 22.4225C28.5074 22.3813 28.48 22.5323 28.48 22.6833C28.4525 24.6598 27.6564 25.1265 26.3112 26.2384C23.3464 28.5169 17.7049 29.0248 19.3383 22.1479C19.4618 21.8322 19.5854 21.846 19.5168 22.093ZM79.6789 38.5233C80.1318 38.9626 80.9005 39.5803 81.3535 39.9097C81.6143 40.1156 81.4907 40.2803 81.3672 40.1842C81.3123 40.143 81.2437 40.1293 81.1888 40.1156C80.8593 40.0195 80.8593 40.2117 81.0652 40.4176C81.4496 40.8431 81.6143 41.3647 81.6692 41.9275C81.6555 42.9707 81.1613 43.8079 80.0358 44.357C79.2945 44.6727 78.7043 44.5903 77.9631 44.0276C77.5925 43.753 77.3317 42.8883 77.1258 41.9C76.7003 42.0098 76.2473 42.2294 75.7943 42.5589C74.7786 43.3962 73.8589 44.4394 73.0079 45.5649C71.5941 47.4042 70.6333 47.5278 69.5626 46.4846C69.1646 45.9904 68.9861 45.3865 68.9861 44.6864C68.1214 44.8237 67.188 44.7688 66.186 44.4394C63.9074 43.506 64.0721 40.3901 64.731 39.2646C64.8408 39.0861 64.9232 39.1959 64.8408 39.3744C64.2094 41.4608 64.5663 41.9961 65.4173 42.7099C66.5703 43.506 67.7233 43.6844 69.1234 43.3962C69.2332 42.8197 69.4254 42.2157 69.645 41.5706C69.6724 41.447 69.8097 41.4745 69.7548 41.6255C69.5489 42.2706 69.4116 42.8471 69.3156 43.355C69.9744 43.204 70.7019 42.9432 71.498 42.6138C72.3353 42.202 73.104 41.6804 73.8864 41.1039C74.5315 40.6097 74.5178 40.3489 74.3668 39.443C73.8864 36.6291 73.2001 32.3603 72.9942 31.7975C72.802 31.3171 73.0079 30.9465 73.1589 30.4935C73.5707 31.1661 73.955 31.9622 74.4492 32.9093C74.5864 33.1838 74.4354 33.225 74.2845 33.0191C74.2158 32.9505 74.1472 32.9093 74.0511 32.8544C73.8178 32.7446 73.8452 32.8819 73.9001 33.1152C74.0511 33.9113 74.8472 37.686 74.8335 39.4156C74.8198 40.294 74.6688 41.5706 73.7903 42.2157C72.4726 43.1903 70.9764 44.2884 69.2057 44.6315C69.2469 45.6884 69.7273 46.1963 70.5784 46.1551C71.2235 46.1002 72.1569 45.359 73.804 43.1216C74.9021 41.7902 75.7257 41.2274 76.4807 40.898C76.6316 40.8294 76.7826 40.7745 76.9336 40.7333C76.8924 40.4999 76.865 40.2529 76.8375 40.0195C76.3846 36.0938 75.8493 32.4289 75.0531 30.466C75.1218 30.1366 75.2316 29.8072 75.3139 29.4915C76.0414 30.4935 76.8238 35.4898 77.2219 38.8802C77.2905 39.4705 77.3729 40.0332 77.4689 40.6097C78.2102 40.4999 78.8004 40.747 79.1847 41.4882C79.2396 41.8726 79.2122 42.2569 79.1435 42.6687C78.7455 42.1196 78.2513 41.8588 77.716 41.8314C77.7709 42.0647 77.8258 42.2981 77.8945 42.5314C78.32 43.6021 80.5299 43.3001 81.1064 42.6412C81.3123 42.3941 81.4496 42.2294 81.2711 41.9137C80.777 41.1588 80.3103 40.1842 79.8161 39.6764C79.7887 39.3332 79.7201 38.8802 79.6789 38.5233Z" fill="black"></path><path d="M82.1225 80.3467H19.0916V80.58H82.1225V80.3467Z" fill="black"></path><path d="M82.1225 84.4639H19.0916V84.6972H82.1225V84.4639Z" fill="black"></path></g><defs><clipPath id="clip0_9871_3381"><rect width="64.7755" height="69" fill="white" transform="translate(18 16)"></rect></clipPath></defs></svg> 