<?xml version="1.0" encoding="UTF-8"?>
<svg xmlns="http://www.w3.org/2000/svg" xmlns:xlink="http://www.w3.org/1999/xlink" width="96px" height="55px" viewBox="0 0 96 55" version="1.1">
<defs>
<linearGradient id="linear0" gradientUnits="userSpaceOnUse" x1="6.98377" y1="27.9541" x2="59.4925" y2="3.75211" gradientTransform="matrix(1.21519,0,0,1.222222,0,0)">
<stop offset="0" style="stop-color:rgb(94.901961%,5.882353%,5.882353%);stop-opacity:1;"/>
<stop offset="0.359375" style="stop-color:rgb(52.54902%,5.490196%,99.607843%);stop-opacity:1;"/>
<stop offset="0.677083" style="stop-color:rgb(37.647059%,27.843137%,100%);stop-opacity:1;"/>
<stop offset="1" style="stop-color:rgb(0%,53.333333%,81.960784%);stop-opacity:1;"/>
</linearGradient>
<linearGradient id="linear1" gradientUnits="userSpaceOnUse" x1="77.7531" y1="1.47269" x2="65.5804" y2="8.4886" gradientTransform="matrix(1.21519,0,0,1.222222,0,0)">
<stop offset="0" style="stop-color:rgb(98.823529%,24.313725%,20.784314%);stop-opacity:1;"/>
<stop offset="1" style="stop-color:rgb(50.980392%,31.372549%,100%);stop-opacity:1;"/>
</linearGradient>
<linearGradient id="linear2" gradientUnits="userSpaceOnUse" x1="76.5587" y1="6.71982" x2="66.8357" y2="11.7694" gradientTransform="matrix(1.21519,0,0,1.222222,0,0)">
<stop offset="0" style="stop-color:rgb(0.392157%,60.784314%,89.803922%);stop-opacity:1;"/>
<stop offset="1" style="stop-color:rgb(52.54902%,5.490196%,99.607843%);stop-opacity:1;"/>
</linearGradient>
</defs>
<g id="surface1">
<path style=" stroke:none;fill-rule:nonzero;fill:rgb(14.901961%,14.901961%,14.901961%);fill-opacity:1;" d="M 9.464844 45.875 L 8.480469 45.875 C 8.375 45.875 8.292969 45.960938 8.292969 46.0625 L 8.292969 46.988281 C 8.292969 47.09375 8.375 47.175781 8.480469 47.175781 L 9.464844 47.175781 C 9.566406 47.175781 9.652344 47.09375 9.652344 46.988281 L 9.652344 46.0625 C 9.652344 45.960938 9.566406 45.875 9.464844 45.875 Z M 9.464844 45.875 "/>
<path style=" stroke:none;fill-rule:nonzero;fill:rgb(14.901961%,14.901961%,14.901961%);fill-opacity:1;" d="M 22.558594 52.171875 L 20.066406 52.171875 C 19.960938 52.171875 19.878906 52.253906 19.878906 52.359375 L 19.878906 53.296875 C 19.878906 53.402344 19.960938 53.484375 20.066406 53.484375 L 22.558594 53.484375 C 22.664062 53.484375 22.746094 53.402344 22.746094 53.296875 L 22.746094 52.359375 C 22.746094 52.253906 22.664062 52.171875 22.558594 52.171875 Z M 22.558594 52.171875 "/>
<path style=" stroke:none;fill-rule:nonzero;fill:rgb(14.901961%,14.901961%,14.901961%);fill-opacity:1;" d="M 23.066406 46.25 L 21.769531 46.574219 C 21.730469 46.582031 21.695312 46.605469 21.667969 46.640625 C 21.640625 46.675781 21.628906 46.714844 21.628906 46.757812 L 21.628906 48.601562 C 21.628906 48.707031 21.609375 48.8125 21.570312 48.910156 C 21.53125 49.003906 21.472656 49.09375 21.398438 49.167969 C 21.324219 49.242188 21.238281 49.300781 21.140625 49.34375 C 21.042969 49.382812 20.941406 49.402344 20.835938 49.402344 L 12.753906 49.402344 C 12.730469 49.402344 12.710938 49.394531 12.691406 49.386719 C 12.667969 49.378906 12.652344 49.367188 12.636719 49.351562 C 12.621094 49.335938 12.609375 49.316406 12.597656 49.296875 C 12.589844 49.277344 12.585938 49.253906 12.585938 49.234375 L 12.585938 46.421875 C 12.585938 46.394531 12.578125 46.367188 12.566406 46.339844 C 12.554688 46.316406 12.535156 46.292969 12.515625 46.273438 C 12.492188 46.257812 12.464844 46.246094 12.4375 46.238281 C 12.410156 46.234375 12.378906 46.234375 12.351562 46.242188 L 11.042969 46.570312 C 11.003906 46.582031 10.964844 46.605469 10.941406 46.636719 C 10.914062 46.671875 10.902344 46.710938 10.902344 46.753906 L 10.902344 51.65625 C 10.902344 51.761719 10.882812 51.863281 10.84375 51.960938 C 10.804688 52.058594 10.746094 52.148438 10.671875 52.222656 C 10.601562 52.300781 10.515625 52.363281 10.421875 52.40625 C 10.328125 52.445312 10.222656 52.46875 10.121094 52.464844 L 9.03125 52.464844 C 8.890625 52.464844 8.753906 52.425781 8.636719 52.351562 C 8.519531 52.277344 8.417969 52.175781 8.347656 52.054688 C 8.273438 51.933594 8.238281 51.796875 8.238281 51.65625 L 8.238281 48.617188 C 8.238281 48.585938 8.230469 48.558594 8.21875 48.53125 C 8.207031 48.507812 8.1875 48.484375 8.164062 48.464844 C 8.144531 48.449219 8.117188 48.4375 8.089844 48.429688 C 8.0625 48.425781 8.03125 48.425781 8.003906 48.433594 L 6.707031 48.765625 C 6.664062 48.773438 6.628906 48.796875 6.605469 48.832031 C 6.578125 48.863281 6.566406 48.90625 6.566406 48.945312 L 6.566406 51.65625 C 6.5625 52.097656 6.675781 52.527344 6.894531 52.90625 C 7.113281 53.28125 7.421875 53.589844 7.792969 53.808594 C 8.167969 54.03125 8.597656 54.148438 9.03125 54.144531 L 10.117188 54.144531 C 10.554688 54.148438 10.984375 54.03125 11.359375 53.808594 C 11.730469 53.589844 12.039062 53.28125 12.253906 52.90625 C 12.476562 52.527344 12.589844 52.097656 12.585938 51.65625 L 12.585938 51.257812 C 12.585938 51.234375 12.589844 51.214844 12.597656 51.191406 C 12.605469 51.171875 12.621094 51.152344 12.636719 51.136719 C 12.648438 51.121094 12.667969 51.109375 12.6875 51.101562 C 12.710938 51.09375 12.730469 51.089844 12.753906 51.089844 L 20.835938 51.089844 C 21.265625 51.089844 21.691406 50.972656 22.0625 50.753906 C 22.4375 50.539062 22.753906 50.226562 22.96875 49.851562 C 23.191406 49.472656 23.304688 49.042969 23.300781 48.601562 L 23.300781 46.433594 C 23.300781 46.40625 23.296875 46.375 23.28125 46.351562 C 23.269531 46.324219 23.25 46.300781 23.230469 46.285156 C 23.207031 46.265625 23.179688 46.253906 23.152344 46.25 C 23.125 46.242188 23.097656 46.242188 23.066406 46.25 Z M 23.066406 46.25 "/>
<path style=" stroke:none;fill-rule:nonzero;fill:rgb(14.901961%,14.901961%,14.901961%);fill-opacity:1;" d="M 29.039062 46.125 L 26.757812 46.125 C 26.324219 46.125 25.894531 46.242188 25.519531 46.464844 C 25.148438 46.6875 24.839844 47 24.625 47.375 C 24.402344 47.75 24.289062 48.175781 24.292969 48.613281 C 24.289062 49.054688 24.40625 49.492188 24.640625 49.871094 C 24.855469 50.234375 25.15625 50.542969 25.515625 50.765625 C 25.867188 50.980469 26.207031 51.085938 26.542969 51.085938 L 26.699219 51.085938 C 26.714844 51.085938 26.734375 51.09375 26.746094 51.101562 C 26.761719 51.113281 26.773438 51.128906 26.777344 51.144531 C 26.785156 51.164062 26.785156 51.183594 26.777344 51.199219 C 26.769531 51.214844 26.757812 51.230469 26.746094 51.242188 L 25.027344 52.382812 C 25.007812 52.398438 24.988281 52.414062 24.972656 52.4375 C 24.960938 52.457031 24.949219 52.480469 24.945312 52.503906 C 24.941406 52.527344 24.941406 52.554688 24.945312 52.578125 C 24.949219 52.601562 24.960938 52.625 24.972656 52.648438 L 25.699219 53.734375 C 25.726562 53.773438 25.769531 53.804688 25.816406 53.8125 C 25.867188 53.824219 25.917969 53.8125 25.957031 53.785156 L 29.144531 51.644531 C 29.167969 51.628906 29.191406 51.605469 29.203125 51.578125 C 29.21875 51.550781 29.226562 51.519531 29.226562 51.488281 L 29.226562 46.316406 C 29.226562 46.289062 29.222656 46.265625 29.210938 46.242188 C 29.203125 46.21875 29.1875 46.199219 29.171875 46.183594 C 29.152344 46.164062 29.132812 46.148438 29.109375 46.140625 C 29.085938 46.132812 29.0625 46.125 29.039062 46.125 Z M 27.550781 49.402344 L 26.757812 49.402344 C 26.621094 49.402344 26.484375 49.363281 26.363281 49.292969 C 26.242188 49.226562 26.144531 49.125 26.074219 49.003906 C 26.003906 48.882812 25.964844 48.746094 25.964844 48.605469 C 25.964844 48.464844 26 48.328125 26.070312 48.207031 C 26.136719 48.085938 26.238281 47.980469 26.355469 47.910156 C 26.480469 47.839844 26.617188 47.800781 26.757812 47.800781 L 27.554688 47.800781 Z M 27.550781 49.402344 "/>
<path style=" stroke:none;fill-rule:nonzero;fill:rgb(14.901961%,14.901961%,14.901961%);fill-opacity:1;" d="M 32.253906 50.898438 L 32.253906 43.675781 C 32.253906 43.644531 32.25 43.617188 32.234375 43.589844 C 32.222656 43.566406 32.207031 43.542969 32.183594 43.523438 C 32.160156 43.507812 32.132812 43.496094 32.105469 43.488281 C 32.078125 43.484375 32.046875 43.484375 32.019531 43.492188 L 30.722656 43.8125 C 30.683594 43.824219 30.644531 43.847656 30.621094 43.882812 C 30.59375 43.914062 30.582031 43.957031 30.582031 43.996094 L 30.582031 50.898438 C 30.582031 50.949219 30.601562 50.996094 30.636719 51.03125 C 30.671875 51.066406 30.71875 51.085938 30.769531 51.085938 L 32.066406 51.085938 C 32.117188 51.085938 32.164062 51.066406 32.199219 51.03125 C 32.234375 50.996094 32.253906 50.949219 32.253906 50.898438 Z M 32.253906 50.898438 "/>
<path style=" stroke:none;fill-rule:nonzero;fill:rgb(14.901961%,14.901961%,14.901961%);fill-opacity:1;" d="M 35.03125 46.253906 L 33.722656 46.585938 C 33.679688 46.59375 33.644531 46.617188 33.621094 46.652344 C 33.59375 46.683594 33.578125 46.726562 33.582031 46.769531 L 33.582031 51.003906 C 33.582031 51.035156 33.574219 51.066406 33.558594 51.09375 C 33.542969 51.121094 33.523438 51.144531 33.496094 51.160156 L 31.679688 52.382812 C 31.65625 52.398438 31.640625 52.417969 31.625 52.4375 C 31.613281 52.457031 31.601562 52.480469 31.597656 52.503906 C 31.59375 52.53125 31.59375 52.554688 31.597656 52.578125 C 31.605469 52.601562 31.613281 52.625 31.628906 52.648438 L 32.351562 53.734375 C 32.378906 53.773438 32.421875 53.804688 32.472656 53.8125 C 32.519531 53.824219 32.570312 53.8125 32.613281 53.785156 L 35.179688 52.058594 C 35.207031 52.039062 35.226562 52.015625 35.242188 51.988281 C 35.257812 51.960938 35.265625 51.929688 35.265625 51.898438 L 35.265625 46.433594 C 35.265625 46.40625 35.257812 46.378906 35.246094 46.351562 C 35.230469 46.328125 35.214844 46.304688 35.191406 46.289062 C 35.167969 46.269531 35.140625 46.257812 35.113281 46.25 C 35.085938 46.246094 35.058594 46.246094 35.03125 46.253906 Z M 35.03125 46.253906 "/>
<path style=" stroke:none;fill-rule:nonzero;fill:rgb(14.901961%,14.901961%,14.901961%);fill-opacity:1;" d="M 50.535156 46.449219 C 50.160156 46.226562 49.730469 46.113281 49.296875 46.117188 L 47.015625 46.117188 C 46.964844 46.117188 46.917969 46.136719 46.882812 46.171875 C 46.847656 46.207031 46.828125 46.253906 46.828125 46.304688 L 46.828125 48.601562 C 46.828125 48.8125 46.742188 49.015625 46.59375 49.164062 C 46.445312 49.316406 46.246094 49.398438 46.035156 49.402344 L 40.882812 49.402344 C 40.261719 49.402344 39.664062 49.648438 39.226562 50.09375 C 38.785156 50.535156 38.539062 51.136719 38.539062 51.765625 C 38.539062 52.394531 38.785156 52.996094 39.226562 53.4375 C 39.664062 53.882812 40.261719 54.132812 40.882812 54.132812 L 44.851562 54.132812 C 44.890625 54.132812 44.929688 54.117188 44.964844 54.09375 C 44.996094 54.066406 45.019531 54.03125 45.03125 53.992188 L 45.382812 52.695312 C 45.390625 52.667969 45.394531 52.636719 45.386719 52.609375 C 45.382812 52.582031 45.371094 52.554688 45.351562 52.53125 C 45.335938 52.507812 45.3125 52.488281 45.285156 52.476562 C 45.261719 52.460938 45.230469 52.457031 45.203125 52.457031 L 40.882812 52.457031 C 40.703125 52.457031 40.527344 52.382812 40.402344 52.253906 C 40.273438 52.125 40.199219 51.949219 40.199219 51.765625 C 40.199219 51.675781 40.21875 51.589844 40.25 51.507812 C 40.285156 51.425781 40.335938 51.351562 40.402344 51.289062 C 40.464844 51.222656 40.539062 51.171875 40.621094 51.136719 C 40.707031 51.101562 40.792969 51.085938 40.882812 51.085938 L 46.035156 51.085938 C 46.339844 51.089844 46.640625 51.027344 46.921875 50.90625 C 47.148438 50.808594 47.355469 50.683594 47.546875 50.523438 C 47.578125 50.496094 47.621094 50.480469 47.667969 50.480469 C 47.710938 50.480469 47.753906 50.496094 47.785156 50.523438 C 47.976562 50.683594 48.1875 50.808594 48.410156 50.90625 C 48.691406 51.027344 48.992188 51.089844 49.296875 51.085938 C 49.730469 51.089844 50.160156 50.976562 50.535156 50.753906 C 50.910156 50.535156 51.21875 50.222656 51.433594 49.84375 C 51.652344 49.464844 51.769531 49.03125 51.765625 48.589844 C 51.769531 48.15625 51.652344 47.726562 51.433594 47.351562 C 51.21875 46.980469 50.90625 46.667969 50.535156 46.449219 Z M 49.851562 49.164062 C 49.777344 49.242188 49.691406 49.300781 49.59375 49.34375 C 49.496094 49.382812 49.390625 49.402344 49.285156 49.402344 C 49.179688 49.402344 49.078125 49.382812 48.984375 49.34375 C 48.886719 49.300781 48.800781 49.242188 48.730469 49.164062 C 48.65625 49.089844 48.597656 49.003906 48.558594 48.90625 C 48.519531 48.808594 48.5 48.707031 48.503906 48.601562 L 48.503906 47.800781 L 49.285156 47.800781 C 49.390625 47.800781 49.496094 47.820312 49.59375 47.859375 C 49.691406 47.902344 49.777344 47.960938 49.851562 48.039062 C 49.996094 48.1875 50.078125 48.390625 50.078125 48.601562 C 50.078125 48.8125 49.996094 49.015625 49.851562 49.167969 Z M 49.851562 49.164062 "/>
<path style=" stroke:none;fill-rule:nonzero;fill:rgb(14.901961%,14.901961%,14.901961%);fill-opacity:1;" d="M 56.433594 46.125 L 52.863281 46.125 C 52.8125 46.125 52.765625 46.144531 52.730469 46.183594 C 52.695312 46.21875 52.675781 46.265625 52.675781 46.316406 L 52.675781 47.625 C 52.675781 47.675781 52.695312 47.722656 52.730469 47.757812 C 52.765625 47.792969 52.8125 47.8125 52.863281 47.8125 L 54.957031 47.8125 L 54.957031 48.601562 C 54.960938 48.707031 54.941406 48.8125 54.898438 48.910156 C 54.859375 49.007812 54.800781 49.097656 54.722656 49.171875 C 54.648438 49.246094 54.5625 49.304688 54.464844 49.34375 C 54.371094 49.382812 54.265625 49.402344 54.164062 49.402344 L 52.863281 49.402344 C 52.8125 49.402344 52.765625 49.421875 52.730469 49.457031 C 52.695312 49.492188 52.675781 49.539062 52.675781 49.589844 L 52.675781 50.898438 C 52.675781 50.949219 52.695312 50.996094 52.730469 51.03125 C 52.765625 51.066406 52.8125 51.085938 52.863281 51.085938 L 54.164062 51.085938 C 54.597656 51.089844 55.023438 50.976562 55.398438 50.753906 C 55.765625 50.535156 56.074219 50.222656 56.289062 49.851562 C 56.507812 49.476562 56.621094 49.046875 56.621094 48.613281 L 56.621094 46.316406 C 56.621094 46.265625 56.601562 46.21875 56.566406 46.183594 C 56.53125 46.148438 56.484375 46.125 56.433594 46.125 Z M 56.433594 46.125 "/>
<path style=" stroke:none;fill-rule:nonzero;fill:rgb(14.901961%,14.901961%,14.901961%);fill-opacity:1;" d="M 68.777344 46.460938 C 68.402344 46.238281 67.976562 46.125 67.542969 46.125 L 63.707031 46.125 L 65.878906 44.851562 C 65.902344 44.839844 65.921875 44.820312 65.9375 44.800781 C 65.953125 44.777344 65.960938 44.753906 65.96875 44.730469 C 65.972656 44.703125 65.972656 44.679688 65.96875 44.652344 C 65.964844 44.628906 65.957031 44.605469 65.941406 44.582031 L 65.285156 43.597656 C 65.261719 43.5625 65.222656 43.539062 65.183594 43.527344 C 65.140625 43.519531 65.097656 43.527344 65.0625 43.546875 L 60.726562 46.082031 C 60.699219 46.09375 60.679688 46.117188 60.664062 46.140625 C 60.652344 46.167969 60.644531 46.195312 60.644531 46.226562 L 60.644531 47.648438 C 60.644531 47.691406 60.660156 47.734375 60.691406 47.765625 C 60.722656 47.796875 60.765625 47.8125 60.808594 47.8125 L 67.542969 47.8125 C 67.644531 47.8125 67.75 47.832031 67.84375 47.871094 C 67.941406 47.910156 68.027344 47.96875 68.101562 48.042969 C 68.175781 48.113281 68.238281 48.199219 68.277344 48.296875 C 68.316406 48.394531 68.335938 48.496094 68.335938 48.601562 C 68.339844 48.710938 68.316406 48.820312 68.273438 48.925781 C 68.230469 49.027344 68.164062 49.117188 68.082031 49.191406 C 67.929688 49.328125 67.734375 49.402344 67.53125 49.402344 L 59.328125 49.402344 L 59.328125 43.675781 C 59.328125 43.644531 59.320312 43.617188 59.304688 43.589844 C 59.292969 43.5625 59.273438 43.539062 59.25 43.523438 C 59.226562 43.503906 59.199219 43.492188 59.171875 43.488281 C 59.144531 43.484375 59.113281 43.484375 59.085938 43.492188 L 57.789062 43.875 C 57.75 43.886719 57.714844 43.910156 57.691406 43.941406 C 57.664062 43.976562 57.652344 44.015625 57.652344 44.058594 L 57.652344 50.898438 C 57.652344 50.949219 57.671875 50.996094 57.707031 51.03125 C 57.742188 51.066406 57.789062 51.085938 57.839844 51.085938 L 67.542969 51.085938 C 67.976562 51.089844 68.402344 50.972656 68.777344 50.753906 C 69.148438 50.535156 69.464844 50.222656 69.683594 49.851562 C 69.902344 49.472656 70.019531 49.042969 70.019531 48.605469 C 70.019531 48.167969 69.902344 47.742188 69.683594 47.363281 C 69.464844 46.988281 69.148438 46.679688 68.777344 46.460938 Z M 68.777344 46.460938 "/>
<path style=" stroke:none;fill-rule:nonzero;fill:rgb(14.901961%,14.901961%,14.901961%);fill-opacity:1;" d="M 72.472656 43.492188 L 71.171875 43.8125 C 71.132812 43.824219 71.097656 43.847656 71.070312 43.882812 C 71.046875 43.914062 71.03125 43.957031 71.03125 43.996094 L 71.03125 50.898438 C 71.03125 50.949219 71.050781 50.996094 71.085938 51.03125 C 71.121094 51.066406 71.167969 51.085938 71.21875 51.085938 L 72.519531 51.085938 C 72.566406 51.085938 72.617188 51.066406 72.652344 51.03125 C 72.6875 50.996094 72.707031 50.949219 72.707031 50.898438 L 72.707031 43.675781 C 72.707031 43.644531 72.699219 43.617188 72.6875 43.589844 C 72.675781 43.566406 72.65625 43.542969 72.632812 43.523438 C 72.609375 43.507812 72.585938 43.496094 72.554688 43.488281 C 72.527344 43.484375 72.5 43.484375 72.472656 43.492188 Z M 72.472656 43.492188 "/>
<path style=" stroke:none;fill-rule:nonzero;fill:rgb(14.901961%,14.901961%,14.901961%);fill-opacity:1;" d="M 74.046875 41.484375 L 72.953125 41.101562 C 72.925781 41.089844 72.894531 41.089844 72.863281 41.09375 C 72.835938 41.097656 72.808594 41.109375 72.78125 41.125 C 72.757812 41.144531 72.738281 41.164062 72.726562 41.191406 C 72.710938 41.21875 72.703125 41.25 72.703125 41.277344 L 72.703125 41.53125 L 69.75 41.53125 C 69.699219 41.53125 69.652344 41.550781 69.617188 41.585938 C 69.582031 41.621094 69.5625 41.667969 69.5625 41.71875 L 69.5625 42.644531 C 69.5625 42.695312 69.582031 42.742188 69.617188 42.777344 C 69.652344 42.8125 69.699219 42.832031 69.75 42.832031 L 73.984375 42.832031 C 74.035156 42.832031 74.082031 42.8125 74.117188 42.777344 C 74.152344 42.742188 74.171875 42.695312 74.171875 42.644531 L 74.171875 41.664062 C 74.171875 41.621094 74.160156 41.585938 74.136719 41.550781 C 74.113281 41.519531 74.082031 41.496094 74.046875 41.484375 Z M 74.046875 41.484375 "/>
<path style=" stroke:none;fill-rule:nonzero;fill:url(#linear0);" d="M 69.648438 35.414062 L 57.402344 35.414062 C 56.238281 35.414062 55.105469 35.023438 54.1875 34.304688 L 43.582031 26.035156 C 42.664062 25.320312 41.53125 24.929688 40.367188 24.929688 C 39.203125 24.929688 38.074219 25.320312 37.152344 26.035156 L 26.550781 34.304688 C 25.628906 35.023438 24.5 35.414062 23.335938 35.414062 L 11.085938 35.414062 C 10.164062 35.414062 9.261719 35.167969 8.460938 34.703125 C 7.664062 34.242188 7 33.574219 6.539062 32.769531 L 0.703125 22.589844 C 0.242188 21.785156 0 20.871094 0 19.945312 C 0 19.015625 0.242188 18.101562 0.703125 17.296875 L 6.539062 7.117188 C 7 6.316406 7.664062 5.648438 8.460938 5.183594 C 9.257812 4.71875 10.164062 4.472656 11.085938 4.472656 L 23.335938 4.472656 C 24.5 4.472656 25.628906 4.863281 26.550781 5.582031 L 37.152344 13.851562 C 38.074219 14.566406 39.203125 14.957031 40.367188 14.957031 C 41.53125 14.957031 42.664062 14.566406 43.582031 13.851562 L 54.1875 5.578125 C 55.105469 4.863281 56.238281 4.472656 57.402344 4.472656 L 69.648438 4.472656 C 70.570312 4.472656 71.476562 4.714844 72.273438 5.179688 C 73.070312 5.644531 73.734375 6.3125 74.195312 7.117188 L 80.03125 17.296875 C 80.492188 18.101562 80.734375 19.015625 80.734375 19.945312 C 80.734375 20.871094 80.492188 21.785156 80.03125 22.589844 L 74.195312 32.769531 C 73.734375 33.574219 73.070312 34.242188 72.273438 34.703125 C 71.476562 35.167969 70.570312 35.414062 69.648438 35.414062 Z M 59.324219 29.746094 L 66.398438 29.746094 C 67.320312 29.746094 68.226562 29.5 69.027344 29.035156 C 69.824219 28.570312 70.488281 27.902344 70.949219 27.101562 L 73.535156 22.589844 C 73.996094 21.785156 74.238281 20.871094 74.238281 19.945312 C 74.238281 19.015625 73.996094 18.101562 73.535156 17.296875 L 70.949219 12.789062 C 70.488281 11.984375 69.824219 11.316406 69.023438 10.851562 C 68.226562 10.386719 67.320312 10.140625 66.398438 10.140625 L 59.324219 10.140625 C 58.160156 10.140625 57.03125 10.53125 56.109375 11.25 L 44.960938 19.945312 L 56.109375 28.636719 C 57.03125 29.355469 58.160156 29.746094 59.324219 29.746094 Z M 14.335938 29.746094 L 21.410156 29.746094 C 22.574219 29.746094 23.707031 29.355469 24.625 28.636719 L 35.773438 19.945312 L 24.625 11.25 C 23.707031 10.53125 22.574219 10.140625 21.410156 10.140625 L 14.335938 10.140625 C 13.414062 10.140625 12.507812 10.386719 11.710938 10.851562 C 10.910156 11.316406 10.25 11.984375 9.789062 12.789062 L 7.203125 17.296875 C 6.742188 18.101562 6.5 19.015625 6.5 19.945312 C 6.5 20.871094 6.742188 21.785156 7.203125 22.589844 L 9.789062 27.101562 C 10.25 27.902344 10.910156 28.570312 11.710938 29.035156 C 12.507812 29.5 13.414062 29.746094 14.335938 29.746094 Z M 14.335938 29.746094 "/>
<path style=" stroke:none;fill-rule:nonzero;fill:url(#linear1);" d="M 93.828125 0.65625 L 95.140625 2.945312 C 95.242188 3.117188 95.269531 3.324219 95.214844 3.519531 C 95.164062 3.710938 95.039062 3.878906 94.867188 3.976562 L 81.0625 12.007812 C 80.976562 12.058594 80.871094 12.070312 80.777344 12.046875 C 80.679688 12.019531 80.597656 11.957031 80.550781 11.871094 L 79.074219 9.292969 C 78.964844 9.109375 78.9375 8.890625 78.992188 8.683594 C 79.046875 8.476562 79.179688 8.300781 79.363281 8.195312 L 92.804688 0.378906 C 92.976562 0.277344 93.179688 0.25 93.371094 0.300781 C 93.566406 0.355469 93.730469 0.480469 93.828125 0.65625 Z M 93.828125 0.65625 "/>
<path style=" stroke:none;fill-rule:nonzero;fill:url(#linear2);" d="M 92.691406 8.039062 L 79.628906 8.039062 L 79.320312 8.21875 C 79.238281 8.269531 79.160156 8.335938 79.101562 8.414062 C 79.042969 8.492188 78.996094 8.582031 78.972656 8.679688 C 78.945312 8.773438 78.941406 8.875 78.953125 8.972656 C 78.964844 9.070312 79 9.164062 79.046875 9.25 L 80.519531 11.820312 C 80.585938 11.933594 80.679688 12.027344 80.792969 12.09375 C 80.90625 12.160156 81.035156 12.195312 81.167969 12.195312 L 92.691406 12.195312 C 92.890625 12.195312 93.082031 12.117188 93.222656 11.976562 C 93.363281 11.832031 93.441406 11.640625 93.441406 11.441406 L 93.441406 8.796875 C 93.441406 8.59375 93.363281 8.402344 93.222656 8.261719 C 93.082031 8.121094 92.890625 8.039062 92.691406 8.039062 Z M 92.691406 8.039062 "/>
</g>
</svg>
