<?xml version="1.0" encoding="UTF-8"?> <svg xmlns="http://www.w3.org/2000/svg" width="100" height="100" viewBox="0 0 100 100" fill="none"><path fill-rule="evenodd" clip-rule="evenodd" d="M49.7092 15C59.6796 15 67.7871 22.9974 67.7871 32.8445C67.7871 42.7091 59.6796 50.7065 49.7092 50.7065C39.7212 50.7065 31.6313 42.7091 31.6313 32.8445C31.6313 22.9974 39.7212 15 49.7092 15ZM48.0948 19.0163C55.6702 19.0163 61.8085 25.1465 61.8085 32.7035C61.8085 40.2782 55.6702 46.4084 48.0948 46.4084C40.5018 46.4084 34.3634 40.2782 34.3634 32.7035C34.3634 25.1465 40.5018 19.0163 48.0948 19.0163Z" fill="#171717"></path><path fill-rule="evenodd" clip-rule="evenodd" d="M48.1646 19.3862C55.5803 19.3862 61.5944 25.3579 61.5944 32.7035C61.5944 40.0668 55.5803 46.0208 48.1646 46.0208C40.749 46.0208 34.7526 40.0668 34.7526 32.7035C34.7526 25.3579 40.749 19.3862 48.1646 19.3862ZM49.5839 23.1383C55.1368 23.1383 59.6429 27.366 59.6429 32.5802C59.6429 37.7944 55.1368 42.0045 49.5839 42.0045C44.031 42.0045 39.5248 37.7944 39.5248 32.5802C39.5248 27.366 44.031 23.1383 49.5839 23.1383Z" fill="#171717"></path><path fill-rule="evenodd" clip-rule="evenodd" d="M65.8172 58.4744C65.8527 57.3823 66.5978 56.9595 67.2897 56.9595C67.5381 56.9419 68.0703 56.9419 68.2832 56.9419C68.2477 59.5138 68.3364 62.0328 68.3009 64.6046C68.1945 66.7889 66.2607 68.7971 64.1318 69.0966C64.1141 68.3215 64.1673 67.3526 64.1496 66.5776C64.9302 65.9082 65.6043 65.3797 65.7995 64.2171C65.7995 62.4027 65.8172 60.2888 65.8172 58.4744Z" fill="#171717"></path><path fill-rule="evenodd" clip-rule="evenodd" d="M56.714 58.6505C56.714 57.3998 57.3704 56.9418 58.2042 56.9594L59.251 56.977V60.6939C59.1977 62.5083 57.5124 64.2875 55.7915 64.5693C53.5561 64.904 51.7821 64.2346 51.1079 63.4419C50.4692 63.9704 49.7596 64.5693 48.5887 64.5869C47.3291 64.6045 46.0695 64.6222 44.8099 64.6398C43.9761 64.6222 43.3197 64.5517 42.6633 64.3403C42.681 64.6574 42.6633 65.2739 42.6278 65.7495C42.3439 67.3702 40.9956 68.9908 38.8845 69.0613L35.1412 69.0965C33.0655 69.0965 31.1317 67.2821 31.114 64.6574C31.1317 63.4948 31.0963 62.4907 31.114 61.3105C31.1317 60.4649 31.7882 59.8484 32.5155 59.8308H33.5977L33.6155 64.5165C33.6155 65.8376 34.7154 66.6656 35.567 66.6303C36.5427 66.6303 37.0749 66.6479 38.0507 66.6479C39.328 66.5422 40.1618 65.7319 40.1618 64.5869C40.0909 60.4297 40.1973 56.5367 40.1441 52.3794C40.1441 51.3577 40.8537 50.7764 41.6166 50.7588H42.6988V60.0245C42.7342 61.2576 43.4794 62.0855 44.6325 62.156C45.8921 62.1736 46.6727 62.156 47.9323 62.1736C49.0322 62.1912 49.8128 61.2576 49.8661 60.5882C49.8838 59.7074 49.8483 59.0733 49.8661 58.2101C49.8838 57.4703 50.6999 56.8714 51.2853 56.889C51.5692 56.889 52.0659 56.8537 52.403 56.8537C52.3853 57.9283 52.403 59.0733 52.3853 60.095C52.4207 61.2576 53.1481 61.9446 53.7158 62.0151C54.2126 62.0327 54.5319 62.0327 54.9932 62.0327C55.9334 61.9975 56.6785 61.2048 56.714 60.4649C56.7318 59.7074 56.714 58.6505 56.714 58.6505Z" fill="#171717"></path><path fill-rule="evenodd" clip-rule="evenodd" d="M61.24 52.2039C61.2755 51.1293 62.0206 50.7065 62.7125 50.7065C62.9608 50.7065 63.4931 50.7065 63.706 50.7065C63.6705 53.2256 63.7769 62.0333 63.7414 64.5523H61.1868C61.1868 62.7555 61.24 54.0006 61.24 52.2039Z" fill="#171717"></path><path fill-rule="evenodd" clip-rule="evenodd" d="M49.9215 54.7751L52.3697 54.7398V52.168H51.4295C50.5247 52.168 49.9038 52.5907 49.9215 53.5772V54.7751Z" fill="#171717"></path><path fill-rule="evenodd" clip-rule="evenodd" d="M58.3282 66.5073L55.88 66.5249V69.0968H56.8203C57.725 69.0968 58.3282 68.674 58.3105 67.7052L58.3282 66.5073Z" fill="#171717"></path><path fill-rule="evenodd" clip-rule="evenodd" d="M55.2251 66.5073L52.7769 66.5249V69.0968H53.7349C54.6396 69.0968 55.2428 68.674 55.2251 67.7052V66.5073Z" fill="#171717"></path><path fill-rule="evenodd" clip-rule="evenodd" d="M46.8319 54.7751L49.2801 54.7398V52.168H48.3399C47.4351 52.168 46.8142 52.5907 46.8319 53.5772V54.7751Z" fill="#171717"></path><path fill-rule="evenodd" clip-rule="evenodd" d="M38.7587 74.8739H40.4263V73.0947H39.7876C39.1667 73.0947 38.7587 73.3942 38.7587 74.0636V74.8739Z" fill="#171717"></path><path fill-rule="evenodd" clip-rule="evenodd" d="M31.131 82.5897H32.7809V78.5734C33.6325 78.5029 34.0583 78.7672 34.3776 79.2428C35.1937 80.4583 35.4243 81.5504 35.6017 82.5721H37.6064C36.9677 80.3526 36.5952 78.9081 35.105 77.904C36.1339 77.9216 36.8968 76.8119 36.9323 75.7373C36.9855 74.5571 36.3113 73.2888 34.6082 73.2007H32.3906C31.5391 73.2007 31.1488 73.6587 31.1133 74.5395L31.131 82.5897ZM32.7809 77.1818V74.7156L33.9873 74.698C34.6969 74.7156 35.1227 75.2265 35.1404 75.8959C35.1582 76.4772 34.8566 77.0937 34.0228 77.1818H32.7809Z" fill="#171717"></path><path fill-rule="evenodd" clip-rule="evenodd" d="M45.4476 81.9907C44.5428 82.9243 43.301 82.9067 42.3075 81.8321C41.4382 80.8809 41.5446 78.1153 42.0059 77.0231C42.8575 74.9973 44.8444 75.6843 45.4121 76.4594C45.8911 75.6667 46.4766 75.8076 47.204 75.8076L47.1862 83.1885C47.2217 84.7034 46.1927 85.5666 44.4541 85.4785C43.5316 85.4257 42.5736 85.0558 41.7398 84.6858C41.9172 84.2454 42.0946 83.7874 42.2543 83.3294C42.751 83.5408 43.2478 83.7698 43.7622 83.9107C44.5606 84.1045 45.4121 84.1045 45.4476 82.9947V81.9907ZM44.4541 77.2169C45.0396 77.2169 45.5186 78.1329 45.5186 79.2427C45.5186 80.37 45.0396 81.2684 44.4541 81.2684C43.8864 81.2684 43.4074 80.37 43.4074 79.2427C43.4074 78.1329 43.8864 77.2169 44.4541 77.2169Z" fill="#171717"></path><path fill-rule="evenodd" clip-rule="evenodd" d="M58.0819 82.5891L56.3078 82.5715L56.3256 74.7679L54.0902 74.8031L54.108 73.2529H59.3415C60.3705 73.2705 60.3705 74.0104 60.3705 74.7502H58.0996L58.0819 82.5891Z" fill="#171717"></path><path fill-rule="evenodd" clip-rule="evenodd" d="M61.718 79.6656C62.8534 79.648 64.1307 79.6832 65.2839 79.6656C65.3016 78.9434 65.3371 77.7103 64.8226 76.8119C64.3081 76.0545 63.4743 75.6845 62.5873 75.7374C61.718 75.7902 60.9728 76.0545 60.4229 76.9352C59.7842 78.3269 59.8552 79.8946 60.2987 81.1629C60.689 82.0437 61.5051 82.5722 62.5518 82.6955C63.4388 82.8012 64.45 82.5193 65.3193 82.0966C65.1064 81.5857 64.9468 81.1629 64.7339 80.6697C63.4033 81.4448 61.7357 81.621 61.718 79.6656ZM61.7357 78.6087H63.5807C63.5985 77.9745 63.5807 77.129 62.6937 77.1114C61.7889 77.1114 61.7002 77.9922 61.7357 78.6087Z" fill="#171717"></path><path fill-rule="evenodd" clip-rule="evenodd" d="M48.873 73.8702C48.8908 73.1127 49.4408 72.7076 49.902 72.7076C50.0617 72.7076 50.4342 72.6899 50.5584 72.6899L50.5762 76.3892C51.5697 75.4556 53.9114 75.2618 53.9824 77.5518L53.9647 82.5546L52.3502 82.5722V77.8337C52.3502 76.5477 50.5584 77.1467 50.5762 78.186L50.5939 82.5722H48.873C48.873 81.2863 48.873 75.1385 48.873 73.8702Z" fill="#171717"></path><path fill-rule="evenodd" clip-rule="evenodd" d="M38.7587 76.4944C38.7941 75.9659 39.3264 75.7017 39.7876 75.6841C39.965 75.6841 40.3199 75.6841 40.4618 75.6841V82.5541L38.7764 82.5717C38.7764 81.6733 38.7587 77.3928 38.7587 76.4944Z" fill="#171717"></path><path fill-rule="evenodd" clip-rule="evenodd" d="M66.5612 73.835C66.5789 73.0775 67.1111 72.6724 67.5901 72.6724C67.7498 72.6724 68.1046 72.6724 68.2465 72.6724L68.2643 82.5546L66.5612 82.5723C66.5612 81.2863 66.5612 75.1209 66.5612 73.835Z" fill="#171717"></path></svg> 