<?xml version="1.0" encoding="UTF-8"?> <svg xmlns="http://www.w3.org/2000/svg" width="100" height="100" viewBox="0 0 100 100" fill="none"><g clip-path="url(#clip0_9871_2632)"><path d="M38.4449 41.0193C39.2975 40.7349 40.6404 40.982 41.493 41.987C42.413 43.0712 42.7011 44.7429 41.7509 46.2258C41.8833 46.3634 42.0227 46.4939 42.1458 46.6385C42.8707 47.4849 43.1936 48.4548 42.9032 49.553C42.6872 50.3737 42.1133 50.8844 41.2816 51.1478C41.3652 50.8144 41.4372 50.5043 41.4372 50.1849C41.4372 49.0447 40.6915 48.28 39.56 48.2636C38.8166 48.2543 38.0708 48.2823 37.332 48.154C36.6257 48.0328 35.9706 47.795 35.406 47.3403C35.3805 47.3193 35.3503 47.3077 35.3085 47.282C35.2155 47.4825 35.1296 47.6761 35.0366 47.8626C34.0423 49.8281 32.4927 51.0639 30.3088 51.4439C27.0074 52.0175 24.2148 50.1662 23.2135 47.4289C22.6908 45.9996 22.6257 44.5447 23.2972 43.1434C24.1568 41.3528 25.6018 40.3805 27.5836 40.2406C29.5421 40.103 31.2265 41.4041 31.7097 43.2087C32.0977 44.652 31.647 46.0346 30.497 46.8763C30.26 47.0512 29.9975 47.1794 29.721 47.2844C29.4538 47.387 29.1704 47.4289 28.8614 47.4709C28.9985 47.5618 29.1355 47.5665 29.2633 47.5805C31.4588 47.816 33.3244 45.925 33.0735 43.7263C32.8876 42.0989 32.0559 40.9238 30.6085 40.18C30.4203 40.082 30.3413 39.9375 30.339 39.73C30.3204 37.2258 31.1544 35.0481 32.8574 33.2201C34.2374 31.7419 35.9288 30.7999 37.9198 30.4619C40.9052 29.9559 43.5398 30.7207 45.7562 32.8051C47.178 34.1435 48.0307 35.8082 48.4187 37.7178C48.5093 38.1631 48.6324 38.5991 48.8392 39.0048C48.9135 39.1471 48.9972 39.2823 49.104 39.4035C49.485 39.8419 49.9962 39.8466 50.3749 39.4082C50.6746 39.0608 50.8302 38.6411 50.9441 38.2074C51.1322 37.4916 51.2554 36.7595 51.5435 36.074C52.8747 32.9054 55.2073 30.9445 58.6016 30.4129C63.5199 29.6435 68.1665 33.0616 69.0145 37.9906C69.112 38.5642 69.1585 39.1424 69.1469 39.7253C69.1422 39.9445 69.0563 40.089 68.8634 40.187C67.5368 40.8631 66.7376 41.931 66.4496 43.4022C65.9988 45.7105 67.8598 47.795 70.197 47.5828C70.3317 47.5711 70.4711 47.5572 70.6384 47.4756C70.3015 47.4289 70.0111 47.3753 69.7323 47.2704C68.3407 46.7504 67.4927 45.3655 67.6623 43.8849C67.8807 41.9567 69.205 40.5297 71.1031 40.2732C72.5017 40.0844 73.7748 40.4784 74.8528 41.3947C76.2468 42.5792 76.809 44.1157 76.6208 45.9297C76.3537 48.5015 74.5462 50.6815 72.0486 51.3134C69.7254 51.9033 67.6158 51.423 65.8269 49.7698C65.1323 49.1287 64.6421 48.3359 64.2657 47.4686C64.2448 47.4196 64.2215 47.3706 64.1983 47.324C64.1937 47.3123 64.1797 47.3053 64.1681 47.296C64.0612 47.324 63.9915 47.4079 63.9056 47.4709C63.2272 47.9535 62.4512 48.1401 61.6427 48.2217C61.0712 48.28 60.4997 48.2543 59.9281 48.2636C58.6968 48.2846 57.8837 49.2522 58.0626 50.481C58.0951 50.6978 58.1369 50.91 58.2089 51.1525C57.3702 50.8867 56.7941 50.3784 56.5803 49.56C56.2713 48.3639 56.6523 47.3403 57.498 46.473C57.5723 46.396 57.6537 46.3284 57.7327 46.2561C56.8521 44.7079 56.9056 43.2344 58.0974 41.8774C58.8292 41.0473 60.0908 40.6976 61.041 41.017C60.8993 41.1033 60.7668 41.1732 60.653 41.2688C60.1489 41.6885 59.9746 42.4043 60.2278 43.0129C60.4881 43.6354 61.1246 44.0201 61.7705 43.9642C63.1761 43.8383 64.0845 43.0175 64.6699 41.8074C66.1452 38.7694 64.3493 35.1087 61.0549 34.3976C58.0881 33.7587 55.2142 35.7313 54.731 38.7344C54.6636 39.1517 54.6845 39.5738 54.6566 39.9934C54.6264 40.4551 54.5149 40.8888 54.278 41.2851C54.1293 41.5323 54.1432 41.7235 54.3337 41.966C56.1946 44.3022 56.0251 47.6201 53.9504 49.7722C51.7804 52.0245 48.112 52.1434 45.8096 50.0357C43.4538 47.8813 43.189 44.3792 45.1986 41.8914C45.3217 41.7398 45.3589 41.5906 45.2637 41.4367C44.8617 40.7839 44.8106 40.0611 44.7851 39.3196C44.6968 36.8388 42.8312 34.7357 40.4034 34.351C37.4459 33.8823 34.7207 35.8922 34.3327 38.8649C34.1282 40.4364 34.5348 41.8471 35.65 43.0059C36.2169 43.5934 36.9185 43.9152 37.7386 43.9688C38.4216 44.0131 39.0814 43.5608 39.2929 42.887C39.502 42.2201 39.2301 41.4973 38.6331 41.1336C38.5726 41.0963 38.5122 41.0613 38.4425 41.0193H38.4449ZM51.9012 45.6546C51.9012 44.4491 50.9417 43.4745 49.7453 43.4652C48.5743 43.4559 47.5823 44.4445 47.5776 45.6289C47.5707 46.825 48.5464 47.8113 49.7383 47.8136C50.9232 47.816 51.9012 46.8414 51.9012 45.6546Z" fill="black"></path><path d="M59.201 56.8862C60.6042 56.9189 62.1701 57.5694 63.3318 59.05C64.189 60.1435 64.4957 61.4119 64.4051 62.7875C64.3168 64.1235 63.8684 65.3103 62.9507 66.2989C62.1353 67.1779 61.1223 67.7072 59.9607 67.952C58.4924 68.2621 57.0659 68.1246 55.744 67.3924C53.9992 66.4248 53.0559 64.9163 52.9235 62.9181C52.7702 60.6285 53.9992 58.4974 56.0344 57.4901C56.8243 57.1007 57.7861 56.8862 59.1987 56.8862H59.201ZM62.5651 62.6709C62.572 62.4891 62.5535 62.1976 62.5209 61.9062C62.4071 60.8896 62.1399 59.9266 61.5219 59.0966C60.5949 57.8515 59.3473 57.3199 57.821 57.5671C56.5873 57.7676 55.7579 58.5463 55.2514 59.6585C54.6567 60.9642 54.6265 62.3352 54.9215 63.7155C55.184 64.9396 55.7486 65.9935 56.7662 66.7582C58.3994 67.9823 60.9156 67.7328 62.0005 65.5038C62.4187 64.6458 62.5627 63.7318 62.5627 62.6733L62.5651 62.6709Z" fill="black"></path><path d="M42.4688 57.3834C42.5547 58.2647 42.6407 59.1391 42.7267 60.0227C42.578 60.0857 42.4246 60.1137 42.262 60.1323C42.1877 59.8945 42.1226 59.6567 42.039 59.4282C41.6951 58.4792 41.04 57.866 40.0572 57.6328C38.8933 57.3577 37.7549 57.4347 36.6838 57.9989C35.4897 58.6284 34.7904 59.652 34.5069 60.9577C34.1538 62.5922 34.3675 64.1497 35.3038 65.5556C36.0798 66.7191 37.195 67.337 38.5819 67.4699C39.193 67.5282 39.7877 67.4839 40.3685 67.2694C40.8309 67.0968 41.0818 66.7727 41.0841 66.2714C41.0864 65.6582 41.0957 65.0427 41.0795 64.4295C41.0586 63.7253 40.8378 63.4992 40.1385 63.4129C39.8621 63.3779 39.5856 63.3499 39.2952 63.3173V62.872H43.6862C43.7257 63.0119 43.7001 63.1541 43.7001 63.315C43.5584 63.3453 43.4167 63.3733 43.275 63.4059C42.8149 63.5085 42.6639 63.681 42.6639 64.152C42.6639 65.2455 42.5989 66.3414 42.7453 67.4372C42.6802 67.5118 42.578 67.5002 42.492 67.5212C41.4767 67.7637 40.4638 68.0248 39.416 68.0808C37.5504 68.1764 35.794 67.8453 34.3118 66.6118C33.2315 65.7118 32.6506 64.5344 32.5205 63.1331C32.4021 61.8647 32.6251 60.6709 33.3197 59.5937C34.0678 58.4326 35.1575 57.7214 36.4422 57.2994C37.6666 56.8961 38.9258 56.8075 40.2036 56.9567C40.9633 57.0453 41.7091 57.2015 42.4618 57.388L42.4688 57.3834Z" fill="black"></path><path d="M25.8458 63.2656C25.8389 63.3216 25.8296 63.3659 25.8296 63.4125C25.8365 64.3941 25.7994 65.3757 25.8528 66.3573C25.8853 66.9472 26.0735 67.1711 26.6497 67.276C26.9238 67.3273 27.2026 67.3483 27.4814 67.3856C27.5186 67.5278 27.5047 67.6653 27.4907 67.8192H22.8372C22.8233 67.67 22.8209 67.5324 22.8395 67.3879C23.0835 67.3483 23.3274 67.3226 23.5667 67.2713C24.0337 67.1711 24.2196 66.9519 24.2683 66.4786C24.3404 65.7651 24.2962 65.0516 24.3009 64.3358C24.3102 62.5452 24.3055 60.7568 24.3009 58.9661C24.3009 58.7726 24.2846 58.5791 24.2567 58.3879C24.1917 57.9332 23.9895 57.7421 23.5249 57.6838C23.3274 57.6581 23.1299 57.6418 22.9232 57.6208V57.1568C22.9882 57.1102 23.0626 57.1312 23.1323 57.1312C24.5959 57.1312 26.0596 57.1288 27.5232 57.1405C28.1017 57.1452 28.6756 57.2174 29.2308 57.4063C30.6271 57.8796 31.2196 59.0081 31.1499 60.3814C31.0546 62.2001 29.7211 63.1957 28.2016 63.4988C27.4745 63.6433 26.7891 63.5174 26.1014 63.3169C26.0387 63.2983 25.9736 63.2843 25.9086 63.268C25.897 63.2656 25.883 63.268 25.8458 63.268V63.2656ZM25.8273 62.6687C26.3384 62.8413 26.8332 62.9159 27.342 62.8576C28.1366 62.769 28.7453 62.4006 29.1147 61.6685C29.2982 61.3047 29.3702 60.913 29.4004 60.512C29.4423 59.9291 29.3772 59.3625 29.1031 58.8402C28.6036 57.8913 27.1608 57.383 26.1688 57.7933C26.0224 57.854 25.9318 57.9589 25.8923 58.1104C25.8412 58.2993 25.8319 58.4928 25.8319 58.684C25.8319 59.8778 25.8319 61.0716 25.8319 62.2677V62.6664L25.8273 62.6687Z" fill="black"></path><path d="M75.6892 67.6255C74.4486 67.9053 73.2312 68.1595 71.9766 68.0872C70.6082 68.0079 69.3235 67.6675 68.2269 66.8001C67.0397 65.8605 66.3659 64.6248 66.2335 63.1092C66.0895 61.4748 66.5471 60.0315 67.6786 58.8331C68.4522 58.0147 69.421 57.5087 70.4944 57.2033C72.0068 56.7719 73.5262 56.7976 75.0503 57.1403C75.3663 57.2103 75.6822 57.2872 76.0028 57.3618C76.1353 58.2152 76.2747 59.0569 76.3606 59.9149C76.2073 59.9849 76.0423 60.0012 75.882 60.0362C75.7868 59.7797 75.7101 59.5256 75.6032 59.2831C75.1874 58.3388 74.4718 57.7675 73.4589 57.5903C72.4552 57.4155 71.4678 57.4598 70.5362 57.9144C69.3142 58.5113 68.58 59.5209 68.2594 60.8219C67.8273 62.5706 68.0457 64.2331 69.1027 65.7253C70.3015 67.418 72.4808 67.7771 73.9189 67.2292C74.5949 66.9704 75.0968 66.4924 75.515 65.9141C75.7612 65.5737 75.968 65.21 76.1794 64.823C76.3374 64.8859 76.4861 64.9465 76.6603 65.0165C76.3908 65.9095 76.0981 66.7838 75.6915 67.6232L75.6892 67.6255Z" fill="black"></path><path d="M45.2543 67.4919C45.0475 66.6152 44.9221 65.7525 44.799 64.8805C44.9476 64.7895 45.1126 64.7732 45.2868 64.7196C45.3449 64.8875 45.3984 65.0483 45.4588 65.2092C45.7538 65.9763 46.1581 66.6688 46.8713 67.1211C47.5265 67.5362 48.2351 67.5991 48.9553 67.3333C49.8474 67.0046 50.1378 66.1279 50.0426 65.2768C49.9798 64.7289 49.6848 64.3092 49.2689 63.9688C48.8112 63.5958 48.2931 63.323 47.7727 63.0572C47.2035 62.7657 46.6459 62.4603 46.1511 62.0476C44.476 60.6533 44.9128 58.1165 46.8458 57.2491C47.7542 56.8411 48.6974 56.8155 49.6592 56.988C50.0449 57.0579 50.4213 57.1535 50.793 57.2841C50.8906 58.0629 50.9881 58.8276 51.0857 59.6041C50.9254 59.6647 50.7651 59.681 50.5909 59.6973C50.4886 59.3802 50.3934 59.0678 50.2517 58.774C50.0077 58.2704 49.6964 57.8181 49.1528 57.6129C48.3977 57.3261 47.6635 57.3797 47.0479 57.9463C46.2765 58.6551 46.3323 59.9678 47.1338 60.6952C47.5474 61.0706 48.0353 61.3318 48.5301 61.5766C49.1435 61.882 49.7545 62.1875 50.3167 62.5885C52.1846 63.9222 51.8408 66.4846 50.0821 67.4919C48.4837 68.4059 46.862 68.2426 45.2543 67.4919Z" fill="black"></path><path d="M50.1402 14.3387C50.1402 13.7651 50.1402 13.1915 50.1402 12.6179C50.1402 12.2542 50.3702 12.0047 50.7025 12.0001C51.0463 11.9954 51.281 12.2449 51.2833 12.6226C51.2833 13.7115 51.2833 14.798 51.2833 15.8868C51.2833 16.1107 51.3344 16.2972 51.5574 16.3951C51.7781 16.4907 51.964 16.4254 52.1359 16.1853C52.7098 15.3832 53.2836 14.5811 53.8575 13.7814C53.9202 13.6951 53.9806 13.6065 54.0433 13.5226C54.2571 13.2335 54.5963 13.1635 54.8634 13.3524C55.1399 13.5506 55.1933 13.9003 54.9796 14.1988C54.5544 14.7957 54.1246 15.3902 53.6972 15.9848C53.4672 16.3042 53.2488 16.6306 53.0095 16.9431C52.6052 17.4747 52.0616 17.6938 51.4111 17.5539C50.7396 17.4094 50.3145 16.985 50.1635 16.3019C50.1077 16.0524 50.1426 15.7959 50.1402 15.5441C50.1356 15.1431 50.1402 14.7444 50.1402 14.3433V14.3387Z" fill="black"></path><path d="M56.4943 21.6159C57.0588 21.6159 57.6257 21.6159 58.1902 21.6159C58.5596 21.6159 58.7989 21.8374 58.8013 22.1778C58.8013 22.5276 58.562 22.7584 58.1833 22.7607C57.1123 22.7654 56.0412 22.7677 54.9702 22.77C54.6473 22.77 54.487 22.8656 54.4196 23.0918C54.3569 23.3063 54.4335 23.4625 54.6984 23.6537C55.5742 24.2833 56.4501 24.9128 57.326 25.5423C57.5351 25.6939 57.628 25.8944 57.5746 26.1509C57.5235 26.398 57.3632 26.5449 57.1192 26.5985C56.9543 26.6335 56.8009 26.5915 56.6662 26.4936C55.7299 25.8198 54.7913 25.1529 53.8643 24.4721C53.3137 24.0664 53.1185 23.3669 53.3393 22.6978C53.5507 22.0589 54.1292 21.6252 54.7983 21.6159C55.3628 21.6089 55.9297 21.6159 56.4943 21.6159Z" fill="black"></path><path d="M49.2178 28.0675C49.2178 28.6411 49.2178 29.217 49.2178 29.7906C49.2178 30.159 48.9924 30.3991 48.6509 30.3991C48.3117 30.3991 48.0771 30.1566 48.0771 29.7929C48.0747 28.718 48.0771 27.6432 48.0771 26.5683C48.0771 26.482 48.0817 26.3934 48.0608 26.3095C48.019 26.13 47.8959 26.0227 47.7193 25.9831C47.5218 25.9411 47.3708 26.0181 47.2546 26.1789C46.8666 26.7222 46.4787 27.2631 46.0907 27.8041C45.8374 28.1561 45.5865 28.5082 45.3333 28.8603C45.1079 29.1727 44.7594 29.245 44.4853 29.0421C44.2158 28.844 44.1786 28.4942 44.3947 28.1911C45.0336 27.2958 45.6725 26.4004 46.3137 25.5074C46.7156 24.9478 47.2663 24.717 47.933 24.8476C48.6161 24.9828 49.0459 25.4142 49.1969 26.1043C49.2387 26.2955 49.2178 26.4914 49.2178 26.6826C49.2201 27.1442 49.2178 27.6035 49.2178 28.0652V28.0675Z" fill="black"></path><path d="M42.6337 19.6275C43.2517 19.6275 43.8697 19.6275 44.49 19.6275C44.7246 19.6275 44.8687 19.5272 44.9337 19.3291C45.0011 19.1309 44.9384 18.949 44.7409 18.8068C43.8488 18.1633 42.9589 17.5221 42.0645 16.8832C41.8577 16.7363 41.7346 16.5498 41.7764 16.2887C41.8484 15.8363 42.3247 15.6475 42.7103 15.9226C43.4329 16.4355 44.1485 16.9578 44.8663 17.4731C45.0615 17.613 45.259 17.7482 45.4495 17.8928C46.0303 18.3288 46.244 19.0073 46.021 19.6881C45.8003 20.3666 45.2241 20.7793 44.4946 20.784C43.4027 20.7886 42.3131 20.7956 41.2211 20.798C40.8169 20.798 40.5613 20.5811 40.552 20.2407C40.5427 19.9026 40.7704 19.6508 41.1119 19.6462C41.6184 19.6392 42.1226 19.6462 42.629 19.6462C42.629 19.6392 42.629 19.6345 42.629 19.6275H42.6337Z" fill="black"></path><path d="M42.8568 21.6299C43.4097 21.6299 43.9603 21.6299 44.5133 21.6299C45.18 21.6276 45.7841 22.0612 46.0002 22.7024C46.2255 23.3669 46.035 24.0478 45.4867 24.4558C44.8339 24.9384 44.1694 25.4048 43.5096 25.8804C43.2448 26.0716 42.9845 26.2674 42.7197 26.4563C42.4386 26.6568 42.0901 26.6172 41.9042 26.363C41.7184 26.1112 41.7834 25.7592 42.0645 25.5586C42.9427 24.9221 43.8256 24.2903 44.7061 23.6561C44.8641 23.5418 44.9849 23.4182 44.9709 23.1991C44.9547 22.9356 44.7944 22.7631 44.5295 22.7607C43.9301 22.7584 43.3307 22.777 42.7336 22.7561C42.1946 22.7374 41.658 22.7327 41.119 22.7281C40.803 22.7234 40.5753 22.4903 40.5753 22.1848C40.5753 21.8887 40.8169 21.6392 41.1236 21.6369C41.7021 21.6322 42.2806 21.6369 42.8591 21.6369C42.8591 21.6369 42.8591 21.6369 42.8591 21.6346L42.8568 21.6299Z" fill="black"></path><path d="M50.1517 28.054C50.1517 27.5061 50.1517 26.9581 50.1517 26.4102C50.1517 25.7224 50.5792 25.1395 51.2413 24.918C51.8779 24.7035 52.5772 24.904 52.9722 25.4449C53.6436 26.3659 54.3034 27.2962 54.9632 28.2242C55.1723 28.518 55.1049 28.87 54.8262 29.0449C54.5613 29.2128 54.2639 29.1498 54.0595 28.8654C53.5948 28.2242 53.1325 27.576 52.6725 26.9325C52.4982 26.6877 52.3217 26.4452 52.1497 26.2004C52.015 26.0092 51.8454 25.9066 51.6061 25.9695C51.3738 26.0302 51.2785 26.2027 51.2553 26.4265C51.246 26.5058 51.246 26.5874 51.246 26.6667C51.246 27.7019 51.246 28.7371 51.246 29.7724C51.246 30.1501 51.0439 30.3739 50.7093 30.3763C50.3771 30.3763 50.1564 30.1314 50.1564 29.7561C50.1564 29.1895 50.1564 28.6206 50.1564 28.054C50.1564 28.054 50.1541 28.054 50.1517 28.054Z" fill="black"></path><path d="M56.4805 20.7621C55.9345 20.7621 55.3886 20.7621 54.8449 20.7621C54.141 20.7621 53.5811 20.3471 53.3464 19.6569C53.135 19.0344 53.3325 18.3559 53.8831 17.9478C54.8031 17.2647 55.7347 16.6002 56.6664 15.9333C56.9475 15.7305 57.2774 15.7818 57.4609 16.0383C57.6468 16.2994 57.5817 16.6445 57.3006 16.845C56.4154 17.4838 55.528 18.1204 54.6428 18.7592C54.4058 18.9294 54.3361 19.1113 54.4105 19.3398C54.4778 19.5473 54.6521 19.6569 54.9332 19.6569C56.0298 19.6592 57.1287 19.6616 58.2253 19.6639C58.4878 19.6639 58.6713 19.7968 58.755 20.037C58.8316 20.2585 58.7596 20.4939 58.5714 20.6455C58.4553 20.7388 58.3205 20.7597 58.1788 20.7574C57.6142 20.7574 57.0474 20.7574 56.4828 20.7574L56.4805 20.7621Z" fill="black"></path><path d="M49.2063 14.3411C49.2063 14.889 49.2063 15.4346 49.2063 15.9826C49.2063 16.689 48.7811 17.2626 48.0888 17.4958C47.4708 17.7033 46.7668 17.4841 46.3672 16.9339C45.7051 16.0222 45.0523 15.1059 44.4017 14.1872C44.1926 13.8934 44.2414 13.5647 44.504 13.3758C44.7735 13.18 45.0964 13.2476 45.3148 13.553C45.9444 14.4297 46.5717 15.3087 47.199 16.1854C47.3964 16.4605 47.6171 16.5282 47.8634 16.3883C48.0818 16.2647 48.1097 16.0548 48.1097 15.8357C48.1097 15.0616 48.1097 14.2875 48.1097 13.5134C48.1097 13.1986 48.1074 12.8862 48.1097 12.5714C48.1143 12.2543 48.3443 12.0165 48.6417 12.0142C48.9437 12.0118 49.1946 12.2613 49.197 12.5784C49.2016 13.166 49.197 13.7536 49.197 14.3411C49.197 14.3411 49.1993 14.3411 49.2016 14.3411H49.2063Z" fill="black"></path><path d="M23.3509 80.9594C23.3044 81.2135 23.237 81.4374 23.1441 81.6262C23.0512 81.8151 22.9559 81.934 22.8583 81.9806C22.7608 82.0296 22.6376 82.0622 22.4866 82.0786C22.4146 82.1928 22.324 82.2884 22.2148 82.37C22.1056 82.4516 21.9546 82.5029 21.7594 82.5309C21.7501 82.5309 21.7362 82.5682 21.7176 82.6405C21.6224 83.4682 21.4458 84.2166 21.1856 84.8811C20.9858 85.3918 20.7302 85.8697 20.4166 86.3151C19.6824 87.313 18.7996 87.8166 17.7681 87.8236C17.2337 87.8003 16.8086 87.6231 16.4949 87.2897C16.1813 86.9609 16.0163 86.5039 15.9977 85.9164C15.9931 84.9884 16.2974 83.9788 16.9108 82.89C17.0293 82.6708 17.099 82.6032 17.1222 82.6848C17.1454 82.7617 17.1431 82.841 17.1152 82.9249C16.711 83.727 16.5042 84.4195 16.4949 85.0024C16.5181 85.4477 16.6785 85.7858 16.9758 86.0166C17.2732 86.2475 17.6542 86.364 18.1235 86.3687C18.7136 86.3687 19.2805 86.2125 19.8242 85.8977C20.2284 85.6249 20.5513 85.2845 20.7976 84.8788C21.1554 84.3099 21.325 83.5265 21.3018 82.5286V82.0972C21.3203 81.8104 21.4621 81.6635 21.7316 81.6589C21.7989 81.6589 21.8686 81.6659 21.936 81.6799C22.0034 81.6938 22.0545 81.7008 22.0847 81.7008C22.2473 81.7008 22.3774 81.6495 22.475 81.547C22.5726 81.4444 22.6469 81.3464 22.6957 81.2508C22.7143 81.2229 22.7817 81.2135 22.9002 81.2229C22.9768 81.2229 23.0396 81.1879 23.0837 81.1203C23.1278 81.0527 23.165 80.978 23.1929 80.9011C23.237 80.7915 23.2858 80.7472 23.3369 80.7635C23.3648 80.7729 23.3695 80.8358 23.3509 80.9547V80.9594Z" fill="black"></path><path d="M26.2364 81.9154C26.2318 82.039 26.1853 82.2605 26.097 82.5846C26.0087 82.9087 25.8926 83.2608 25.7509 83.6431C25.6091 84.0255 25.4814 84.3146 25.3722 84.5105C25.263 84.7064 25.1445 84.8556 25.0144 84.9582C24.8843 85.0608 24.6752 85.154 24.3871 85.238C24.099 85.3219 23.8667 85.3802 23.6924 85.4082C23.5182 85.4385 23.4067 85.4525 23.3625 85.4525C23.3184 85.4478 23.2905 85.4292 23.2812 85.3988C23.2719 85.3662 23.2859 85.3266 23.323 85.2753C23.3742 85.1983 23.4996 85.0957 23.7017 84.9722C23.9039 84.8463 24.1385 84.69 24.4057 84.5012C24.6729 84.3123 24.8634 84.1468 24.9772 84.0069C25.0911 83.8646 25.2188 83.6548 25.3629 83.3727C25.5069 83.0906 25.6347 82.8061 25.7509 82.5193C25.867 82.2325 25.9483 82.0367 25.9995 81.9317C26.0482 81.8268 26.104 81.7779 26.1621 81.7825C26.2109 81.7919 26.2364 81.8362 26.2364 81.9201V81.9154Z" fill="black"></path><path d="M27.2447 82.8845C27.2354 83.2249 27.2773 83.472 27.3679 83.6213C27.4585 83.7705 27.5746 83.8778 27.7187 83.9384C27.8627 83.999 27.9998 84.0316 28.1299 84.0316C28.6968 84.0316 29.0615 83.8265 29.2265 83.4161C29.2033 83.3345 29.1661 83.2669 29.1103 83.2109C29.0546 83.155 28.9918 83.141 28.9198 83.1619C28.9105 83.1619 28.8641 83.1853 28.7804 83.2342C28.6968 83.2832 28.6271 83.3065 28.5736 83.3065C28.3506 83.2879 28.2019 83.2039 28.1253 83.0547C28.0881 82.9871 28.0858 82.9008 28.1183 82.7982C28.1508 82.6956 28.2066 82.5511 28.2856 82.3645C28.3646 82.178 28.4528 82.0078 28.5481 81.8516C28.6875 81.6371 28.8269 81.5298 28.964 81.5298C29.1405 81.5298 29.3194 81.6301 29.5006 81.8329C29.6818 82.0358 29.7678 82.2969 29.7585 82.614C29.7585 82.9148 29.6818 83.2739 29.5308 83.6935C29.3798 84.1132 29.1916 84.463 28.9686 84.7451C28.8269 84.9176 28.7037 85.0529 28.5946 85.1485C28.3529 85.3537 28.0718 85.4562 27.7512 85.4562C27.3655 85.4562 27.0844 85.3117 26.9079 85.0249C26.7313 84.7381 26.6477 84.3884 26.6569 83.9733C26.6616 83.6189 26.6988 83.1223 26.7685 82.4881C26.8382 81.8539 26.945 81.1498 27.0844 80.3803C27.1565 80.1565 27.3051 79.7625 27.5259 79.1982C27.5491 79.1446 27.5723 79.1213 27.5979 79.1306C27.6234 79.1399 27.635 79.1632 27.635 79.1982C27.6211 79.4757 27.5653 80.0073 27.4654 80.7907C27.3655 81.5741 27.3051 82.1104 27.2819 82.4018C27.2587 82.656 27.2471 82.8169 27.2471 82.8798L27.2447 82.8845ZM28.5249 79.3381C28.5249 79.2379 28.6108 79.021 28.7804 78.6853C28.95 78.3495 29.0615 78.184 29.1103 78.184C29.2102 78.142 29.3543 78.219 29.5471 78.4125C29.7399 78.606 29.8398 78.7576 29.8538 78.8671C29.8538 79.0117 29.7748 79.2215 29.6145 79.4967C29.4565 79.7695 29.3403 79.907 29.2683 79.907C29.2404 79.893 29.1475 79.8324 28.9849 79.7252C28.8246 79.6179 28.7037 79.5363 28.6271 79.4827C28.5597 79.436 28.5249 79.3894 28.5249 79.3381Z" fill="black"></path><path d="M34.5002 80.7726C34.6326 80.8052 34.6512 80.8961 34.5606 81.0454C34.47 81.1899 34.3213 81.3485 34.1191 81.5163C33.9519 81.6492 33.766 81.7845 33.5616 81.9267C33.4291 82.0223 33.313 82.1132 33.2084 82.1995C32.6369 82.6821 32.1444 83.2207 31.7308 83.8176C31.3033 84.4472 31.0919 85.0231 31.0919 85.5453C31.0919 86.0326 31.2522 86.4244 31.5752 86.7205C31.8888 87.0073 32.2861 87.1518 32.767 87.1518C34.1099 87.1518 35.3621 86.513 36.5237 85.2329C36.5656 85.1793 36.605 85.1513 36.6469 85.1513C36.684 85.1513 36.7003 85.1769 36.7003 85.2259C36.7003 85.2539 36.691 85.2795 36.6724 85.3075C35.225 87.4852 33.773 88.5718 32.3163 88.5718C31.6867 88.5718 31.2034 88.3689 30.8735 87.9632C30.5831 87.6041 30.4368 87.1308 30.4368 86.5433C30.4368 85.7365 30.6993 84.8808 31.2267 83.9738C31.5659 83.4003 31.9655 82.892 32.4255 82.4513C32.4975 82.379 32.6206 82.2648 32.7972 82.1109C32.9715 81.957 33.1178 81.8334 33.2363 81.7448C33.3548 81.6562 33.4547 81.5746 33.536 81.5023C33.6313 81.4301 33.6801 81.3834 33.6801 81.3648C33.7521 81.2062 33.2712 81.1573 32.2373 81.2202C32.1513 81.2342 32.1304 81.1922 32.1769 81.0966C32.221 81.0011 32.2814 80.9008 32.3535 80.7959C32.4255 80.6863 32.5114 80.5744 32.6113 80.4601C32.7112 80.3459 32.8111 80.2433 32.911 80.1523C33.0017 80.2526 33.0017 80.3948 32.911 80.5767L32.7879 80.7143C33.392 80.6676 33.9635 80.6863 34.5025 80.7679L34.5002 80.7726ZM33.0853 85.1373C33.0853 85.0371 33.1713 84.8202 33.3409 84.4845C33.5105 84.1487 33.622 83.9832 33.6708 83.9832C33.7707 83.9412 33.9147 84.0181 34.1075 84.2117C34.3004 84.4052 34.4003 84.5567 34.4142 84.6663C34.4142 84.8109 34.3352 85.0207 34.1749 85.2959C34.0169 85.5687 33.9008 85.7062 33.8287 85.7062C33.8009 85.6922 33.7079 85.6316 33.5453 85.5244C33.385 85.4171 33.2642 85.3355 33.1875 85.2819C33.1201 85.2352 33.0853 85.1886 33.0853 85.1373Z" fill="black"></path><path d="M35.1739 80.0773C35.1739 80.0773 35.1321 80.054 35.0345 80.0097C34.937 79.9631 34.7836 79.9304 34.5722 79.9118C34.3608 79.8931 34.1331 79.9118 33.8892 79.9771C33.6522 80.0447 33.457 80.1333 33.3037 80.2429C33.1504 80.3525 33.0179 80.469 32.9087 80.5903L32.3767 81.0006C32.3814 80.9517 32.4023 80.8841 32.4371 80.8025C32.4743 80.7115 32.5393 80.5996 32.6369 80.4667C32.7345 80.3338 32.8599 80.1892 33.011 80.0284C33.162 79.8675 33.3316 79.7229 33.5174 79.59C33.7033 79.4571 33.9077 79.3545 34.1331 79.2823C34.3585 79.21 34.5652 79.1657 34.7557 79.1494C34.9462 79.133 35.0856 79.1447 35.1716 79.1797C35.1995 79.2263 35.2157 79.2753 35.225 79.3289C35.2436 79.4105 35.2529 79.5271 35.2529 79.6763C35.2436 79.7532 35.232 79.8302 35.2181 79.9095C35.1995 79.9817 35.1832 80.0377 35.1693 80.0727L35.1739 80.0773ZM34.4653 84.4421C34.4653 84.4701 34.5327 84.5377 34.6651 84.6473C34.7999 84.7568 34.8975 84.8385 34.9602 84.8921C35.0276 84.9504 35.081 84.9807 35.1158 84.9807C35.2599 84.9807 35.455 84.7335 35.7013 84.2369C35.8012 84.3092 35.9174 84.4118 36.0475 84.5447C36.1799 84.6776 36.2705 84.7429 36.3193 84.7429C36.396 84.7429 36.5168 84.6263 36.6794 84.3955C36.8467 84.1576 36.9303 83.9548 36.9303 83.7799C36.921 83.6353 36.8374 83.4791 36.6817 83.3113C36.5261 83.1434 36.389 83.0618 36.2775 83.0618C36.2403 83.0618 36.1683 83.155 36.0568 83.3416C35.9453 83.5281 35.8454 83.696 35.7547 83.8475C35.6781 83.7379 35.5642 83.612 35.4179 83.4675C35.2715 83.3229 35.1577 83.2693 35.081 83.2996C35.0392 83.2996 34.9277 83.4745 34.7418 83.8265C34.5559 84.1763 34.463 84.3815 34.463 84.4421H34.4653Z" fill="black"></path><path d="M36.5145 77.0595L36.5075 78.1786L36.4541 79.1976L36.2705 79.2115C36.1892 79.2209 36.1009 79.2768 36.0057 79.3817L35.7734 79.6895C35.6502 79.8387 35.5387 79.9413 35.4388 79.9973C35.3389 80.0509 35.2506 80.0789 35.174 80.0789V79.1836C35.5503 79.2792 35.778 79.1323 35.8547 78.7406C35.8686 78.6123 35.8779 78.5191 35.8825 78.4608C35.8918 78.2976 35.8965 78.195 35.8965 78.153C35.8965 78.0714 35.8965 77.9758 35.9035 77.8685C35.9081 77.7613 35.9151 77.6377 35.9244 77.4955C35.943 77.232 35.9639 77.0082 35.9894 76.8217C36.015 76.6375 36.0405 76.4486 36.0684 76.2574C36.0916 76.0802 36.1172 75.9543 36.1497 75.882C36.2217 75.7048 36.2821 75.5579 36.3263 75.4437C36.3704 75.3294 36.4053 75.2478 36.4285 75.1989C36.6051 74.8025 36.7398 74.5367 36.8304 74.3991C36.8537 74.3945 36.8746 74.4038 36.8978 74.4271C36.9071 74.4551 36.9025 74.5064 36.8839 74.5833C36.6655 75.7911 36.5493 76.4812 36.5377 76.6608C36.5261 76.8403 36.5168 76.9709 36.5168 77.0571L36.5145 77.0595Z" fill="black"></path><path d="M37.2695 79.3737C36.7932 79.3644 36.4401 79.2011 36.2078 78.8817C36.0219 78.6136 35.9266 78.2825 35.922 77.8908C35.9545 77.7579 35.987 77.6273 36.0196 77.4991C36.0521 77.3708 36.0916 77.2543 36.1357 77.1517C36.1799 77.0491 36.231 76.9651 36.2914 76.8999C36.3518 76.8346 36.4261 76.8019 36.5121 76.8019C36.5121 77.147 36.5981 77.4198 36.77 77.6157C36.9419 77.8115 37.1626 77.9094 37.4298 77.9094L38.0826 76.8439C38.222 76.6201 38.3754 76.4382 38.538 76.2936C38.7006 76.1491 38.8679 76.0791 39.0352 76.0791C39.1258 76.0791 39.2327 76.0978 39.3558 76.1328C39.6601 76.2237 39.846 76.2703 39.9134 76.2703C39.9854 76.2703 40.0388 76.2633 40.069 76.2493C40.1016 76.2353 40.1411 76.219 40.1922 76.2004C40.2456 76.2004 40.2688 76.2284 40.2595 76.282C40.2502 76.3589 40.2131 76.4708 40.148 76.6131C40.083 76.7576 40.0295 76.8462 39.9877 76.8789C39.9459 76.9115 39.8948 76.9675 39.8344 77.0398C39.774 77.112 39.7043 77.2006 39.6299 77.3032C39.5556 77.4058 39.451 77.5644 39.3163 77.7812C39.1815 77.998 39.1026 78.1286 39.0747 78.1729C38.8423 78.5366 38.5914 78.8164 38.3196 79.0123C37.9967 79.2548 37.6459 79.3737 37.2648 79.3737H37.2695ZM37.604 71.7307C37.604 71.6304 37.69 71.4136 37.8596 71.0778C38.0292 70.7421 38.1407 70.5766 38.1895 70.5766C38.2894 70.5346 38.4335 70.6115 38.6263 70.8051C38.8191 70.9986 38.919 71.1501 38.933 71.2597C38.933 71.4043 38.854 71.6141 38.6937 71.8892C38.5357 72.162 38.4195 72.2996 38.3475 72.2996C38.3196 72.2856 38.2267 72.225 38.0641 72.1177C37.9037 72.0105 37.7829 71.9289 37.7063 71.8753C37.6389 71.8286 37.604 71.782 37.604 71.7307ZM37.7272 77.9188C37.9688 77.9188 38.1732 77.8861 38.3475 77.8208C38.5194 77.7556 38.6727 77.6716 38.8029 77.5714C39.0607 77.3848 39.2791 77.1493 39.4557 76.8672C39.4185 76.8299 39.3302 76.7879 39.1908 76.7366C39.0491 76.6877 38.9492 76.662 38.8842 76.662C38.7355 76.662 38.6007 76.711 38.4822 76.8113C38.4056 76.8695 38.3219 76.9721 38.2313 77.119L37.7272 77.9188Z" fill="black"></path><path d="M42.8988 83.178C42.8988 83.3738 42.8663 83.593 42.8012 83.8378C42.7362 84.0826 42.6502 84.3018 42.5457 84.4977C42.383 84.8124 42.2134 85.0502 42.0415 85.2158C41.8696 85.379 41.6768 85.4606 41.463 85.4606C41.1261 85.4606 40.9589 85.2554 40.9589 84.8451C40.9589 84.7028 40.9821 84.5536 41.0262 84.3951C41.0843 84.2272 41.1587 84.0686 41.2446 83.9241C41.3306 83.7795 41.4026 83.6559 41.463 83.5557C41.4049 83.537 41.3678 83.5254 41.3538 83.5207C41.3399 83.5161 41.3283 83.5137 41.319 83.5137C41.3097 83.4764 41.3399 83.3785 41.4073 83.2199L41.8905 82.1194C41.9346 82.0052 41.9881 81.9492 42.0462 81.9492C42.0903 81.9492 42.16 81.9772 42.2529 82.0355C42.3459 82.0914 42.4248 82.1427 42.4876 82.1894C42.6363 82.3269 42.7431 82.4575 42.8035 82.5857C42.8639 82.714 42.8965 82.9122 42.8965 83.1803L42.8988 83.178ZM42.239 84.2575C42.239 84.1246 42.1925 84.0173 42.1019 83.9357C42.0554 83.8891 41.9927 83.8401 41.9091 83.7888C41.8254 83.7376 41.7557 83.7049 41.7023 83.6956C41.6605 83.6956 41.5908 83.7749 41.4886 83.9357C41.3863 84.0966 41.3352 84.2295 41.3352 84.3391C41.3352 84.5443 41.4584 84.6469 41.7023 84.6469C41.8115 84.6469 41.9277 84.6072 42.0531 84.528C42.1786 84.4487 42.2413 84.3578 42.2413 84.2575H42.239Z" fill="black"></path><path d="M46.1537 81.9154C46.149 82.039 46.1026 82.2605 46.0143 82.5846C45.926 82.9087 45.8098 83.2608 45.6681 83.6431C45.5264 84.0255 45.3986 84.3146 45.2894 84.5105C45.1802 84.7064 45.0617 84.8556 44.9316 84.9582C44.8015 85.0608 44.5924 85.154 44.3043 85.238C44.0163 85.3219 43.7839 85.3802 43.6097 85.4082C43.4354 85.4361 43.3239 85.4525 43.2798 85.4525C43.2333 85.4478 43.2078 85.4292 43.1985 85.3988C43.1892 85.3685 43.2031 85.3266 43.2403 85.2753C43.2891 85.1983 43.4169 85.0957 43.619 84.9722C43.8211 84.8486 44.0558 84.69 44.3229 84.5012C44.5901 84.3123 44.7806 84.1468 44.8945 84.0069C45.0083 83.867 45.1361 83.6548 45.2801 83.3727C45.4242 83.0906 45.5519 82.8061 45.6681 82.5193C45.7843 82.2325 45.8656 82.0367 45.9167 81.9317C45.9678 81.8268 46.0212 81.7779 46.0793 81.7825C46.1281 81.7919 46.1537 81.8362 46.1537 81.9201V81.9154Z" fill="black"></path><path d="M47.2271 82.885C47.2178 83.0575 47.1992 83.2138 47.1736 83.3537C47.1481 83.4936 47.1109 83.6101 47.0644 83.7081C47.018 83.806 46.9622 83.8783 46.8902 83.9272C46.8182 83.9762 46.7345 83.9925 46.6346 83.9785C46.6393 83.6241 46.6765 83.1275 46.7462 82.4933C46.8159 81.8591 46.9227 81.155 47.0621 80.3855C47.1341 80.1617 47.2828 79.7677 47.5035 79.2034C47.5268 79.1498 47.55 79.1265 47.5756 79.1358C47.6011 79.1451 47.6127 79.1684 47.6127 79.2034C47.5988 79.4809 47.543 80.0125 47.4431 80.7959C47.3432 81.5793 47.2828 82.1156 47.2596 82.407C47.2364 82.6985 47.2248 82.857 47.2248 82.885H47.2271Z" fill="black"></path><path d="M49.5967 84.0326C49.4596 84.0093 49.3574 84.0093 49.29 84.0326C49.053 84.1095 48.8114 84.3683 48.5628 84.8044C48.2957 85.2427 47.996 85.4595 47.6637 85.4595C47.3269 85.4316 47.0736 85.28 46.9017 85.0025C46.7298 84.7251 46.6415 84.3823 46.6368 83.979C46.7135 83.7155 46.7995 83.487 46.8947 83.2935C46.99 83.1 47.1015 82.9671 47.2293 82.8948C47.2293 83.3494 47.3408 83.6805 47.5638 83.8857C47.7311 84.0349 47.9263 84.1119 48.1493 84.1119C48.4583 84.1119 48.7115 83.9743 48.9113 83.7015C49.06 83.501 49.1901 83.3588 49.297 83.2702C49.4039 83.1816 49.5038 83.1396 49.599 83.1396C49.6083 83.1582 49.6246 83.2235 49.6478 83.3331C49.671 83.4427 49.6826 83.543 49.6826 83.6292C49.6826 83.7202 49.6734 83.7948 49.6548 83.8554C49.6408 83.909 49.6222 83.9696 49.6013 84.0326H49.5967ZM47.2014 77.9868C47.2014 77.9285 47.2943 77.7233 47.4802 77.3712C47.6661 77.0191 47.7799 76.8443 47.8194 76.8443C47.8961 76.8116 48.0099 76.8676 48.1563 77.0121C48.3026 77.1567 48.4165 77.2826 48.4931 77.3922C48.5837 77.243 48.686 77.0728 48.7952 76.8862C48.9044 76.6997 48.981 76.6064 49.0159 76.6064C49.1297 76.6064 49.2645 76.6904 49.4201 76.8559C49.5758 77.0215 49.6594 77.1777 49.6687 77.3246C49.6687 77.4971 49.5851 77.7023 49.4178 77.9401C49.2552 78.1733 49.1344 78.2875 49.0577 78.2875C49.0089 78.2875 48.916 78.2222 48.7859 78.0893C48.6558 77.9564 48.5396 77.8539 48.4397 77.7816C48.1958 78.2782 48.0006 78.5254 47.8542 78.5254C47.8171 78.5254 47.766 78.495 47.6986 78.4368C47.6358 78.3831 47.5359 78.2992 47.4035 78.1919C47.2711 78.0847 47.2037 78.0147 47.2037 77.9868H47.2014Z" fill="black"></path><path d="M49.8339 83.1787C49.906 83.202 49.985 83.1857 50.0686 83.1297C50.1522 83.0738 50.2684 82.9199 50.4194 82.6658C50.4961 82.7124 50.5472 82.738 50.5681 82.7474C50.7098 82.7963 50.8376 82.6308 50.9561 82.2484C50.9747 82.2437 51.0188 82.2531 51.0885 82.2764C51.1582 82.2997 51.2163 82.2764 51.2628 82.2088C51.3115 82.1458 51.3627 82.0456 51.4161 81.9126C51.4695 81.7797 51.502 81.7121 51.5137 81.7121C51.5462 81.7075 51.5648 81.7261 51.5741 81.7658C51.5834 81.8054 51.581 81.8544 51.5671 81.9103C51.5299 82.1108 51.4672 82.3137 51.3766 82.5189C51.2999 82.7054 51.2047 82.8476 51.0908 82.9432C50.9816 83.0388 50.8794 83.1344 50.7842 83.23C50.6889 83.3256 50.5936 83.3932 50.5123 83.4212C50.4171 83.4585 50.3288 83.4911 50.2475 83.5238C49.9153 83.8735 49.6992 84.0461 49.5946 84.0367C49.5807 83.9994 49.5644 83.9458 49.5459 83.8735C49.5273 83.8012 49.5157 83.722 49.5087 83.638C49.5017 83.5541 49.504 83.4678 49.5157 83.3792C49.5273 83.2906 49.5528 83.2114 49.5946 83.1437L49.8339 83.1857V83.1787Z" fill="black"></path><path d="M60.4256 83.3348C60.1886 83.6635 59.954 83.9107 59.717 84.0786C59.3499 84.356 58.9945 84.5659 58.6529 84.7104C58.3114 84.855 57.9234 84.9832 57.489 85.0975C57.0545 85.2117 56.5643 85.2956 56.016 85.3493C55.4677 85.4029 54.9496 85.4309 54.4641 85.4309C54.1597 85.4309 53.8136 85.4122 53.4233 85.3773C53.0376 85.3353 52.7635 85.2607 52.6008 85.1511C52.3151 84.9739 52.171 84.6475 52.171 84.1741C52.171 83.9153 52.1966 83.6052 52.2454 83.2462C52.2918 82.9058 52.3453 82.7332 52.408 82.7332C52.4568 82.7332 52.4916 82.8381 52.5102 83.048C52.559 83.3674 52.7193 83.5819 52.9865 83.6962C53.2537 83.8104 53.6649 83.8874 54.2155 83.9293C54.7661 83.9713 55.2308 83.99 55.6071 83.99C55.9115 83.99 56.2577 83.976 56.648 83.948C57.0336 83.92 57.417 83.8734 57.798 83.8034C58.1511 83.7451 58.5205 83.6542 58.9039 83.533C59.2872 83.4117 59.638 83.2532 59.9563 83.0573C60.2746 82.8615 60.479 82.7146 60.5696 82.6143C60.6602 82.5817 60.6928 82.6773 60.6649 82.9011C60.723 82.9104 60.795 82.9058 60.8763 82.8871C60.9251 82.9151 60.9599 82.9594 60.9739 83.02C60.9878 83.0806 60.9948 83.1459 60.9878 83.2112C60.9809 83.2765 60.9669 83.3371 60.9437 83.3884C60.9205 83.4397 60.8972 83.47 60.8763 83.4747L60.4279 83.3301L60.4256 83.3348ZM54.8033 81.1547C54.8033 81.0964 54.8962 80.8913 55.0821 80.5392C55.2679 80.1871 55.3818 80.0122 55.4213 80.0122C55.4979 79.9796 55.6118 80.0356 55.7581 80.1801C55.9045 80.3247 56.0184 80.4506 56.095 80.5602C56.1856 80.4109 56.2879 80.2407 56.397 80.0542C56.5062 79.8677 56.5829 79.7744 56.6178 79.7744C56.7316 79.7744 56.8663 79.8584 57.022 80.0239C57.1777 80.1894 57.2613 80.3457 57.2706 80.4926C57.2706 80.6651 57.187 80.8703 57.0197 81.1081C56.8571 81.3413 56.7362 81.4555 56.6596 81.4555C56.6108 81.4555 56.5179 81.3902 56.3878 81.2573C56.2577 81.1244 56.1415 81.0218 56.0416 80.9495C55.7976 81.4462 55.6025 81.6933 55.4561 81.6933C55.419 81.6933 55.3678 81.663 55.3005 81.6047C55.2377 81.5511 55.1378 81.4672 55.0054 81.3599C54.873 81.2527 54.8056 81.1827 54.8056 81.1547H54.8033Z" fill="black"></path><path d="M63.9988 82.0639C63.8408 82.1968 63.6759 82.2924 63.5086 82.3507C63.3506 82.4089 63.1508 82.4392 62.9092 82.4392H62.8418C62.7233 82.4392 62.484 82.6071 62.1193 82.9452C61.9473 83.1177 61.8172 83.2437 61.7313 83.3206C61.5222 83.5071 61.3456 83.6004 61.1993 83.6004C61.0622 83.5514 60.953 83.5095 60.8647 83.4768C60.8113 83.3905 60.7741 83.2949 60.7555 83.1924C60.7369 83.0898 60.7741 82.9895 60.8647 82.8893C60.9414 82.8893 61.0645 82.8706 61.2318 82.8356C61.3851 82.7937 61.5245 82.74 61.6476 82.6724C61.7429 82.6234 61.8498 82.5558 61.9683 82.4742C62.0496 82.4253 62.1169 82.3716 62.1727 82.318C62.11 82.2994 62.0589 82.269 62.024 82.2224C61.9822 82.1758 61.9636 82.1245 61.9636 82.0662C61.9636 81.9706 62.0124 81.8214 62.1077 81.6162C62.189 81.4203 62.2819 81.2361 62.3864 81.0636C62.5235 80.8398 62.6165 80.7045 62.6652 80.6532C62.8418 80.4387 63.0044 80.3315 63.1485 80.3315C63.3297 80.3315 63.4668 80.3991 63.5574 80.5367C63.6387 80.6742 63.6805 80.8188 63.6805 80.975C63.6805 81.1522 63.6433 81.3387 63.5713 81.5346C63.5341 81.6022 63.5156 81.6418 63.5109 81.6512C63.5969 81.6512 63.6666 81.6442 63.7223 81.6302C63.7781 81.6162 63.8687 81.5719 64.0011 81.4926L64.0429 81.7864L64.0011 82.0662L63.9988 82.0639ZM60.9228 77.6711C60.9228 77.5709 61.0087 77.354 61.1783 77.0183C61.3479 76.6825 61.4595 76.517 61.5083 76.517C61.6082 76.475 61.7522 76.552 61.945 76.7455C62.1379 76.939 62.2378 77.0906 62.2517 77.2001C62.2517 77.3447 62.1727 77.5545 62.0124 77.8297C61.8521 78.1048 61.7383 78.24 61.6662 78.24C61.6384 78.226 61.5454 78.1654 61.3828 78.0582C61.2202 77.9509 61.1017 77.8693 61.025 77.8157C60.9576 77.7691 60.9228 77.7224 60.9228 77.6711ZM63.332 81.4203C63.332 81.3434 63.2925 81.2571 63.2159 81.1615C63.1485 81.0753 63.037 81.031 62.8813 81.031C62.7953 81.031 62.7071 81.0683 62.6164 81.1406C62.4794 81.2641 62.412 81.3667 62.412 81.4483C62.412 81.5346 62.4445 81.6045 62.5073 81.6605C62.5746 81.7141 62.6769 81.7421 62.8139 81.7421C62.951 81.7421 63.0648 81.7025 63.174 81.6255C63.2786 81.5439 63.3297 81.4763 63.3297 81.4203H63.332Z" fill="black"></path><path d="M63.9987 81.4908C64.1079 81.4139 64.2008 81.3183 64.2775 81.204C64.3588 81.0898 64.4006 80.9755 64.4006 80.8636V80.4136C64.4006 80.304 64.4192 80.1828 64.4541 80.0522C64.5168 79.8703 64.5842 79.7048 64.6516 79.5533L64.9303 78.8771C64.935 78.8444 64.9582 78.8095 64.9977 78.7675C65.0163 78.7675 65.0256 78.8165 65.0256 78.9121L65.0117 79.397L64.9838 79.9846C64.9838 80.1898 64.942 80.4229 64.8606 80.6817C64.784 80.9406 64.6841 81.1714 64.5609 81.3719C64.3751 81.6773 64.1869 81.9082 63.9964 82.069C63.9732 81.9688 63.9569 81.8709 63.9476 81.7753C63.9383 81.6797 63.9546 81.5864 63.9964 81.4955L63.9987 81.4908ZM64.5168 75.3913C64.5168 75.2911 64.6028 75.0742 64.7724 74.7385C64.942 74.4027 65.0535 74.2372 65.1023 74.2372C65.2022 74.1952 65.3462 74.2722 65.539 74.4657C65.7319 74.6592 65.8318 74.8108 65.8457 74.9204C65.8457 75.0649 65.7667 75.2748 65.6064 75.5499C65.4461 75.825 65.3323 75.9603 65.2602 75.9603C65.2324 75.9463 65.1394 75.8856 64.9768 75.7784C64.8142 75.6711 64.6957 75.5895 64.619 75.5359C64.5517 75.4893 64.5168 75.4426 64.5168 75.3913Z" fill="black"></path><path d="M74.9785 83.0132C74.8251 83.0132 74.6904 83.0249 74.5766 83.0482C74.472 83.0715 74.3628 83.1321 74.249 83.2324C74.1398 83.3233 74.0283 83.4515 73.9144 83.6147C73.861 83.6964 73.8052 83.778 73.7471 83.8572C73.6891 83.9365 73.6356 84.0181 73.5799 84.0997C73.4521 84.2723 73.3011 84.4191 73.1245 84.5381C72.6924 84.8622 72.0721 85.1116 71.2589 85.2888C70.4551 85.466 69.5606 85.5546 68.5709 85.5546C68.2038 85.5546 67.8553 85.536 67.5301 85.501C67.1584 85.4684 66.8842 85.3938 66.7076 85.2748C66.4219 85.0976 66.2778 84.7712 66.2778 84.2979C66.2778 83.9925 66.3034 83.6824 66.3522 83.3699C66.3986 83.0295 66.4498 82.857 66.5078 82.857C66.545 82.857 66.5775 82.9619 66.6101 83.1717C66.6333 83.3816 66.7076 83.5448 66.8308 83.6637C66.9539 83.7826 67.1583 83.8782 67.4371 83.9505C67.7159 84.0228 68.1202 84.0624 68.6522 84.0671C69.089 84.0764 69.5769 84.0671 70.1182 84.0438C70.6595 84.0204 71.1009 83.9831 71.4378 83.9388C71.7747 83.8945 72.1906 83.7943 72.6808 83.6451C73.0037 83.5495 73.2709 83.4469 73.4846 83.335C73.6984 83.223 73.8656 83.1041 73.9888 82.9759C74.0027 82.9666 74.0631 82.8873 74.1723 82.7404C74.2815 82.5935 74.3698 82.4839 74.4372 82.4163C74.5789 82.2671 74.7578 82.1692 74.9738 82.1225C75.1225 82.2228 75.1876 82.3743 75.1643 82.5795C75.1156 82.7754 75.0505 82.9199 74.9738 83.0179L74.9785 83.0132ZM68.7498 81.4907C68.7498 81.4324 68.8427 81.2272 69.0286 80.8751C69.2144 80.523 69.3283 80.3482 69.3678 80.3482C69.4444 80.3155 69.5583 80.3715 69.7047 80.516C69.851 80.6606 69.9649 80.7865 70.0415 80.8961C70.1321 80.7469 70.2344 80.5767 70.3436 80.3901C70.4527 80.2036 70.5294 80.1104 70.5643 80.1104C70.6781 80.1104 70.8129 80.1943 70.9685 80.3598C71.1242 80.5254 71.2078 80.6816 71.2171 80.8285C71.2171 81.001 71.1335 81.2062 70.9662 81.444C70.8036 81.6772 70.6827 81.7914 70.6061 81.7914C70.5573 81.7914 70.4644 81.7262 70.3343 81.5933C70.2042 81.4604 70.088 81.3578 69.9881 81.2855C69.7442 81.7821 69.549 82.0293 69.4026 82.0293C69.3655 82.0293 69.3143 81.999 69.247 81.9407C69.1842 81.887 69.0843 81.8031 68.9519 81.6958C68.8195 81.5886 68.7521 81.5186 68.7521 81.4907H68.7498Z" fill="black"></path><path d="M74.9784 83.0135C74.932 82.8643 74.9087 82.7151 74.9041 82.5659C74.8995 82.4167 74.925 82.2698 74.9784 82.1182C75.0969 82.1182 75.2131 82.1369 75.3293 82.1718C75.4454 82.2068 75.536 82.1322 75.6057 81.9457C75.6429 81.8594 75.6731 81.7102 75.701 81.5027C75.7289 81.2835 75.7428 81.111 75.7428 80.9827L75.7289 79.0848L76.0495 78.0799L76.2888 77.3617C76.3213 77.2895 76.3515 77.2801 76.384 77.3338C76.3933 77.3524 76.398 77.413 76.398 77.518C76.398 77.7138 76.3887 77.9213 76.3701 78.1405C76.3561 78.3853 76.3422 78.6115 76.3283 78.8167C76.2911 80.0011 76.2586 80.7216 76.226 80.9827C76.1889 81.2742 76.1401 81.519 76.0774 81.7195C76.0146 81.9247 75.9263 82.1229 75.8125 82.3141C75.6987 82.5006 75.5802 82.6661 75.4594 82.813C75.3362 82.9623 75.2224 83.0392 75.1202 83.0392C75.0528 83.0345 75.0063 83.0252 74.9831 83.0112L74.9784 83.0135ZM76.9927 76.2636C77.1693 76.0677 77.6061 75.6853 78.2984 75.1164C78.8374 74.6921 79.4322 74.2141 80.0827 73.6825C80.4869 73.3444 80.8958 72.9853 81.307 72.603C81.5301 72.3931 81.8971 72.041 82.4106 71.5444C83.1099 70.8659 83.4584 70.5208 83.4584 70.5068C83.4584 70.5395 83.4491 70.5815 83.4305 70.6374C83.3887 70.782 83.3004 70.9778 83.1657 71.225C83.0239 71.4675 82.8985 71.661 82.7846 71.8055C82.6661 71.9641 82.5082 72.1576 82.3084 72.3861C82.0714 72.6403 81.9343 72.7895 81.8925 72.8291C81.774 72.948 81.5394 73.1672 81.1839 73.4843C81.0561 73.5985 80.8981 73.7361 80.71 73.9016C80.5218 74.0672 80.3034 74.2514 80.0525 74.4612C79.7133 74.7527 79.3973 75.0092 79.1069 75.233C78.7212 75.5384 78.3495 75.8229 77.9917 76.0864L77.0322 76.8371C76.9648 76.8954 76.8951 76.9514 76.8278 77.005C76.7604 77.0586 76.6953 77.1053 76.6373 77.1519C76.5095 77.2568 76.4375 77.2941 76.4189 77.2615C76.4816 77.0843 76.5652 76.8978 76.6698 76.7019C76.765 76.5294 76.8719 76.3825 76.9904 76.2636H76.9927Z" fill="black"></path><path d="M78.4843 81.5652C78.5331 81.5419 78.5819 81.5256 78.6307 81.5163C78.6794 81.5069 78.7282 81.4976 78.777 81.4883C78.863 81.6072 78.9211 81.7284 78.9466 81.8497C78.9722 81.9709 78.9838 82.0922 78.9745 82.2111C78.9652 82.33 78.942 82.4442 78.9025 82.5562C78.863 82.6681 78.8212 82.7683 78.777 82.8593C78.7143 82.8499 78.6214 82.8453 78.5006 82.8453C78.3797 82.8453 78.245 82.8663 78.0963 82.9059C77.9639 82.9432 77.7827 83.0155 77.5527 83.1251C77.2158 83.3116 76.937 83.5494 76.7116 83.8362C76.4863 84.123 76.2168 84.4891 75.9008 84.9321C75.5848 85.3751 75.2642 85.7574 74.9367 86.0792C74.6091 86.401 74.3396 86.6388 74.1258 86.7927C73.9121 86.9466 73.7146 87.0795 73.5334 87.1844C73.3522 87.2893 73.157 87.3872 72.9479 87.4758C72.9294 87.4852 72.9061 87.4945 72.8806 87.5038C72.848 87.5178 72.8132 87.5318 72.7714 87.5458C72.6947 87.5784 72.6296 87.5784 72.5809 87.5458C72.5669 87.5225 72.5878 87.4805 72.6413 87.4152C72.7086 87.3429 72.8387 87.231 73.0293 87.0795C73.2476 86.9372 73.4939 86.7577 73.7681 86.5362C74.0422 86.3147 74.3233 86.0489 74.6114 85.7365C74.8995 85.424 75.1736 85.0626 75.4315 84.6546C75.5546 84.4914 75.6708 84.3188 75.7777 84.1416C76.1819 83.5541 76.4421 83.1904 76.5606 83.0481C76.9045 82.6191 77.239 82.2927 77.562 82.0642C77.8849 81.8357 78.1916 81.6678 78.482 81.5582L78.4843 81.5652Z" fill="black"></path><path d="M81.5395 80.2136C81.3443 80.6962 81.1701 80.9411 81.0144 80.9504C80.9099 80.955 80.8123 80.969 80.7217 80.9947C80.6311 81.0203 80.5428 81.0623 80.4592 81.1206C80.3755 81.1789 80.2733 81.2908 80.1571 81.4563C79.7668 82.1162 79.4997 82.5219 79.3579 82.6688C79.2162 82.8157 79.0211 82.881 78.7771 82.8623C78.64 82.4076 78.64 81.9483 78.7771 81.489C78.9444 81.4563 79.1233 81.4424 79.3115 81.4447C79.4997 81.447 79.5879 81.447 79.574 81.447C79.6693 81.447 79.7668 81.3794 79.8667 81.2418C79.9086 81.1882 79.9783 81.0903 80.0782 80.9481C80.1362 80.8664 80.2385 80.7359 80.3848 80.5587C80.5312 80.3815 80.6799 80.2742 80.8332 80.2369C80.9866 80.1996 81.1213 80.1833 81.2351 80.1833C81.2979 80.0877 81.356 79.9944 81.4094 79.9058C81.4628 79.8172 81.507 79.7636 81.5418 79.7449C81.5952 79.717 81.6278 79.7519 81.6371 79.8475C81.6371 79.9152 81.6045 80.0364 81.5418 80.2089L81.5395 80.2136ZM79.4904 77.1732C79.4904 77.1149 79.5949 76.9004 79.804 76.5343C80.0131 76.1683 80.1409 75.9841 80.185 75.9841C80.2663 75.9841 80.3918 76.0517 80.5591 76.1846C80.7263 76.3175 80.8402 76.4481 80.8983 76.5716C81.0028 76.4038 81.105 76.2382 81.2049 76.0797C81.3467 75.8558 81.4349 75.7439 81.4698 75.7439C81.5883 75.7439 81.7346 75.8232 81.9112 75.9841C82.0878 76.1613 82.1761 76.3245 82.1761 76.476C82.1761 76.6439 82.0878 76.8561 81.9112 77.1102C81.7346 77.3597 81.6045 77.4856 81.5232 77.4856C81.4605 77.4856 81.3699 77.4273 81.2514 77.3084C81.0934 77.1452 80.9587 77.0263 80.8495 76.954C80.5823 77.474 80.3732 77.7328 80.2222 77.7328C80.185 77.7328 80.0549 77.6465 79.8272 77.4763C79.5996 77.3061 79.488 77.2035 79.488 77.1732H79.4904ZM80.1571 75.4455C80.1571 75.3965 80.2501 75.189 80.4336 74.8229C80.6172 74.4569 80.7356 74.2773 80.7914 74.2773C80.9285 74.2773 81.0772 74.3566 81.2398 74.5175C81.4071 74.6947 81.4907 74.8626 81.4907 75.0235C81.4907 75.1843 81.414 75.3895 81.2584 75.6576C81.1027 75.9258 80.9912 76.061 80.9192 76.061C80.8727 76.061 80.7751 75.9981 80.6264 75.8698C80.4778 75.7416 80.3616 75.6507 80.2803 75.597C80.199 75.5434 80.1571 75.4921 80.1571 75.4478V75.4455Z" fill="black"></path></g><defs><clipPath id="clip0_9871_2632"><rect width="67.4585" height="76.5745" fill="white" transform="translate(16 12)"></rect></clipPath></defs></svg> 