<?xml version="1.0" encoding="UTF-8"?> <svg xmlns="http://www.w3.org/2000/svg" width="100" height="100" viewBox="0 0 100 100" fill="none"><g clip-path="url(#clip0_9871_1194)"><path fill-rule="evenodd" clip-rule="evenodd" d="M59.0731 37.2615C59.5649 37.7917 59.6033 37.8147 58.927 38.5832C58.4199 39.0827 58.6735 39.0289 58.0894 38.66C57.5822 38.1913 57.3978 38.3142 58.0203 37.5458C58.5428 36.9541 58.4967 36.7312 59.0731 37.2615Z" fill="black"></path><path fill-rule="evenodd" clip-rule="evenodd" d="M51.5577 39.0137C51.7805 39.1598 52.0187 39.3288 52.257 39.4748C53.2944 40.0896 54.7237 40.6967 55.3077 41.5804C55.7304 42.3181 55.569 43.7859 54.401 45.1461C50.6432 49.0883 48.1611 48.4043 48.8527 44.8771C49.0602 44.1547 49.3752 43.5016 49.5212 44.3469C49.1831 45.2536 49.1908 45.7916 49.5212 46.1451C50.1514 46.8597 51.8497 45.9991 53.9245 44.0241C54.8467 43.0328 55.1233 42.4488 54.2626 42.0953C53.0254 41.4728 51.6115 41.0348 50.6125 40.2971C50.1053 39.9128 50.2052 39.5594 50.3204 39.106C50.7047 38.2069 50.7969 38.5757 51.5653 39.0137H51.5577Z" fill="black"></path><path fill-rule="evenodd" clip-rule="evenodd" d="M49.9823 33.3432L50.4511 35.2566C50.7431 36.5323 50.0899 35.7869 50.0207 36.686C50.0899 38.9068 50.1821 40.8433 49.967 43.0872C49.7595 44.7625 49.3829 44.9162 49.283 44.0939C49.3061 41.3736 49.1908 38.8684 49.0755 36.1711C49.0448 35.4641 48.9295 35.003 49.2062 34.2807C49.4674 33.4277 49.7287 33.1126 49.9823 33.3432Z" fill="black"></path><path fill-rule="evenodd" clip-rule="evenodd" d="M47.9458 40.5425C47.3618 40.8115 47.1005 40.0354 46.309 40.3965C45.0872 41.2265 44.7952 42.2101 46.0093 42.3868C47.7998 42.4944 47.992 43.5242 47.3618 44.9458C46.1938 46.9592 44.2803 48.4346 41.5138 48.2041C39.2469 47.8737 38.2632 44.9458 40.4457 41.6799C40.876 41.0344 41.0989 41.434 40.7761 42.041C40.0768 43.3551 39.9462 44.2849 40.1767 45.184C40.876 46.9515 43.5887 47.1206 45.9786 45.4146C47.5693 44.1389 46.5626 44.039 45.4483 43.7163C44.58 43.4166 44.3033 42.8018 44.6184 41.6568C45.018 40.2889 46.0401 39.0825 46.9622 38.9902C47.9228 38.9211 48.4838 40.0891 47.9458 40.5425Z" fill="black"></path><path fill-rule="evenodd" clip-rule="evenodd" d="M48.3839 48.1733C48.4531 48.9417 48.1764 49.472 47.4694 49.1492C46.7932 49.08 45.6328 49.933 44.7875 51.0242C41.414 55.7272 38.9779 54.4285 38.8857 51.8081C38.8319 49.8562 39.9155 48.1963 39.7387 50.0252C39.5927 51.2932 39.6696 52.1923 40.6839 52.346C42.728 52.4305 44.5954 49.1723 46.5627 48.0042C47.6385 47.3433 48.3301 47.5739 48.3916 48.1733H48.3839Z" fill="black"></path><path fill-rule="evenodd" clip-rule="evenodd" d="M46.8777 52.9535C47.6231 54.8593 48.2686 57.4413 45.9325 59.6161C42.7357 62.0521 39.4851 61.8215 38.6859 59.4854C38.3939 58.2866 38.5168 57.2108 38.8012 56.2195C39.4236 54.2522 39.877 54.4136 39.4313 56.3347C38.9702 58.3635 39.4313 59.301 40.9682 59.5162C42.7972 59.6161 44.5339 58.9321 46.2091 57.8102C46.8623 57.2031 47.0467 56.5653 46.6164 55.6508C46.0401 54.5442 45.5406 54.1523 45.7404 53.3377C46.1323 52.2158 46.4397 52.1236 46.8777 52.9458V52.9535Z" fill="black"></path><path fill-rule="evenodd" clip-rule="evenodd" d="M49.721 48.2352L50.1897 50.1487C50.4817 51.4244 49.8286 50.6789 49.7594 51.578C49.8286 53.7989 49.9208 55.7354 49.7056 57.9793C49.4981 59.6546 49.1216 59.8083 49.0217 58.986C49.0447 56.258 48.9295 53.7605 48.8142 51.0632C48.7834 50.3562 48.6682 49.8951 48.9448 49.1728C49.2061 48.3198 49.4674 48.0047 49.721 48.2352Z" fill="black"></path><path fill-rule="evenodd" clip-rule="evenodd" d="M43.3275 55.4132C43.8808 56.0049 43.9192 56.0357 43.1661 56.8963C42.5975 57.4573 42.8741 57.3958 42.2209 56.9809C41.6523 56.4506 41.4448 56.5889 42.1364 55.7283C42.7281 55.0597 42.6666 54.8138 43.3198 55.4055L43.3275 55.4132Z" fill="black"></path><path fill-rule="evenodd" clip-rule="evenodd" d="M58.4046 39.613C58.8964 40.1356 58.9348 40.1663 58.2586 40.9348C57.7514 41.4343 58.005 41.3805 57.421 41.0116C56.9138 40.5429 56.7294 40.6658 57.3518 39.8973C57.8744 39.3056 57.8283 39.0828 58.4046 39.613Z" fill="black"></path><path fill-rule="evenodd" clip-rule="evenodd" d="M59.8724 39.26C60.3642 39.7825 60.4026 39.8133 59.7264 40.5817C59.2192 41.0812 59.4728 41.0274 58.8887 40.6586C58.3816 40.1898 58.1971 40.3128 58.8196 39.5443C59.3421 38.9526 59.296 38.7297 59.8724 39.26Z" fill="black"></path><path fill-rule="evenodd" clip-rule="evenodd" d="M60.2105 49.3264C60.7023 49.8489 60.7407 49.8797 60.0645 50.6481C59.5573 51.1476 59.8109 51.0939 59.2269 50.725C58.7197 50.2562 58.5353 50.3792 59.1577 49.6107C59.6803 49.019 59.6342 48.7962 60.2105 49.3264Z" fill="black"></path><path fill-rule="evenodd" clip-rule="evenodd" d="M60.1336 51.1863C60.6254 51.7088 60.6638 51.7395 59.9876 52.508C59.4804 53.0075 59.734 52.9537 59.15 52.5849C58.6428 52.1161 58.4584 52.239 59.0808 51.4706C59.6034 50.8789 59.5573 50.656 60.1336 51.1863Z" fill="black"></path><path fill-rule="evenodd" clip-rule="evenodd" d="M57.0751 51.547C56.6448 51.3549 55.7303 51.9235 55.8302 52.7458C55.8686 53.0224 55.9609 52.984 56.2144 53.0685C57.1289 53.3836 57.8359 53.7832 58.4122 54.3134C59.0193 54.9743 59.15 55.3816 58.4968 56.711C57.5285 57.8407 57.152 58.1173 55.8225 57.7869C53.8169 57.6947 52.3184 59.4007 51.0811 60.7839C48.7527 63.0124 47.5078 61.706 47.4079 59.7465C47.3925 58.8781 47.5155 57.9867 47.8075 57.1414C48.0227 56.5881 48.2763 56.9185 48.0534 58.2249C47.7998 60.1153 49.2215 60.8146 50.7584 59.416C51.6728 58.4247 52.595 57.3642 54.1012 56.5343C54.0474 55.543 54.2395 54.5747 55.0541 53.8293C55.0925 52.6843 55.3999 51.5854 56.1837 50.8016C56.6525 50.402 57.6054 50.1561 57.9281 50.5249C58.2432 50.8938 58.2893 51.6469 57.7821 51.8774C57.3441 51.9158 57.3825 51.693 57.0751 51.5547V51.547ZM57.4056 55.3432C56.9138 54.8821 56.6986 55.0896 56.5526 55.5584C56.445 56.0117 56.5449 56.3345 57.152 56.3729C57.9896 56.396 58.0741 56.0502 57.4132 55.3432H57.4056ZM55.884 54.9359C55.6612 54.6669 55.2616 54.713 55.031 54.8975C54.7467 55.1588 54.6007 55.6352 55.0618 55.8427C55.8994 56.1808 56.3143 55.4815 55.884 54.9359Z" fill="black"></path><path fill-rule="evenodd" clip-rule="evenodd" d="M60.7561 42.2096C61.3939 42.8705 61.294 44.4305 60.6254 45.1605C60.1106 45.5678 59.6111 45.4295 59.2499 45.1452C58.6274 44.4843 58.7196 45.1221 57.8513 45.1682C57.3057 45.1375 57.1366 44.7071 56.9752 44.2C56.8292 43.5007 56.03 43.9694 56.1607 44.9761C56.1914 45.2527 56.2913 45.2143 56.5449 45.2989C57.4594 45.6139 58.1663 46.0135 58.7427 46.5438C59.3498 47.2046 59.4804 47.6119 58.8272 48.9414C57.859 50.071 57.4824 50.3476 56.153 50.0172C54.1473 49.925 52.6488 51.631 51.4116 53.0142C49.0831 55.2427 47.8382 53.9364 47.7383 51.9768C47.723 51.1084 47.8459 50.217 48.1379 49.3717C48.3531 48.8184 48.6067 49.1488 48.3838 50.4552C48.1303 52.3456 49.5519 53.0449 51.0888 51.6463C52.0033 50.655 52.9254 49.5945 54.4316 48.7646C54.3778 47.7733 54.57 46.805 55.3845 46.0596C55.4229 44.9146 55.7303 43.8157 56.5142 43.0319C57.0521 42.5708 57.4901 42.5708 57.5823 43.2394C57.9973 45.0683 58.7734 42.6861 59.1961 43.5929C59.2345 43.954 59.7033 44.2614 60.1105 44.0693C60.3334 43.9771 60.464 43.8004 60.3257 43.37C60.149 43.078 59.9338 42.9397 60.026 42.494C60.318 41.9099 60.3488 41.8638 60.7637 42.225L60.7561 42.2096ZM57.736 47.5658C57.2442 47.1047 57.029 47.3122 56.883 47.781C56.7754 48.2344 56.8753 48.5571 57.4747 48.5955C58.3124 48.6186 58.3969 48.2728 57.736 47.5658ZM56.2145 47.1585C55.9916 46.8896 55.592 46.9357 55.3615 47.1201C55.0771 47.3814 54.9311 47.8578 55.3922 48.0653C56.2298 48.4034 56.6448 47.7041 56.2068 47.1585H56.2145Z" fill="black"></path><path fill-rule="evenodd" clip-rule="evenodd" d="M20.7888 37.9155C20.7427 40.682 21.9645 42.2881 24.4851 42.7107C23.1249 45.4772 23.2402 47.5828 25.7146 48.6048C27.5512 49.3733 28.6809 48.2283 29.6184 46.676C30.4099 45.3619 31.6395 43.9633 33.4146 43.2102C32.7076 41.412 32.8383 39.56 33.2225 38.0769C33.6759 36.3171 33.6989 34.7111 31.8623 33.9426C29.3956 32.8975 27.8202 34.2884 26.7982 37.2009C24.731 35.6947 22.7253 35.9483 20.7888 37.9232V37.9155ZM38.0868 20.7174C40.861 20.6943 42.4517 21.9316 42.8436 24.4598C45.6254 23.1227 47.7233 23.2533 48.73 25.7354C49.4831 27.5797 48.3304 28.7017 46.7704 29.6238C45.4487 30.4077 44.0424 31.6218 43.274 33.3893C41.4834 32.6669 39.6314 32.7822 38.1406 33.1511C36.3809 33.5891 34.7671 33.5968 34.014 31.7525C32.9843 29.278 34.3982 27.7104 37.3107 26.7191C35.8276 24.6365 36.0888 22.6385 38.0792 20.7174H38.0868ZM36.5653 17.0057C36.7651 16.9212 37.0571 17.4745 37.3799 17.8664C37.9101 18.5196 38.8322 18.558 39.6161 18.5887C41.1991 18.6502 43.2509 19.1344 43.9656 21.3629C45.8483 20.9479 47.3468 21.2323 48.5379 22.0391C49.2372 22.5079 49.8136 23.1841 50.2593 23.9372C50.705 23.1688 51.3044 22.4925 52.0114 22.0161C53.2101 21.2169 54.7163 20.9556 56.5914 21.3783C57.3214 19.1574 59.3809 18.6886 60.9639 18.6349C61.7477 18.6118 62.6699 18.5811 63.2078 17.9279C63.5306 17.5436 63.8303 16.9904 64.0301 17.0749C64.2299 17.1594 64.0454 17.7588 63.9993 18.2583C63.9148 19.0959 64.5373 19.7799 65.0675 20.3485C66.1433 21.5166 67.2499 23.3071 66.1818 25.3896C67.8032 26.427 68.6716 27.6873 68.9405 29.1013C69.1019 29.9312 69.0328 30.815 68.8099 31.6603C69.6706 31.4374 70.5697 31.3759 71.4073 31.545C72.8136 31.8293 74.0662 32.7054 75.0959 34.3345C77.1861 33.2817 78.969 34.4037 80.1293 35.4872C80.698 36.0251 81.3742 36.6553 82.2119 36.5784C82.7114 36.5323 83.3184 36.3556 83.3953 36.5554C83.4721 36.7552 82.9188 37.0549 82.5346 37.3699C81.8814 37.9002 81.843 38.8223 81.8123 39.6061C81.7508 41.1892 81.2667 43.241 79.0381 43.9556C79.4531 45.8384 79.1688 47.3369 78.3619 48.528C77.8931 49.2273 77.2169 49.8036 76.4638 50.2493C77.2322 50.695 77.9085 51.2944 78.3849 52.0014C79.1841 53.2002 79.4454 54.7064 79.0227 56.5814C81.2436 57.3115 81.7124 59.371 81.7662 60.954C81.7892 61.7378 81.8199 62.66 82.4731 63.1979C82.8574 63.5206 83.4107 63.8203 83.3261 64.0201C83.2416 64.2199 82.6422 64.0355 82.1427 63.9894C81.3051 63.9049 80.6211 64.5273 80.0525 65.0576C78.8844 66.1334 77.0939 67.24 75.0114 66.1718C73.974 67.7933 72.7137 68.6616 71.2997 68.9306C70.4698 69.092 69.586 69.0228 68.7407 68.8C68.9636 69.6606 69.0251 70.5597 68.856 71.3974C68.5717 72.8036 67.6956 74.0562 66.0665 75.086C67.1193 77.1762 65.9973 78.959 64.9138 80.1194C64.3759 80.6881 63.7457 81.3643 63.8226 82.2019C63.8687 82.7014 64.0454 83.3085 63.8456 83.3854C63.6458 83.4699 63.3461 82.9089 63.0311 82.5247C62.5008 81.8715 61.5787 81.8331 60.7949 81.8023C59.2118 81.7408 57.16 81.2567 56.4454 79.0282C54.5626 79.4431 53.0641 79.1588 51.873 78.3519C51.1737 77.8832 50.5974 77.2069 50.1517 76.4538C49.706 77.2223 49.1143 77.8985 48.3996 78.375C47.2008 79.1742 45.6946 79.4355 43.8196 79.0128C43.0895 81.2337 41.03 81.7024 39.447 81.7562C38.6632 81.7793 37.741 81.81 37.2031 82.4632C36.8804 82.8474 36.5807 83.4007 36.3809 83.3162C36.1811 83.2317 36.3655 82.6323 36.4193 82.1328C36.5038 81.2951 35.8814 80.6112 35.3511 80.0425C34.2753 78.8745 33.1687 77.084 34.2369 75.0014C32.6154 73.964 31.747 72.7038 31.4781 71.2898C31.3167 70.4598 31.3859 69.5761 31.6087 68.7308C30.748 68.9537 29.8489 69.0151 29.0113 68.8461C27.605 68.5617 26.3524 67.6857 25.3227 66.0566C23.2325 67.1094 21.4497 65.9874 20.2893 64.9039C19.7206 64.3659 19.0444 63.7358 18.2068 63.8127C17.7073 63.8588 17.1002 64.0355 17.0233 63.8357C16.9465 63.6359 17.4998 63.3362 17.884 63.0211C18.5372 62.4909 18.5756 61.5688 18.6064 60.7849C18.6678 59.2019 19.152 57.1501 21.3805 56.4354C20.9655 54.5527 21.2499 53.0542 22.0568 51.8631C22.5255 51.1638 23.2018 50.5874 23.9548 50.1417C23.1864 49.696 22.5101 49.1043 22.0337 48.3897C21.2345 47.1909 20.9732 45.6847 21.3959 43.8096C19.175 43.0796 18.7063 41.0201 18.6525 39.4371C18.6294 38.6533 18.5987 37.7311 17.9455 37.1932C17.5613 36.8704 17.008 36.5707 17.0925 36.3709C17.177 36.1711 17.7764 36.3556 18.2759 36.4017C19.1135 36.4862 19.7975 35.8637 20.3661 35.3335C21.5342 34.2577 23.3247 33.1511 25.4072 34.2192C26.4447 32.5978 27.7049 31.7294 29.1189 31.4605C29.9488 31.2991 30.8326 31.3682 31.6779 31.5911C31.455 30.7304 31.3935 29.8313 31.5626 28.9937C31.8469 27.5797 32.723 26.3348 34.3521 25.3051C33.2993 23.2149 34.4213 21.4321 35.5048 20.2717C36.0427 19.703 36.6729 19.0268 36.596 18.1892C36.5499 17.6897 36.3732 17.0826 36.573 17.0057H36.5653ZM35.5048 35.418C36.2425 35.564 37.0417 35.5871 37.8717 35.5256C39.2856 35.418 40.3922 35.1414 41.6294 35.395C42.4594 35.564 43.3354 36.0482 43.9732 36.6322C44.3037 36.9319 44.588 37.27 44.8262 37.1778C45.0645 37.0779 45.0337 36.6399 45.0568 36.1942C45.1029 35.3335 45.3872 34.3729 45.8637 33.6736C46.563 32.6285 47.5466 32.0445 48.6301 31.13C49.2756 30.5844 49.8366 30.0004 50.2593 29.3626C50.6742 29.985 51.2275 30.5691 51.8577 31.107C52.9335 32.0291 53.9094 32.6208 54.6011 33.6736C55.0698 34.3806 55.3465 35.3489 55.3849 36.2019C55.4079 36.6553 55.3695 37.0856 55.6077 37.1932C55.846 37.2931 56.1303 36.955 56.4684 36.6553C57.1062 36.0789 57.99 35.6025 58.8199 35.4411C60.0571 35.1952 61.156 35.4795 62.57 35.6025C63.4153 35.6716 64.2222 35.6563 64.9753 35.5103C64.8293 36.248 64.8062 37.0472 64.8677 37.8771C64.9753 39.2911 65.2519 40.3977 64.9983 41.6349C64.8293 42.4648 64.3451 43.3409 63.7611 43.9787C63.4537 44.3091 63.1233 44.5935 63.2155 44.8317C63.3154 45.0699 63.7534 45.0392 64.1991 45.0622C65.0521 45.1083 66.0127 45.3927 66.7197 45.8691C67.7648 46.5684 68.3488 47.552 69.2633 48.6356C69.8089 49.2811 70.3929 49.842 71.0308 50.2647C70.4083 50.6797 69.8243 51.233 69.2864 51.8631C68.3642 52.9389 67.7802 53.9149 66.7197 54.6065C66.0127 55.0753 65.0444 55.3519 64.1915 55.3903C63.7381 55.4134 63.3077 55.375 63.2078 55.6132C63.1079 55.8514 63.446 56.1357 63.7457 56.4739C64.3221 57.1117 64.7985 57.9954 64.9599 58.8253C65.2058 60.0626 64.9215 61.1615 64.7985 62.5754C64.7294 63.4207 64.7447 64.2276 64.8908 64.9807C64.153 64.8347 63.3538 64.8117 62.5316 64.8731C61.1176 64.9807 60.011 65.2574 58.7738 65.0038C57.9439 64.8347 57.0678 64.3506 56.43 63.7665C56.0996 63.4592 55.8152 63.1287 55.577 63.2209C55.3388 63.3208 55.3695 63.7589 55.3465 64.2046C55.3004 65.0576 55.016 66.0181 54.5396 66.7251C53.8403 67.7702 52.8567 68.3543 51.7731 69.2687C51.1276 69.8143 50.5666 70.3984 50.1363 71.0362C49.7213 70.4137 49.1757 69.8297 48.5379 69.2918C47.4621 68.3696 46.4861 67.7779 45.7945 66.7251C45.3257 66.0181 45.0491 65.0499 45.0107 64.1969C44.9876 63.7435 45.026 63.3132 44.7878 63.2133C44.5496 63.1134 44.2653 63.4515 43.9271 63.7512C43.2893 64.3275 42.4056 64.804 41.5757 64.9653C40.3384 65.2113 39.2395 64.9269 37.8256 64.804C36.9803 64.7348 36.1657 64.7502 35.4203 64.8962C35.5663 64.1585 35.5893 63.3593 35.5279 62.5293C35.4203 61.1154 35.1436 60.0088 35.3972 58.7716C35.5663 57.9416 36.0504 57.0656 36.6345 56.4277C36.9342 56.0973 37.2723 55.813 37.1801 55.5748C37.0802 55.3365 36.6421 55.3673 36.1964 55.3442C35.3358 55.2981 34.3829 55.0138 33.6759 54.5373C32.6308 53.838 32.0467 52.8544 31.1323 51.7709C30.5867 51.1254 30.0026 50.5644 29.3648 50.1341C29.9873 49.7191 30.5713 49.1735 31.1092 48.5357C32.0314 47.4598 32.6231 46.4839 33.6759 45.7923C34.3829 45.3235 35.3511 45.0468 36.2041 45.0084C36.6575 44.9854 37.0878 45.0238 37.1954 44.7856C37.2953 44.5473 36.9572 44.263 36.6575 43.9249C36.0812 43.2871 35.6047 42.4033 35.4433 41.5734C35.1974 40.3362 35.4818 39.2373 35.6047 37.8233C35.6816 36.978 35.6585 36.1711 35.5125 35.418H35.5048ZM62.4778 20.7865C59.7113 20.7404 58.1052 21.9623 57.6826 24.4828C54.9161 23.1227 52.8106 23.2379 51.7885 25.7124C51.02 27.549 52.165 28.6786 53.7173 29.6162C55.0314 30.4077 56.43 31.6372 57.1831 33.4124C58.9813 32.7054 60.8333 32.836 62.3164 33.2202C64.0762 33.6736 65.6823 33.6967 66.4507 31.8601C67.4958 29.3933 66.1049 27.818 63.1925 26.7959C64.6986 24.7288 64.445 22.7231 62.4701 20.7865H62.4778ZM79.6759 38.0846C77.7548 36.0943 75.7491 35.8253 73.6743 37.3085C72.6753 34.3883 71.1153 32.982 68.6408 34.0118C66.7965 34.7648 66.8119 36.3709 67.2422 38.1384C67.6111 39.6292 67.7264 41.4812 67.004 43.2717C68.7715 44.0402 69.9856 45.4464 70.7695 46.7682C71.6916 48.3282 72.8136 49.4809 74.6579 48.7278C77.14 47.7211 77.2707 45.6232 75.9335 42.8414C78.4541 42.4418 79.699 40.8511 79.6759 38.0846ZM79.6068 62.4755C79.6529 59.7091 78.431 58.103 75.9105 57.6803C77.2707 54.9139 77.1554 52.8083 74.6809 51.7862C72.8443 51.0178 71.7147 52.1628 70.7772 53.7151C69.9856 55.0292 68.7561 56.4277 66.981 57.1808C67.688 58.979 67.5573 60.831 67.1731 62.3142C66.7197 64.0739 66.6966 65.68 68.5333 66.4485C71 67.4936 72.5754 66.1027 73.5974 63.1902C75.6646 64.6964 77.6703 64.4428 79.6068 62.4678V62.4755ZM62.3087 79.6737C64.299 77.7525 64.568 75.7469 63.0772 73.672C65.9973 72.673 67.4036 71.113 66.3739 68.6386C65.6208 66.7943 64.0147 66.8097 62.2472 67.24C60.7564 67.6089 58.9044 67.7241 57.1139 67.0018C56.3455 68.7769 54.9392 69.9911 53.6174 70.7672C52.0575 71.6894 50.9048 72.8113 51.6579 74.6556C52.6645 77.1378 54.7624 77.2684 57.5443 75.9313C57.9439 78.4518 59.5346 79.6967 62.301 79.6737H62.3087ZM37.9178 79.6045C40.6842 79.6506 42.2903 78.4288 42.713 75.9082C45.4794 77.2684 47.585 77.1531 48.6071 74.6787C49.3755 72.8421 48.2305 71.7124 46.6782 70.7749C45.3642 69.9834 43.9656 68.7539 43.2125 66.9787C41.4143 67.6857 39.5623 67.5551 38.0792 67.1708C36.3194 66.7174 34.7133 66.6944 33.9448 68.531C32.8997 70.9978 34.2906 72.5731 37.2031 73.5952C35.6969 75.6623 35.9505 77.668 37.9255 79.6045H37.9178ZM20.7196 62.3065C22.6408 64.2968 24.6465 64.5657 26.7213 63.0749C27.7203 65.9951 29.2803 67.4014 31.7547 66.3716C33.599 65.6185 33.5837 64.0125 33.1533 62.245C32.7845 60.7542 32.6615 58.9022 33.3915 57.1117C31.6241 56.3432 30.4022 54.9369 29.6261 53.6152C28.7039 52.0552 27.582 50.9025 25.7377 51.6556C23.2556 52.6623 23.1249 54.7602 24.462 57.542C21.9415 57.9416 20.6966 59.5323 20.7196 62.2988V62.3065Z" fill="black"></path></g><defs><clipPath id="clip0_9871_1194"><rect width="66.395" height="66.395" fill="white" transform="translate(17 17)"></rect></clipPath></defs></svg> 