<?xml version="1.0" encoding="UTF-8"?> <svg xmlns="http://www.w3.org/2000/svg" width="100" height="100" viewBox="0 0 100 100" fill="none"><path d="M22.6676 76.2619C22.6594 76.4581 22.6029 76.6493 22.5031 76.8184C22.4483 76.9766 22.3603 77.1211 22.2449 77.2424C22.1704 77.3084 22.0888 77.3658 22.0015 77.4136C21.7554 77.6027 21.5543 77.765 21.3982 77.9005C21.116 78.2028 20.8939 78.4543 20.7294 78.6522C20.6723 78.72 20.5337 78.9028 20.3134 79.2006C19.9819 79.6689 19.6037 80.1023 19.1845 80.4941C18.7053 80.9609 18.0676 81.2298 17.3988 81.2472C17.1697 81.2306 16.9443 81.1801 16.73 81.0973C16.5532 81.0153 16.3653 80.9598 16.1722 80.9328C16.1279 80.9273 16.0832 80.9246 16.0385 80.9248C15.848 80.9282 15.6607 80.9739 15.4901 81.0586C15.1986 81.2095 14.9226 81.3887 14.6661 81.5936C14.4959 81.749 14.2963 81.8687 14.0789 81.9454C14.0267 81.9454 14 81.9146 14 81.8517C14.0003 81.8279 14.003 81.8041 14.008 81.7808C14.0788 81.5743 14.1793 81.3792 14.3063 81.2017L14.5885 80.8098C14.6822 80.676 14.7718 80.5503 14.8561 80.4245C15.0699 80.1594 15.2976 79.9058 15.5382 79.6648C15.8246 79.3721 16.1489 79.1193 16.5026 78.9131C16.7975 78.7195 17.1377 78.6061 17.4898 78.584C17.6831 78.607 17.8727 78.6542 18.0542 78.7245C18.1984 78.772 18.3492 78.7959 18.501 78.7953C19.0476 78.7891 19.5722 78.5792 19.9723 78.2068C20.4271 77.8144 20.6545 77.5429 20.6545 77.3922L20.2158 77.1728C20.0847 77.1158 19.9723 77.0636 19.8787 77.0163C19.7199 76.9382 19.546 76.8953 19.3691 76.8906C19.1706 76.898 18.9792 76.9662 18.8207 77.0859C18.6933 77.1994 18.5752 77.3228 18.4676 77.4551C18.3525 77.6062 18.2562 77.6825 18.1773 77.6825C18.1578 77.6827 18.1387 77.6771 18.1225 77.6664C18.097 77.6664 18.0837 77.637 18.0837 77.5955C18.0845 77.5584 18.0899 77.5216 18.0997 77.4858C18.1324 77.3717 18.1772 77.2614 18.2335 77.1568C18.3831 76.8845 18.5625 76.6297 18.7685 76.397C18.882 76.2551 19.0239 76.1384 19.1852 76.0545C19.3464 75.9707 19.5234 75.9215 19.7048 75.9102C20.0181 75.9532 20.3225 76.0463 20.6064 76.1857C20.9111 76.3281 21.2359 76.4229 21.5694 76.4666C21.6981 76.4737 21.8268 76.4527 21.9466 76.4051C21.9939 76.3837 22.0955 76.3262 22.2516 76.2325C22.3265 76.173 22.4162 76.135 22.5111 76.1228C22.5312 76.1172 22.5523 76.1167 22.5726 76.1214C22.593 76.1261 22.6118 76.1358 22.6273 76.1496C22.6429 76.1635 22.6548 76.181 22.6618 76.2007C22.6688 76.2203 22.6708 76.2413 22.6676 76.2619ZM20.4659 87.364C20.481 87.423 20.4887 87.4836 20.4887 87.5445C20.4876 87.635 20.4745 87.725 20.4499 87.812C20.3952 87.9844 20.3159 88.148 20.2144 88.2976C20.1262 88.4313 20.0365 88.5651 19.9469 88.6815C19.8535 88.8063 19.7482 88.9219 19.6326 89.0266C19.4988 89.1684 19.3932 89.2393 19.3196 89.2419C19.2577 89.2479 19.1958 89.2297 19.147 89.1911C19.0895 89.1389 19.0133 89.0694 18.9156 88.9838C18.818 88.8982 18.719 88.8099 18.6147 88.7163C18.5104 88.6226 18.406 88.5437 18.3044 88.4648C18.2027 88.3859 18.1184 88.331 18.0502 88.2842C18.0278 88.2693 18.0113 88.2471 18.0034 88.2213C18.0034 88.2013 18.0141 88.1638 18.0502 88.1117L19.2407 86.2939C19.2835 86.2364 19.3142 86.2096 19.3356 86.215C19.3869 86.2347 19.4366 86.2584 19.4841 86.2859C19.5831 86.3487 19.6861 86.4196 19.7904 86.4865C19.8936 86.5556 19.9903 86.6339 20.0793 86.7206C20.1689 86.8078 20.2479 86.9052 20.3148 87.0108C20.3847 87.1221 20.4358 87.2441 20.4659 87.372V87.364Z" fill="black"></path><path d="M27.0883 74.7776C26.8636 76.1562 26.6612 77.1853 26.481 77.8648C26.349 78.3932 26.1851 78.9131 25.9901 79.4217C25.8791 79.7208 25.7161 79.998 25.5086 80.2403C25.2302 80.4871 24.901 80.6698 24.5442 80.7754C24.1618 80.9198 23.7704 81.0391 23.3725 81.1325C23.1788 81.1792 22.9828 81.2158 22.7853 81.2422C22.7317 81.2458 22.6787 81.2291 22.6368 81.1954C22.6339 81.1921 22.6317 81.1883 22.6303 81.1842C22.6289 81.18 22.6284 81.1756 22.6288 81.1713C22.6378 81.122 22.6594 81.0759 22.6916 81.0375C22.8736 80.8171 23.0841 80.6219 23.3176 80.457C23.6315 80.2109 24.0038 79.905 24.4345 79.5394C24.79 79.2515 25.1145 78.9274 25.4029 78.5724C25.6524 78.2235 25.8443 77.837 25.9714 77.4274C26.1355 76.9449 26.296 76.4398 26.4529 75.9119C26.6099 75.384 26.7236 75.0273 26.794 74.8418C26.8649 74.6532 26.9358 74.5623 27.0094 74.5743C27.083 74.5863 27.103 74.6265 27.103 74.7C27.1011 74.7264 27.0962 74.7524 27.0883 74.7776Z" fill="black"></path><path d="M29.3221 76.8229C29.2969 77.2882 29.1767 77.7434 28.969 78.1605C28.7751 78.527 28.5557 78.7089 28.3109 78.7089C28.3109 78.511 28.3747 77.8948 28.5022 76.8604C28.6297 75.826 28.7265 75.085 28.7924 74.6373C28.8575 74.1914 28.932 73.7175 29.0158 73.2154C29.1001 72.7138 29.1803 72.3086 29.2593 72.0009C29.3484 71.7441 29.4439 71.4855 29.5455 71.2251C29.6472 70.9647 29.7528 70.7061 29.8625 70.4493C29.8933 70.4012 29.92 70.3784 29.9414 70.3784C29.9628 70.3784 29.9936 70.4199 30.003 70.5042C29.8737 71.3709 29.7537 72.2707 29.6432 73.2034C29.5326 74.1362 29.4581 74.805 29.4198 75.2098C29.381 75.6111 29.3609 75.8478 29.3609 75.916C29.3342 76.3347 29.3221 76.6397 29.3221 76.8229Z" fill="black"></path><path d="M30.6222 81.2515C30.272 81.2691 29.9228 81.2013 29.6047 81.0537C29.2866 80.9062 29.0092 80.6835 28.7964 80.4048C28.465 79.9004 28.2956 79.3067 28.3109 78.7034C28.368 78.484 28.4228 78.2673 28.4754 78.0533C28.5276 77.8552 28.5942 77.6612 28.6747 77.4728C28.7422 77.3156 28.8323 77.1691 28.9422 77.0381C29.0399 76.9235 29.1749 76.8472 29.3234 76.8227C29.2939 77.3296 29.453 77.8294 29.7702 78.2258C29.9087 78.3884 30.0819 78.5179 30.277 78.6047C30.4722 78.6915 30.6843 78.7334 30.8978 78.7274C30.942 78.6735 30.9814 78.6157 31.0155 78.5549C31.0623 78.476 31.1118 78.389 31.1613 78.2874C31.2108 78.1857 31.2616 78.0894 31.3138 77.9851L31.4623 77.6881C31.4997 77.6253 31.5572 77.5156 31.6348 77.3577C31.7124 77.1999 31.8074 77.0394 31.917 76.8561C32.0336 76.6644 32.1618 76.4799 32.3009 76.3037C32.4403 76.1266 32.6011 75.9675 32.7798 75.8302C32.948 75.7039 33.14 75.6129 33.3442 75.5627C33.4231 75.5412 33.5046 75.5304 33.5863 75.5306C33.7238 75.5319 33.8599 75.5586 33.9876 75.6095C34.2332 75.6926 34.4844 75.7578 34.7394 75.8048C34.8401 75.8257 34.9427 75.8365 35.0457 75.8369C35.1888 75.8363 35.3312 75.8152 35.4683 75.774C35.5125 75.7705 35.5566 75.7813 35.5941 75.8048C35.6101 75.8155 35.6182 75.8396 35.6182 75.8757C35.6174 75.9128 35.612 75.9496 35.6021 75.9854C35.5674 76.1577 35.4997 76.3216 35.4028 76.4682C35.3049 76.6252 35.1934 76.7734 35.0697 76.911C34.8758 77.1706 34.6972 77.4412 34.5347 77.7216C34.3207 78.0783 34.0884 78.4795 33.8378 78.9254C33.6661 79.2328 33.4693 79.5254 33.2493 79.8002C33.0345 80.0698 32.7899 80.3144 32.5203 80.5292C32.255 80.7399 31.9608 80.9115 31.6468 81.0388C31.32 81.1677 30.9734 81.2396 30.6222 81.2515ZM31.3365 78.7274C31.5559 78.706 31.7967 78.6699 32.0615 78.6177C32.3308 78.5632 32.5926 78.4765 32.8413 78.3596C33.1305 78.2054 33.3967 78.0114 33.6318 77.7831C33.9214 77.5095 34.1745 77.1998 34.3849 76.8615C34.2521 76.8329 34.1213 76.7963 33.993 76.7518C33.8512 76.705 33.7134 76.6609 33.577 76.6181C33.4527 76.579 33.3234 76.5578 33.1931 76.5552C33.1405 76.5547 33.088 76.5601 33.0366 76.5712C32.8836 76.5951 32.7379 76.6526 32.6099 76.7398C32.4752 76.8314 32.3571 76.9454 32.2608 77.0768C32.1523 77.2215 32.0552 77.3745 31.9705 77.5343C31.8662 77.739 31.7619 77.9356 31.6575 78.1148C31.5532 78.2941 31.4462 78.5081 31.3365 78.7274ZM34.4478 70.0037C34.4629 70.0627 34.4705 70.1233 34.4705 70.1842C34.4703 70.2722 34.4573 70.3596 34.4317 70.4437C34.3783 70.6191 34.2989 70.7854 34.1963 70.9373C34.108 71.0711 34.0184 71.2048 33.9288 71.3212C33.8358 71.446 33.731 71.5616 33.6158 71.6663C33.482 71.8067 33.375 71.879 33.3014 71.8816C33.2396 71.8872 33.1779 71.869 33.1289 71.8308L32.8975 71.6222C32.8012 71.5365 32.7009 71.4496 32.5965 71.3546C32.4922 71.2597 32.3892 71.1821 32.2862 71.1045C32.2048 71.0397 32.12 70.9795 32.0321 70.9239C32.0099 70.9088 31.9934 70.8867 31.9853 70.8611C31.9853 70.8397 31.996 70.8035 32.0321 70.7514L33.2239 68.9336C33.2653 68.8761 33.2961 68.8493 33.3175 68.8547C33.3689 68.8741 33.4185 68.8978 33.466 68.9256C33.5649 68.9884 33.6679 69.0593 33.7723 69.1249C33.8757 69.1947 33.9728 69.2735 34.0625 69.3603C34.152 69.4472 34.2306 69.5447 34.2966 69.6505C34.3656 69.7594 34.4166 69.8786 34.4478 70.0037Z" fill="black"></path><path d="M41.846 74.7776C41.6213 76.1562 41.4189 77.1852 41.2387 77.8647C41.1065 78.3929 40.943 78.9128 40.7492 79.4217C40.6372 79.7206 40.4738 79.9977 40.2663 80.2403C39.9883 80.4869 39.6595 80.6695 39.3032 80.7753C38.9207 80.9194 38.5293 81.0387 38.1315 81.1325C37.9373 81.1791 37.7409 81.2157 37.543 81.2421C37.4894 81.2455 37.4365 81.2288 37.3945 81.1953C37.3916 81.1921 37.3894 81.1882 37.388 81.1841C37.3866 81.18 37.3861 81.1756 37.3865 81.1712C37.396 81.1221 37.4176 81.0762 37.4493 81.0375C37.6315 80.8168 37.8425 80.6215 38.0767 80.457C38.3897 80.2109 38.762 79.905 39.1936 79.5394C39.5483 79.2511 39.8724 78.927 40.1606 78.5723C40.4101 78.2235 40.602 77.8369 40.7291 77.4273C40.8932 76.9449 41.0537 76.4397 41.2106 75.9118C41.3685 75.3835 41.4782 75.025 41.5517 74.8418C41.6253 74.6585 41.6948 74.5622 41.7671 74.5742C41.7817 74.576 41.7958 74.5808 41.8085 74.5881C41.8212 74.5954 41.8323 74.6053 41.8412 74.617C41.85 74.6287 41.8565 74.6421 41.86 74.6564C41.8636 74.6706 41.8643 74.6855 41.862 74.7C41.8596 74.7264 41.8543 74.7524 41.846 74.7776Z" fill="black"></path><path d="M45.9377 78.2499C45.719 78.8132 45.4556 79.358 45.1498 79.8791C45.0036 80.1289 44.8195 80.3545 44.6041 80.5479C44.407 80.6893 44.189 80.7989 43.9581 80.873C43.6665 80.9777 43.3696 81.067 43.0686 81.1405C42.8409 81.2027 42.6073 81.2408 42.3717 81.2542C42.3088 81.2542 42.2767 81.2542 42.2767 81.2461L42.2687 81.2301C42.2687 81.1614 42.4885 80.9915 42.9281 80.7205C43.3312 80.4694 43.721 80.1975 44.0958 79.9059C44.3978 79.667 44.6747 79.3981 44.9225 79.1033C45.1521 78.8335 45.3287 78.5226 45.4428 78.1871C45.3743 78.2169 45.3036 78.2415 45.2314 78.2606C45.1438 78.2857 45.0544 78.3041 44.9639 78.3155C44.873 78.3289 44.7847 78.3382 44.6964 78.3436C44.6232 78.3494 44.5496 78.3467 44.477 78.3355C44.2025 78.3247 43.9404 78.2182 43.736 78.0346C43.6413 77.9521 43.5669 77.8488 43.5186 77.7327C43.4704 77.6167 43.4495 77.4912 43.4578 77.3658C43.48 77.2089 43.5167 77.0544 43.5675 76.9043C43.6713 76.6168 43.7914 76.3355 43.9273 76.0616C44.0843 75.7189 44.2863 75.3986 44.5279 75.1093C44.5968 75.0072 44.6865 74.921 44.7912 74.8562C44.8959 74.7914 45.0131 74.7496 45.1351 74.7334C45.292 74.7329 45.4466 74.7699 45.5863 74.8413C45.7259 74.9127 45.8464 75.0165 45.9377 75.144C46.1573 75.4317 46.2905 75.776 46.3216 76.1365C46.3216 76.2141 46.3296 76.293 46.3296 76.3706C46.3296 76.4856 46.3243 76.6007 46.3136 76.7157C46.2981 76.8775 46.2735 77.0382 46.24 77.1973C46.2106 77.331 46.1678 77.4902 46.1062 77.6922C46.0447 77.8941 46.0046 78.0774 45.9377 78.2499Z" fill="black"></path><path d="M45.3572 77.0646V76.9C45.4872 76.5114 45.7367 76.1739 46.0701 75.9356C46.4218 75.7518 46.7089 75.4647 46.8927 75.113C47.0345 74.8366 47.2574 74.4291 47.5615 73.8905C47.6404 73.7701 47.7755 73.5922 47.9695 73.3554C48.1608 73.1321 48.3707 72.9254 48.5968 72.7374C48.6494 72.6795 48.793 72.478 49.0275 72.1329C49.1083 71.9992 49.1977 71.871 49.295 71.749C49.4208 71.7383 49.6245 71.9291 49.9063 72.3215C50.1518 72.6395 50.2942 73.025 50.3143 73.4263C50.3146 73.7482 50.2307 74.0645 50.0708 74.3439C49.9312 74.6053 49.7295 74.8285 49.4836 74.994C49.347 75.0865 49.1858 75.1359 49.0208 75.1357C48.9021 75.1281 48.7841 75.112 48.6677 75.0876C48.5112 75.0729 48.4002 75.0649 48.3306 75.0649C48.2064 75.063 48.0826 75.0787 47.9628 75.1117C47.4586 75.4089 47.0694 75.8674 46.8579 76.4132C46.763 76.6004 46.6854 76.7502 46.6225 76.8599C46.5597 76.9696 46.5182 77.0445 46.4968 77.086C46.3687 77.3123 46.222 77.5275 46.0581 77.7293C45.9472 77.8994 45.8094 78.0503 45.6501 78.1761C45.5204 78.267 45.378 78.3382 45.2274 78.3874L45.3572 77.0646Z" fill="black"></path><path d="M53.1553 71.4616C53.2235 71.3051 53.2783 71.2275 53.3198 71.2275C53.3613 71.2275 53.3907 71.253 53.3907 71.3051C53.3904 71.329 53.3877 71.3527 53.3827 71.376C53.3354 71.5633 53.2988 71.7531 53.273 71.9445C53.2315 72.212 53.1994 72.4233 53.1794 72.5745C53.1473 72.842 53.1165 73.1416 53.0844 73.476C53.0523 73.8104 53.0242 74.1529 52.9988 74.5033C52.9734 74.8538 52.9466 75.2029 52.9199 75.5373C52.8931 75.8717 52.865 76.1726 52.8343 76.4388C52.7766 77.1191 52.648 77.7916 52.4504 78.4452C52.2875 78.9461 52.0859 79.4336 51.8471 79.9031C51.6171 80.349 51.4311 80.5826 51.2893 80.604C51.2746 80.604 51.2666 80.592 51.2666 80.5653C51.2744 80.4821 51.2928 80.4003 51.3214 80.3218C51.4018 80.104 51.4657 79.8804 51.5127 79.653C51.5734 79.3855 51.6273 79.0997 51.6746 78.7956C51.7218 78.4916 51.7633 78.1794 51.799 77.8593C51.8364 77.537 51.8672 77.2333 51.8939 76.9457C51.9207 76.6582 51.9608 76.2662 51.9876 75.7232C52.0143 75.1801 52.0531 74.728 52.1053 74.3522C52.1459 74.0226 52.2249 73.6989 52.3407 73.3878L53.1553 71.4616Z" fill="black"></path><path d="M70.5775 76.1097C70.5838 76.1328 70.5865 76.1567 70.5855 76.1806C70.5806 76.2713 70.5648 76.3611 70.5387 76.4481C70.439 76.7574 70.3132 77.0576 70.1628 77.3456C69.9875 77.6936 69.7858 78.0276 69.5596 78.3448C69.3339 78.659 69.0582 78.9342 68.7436 79.1594C68.2771 79.4842 67.7782 79.7599 67.2549 79.982C66.6256 80.2426 65.9789 80.4589 65.3194 80.6294C64.5123 80.8402 63.6912 80.9931 62.8623 81.0869C62.0089 81.1925 61.15 81.2475 60.2901 81.2514C59.5517 81.264 58.8133 81.2247 58.0804 81.1337C57.4193 81.081 56.7927 80.817 56.2934 80.3806C56.1325 80.2315 56.0062 80.049 55.9235 79.8459C55.8407 79.6427 55.8035 79.4239 55.8145 79.2049C55.8145 79.0123 55.8328 78.7354 55.8693 78.3742C55.9068 78.0144 55.9563 77.6533 56.0191 77.2935C56.0446 77.141 56.0686 77.0059 56.0887 76.8855C56.1009 76.8153 56.122 76.747 56.1516 76.6822C56.1783 76.63 56.2064 76.5993 56.2385 76.5912C56.2706 76.5832 56.3 76.6046 56.3281 76.6541C56.3677 76.7349 56.3956 76.8209 56.4111 76.9096C56.4311 77.0433 56.4606 77.1771 56.4967 77.3109C56.5418 77.4828 56.6272 77.6414 56.7458 77.7738C56.8645 77.9061 57.0129 78.0083 57.1788 78.0719C58.5648 78.5455 60.0265 78.7578 61.4899 78.6979C62.1623 78.6979 62.9171 78.6667 63.7544 78.6043C64.5969 78.5403 65.4337 78.416 66.2584 78.2325C66.9777 78.0819 67.682 77.8666 68.3624 77.5891C68.7849 77.4223 69.1914 77.2177 69.577 76.9778C69.82 76.8112 70.0369 76.6092 70.2204 76.3786C70.2944 76.2692 70.3781 76.1667 70.4705 76.0722C70.4785 76.0669 70.4874 76.0632 70.4968 76.0614C70.5062 76.0595 70.5159 76.0596 70.5253 76.0615C70.538 76.063 70.5499 76.0685 70.5593 76.0771C70.5686 76.0858 70.575 76.0972 70.5775 76.1097ZM62.5519 72.3163C62.572 72.3877 62.5823 72.4615 62.5827 72.5357C62.5823 72.6151 62.572 72.6942 62.5519 72.7711C62.4967 72.9432 62.4175 73.1067 62.3165 73.2566C62.2269 73.3904 62.1373 73.5241 62.049 73.6365C61.9565 73.7547 61.8554 73.866 61.7467 73.9696C61.6937 74.0298 61.633 74.0829 61.5661 74.1274C61.5253 74.1538 61.48 74.1724 61.4324 74.1822C61.4013 74.1911 61.3684 74.1911 61.3374 74.1822C61.3125 74.1721 61.2891 74.1586 61.2679 74.1421C61.0842 73.9967 60.9058 73.8478 60.7328 73.6953C60.549 73.5447 60.3555 73.4062 60.1536 73.2807C60.1322 73.2562 60.1183 73.226 60.1135 73.1937C60.1204 73.1626 60.1341 73.1334 60.1536 73.1081L61.3441 71.2743C61.3815 71.2275 61.4163 71.2048 61.4498 71.2074C61.4904 71.2128 61.5293 71.2274 61.5635 71.2502C61.6678 71.3131 61.7735 71.384 61.8818 71.4509C61.9875 71.5198 62.0857 71.5996 62.1747 71.689C62.2624 71.7765 62.3412 71.8723 62.4102 71.9752C62.4766 72.0792 62.5224 72.195 62.5452 72.3163H62.5519ZM64.9422 72.1758C64.9623 72.2472 64.9727 72.321 64.973 72.3952C64.9726 72.4742 64.9623 72.5529 64.9422 72.6293C64.8879 72.8022 64.8085 72.9662 64.7068 73.1162C64.6172 73.2499 64.5276 73.3837 64.4393 73.4961C64.3467 73.6143 64.2457 73.7256 64.137 73.8291C64.0843 73.8894 64.0236 73.9421 63.9564 73.9856C63.9156 74.012 63.8703 74.0306 63.8226 74.0404C63.8076 74.0456 63.7918 74.0483 63.7758 74.0485C63.7595 74.0484 63.7432 74.0457 63.7277 74.0404C63.7031 74.0302 63.6797 74.0172 63.6581 74.0017C63.4744 73.8545 63.2961 73.7056 63.1231 73.5549C62.9393 73.4038 62.7458 73.2648 62.5439 73.1389C62.5226 73.1148 62.5086 73.0851 62.5038 73.0533C62.5106 73.0217 62.5243 72.992 62.5439 72.9664L63.7344 71.1325C63.7718 71.0857 63.8066 71.063 63.84 71.0656C63.881 71.0707 63.9201 71.0859 63.9537 71.1098C64.0581 71.1726 64.1651 71.2435 64.2721 71.3091C64.3778 71.3785 64.476 71.4587 64.565 71.5485C64.6533 71.6354 64.7322 71.7314 64.8004 71.8348C64.8668 71.9388 64.9127 72.0546 64.9355 72.1758H64.9422Z" fill="black"></path><path d="M74.2464 74.7776C74.0217 76.1562 73.8188 77.1853 73.6378 77.8648C73.5068 78.3933 73.3433 78.9133 73.1483 79.4217C73.0373 79.7208 72.8743 79.998 72.6667 80.2403C72.3883 80.4871 72.0591 80.6698 71.7023 80.7754C71.32 80.9198 70.9286 81.0391 70.5306 81.1325C70.3369 81.1791 70.1409 81.2157 69.9434 81.2422C69.8894 81.2453 69.8362 81.2287 69.7936 81.1954C69.7889 81.1883 69.7865 81.1798 69.7869 81.1713C69.7959 81.1223 69.817 81.0762 69.8484 81.0375C70.0313 80.8175 70.2422 80.6223 70.4758 80.457C70.7905 80.2109 71.1628 79.905 71.5927 79.5394C71.9478 79.2511 72.2723 78.9271 72.5611 78.5724C72.8105 78.2235 73.0025 77.837 73.1295 77.4274C73.2936 76.945 73.4541 76.4398 73.6111 75.9119C73.768 75.384 73.8817 75.0273 73.9522 74.8418C74.0231 74.6532 74.094 74.5623 74.1675 74.5743C74.2411 74.5863 74.2612 74.6265 74.2612 74.7C74.2588 74.7263 74.2539 74.7523 74.2464 74.7776Z" fill="black"></path><path d="M77.7175 71.4229C77.7857 71.2664 77.8405 71.1875 77.882 71.1875C77.9235 71.1875 77.9529 71.2143 77.9529 71.2664C77.9525 71.2903 77.9498 71.314 77.9449 71.3373C77.8619 71.9053 77.8044 72.3066 77.7723 72.5411C77.7362 72.8087 77.7068 73.032 77.6867 73.2099C77.6666 73.3878 77.6479 73.5591 77.6319 73.7075C77.6158 73.856 77.6024 74.0018 77.5931 74.1422C77.5837 74.2827 77.569 74.4459 77.5529 74.6291C77.4675 75.8448 77.1129 77.0263 76.515 78.0881C76.2662 78.5349 76.0722 78.769 75.9305 78.7904C75.9157 78.7904 75.9077 78.777 75.9077 78.7516C75.9147 78.6683 75.9332 78.5864 75.9626 78.5081C76.0422 78.2897 76.1074 78.0663 76.1578 77.8393C76.2203 77.5718 76.2764 77.2856 76.3264 76.9806C76.3759 76.6756 76.4213 76.3613 76.4601 76.0443C76.4989 75.7273 76.5324 75.4183 76.5578 75.1321C76.5685 74.9591 76.5997 74.6844 76.6514 74.3081C76.6922 73.979 76.7712 73.6558 76.8868 73.345L77.7175 71.4229Z" fill="black"></path><path d="M81.5818 74.7773C81.3571 76.1559 81.1547 77.185 80.9746 77.8645C80.8423 78.3927 80.6788 78.9126 80.485 79.4215C80.3731 79.7204 80.2097 79.9975 80.0021 80.2401C79.7241 80.4867 79.3954 80.6693 79.0391 80.7751C78.6566 80.9192 78.2652 81.0385 77.8673 81.1322C77.6732 81.1789 77.4767 81.2155 77.2788 81.2419C77.2252 81.2452 77.1723 81.2286 77.1303 81.1951C77.1274 81.1918 77.1252 81.188 77.1238 81.1839C77.1225 81.1797 77.1219 81.1754 77.1223 81.171C77.1319 81.1219 77.1535 81.076 77.1852 81.0373C77.3674 80.8165 77.5784 80.6213 77.8125 80.4567C78.1255 80.2106 78.4978 79.9048 78.9294 79.5392C79.2841 79.2509 79.6082 78.9268 79.8965 78.5721C80.1459 78.2233 80.3379 77.8367 80.4649 77.4271C80.6299 76.9447 80.7904 76.4395 80.9465 75.9116C81.1025 75.3837 81.2162 75.027 81.2876 74.8415C81.3585 74.6529 81.4307 74.562 81.5029 74.574C81.5175 74.5758 81.5316 74.5805 81.5443 74.5879C81.557 74.5952 81.5682 74.6051 81.577 74.6168C81.5859 74.6285 81.5923 74.6419 81.5959 74.6562C81.5995 74.6704 81.6001 74.6852 81.5979 74.6998C81.5955 74.7261 81.5901 74.7522 81.5818 74.7773ZM82.3416 70.176C82.3578 70.2348 82.3659 70.2956 82.3657 70.3566C82.3648 70.4445 82.3518 70.5318 82.3269 70.6161C82.273 70.7913 82.1937 70.9575 82.0915 71.1097C82.0018 71.2434 81.9136 71.3772 81.8239 71.4936C81.7305 71.6184 81.6252 71.734 81.5096 71.8386C81.3758 71.9791 81.2702 72.0513 81.1966 72.054C81.1347 72.06 81.0728 72.0418 81.0241 72.0032L80.7927 71.7945C80.6964 71.7089 80.596 71.6206 80.4917 71.527C80.3874 71.4334 80.283 71.3544 80.1814 71.2769C80.0998 71.2124 80.0149 71.1521 79.9272 71.0963C79.9048 71.0811 79.8879 71.0591 79.8791 71.0334C79.8791 71.012 79.8898 70.9759 79.9272 70.9237L81.1177 69.106C81.1605 69.0484 81.1913 69.0217 81.2127 69.027C81.2641 69.0464 81.3138 69.0701 81.3611 69.0979C81.4601 69.1608 81.5618 69.2317 81.6661 69.2972C81.77 69.3664 81.8672 69.4452 81.9564 69.5326C82.0462 69.6196 82.1253 69.717 82.1918 69.8229C82.2609 69.9315 82.3116 70.0508 82.3416 70.176Z" fill="black"></path><path d="M85.4688 78.2499C85.2513 78.8137 84.9878 79.3586 84.681 79.8791C84.5351 80.1288 84.3515 80.3544 84.1366 80.5479C83.9395 80.6893 83.7215 80.7989 83.4905 80.873C83.1989 80.9777 82.902 81.067 82.601 81.1405C82.3729 81.2026 82.1389 81.2407 81.9028 81.2542C81.8399 81.2542 81.8092 81.2542 81.8092 81.2461L81.8011 81.2301C81.8011 81.1614 82.0205 80.9915 82.4592 80.7205C82.8628 80.47 83.2526 80.1981 83.627 79.9059C83.9295 79.6677 84.2066 79.3987 84.4536 79.1033C84.6842 78.8339 84.8613 78.5229 84.9753 78.1871C84.9067 78.2167 84.8361 78.2413 84.7639 78.2606C84.6762 78.2856 84.5868 78.3039 84.4964 78.3155C84.4041 78.3289 84.3172 78.3382 84.2289 78.3436C84.1557 78.3493 84.0821 78.3466 84.0095 78.3355C83.7354 78.3244 83.4738 78.2179 83.2698 78.0346C83.1751 77.9521 83.1007 77.8488 83.0524 77.7327C83.0042 77.6167 82.9834 77.4912 82.9916 77.3658C83.0131 77.2088 83.0498 77.0542 83.1013 76.9043C83.2045 76.6166 83.3247 76.3352 83.4611 76.0616C83.6177 75.719 83.8192 75.3987 84.0603 75.1093C84.1294 75.0074 84.2191 74.9212 84.3238 74.8564C84.4284 74.7917 84.5456 74.7497 84.6676 74.7334C84.8244 74.7329 84.9791 74.7699 85.1187 74.8413C85.2583 74.9127 85.3788 75.0165 85.4702 75.144C85.6898 75.4317 85.823 75.776 85.854 76.1365C85.854 76.2141 85.8621 76.293 85.8621 76.3706C85.8621 76.4856 85.8567 76.6007 85.846 76.7157C85.8305 76.8775 85.806 77.0382 85.7725 77.1973C85.743 77.331 85.7002 77.4902 85.6387 77.6922C85.5772 77.8941 85.537 78.0774 85.4688 78.2499Z" fill="black"></path><path fill-rule="evenodd" clip-rule="evenodd" d="M50.547 13.0265C47.3635 15.0385 44.6698 13.8908 44.9511 10.6169C45.0525 9.89866 45.2509 9.83635 45.5462 10.43C46.7101 12.1597 48.285 12.9025 50.2445 11.1603C50.6968 10.6873 50.5978 10.6493 51.03 11.1684C52.7051 12.6196 54.8513 12.6695 55.92 10.3359C56.1443 9.88973 56.4155 9.8997 56.4619 10.2966C56.6792 13.9911 53.6429 15.185 50.5452 13.0271L50.547 13.0265ZM59.1349 15.5607C67.8355 22.3446 69.5745 32.3942 63.7636 41.9996C63.042 42.9498 63.2951 43.5349 64.7309 42.1504C74.5948 32.3207 70.0406 18.4838 59.242 14.8946C58.0367 14.4148 58.1326 14.8385 59.1349 15.5607ZM50.4274 48.5953C50.5965 48.8551 50.6322 48.8551 50.8032 48.5953L52.1939 46.253C55.8179 46.6854 59.2514 46.6511 61.8774 45.5675C62.1907 45.3924 62.2063 45.1401 61.63 45.1314C59.1163 45.1396 56.6222 44.6929 54.2693 43.8128C65.1124 36.4252 65.767 22.8798 56.9173 15.628C56.2765 15.0672 56.2119 15.3108 56.8171 16.3134C62.0378 24.0719 60.4028 34.5215 52.7596 40.6225L53.2313 16.501L50.6153 14.0447L47.9999 16.4998L48.4716 40.6212C40.8291 34.5203 39.1928 24.0706 44.4136 16.3122C45.0187 15.3108 44.9548 15.066 44.3133 15.6268C35.5488 23.1335 36.1183 36.4252 46.9619 43.8128C44.6088 44.6912 42.1146 45.1365 39.6013 45.127C39.0249 45.1388 39.0375 45.3912 39.3507 45.5632C41.9767 46.648 45.4102 46.6848 49.0342 46.2486L50.4274 48.5953ZM42.4321 15.5607C33.5762 22.4966 31.9925 32.3942 37.8034 41.9996C38.525 42.9498 38.2726 43.5349 36.8362 42.1504C26.9729 32.3207 31.5271 18.4838 42.325 14.8946C43.5309 14.4148 43.4344 14.8379 42.4321 15.5607Z" fill="black"></path><path d="M33.4001 55.6258C33.3916 55.7029 33.3839 55.7799 33.3778 55.8516C33.3087 56.7383 33.1141 57.6107 32.7999 58.4427C32.6026 58.9452 32.3466 59.4227 32.0371 59.865C31.7539 60.3101 31.3649 60.6782 30.9049 60.9365C30.4449 61.1948 29.928 61.3351 29.4006 61.3451C28.9385 61.3359 28.4963 61.1559 28.1593 60.8397C27.9822 60.6652 27.8428 60.4562 27.75 60.2255C27.6573 59.9949 27.613 59.7476 27.62 59.499C27.655 58.4358 27.9457 57.3966 28.4675 56.4695L28.6393 56.1359C28.6601 56.1297 28.6678 56.166 28.6617 56.2438C28.6453 56.3581 28.6118 56.4692 28.5623 56.5735C28.4929 56.742 28.4246 56.9128 28.3573 57.0859C28.2895 57.2593 28.2302 57.4303 28.1786 57.6006C28.1291 57.7644 28.09 57.9311 28.0615 58.0999C28.0379 58.2217 28.0258 58.3456 28.0253 58.4697C28.0253 58.5031 28.0268 58.5377 28.0299 58.5737C28.0454 58.7726 28.1057 58.9654 28.2061 59.1378C28.3066 59.3101 28.4446 59.4576 28.61 59.5692C28.9527 59.7862 29.3487 59.904 29.7542 59.9097C30.3508 59.9133 30.9371 59.7534 31.4493 59.4474C31.844 59.1885 32.1758 58.8444 32.4201 58.4404C32.793 57.8873 32.9768 57.2283 32.944 56.562C32.944 56.4449 32.9394 56.3247 32.9301 56.2014C32.9256 56.0195 32.9469 55.838 32.9933 55.6621C33.039 55.4992 33.1674 55.1425 33.3785 54.5919C33.4019 54.5094 33.4386 54.4313 33.4872 54.3607C33.4982 54.3492 33.5124 54.3414 33.528 54.3384C33.5349 54.3391 33.5412 54.3424 33.5457 54.3476C33.5528 54.3598 33.556 54.3737 33.555 54.3877C33.554 54.4197 33.5493 54.4515 33.5411 54.4825L33.4733 54.9524L33.4001 55.6258ZM31.3553 56.6637C31.3646 56.7007 31.3693 56.7388 31.3691 56.7769C31.3688 56.8288 31.3626 56.8805 31.3506 56.931C31.3252 57.0396 31.2794 57.1423 31.2158 57.2338C31.1973 57.2639 31.175 57.2978 31.148 57.3348C31.121 57.3718 31.091 57.4118 31.0594 57.4503C31.0278 57.4889 30.9955 57.5274 30.9623 57.5651C30.9292 57.6029 30.8976 57.6368 30.8676 57.6668C30.8336 57.7031 30.7959 57.7356 30.7551 57.7639C30.732 57.7804 30.7058 57.792 30.678 57.7978C30.6677 57.8007 30.6571 57.8023 30.6464 57.8025C30.6372 57.8024 30.6281 57.8008 30.6195 57.7978C30.6051 57.7918 30.5914 57.7843 30.5786 57.7755C30.4708 57.6846 30.3624 57.5926 30.2535 57.4997C30.1416 57.4066 30.024 57.3207 29.9014 57.2423C29.8891 57.2323 29.8811 57.218 29.879 57.2022C29.8823 57.1811 29.8899 57.1609 29.9014 57.1429L30.6241 56.028C30.648 56.0011 30.6703 55.9887 30.6919 55.9918C30.716 55.9964 30.739 56.0055 30.7597 56.0188C30.8927 56.0938 31.0155 56.1857 31.1249 56.2923C31.2338 56.393 31.3135 56.5213 31.3553 56.6637Z" fill="black"></path><path d="M35.6353 53.3461C35.6746 53.2551 35.7062 53.2104 35.7301 53.2104C35.754 53.2104 35.7709 53.2251 35.7709 53.2551C35.7708 53.2689 35.7692 53.2826 35.7663 53.296C35.718 53.6242 35.6849 53.8553 35.6669 53.9894C35.6461 54.1435 35.6291 54.2722 35.6168 54.3746C35.6045 54.4771 35.5945 54.575 35.5852 54.6613C35.576 54.7476 35.569 54.83 35.5629 54.9117C35.5567 54.9933 35.5498 55.0858 35.5405 55.1914C35.507 55.584 35.4294 55.9717 35.3094 56.3471C35.2107 56.6366 35.0866 56.9168 34.9388 57.1846C34.7962 57.4419 34.6838 57.5768 34.6029 57.5883C34.5936 57.5883 34.589 57.5814 34.589 57.566C34.5934 57.5183 34.6041 57.4714 34.6206 57.4265C34.6668 57.3007 34.7046 57.172 34.7338 57.0413C34.7698 56.8872 34.8022 56.7226 34.8309 56.5474C34.8597 56.3722 34.8854 56.1925 34.908 56.0081C34.9311 55.8231 34.9496 55.6475 34.965 55.4818C34.9704 55.3824 34.9889 55.2245 35.0189 55.008C35.0424 54.8182 35.0879 54.6317 35.1545 54.4525L35.6353 53.3461Z" fill="black"></path><path d="M39.3551 55.3091C39.3124 55.4719 39.2519 55.6295 39.1748 55.7791C39.1136 55.898 39.0378 56.0088 38.9491 56.1088C38.8684 56.1886 38.7807 56.2611 38.6871 56.3253C38.591 56.3913 38.4876 56.4458 38.3789 56.4879C38.2785 56.5281 38.1831 56.5798 38.0946 56.642C38.0221 56.6925 37.9567 56.7526 37.9005 56.8208C37.8114 56.9235 37.7426 57.0422 37.6978 57.1706C37.6398 57.319 37.581 57.4762 37.5214 57.6421C37.4618 57.808 37.3932 57.9698 37.3157 58.1275C37.2295 58.3187 37.0964 58.4849 36.9286 58.6107C36.7609 58.7366 36.5641 58.8179 36.3564 58.8471L35.5312 58.9843C35.5076 58.9873 35.4783 58.9897 35.4434 58.9912C35.4178 58.9941 35.392 58.9941 35.3664 58.9912C35.315 58.9758 35.2893 58.9473 35.2893 58.9057C35.2899 58.8867 35.2944 58.8681 35.3024 58.851C35.3499 58.7605 35.4238 58.6866 35.5143 58.6391C35.7465 58.485 35.9316 58.3607 36.0698 58.2662L36.4088 58.035C36.4959 57.9749 36.5629 57.9249 36.6184 57.8856C36.6739 57.8463 36.7278 57.8031 36.7879 57.7546C37.0013 57.6064 37.1749 57.4079 37.2933 57.1767C37.3473 57.0719 37.3973 56.9695 37.442 56.8685C37.4867 56.7676 37.5353 56.6713 37.5846 56.575C37.6339 56.4787 37.6878 56.3831 37.7448 56.2884C37.8051 56.1888 37.8715 56.0931 37.9436 56.0017C38.035 55.8933 38.1414 55.7983 38.2595 55.7197C38.4118 55.6165 38.5717 55.525 38.738 55.4462C38.929 55.362 39.0796 55.2067 39.1579 55.0132C39.1937 54.9297 39.2367 54.8495 39.2866 54.7736C39.3019 54.7434 39.3237 54.7169 39.3503 54.6959C39.3769 54.6748 39.4077 54.6598 39.4406 54.6519C39.4799 54.658 39.4992 54.6881 39.4992 54.742C39.4985 54.777 39.4941 54.8119 39.4861 54.846C39.4707 54.9061 39.4522 54.9747 39.4299 55.0517C39.4075 55.1288 39.3852 55.2128 39.3551 55.3091ZM37.865 61.174C37.8774 61.2165 37.8837 61.2606 37.8835 61.3049C37.8832 61.3492 37.8769 61.3933 37.865 61.4359C37.8338 61.5352 37.7884 61.6294 37.7302 61.7156C37.6786 61.7927 37.6269 61.8697 37.5761 61.9344C37.5233 62.0027 37.4653 62.0668 37.4027 62.1263C37.3724 62.161 37.3374 62.1913 37.2987 62.2164C37.2751 62.2319 37.2491 62.2434 37.2217 62.2503C37.2041 62.2558 37.1853 62.2558 37.1677 62.2503C37.1531 62.2449 37.1394 62.2374 37.1269 62.228C37.0221 62.144 36.9196 62.0592 36.8187 61.9753C36.7134 61.8858 36.6016 61.8041 36.4843 61.731C36.4732 61.7182 36.4655 61.7029 36.462 61.6863C36.4649 61.6668 36.4726 61.6483 36.4843 61.6324L37.1708 60.5753C37.1916 60.5483 37.2124 60.536 37.2317 60.5375C37.2552 60.5402 37.2778 60.5486 37.2972 60.5622C37.3573 60.5984 37.4181 60.6392 37.4798 60.677C37.5407 60.7172 37.5975 60.7634 37.6493 60.8149C37.6999 60.8652 37.7454 60.9204 37.7849 60.9798C37.8241 61.0386 37.8513 61.1046 37.865 61.174ZM39.2419 61.0923C39.2542 61.1349 39.2604 61.179 39.2604 61.2233C39.2601 61.2676 39.2539 61.3116 39.2419 61.3543C39.2106 61.4535 39.1652 61.5477 39.107 61.6339C39.0554 61.711 39.0038 61.788 38.9529 61.8535C38.8996 61.9216 38.8414 61.9857 38.7788 62.0454C38.7481 62.0797 38.7131 62.11 38.6748 62.1355C38.651 62.1506 38.625 62.1621 38.5977 62.1694C38.5799 62.1749 38.5609 62.1749 38.543 62.1694C38.5289 62.1635 38.5154 62.156 38.503 62.1471C38.3974 62.0623 38.2949 61.9783 38.1948 61.8936C38.0896 61.8045 37.9781 61.7232 37.8612 61.6501C37.8495 61.6373 37.8416 61.6216 37.8381 61.6047C37.8412 61.585 37.8491 61.5665 37.8612 61.5507L38.5469 60.4944C38.5677 60.4674 38.5885 60.4543 38.6078 60.4559C38.6312 60.459 38.6536 60.4674 38.6733 60.4805C38.7334 60.5167 38.7942 60.5576 38.8566 60.5961C38.9768 60.676 39.0802 60.7786 39.161 60.8981C39.2012 60.9568 39.2297 61.0228 39.2449 61.0923H39.2419Z" fill="black"></path><path d="M41.0479 53.368C41.0872 53.2779 41.1188 53.2324 41.1426 53.2324C41.1665 53.2324 41.1835 53.2478 41.1835 53.2779C41.1833 53.2914 41.1817 53.3048 41.1789 53.3179C41.1521 53.4259 41.131 53.5352 41.1157 53.6454C41.0918 53.7995 41.0733 53.922 41.0617 54.0091C41.0433 54.1632 41.0253 54.3363 41.0078 54.5284C40.9893 54.721 40.9731 54.9182 40.9577 55.1193C40.9423 55.3204 40.9277 55.5231 40.9123 55.7157C40.8969 55.9083 40.8807 56.0809 40.863 56.235C40.83 56.6269 40.7559 57.0143 40.6418 57.3907C40.5482 57.6793 40.432 57.9601 40.2944 58.2305C40.1618 58.4879 40.0547 58.6219 39.9738 58.6343C39.9646 58.6343 39.96 58.6265 39.96 58.6119C39.9645 58.564 39.9751 58.5169 39.9916 58.4717C40.0375 58.346 40.0746 58.2173 40.1025 58.0864C40.1374 57.9323 40.1682 57.7675 40.195 57.5918C40.2219 57.4161 40.2458 57.2351 40.2674 57.0525C40.289 56.8699 40.3059 56.6919 40.3213 56.527C40.3367 56.3621 40.3606 56.1356 40.3753 55.8228C40.3899 55.51 40.413 55.2488 40.4431 55.0323C40.4666 54.8425 40.5121 54.6561 40.5787 54.4767L41.0479 53.368Z" fill="black"></path><path d="M44.0774 55.5126C43.9449 55.7951 43.8116 56.0817 43.6775 56.3725C43.5514 56.6436 43.4408 56.9217 43.3462 57.2054C43.2 57.6033 43.116 58.0215 43.0974 58.4451C43.0969 58.4966 43.0998 58.548 43.1058 58.5992C43.1127 58.7634 43.1543 58.9243 43.2279 59.0713C43.3015 59.2183 43.4053 59.3481 43.5327 59.4521C43.8526 59.6829 44.2431 59.7949 44.6368 59.7687C45.0343 59.7685 45.427 59.682 45.7879 59.5153C46.0533 59.3988 46.301 59.2455 46.5237 59.0599C46.7177 58.9013 46.8845 58.7121 47.0176 58.4998C47.1173 58.3553 47.1774 58.1871 47.1917 58.0121C47.1924 57.9808 47.1847 57.9499 47.1692 57.9228C47.1537 57.8956 47.1311 57.8732 47.1038 57.858C47.0346 57.8119 46.9594 57.7753 46.8804 57.7493C46.7926 57.7193 46.7024 57.6923 46.6092 57.6723C46.5323 57.6535 46.4569 57.6293 46.3834 57.5998C46.253 57.5538 46.1371 57.474 46.0475 57.3687C45.9524 57.2375 45.9081 57.0763 45.9227 56.9149C45.9384 56.6163 46.0202 56.325 46.1623 56.062C46.1876 56.0282 46.2196 56.0001 46.2563 55.9795C46.2839 55.9622 46.3163 55.9542 46.3488 55.9564C46.3769 55.9594 46.4037 55.9704 46.4258 55.988C46.4494 56.0079 46.4659 56.035 46.4728 56.065C46.4643 56.1105 46.4936 56.1552 46.5614 56.2007C46.6835 56.27 46.8127 56.326 46.9467 56.3678C47.0669 56.4047 47.1821 56.4565 47.2895 56.5219C47.3698 56.5877 47.4321 56.6727 47.4708 56.769C47.5094 56.8653 47.5232 56.9698 47.5107 57.0728C47.4995 57.5441 47.4198 58.0113 47.2741 58.4597C47.1326 58.947 46.9104 59.4072 46.6169 59.8211C46.4896 60.0108 46.3443 60.1878 46.1831 60.3497C46.0172 60.5201 45.8291 60.6673 45.6238 60.7873C45.2294 61.057 44.7608 61.1973 44.2831 61.1887C44.0362 61.201 43.7898 61.1566 43.5627 61.0588C43.3357 60.9611 43.134 60.8126 42.9733 60.6247C42.8424 60.4467 42.7474 60.245 42.6936 60.0307C42.6442 59.8352 42.6183 59.6345 42.6166 59.4328C42.626 59.0845 42.6712 58.738 42.7514 58.3988C42.8337 58.051 42.9379 57.7087 43.0635 57.3741C43.1897 57.0373 43.3334 56.7073 43.4942 56.3856C43.6554 56.0635 43.8203 55.7553 43.9888 55.461C44.0158 55.4155 44.0312 55.3901 44.0335 55.3839C44.0635 55.3362 44.0913 55.3115 44.1152 55.3115C44.1198 55.312 44.1243 55.3136 44.1283 55.3161H44.1329C44.1361 55.3198 44.1386 55.3241 44.1402 55.3287C44.1418 55.3333 44.1424 55.3382 44.1421 55.3431C44.1416 55.3525 44.1401 55.3618 44.1375 55.3709C44.1221 55.3955 44.1044 55.4402 44.0774 55.5126Z" fill="black"></path><path d="M46.1586 56.0633C46.2305 55.9284 46.3105 55.7979 46.3982 55.6726C46.5067 55.5134 46.6251 55.361 46.7526 55.2165C46.8786 55.072 47.015 54.9371 47.161 54.8128C47.2625 54.7329 47.3547 54.6419 47.436 54.5416C47.474 54.5061 47.498 54.4583 47.5038 54.4067C47.5038 54.3736 47.463 54.3374 47.3821 54.2981C47.3542 54.2876 47.3299 54.2691 47.3123 54.2451C47.2946 54.221 47.2844 54.1923 47.2827 54.1625C47.2828 54.1503 47.2843 54.1381 47.2873 54.1263C47.5441 53.5818 47.7052 53.2464 47.7704 53.12C47.8634 52.9783 47.9551 52.912 48.0455 52.9213C48.2936 52.9646 48.531 53.0551 48.7451 53.1878C48.8147 53.2241 48.8744 53.2767 48.9192 53.3411C48.9641 53.4055 48.9926 53.4798 49.0024 53.5577C48.9912 53.7733 48.907 53.9787 48.7636 54.1402C48.6369 54.3299 48.4685 54.488 48.2712 54.6024C48.1212 54.68 47.9158 54.7981 47.6548 54.9569C47.4565 55.0718 47.2665 55.2005 47.0862 55.3421C46.9513 55.4603 46.8261 55.5891 46.7118 55.7273C46.6155 55.8284 46.5348 55.9432 46.4722 56.0679C46.4247 56.1033 46.3685 56.1252 46.3096 56.1311C46.2536 56.124 46.201 56.1004 46.1586 56.0633Z" fill="black"></path><path d="M51.9232 55.9101C51.9101 56.1511 51.88 56.3908 51.833 56.6275C51.7981 56.8437 51.7508 57.0577 51.6913 57.2685C51.5689 57.6285 51.4028 57.9722 51.1966 58.2917C51.0688 58.4874 50.9076 58.6593 50.7205 58.7994C50.5425 58.941 50.3223 59.0189 50.0949 59.0206C49.9881 59.0241 49.8836 58.9897 49.7998 58.9235C49.7106 58.8475 49.6375 58.7546 49.5848 58.65C49.5349 58.5516 49.5058 58.4441 49.4993 58.3341C49.4993 58.3071 49.4993 58.2909 49.5108 58.2847C49.5214 58.2784 49.5328 58.2738 49.5447 58.2709C49.5893 58.2564 49.6301 58.2324 49.6643 58.2004C49.6985 58.1685 49.7253 58.1294 49.7427 58.086C49.8004 57.9681 49.8443 57.844 49.8737 57.7161C49.9071 57.564 49.9283 57.4094 49.9369 57.2538C49.9492 57.0736 49.9554 56.9179 49.9554 56.7916V56.3994C49.9554 56.2638 49.9554 56.122 49.96 55.9749C49.9726 55.5508 50.0164 55.1282 50.091 54.7105C50.1858 54.2706 50.3278 53.8423 50.5148 53.433C50.551 53.356 50.5802 53.3221 50.6034 53.3244C50.6265 53.3267 50.6342 53.3491 50.628 53.3884C50.5037 53.9405 50.4491 54.5061 50.4654 55.0719C50.4562 55.8454 50.4403 56.3578 50.4177 56.609C50.3965 56.855 50.349 57.0981 50.2759 57.334C50.182 57.6576 50.0422 57.9661 49.8606 58.2501C49.985 58.2501 50.1093 58.2426 50.2328 58.2277C50.3518 58.2131 50.4685 58.1836 50.5802 58.1399C50.6931 58.0955 50.7973 58.0319 50.8884 57.9519C50.99 57.8594 51.0719 57.7476 51.1296 57.6229C51.2036 57.4611 51.2554 57.2901 51.2837 57.1144C51.3252 56.8752 51.3455 56.6329 51.3446 56.3901C51.3446 56.1821 51.3446 55.9178 51.3407 55.5958C51.3369 55.2737 51.3461 54.9794 51.3677 54.7151C51.4038 54.3831 51.4814 54.057 51.5988 53.7443C51.7306 53.3652 51.8577 53.0316 51.9779 52.7427C51.9956 52.7065 52.011 52.688 52.0226 52.688L52.0318 52.6926C52.038 52.6988 52.0411 52.718 52.0411 52.7512C52.0411 52.7843 52.0411 52.8328 52.0318 52.896C51.979 53.2274 51.9504 53.5621 51.9463 53.8976L51.9232 55.9101Z" fill="black"></path><path d="M54.3256 56.3299C54.2759 56.3473 54.2241 56.3579 54.1715 56.3615L54.0089 56.3792C53.9065 56.3797 53.8062 56.4093 53.72 56.4647C53.5256 56.6436 53.3554 56.8472 53.2138 57.0703C53.1267 57.2354 52.9989 57.3755 52.8425 57.4773C52.6861 57.5791 52.5062 57.6392 52.3201 57.652C52.1527 57.6612 51.9864 57.6196 51.843 57.5327C51.6997 57.4458 51.5858 57.3177 51.5164 57.1651C51.3926 56.8539 51.3371 56.5196 51.3539 56.185C51.364 55.8022 51.4326 55.4231 51.5573 55.0609C51.6659 54.8144 51.7676 54.6911 51.8655 54.6911C51.887 54.6911 51.9109 54.7103 51.9379 54.7496V55.1649C51.9557 55.3226 51.9914 55.4777 52.0442 55.6272C52.0981 55.7949 52.2012 55.9426 52.3401 56.051C52.5087 56.1565 52.7053 56.2086 52.9041 56.2005C53.0442 56.2072 53.1841 56.1836 53.3143 56.1314C53.4444 56.0791 53.5618 55.9994 53.6584 55.8977C53.7586 55.7585 53.8907 55.6454 54.0436 55.5679C54.0728 55.559 54.1032 55.5545 54.1338 55.5548C54.1597 55.5551 54.1855 55.5582 54.2108 55.564C54.2654 55.578 54.3217 55.5839 54.378 55.5818C54.5278 55.576 54.6707 55.5176 54.7817 55.4169C54.9094 55.3026 55.0169 55.1677 55.0999 55.0178C55.1039 55.0072 55.1102 54.9977 55.1184 54.99C55.1237 54.9845 55.1301 54.9801 55.1371 54.9771C55.1441 54.974 55.1516 54.9724 55.1593 54.9723C55.1669 54.9727 55.1744 54.9743 55.1816 54.9769C55.2266 54.9905 55.2728 54.9996 55.3195 55.0039C55.363 55.0059 55.4059 54.9932 55.4413 54.9677C55.4935 54.928 55.5372 54.8782 55.5699 54.8213C55.6283 54.7222 55.6797 54.6192 55.724 54.5131C55.7633 54.4022 55.8011 54.3467 55.8365 54.3467C55.8429 54.3468 55.8491 54.3482 55.855 54.3505C55.8727 54.3505 55.882 54.3798 55.882 54.4276C55.8809 54.4715 55.8763 54.5153 55.8681 54.5586C55.8177 54.8048 55.7367 55.0437 55.627 55.2697C55.5571 55.4188 55.4581 55.5524 55.3357 55.6627C55.2216 55.749 55.0902 55.8097 54.9505 55.8406C54.8573 55.9426 54.756 56.037 54.6477 56.1226C54.5489 56.2042 54.4408 56.2738 54.3256 56.3299Z" fill="black"></path><path d="M57.4854 53.368C57.5247 53.2779 57.5563 53.2324 57.5801 53.2324C57.604 53.2324 57.621 53.2478 57.621 53.2779C57.6208 53.2914 57.6192 53.3048 57.6164 53.3179C57.5896 53.4259 57.5685 53.5352 57.5532 53.6454C57.5293 53.7995 57.5108 53.922 57.4992 54.0091C57.4808 54.1632 57.463 54.3357 57.4445 54.5284C57.4261 54.721 57.4106 54.9182 57.3952 55.1193C57.3798 55.3204 57.3652 55.5231 57.3498 55.7157C57.3344 55.9083 57.3182 56.0809 57.3005 56.235C57.2671 56.6269 57.193 57.0142 57.0793 57.3907C56.9857 57.6793 56.8695 57.9601 56.7318 58.2305C56.5993 58.4879 56.4922 58.6219 56.4113 58.6343C56.4021 58.6343 56.3975 58.6265 56.3975 58.6119C56.402 58.564 56.4126 58.5169 56.4291 58.4717C56.475 58.346 56.5121 58.2173 56.54 58.0864C56.5749 57.9323 56.6057 57.7675 56.6325 57.5918C56.6594 57.4161 56.6833 57.2351 56.7049 57.0525C56.7265 56.8699 56.7434 56.6919 56.7588 56.527C56.7742 56.3621 56.7981 56.1356 56.8127 55.8228C56.8274 55.51 56.8505 55.2488 56.8806 55.0323C56.9041 54.8425 56.9496 54.6561 57.0162 54.4767L57.4854 53.368Z" fill="black"></path><path d="M60.4832 55.6529C60.3507 55.9354 60.2174 56.222 60.0833 56.5127C59.957 56.7838 59.8464 57.0619 59.752 57.3456C59.6042 57.7438 59.5189 58.1626 59.4993 58.5869C59.4989 58.6384 59.5017 58.6898 59.5078 58.741C59.5148 58.9052 59.5564 59.0661 59.63 59.2131C59.7035 59.3601 59.8073 59.4898 59.9346 59.5939C60.255 59.8239 60.6452 59.9355 61.0387 59.9098C61.4362 59.9098 61.8289 59.8235 62.1898 59.6571C62.4554 59.5406 62.7032 59.3871 62.9256 59.2009C63.1198 59.0428 63.2866 58.8538 63.4195 58.6416C63.5193 58.4971 63.5793 58.3289 63.5936 58.1539C63.5945 58.1226 63.5867 58.0917 63.5712 58.0645C63.5557 58.0374 63.5331 58.015 63.5058 57.9998C63.4365 57.9537 63.3614 57.9171 63.2823 57.8911C63.1945 57.8611 63.1044 57.8341 63.0111 57.8102C62.9344 57.7911 62.859 57.7669 62.7854 57.7378C62.6551 57.6915 62.5393 57.6118 62.4495 57.5067C62.3544 57.3754 62.31 57.2142 62.3246 57.0528C62.3421 56.7301 62.4285 56.4148 62.5781 56.1283C62.77 55.7305 63.0063 55.3558 63.2823 55.0111C63.4916 54.7629 63.7179 54.5297 63.9596 54.313C64.146 54.1517 64.3258 54.0089 64.4989 53.8846C64.6597 53.767 64.8295 53.6622 65.0067 53.571C65.0675 53.5374 65.1309 53.5086 65.1962 53.4848C65.2403 53.4716 65.2859 53.464 65.3318 53.4624C65.3456 53.4623 65.3593 53.4638 65.3727 53.467C65.3915 53.4746 65.4076 53.4877 65.4189 53.5047C65.4302 53.5216 65.4361 53.5415 65.4358 53.5618C65.4204 53.6157 65.3996 53.682 65.3727 53.7606C65.3457 53.8392 65.3149 53.9201 65.2817 54.0041C65.2486 54.088 65.2139 54.172 65.1785 54.2545C65.143 54.3369 65.1076 54.4086 65.0745 54.4756C65.0473 54.5286 65.0172 54.58 64.9843 54.6297C64.9566 54.6705 64.9373 54.6898 64.925 54.6867L64.9165 54.6913C64.9096 54.6909 64.9028 54.689 64.8965 54.6858C64.8903 54.6826 64.8848 54.6782 64.8803 54.6728C64.852 54.6553 64.8187 54.6475 64.7856 54.6505C64.6156 54.6616 64.4482 54.6975 64.2886 54.7568C64.0377 54.8468 63.8059 54.983 63.6052 55.1582C63.4001 55.3201 63.2159 55.5067 63.0566 55.7137C62.9646 55.8158 62.8994 55.9392 62.8671 56.0728C62.864 56.0875 62.8624 56.1025 62.8624 56.1175C62.8626 56.1567 62.8717 56.1953 62.8889 56.2305C62.9061 56.2658 62.931 56.2966 62.9618 56.3209C63.0809 56.3992 63.2107 56.4599 63.3471 56.5012C63.4672 56.5384 63.5823 56.5902 63.6899 56.6553C63.7702 56.7211 63.8325 56.806 63.8712 56.9023C63.9098 56.9987 63.9235 57.1032 63.9111 57.2062C63.8999 57.6775 63.8199 58.1448 63.6737 58.593C63.5328 59.0804 63.3109 59.5407 63.0173 59.9545C62.8901 60.144 62.7449 60.3208 62.5835 60.4822C62.4176 60.6529 62.2295 60.8003 62.0241 60.9206C61.6296 61.19 61.1612 61.3303 60.6835 61.3221C60.4367 61.3338 60.1904 61.2891 59.9635 61.1914C59.7365 61.0936 59.5348 60.9454 59.3737 60.7581C59.243 60.58 59.148 60.3783 59.094 60.164C59.0446 59.9685 59.0187 59.7678 59.017 59.5661C59.0263 59.2178 59.0715 58.8713 59.1518 58.5322C59.234 58.1843 59.3382 57.842 59.4638 57.5074C59.5899 57.1706 59.7337 56.8406 59.8945 56.5189C60.0558 56.1968 60.2207 55.8886 60.3892 55.5943C60.4162 55.5496 60.4308 55.5242 60.4339 55.5173C60.467 55.4718 60.4986 55.4495 60.5287 55.4495H60.5333C60.5365 55.4531 60.539 55.4574 60.5406 55.462C60.5422 55.4667 60.5428 55.4716 60.5425 55.4764C60.5421 55.4856 60.5405 55.4946 60.5379 55.5034C60.5279 55.535 60.5102 55.5835 60.4832 55.6529Z" fill="black"></path><path d="M66.7811 55.2776C66.6517 56.0727 66.5351 56.6658 66.4313 57.0566C66.3554 57.3608 66.261 57.6601 66.1486 57.9527C66.085 58.1252 65.991 58.2849 65.8712 58.4242C65.7111 58.5668 65.5213 58.6721 65.3157 58.7324C65.0955 58.8158 64.87 58.8843 64.6407 58.9374C64.5292 58.9646 64.4163 58.9857 64.3025 59.0006C64.257 59.0006 64.2254 58.989 64.217 58.9736C64.2153 58.9719 64.214 58.9698 64.2132 58.9675C64.2124 58.9653 64.2121 58.9629 64.2123 58.9605C64.2168 58.9305 64.2293 58.9023 64.2485 58.8788C64.3534 58.7522 64.4747 58.64 64.6091 58.5452C64.7905 58.4034 65.0049 58.2273 65.2525 58.0167C65.4573 57.8506 65.6442 57.6636 65.8103 57.4588C65.9538 57.2581 66.0644 57.0357 66.1378 56.8001C66.2328 56.5217 66.3253 56.2304 66.4151 55.9264C66.505 55.6223 66.5705 55.4168 66.6116 55.31C66.6524 55.2021 66.6933 55.1489 66.7357 55.1559C66.778 55.1628 66.7896 55.1859 66.7896 55.2283C66.7886 55.245 66.7858 55.2615 66.7811 55.2776Z" fill="black"></path><path d="M69.1395 57.2775C69.0134 57.6015 68.8609 57.9146 68.6834 58.2136C68.5994 58.3575 68.4936 58.4874 68.3698 58.5989C68.2563 58.6803 68.1307 58.7435 67.9977 58.7861C67.8297 58.8464 67.6587 58.8979 67.4853 58.9402C67.354 58.9764 67.2191 58.9984 67.0831 59.0057C67.0469 59.0057 67.0292 59.0057 67.0292 59.0011L67.0245 58.9926C67.0245 58.953 67.1509 58.8552 67.4036 58.699C67.6361 58.5545 67.8606 58.3976 68.0762 58.229C68.2507 58.0921 68.4103 57.9371 68.5524 57.7667C68.6853 57.6113 68.7873 57.4319 68.8529 57.2382C68.8136 57.2559 68.7728 57.2703 68.7311 57.2813C68.6806 57.2953 68.6291 57.3059 68.5771 57.3129C68.5239 57.3206 68.4738 57.326 68.423 57.3291C68.3808 57.3324 68.3384 57.3309 68.2966 57.3245C68.1386 57.3178 67.988 57.2562 67.8705 57.1504C67.816 57.1028 67.7731 57.0433 67.7453 56.9765C67.7175 56.9097 67.7055 56.8373 67.7103 56.7651C67.7226 56.6744 67.7437 56.5851 67.7734 56.4985C67.8332 56.3329 67.9024 56.1708 67.9807 56.0131C68.0709 55.816 68.187 55.6318 68.3259 55.4653C68.3656 55.4065 68.4173 55.3568 68.4776 55.3194C68.5379 55.2819 68.6054 55.2576 68.6757 55.248C68.7661 55.2479 68.8552 55.2694 68.9356 55.3106C69.016 55.3519 69.0854 55.4118 69.138 55.4854C69.2685 55.6495 69.3492 55.8476 69.3706 56.0563C69.3706 56.1017 69.3753 56.1464 69.3753 56.1919C69.3753 56.2581 69.3722 56.3244 69.366 56.3907C69.357 56.4838 69.3428 56.5764 69.3236 56.668C69.3067 56.7451 69.282 56.8368 69.2466 56.9523C69.2112 57.0679 69.1765 57.1781 69.1395 57.2775Z" fill="black"></path><path d="M71.3739 56.2576L71.1205 56.951C71.085 57.0419 71.0557 57.1051 71.0349 57.1544C71.008 57.2145 70.9702 57.2446 70.9224 57.2446C70.9118 57.2444 70.9011 57.2428 70.8908 57.24C70.8662 57.2346 70.8546 57.2061 70.8546 57.1544C70.8553 57.1242 70.8582 57.0941 70.8631 57.0643C70.8816 56.9803 70.8978 56.9002 70.9132 56.8247C70.9286 56.7492 70.9386 56.679 70.954 56.6128C70.9692 56.5276 70.9797 56.4417 70.9856 56.3554C70.9905 56.199 70.9409 56.0457 70.8454 55.9217C70.7918 55.8618 70.7253 55.8149 70.651 55.7845C70.5767 55.7541 70.4964 55.7409 70.4162 55.746C70.2229 55.7948 70.0567 55.918 69.9539 56.0889C69.7674 56.369 69.544 56.6227 69.2898 56.8432L69.0009 57.0743C68.9861 56.9696 68.9786 56.8641 68.9785 56.7584C68.9785 56.6952 68.9816 56.6305 68.9878 56.5642C69.0076 56.3895 69.0546 56.219 69.1272 56.0588C69.163 56.0655 69.1994 56.0686 69.2359 56.0681C69.2644 56.068 69.293 56.0664 69.3214 56.0634C69.4139 56.0494 69.5004 56.0087 69.5702 55.9463C69.6732 55.8734 69.7657 55.7869 69.8453 55.689C69.9177 55.5981 69.9891 55.5061 70.0595 55.4131C70.1299 55.3202 70.2002 55.2264 70.2706 55.1319C70.336 55.0421 70.4206 54.9679 70.5181 54.9146C70.6156 54.8613 70.7237 54.8303 70.8346 54.8237C70.9214 54.824 71.007 54.8444 71.0846 54.8835C71.1622 54.9225 71.2296 54.9791 71.2815 55.0487C71.3539 55.1604 71.4086 55.2467 71.4441 55.3084C71.4795 55.37 71.5119 55.4255 71.5388 55.4732C71.5579 55.5098 71.5686 55.55 71.5704 55.5911C71.5704 55.6628 71.5704 55.7129 71.5704 55.7398C71.5692 55.7657 71.5661 55.7915 71.5612 55.8169C71.5565 55.8392 71.5511 55.8608 71.545 55.8824L71.3739 56.2576Z" fill="black"></path><path d="M72.7084 53.5142C72.7653 53.4754 72.8341 53.458 72.9026 53.4649C72.9603 53.4662 73.0165 53.4833 73.0652 53.5142C73.2706 53.7196 73.4278 53.8884 73.5367 54.0204C73.631 54.1168 73.6892 54.2428 73.7016 54.3771C73.7022 54.456 73.6884 54.5343 73.6607 54.6082C73.6279 54.6927 73.5855 54.773 73.5344 54.8479C73.4889 54.9265 73.4247 54.9926 73.3476 55.0406C73.2705 55.0886 73.1828 55.1168 73.0921 55.1229C73.0921 55.1229 73.0082 55.1083 72.8487 55.0782C72.7604 55.0516 72.6694 55.0348 72.5775 55.0282C72.3702 55.0417 72.174 55.1263 72.0219 55.2678C71.8139 55.4305 71.6495 55.6423 71.5435 55.8842C71.5288 55.8926 71.5065 55.9042 71.478 55.9181C71.4458 55.9323 71.4119 55.9422 71.377 55.9473C71.3588 55.9489 71.3405 55.9489 71.3223 55.9473C71.3029 55.949 71.2833 55.949 71.2638 55.9473C71.2223 55.937 71.1847 55.9151 71.1552 55.8842C71.2957 55.5937 71.4558 55.3131 71.6344 55.0443C71.7453 54.8902 71.8586 54.7462 71.9726 54.6106C72.0867 54.475 72.1876 54.3532 72.2754 54.2454C72.3112 54.1983 72.3429 54.1483 72.3702 54.0959C72.4082 53.9627 72.4684 53.8369 72.5482 53.7237L72.7084 53.5142Z" fill="black"></path><path d="M73.069 53.514C73.0027 53.5635 72.9204 53.5869 72.8379 53.5795C72.7865 53.5762 72.7386 53.5527 72.7046 53.514C72.776 53.4167 72.8546 53.3247 72.9396 53.239C73.0814 53.0965 73.2361 52.9675 73.4019 52.8537C73.5015 52.7875 73.6017 52.7274 73.7024 52.6734C73.8033 52.6187 73.9042 52.5687 74.0044 52.5193L74.3049 52.3822C74.4043 52.3367 74.5037 52.289 74.603 52.2374C74.5356 52.2139 74.467 52.1944 74.3973 52.1788C74.3087 52.158 74.2147 52.1387 74.1153 52.1226C74.0159 52.1064 73.9189 52.091 73.8241 52.0771C73.7293 52.0632 73.6515 52.054 73.593 52.0478C73.5217 52.0408 73.4498 52.0484 73.3815 52.0701C73.3133 52.0919 73.2502 52.1273 73.1962 52.1742C73.1002 52.2509 73.0138 52.3389 72.9388 52.4361C72.9231 52.4565 72.9033 52.4734 72.8808 52.4859C72.8583 52.4983 72.8334 52.5061 72.8078 52.5086C72.7995 52.509 72.7913 52.507 72.7841 52.5029C72.7768 52.4988 72.7709 52.4928 72.767 52.4854C72.7639 52.48 72.7623 52.4739 72.7624 52.4677C72.7635 52.4517 72.7682 52.4362 72.7762 52.4223C72.8032 52.3622 72.8402 52.282 72.8864 52.1811C72.9369 52.0743 72.9992 51.9735 73.0721 51.8806C73.1505 51.7792 73.2431 51.6897 73.3472 51.6148C73.4606 51.5341 73.5937 51.4857 73.7324 51.4746C73.7987 51.4684 73.868 51.4653 73.9404 51.4653C73.9918 51.4653 74.0473 51.4669 74.1069 51.47C74.2448 51.4796 74.3821 51.4963 74.5183 51.52C74.6593 51.5439 74.8041 51.5747 74.9513 51.6125C75.0985 51.6502 75.2449 51.6895 75.3889 51.7365C75.4183 51.7413 75.446 51.7539 75.469 51.7728C75.492 51.7918 75.5096 51.8165 75.5199 51.8444C75.5259 51.8649 75.529 51.8862 75.5292 51.9076C75.528 51.9483 75.5189 51.9883 75.5022 52.0255C75.4245 52.1641 75.3245 52.289 75.2063 52.3953C75.1026 52.4859 74.9883 52.5635 74.8658 52.6264C74.808 52.6534 74.7479 52.6804 74.6847 52.7035C74.617 52.7327 74.5478 52.7585 74.4775 52.7805C74.1821 52.9007 73.9037 53.0271 73.6423 53.1596C73.4394 53.2576 73.2473 53.3763 73.069 53.514ZM75.0915 59.3019C75.1006 59.3358 75.105 59.3708 75.1046 59.4059C75.1044 59.458 75.0969 59.5099 75.0823 59.56C75.0508 59.6593 75.0051 59.7535 74.9467 59.8397C74.8958 59.9167 74.8442 59.9938 74.7926 60.0616C74.739 60.1332 74.6786 60.1995 74.6123 60.2596C74.5352 60.3413 74.4736 60.3829 74.4312 60.3836C74.3955 60.3872 74.3599 60.3767 74.3318 60.3543L74.1993 60.2349C74.1431 60.1856 74.0853 60.1348 74.0252 60.0808C73.9651 60.0269 73.9058 59.9814 73.8472 59.936C73.7886 59.8905 73.7393 59.8589 73.7 59.8327C73.6876 59.8236 73.6783 59.811 73.6731 59.7965C73.6731 59.7842 73.6792 59.7634 73.7 59.7333L74.3865 58.6855C74.4104 58.6524 74.4282 58.6377 74.4405 58.6408C74.4701 58.6516 74.4987 58.665 74.526 58.6809C74.5838 58.7171 74.6423 58.7579 74.7024 58.7964C74.762 58.8367 74.818 58.8821 74.8696 58.932C74.9211 58.9819 74.9664 59.0377 75.0045 59.0985C75.0444 59.1606 75.0741 59.2288 75.0923 59.3003L75.0915 59.3019Z" fill="black"></path></svg> 