<?xml version="1.0" encoding="UTF-8"?> <svg xmlns="http://www.w3.org/2000/svg" width="100" height="100" viewBox="0 0 100 100" fill="none"><g clip-path="url(#clip0_9871_575)"><path d="M16.0222 51.8662V26.5514C16.0222 25.2445 16.0222 25.2445 17.2926 25.2445C28.1657 25.2445 39.0372 25.2445 49.9087 25.2874C51.0028 25.2874 51.7777 25.0047 52.5717 24.2599C55.2332 21.7699 58.2774 21.3872 61.5837 22.8672C63.8069 23.8629 65.8586 25.1746 67.969 26.3767C70.486 27.806 73.1491 28.7302 76.0425 28.9573C78.4483 29.1463 80.7191 28.627 82.8836 27.617C83.5315 27.3153 83.6554 27.4503 83.6538 28.1315C83.6389 33.0777 83.6479 38.0239 83.6808 42.9701C83.6808 43.5402 83.5442 43.8308 82.9471 43.9562C78.8675 44.8122 74.7848 45.0266 70.7036 44.0293C69.989 43.8546 69.8127 43.9451 69.8143 44.7074C69.8365 55.579 69.8413 66.4501 69.8286 77.3207C69.8286 78.6197 69.8286 78.5911 68.5582 78.6467C62.0331 78.9643 55.5032 78.761 48.9765 78.8055C41.5716 78.85 34.1652 78.788 26.7587 78.7817C23.7415 78.7817 20.7243 78.8134 17.7071 78.8119C16 78.8119 16 78.7928 16 77.1047V51.8662H16.0222ZM42.9468 78.2132C51.4649 78.2132 59.983 78.2021 68.5026 78.2322C69.2521 78.2322 69.4014 78.0163 69.3998 77.308C69.3776 66.2511 69.3728 55.1936 69.3855 44.1357C69.3855 44.0039 69.3855 43.8705 69.3855 43.7387C69.3617 43.3496 69.4808 43.2003 69.8937 43.3591C71.369 43.9261 72.9236 44.0785 74.4815 44.1674C77.2081 44.3262 79.9235 44.2437 82.6057 43.6434C83.063 43.5402 83.2885 43.3814 83.2838 42.8684C83.2446 38.1043 83.2192 33.3403 83.2075 28.5762C83.2075 28.0998 83.1234 27.9695 82.6295 28.1839C78.1736 30.1229 73.8081 29.6036 69.5221 27.6265C67.0956 26.5149 64.8915 24.9777 62.5174 23.7597C58.2933 21.592 55.6239 21.9493 52.17 25.1889C51.7142 25.6161 51.2267 25.6939 50.6534 25.6939C39.5692 25.6844 28.4849 25.6939 17.4006 25.6637C16.6161 25.6637 16.4573 25.8797 16.4589 26.6292C16.4812 43.5058 16.4812 60.3828 16.4589 77.2604C16.4589 78.0004 16.5987 78.2338 17.3927 78.2322C25.9092 78.2005 34.4272 78.2132 42.9468 78.2132Z" fill="black"></path><path d="M51.6601 41.6176C53.0224 40.7187 54.2418 39.8056 55.5295 38.9909C57.8063 37.5489 60.034 37.6823 62.2362 39.0576C63.6652 39.9517 65.0418 40.9442 66.4422 41.8923C66.5444 41.9771 66.6597 42.0446 66.7836 42.0924C68.2126 42.4799 68.3713 43.4709 68.3713 44.8032C68.3142 55.2274 68.3364 65.6515 68.3332 76.0771C68.3332 77.1253 68.3332 77.1269 67.3266 77.1269C51.0572 77.1269 34.7873 77.1337 18.5169 77.1475C17.6881 77.1475 17.5245 76.9204 17.5261 76.1327C17.5505 59.9143 17.5505 43.6953 17.5261 27.4758C17.5261 26.704 17.7357 26.5229 18.4915 26.5229C29.2058 26.5484 39.9201 26.5484 50.6343 26.5229C51.4076 26.5229 51.587 26.731 51.587 27.4869C51.5664 31.8779 51.6013 36.2705 51.6204 40.6679C51.6172 40.9474 51.641 41.2301 51.6601 41.6176ZM23.3485 47.4664C23.0182 47.7015 22.9388 48.0143 22.8261 48.2986C22.385 49.4313 22.0894 50.6154 21.9465 51.8225C21.7877 53.0787 22.2275 54.0458 23.2532 54.7636C24.0973 55.3643 25.074 55.7522 26.1001 55.8943C32.9625 56.7725 39.5962 56.2723 45.6773 52.5515C46.4156 52.1004 47.1254 51.6431 48.0177 52.1735C48.186 52.2735 48.375 52.2005 48.5512 52.1306C49.6722 51.6891 50.8217 49.6516 50.6153 48.4542C50.52 47.9222 50.2247 47.5014 49.6976 47.3616C49.1704 47.2219 48.8862 47.6348 48.6179 47.9969C48.4962 48.1699 48.3869 48.3514 48.2908 48.54C47.8145 49.4261 47.924 49.6691 48.9259 49.8216C48.9986 49.825 49.07 49.8428 49.1358 49.8739C49.2016 49.9051 49.2607 49.9489 49.3095 50.0029C49.3583 50.0569 49.396 50.12 49.4204 50.1887C49.4447 50.2573 49.4553 50.3301 49.4515 50.4028C49.4511 50.551 49.3959 50.6938 49.2965 50.8038C49.1971 50.9137 49.0606 50.983 48.9132 50.9983C48.6755 51.0421 48.4301 50.9902 48.2305 50.8538C47.4715 50.3631 46.7745 50.5743 46.0886 51.0126C45.4491 51.4346 44.7688 51.7911 44.0578 52.0766C39.2723 53.9585 34.2819 54.4476 29.1947 54.1983C27.5005 54.1141 25.8302 53.8394 24.3472 52.9119C23.2199 52.2084 22.6991 51.227 22.9738 49.8946C23.0865 49.3531 23.2405 48.8211 23.3818 48.2859C23.4358 48.0413 23.5819 47.7952 23.3485 47.4664ZM28.6517 39.6738C27.8038 40.9188 26.3875 41.0665 25.1792 41.6033C24.0217 42.1162 23.0325 42.8483 22.3212 43.9139C21.5003 45.1383 21.8322 46.1023 23.2246 46.5263C24.4956 46.8906 25.805 47.1038 27.1258 47.1615C32.5147 47.5014 37.8496 47.025 43.1369 46.0134C45.7567 45.5131 48.3622 44.9112 50.6486 43.4216C50.9186 43.2469 51.4521 43.0834 51.3155 42.7658C51.1202 42.3132 50.6486 42.6879 50.3358 42.7769C43.3575 44.7656 36.1006 45.5977 28.8533 45.24C27.2385 45.1767 25.638 44.9099 24.09 44.4459C23.2961 44.1998 23.2104 43.7281 23.8471 43.2009C24.3274 42.8263 24.875 42.5471 25.4602 42.3783C26.1604 42.1528 26.8892 41.9939 27.4989 41.5382C28.1086 41.0824 28.6183 40.5393 28.6517 39.6738ZM22.1053 69.2119C21.6115 71.4066 21.9465 71.972 24.0265 72.4992C24.1281 72.5262 24.2313 72.5453 24.3361 72.5659C28.6771 73.4282 33.0402 73.4965 37.4257 72.9614C39.7867 72.6739 42.1318 72.3261 44.369 71.4654C45.7408 70.935 46.9904 70.2124 48.0066 69.1389C48.4639 68.6624 48.9069 68.1416 48.9116 67.2236C47.4175 69.096 45.409 69.7026 43.3703 70.1155C38.1542 71.1605 32.8058 71.3749 27.5227 70.7508C25.6778 70.5459 23.8026 70.2966 22.1053 69.2119ZM48.9926 30.644C46.8253 32.4719 45.8456 32.9721 43.1178 33.5327C39.0849 34.3601 34.9948 34.5649 30.892 34.3855C27.8752 34.2553 24.8362 34.0949 22.0799 32.6053C21.6146 34.8397 21.9687 35.3939 24.1773 35.8926C24.2027 35.8926 24.2297 35.9005 24.2551 35.9053C30.041 37.0598 35.8109 36.8343 41.5618 35.6512C43.726 35.2065 45.7789 34.4681 47.4874 32.9912C48.1717 32.3909 48.7687 31.7414 48.9926 30.644ZM48.8592 58.6036C47.3286 60.26 45.3074 60.865 43.2337 61.2938C38.4133 62.2895 33.5356 62.4578 28.6485 62.0259C26.4256 61.829 24.1852 61.5987 22.2085 60.3902C21.64 62.5468 22.1275 63.1439 23.7565 63.5409C24.1662 63.6394 24.5727 63.7569 24.9871 63.8284C30.5205 64.7923 36.0364 64.5875 41.5174 63.4599C43.8339 62.9835 46.0473 62.1895 47.8065 60.4982C48.3305 59.9868 48.7925 59.423 48.8592 58.6036ZM38.9245 37.5426C38.2227 38.2413 38.0671 39.1481 37.9068 40.0422C37.7274 41.0348 37.5591 42.0146 36.8239 42.7943C36.6746 42.9315 36.5827 43.1201 36.5668 43.3222C36.5509 43.5243 36.6121 43.725 36.7382 43.8838C36.8589 44.0603 37.028 44.1982 37.2251 44.281C37.4222 44.3638 37.6391 44.388 37.8496 44.3506C38.0861 44.3141 38.3125 44.2288 38.5145 44.1004C38.7164 43.9719 38.8896 43.803 39.023 43.6043C39.5644 42.8626 40.0058 41.9955 41.1728 42.5164C41.1935 42.526 41.2252 42.5164 41.2506 42.5164C42.7034 42.1988 43.9165 41.5032 44.7072 40.2137C45.0248 39.7024 45.3741 39.0846 44.8533 38.5415C44.3325 37.9984 43.7831 38.362 43.275 38.6733C43.2449 38.6908 43.1877 38.6622 43.0988 38.6479C43.1925 37.7665 43.5005 36.901 43.4465 35.8068C42.8114 36.6866 42.6288 37.4981 42.5081 38.3319C42.4339 39.0445 42.1641 39.7227 41.7285 40.2915C41.5698 40.4964 41.411 40.7584 41.0934 40.6393C40.9392 40.5947 40.8034 40.5015 40.7062 40.3737C40.6089 40.2458 40.5554 40.0901 40.5536 39.9295C40.5677 39.4553 40.6208 38.9831 40.7124 38.5177C40.7949 37.9857 41.0791 37.4505 40.8187 36.7628C40.3858 37.407 40.0957 38.1364 39.9677 38.902C39.7946 39.8342 39.7073 40.7838 39.5072 41.7097C39.3072 42.6355 38.4101 43.2978 37.6273 43.2168C37.2748 43.1834 37.0986 43.0675 37.3955 42.7403C38.7515 41.2603 38.7435 39.3784 38.9245 37.5426ZM53.6225 56.3708C52.9255 56.9695 52.6985 57.7746 52.5111 58.5782C52.3237 59.3817 52.0348 60.0837 51.4267 60.6427C51.2123 60.8412 51.1186 61.2779 50.7042 61.0953C50.5358 61.014 50.3933 60.8875 50.2926 60.7299C50.192 60.5723 50.1371 60.3898 50.1342 60.2028C50.0913 59.7152 50.258 59.2674 50.366 58.8053C50.4645 58.3829 50.7264 57.9827 50.5883 57.511C50.2596 57.538 50.2231 57.8096 50.1406 58.0144C49.7118 59.0962 49.4489 60.2366 49.361 61.397C49.2514 62.7437 50.004 63.39 51.325 63.0931C52.8604 62.7469 53.8655 61.7607 54.4625 60.3314C54.6514 59.8788 54.961 59.3976 54.5022 58.9387C54.0433 58.4797 53.5749 58.8212 53.1192 58.9974C53.0922 59.007 53.0462 58.9625 52.9604 58.918C53.1764 58.07 53.3987 57.2156 53.6225 56.3708ZM36.057 41.1872C35.7283 41.273 35.6728 41.6001 35.4949 41.8129C35.2044 42.1591 34.8678 42.2322 34.5423 41.9114C34.2168 41.5906 34.3946 41.2857 34.6439 41.0078C34.8646 40.76 35.1552 40.7743 35.4505 40.7838C35.7109 40.7918 36.1253 40.9728 36.1031 40.5043C36.0872 40.1375 35.695 40.0422 35.3727 40.0501C35.1607 40.0604 34.9535 40.1169 34.7656 40.2156C34.5778 40.3144 34.4137 40.453 34.2851 40.6219C34.0145 40.9799 33.8003 41.3773 33.65 41.8002C33.5372 42.0734 33.5388 42.5021 33.1149 42.4577C32.6909 42.4132 32.5068 42.0606 32.4083 41.689C32.221 40.9935 32.4464 40.336 32.602 39.6674C32.7402 39.0798 33.0863 38.5256 32.9672 37.8205C32.2718 38.8051 31.3794 41.5953 31.416 42.6276C31.4414 43.4963 31.8923 44.1505 32.5925 44.3078C34.1707 44.6667 36.1904 42.8531 36.057 41.1872ZM56.29 57.5444C55.9724 57.5968 55.9343 57.862 55.8407 58.0621C55.4857 58.8561 55.2194 59.687 55.0468 60.5395C54.8007 61.74 55.0706 62.6214 55.7454 62.9216C56.4774 63.2392 57.1744 62.9216 57.9683 61.8703C58.2477 61.4986 58.5478 61.216 59.067 61.2255C60.0467 61.2446 60.8135 60.2647 60.6246 59.2118C60.2547 59.4627 60.1705 60.0233 59.6307 60.0487C59.1305 60.0726 58.7399 60.3521 58.3954 60.6919C57.8158 61.262 57.1649 61.4034 56.4615 60.9714C55.7581 60.5395 55.7597 59.8598 55.9137 59.1499C56.0264 58.6131 56.3122 58.1176 56.29 57.5412V57.5444ZM44.2801 58.9244C45.6646 58.9688 47.6859 56.5677 47.3667 55.2448C47.2762 54.8748 47.0777 54.554 46.6697 54.4508C46.2616 54.3476 45.9504 54.5604 45.7408 54.897C45.559 55.188 45.3952 55.4897 45.2502 55.8006C45.0692 56.1913 45.0914 56.5327 45.5964 56.6471C46.241 56.7932 45.9949 57.0727 45.6837 57.3109C45.1819 57.6952 44.65 58.0414 44.1324 58.4067C44.0086 58.4956 43.8307 58.5655 43.8784 58.7592C43.926 58.953 44.1308 58.9006 44.2801 58.9212V58.9244ZM38.7086 49.4944C38.7086 48.9862 38.4974 48.6035 38.0005 48.478C37.5035 48.3526 37.2907 48.7131 37.1065 49.0863C37.0129 49.2753 36.9112 49.4611 36.8287 49.6548C36.6699 50.028 36.5857 50.3694 37.1351 50.5028C37.6845 50.6362 37.5146 50.9126 37.2304 51.1539C36.8477 51.4795 36.4365 51.7654 36.0475 52.0861C35.8998 52.2084 35.5934 52.2958 35.7204 52.5467C35.8474 52.7976 36.1316 52.6769 36.3555 52.6134C37.5067 52.2862 38.715 50.6839 38.7086 49.4944ZM58.9035 69.3739C58.9352 68.8816 58.7876 68.4687 58.2906 68.3035C57.8143 68.1447 57.5618 68.4814 57.3522 68.8355C57.216 69.0606 57.093 69.2934 56.9839 69.5327C56.8394 69.8599 56.8394 70.1679 57.2538 70.2855C57.8889 70.4617 57.619 70.7317 57.322 70.9604C56.9267 71.2637 56.4916 71.5178 56.0899 71.8148C55.9407 71.9243 55.6295 71.9815 55.7517 72.2578C55.8597 72.4992 56.1201 72.4039 56.3186 72.3674C57.4919 72.1562 58.84 70.5904 58.9035 69.3739ZM47.1428 35.4876C46.3617 36.4992 46.0314 37.6585 45.9933 38.9194C45.9552 40.1804 45.8345 41.4604 44.9882 42.5101C44.8803 42.6451 44.7548 42.8134 45.0343 43.0294C47.2476 40.9442 46.7777 38.0905 47.1428 35.4876ZM52.6699 65.7594C51.9873 66.5928 51.5968 67.6271 51.5584 68.7037C51.5124 70.0107 51.3901 71.2891 50.4756 72.3388C50.3914 72.4357 50.3549 72.5723 50.555 72.7438C52.762 70.8794 52.3428 68.1971 52.6699 65.7594ZM62.7633 63.1804C65.0497 61.4335 64.7052 58.818 64.9783 56.4009C64.4097 57.01 64.0513 57.7853 63.9558 58.6131C63.7589 60.1821 63.9176 61.848 62.7633 63.1804ZM35.6505 48.2525C35.1155 49.28 34.6264 50.1106 33.9326 50.7935C33.2387 51.4763 32.4496 51.9829 31.5509 52.6277C33.7103 52.8437 36.1015 50.3202 35.6505 48.2494V48.2525ZM46.3648 72.4833C48.1908 72.9153 50.9995 70.503 50.7693 68.8546C50.7566 68.7593 50.782 68.6354 50.6328 68.6116C50.4835 68.5878 50.4025 68.7212 50.3454 68.8276C50.0066 69.453 49.5817 70.0276 49.0831 70.5348C48.3226 71.3082 47.3889 71.8449 46.3648 72.4802V72.4833ZM58.8701 63.0153C58.9693 63.0463 59.0715 63.0665 59.175 63.0756C60.839 63.0105 62.8634 61.0191 62.9729 59.3389C62.984 59.1912 63.0539 58.9847 62.8792 58.9149C62.6347 58.8148 62.5807 59.053 62.5061 59.2118C61.871 60.5696 60.8247 61.5574 59.6037 62.388C59.356 62.55 59.021 62.6325 58.8701 63.0121V63.0153ZM55.8534 68.4147C55.3643 69.3183 54.9404 70.1139 54.31 70.7682C53.6797 71.4225 52.9128 71.9116 52.1824 72.5151C53.9846 72.8756 56.3075 70.3633 55.8454 68.4115L55.8534 68.4147ZM44.677 48.8433C44.6441 48.6081 44.5469 48.3866 44.3962 48.2031C44.2455 48.0195 44.0471 47.8811 43.8228 47.8031C43.3735 47.6443 43.3798 48.1954 43.2004 48.4383C43.0525 48.6554 42.9385 48.8937 42.8622 49.145C42.6907 49.6421 43.0813 49.839 43.3909 50.0788C43.6148 50.2519 43.8276 50.3758 44.0753 50.1138C44.4052 49.7646 44.6158 49.3198 44.677 48.8433ZM50.4311 40.2677C50.4486 39.8739 49.9294 39.1402 49.5737 39.1068C49.1069 39.0624 49.1276 39.5372 48.9529 39.7913C48.8036 40.0097 48.686 40.2482 48.6036 40.4996C48.3956 41.1221 49.0101 41.2158 49.3022 41.4937C49.6198 41.8002 49.8151 41.4635 49.9961 41.2507C50.2256 40.9656 50.3757 40.6248 50.4311 40.2629V40.2677ZM34.7122 31.6143C34.7026 31.0267 34.1501 30.2438 33.8103 30.2502C33.6515 30.2502 32.8275 31.5508 32.8878 31.8223C32.999 32.3305 33.461 32.7148 33.8659 32.6958C34.4375 32.6624 34.6264 32.0733 34.7074 31.6095L34.7122 31.6143ZM34.7471 59.2245C34.7326 58.9694 34.6388 58.7252 34.4788 58.5259C34.3188 58.3266 34.1007 58.1822 33.8548 58.1129C33.4721 58.0144 33.4451 58.556 33.2673 58.8148C33.1498 58.9863 33.0847 59.1944 32.9831 59.377C32.8243 59.6485 32.8402 59.8947 33.118 60.0567C33.3959 60.2187 33.6134 60.7396 34.0342 60.4759C34.2421 60.3364 34.4144 60.1501 34.5374 59.9319C34.6603 59.7138 34.7305 59.4699 34.7423 59.2198L34.7471 59.2245ZM61.9599 56.5899C61.9475 56.3503 61.8645 56.1197 61.7212 55.9272C61.5779 55.7348 61.3809 55.589 61.1549 55.5084C60.6786 55.3147 60.7104 55.888 60.5198 56.1183C60.3689 56.3332 60.2492 56.5685 60.1642 56.817C59.9466 57.349 60.4484 57.4745 60.7072 57.727C60.8755 57.8858 61.0612 58.0637 61.3121 57.8223C61.6602 57.4945 61.8869 57.0584 61.9552 56.5852L61.9599 56.5899ZM36.654 59.3659C36.6461 58.6814 36.0967 57.9001 35.7633 57.9366C35.5902 57.9588 34.8106 59.296 34.8789 59.5517C35.0075 60.0503 35.4648 60.4458 35.8649 60.4013C36.4174 60.3409 36.6477 59.7804 36.654 59.3659ZM57.3252 65.3561C57.3252 64.8797 56.9378 64.5001 56.4789 64.354C56.0868 64.2285 56.0423 64.7748 55.8661 65.0321C55.7179 65.2496 55.6038 65.4884 55.5279 65.7404C55.3453 66.347 55.9327 66.4582 56.2312 66.7298C56.5583 67.0299 56.7441 66.6774 56.9172 66.4725C57.1816 66.1608 57.3263 65.7649 57.3252 65.3561ZM34.736 68.0002C34.7385 67.7535 34.6631 67.5124 34.5205 67.3111C34.378 67.1098 34.1756 66.9586 33.9421 66.879C33.4483 66.6917 33.4499 67.2761 33.2578 67.5413C33.1538 67.722 33.0595 67.908 32.9752 68.0987C32.8275 68.3655 32.8291 68.6069 33.1038 68.7768C33.3784 68.9467 33.5991 69.4438 34.0167 69.2024C34.4661 68.9451 34.663 68.4687 34.736 68.0002ZM59.9816 56.7154C59.9702 56.4699 59.8854 56.2334 59.7382 56.0367C59.591 55.8399 59.3882 55.6918 59.1559 55.6117C58.7161 55.4624 58.6685 55.9976 58.5208 56.266C58.3112 56.6582 57.8968 57.0822 58.3462 57.5475C58.5669 57.7778 58.8447 58.1526 59.1924 57.9842C59.6958 57.7429 59.9038 57.2331 59.9816 56.7154ZM36.6588 68.0796C36.6508 67.4571 36.1602 66.7155 35.8331 66.6948C35.6331 66.6837 34.8392 67.9018 34.8805 68.2464C34.9535 68.7815 35.4553 69.1579 35.8331 69.1309C36.4016 69.0896 36.6413 68.5211 36.6588 68.0796ZM36.6588 31.4444C36.6397 30.8092 36.3523 30.3931 35.8331 30.1596C35.6569 30.0802 34.8376 31.3285 34.89 31.6826C34.9678 32.2035 35.4346 32.5783 35.8427 32.5624C36.4428 32.5497 36.6112 31.951 36.6556 31.438L36.6588 31.4444Z" fill="black"></path><path d="M82.0068 39.0871C82.0195 39.9574 82.0068 40.834 82.056 41.6979C82.0798 42.1902 81.8798 42.4062 81.4209 42.5015C76.4988 43.5068 71.7609 43.1748 67.3151 40.645C66.056 39.9288 64.8398 39.1332 63.6061 38.3725C63.2886 38.1788 62.9837 37.9739 62.6677 37.7818C59.1238 35.6299 56.7708 35.8268 53.6174 38.5377C53.4237 38.6965 53.2237 38.8648 52.9331 39.1062V35.3123C53.7047 34.7723 54.5209 34.1451 55.3814 33.6607C56.1094 33.2368 56.9175 32.969 57.7544 32.8741C58.5914 32.7792 59.4389 32.8594 60.2432 33.1096C61.0371 33.3399 61.8023 33.6607 62.501 34.0244C63.4695 34.6135 64.6794 35.4616 65.7702 36.1778C67.801 37.5102 69.9381 38.6203 72.296 39.292C74.1013 39.8065 75.932 39.7097 77.7659 39.6938C78.1051 39.6925 78.4436 39.6612 78.7773 39.6001C79.8395 39.4016 80.9239 39.2539 82.0068 39.0871Z" fill="black"></path><path d="M52.9248 29.3266C52.9169 28.8772 52.8915 28.3436 52.8915 27.9815C52.8916 26.5967 53.3297 25.8615 54.3824 25.1595C56.8514 23.5095 59.3426 23.2681 61.9815 24.7149C63.836 25.7328 65.5492 26.9699 67.345 28.0768C71.5859 30.6892 76.1222 31.3864 80.9569 30.2715C82.0588 30.0174 82.0684 30.027 82.0541 31.1879C82.0541 31.9533 82.0239 32.7188 82.008 33.4826C80.7696 33.7097 79.5406 34.048 78.2911 34.1448C74.2597 34.4625 70.511 33.5811 67.0846 31.3498C65.2952 30.1842 63.5169 28.9915 61.5925 28.0403C60.1809 27.3431 58.7059 27.0493 57.1467 27.3384C55.9003 27.5686 54.8492 28.2404 53.8124 28.9264C53.5488 29.1075 53.3376 29.4569 52.9248 29.3266Z" fill="black"></path><path d="M41.9656 40.6678C42.4102 40.0421 42.8358 39.5212 43.4615 39.2052C43.7791 39.0464 44.1411 39.0734 44.3365 39.3275C44.5874 39.6546 44.1935 39.8404 44.0014 40.0119C43.7301 40.2627 43.4075 40.4513 43.0559 40.5645C42.7043 40.6778 42.3322 40.713 41.9656 40.6678Z" fill="black"></path><path d="M51.4277 61.2588C51.797 60.6862 52.2843 60.1989 52.8569 59.8296C52.9909 59.7441 53.1443 59.694 53.3029 59.684C53.4615 59.674 53.6201 59.7044 53.7637 59.7724C54.0813 59.8995 54.2592 60.125 53.9225 60.4188C53.2397 61.0318 52.4742 61.4256 51.4277 61.2588Z" fill="black"></path><path d="M68.3508 35.5591C68.1863 35.6277 68.0078 35.6558 67.8302 35.6409C67.7987 35.6383 67.7845 35.6397 67.7736 35.6744C67.7605 35.716 67.7197 35.7419 67.6935 35.7767C67.6917 35.7803 67.689 35.7832 67.6856 35.7852C67.6822 35.7872 67.6783 35.7881 67.6744 35.788C67.6705 35.7878 67.6667 35.7865 67.6635 35.7843C67.6603 35.782 67.6578 35.7789 67.6563 35.7752C67.6307 35.7338 67.5826 35.7093 67.5706 35.6575C67.5628 35.6237 67.5349 35.6377 67.5139 35.6397C67.3432 35.6549 67.1713 35.6307 67.0114 35.5689C67.0048 35.5651 66.9987 35.5607 66.9931 35.5556C67.1349 35.5474 67.2716 35.5582 67.4073 35.5206C66.6422 35.045 66.6307 34.0822 67.2027 33.5809C67.0188 33.8763 66.9556 34.1944 67.0243 34.5348C67.093 34.8752 67.268 35.1455 67.5593 35.354C67.5621 35.2611 67.556 35.1804 67.5528 35.0995C67.5426 34.8359 67.5349 34.5723 67.5263 34.3085C67.5185 34.0715 67.511 33.8344 67.5017 33.5973C67.5002 33.5591 67.5103 33.5353 67.5474 33.5244C67.5493 33.5238 67.551 33.5228 67.5525 33.5216C67.6469 33.4383 67.7352 33.4775 67.8237 33.5335C67.8328 33.5383 67.8402 33.5457 67.8449 33.5548C67.8496 33.5639 67.8515 33.5742 67.8502 33.5844C67.8386 33.9087 67.8273 34.2331 67.8164 34.5574C67.8109 34.7186 67.8051 34.8798 67.8011 35.041C67.7989 35.1409 67.8011 35.241 67.8011 35.349C68.0832 35.1458 68.2589 34.8758 68.3282 34.5366C68.3975 34.1975 68.3345 33.883 68.1543 33.5889C68.6779 34.0184 68.7607 35.0162 67.9411 35.5192C68.0768 35.5635 68.214 35.5562 68.3508 35.5591Z" fill="black"></path><path d="M66.8198 35.3708C66.4665 35.1389 66.2583 34.7198 66.3387 34.3039C66.4192 33.888 66.7548 33.5928 67.081 33.5015C66.5174 34.0585 66.4032 34.675 66.8198 35.3708Z" fill="black"></path><path d="M68.5177 35.3734C68.7309 35.0714 68.8113 34.7458 68.7621 34.3916C68.7129 34.0374 68.5289 33.752 68.2638 33.5083C68.5828 33.5362 68.9643 33.9641 69.0182 34.3581C69.0787 34.8006 68.8193 35.1977 68.5177 35.3734Z" fill="black"></path><path d="M68.0061 33.1855C68.0365 33.2824 68.0032 33.3822 67.9316 33.4233C67.8539 33.4677 67.7688 33.4496 67.7047 33.3695C67.6783 33.3366 67.6669 33.3238 67.6349 33.3668C67.5749 33.4481 67.4921 33.467 67.4146 33.4277C67.3371 33.3884 67.303 33.3016 67.3291 33.1915C67.3697 33.2614 67.4083 33.3313 67.498 33.3324C67.5877 33.3334 67.6322 33.2742 67.6683 33.1944C67.7064 33.2705 67.7513 33.336 67.8387 33.3314C67.922 33.3261 67.9749 33.272 68.0061 33.1855Z" fill="black"></path></g><defs><clipPath id="clip0_9871_575"><rect width="67.6808" height="56.8292" fill="white" transform="translate(16 22)"></rect></clipPath></defs></svg> 