<?xml version="1.0" encoding="UTF-8"?> <svg xmlns="http://www.w3.org/2000/svg" width="100" height="100" viewBox="0 0 100 100" fill="none"><path d="M54.9138 75.5295C55.1031 75.7188 55.1978 75.8586 55.1978 75.9488C55.1978 76.0333 55.1847 76.1192 55.1584 76.2066C55.1322 76.291 55.0958 76.3667 55.0492 76.4337C55.0026 76.5036 54.9459 76.5604 54.8789 76.6041C54.8119 76.6478 54.7391 76.6696 54.6605 76.6696C54.3576 76.6696 54.2062 76.4293 54.2062 75.9488C54.2062 75.646 54.3751 75.0869 54.7129 74.2715C55.0682 73.3891 55.3448 72.9683 55.5428 73.009C55.4322 73.1634 55.3259 73.3439 55.224 73.5507C55.122 73.7546 55.0289 73.9613 54.9444 74.171C54.8629 74.3807 54.793 74.5816 54.7347 74.7738C54.6794 74.9631 54.6415 75.1218 54.6212 75.2499L54.9138 75.5295Z" fill="black"></path><path fill-rule="evenodd" clip-rule="evenodd" d="M49.3661 14.5854C46.6466 16.3042 44.3455 15.3237 44.5857 12.527C44.6724 11.9134 44.8419 11.8602 45.0941 12.3673C46.0884 13.845 47.4337 14.4795 49.1077 12.9912C49.494 12.5871 49.4095 12.5547 49.7787 12.9981C51.2097 14.2378 53.0431 14.2804 53.956 12.2869C54.1476 11.9058 54.3793 11.9143 54.4189 12.2534C54.6046 15.4094 52.0108 16.4293 49.3645 14.5859L49.3661 14.5854ZM56.7023 16.7503C64.1349 22.5454 65.6204 31.1304 60.6565 39.3358C60.04 40.1476 60.2562 40.6474 61.4827 39.4646C69.909 31.0676 66.0186 19.2473 56.7939 16.1812C55.7643 15.7714 55.8461 16.1333 56.7023 16.7503ZM49.2639 44.9702C49.4084 45.1922 49.4389 45.1922 49.585 44.9702L50.773 42.9693C53.8688 43.3387 56.8019 43.3094 59.0452 42.3837C59.3128 42.2342 59.3261 42.0186 58.8338 42.0111C56.6865 42.0182 54.5558 41.6365 52.5459 40.8848C61.8086 34.5738 62.3679 23.0027 54.808 16.8078C54.2605 16.3287 54.2054 16.5368 54.7223 17.3933C59.1822 24.021 57.7855 32.9476 51.2562 38.1594L51.6592 17.5535L49.4245 15.4552L47.1903 17.5524L47.5932 38.1583C41.0645 32.9466 39.6667 24.0199 44.1266 17.3922C44.6435 16.5368 44.5889 16.3276 44.041 16.8067C36.5538 23.2193 37.0403 34.5738 46.3035 40.8848C44.2933 41.6352 42.1627 42.0156 40.0156 42.0074C39.5233 42.0175 39.534 42.2331 39.8016 42.38C42.0449 43.3068 44.978 43.3382 48.0738 42.9656L49.2639 44.9702ZM42.4339 16.7503C34.8687 22.6753 33.5159 31.1304 38.4798 39.3358C39.0963 40.1476 38.8806 40.6474 37.6535 39.4646C29.2278 31.0676 33.1182 19.2473 42.3424 16.1812C43.3726 15.7714 43.2902 16.1328 42.4339 16.7503Z" fill="black"></path><path d="M33.078 51.6109C33.07 51.6839 33.0627 51.7569 33.0568 51.8247C32.9914 52.6645 32.8071 53.4908 32.5095 54.2788C32.3227 54.7547 32.0802 55.2068 31.7871 55.6258C31.5189 56.0474 31.1505 56.396 30.7148 56.6406C30.2791 56.8852 29.7896 57.0181 29.2901 57.0276C28.8525 57.0189 28.4337 56.8483 28.1145 56.5489C27.9467 56.3837 27.8148 56.1857 27.7269 55.9672C27.639 55.7488 27.5971 55.5146 27.6037 55.2792C27.6369 54.2722 27.9122 53.288 28.4064 52.41L28.5691 52.094C28.5888 52.0882 28.5961 52.1225 28.5903 52.1962C28.5747 52.3044 28.543 52.4097 28.4961 52.5085C28.4305 52.668 28.3658 52.8298 28.302 52.9937C28.2378 53.1579 28.1816 53.3199 28.1327 53.4812C28.0859 53.6363 28.0489 53.7943 28.0218 53.954C27.9995 54.0695 27.988 54.1867 27.9875 54.3043C27.9875 54.3359 27.989 54.3688 27.9919 54.4028C28.0066 54.5912 28.0637 54.7738 28.1588 54.937C28.254 55.1003 28.3847 55.2399 28.5414 55.3456C28.8659 55.5511 29.2409 55.6627 29.625 55.6681C30.1901 55.6715 30.7453 55.5201 31.2304 55.2303C31.6043 54.9851 31.9184 54.6592 32.1498 54.2766C32.503 53.7527 32.6771 53.1286 32.646 52.4975C32.646 52.3866 32.6416 52.2728 32.6329 52.156C32.6286 51.9838 32.6487 51.8118 32.6927 51.6452C32.736 51.491 32.8576 51.1532 33.0576 50.6317C33.0797 50.5536 33.1144 50.4796 33.1604 50.4128C33.1708 50.4019 33.1844 50.3945 33.1991 50.3916C33.2056 50.3923 33.2116 50.3954 33.2159 50.4004C33.2225 50.4118 33.2256 50.4251 33.2247 50.4383C33.2237 50.4686 33.2193 50.4987 33.2115 50.5281L33.1473 50.9732L33.078 51.6109ZM31.1413 52.5939C31.1502 52.6289 31.1546 52.665 31.1545 52.7011C31.1541 52.7503 31.1482 52.7992 31.137 52.8471C31.1128 52.9499 31.0695 53.0472 31.0093 53.1338C30.9917 53.1623 30.9706 53.1944 30.945 53.2294C30.9195 53.2645 30.891 53.3024 30.8611 53.3389C30.8312 53.3754 30.8006 53.4119 30.7692 53.4476C30.7378 53.4834 30.7079 53.5155 30.6794 53.5439C30.6473 53.5783 30.6115 53.6091 30.5729 53.6359C30.551 53.6515 30.5262 53.6624 30.4999 53.668C30.4902 53.6707 30.4801 53.6722 30.47 53.6724C30.4613 53.6723 30.4527 53.6708 30.4445 53.668C30.4309 53.6623 30.4179 53.6552 30.4058 53.6468C30.3036 53.5607 30.201 53.4736 30.0979 53.3856C29.9919 53.2975 29.8805 53.2161 29.7644 53.1419C29.7528 53.1324 29.7452 53.1188 29.7432 53.1039C29.7463 53.0839 29.7535 53.0648 29.7644 53.0477L30.4488 51.9919C30.4715 51.9663 30.4926 51.9546 30.5131 51.9576C30.5359 51.9619 30.5577 51.9705 30.5773 51.9831C30.7033 52.0541 30.8195 52.1412 30.9232 52.2421C31.0263 52.3375 31.1017 52.4591 31.1413 52.5939Z" fill="black"></path><path d="M35.1949 49.4517C35.2321 49.3656 35.2621 49.3232 35.2847 49.3232C35.3073 49.3232 35.3234 49.3371 35.3234 49.3656C35.3232 49.3786 35.3218 49.3915 35.319 49.4042C35.2732 49.7151 35.2419 49.934 35.2248 50.061C35.2051 50.2069 35.1891 50.3288 35.1774 50.4258C35.1657 50.5229 35.1563 50.6156 35.1475 50.6973C35.1387 50.779 35.1322 50.8571 35.1263 50.9344C35.1205 51.0118 35.1139 51.0994 35.1052 51.1993C35.0734 51.5712 35 51.9384 34.8863 52.2939C34.7928 52.5681 34.6753 52.8335 34.5353 53.0871C34.4003 53.3308 34.2937 53.4585 34.2171 53.4694C34.2084 53.4694 34.204 53.4629 34.204 53.4483C34.2082 53.4032 34.2182 53.3588 34.2339 53.3162C34.2777 53.1971 34.3135 53.0752 34.3412 52.9514C34.3752 52.8054 34.4059 52.6495 34.4331 52.4836C34.4604 52.3177 34.4847 52.1475 34.5061 51.9728C34.528 51.7977 34.5455 51.6313 34.5601 51.4744C34.5652 51.3803 34.5827 51.2307 34.6112 51.0257C34.6334 50.8459 34.6765 50.6693 34.7396 50.4995L35.1949 49.4517Z" fill="black"></path><path d="M38.7179 51.3104C38.6774 51.4646 38.6201 51.6139 38.5471 51.7556C38.4892 51.8682 38.4173 51.9731 38.3333 52.0679C38.2569 52.1435 38.1738 52.2121 38.0852 52.2729C37.9942 52.3354 37.8963 52.387 37.7933 52.4269C37.6982 52.465 37.6079 52.5139 37.5241 52.5728C37.4553 52.6206 37.3935 52.6776 37.3402 52.7421C37.2558 52.8394 37.1907 52.9518 37.1483 53.0734C37.0933 53.214 37.0376 53.3629 36.9812 53.52C36.9247 53.6771 36.8598 53.8304 36.7863 53.9797C36.7047 54.1608 36.5786 54.3182 36.4198 54.4374C36.2609 54.5566 36.0745 54.6336 35.8778 54.6613L35.0963 54.7911C35.0739 54.7941 35.0462 54.7962 35.0131 54.7977C34.9889 54.8004 34.9644 54.8004 34.9402 54.7977C34.8915 54.7831 34.8672 54.7561 34.8672 54.7167C34.8678 54.6988 34.872 54.6812 34.8796 54.6649C34.9246 54.5792 34.9945 54.5092 35.0803 54.4642C35.3001 54.3183 35.4755 54.2006 35.6064 54.1111L35.9275 53.8921C36.0099 53.8352 36.0734 53.7878 36.1259 53.7506C36.1785 53.7134 36.2296 53.6725 36.2865 53.6265C36.4886 53.4862 36.653 53.2982 36.7652 53.0792C36.8162 52.98 36.8637 52.883 36.906 52.7874C36.9483 52.6918 36.9943 52.6006 37.041 52.5093C37.0877 52.4181 37.1388 52.3276 37.1928 52.2379C37.2499 52.1436 37.3128 52.053 37.381 51.9664C37.4676 51.8637 37.5684 51.7738 37.6802 51.6994C37.8244 51.6015 37.9759 51.5149 38.1334 51.4403C38.3142 51.3606 38.4569 51.2135 38.5311 51.0302C38.565 50.9512 38.6057 50.8752 38.6529 50.8033C38.6675 50.7747 38.6881 50.7496 38.7133 50.7297C38.7385 50.7098 38.7677 50.6955 38.7989 50.688C38.8361 50.6938 38.8543 50.7223 38.8543 50.7734C38.8536 50.8065 38.8495 50.8396 38.8419 50.8719C38.8273 50.9288 38.8098 50.9937 38.7886 51.0667C38.7675 51.1397 38.7463 51.2192 38.7179 51.3104ZM37.3066 56.865C37.3184 56.9053 37.3243 56.9471 37.3241 56.989C37.3238 57.031 37.3179 57.0727 37.3066 57.1131C37.277 57.2071 37.234 57.2963 37.1789 57.378C37.13 57.4509 37.0811 57.5239 37.033 57.5852C36.9829 57.6499 36.9281 57.7106 36.8688 57.7669C36.8401 57.7998 36.8069 57.8285 36.7703 57.8523C36.7479 57.867 36.7232 57.8778 36.6973 57.8844C36.6807 57.8896 36.6628 57.8896 36.6462 57.8844C36.6324 57.8792 36.6193 57.8721 36.6075 57.8632C36.5083 57.7837 36.4113 57.7034 36.3157 57.6239C36.2159 57.5391 36.11 57.4618 35.999 57.3926C35.9885 57.3805 35.9812 57.3659 35.9778 57.3502C35.9806 57.3317 35.9878 57.3142 35.999 57.2992L36.6491 56.298C36.6688 56.2725 36.6885 56.2608 36.7068 56.2622C36.7291 56.2647 36.7504 56.2727 36.7688 56.2856C36.8257 56.3199 36.8834 56.3586 36.9418 56.3943C36.9995 56.4324 37.0533 56.4761 37.1023 56.5249C37.1503 56.5725 37.1933 56.6248 37.2307 56.6811C37.2678 56.7368 37.2936 56.7993 37.3066 56.865ZM38.6106 56.7876C38.6223 56.8279 38.6282 56.8697 38.6281 56.9117C38.6279 56.9536 38.622 56.9954 38.6106 57.0357C38.581 57.1297 38.538 57.2189 38.4829 57.3006C38.434 57.3736 38.3851 57.4466 38.337 57.5086C38.2865 57.5731 38.2314 57.6338 38.172 57.6903C38.1429 57.7228 38.1098 57.7514 38.0735 57.7757C38.051 57.79 38.0264 57.8008 38.0006 57.8078C37.9837 57.813 37.9656 57.813 37.9487 57.8078C37.9353 57.8022 37.9226 57.7951 37.9108 57.7866C37.8108 57.7063 37.7138 57.6268 37.6189 57.5465C37.5193 57.4622 37.4137 57.3851 37.303 57.3159C37.292 57.3038 37.2844 57.2889 37.2811 57.2729C37.284 57.2543 37.2915 57.2367 37.303 57.2218L37.9524 56.2214C37.9721 56.1958 37.9918 56.1834 38.01 56.1849C38.0322 56.1878 38.0535 56.1958 38.0721 56.2082C38.129 56.2425 38.1866 56.2812 38.2457 56.3177C38.3596 56.3933 38.4575 56.4905 38.534 56.6037C38.5721 56.6593 38.5991 56.7218 38.6135 56.7876H38.6106Z" fill="black"></path><path d="M40.3211 49.4727C40.3583 49.3873 40.3883 49.3442 40.4109 49.3442C40.4335 49.3442 40.4496 49.3588 40.4496 49.3873C40.4494 49.4001 40.4479 49.4128 40.4452 49.4252C40.4198 49.5275 40.3998 49.631 40.3853 49.7354C40.3627 49.8813 40.3452 49.9973 40.3343 50.0798C40.3167 50.2257 40.2997 50.3897 40.2832 50.5716C40.2657 50.754 40.2503 50.9408 40.2357 51.1313C40.2212 51.3218 40.2073 51.5137 40.1927 51.6961C40.1781 51.8785 40.1628 52.042 40.146 52.1879C40.1148 52.5591 40.0446 52.926 39.9366 53.2825C39.8479 53.5558 39.7379 53.8218 39.6075 54.0779C39.482 54.3216 39.3805 54.4486 39.3039 54.4602C39.2952 54.4602 39.2908 54.4529 39.2908 54.4391C39.295 54.3937 39.3051 54.3491 39.3207 54.3063C39.3643 54.1873 39.3994 54.0653 39.4258 53.9414C39.4588 53.7955 39.488 53.6393 39.5133 53.4729C39.5389 53.3066 39.5615 53.1351 39.5819 52.9621C39.6024 52.7892 39.6184 52.6206 39.633 52.4645C39.6476 52.3083 39.6702 52.0938 39.6841 51.7975C39.698 51.5013 39.7198 51.2539 39.7483 51.0488C39.7706 50.8691 39.8137 50.6925 39.8767 50.5227L40.3211 49.4727Z" fill="black"></path><path d="M43.1903 51.5034C43.0648 51.771 42.9385 52.0425 42.8116 52.3178C42.6921 52.5746 42.5873 52.8379 42.4978 53.1066C42.3593 53.4835 42.2798 53.8796 42.2621 54.2807C42.2617 54.3295 42.2644 54.3782 42.2701 54.4267C42.2767 54.5822 42.3161 54.7346 42.3857 54.8738C42.4554 55.0131 42.5538 55.136 42.6744 55.2344C42.9774 55.4531 43.3472 55.5591 43.7201 55.5344C44.0965 55.5341 44.4685 55.4522 44.8102 55.2943C45.0617 55.184 45.2963 55.0388 45.5071 54.863C45.6909 54.7128 45.8489 54.5336 45.9749 54.3325C46.0694 54.1957 46.1262 54.0364 46.1398 53.8706C46.1405 53.841 46.1331 53.8118 46.1185 53.7861C46.1038 53.7604 46.0824 53.7391 46.0566 53.7247C45.991 53.681 45.9198 53.6464 45.845 53.6218C45.7618 53.5933 45.6764 53.5678 45.5881 53.5488C45.5153 53.531 45.4439 53.5081 45.3743 53.4802C45.2508 53.4366 45.141 53.3611 45.0562 53.2613C44.9661 53.137 44.9241 52.9844 44.9379 52.8315C44.9528 52.5488 45.0303 52.2728 45.1649 52.0237C45.1888 51.9918 45.2191 51.9652 45.2539 51.9456C45.28 51.9293 45.3107 51.9216 45.3415 51.9238C45.3682 51.9266 45.3935 51.937 45.4144 51.9537C45.4368 51.9725 45.4524 51.9981 45.459 52.0266C45.4509 52.0697 45.4787 52.112 45.5429 52.1551C45.6585 52.2207 45.7808 52.2738 45.9077 52.3134C46.0216 52.3484 46.1307 52.3974 46.2324 52.4594C46.3085 52.5217 46.3675 52.6022 46.4041 52.6934C46.4407 52.7846 46.4537 52.8835 46.4419 52.9811C46.4313 53.4275 46.3558 53.8699 46.2179 54.2946C46.0838 54.7561 45.8734 55.1919 45.5954 55.584C45.4748 55.7636 45.3372 55.9312 45.1846 56.0846C45.0274 56.2459 44.8493 56.3853 44.6548 56.499C44.2813 56.7545 43.8376 56.8874 43.3851 56.8792C43.1513 56.8909 42.9179 56.8488 42.7028 56.7562C42.4878 56.6636 42.2968 56.5229 42.1446 56.3451C42.0207 56.1765 41.9307 55.9854 41.8797 55.7825C41.8329 55.5973 41.8084 55.4072 41.8068 55.2162C41.8157 54.8863 41.8585 54.5581 41.9345 54.2369C42.0124 53.9075 42.1111 53.5834 42.23 53.2664C42.3495 52.9474 42.4857 52.6349 42.6379 52.3302C42.7907 52.0252 42.9468 51.7333 43.1064 51.4545C43.1319 51.4115 43.1465 51.3874 43.1487 51.3816C43.1772 51.3363 43.2034 51.313 43.226 51.313C43.2305 51.3134 43.2347 51.3149 43.2385 51.3174H43.2428C43.2459 51.3208 43.2483 51.3249 43.2498 51.3293C43.2513 51.3336 43.2519 51.3383 43.2516 51.3429C43.2511 51.3518 43.2496 51.3606 43.2472 51.3692C43.2326 51.3925 43.2158 51.4348 43.1903 51.5034Z" fill="black"></path><path d="M45.1613 52.0249C45.2294 51.8971 45.3052 51.7736 45.3882 51.6549C45.491 51.5041 45.6031 51.3598 45.7239 51.2229C45.8431 51.0861 45.9724 50.9583 46.1106 50.8406C46.2067 50.7649 46.2941 50.6788 46.3711 50.5837C46.407 50.5502 46.4298 50.5049 46.4353 50.456C46.4353 50.4246 46.3967 50.3903 46.32 50.3531C46.2936 50.3431 46.2706 50.3257 46.2539 50.3029C46.2372 50.2801 46.2275 50.2529 46.2259 50.2247C46.226 50.2131 46.2275 50.2016 46.2303 50.1904C46.4735 49.6747 46.626 49.3571 46.6878 49.2374C46.7759 49.1031 46.8627 49.0404 46.9483 49.0491C47.1833 49.0902 47.4082 49.1759 47.6109 49.3016C47.6768 49.336 47.7334 49.3858 47.7758 49.4468C47.8183 49.5078 47.8453 49.5781 47.8546 49.6519C47.844 49.8561 47.7642 50.0507 47.6284 50.2035C47.5085 50.3832 47.349 50.533 47.1621 50.6414C47.0201 50.7148 46.8255 50.8267 46.5784 50.977C46.3905 51.0859 46.2106 51.2078 46.0398 51.3419C45.912 51.4538 45.7935 51.5758 45.6852 51.7067C45.5941 51.8025 45.5176 51.9112 45.4582 52.0293C45.4133 52.0628 45.3601 52.0835 45.3043 52.0891C45.2513 52.0825 45.2015 52.0601 45.1613 52.0249Z" fill="black"></path><path d="M50.621 51.8798C50.6086 52.108 50.5801 52.335 50.5356 52.5591C50.5025 52.7639 50.4577 52.9666 50.4013 53.1662C50.2855 53.5072 50.1281 53.8327 49.9329 54.1353C49.8118 54.3207 49.6591 54.4834 49.4819 54.6162C49.3134 54.7503 49.1048 54.824 48.8894 54.8256C48.7883 54.8289 48.6893 54.7963 48.6099 54.7337C48.5254 54.6617 48.4562 54.5737 48.4063 54.4746C48.3591 54.3815 48.3315 54.2797 48.3253 54.1754C48.3253 54.1499 48.3253 54.1346 48.3363 54.1287C48.3462 54.1227 48.3571 54.1183 48.3684 54.1156C48.4105 54.1019 48.4492 54.0791 48.4816 54.0489C48.514 54.0186 48.5394 53.9816 48.5559 53.9405C48.6105 53.8288 48.6521 53.7113 48.68 53.5902C48.7116 53.4461 48.7316 53.2997 48.7398 53.1524C48.7515 52.9816 48.7573 52.8342 48.7573 52.7146V52.3431C48.7573 52.2147 48.7573 52.0804 48.7617 51.9411C48.7736 51.5394 48.815 51.1392 48.8857 50.7436C48.9755 50.327 49.11 49.9214 49.2871 49.5338C49.3214 49.4608 49.3491 49.4287 49.371 49.4309C49.3929 49.4331 49.4002 49.4542 49.3943 49.4914C49.2766 50.0144 49.2248 50.55 49.2404 51.0858C49.2316 51.8185 49.2165 52.3037 49.1951 52.5416C49.1751 52.7746 49.1301 53.0048 49.0609 53.2283C48.9719 53.5348 48.8395 53.827 48.6676 54.0959C48.7854 54.0959 48.903 54.0888 49.02 54.0747C49.1327 54.0608 49.2433 54.0329 49.3491 53.9915C49.4559 53.9495 49.5547 53.8892 49.641 53.8135C49.7371 53.7259 49.8148 53.62 49.8694 53.5019C49.9394 53.3487 49.9885 53.1867 50.0153 53.0203C50.0546 52.7938 50.0739 52.5643 50.073 52.3344C50.073 52.1374 50.073 51.8871 50.0693 51.582C50.0657 51.277 50.0744 50.9983 50.0949 50.748C50.129 50.4336 50.2026 50.1247 50.3138 49.8286C50.4386 49.4695 50.559 49.1536 50.6728 48.8799C50.6896 48.8456 50.7042 48.8281 50.7151 48.8281L50.7239 48.8325C50.7297 48.8383 50.7326 48.8566 50.7326 48.888C50.7326 48.9193 50.7326 48.9653 50.7239 49.0251C50.6738 49.339 50.6468 49.656 50.6429 49.9738L50.621 51.8798Z" fill="black"></path><path d="M52.8962 52.2777C52.8491 52.2942 52.8001 52.3042 52.7503 52.3076L52.5963 52.3244C52.4993 52.3248 52.4043 52.3529 52.3227 52.4054C52.1385 52.5748 51.9774 52.7677 51.8433 52.9789C51.7608 53.1353 51.6397 53.2679 51.4916 53.3643C51.3434 53.4608 51.1731 53.5177 50.9968 53.5299C50.8383 53.5385 50.6808 53.4991 50.545 53.4169C50.4092 53.3346 50.3014 53.2132 50.2357 53.0687C50.1184 52.7739 50.0659 52.4574 50.0817 52.1405C50.0913 51.7779 50.1563 51.4188 50.2744 51.0759C50.3773 50.8423 50.4736 50.7256 50.5663 50.7256C50.5867 50.7256 50.6093 50.7438 50.6349 50.7811V51.1744C50.6517 51.3237 50.6855 51.4705 50.7356 51.6122C50.7866 51.771 50.8842 51.9109 51.0158 52.0135C51.1755 52.1134 51.3617 52.1628 51.5499 52.1551C51.6826 52.1615 51.8151 52.1392 51.9384 52.0897C52.0617 52.0402 52.1729 51.9647 52.2643 51.8683C52.3592 51.7365 52.4843 51.6294 52.6292 51.556C52.6568 51.5475 52.6856 51.5434 52.7145 51.5436C52.7391 51.5439 52.7636 51.5468 52.7875 51.5524C52.8392 51.5655 52.8925 51.5712 52.9459 51.5691C53.0877 51.5637 53.2231 51.5084 53.3282 51.413C53.4491 51.3047 53.551 51.177 53.6296 51.035C53.6333 51.025 53.6393 51.016 53.6471 51.0087C53.6521 51.0035 53.6581 50.9993 53.6648 50.9965C53.6714 50.9936 53.6785 50.992 53.6858 50.9919C53.693 50.9923 53.7001 50.9938 53.7069 50.9963C53.7495 51.0092 53.7933 51.0178 53.8376 51.0219C53.8788 51.0238 53.9194 51.0117 53.9529 50.9876C54.0023 50.9499 54.0438 50.9028 54.0747 50.8489C54.13 50.7551 54.1787 50.6575 54.2207 50.557C54.2579 50.452 54.2936 50.3994 54.3272 50.3994C54.3332 50.3996 54.3391 50.4008 54.3447 50.4031C54.3615 50.4031 54.3702 50.4308 54.3702 50.476C54.3692 50.5177 54.3648 50.5592 54.3571 50.6001C54.3094 50.8332 54.2327 51.0595 54.1287 51.2736C54.0626 51.4148 53.9688 51.5414 53.8529 51.6458C53.7448 51.7275 53.6203 51.785 53.488 51.8143C53.3998 51.9109 53.3039 52.0002 53.2013 52.0814C53.1077 52.1587 53.0053 52.2246 52.8962 52.2777Z" fill="black"></path><path d="M55.8887 49.4727C55.926 49.3873 55.9559 49.3442 55.9785 49.3442C56.0011 49.3442 56.0172 49.3588 56.0172 49.3873C56.017 49.4001 56.0155 49.4128 56.0128 49.4252C55.9874 49.5275 55.9675 49.631 55.953 49.7354C55.9303 49.8813 55.9128 49.9973 55.9019 50.0798C55.8844 50.2257 55.8676 50.3892 55.8501 50.5716C55.8326 50.754 55.818 50.9408 55.8034 51.1313C55.7888 51.3218 55.7749 51.5137 55.7603 51.6961C55.7457 51.8785 55.7304 52.042 55.7136 52.1879C55.682 52.5591 55.6118 52.9259 55.5042 53.2825C55.4155 53.5558 55.3055 53.8218 55.1751 54.0779C55.0496 54.3216 54.9482 54.4486 54.8715 54.4602C54.8628 54.4602 54.8584 54.4529 54.8584 54.4391C54.8627 54.3937 54.8727 54.3491 54.8883 54.3063C54.9319 54.1873 54.967 54.0653 54.9934 53.9414C55.0265 53.7955 55.0557 53.6393 55.081 53.4729C55.1065 53.3066 55.1291 53.1351 55.1495 52.9621C55.17 52.7892 55.186 52.6206 55.2006 52.4645C55.2152 52.3083 55.2378 52.0938 55.2517 51.7975C55.2656 51.5013 55.2875 51.2539 55.3159 51.0488C55.3383 50.8691 55.3813 50.6925 55.4444 50.5227L55.8887 49.4727Z" fill="black"></path><path d="M58.728 51.6366C58.6025 51.9041 58.4762 52.1756 58.3493 52.4509C58.2297 52.7077 58.1249 52.971 58.0355 53.2398C57.8955 53.6169 57.8148 54.0135 57.7962 54.4153C57.7958 54.4641 57.7984 54.5128 57.8042 54.5613C57.8108 54.7168 57.8502 54.8692 57.9199 55.0084C57.9896 55.1476 58.0879 55.2705 58.2084 55.369C58.5118 55.5868 58.8814 55.6926 59.2541 55.6682C59.6305 55.6682 60.0025 55.5866 60.3443 55.4289C60.5959 55.3186 60.8305 55.1732 61.0412 54.9969C61.2251 54.8471 61.3831 54.6681 61.5089 54.4671C61.6034 54.3303 61.6603 54.171 61.6738 54.0052C61.6746 53.9756 61.6673 53.9464 61.6526 53.9206C61.638 53.8949 61.6165 53.8737 61.5906 53.8593C61.5251 53.8156 61.4539 53.781 61.379 53.7564C61.2958 53.7279 61.2105 53.7024 61.1222 53.6798C61.0495 53.6616 60.978 53.6387 60.9084 53.6112C60.785 53.5673 60.6753 53.4918 60.5902 53.3923C60.5002 53.268 60.4582 53.1153 60.472 52.9625C60.4885 52.6568 60.5704 52.3582 60.7121 52.0868C60.8938 51.7101 61.1176 51.3552 61.379 51.0287C61.5772 50.7937 61.7915 50.5728 62.0204 50.3676C62.197 50.2149 62.3673 50.0796 62.5312 49.9619C62.6835 49.8505 62.8443 49.7512 63.0121 49.6649C63.0697 49.6331 63.1298 49.6057 63.1916 49.5832C63.2334 49.5707 63.2765 49.5636 63.3201 49.562C63.3331 49.5619 63.3461 49.5634 63.3587 49.5664C63.3766 49.5736 63.3918 49.586 63.4025 49.602C63.4132 49.618 63.4188 49.6369 63.4186 49.6562C63.404 49.7072 63.3843 49.77 63.3587 49.8444C63.3332 49.9188 63.304 49.9955 63.2726 50.075C63.2412 50.1545 63.2084 50.2341 63.1748 50.3122C63.1413 50.3902 63.1077 50.4581 63.0763 50.5216C63.0506 50.5718 63.0221 50.6205 62.991 50.6675C62.9647 50.7062 62.9464 50.7244 62.9348 50.7215L62.9267 50.7259C62.9201 50.7255 62.9137 50.7237 62.9078 50.7207C62.9019 50.7177 62.8967 50.7135 62.8924 50.7084C62.8656 50.6918 62.8341 50.6844 62.8027 50.6872C62.6418 50.6978 62.4832 50.7317 62.332 50.7879C62.0944 50.8732 61.8749 51.0021 61.6848 51.1681C61.4906 51.3214 61.3161 51.4981 61.1652 51.6942C61.0781 51.7909 61.0164 51.9078 60.9857 52.0343C60.9828 52.0482 60.9814 52.0624 60.9813 52.0766C60.9815 52.1137 60.9901 52.1503 61.0064 52.1837C61.0227 52.217 61.0463 52.2463 61.0755 52.2692C61.1883 52.3434 61.3111 52.4009 61.4403 52.44C61.5541 52.4753 61.6631 52.5243 61.765 52.5859C61.841 52.6482 61.9001 52.7287 61.9367 52.8199C61.9733 52.9111 61.9863 53.0101 61.9745 53.1077C61.9639 53.5541 61.8882 53.9966 61.7497 54.4212C61.6162 54.8828 61.406 55.3186 61.128 55.7105C61.0076 55.8901 60.87 56.0575 60.7172 56.2104C60.5601 56.372 60.3819 56.5116 60.1874 56.6256C59.8138 56.8807 59.3701 57.0136 58.9177 57.0058C58.6839 57.0169 58.4507 56.9745 58.2358 56.882C58.0208 56.7894 57.8298 56.6491 57.6772 56.4716C57.5534 56.303 57.4634 56.1119 57.4123 55.909C57.3655 55.7239 57.341 55.5338 57.3394 55.3428C57.3482 55.0128 57.391 54.6847 57.4671 54.3635C57.5449 54.0341 57.6436 53.7099 57.7626 53.393C57.882 53.074 58.0181 52.7615 58.1705 52.4568C58.3232 52.1518 58.4794 51.8599 58.639 51.5811C58.6645 51.5388 58.6784 51.5147 58.6813 51.5082C58.7127 51.4651 58.7426 51.4439 58.771 51.4439H58.7754C58.7785 51.4474 58.7809 51.4514 58.7824 51.4558C58.7839 51.4602 58.7845 51.4649 58.7842 51.4695C58.7837 51.4781 58.7823 51.4867 58.7798 51.495C58.7703 51.5249 58.7535 51.5709 58.728 51.6366Z" fill="black"></path><path d="M64.6927 51.2809C64.5701 52.034 64.4596 52.5956 64.3614 52.9658C64.2895 53.2539 64.2001 53.5373 64.0936 53.8145C64.0334 53.9778 63.9444 54.129 63.8309 54.261C63.6793 54.396 63.4996 54.4957 63.3048 54.5529C63.0963 54.6319 62.8827 54.6967 62.6655 54.747C62.5599 54.7728 62.453 54.7928 62.3452 54.8069C62.3021 54.8069 62.2722 54.7959 62.2642 54.7813C62.2626 54.7797 62.2614 54.7777 62.2607 54.7756C62.2599 54.7734 62.2596 54.7712 62.2598 54.7689C62.2641 54.7405 62.2759 54.7138 62.2941 54.6916C62.3935 54.5716 62.5083 54.4653 62.6356 54.3756C62.8073 54.2413 63.0104 54.0745 63.2449 53.875C63.4389 53.7177 63.6159 53.5407 63.7732 53.3467C63.9092 53.1566 64.0139 52.946 64.0834 52.7228C64.1734 52.4591 64.2609 52.1833 64.3461 51.8953C64.4312 51.6073 64.4932 51.4127 64.5321 51.3116C64.5708 51.2094 64.6095 51.159 64.6496 51.1656C64.6898 51.1722 64.7007 51.1941 64.7007 51.2342C64.6998 51.25 64.6971 51.2657 64.6927 51.2809Z" fill="black"></path><path d="M66.9263 53.175C66.8069 53.4819 66.6624 53.7784 66.4943 54.0616C66.4147 54.1978 66.3145 54.3209 66.1973 54.4264C66.0898 54.5035 65.9708 54.5634 65.8448 54.6038C65.6858 54.6609 65.5238 54.7096 65.3596 54.7497C65.2352 54.784 65.1075 54.8048 64.9787 54.8117C64.9444 54.8117 64.9276 54.8117 64.9276 54.8073L64.9232 54.7993C64.9232 54.7619 65.0429 54.6692 65.2822 54.5213C65.5024 54.3845 65.7151 54.2359 65.9193 54.0762C66.0845 53.9464 66.2357 53.7997 66.3702 53.6383C66.4961 53.4911 66.5927 53.3212 66.6548 53.1378C66.6176 53.1545 66.579 53.1682 66.5395 53.1786C66.4916 53.1919 66.4428 53.2019 66.3936 53.2086C66.3432 53.2158 66.2958 53.221 66.2476 53.2239C66.2077 53.227 66.1676 53.2255 66.128 53.2195C65.9784 53.2131 65.8357 53.1548 65.7244 53.0546C65.6728 53.0096 65.6322 52.9532 65.6058 52.8899C65.5795 52.8266 65.5682 52.7581 65.5727 52.6897C65.5843 52.6038 65.6043 52.5192 65.6325 52.4372C65.6891 52.2804 65.7546 52.1269 65.8288 51.9775C65.9142 51.7908 66.0241 51.6163 66.1557 51.4587C66.1933 51.403 66.2423 51.3559 66.2994 51.3205C66.3565 51.285 66.4204 51.262 66.487 51.2529C66.5726 51.2528 66.657 51.2731 66.7332 51.3122C66.8093 51.3513 66.875 51.408 66.9248 51.4777C67.0484 51.6332 67.1249 51.8208 67.1452 52.0184C67.1452 52.0614 67.1496 52.1038 67.1496 52.1468C67.1496 52.2096 67.1466 52.2723 67.1408 52.3351C67.1322 52.4233 67.1188 52.511 67.1007 52.5978C67.0846 52.6708 67.0613 52.7576 67.0277 52.867C66.9941 52.9765 66.9613 53.0809 66.9263 53.175Z" fill="black"></path><path d="M69.0425 52.2091L68.8024 52.8658C68.7688 52.9519 68.7411 53.0117 68.7214 53.0584C68.6959 53.1154 68.6601 53.1438 68.6149 53.1438C68.6047 53.1436 68.5947 53.1422 68.5849 53.1394C68.5616 53.1343 68.5506 53.1073 68.5506 53.0584C68.5513 53.0298 68.554 53.0013 68.5587 52.9731C68.5762 52.8935 68.5915 52.8176 68.6061 52.7461C68.6207 52.6746 68.6302 52.6082 68.6448 52.5455C68.6591 52.4648 68.6691 52.3835 68.6747 52.3017C68.6793 52.1536 68.6324 52.0084 68.5419 51.8909C68.4911 51.8342 68.4282 51.7898 68.3578 51.761C68.2874 51.7322 68.2114 51.7197 68.1354 51.7245C67.9524 51.7707 67.795 51.8875 67.6976 52.0493C67.521 52.3145 67.3094 52.5548 67.0686 52.7636L66.795 52.9826C66.781 52.8834 66.7739 52.7835 66.7738 52.6834C66.7738 52.6235 66.7767 52.5622 66.7826 52.4995C66.8013 52.334 66.8459 52.1725 66.9146 52.0208C66.9486 52.0271 66.983 52.0301 67.0175 52.0296C67.0446 52.0295 67.0716 52.028 67.0985 52.0252C67.1862 52.0119 67.2681 51.9733 67.3342 51.9143C67.4317 51.8452 67.5194 51.7632 67.5947 51.6705C67.6633 51.5844 67.7309 51.4974 67.7976 51.4093C67.8642 51.3213 67.9309 51.2325 67.9975 51.143C68.0595 51.0579 68.1395 50.9876 68.2319 50.9371C68.3242 50.8867 68.4266 50.8573 68.5317 50.8511C68.6139 50.8513 68.695 50.8707 68.7684 50.9077C68.8419 50.9446 68.9057 50.9982 68.9549 51.0641C69.0235 51.17 69.0753 51.2517 69.1089 51.3101C69.1424 51.3684 69.1731 51.421 69.1986 51.4662C69.2167 51.5008 69.2269 51.5389 69.2285 51.5779C69.2285 51.6457 69.2285 51.6932 69.2285 51.7187C69.2274 51.7432 69.2245 51.7676 69.2198 51.7917C69.2154 51.8128 69.2103 51.8333 69.2045 51.8537L69.0425 52.2091Z" fill="black"></path><path d="M70.3063 49.6111C70.3602 49.5744 70.4253 49.5578 70.4902 49.5644C70.5448 49.5657 70.598 49.5818 70.6442 49.6111C70.8387 49.8057 70.9876 49.9655 71.0907 50.0905C71.1801 50.1818 71.2352 50.3011 71.2469 50.4284C71.2475 50.5031 71.2344 50.5773 71.2082 50.6473C71.1771 50.7272 71.1369 50.8034 71.0885 50.8742C71.0454 50.9486 70.9847 51.0113 70.9116 51.0568C70.8386 51.1022 70.7555 51.129 70.6697 51.1347C70.6697 51.1347 70.5902 51.1209 70.4391 51.0924C70.3555 51.0672 70.2694 51.0513 70.1822 51.045C69.986 51.0578 69.8001 51.1379 69.6561 51.2719C69.4591 51.426 69.3034 51.6266 69.203 51.8557C69.1891 51.8637 69.168 51.8746 69.141 51.8878C69.1105 51.9013 69.0783 51.9106 69.0454 51.9155C69.0281 51.917 69.0108 51.917 68.9935 51.9155C68.9751 51.9171 68.9565 51.9171 68.9381 51.9155C68.8988 51.9057 68.8631 51.885 68.8352 51.8557C68.9683 51.5806 69.1199 51.3148 69.2891 51.0603C69.3942 50.9144 69.5014 50.7779 69.6094 50.6495C69.7174 50.521 69.813 50.4057 69.8962 50.3036C69.93 50.259 69.9601 50.2116 69.986 50.162C70.0219 50.0359 70.0789 49.9168 70.1545 49.8096L70.3063 49.6111Z" fill="black"></path><path d="M70.6479 49.6107C70.585 49.6576 70.5071 49.6797 70.429 49.6727C70.3803 49.6696 70.3349 49.6473 70.3027 49.6107C70.3704 49.5185 70.4448 49.4314 70.5253 49.3502C70.6596 49.2152 70.8062 49.0931 70.9631 48.9853C71.0575 48.9226 71.1524 48.8657 71.2477 48.8146C71.3433 48.7628 71.4389 48.7154 71.5338 48.6687L71.8183 48.5388C71.9125 48.4957 72.0066 48.4505 72.1007 48.4016C72.0369 48.3794 71.9719 48.3609 71.9059 48.3461C71.822 48.3264 71.733 48.3082 71.6388 48.2929C71.5447 48.2775 71.4528 48.2629 71.363 48.2498C71.2732 48.2367 71.1995 48.2279 71.1441 48.2221C71.0766 48.2154 71.0085 48.2226 70.9439 48.2432C70.8793 48.2638 70.8195 48.2973 70.7683 48.3417C70.6774 48.4144 70.5956 48.4977 70.5246 48.5898C70.5097 48.6091 70.491 48.6252 70.4696 48.637C70.4483 48.6488 70.4248 48.6561 70.4005 48.6584C70.3927 48.6588 70.3849 48.657 70.378 48.6531C70.3712 48.6492 70.3656 48.6435 70.3618 48.6365C70.3589 48.6314 70.3574 48.6256 70.3575 48.6198C70.3585 48.6046 70.363 48.5899 70.3706 48.5767C70.3961 48.5198 70.4312 48.4439 70.4749 48.3483C70.5227 48.2472 70.5817 48.1517 70.6508 48.0637C70.725 47.9677 70.8128 47.8829 70.9113 47.812C71.0187 47.7356 71.1448 47.6897 71.2762 47.6792C71.3389 47.6733 71.4046 47.6704 71.4732 47.6704C71.5218 47.6704 71.5744 47.6719 71.6308 47.6748C71.7614 47.6839 71.8915 47.6998 72.0205 47.7222C72.154 47.7448 72.2912 47.774 72.4306 47.8098C72.5699 47.8455 72.7086 47.8828 72.845 47.9273C72.8729 47.9318 72.899 47.9437 72.9208 47.9616C72.9426 47.9796 72.9593 48.003 72.9691 48.0294C72.9748 48.0489 72.9777 48.069 72.9778 48.0893C72.9768 48.1278 72.9681 48.1657 72.9523 48.2009C72.8787 48.3322 72.784 48.4505 72.6721 48.5512C72.5739 48.637 72.4656 48.7105 72.3496 48.7701C72.2948 48.7956 72.2379 48.8212 72.1781 48.8431C72.114 48.8708 72.0484 48.8951 71.9818 48.916C71.7021 49.0299 71.4384 49.1495 71.1908 49.275C70.9987 49.3678 70.8167 49.4803 70.6479 49.6107ZM72.5634 55.0923C72.572 55.1244 72.5761 55.1575 72.5758 55.1908C72.5756 55.2402 72.5684 55.2893 72.5546 55.3367C72.5248 55.4308 72.4816 55.52 72.4262 55.6016C72.378 55.6746 72.3291 55.7476 72.2802 55.8118C72.2295 55.8796 72.1723 55.9425 72.1095 55.9993C72.0365 56.0767 71.9781 56.1161 71.938 56.1168C71.9042 56.1202 71.8704 56.1103 71.8439 56.0891L71.7184 55.976C71.6651 55.9293 71.6104 55.8811 71.5535 55.83C71.4965 55.7789 71.4403 55.7359 71.3849 55.6928C71.3294 55.6498 71.2827 55.6199 71.2455 55.5951C71.2338 55.5864 71.2249 55.5745 71.22 55.5608C71.22 55.5491 71.2258 55.5294 71.2455 55.5009L71.8957 54.5085C71.9183 54.4771 71.9351 54.4633 71.9468 54.4662C71.9748 54.4764 72.002 54.4891 72.0278 54.5041C72.0825 54.5384 72.1379 54.5771 72.1949 54.6136C72.2513 54.6517 72.3043 54.6947 72.3532 54.742C72.402 54.7892 72.4449 54.8421 72.4809 54.8996C72.5187 54.9585 72.5468 55.023 72.5641 55.0908L72.5634 55.0923Z" fill="black"></path><path d="M18.8785 64.0326C18.8912 64.0787 18.8976 64.1263 18.8974 64.1742C18.8967 64.2431 18.8865 64.3115 18.867 64.3776C18.8247 64.5149 18.7625 64.6453 18.6824 64.7645C18.6122 64.8694 18.543 64.9742 18.4727 65.0655C18.3994 65.1634 18.3169 65.2539 18.2263 65.336C18.1214 65.4409 18.0386 65.5027 17.9809 65.5048C17.9324 65.5095 17.8839 65.4953 17.8456 65.465L17.6642 65.3014C17.5887 65.2343 17.5101 65.1661 17.4283 65.0917C17.3465 65.0172 17.2647 64.9564 17.185 64.8956C17.1211 64.8451 17.0546 64.7978 16.9858 64.754C16.9681 64.7425 16.9551 64.725 16.9491 64.7048C16.9491 64.688 16.9564 64.6597 16.9858 64.6188L17.919 63.1937C17.9526 63.1487 17.9767 63.1277 17.9935 63.1319C18.0338 63.147 18.0727 63.1656 18.1099 63.1874C18.1875 63.2367 18.2672 63.2923 18.349 63.3437C18.4304 63.3979 18.5066 63.4597 18.5765 63.5282C18.647 63.5964 18.7089 63.6728 18.7611 63.7558C18.8153 63.8409 18.855 63.9345 18.8785 64.0326Z" fill="#1A1A18"></path><path d="M2.99652 71.4436C2.81616 71.8288 2.63475 72.2189 2.4523 72.6138C2.28043 72.9827 2.12988 73.3612 2.0014 73.7474C1.80021 74.2893 1.68419 74.8592 1.65747 75.4367C1.65689 75.5067 1.66074 75.5768 1.669 75.6464C1.67839 75.8699 1.73501 76.0889 1.83513 76.289C1.93526 76.4891 2.07663 76.6657 2.24992 76.8072C2.68552 77.1209 3.21691 77.273 3.75255 77.2371C4.29348 77.2371 4.82797 77.1197 5.31915 76.8931C5.68067 76.7347 6.01785 76.5257 6.32056 76.2724C6.5848 76.0572 6.81187 75.8 6.9927 75.5111C7.12852 75.3144 7.21024 75.0855 7.22968 74.8473C7.23083 74.8048 7.2203 74.7628 7.19922 74.7258C7.17814 74.6888 7.14734 74.6583 7.11014 74.6376C7.01522 74.577 6.91259 74.5294 6.805 74.4961C6.68546 74.4552 6.56278 74.4185 6.4359 74.386C6.33143 74.3599 6.22879 74.327 6.12866 74.2874C5.95138 74.2243 5.79374 74.1159 5.67148 73.9728C5.54206 73.7942 5.48171 73.5748 5.50161 73.3552C5.52538 72.9159 5.64302 72.4869 5.84659 72.0969C6.10778 71.5556 6.42929 71.0455 6.805 70.5764C7.08978 70.239 7.39777 69.9219 7.72672 69.6275C7.98048 69.4086 8.22515 69.214 8.46073 69.0434C8.67958 68.8833 8.91063 68.7406 9.15175 68.6166C9.23456 68.5708 9.32081 68.5316 9.40971 68.4992C9.46967 68.4812 9.5317 68.471 9.59426 68.4688C9.61297 68.4686 9.63163 68.4707 9.64983 68.4751C9.67532 68.4856 9.69709 68.5035 9.71239 68.5265C9.7277 68.5495 9.73585 68.5764 9.73582 68.604C9.71485 68.6774 9.68653 68.7676 9.64983 68.8746C9.61313 68.9815 9.57119 69.0916 9.5261 69.2059C9.48101 69.3202 9.43382 69.4345 9.38559 69.5467C9.33735 69.6589 9.28912 69.7564 9.24403 69.8477C9.20701 69.9218 9.16605 69.9939 9.12134 70.0637C9.08464 70.1182 9.05738 70.1444 9.0406 70.1402L9.02907 70.1465C9.01958 70.1459 9.01031 70.1433 9.00184 70.139C8.99337 70.1347 8.98587 70.1287 8.97978 70.1213C8.94121 70.0975 8.89595 70.0869 8.8508 70.0909C8.61953 70.1061 8.3917 70.1549 8.17446 70.2356C7.83306 70.3581 7.5176 70.5434 7.24436 70.782C6.96529 71.0022 6.71452 71.2562 6.49777 71.538C6.37254 71.6769 6.28388 71.8449 6.23981 72.0266C6.23565 72.0466 6.23354 72.067 6.23352 72.0874C6.23378 72.1408 6.24608 72.1934 6.2695 72.2413C6.29292 72.2893 6.32686 72.3313 6.36879 72.3643C6.53099 72.4706 6.70754 72.5532 6.89309 72.6096C7.0568 72.6597 7.21357 72.7302 7.35971 72.8194C7.46877 72.9088 7.55351 73.0243 7.60611 73.1552C7.65872 73.286 7.67748 73.428 7.66066 73.5681C7.64533 74.2095 7.53689 74.8453 7.33874 75.4555C7.1461 76.1187 6.84377 76.745 6.44429 77.3084C6.27125 77.5664 6.07353 77.8069 5.85393 78.0267C5.62814 78.2589 5.37208 78.4596 5.09265 78.6233C4.55571 78.99 3.91818 79.1809 3.2681 79.1696C2.93218 79.1856 2.59703 79.1248 2.28815 78.9917C1.97926 78.8587 1.70476 78.6571 1.4855 78.4021C1.30758 78.1597 1.17831 77.8852 1.10486 77.5936C1.03759 77.3275 1.00238 77.0543 1 76.7799C1.01274 76.3058 1.07424 75.8342 1.1835 75.3727C1.29534 74.8993 1.43718 74.4335 1.60818 73.9781C1.77864 73.5186 1.97325 73.0685 2.1912 72.6296C2.4107 72.1913 2.6351 71.7718 2.8644 71.3713C2.9011 71.3094 2.92207 71.2748 2.92521 71.2664C2.9703 71.2045 3.0133 71.1741 3.05419 71.1741H3.06048C3.0649 71.1791 3.06829 71.1849 3.07045 71.1912C3.07261 71.1975 3.0735 71.2042 3.07307 71.2108C3.07244 71.2233 3.07033 71.2356 3.06677 71.2475C3.05734 71.2842 3.03007 71.3503 2.99652 71.4436Z" fill="#1A1A18"></path><path d="M11.5677 70.9309C11.3916 72.0123 11.2329 72.819 11.0917 73.351C10.9884 73.765 10.8599 74.1722 10.7068 74.5705C10.6201 74.8054 10.4922 75.0231 10.3294 75.2133C10.1111 75.4068 9.85299 75.55 9.57332 75.6327C9.27372 75.7462 8.96684 75.8394 8.65475 75.9117C8.40938 75.9651 8.25524 75.9945 8.19442 75.9987C8.1336 76.0029 8.08956 75.9819 8.07802 75.9609C8.07578 75.9586 8.07405 75.9558 8.07297 75.9527C8.07189 75.9496 8.07146 75.9464 8.07173 75.9431C8.07783 75.9023 8.09486 75.8639 8.12102 75.832C8.26378 75.6596 8.4288 75.5069 8.61176 75.3779C8.85853 75.185 9.15038 74.9452 9.48733 74.6586C9.76597 74.4329 10.0204 74.1788 10.2465 73.9005C10.4418 73.6269 10.5923 73.3239 10.6922 73.0029C10.8215 72.6247 10.9473 72.2283 11.0697 71.8138C11.1923 71.4006 11.2794 71.1196 11.337 70.9749C11.3947 70.8302 11.4482 70.7557 11.5059 70.7589C11.5172 70.7604 11.5281 70.7642 11.538 70.77C11.5479 70.7758 11.5565 70.7836 11.5633 70.7927C11.5701 70.8019 11.5751 70.8124 11.5778 70.8235C11.5806 70.8346 11.581 70.8461 11.5793 70.8575C11.5788 70.8823 11.575 70.907 11.5677 70.9309Z" fill="#1A1A18"></path><path d="M14.615 73.6578C14.4442 74.0999 14.2376 74.5274 13.9974 74.936C13.883 75.1317 13.7391 75.3086 13.5706 75.4603C13.4157 75.5711 13.2445 75.657 13.0631 75.7151C12.8345 75.7974 12.6018 75.8674 12.3658 75.9248C12.1874 75.9741 12.0042 76.004 11.8194 76.0139C11.7952 76.0183 11.7703 76.0183 11.746 76.0139L11.7397 76.0014C11.7397 75.9482 11.9117 75.8151 12.2557 75.6018C12.5718 75.4052 12.8773 75.192 13.1711 74.9633C13.408 74.7762 13.6252 74.5654 13.8191 74.3341C13.9997 74.1227 14.1385 73.879 14.2281 73.6158C14.1743 73.6391 14.1189 73.6583 14.0624 73.6735C13.9935 73.6926 13.9235 73.7069 13.8527 73.7165C13.7814 73.727 13.7132 73.7343 13.6429 73.7385C13.5856 73.743 13.5279 73.7409 13.471 73.7322C13.2557 73.7231 13.0503 73.6393 12.8901 73.4952C12.816 73.4304 12.7578 73.3494 12.72 73.2585C12.6821 73.1676 12.6657 73.0692 12.6719 72.9709C12.6892 72.8476 12.718 72.7261 12.7579 72.6081C12.8396 72.383 12.9341 72.1628 13.041 71.9485C13.1635 71.6798 13.3215 71.4287 13.5108 71.202C13.5649 71.122 13.6353 71.0543 13.7173 71.0033C13.7993 70.9524 13.8912 70.9193 13.9869 70.9063C14.1099 70.9062 14.2311 70.9355 14.3405 70.9917C14.4499 71.0478 14.5444 71.1293 14.616 71.2292C14.788 71.4544 14.8924 71.7239 14.917 72.0062C14.917 72.0681 14.9233 72.1289 14.9233 72.1908C14.9233 72.281 14.9191 72.3711 14.9107 72.4613C14.8981 72.5881 14.8785 72.7141 14.852 72.8388C14.8296 72.9395 14.7946 73.0684 14.7471 73.2257C14.7177 73.3746 14.6695 73.5204 14.615 73.6578Z" fill="#1A1A18"></path><path d="M16.6052 72.537C16.5854 72.9016 16.4916 73.2584 16.3294 73.5856C16.177 73.8715 16.005 74.0148 15.8135 74.0155C15.8135 73.8603 15.8635 73.3769 15.9634 72.5653C16.0634 71.7537 16.1392 71.1731 16.191 70.8236C16.2427 70.4741 16.3011 70.1025 16.3661 69.7089C16.4311 69.3154 16.4947 68.9976 16.5569 68.7558C16.6268 68.5558 16.7013 68.3531 16.7803 68.1476C16.8593 67.942 16.9425 67.7393 17.0298 67.5394C17.054 67.5027 17.0749 67.4849 17.0907 67.4849C17.1064 67.4849 17.1316 67.5174 17.1399 67.5824C17.0372 68.2633 16.9432 68.969 16.8579 69.6995C16.7726 70.43 16.7142 70.9543 16.6828 71.2724C16.6513 71.587 16.6366 71.7726 16.6366 71.825C16.6156 72.1542 16.6052 72.3986 16.6052 72.537Z" fill="#1A1A18"></path><path d="M19.2717 74.2521C18.9123 74.4568 18.6185 74.7593 18.4244 75.1245C18.0315 75.7138 17.6219 76.0085 17.1955 76.0085C16.986 76.0144 16.7789 75.9626 16.5969 75.8586C16.4149 75.7547 16.265 75.6026 16.1636 75.4192C15.9209 74.9908 15.7998 74.5042 15.8134 74.012C15.9046 73.694 16.0207 73.3837 16.1605 73.084C16.2502 72.8628 16.4053 72.6744 16.6051 72.5439C16.589 73.5345 16.9927 74.0301 17.8162 74.0308C18.1374 74.0405 18.4502 73.9281 18.6918 73.7163C18.9393 73.5017 19.1224 73.3367 19.2413 73.2213C19.3686 73.1174 19.5259 73.0572 19.6901 73.0494C19.8009 73.2147 19.8509 73.4133 19.8316 73.6114C19.8489 73.8349 19.7997 74.0586 19.6901 74.2542L19.2717 74.2521Z" fill="#1A1A18"></path><path d="M19.6901 73.0465C19.8621 73.1187 20.0466 73.1564 20.2332 73.1576C20.3435 73.1477 20.4494 73.1094 20.5405 73.0465C20.5878 73.0076 20.6247 72.9575 20.6478 72.9007C20.6708 72.8439 20.6794 72.7823 20.6726 72.7214C20.6657 72.5998 20.6206 72.4834 20.5436 72.389C20.5136 72.3456 20.4743 72.3093 20.4287 72.2828C20.383 72.2564 20.332 72.2403 20.2794 72.2359C20.1463 72.3122 19.9965 72.3544 19.8432 72.3586C19.658 72.3499 19.4755 72.3106 19.3031 72.2422C19.2294 72.218 19.1652 72.1711 19.1198 72.1082C19.0744 72.0453 19.0501 71.9696 19.0504 71.892C19.0564 71.7502 19.0877 71.6107 19.1427 71.4799C19.213 71.2995 19.3126 71.0678 19.4436 70.7857C19.556 70.5372 19.6856 70.2968 19.8316 70.0664C19.9501 69.8787 20.0581 69.7843 20.1567 69.7843C20.4605 69.8127 20.743 69.9528 20.9494 70.1775C21.1185 70.3372 21.252 70.5308 21.3409 70.7457C21.4298 70.9606 21.4722 71.1918 21.4653 71.4243C21.465 71.675 21.434 71.9246 21.373 72.1678C21.3141 72.4529 21.2193 72.7295 21.091 72.9909C20.9194 73.3195 20.7156 73.6304 20.4828 73.9189C20.2654 74.1657 20.077 74.2887 19.9176 74.288L19.6901 74.2513C19.6069 74.0349 19.5591 73.8066 19.5485 73.575C19.5406 73.3885 19.59 73.204 19.6901 73.0465ZM21.7663 66.4404C21.779 66.4865 21.7853 66.5341 21.7851 66.5819C21.7845 66.6505 21.7743 66.7186 21.7547 66.7843C21.7126 66.922 21.6504 67.0527 21.5702 67.1723C21.4999 67.2771 21.4307 67.382 21.3605 67.4732C21.2869 67.5709 21.2044 67.6614 21.114 67.7437C21.0092 67.8539 20.9253 67.9105 20.8687 67.9126C20.8201 67.9173 20.7717 67.903 20.7334 67.8727L20.552 67.7091C20.4765 67.642 20.3979 67.5728 20.315 67.4994C20.2322 67.426 20.1525 67.3642 20.0728 67.3033C20.0088 67.2528 19.9423 67.2056 19.8736 67.1618C19.8563 67.1495 19.8431 67.1324 19.8358 67.1125C19.8358 67.0957 19.8442 67.0674 19.8736 67.0265L20.8068 65.6004C20.8393 65.5553 20.8645 65.5354 20.8813 65.5396C20.9216 65.5548 20.9605 65.5734 20.9977 65.5952C21.0753 65.6434 21.1549 65.7 21.2367 65.7514C21.318 65.8059 21.3942 65.8677 21.4643 65.936C21.5347 66.0041 21.5967 66.0805 21.6488 66.1635C21.7031 66.249 21.7428 66.3418 21.7663 66.4404Z" fill="#1A1A18"></path><path d="M26.3382 73.6578C26.1669 74.0997 25.9604 74.5272 25.7206 74.936C25.6063 75.1317 25.4623 75.3086 25.2938 75.4603C25.1388 75.5708 24.9676 75.6568 24.7863 75.7151C24.5577 75.7972 24.3249 75.8672 24.089 75.9248C23.9106 75.9741 23.7274 76.004 23.5427 76.0139C23.518 76.0183 23.4928 76.0183 23.4682 76.0139L23.4619 76.0014C23.4619 75.9479 23.6349 75.8147 23.9789 75.6018C24.2946 75.4046 24.6002 75.1915 24.8943 74.9633C25.131 74.776 25.3481 74.5652 25.5423 74.3341C25.7222 74.1224 25.8606 73.8788 25.9502 73.6158C25.8966 73.6394 25.8412 73.6587 25.7845 73.6735C25.7157 73.6926 25.6456 73.707 25.5748 73.7165C25.5035 73.727 25.4343 73.7343 25.3651 73.7385C25.3077 73.743 25.25 73.7409 25.1931 73.7322C24.9778 73.7233 24.7723 73.6395 24.6122 73.4952C24.538 73.4305 24.4796 73.3495 24.4418 73.2586C24.404 73.1677 24.3876 73.0692 24.3941 72.9709C24.4114 72.8476 24.4402 72.7261 24.4801 72.6081C24.5617 72.3832 24.6559 72.163 24.7622 71.9486C24.885 71.6797 25.0433 71.4286 25.233 71.202C25.287 71.1219 25.3573 71.0541 25.4394 71.0032C25.5214 70.9522 25.6133 70.9192 25.709 70.9063C25.8321 70.906 25.9534 70.9352 26.0628 70.9914C26.1722 71.0476 26.2667 71.1291 26.3382 71.2292C26.5106 71.4542 26.6151 71.7238 26.6391 72.0062C26.6391 72.0681 26.6454 72.1289 26.6454 72.1908C26.6454 72.281 26.6454 72.3711 26.6339 72.4613C26.6208 72.5881 26.6012 72.7141 26.5752 72.8388C26.5521 72.9437 26.5186 73.0684 26.4703 73.2257C26.4221 73.383 26.3906 73.5204 26.3382 73.6578Z" fill="#1A1A18"></path><path d="M39.7623 71.9793C39.7672 71.997 39.7694 72.0154 39.7686 72.0338C39.7648 72.105 39.7525 72.1754 39.7319 72.2436C39.6541 72.4861 39.5555 72.7215 39.4372 72.9472C39.3002 73.2202 39.1421 73.4821 38.9643 73.7305C38.7877 73.9773 38.5716 74.1935 38.3247 74.3701C37.9589 74.6248 37.5678 74.8409 37.1576 75.015C36.6644 75.2194 36.1574 75.3886 35.6403 75.5214C35.0077 75.6876 34.3639 75.8078 33.714 75.8811C33.0441 75.9614 32.3701 76.0024 31.6955 76.0038C31.1166 76.0143 30.5377 75.9834 29.9632 75.9115C29.4451 75.8705 28.9539 75.6639 28.5623 75.3222C28.4362 75.2054 28.3372 75.0623 28.2723 74.903C28.2075 74.7438 28.1783 74.5722 28.1869 74.4005C28.1869 74.2495 28.2012 74.0325 28.2299 73.7493C28.2592 73.4662 28.298 73.1841 28.3473 72.901C28.3672 72.7825 28.3861 72.6766 28.4019 72.5864C28.4113 72.5311 28.4278 72.4771 28.4511 72.426C28.4721 72.3851 28.4941 72.362 28.5193 72.3558C28.5445 72.3495 28.5675 72.3662 28.5895 72.405C28.6206 72.468 28.6425 72.5351 28.6546 72.6043C28.6703 72.7091 28.6934 72.814 28.7217 72.9188C28.757 73.0535 28.8239 73.1778 28.9169 73.2814C29.0099 73.385 29.1263 73.4649 29.2565 73.5144C30.3425 73.8861 31.4881 74.0528 32.635 74.0062C33.1635 74.0062 33.7556 73.9818 34.4113 73.9328C35.0719 73.8828 35.7279 73.785 36.3743 73.6403C36.9383 73.5231 37.4904 73.3546 38.0237 73.137C38.3547 73.0058 38.6733 72.8454 38.9759 72.6577C39.1662 72.5268 39.3361 72.3685 39.4802 72.188C39.5383 72.1022 39.6039 72.0219 39.6763 71.9478C39.6824 71.9433 39.6893 71.94 39.6968 71.9384C39.7042 71.9368 39.7119 71.9368 39.7193 71.9384C39.73 71.9395 39.74 71.9441 39.7478 71.9515C39.7556 71.9589 39.7607 71.9687 39.7623 71.9793ZM33.4655 69.0055C33.4813 69.0615 33.4894 69.1193 33.4896 69.1775C33.4893 69.2398 33.4812 69.3017 33.4655 69.362C33.4222 69.497 33.3601 69.6251 33.281 69.7427C33.2107 69.8475 33.1404 69.9524 33.0712 70.0405C32.9987 70.1331 32.9195 70.2204 32.8342 70.3016C32.793 70.3488 32.7453 70.3901 32.6927 70.4242C32.6609 70.4454 32.6253 70.46 32.5878 70.4672C32.5757 70.4714 32.5629 70.4735 32.5501 70.4735C32.5376 70.4734 32.5252 70.4713 32.5134 70.4672C32.4939 70.4596 32.4756 70.4494 32.4589 70.4368C32.3152 70.3225 32.1757 70.2051 32.0394 70.0866C31.8951 69.9685 31.7434 69.8596 31.5854 69.7605C31.5685 69.7417 31.5576 69.7184 31.5539 69.6934C31.5592 69.6686 31.57 69.6453 31.5854 69.6252L32.5186 68.1876C32.548 68.1509 32.5752 68.1341 32.6015 68.1362C32.6335 68.1398 32.6642 68.1513 32.6906 68.1698C32.7724 68.2191 32.8552 68.2746 32.9402 68.326C33.0228 68.3807 33.0997 68.4436 33.1698 68.5137C33.2387 68.5821 33.3006 68.6573 33.3544 68.7381C33.4081 68.8189 33.4459 68.9104 33.4655 69.0055ZM35.3393 68.8944C35.355 68.9503 35.3631 69.0082 35.3635 69.0663C35.3632 69.1286 35.3551 69.1906 35.3393 69.2509C35.296 69.3858 35.2339 69.514 35.1548 69.6315C35.0845 69.7364 35.0143 69.8412 34.9451 69.9304C34.872 70.0226 34.7928 70.1098 34.7081 70.1915C34.6662 70.2381 34.6187 70.2794 34.5665 70.3141C34.5345 70.3349 34.499 70.3494 34.4617 70.3571C34.4498 70.3612 34.4375 70.3633 34.425 70.3634C34.4121 70.3634 34.3994 70.3613 34.3872 70.3571C34.3677 70.3492 34.3493 70.3386 34.3327 70.3257C34.1887 70.211 34.0489 70.0943 33.9132 69.9754C33.7689 69.8577 33.6172 69.7491 33.4592 69.6504C33.4423 69.6313 33.4313 69.6075 33.4278 69.5822C33.4331 69.5578 33.4439 69.5349 33.4592 69.5151L34.3925 68.0775C34.4218 68.0408 34.4491 68.023 34.4753 68.0251C34.5072 68.0293 34.5377 68.0408 34.5644 68.0586C34.6462 68.1079 34.7301 68.1635 34.814 68.2159C34.8968 68.2699 34.9738 68.3325 35.0436 68.4026C35.1123 68.4712 35.1741 68.5463 35.2282 68.627C35.2818 68.7079 35.3195 68.7993 35.3393 68.8944Z" fill="#1A1A18"></path><path d="M41.6486 72.537C41.6288 72.9016 41.535 73.2584 41.3728 73.5856C41.2211 73.8715 41.0488 74.0148 40.8558 74.0155C40.8558 73.8603 40.9062 73.3769 41.0068 72.5653C41.1075 71.7537 41.1833 71.1731 41.2344 70.8236C41.2861 70.4741 41.3445 70.1025 41.4095 69.7089C41.4745 69.3157 41.5385 68.998 41.5993 68.7558C41.6692 68.5558 41.744 68.3531 41.8237 68.1476C41.9034 67.942 41.9862 67.7393 42.0722 67.5394C42.0974 67.5027 42.1173 67.4849 42.1341 67.4849C42.1508 67.4849 42.175 67.5174 42.1834 67.5824C42.0806 68.2633 41.9862 68.969 41.9002 69.6995C41.8142 70.43 41.7559 70.9543 41.7251 71.2724C41.6947 71.587 41.679 71.7726 41.679 71.825C41.6591 72.1542 41.6486 72.3986 41.6486 72.537Z" fill="#1A1A18"></path><path d="M44.7818 73.7533C44.8515 73.7371 44.9196 73.7146 44.9852 73.6862C45.0628 73.6527 45.1446 73.616 45.2306 73.5751C45.2577 73.5943 45.2804 73.619 45.2973 73.6475C45.3143 73.6761 45.3252 73.7078 45.3292 73.7407C45.3332 73.7713 45.3353 73.8022 45.3355 73.833C45.3356 73.8805 45.3314 73.9279 45.3229 73.9746C45.3117 74.0515 45.2952 74.1275 45.2736 74.2021C45.2555 74.2499 45.2411 74.2989 45.2306 74.3489C45.1044 74.4356 44.9719 74.5127 44.8343 74.5796C44.6788 74.6538 44.5117 74.7006 44.3404 74.718C44.1485 74.9385 43.941 75.1449 43.7196 75.3357C43.5437 75.4866 43.3545 75.6213 43.1544 75.7383C42.99 75.8317 42.8136 75.9022 42.6301 75.948C42.4705 75.9879 42.3059 76.0045 42.1415 75.9973C41.9152 75.9934 41.6957 75.9202 41.5123 75.7876C41.3459 75.6622 41.2104 75.5004 41.1159 75.3147C41.0148 75.1167 40.9441 74.9046 40.9062 74.6855C40.8655 74.4571 40.8447 74.2255 40.8444 73.9935C40.9455 73.6821 41.0732 73.3801 41.226 73.0906C41.3335 72.8843 41.4721 72.6957 41.6371 72.5317C41.636 72.7341 41.6493 72.9363 41.6769 73.1368C41.6976 73.3013 41.7511 73.4599 41.8342 73.6034C41.9093 73.7308 42.0182 73.835 42.1488 73.9043C42.3099 73.9828 42.4866 74.024 42.6658 74.0249C42.7779 73.7264 42.906 73.4341 43.0495 73.1493C43.2089 72.8412 43.4016 72.5514 43.6242 72.2853C43.7207 72.1728 43.8373 72.0792 43.9681 72.0095C44.0896 71.939 44.2272 71.9007 44.3676 71.8984C44.4971 71.8978 44.6228 71.9423 44.7231 72.0242C44.8444 72.1361 44.9211 72.288 44.9391 72.452C44.9553 72.5494 44.9634 72.648 44.9632 72.7467C44.9624 72.864 44.9523 72.9812 44.9328 73.0969C44.8949 73.3152 44.8352 73.5291 44.7546 73.7355L44.7818 73.7533ZM44.1432 68.1622C44.1598 68.2181 44.1683 68.276 44.1684 68.3342C44.1683 68.3966 44.1598 68.4586 44.1432 68.5188C44.1004 68.6539 44.0383 68.7821 43.9587 68.8994C43.8895 69.0043 43.8192 69.1091 43.749 69.1972C43.6771 69.2901 43.5982 69.3774 43.513 69.4583C43.4718 69.5056 43.4241 69.5469 43.3715 69.581C43.34 69.6027 43.3042 69.6173 43.2666 69.624C43.2429 69.6324 43.217 69.6324 43.1932 69.624C43.1732 69.6168 43.1545 69.6065 43.1376 69.5936C42.994 69.4793 42.8556 69.3618 42.7182 69.2433C42.5737 69.1252 42.4217 69.0166 42.2631 68.9183C42.247 68.8987 42.2365 68.8752 42.2327 68.8501C42.2378 68.8258 42.2482 68.8029 42.2631 68.783L43.1974 67.3454C43.2257 67.3087 43.253 67.2909 43.2802 67.293C43.3121 67.2972 43.3426 67.3086 43.3694 67.3265C43.4512 67.3758 43.534 67.4314 43.6179 67.4828C43.7839 67.5906 43.9266 67.7307 44.0373 67.8948C44.0894 67.9764 44.1254 68.0671 44.1432 68.1622ZM44.6161 73.336C44.6055 73.252 44.5763 73.1714 44.5306 73.1001C44.4849 73.0288 44.4238 72.9686 44.3519 72.9239C44.2657 72.8757 44.1686 72.8505 44.0698 72.8505C44.0242 72.8507 43.9787 72.8567 43.9346 72.8683C43.7785 72.9057 43.6359 72.9855 43.5225 73.099C43.3966 73.2178 43.3127 73.3741 43.2834 73.5447C43.4055 73.6585 43.5563 73.7372 43.7196 73.7722C43.7805 73.7835 43.8422 73.7895 43.9042 73.79C43.9919 73.7903 44.0791 73.7757 44.1621 73.747C44.2058 73.7383 44.2468 73.7192 44.2816 73.6915C44.3296 73.6584 44.3748 73.6216 44.4169 73.5814C44.4595 73.5409 44.4994 73.4979 44.5365 73.4524C44.5672 73.4166 44.5939 73.3776 44.6161 73.336ZM46.0171 68.0511C46.0336 68.1073 46.0421 68.1655 46.0422 68.2241C46.0421 68.2861 46.0337 68.3478 46.0171 68.4076C45.9745 68.5431 45.9123 68.6717 45.8325 68.7893C45.7633 68.8942 45.6931 68.999 45.6228 69.0871C45.5509 69.18 45.472 69.2673 45.3869 69.3482C45.3456 69.3955 45.298 69.4367 45.2453 69.4709C45.2134 69.4917 45.1778 69.5063 45.1404 69.5139C45.1287 69.5181 45.1163 69.5203 45.1037 69.5202C45.0912 69.5201 45.0788 69.518 45.067 69.5139C45.0474 69.5059 45.0288 69.4957 45.0115 69.4835C44.8717 69.3681 44.7318 69.2514 44.592 69.1332C44.4476 69.0148 44.2955 68.9058 44.1369 68.8071C44.1208 68.788 44.1103 68.7648 44.1065 68.74C44.1118 68.7154 44.1222 68.6922 44.1369 68.6719L45.0712 67.2342C45.0995 67.1975 45.1279 67.1797 45.1541 67.1818C45.1861 67.186 45.2167 67.1978 45.2432 67.2164C45.325 67.2646 45.4078 67.3213 45.4917 67.3726C45.5749 67.427 45.6522 67.4899 45.7224 67.5603C45.7913 67.6288 45.8531 67.7039 45.907 67.7847C45.9628 67.865 46.002 67.9555 46.0223 68.0511H46.0171Z" fill="#1A1A18"></path><path d="M45.0786 79.2956C45.0945 79.3494 45.1027 79.4051 45.1027 79.4612C45.1021 79.526 45.0918 79.5903 45.0723 79.6521C45.0337 79.7877 44.9735 79.9162 44.8941 80.0327C44.8249 80.1376 44.7536 80.2424 44.6844 80.3305C44.6118 80.4232 44.5326 80.5105 44.4474 80.5916C44.406 80.6391 44.3584 80.6808 44.3058 80.7154C44.2734 80.7359 44.238 80.7515 44.201 80.7615C44.1769 80.768 44.1516 80.768 44.1276 80.7615C44.1076 80.7538 44.0889 80.7432 44.072 80.73C43.928 80.6161 43.7864 80.5014 43.6473 80.3861C43.5073 80.2637 43.3575 80.1529 43.1996 80.0547C43.1837 80.0373 43.1729 80.0159 43.1681 79.9929C43.1723 79.9662 43.1831 79.9409 43.1996 79.9195L44.1349 78.4808C44.1643 78.4441 44.1915 78.4263 44.2177 78.4284C44.2496 78.4326 44.2801 78.4441 44.3069 78.4619C44.3897 78.5112 44.4725 78.5668 44.5564 78.6192C44.6393 78.6733 44.7162 78.7358 44.7861 78.8059C44.8548 78.8745 44.9166 78.9496 44.9706 79.0303C45.0232 79.111 45.0598 79.2011 45.0786 79.2956ZM46.9525 79.1855C46.9685 79.2435 46.9767 79.3035 46.9766 79.3637C46.976 79.4239 46.9678 79.4838 46.9525 79.542C46.9096 79.6771 46.8475 79.8053 46.7679 79.9226C46.6987 80.0275 46.6274 80.1323 46.5582 80.2204C46.4859 80.3134 46.4067 80.4006 46.3212 80.4815C46.2805 80.529 46.2332 80.5703 46.1807 80.6042C46.1484 80.625 46.113 80.6406 46.0758 80.6504C46.052 80.6579 46.0263 80.6579 46.0024 80.6504C45.9826 80.6428 45.9639 80.6325 45.9469 80.6199C45.8032 80.5056 45.6637 80.3903 45.5274 80.276C45.3844 80.1542 45.2327 80.0431 45.0734 79.9436C45.0578 79.9265 45.0473 79.9055 45.043 79.8828C45.0466 79.8558 45.057 79.8301 45.0734 79.8083L46.0066 78.3707C46.036 78.334 46.0633 78.3172 46.0905 78.3193C46.1225 78.3232 46.153 78.3347 46.1796 78.3529C46.2614 78.4022 46.3443 78.4577 46.4282 78.5091C46.5109 78.5641 46.5882 78.627 46.6589 78.6968C46.7275 78.7652 46.789 78.8404 46.8424 78.9212C46.8952 79.0016 46.9332 79.0913 46.9525 79.1855ZM46.4177 73.5021C46.2163 73.5269 46.0303 73.6229 45.8934 73.7726L45.2296 74.3494C45.186 74.2243 45.1582 74.0944 45.1468 73.9624C45.1381 73.8283 45.1668 73.6944 45.2296 73.5755C45.3433 73.5081 45.4488 73.4279 45.5442 73.3364C45.6176 73.2704 45.6983 73.1949 45.7843 73.1089L45.8756 73.0166C45.9339 73.0255 45.9917 73.0377 46.0486 73.0533C46.109 73.0673 46.1656 73.0945 46.2142 73.133C46.2739 73.199 46.3234 73.2736 46.361 73.3542L46.4177 73.5021Z" fill="#1A1A18"></path><path d="M47.0553 73.6868C46.9516 73.6696 46.8518 73.6341 46.7606 73.5819C46.6563 73.5281 46.5404 73.5007 46.423 73.5022C46.2926 73.4521 46.1695 73.3848 46.057 73.3019C45.9609 73.2321 45.8958 73.1275 45.8756 73.0104L46.295 72.4757C46.3269 72.4299 46.369 72.3923 46.4179 72.3657C46.4669 72.3391 46.5214 72.3243 46.5771 72.3226C46.6021 72.3226 46.627 72.3247 46.6516 72.3288C46.783 72.3659 46.9529 72.4117 47.1612 72.4662C47.3372 72.5171 47.5191 72.5453 47.7023 72.5501C47.8375 72.5207 47.9046 72.4777 47.9046 72.4211C47.8473 72.3486 47.813 72.2606 47.8061 72.1684C47.8061 72.148 47.8082 72.1276 47.8124 72.1076C47.8619 71.9435 47.9236 71.7833 47.9969 71.6284C48.0972 71.3968 48.2143 71.1729 48.3471 70.9583C48.4712 70.7508 48.6114 70.5534 48.7666 70.368C48.8398 70.2565 48.9356 70.1615 49.0477 70.0893C49.1599 70.0171 49.2859 69.9691 49.4178 69.9485C49.5114 69.9479 49.6038 69.9706 49.6865 70.0145C49.7692 70.0585 49.8398 70.1223 49.8917 70.2002C50.0226 70.3777 50.0895 70.5943 50.0815 70.8147C50.0816 70.893 50.0757 70.9712 50.0637 71.0485C50.0319 71.1903 49.9927 71.3303 49.9462 71.468L49.8361 71.7825C50.0638 71.7603 50.2839 71.6888 50.481 71.5728C50.5008 71.635 50.5276 71.6948 50.5607 71.7511C50.5829 71.7926 50.5937 71.8393 50.5922 71.8863C50.5909 71.947 50.5803 72.0071 50.5607 72.0646C50.5198 72.1999 50.4936 72.2932 50.481 72.3467C50.3558 72.4719 50.2077 72.5719 50.0448 72.6413C49.9272 72.6936 49.8036 72.7309 49.6768 72.7525C49.5671 72.7725 49.4558 72.7826 49.3443 72.7829C49.3035 72.7829 49.1975 72.7766 49.0245 72.7651C48.9543 72.764 48.8842 72.7577 48.8148 72.7462H48.8274C48.6233 72.7526 48.4252 72.8165 48.2559 72.9307C48.2475 72.9433 48.0962 73.0622 47.8019 73.2873L47.4454 73.5756C47.3887 73.6267 47.3177 73.659 47.2419 73.6679C47.1808 73.6822 47.118 73.6886 47.0553 73.6868ZM49.0098 65.4962C49.0256 65.5522 49.0337 65.6101 49.034 65.6682C49.0337 65.7305 49.0256 65.7925 49.0098 65.8527C48.967 65.9879 48.9049 66.1161 48.8253 66.2334C48.7561 66.3382 48.6848 66.4431 48.6156 66.5312C48.543 66.6239 48.4638 66.7111 48.3786 66.7923C48.3373 66.8398 48.2896 66.8814 48.237 66.916C48.2051 66.9367 48.1695 66.9513 48.1322 66.959C48.1202 66.9622 48.1079 66.964 48.0955 66.9643C48.0831 66.9641 48.0707 66.9624 48.0588 66.959C48.0388 66.9513 48.0201 66.9407 48.0032 66.9276C47.8592 66.8136 47.7194 66.6969 47.5838 66.5773C47.4398 66.459 47.2881 66.3504 47.1297 66.2523C47.1129 66.233 47.102 66.2094 47.0983 66.1841C47.1037 66.1597 47.1144 66.1368 47.1297 66.117L48.063 64.6794C48.0923 64.6427 48.1196 64.6248 48.1458 64.6269C48.1777 64.6311 48.2082 64.6426 48.2349 64.6605C48.3178 64.7098 48.4006 64.7654 48.4845 64.8178C48.5674 64.8718 48.6443 64.9344 48.7141 65.0044C48.7828 65.073 48.8447 65.1482 48.8987 65.2288C48.9526 65.31 48.9903 65.4008 49.0098 65.4962ZM49.6484 71.4438C49.6439 71.3084 49.5941 71.1784 49.5069 71.0747C49.4611 71.0202 49.4037 70.9765 49.339 70.9468C49.2743 70.917 49.2038 70.902 49.1325 70.9028C49.0213 70.901 48.9113 70.927 48.8126 70.9785C48.7139 71.0299 48.6296 71.1052 48.5673 71.1974C48.4979 71.2941 48.4421 71.4 48.4017 71.512C48.4017 71.5854 48.4625 71.6598 48.5852 71.7332C48.7108 71.8124 48.8561 71.8549 49.0046 71.8559C49.1628 71.8521 49.3147 71.7936 49.4345 71.6903C49.5771 71.5969 49.6484 71.513 49.6484 71.4438ZM50.8837 65.3861C50.8995 65.4421 50.9076 65.4999 50.9078 65.5581C50.9075 65.62 50.8994 65.6817 50.8837 65.7416C50.8411 65.8771 50.7789 66.0057 50.6991 66.1233C50.6299 66.2281 50.5586 66.333 50.4894 66.4211C50.4172 66.514 50.3379 66.6013 50.2524 66.6822C50.2117 66.7296 50.1644 66.771 50.1119 66.8049C50.0799 66.8254 50.0443 66.84 50.0071 66.8479C49.9953 66.852 49.9829 66.8541 49.9704 66.8542C49.9578 66.8543 49.9454 66.8521 49.9337 66.8479C49.9141 66.8399 49.8954 66.8296 49.8781 66.8174C49.7341 66.7021 49.5943 66.5854 49.4586 66.4672C49.3147 66.3485 49.1631 66.2396 49.0046 66.1411C48.9881 66.1222 48.9775 66.0989 48.9742 66.074C48.9789 66.0492 48.9894 66.0259 49.0046 66.0058L49.9379 64.5682C49.9672 64.5315 49.9945 64.5137 50.0217 64.5158C50.0537 64.5203 50.0842 64.5322 50.1109 64.5504C50.1927 64.5997 50.2755 64.6553 50.3594 64.7066C50.4424 64.7613 50.5197 64.8242 50.5901 64.8943C50.6589 64.9625 50.7204 65.0377 50.7736 65.1187C50.8271 65.2 50.8645 65.2907 50.8837 65.3861Z" fill="#1A1A18"></path><path d="M50.4779 71.573C51.0725 71.1797 51.6153 70.7133 52.0937 70.1847C51.9176 70.2004 51.7121 70.2088 51.4793 70.2088C51.1647 70.2088 50.804 70.1941 50.3856 70.1658C50.2587 70.1574 50.1958 70.1029 50.1958 70.0002C50.1963 69.9666 50.2023 69.9333 50.2136 69.9016C50.2512 69.8035 50.3009 69.7105 50.3615 69.6248C50.4433 69.494 50.5481 69.3385 50.6761 69.1581C50.7002 69.134 50.7662 69.0596 50.8721 68.9369C50.9441 68.8514 51.0246 68.7734 51.1123 68.7041C51.1562 68.7841 51.185 68.8716 51.1972 68.9621C51.2047 69.0734 51.1748 69.1842 51.1123 69.2766C51.0763 69.2966 51.0431 69.3213 51.0137 69.35C50.9823 69.384 50.9574 69.4235 50.9403 69.4664C50.9403 69.5031 50.9864 69.5241 51.0808 69.5283C51.1752 69.5325 51.2905 69.5283 51.4436 69.5283C51.5967 69.5283 51.8264 69.5178 52.1619 69.4968C52.3968 69.4879 52.6308 69.4633 52.8624 69.4234C52.9891 69.4011 53.1141 69.3703 53.2367 69.3312C53.2425 69.3278 53.2489 69.3256 53.2556 69.3249C53.2724 69.3249 53.2839 69.3395 53.2923 69.3679C53.3053 69.4118 53.3117 69.4573 53.3112 69.5031C53.2949 69.73 53.2017 69.9446 53.0469 70.1113C52.8633 70.2335 52.6925 70.374 52.5373 70.5307C52.4062 70.6702 52.2437 70.8275 52.0518 71.0037C51.8599 71.1798 51.6324 71.3812 51.366 71.6087C51.0997 71.8362 50.8071 72.0827 50.4789 72.349C50.3885 72.2186 50.3372 72.0651 50.3311 71.9065C50.3273 71.8432 50.3386 71.78 50.3641 71.722C50.3897 71.664 50.4286 71.613 50.4779 71.573Z" fill="#1A1A18"></path><path d="M51.1165 69.2751C51.0807 69.1866 51.0581 69.0933 51.0494 68.9982C51.0455 68.98 51.0433 68.9613 51.0431 68.9427C51.0426 68.8554 51.0681 68.77 51.1165 68.6973C51.2717 68.533 51.5328 68.2953 51.8998 67.9843C52.3064 67.6442 52.7379 67.3351 53.1906 67.0594C53.6562 66.7691 54.1391 66.5075 54.6366 66.2761C55.0861 66.0747 55.5144 65.8288 55.9149 65.5421C55.9377 65.5183 55.9681 65.5031 56.0008 65.4991C56.0042 65.4988 56.0077 65.4992 56.0109 65.5003C56.0142 65.5014 56.0172 65.5031 56.0197 65.5054C56.0257 65.5093 56.0305 65.5148 56.0337 65.5213C56.0368 65.5277 56.0382 65.5349 56.0375 65.5421C56.0363 65.559 56.0324 65.5756 56.026 65.5914C55.9149 65.7916 55.7964 65.9898 55.6695 66.1838C55.532 66.3922 55.3799 66.5905 55.2144 66.7773C55.1048 66.9054 54.9765 67.016 54.8338 67.1055C54.703 67.1852 54.5248 67.2845 54.299 67.4033C53.7013 67.699 53.0889 68.0094 52.4618 68.3345C51.9625 68.5681 51.5074 68.8863 51.1165 69.2751ZM54.6188 61.3488C54.6345 61.4047 54.6426 61.4626 54.6429 61.5207C54.6426 61.583 54.6345 61.645 54.6188 61.7053C54.576 61.8404 54.5138 61.9686 54.4342 62.0859C54.365 62.1908 54.2937 62.2956 54.2245 62.3837C54.1523 62.4767 54.0731 62.5639 53.9875 62.6448C53.9469 62.6923 53.8995 62.7336 53.847 62.7675C53.8155 62.789 53.7797 62.8037 53.7422 62.8105C53.7304 62.8146 53.718 62.8168 53.7055 62.8168C53.693 62.8169 53.6805 62.8148 53.6688 62.8105C53.6488 62.8033 53.63 62.7931 53.6132 62.7801C53.4695 62.6658 53.3301 62.5484 53.1938 62.4299C53.0498 62.3115 52.8981 62.2029 52.7397 62.1048C52.7231 62.0855 52.7126 62.0618 52.7093 62.0366C52.7139 62.0122 52.7244 61.9892 52.7397 61.9695L53.674 60.5319C53.7023 60.4942 53.7296 60.4774 53.7569 60.4795C53.7887 60.4837 53.8192 60.4952 53.846 60.513C53.9278 60.5623 54.0106 60.6179 54.0945 60.6693C54.1773 60.7243 54.2545 60.7871 54.3252 60.857C54.3935 60.9256 54.455 61.0008 54.5087 61.0814C54.563 61.1624 54.6011 61.2532 54.6209 61.3488H54.6188ZM56.4926 61.2376C56.5089 61.2938 56.517 61.3521 56.5167 61.4106C56.517 61.4726 56.5089 61.5343 56.4926 61.5941C56.4498 61.7296 56.3876 61.8581 56.3081 61.9758C56.2389 62.0807 56.1676 62.1855 56.0984 62.2736C56.0261 62.3666 55.9469 62.4538 55.8614 62.5347C55.8204 62.5819 55.7731 62.6232 55.7209 62.6574C55.6888 62.678 55.6533 62.6925 55.616 62.7004C55.6042 62.7045 55.5918 62.7067 55.5793 62.7067C55.5668 62.7068 55.5544 62.7047 55.5426 62.7004C55.523 62.6924 55.5043 62.6822 55.487 62.67C55.343 62.5546 55.2032 62.4379 55.0676 62.3198C54.9231 62.2013 54.7711 62.0924 54.6125 61.9936C54.596 61.9747 54.5854 61.9514 54.5821 61.9265C54.5867 61.9017 54.5971 61.8784 54.6125 61.8584L55.5468 60.4208C55.5751 60.3841 55.6024 60.3662 55.6296 60.3683C55.6616 60.3728 55.6921 60.3847 55.7188 60.4029C55.8006 60.4512 55.8834 60.5078 55.9673 60.5592C56.0503 60.6138 56.1276 60.6767 56.198 60.7469C56.2668 60.815 56.3283 60.8903 56.3815 60.9713C56.4352 61.0521 56.4729 61.1425 56.4926 61.2376Z" fill="#1A1A18"></path><path d="M62.2251 73.2186C61.8168 73.302 61.419 73.4307 61.0392 73.6024C60.8075 73.7044 60.5853 73.8269 60.3754 73.9684C60.1562 74.1194 59.9553 74.2954 59.7767 74.4927C59.6356 74.6495 59.5109 74.8202 59.4044 75.0023C59.2346 75.3163 59.1066 75.6512 59.0238 75.9985C58.9119 76.456 58.8417 76.9228 58.8141 77.3931C58.7029 78.6954 58.633 79.9537 58.6044 81.168C58.5757 82.3823 58.5561 83.6056 58.5456 84.8381C58.5373 84.9576 58.5163 85.0101 58.4806 84.9985C58.445 84.987 58.4209 84.9199 58.4041 84.8014C58.3873 84.6829 58.3695 84.4868 58.337 84.1932C58.3045 83.8996 58.272 83.5305 58.2415 83.1027C58.2111 82.6748 58.1849 82.2082 58.165 81.7049C58.1451 81.2016 58.1335 80.6972 58.1335 80.1939C58.147 79.2809 58.2065 78.3693 58.3118 77.4623C58.4321 76.4896 58.6821 75.5374 59.0553 74.6311C59.2068 74.2821 59.3986 73.952 59.6267 73.6475C59.876 73.3166 60.1684 73.0204 60.496 72.7667C60.8526 72.4896 61.2417 72.2572 61.6547 72.0746L62.1947 71.0732C62.2545 70.9199 62.3443 70.7802 62.459 70.6622C62.5098 70.635 62.5671 70.6223 62.6247 70.6255C62.6742 70.6255 62.7236 70.6293 62.7725 70.637C63.0999 70.6949 63.4202 70.7877 63.7278 70.9138C63.8193 70.9461 63.9012 71.0007 63.9662 71.0726C64.0312 71.1446 64.0772 71.2317 64.1 71.3259C64.1005 71.4531 64.0807 71.5794 64.0413 71.7003C63.9875 71.8533 63.9227 72.0023 63.8473 72.1459C63.7599 72.3184 63.6545 72.4812 63.5327 72.6314C63.4294 72.7643 63.3021 72.8767 63.1573 72.9628C62.9948 73.0486 62.8196 73.1077 62.6383 73.1379C62.5764 73.1463 62.5041 73.1589 62.4202 73.1746L62.2251 73.2186Z" fill="#1A1A18"></path><path d="M67.3308 73.6578C67.16 74.0999 66.9534 74.5274 66.7132 74.936C66.5989 75.1317 66.4549 75.3086 66.2864 75.4603C66.1315 75.5711 65.9603 75.657 65.7789 75.7151C65.5503 75.7974 65.3176 75.8674 65.0816 75.9248C64.9032 75.9741 64.72 76.004 64.5353 76.0139C64.511 76.0183 64.4861 76.0183 64.4619 76.0139L64.4556 76.0014C64.4556 75.9482 64.6275 75.8151 64.9715 75.6018C65.2872 75.4046 65.5928 75.1915 65.8869 74.9633C66.1236 74.776 66.3407 74.5652 66.5349 74.3341C66.7155 74.1227 66.8543 73.879 66.9439 73.6158C66.8901 73.6391 66.8348 73.6583 66.7782 73.6735C66.7094 73.6926 66.6393 73.7069 66.5685 73.7165C66.4972 73.727 66.428 73.7343 66.3588 73.7385C66.3014 73.743 66.2437 73.7409 66.1868 73.7322C65.9715 73.7231 65.7661 73.6393 65.6059 73.4952C65.5318 73.4304 65.4736 73.3494 65.4358 73.2585C65.398 73.1676 65.3815 73.0692 65.3878 72.9709C65.405 72.8476 65.4338 72.7261 65.4737 72.6081C65.5554 72.383 65.6499 72.1628 65.7569 71.9485C65.879 71.6796 66.037 71.4284 66.2266 71.202C66.2806 71.1219 66.351 71.0541 66.433 71.0032C66.5151 70.9522 66.607 70.9192 66.7027 70.9062C66.8257 70.9063 66.9469 70.9356 67.0563 70.9918C67.1657 71.0479 67.2601 71.1293 67.3318 71.2292C67.5034 71.4547 67.6077 71.724 67.6328 72.0062C67.6328 72.0681 67.6391 72.1289 67.6391 72.1908C67.6391 72.281 67.6349 72.3711 67.6265 72.4613C67.6139 72.5881 67.5943 72.7141 67.5678 72.8388C67.5458 72.9437 67.5112 73.0684 67.4629 73.2257C67.4147 73.383 67.3843 73.5204 67.3308 73.6578Z" fill="#1A1A18"></path><path d="M66.9742 73.4653C66.9531 73.3991 66.9387 73.3309 66.9312 73.2618C66.9229 73.1884 66.9124 73.1129 66.9008 73.0343C66.8888 72.9967 66.8824 72.9574 66.882 72.9179C66.882 72.8542 66.9014 72.7921 66.9375 72.7397C66.9757 72.6563 67.0324 72.5828 67.1032 72.5247L67.5185 72.1891C67.9248 71.8236 68.1972 71.3327 68.2923 70.7945C68.3374 70.5974 68.372 70.4055 68.3972 70.2167C68.4223 70.028 68.4559 69.6924 68.502 69.2027C68.5482 68.7131 68.5922 68.2978 68.6499 67.9623C68.6971 67.6593 68.7838 67.3639 68.9078 67.0835L69.4489 65.7812C69.4563 65.777 69.4646 65.7749 69.473 65.7749C69.5055 65.7749 69.5223 65.8137 69.5223 65.8913C69.5139 65.9406 69.4835 66.0895 69.43 66.3401C69.3766 66.5907 69.3147 67.0406 69.2423 67.6917C69.17 68.3429 69.1312 68.8798 69.1228 69.3013L68.9749 71.1196C68.9592 71.2098 68.9341 71.3408 68.9015 71.5128C68.824 71.7791 68.7173 71.9123 68.5817 71.9123C68.4842 72.0843 68.437 72.1703 68.4412 72.1703C68.3056 72.359 68.156 72.5495 67.9924 72.7417C67.8433 72.9177 67.6833 73.0841 67.5132 73.2398C67.3947 73.3447 67.2406 73.4716 67.0518 73.6268L66.9742 73.4653Z" fill="#1A1A18"></path><path d="M73.1243 69.6619C73.0544 69.8171 72.9582 70.0034 72.8359 70.2208C72.6151 70.6199 72.3699 71.0051 72.1019 71.3742C71.8671 71.7613 71.5416 72.0855 71.1536 72.3188C70.7656 72.552 70.3267 72.6874 69.8747 72.7133C69.6306 72.7277 69.3871 72.6753 69.1706 72.5617C68.954 72.4481 68.7725 72.2775 68.6457 72.0684C68.4185 71.6554 68.3097 71.1877 68.3312 70.7168C68.3513 70.5711 68.3789 70.4265 68.414 70.2837C68.4519 70.1243 68.5045 69.9688 68.5713 69.8192C68.6302 69.6818 68.7086 69.5536 68.8041 69.4385C68.8847 69.3379 68.9977 69.2682 69.1239 69.2414C69.1071 69.6075 69.1635 69.9732 69.2896 70.3172C69.3288 70.4011 69.3843 70.4762 69.4529 70.5384C69.5215 70.6005 69.6018 70.6483 69.6891 70.679C69.8294 70.7376 69.9796 70.769 70.1316 70.7713C70.1625 70.7714 70.1933 70.7693 70.2239 70.765C70.3833 70.3456 70.5552 69.9237 70.7398 69.4993C70.8958 69.1083 71.1077 68.7421 71.3689 68.412C71.4788 68.2606 71.6216 68.1362 71.7865 68.0479C71.9514 67.9596 72.1342 67.9099 72.321 67.9023C72.3477 67.9025 72.3744 67.9046 72.4007 67.9086C72.5474 67.9057 72.6921 67.9419 72.8202 68.0135C72.8725 68.0392 72.9175 68.0779 72.9509 68.1257C72.9843 68.1736 73.0049 68.2291 73.011 68.2872C73.0178 68.4016 72.9803 68.5143 72.9062 68.6018C72.8878 68.6302 72.8622 68.6532 72.8319 68.6683C72.8017 68.6834 72.7679 68.6901 72.7342 68.6877C72.7216 68.6877 72.6482 68.6731 72.5129 68.6447C72.3852 68.6215 72.2558 68.6093 72.126 68.608C71.9783 68.6119 71.8334 68.6487 71.7017 68.7156C71.57 68.7825 71.4549 68.878 71.3647 68.995C71.2175 69.1952 71.1244 69.4299 71.0942 69.6766C71.0899 69.7071 71.0878 69.738 71.0879 69.7688C71.0851 69.8442 71.0971 69.9194 71.1234 69.9901C71.1497 70.0608 71.1896 70.1257 71.241 70.1809C71.3106 70.247 71.3931 70.298 71.4833 70.3307C71.5735 70.3634 71.6695 70.377 71.7653 70.3707C71.9174 70.3621 72.066 70.3216 72.2015 70.2518C72.337 70.1821 72.4563 70.0847 72.5517 69.966C72.711 69.7803 72.8531 69.5806 72.9764 69.3693C73.1316 69.1198 73.2256 68.995 73.2585 68.995L73.2711 69.0013C73.3036 69.0138 73.3204 69.0464 73.3204 69.0998C73.3146 69.182 73.2958 69.2627 73.2648 69.3389C73.2236 69.4489 73.1767 69.5567 73.1243 69.6619Z" fill="#1A1A18"></path><path d="M86.5494 71.9793C86.5543 71.997 86.5565 72.0154 86.5557 72.0338C86.5514 72.1049 86.5391 72.1753 86.519 72.2436C86.4408 72.4861 86.3418 72.7215 86.2233 72.9472C86.0867 73.2204 85.9285 73.4823 85.7504 73.7305C85.5738 73.9771 85.3581 74.1931 85.1118 74.3701C84.746 74.6248 84.3549 74.8409 83.9447 75.015C83.4511 75.2193 82.9437 75.3886 82.4263 75.5214C81.7938 75.6878 81.15 75.808 80.5001 75.8811C79.8305 75.9614 79.1569 76.0024 78.4826 76.0038C77.9033 76.0142 77.3241 75.9834 76.7492 75.9115C76.2312 75.8703 75.7401 75.6637 75.3483 75.3222C75.2226 75.2051 75.1239 75.062 75.0592 74.9027C74.9946 74.7435 74.9655 74.5721 74.974 74.4005C74.974 74.2495 74.9883 74.0325 75.017 73.7493C75.0453 73.4662 75.0841 73.1841 75.1334 72.901C75.1543 72.7825 75.1722 72.6766 75.1889 72.5864C75.1979 72.5309 75.2144 72.4769 75.2382 72.426C75.2438 72.4102 75.2527 72.3958 75.2642 72.3837C75.2758 72.3716 75.2898 72.3621 75.3053 72.3558C75.3305 72.3495 75.3536 72.3662 75.3766 72.405C75.4072 72.4681 75.4288 72.5352 75.4406 72.6043C75.4574 72.7091 75.4794 72.814 75.5088 72.9188C75.5438 73.0535 75.6105 73.1778 75.7034 73.2814C75.7962 73.385 75.9125 73.4649 76.0425 73.5144C77.1289 73.886 78.2749 74.0527 79.4221 74.0062C79.9506 74.0062 80.5427 73.9818 81.1984 73.9328C81.8589 73.8828 82.515 73.785 83.1614 73.6403C83.7254 73.5231 84.2775 73.3546 84.8108 73.137C85.1417 73.0056 85.4603 72.8452 85.7629 72.6577C85.9531 72.5271 86.1228 72.3687 86.2663 72.188C86.3245 72.1021 86.3905 72.0217 86.4634 71.9478C86.4694 71.9432 86.4764 71.9399 86.4838 71.9383C86.4913 71.9367 86.499 71.9367 86.5064 71.9384C86.517 71.9396 86.527 71.9443 86.5347 71.9517C86.5425 71.959 86.5476 71.9687 86.5494 71.9793ZM80.2515 69.0055C80.2682 69.0613 80.2767 69.1192 80.2767 69.1775C80.2765 69.2398 80.2681 69.3019 80.2515 69.362C80.2087 69.4971 80.1466 69.6254 80.067 69.7427C79.9978 69.8475 79.9275 69.9524 79.8573 70.0405C79.7847 70.1335 79.7051 70.2207 79.6192 70.3016C79.578 70.3488 79.5303 70.3901 79.4777 70.4242C79.446 70.4455 79.4103 70.4601 79.3728 70.4672C79.3611 70.4715 79.3486 70.4736 79.3361 70.4735C79.3236 70.4735 79.3112 70.4714 79.2994 70.4672C79.2796 70.4596 79.2609 70.4494 79.2438 70.4368C79.1012 70.3225 78.9618 70.2051 78.8244 70.0866C78.6797 69.9685 78.5277 69.8596 78.3693 69.7605C78.3531 69.7414 78.3425 69.7182 78.3389 69.6934C78.3442 69.6688 78.3545 69.6456 78.3693 69.6252L79.3036 68.1876C79.3319 68.1509 79.3602 68.1341 79.3865 68.1362C79.4185 68.14 79.4491 68.1515 79.4756 68.1698C79.5574 68.2191 79.6402 68.2746 79.7241 68.326C79.8901 68.4338 80.0328 68.574 80.1435 68.7381C80.1963 68.8192 80.2329 68.9106 80.2515 69.0055ZM82.1254 68.8944C82.1419 68.9502 82.1503 69.0081 82.1505 69.0663C82.1504 69.1287 82.142 69.1908 82.1254 69.2509C82.083 69.3862 82.0208 69.5144 81.9408 69.6315C81.8716 69.7364 81.8014 69.8412 81.7311 69.9304C81.6587 70.0228 81.5798 70.1101 81.4952 70.1915C81.4533 70.2381 81.4058 70.2794 81.3536 70.3141C81.3217 70.3349 81.2861 70.3495 81.2488 70.3571C81.237 70.3614 81.2246 70.3635 81.212 70.3634C81.1996 70.3633 81.1872 70.3612 81.1753 70.3571C81.1556 70.349 81.1369 70.3384 81.1198 70.3257C80.98 70.211 80.8401 70.0943 80.7003 69.9754C80.5558 69.8574 80.4038 69.7489 80.2452 69.6504C80.2289 69.631 80.2184 69.6073 80.2148 69.5822C80.2202 69.558 80.2305 69.5351 80.2452 69.5151L81.1795 68.0775C81.2079 68.0408 81.2362 68.023 81.2624 68.0251C81.2943 68.0293 81.3248 68.0408 81.3515 68.0586C81.4333 68.1076 81.5161 68.16 81.6 68.2159C81.6832 68.2699 81.7605 68.3325 81.8307 68.4026C81.8991 68.4714 81.9609 68.5466 82.0153 68.627C82.069 68.7077 82.1064 68.7992 82.1254 68.8944Z" fill="#1A1A18"></path><path d="M89.4245 70.9309C89.2484 72.0123 89.0897 72.819 88.9485 73.351C88.845 73.7648 88.7168 74.172 88.5647 74.5705C88.4775 74.8052 88.3497 75.0228 88.1872 75.2133C87.9689 75.4068 87.7109 75.55 87.4312 75.6327C87.1315 75.7459 86.8246 75.8391 86.5126 75.9117C86.3604 75.9484 86.2064 75.9774 86.0512 75.9987C86.0091 76.0013 85.9675 75.9878 85.9348 75.9609C85.9326 75.9586 85.9309 75.9558 85.9298 75.9527C85.9287 75.9496 85.9283 75.9464 85.9285 75.9431C85.9351 75.9024 85.9521 75.8642 85.9778 75.832C86.121 75.6596 86.2864 75.5069 86.4696 75.3779C86.715 75.185 87.0069 74.9452 87.3452 74.6586C87.6233 74.4326 87.8773 74.1786 88.1033 73.9005C88.2991 73.6271 88.4495 73.324 88.549 73.0029C88.6776 72.6247 88.8038 72.2283 88.9275 71.8138C89.0502 71.4006 89.1372 71.1196 89.1939 70.9749C89.2505 70.8302 89.3061 70.7557 89.3637 70.7589C89.3865 70.7623 89.407 70.7745 89.4208 70.793C89.4346 70.8115 89.4404 70.8347 89.4371 70.8575C89.4363 70.8824 89.4321 70.9071 89.4245 70.9309Z" fill="#1A1A18"></path><path d="M92.1467 68.3091C92.2002 68.1864 92.2432 68.1245 92.2757 68.1245C92.3082 68.1245 92.3313 68.1444 92.3313 68.1864C92.331 68.2047 92.3289 68.223 92.325 68.2409C92.2586 68.6876 92.2135 69.0022 92.1897 69.1846C92.1614 69.3944 92.1383 69.5695 92.1216 69.7089C92.1048 69.8484 92.0911 69.9816 92.0786 70.099C92.066 70.2165 92.0565 70.3287 92.0481 70.4398C92.0398 70.551 92.0303 70.6768 92.0177 70.8204C91.9505 71.7737 91.6726 72.7002 91.204 73.5331C91.009 73.8827 90.8563 74.0662 90.7458 74.0837C90.7332 74.0837 90.7269 74.0732 90.7269 74.0522C90.7331 73.9874 90.7475 73.9236 90.7699 73.8624C90.8328 73.6912 90.8842 73.5161 90.9241 73.3381C90.973 73.1284 91.017 72.904 91.0562 72.6649C91.0953 72.4258 91.1303 72.1812 91.161 71.9309C91.1925 71.6792 91.2177 71.4402 91.2386 71.2147C91.247 71.0791 91.2715 70.8641 91.312 70.5698C91.344 70.3115 91.406 70.0578 91.4966 69.8138L92.1467 68.3091Z" fill="#1A1A18"></path><path d="M95.1761 70.9308C94.9999 72.0123 94.8409 72.819 94.699 73.351C94.5965 73.765 94.4683 74.1723 94.3152 74.5705C94.2284 74.8054 94.1006 75.023 93.9377 75.2133C93.7195 75.4067 93.4614 75.5499 93.1817 75.6327C92.8821 75.7461 92.5752 75.8393 92.2631 75.9116C92.0178 75.9651 91.8636 75.9945 91.8028 75.9986C91.7603 76.0014 91.7183 75.9879 91.6854 75.9609C91.6816 75.9558 91.6797 75.9494 91.6801 75.9431C91.6862 75.9024 91.7028 75.8641 91.7283 75.8319C91.8718 75.6598 92.0371 75.5072 92.2201 75.3779C92.4669 75.1849 92.7588 74.9452 93.0957 74.6585C93.3741 74.4325 93.6285 74.1785 93.8549 73.9004C94.0502 73.6268 94.2007 73.3238 94.3005 73.0028C94.4292 72.6246 94.555 72.2283 94.678 71.8137C94.8007 71.4006 94.8877 71.1196 94.9454 70.9748C95.0031 70.8301 95.0566 70.7557 95.1142 70.7588C95.1256 70.7604 95.1365 70.7642 95.1464 70.77C95.1562 70.7758 95.1648 70.7835 95.1717 70.7927C95.1785 70.8019 95.1834 70.8123 95.1862 70.8234C95.1889 70.8345 95.1894 70.8461 95.1876 70.8574C95.1867 70.8822 95.1828 70.9069 95.1761 70.9308ZM95.7717 67.3237C95.7844 67.3698 95.7908 67.4174 95.7906 67.4652C95.7901 67.5338 95.7795 67.602 95.7591 67.6676C95.7172 67.805 95.655 67.9355 95.5746 68.0545C95.5054 68.1594 95.4362 68.2642 95.3649 68.3555C95.2923 68.4536 95.2101 68.5442 95.1195 68.626C95.0146 68.7372 94.9307 68.7927 94.8731 68.7948C94.8492 68.7973 94.825 68.7951 94.802 68.7883C94.779 68.7815 94.7575 68.7701 94.7388 68.755L94.5574 68.5924C94.4809 68.5253 94.4023 68.4561 94.3205 68.3827C94.2387 68.3093 94.1579 68.2475 94.0782 68.1856C93.9985 68.1237 93.9314 68.0807 93.878 68.044C93.861 68.0322 93.8481 68.0153 93.8413 67.9958C93.8413 67.979 93.8496 67.9507 93.878 67.9098L94.8122 66.4837C94.8448 66.4386 94.8699 66.4187 94.8856 66.4229C94.9263 66.4377 94.9656 66.4559 95.0031 66.4774C95.0807 66.5264 95.1604 66.5788 95.2422 66.6347C95.3235 66.6892 95.3996 66.751 95.4697 66.8193C95.5398 66.8874 95.6018 66.9634 95.6543 67.0458C95.7085 67.1324 95.7482 67.2273 95.7717 67.3268V67.3237Z" fill="#1A1A18"></path><path d="M98.2234 73.6578C98.0521 74.0997 97.8456 74.5272 97.6058 74.936C97.4914 75.1317 97.3475 75.3086 97.179 75.4603C97.0239 75.5708 96.8528 75.6568 96.6715 75.7151C96.4429 75.7974 96.2102 75.8674 95.9742 75.9248C95.7958 75.9741 95.6126 76.004 95.4278 76.0139C95.4036 76.0183 95.3787 76.0183 95.3544 76.0139L95.3481 76.0014C95.3481 75.9482 95.5201 75.8151 95.8641 75.6018C96.1798 75.4046 96.4854 75.1915 96.7795 74.9633C97.0162 74.776 97.2333 74.5652 97.4275 74.3341C97.6081 74.1227 97.7469 73.879 97.8365 73.6158C97.7824 73.6392 97.7267 73.6585 97.6697 73.6735C97.6009 73.6927 97.5308 73.7071 97.46 73.7165C97.3887 73.727 97.3195 73.7343 97.2503 73.7385C97.1929 73.743 97.1352 73.7409 97.0783 73.7322C96.863 73.7231 96.6576 73.6393 96.4974 73.4952C96.4233 73.4304 96.3651 73.3494 96.3273 73.2585C96.2895 73.1676 96.2731 73.0692 96.2793 72.9709C96.2966 72.8476 96.3253 72.7261 96.3653 72.6081C96.4469 72.383 96.5415 72.1628 96.6484 71.9485C96.7705 71.6796 96.9285 71.4284 97.1182 71.202C97.1722 71.1219 97.2425 71.0541 97.3246 71.0032C97.4066 70.9522 97.4985 70.9192 97.5942 70.9062C97.7172 70.9063 97.8384 70.9356 97.9478 70.9918C98.0572 71.0479 98.1517 71.1293 98.2234 71.2292C98.3949 71.4547 98.4993 71.724 98.5243 72.0062C98.5243 72.0681 98.5306 72.1289 98.5306 72.1908C98.5306 72.281 98.5264 72.3711 98.518 72.4613C98.5054 72.5881 98.4858 72.7141 98.4593 72.8388C98.4373 72.9437 98.4027 73.0684 98.3545 73.2257C98.3062 73.383 98.2769 73.5204 98.2234 73.6578Z" fill="#1A1A18"></path></svg> 