<?xml version="1.0" encoding="UTF-8"?> <svg xmlns="http://www.w3.org/2000/svg" width="100" height="100" viewBox="0 0 100 100" fill="none"><g clip-path="url(#clip0_9871_2653)"><path d="M40.5558 19.0014C39.2373 19.0452 37.9795 19.579 37.0172 20.5031C31.2706 26.3808 25.5263 32.2601 19.7845 38.1409C18.8836 38.9759 18.1635 40.0743 17.9999 41.3283C17.9972 41.6469 18.3613 41.6994 18.5996 41.6938C22.7918 41.6957 26.9837 41.6957 31.1753 41.6938C31.3371 41.6791 31.5475 41.7104 31.6517 41.5484C31.9437 41.1453 32.275 40.7739 32.6407 40.4398C37.6903 35.2683 42.7416 30.0992 47.7948 24.9326C47.9126 24.799 48.0511 24.6683 48.0951 24.4879C48.052 24.231 47.8542 24.0514 47.6887 23.8719C46.5191 22.7367 45.4322 21.5149 44.2526 20.3889C43.2601 19.4562 41.8963 18.9701 40.5558 19.0014Z" fill="black"></path><path d="M57.6349 19.2768C56.5076 19.3743 55.4934 19.9848 54.652 20.7259C48.7804 26.7372 42.9079 32.7484 37.0345 38.7596C35.3766 40.4979 33.4398 42.4896 36.3422 45.4393C36.3422 45.4393 37.1104 46.4837 37.5829 46.9234C38.4567 47.869 39.3944 48.7501 40.2701 49.6938C40.4724 49.8715 40.6702 50.1855 40.9794 50.0989C41.4703 49.7444 41.829 49.2362 42.2803 48.8348C46.8303 44.1623 51.3864 39.4971 55.9484 34.8393C56.2198 34.6045 56.6269 34.1856 57.0529 33.7668C57.4511 33.3765 57.9829 33.1619 58.534 33.169C59.0851 33.1762 59.6114 33.4045 59.9999 33.8049L60.0088 33.8146C62.3859 36.259 64.768 38.6982 67.1553 41.1322C67.3369 41.309 67.4762 41.5401 67.6947 41.6727C67.9851 41.7335 68.2845 41.6985 68.5802 41.7031C72.6241 41.7049 76.668 41.7055 80.7118 41.7049C80.9393 41.7095 81.3115 41.669 81.2512 41.3431C81.1658 40.3432 80.5815 39.4566 79.9207 38.744C74.7288 33.4417 69.5395 28.1369 64.353 22.8297C63.9844 22.4071 63.5492 22.0527 63.1932 21.6181C62.5163 20.9911 61.9238 20.2407 61.0922 19.8172C60.025 19.2749 58.801 19.2464 57.6349 19.2768Z" fill="black"></path><path d="M58.2597 35.2738C57.901 35.5123 57.6259 35.8557 57.3274 36.1642C52.4591 41.1516 47.5882 46.1368 42.7145 51.12C42.4142 51.4256 42.1265 51.7525 41.7732 51.9946C41.1304 52.3224 40.2583 52.2561 39.7423 51.7129C37.2178 49.1727 34.74 46.5865 32.22 44.0416C32.051 43.8722 31.9081 43.6006 31.6321 43.6421C27.3158 43.6485 22.9992 43.6488 18.6824 43.643C18.4324 43.5979 18.1807 43.8188 18.2607 44.0858C18.4396 45.0747 18.9961 45.9502 19.6857 46.65C25.4548 52.5599 31.2263 58.468 37.0002 64.3743C37.9707 65.4234 39.304 66.0412 40.7141 66.0951C41.9665 66.2166 43.226 65.7618 44.2078 64.9783C44.6366 64.657 44.9594 64.2178 45.3568 63.8596C50.6736 58.4119 55.9935 52.9666 61.3164 47.5237C62.0348 46.8074 62.7882 46.0727 63.1891 45.1115C63.3842 44.6815 63.4813 44.2147 63.5829 43.7544C63.8059 42.5243 63.5649 41.2326 63.0111 40.1278C62.6814 39.5625 62.2758 39.0474 61.8064 38.5976C60.8157 37.5866 59.8312 36.5702 58.8396 35.5602C58.6796 35.4248 58.4872 35.1799 58.2597 35.2738Z" fill="black"></path><path d="M67.7967 43.6807C67.6205 43.712 67.5485 43.9045 67.4424 44.0278C67.1377 44.4799 66.6998 44.8068 66.342 45.2091C61.3704 50.307 56.3948 55.4 51.4153 60.4881C51.3589 60.5313 51.3128 60.587 51.2802 60.651C51.2476 60.715 51.2295 60.7856 51.2272 60.8577C51.2249 60.9299 51.2384 61.0016 51.2667 61.0676C51.2951 61.1337 51.3376 61.1924 51.3911 61.2393C52.5274 62.4077 53.671 63.5687 54.8056 64.7389C55.2219 65.1192 55.6444 65.5105 56.1658 65.7342C58.1392 66.8243 60.768 66.3906 62.3314 64.7564C62.6416 64.3725 63.0435 64.0825 63.3563 63.7013C68.844 58.0869 74.3338 52.4743 79.8258 46.8636C80.5531 46.1077 81.1186 45.1511 81.2597 44.0868C81.2966 43.8584 81.1482 43.6172 80.9028 43.6596C77.455 43.6476 74.0054 43.6568 70.5567 43.655C69.637 43.6734 68.7137 43.6181 67.7967 43.6807Z" fill="black"></path><path d="M31.4197 72.6417C31.4172 72.6948 31.4267 72.7478 31.4472 72.7966C31.4678 72.8453 31.499 72.8887 31.5385 72.9232C31.6241 72.9948 31.7326 73.0314 31.843 73.0259H32.1217V74.2732H31.7318L31.6166 74.2657C31.5466 74.2612 31.4777 74.2457 31.4124 74.2196C31.3824 74.7927 31.224 75.2503 30.937 75.5926C30.7221 75.8391 30.45 76.0261 30.1459 76.1363C29.7935 76.2601 29.4227 76.3193 29.0503 76.3113H28.4896C28.0934 76.3176 27.7007 76.236 27.3384 76.0719C26.9658 75.9036 26.6495 75.6273 26.4284 75.2771C26.1883 74.8732 26.0659 74.4074 26.0757 73.9346C26.0757 73.8712 26.077 73.8079 26.0794 73.7445C26.1091 73.1537 26.2861 72.4983 26.6105 71.7782L27.7171 72.2993C27.4571 72.8723 27.316 73.3756 27.2938 73.8093C27.2912 73.8522 27.29 73.8952 27.2901 73.9382C27.2803 74.1721 27.3385 74.4037 27.4571 74.6038C27.5755 74.7885 27.7547 74.9235 27.9622 74.9841C28.0538 75.0156 28.1484 75.0372 28.2445 75.0485C28.3258 75.0588 28.4076 75.0639 28.4896 75.0637H29.0503C29.5132 75.0637 29.8276 74.9763 29.9936 74.8013C30.1347 74.6518 30.2053 74.3893 30.2052 74.014V71.6454H31.4196L31.4197 72.6417ZM28.1479 71.36L28.9204 70.5615L29.7077 71.3677L28.9242 72.1663L28.1479 71.36Z" fill="black"></path><path d="M35.7942 71.5697C35.9146 71.7697 36.0035 71.9878 36.0577 72.2161C36.1055 72.4076 36.1305 72.6043 36.132 72.8019C36.132 73.418 35.981 73.8794 35.679 74.1862C35.5654 74.3051 35.4288 74.3984 35.2779 74.46C35.1583 74.5097 35.0317 74.5393 34.9028 74.5475C34.8781 74.55 34.8434 74.5513 34.7988 74.5513C34.4572 74.5438 34.1208 74.4635 33.8111 74.3155C33.68 74.2586 33.5523 74.1938 33.4286 74.1216L33.3469 74.0756L33.2726 74.0338C33.2156 73.9982 33.1748 73.9741 33.1501 73.9614C32.947 74.1694 32.609 74.2733 32.1362 74.2732H31.9357V73.0263H32.0879C32.3379 73.0263 32.5025 72.973 32.5818 72.8665C32.6681 72.6834 32.7378 72.4924 32.7898 72.2961C32.7971 72.2732 32.8046 72.2518 32.8121 72.2317C32.8197 72.203 32.8296 72.175 32.8417 72.148C32.8661 72.0779 32.8947 72.0093 32.9271 71.9427C33.0055 71.767 33.1052 71.6022 33.2238 71.452C33.3713 71.2556 33.5616 71.0972 33.7796 70.9896C33.9975 70.8819 34.237 70.828 34.479 70.8321C34.7428 70.8218 35.0044 70.885 35.236 71.0149C35.4676 71.1448 35.6605 71.3365 35.7942 71.5697ZM34.9548 73.1822C34.9876 73.087 35.004 72.9866 35.0031 72.8856C35.0031 72.8576 35.0019 72.8297 34.9994 72.8019C34.9916 72.6205 34.9337 72.4451 34.8323 72.2961C34.7956 72.2329 34.7442 72.18 34.6826 72.1421C34.621 72.1043 34.5512 72.0827 34.4795 72.0793C34.2963 72.0793 34.1453 72.1909 34.0265 72.414C33.9788 72.5035 33.9402 72.5978 33.9113 72.6954C33.8989 72.7309 33.8853 72.7739 33.8705 72.8243L33.8557 72.8812L33.8408 72.9307C34.0039 73.069 34.1901 73.1759 34.3904 73.2464C34.5304 73.3031 34.6783 73.3365 34.8286 73.3453C34.8732 73.3456 34.9153 73.2912 34.9548 73.1822Z" fill="black"></path><path d="M37.9072 74.2725H36.6891V68.7886H37.9072V74.2725Z" fill="black"></path><path d="M42.5787 71.6474C42.472 72.0196 42.3876 72.3981 42.3261 72.7808C42.3236 72.801 42.3224 72.8213 42.3224 72.8416C42.3214 72.8849 42.3303 72.9279 42.3484 72.9671C42.3617 72.9985 42.3842 73.0249 42.4128 73.0427C42.4414 73.0604 42.4748 73.0685 42.5081 73.066H46.8939C47.0721 73.066 47.1612 72.9823 47.1612 72.815V71.6398H48.3793V72.5678C48.3783 72.6861 48.4105 72.8023 48.4721 72.9024C48.5365 72.9837 48.6566 73.0242 48.8324 73.0242H49.2594V74.2715H48.8324C48.3867 74.2715 48.0601 74.1853 47.8524 74.0129C47.6072 74.1623 47.3312 74.2509 47.0465 74.2715C46.7965 74.2994 46.3521 74.3134 45.7133 74.3134H43.6073C42.9091 74.3134 42.4623 74.2957 42.2667 74.2602C42.0901 74.2353 41.9208 74.1718 41.7702 74.0741C41.6196 73.9763 41.4913 73.8465 41.394 73.6935C41.2655 73.4921 41.1842 73.263 41.1563 73.0242C41.1462 72.9294 41.1413 72.8341 41.1415 72.7387C41.1417 72.6257 41.1479 72.5127 41.1601 72.4003C41.1913 72.173 41.2372 71.9481 41.2975 71.7271C41.3198 71.6334 41.3445 71.5382 41.3717 71.4417C41.3816 71.4087 41.3903 71.3783 41.3977 71.3503C41.4002 71.3361 41.404 71.3221 41.4089 71.3084L42.5787 71.6474ZM44.0455 71.4345L43.3172 70.6815L44.0339 69.9209L44.7766 70.6815L44.0455 71.4345ZM45.6015 71.4307L44.8733 70.6777L45.5938 69.917L46.3365 70.6777L45.6015 71.4307Z" fill="black"></path><path d="M51.2052 70.728C51.4082 70.7584 51.9133 70.8877 52.7205 71.1159C53.0026 71.1945 53.301 71.2794 53.6155 71.3707C53.8629 71.4443 54.0536 71.5014 54.1873 71.5419L54.3768 72.6409C53.4186 73.3611 52.6981 73.8061 52.2154 73.976C51.646 74.1738 50.6001 74.2727 49.0778 74.2726V73.0251C50.0607 73.0251 50.7712 72.9896 51.2093 72.9185C51.7133 72.8422 52.1963 72.6596 52.6279 72.3823L52.3568 72.3064L52.0968 72.2302C51.8838 72.1669 51.7241 72.1212 51.6178 72.0933C51.4169 72.0281 51.2105 71.9823 51.0013 71.9564C50.963 71.9595 50.9259 71.9718 50.893 71.9923C50.8601 72.0128 50.8323 72.0408 50.8119 72.0743C50.7427 72.1661 50.6946 72.2726 50.6709 72.386L49.4932 72.0703C49.5831 71.6581 49.807 71.2894 50.1283 71.0245C50.3668 70.8229 50.6657 70.7114 50.975 70.7088C51.0521 70.7091 51.1291 70.7155 51.2052 70.728ZM50.1989 69.4197L50.9714 68.6211L51.7586 69.4273L50.9751 70.2261L50.1989 69.4197Z" fill="black"></path><path d="M56.7942 74.2725H56.4599C56.2062 74.2768 55.9544 74.2263 55.721 74.1243C55.3933 73.9814 55.1323 73.7141 54.9928 73.3785C54.8932 73.1395 54.8438 72.8816 54.848 72.6217V68.7886H56.0623V72.622C56.05 72.7357 56.0806 72.85 56.1478 72.9415C56.2022 72.9973 56.3061 73.0252 56.4596 73.0252H56.7939L56.7942 74.2725Z" fill="black"></path><path d="M59.6908 72.9458C59.7849 72.8748 59.8319 72.7493 59.8319 72.5693V71.6452H61.0499V72.5693C61.039 72.6876 61.0692 72.8062 61.1353 72.9039C61.2022 72.9851 61.3248 73.0257 61.503 73.0257C61.7853 73.0257 61.9264 72.9255 61.9264 72.7252C61.9257 72.6765 61.9194 72.628 61.9078 72.5807C61.7668 71.985 61.6751 71.5856 61.633 71.3827L62.8139 71.0938C62.8858 71.3979 62.9787 71.7973 63.0926 72.2917C63.1177 72.4039 63.1302 72.5187 63.1298 72.6339C63.1294 72.7346 63.1207 72.8352 63.1038 72.9344C63.0642 73.1637 62.9795 73.3823 62.8549 73.5771C62.5603 74.0411 62.1307 74.2731 61.5663 74.273C61.3227 74.2749 61.0804 74.2351 60.8496 74.1552C60.7025 74.0991 60.5638 74.0223 60.4374 73.9269C60.1473 74.1562 59.79 74.2781 59.4236 74.273C59.0476 74.2814 58.6798 74.1595 58.3801 73.9269C58.1795 74.1578 57.8242 74.2731 57.3143 74.273H56.6013V73.0257H57.3143C57.4925 73.0257 57.615 72.9851 57.6819 72.9039C57.748 72.8062 57.7782 72.6876 57.7673 72.5693V71.6452H58.9852V72.5693C58.9852 72.7493 59.0272 72.8749 59.1111 72.9458C59.1916 73.0058 59.2905 73.0341 59.3898 73.0257C59.4959 73.0328 59.6014 73.0048 59.6908 72.9458Z" fill="black"></path><path d="M65.7181 71.6416V72.6799C65.7189 72.7348 65.7346 72.7884 65.7634 72.8348C65.7923 72.8811 65.8331 72.9183 65.8814 72.9423C65.9597 72.9954 66.0512 73.0245 66.1451 73.026H66.3159V74.2733H66.1451C65.9903 74.2716 65.8365 74.2473 65.6883 74.2011C65.6164 74.7614 65.432 75.2127 65.135 75.555C64.7017 76.0594 64.0679 76.3117 63.2336 76.3118H62.866V75.0644H63.2336C63.6891 75.0644 64.0134 74.9592 64.2066 74.7488C64.4022 74.5383 64.5 74.1859 64.5 73.6915V71.6416H65.7181Z" fill="black"></path><path d="M69.3536 72.3405C69.3728 72.4561 69.3828 72.5731 69.3833 72.6904C69.387 73.0236 69.2854 73.3491 69.0936 73.6183C68.7841 74.0545 68.2803 74.2724 67.5822 74.272H66.1302V73.0251H67.5562C67.7791 73.0251 67.9363 72.9946 68.0278 72.9338C68.074 72.9053 68.1116 72.8642 68.1365 72.8153C68.1614 72.7663 68.1726 72.7112 68.169 72.6561C68.1685 72.6139 68.1635 72.5718 68.1542 72.5306C68.1293 72.4014 68.1046 72.2694 68.0798 72.1347C68.0699 72.084 68.06 72.0295 68.0501 71.9712L68.0352 71.899L68.0241 71.8267C67.9869 71.6188 67.9585 71.4705 67.9387 71.3817L69.1011 71.0205C69.1754 71.3784 69.2595 71.8184 69.3536 72.3405ZM66.9212 76.4516L66.193 75.6986L66.9097 74.9381L67.6524 75.6986L66.9212 76.4516ZM68.4883 76.4478L67.7601 75.6948L68.4805 74.9342L69.2233 75.6948L68.4883 76.4478Z" fill="black"></path><path d="M72.5918 73.695C72.5918 74.486 72.3974 75.1072 72.0088 75.5585C71.5754 76.0629 70.9416 76.3152 70.1073 76.3153H69.7395V75.0679H70.1071C70.5626 75.0679 70.887 74.9627 71.0801 74.7522C71.2757 74.5417 71.3735 74.1893 71.3735 73.695V71.6451H72.5916L72.5918 73.695ZM71.2215 70.0364L71.9939 69.2378L72.7811 70.044L71.9976 70.8427L71.2215 70.0364Z" fill="black"></path><path d="M26.7417 78.9424C26.6137 79.1925 26.5409 79.4683 26.5283 79.7504C26.5283 79.773 26.529 79.7969 26.5302 79.822C26.5326 79.8529 26.5369 79.8837 26.5431 79.9141C26.5548 79.9879 26.5784 80.0591 26.6129 80.125C26.6595 80.2102 26.729 80.2799 26.8131 80.326C26.8972 80.3721 26.9924 80.3925 27.0874 80.3849H27.595C27.8489 80.3849 28.0273 80.3504 28.1303 80.2813C28.1817 80.2462 28.2081 80.2116 28.2093 80.1778C27.9846 80.0557 27.7415 79.973 27.4901 79.9329V79.3678H29.1713V79.9856H28.7281C28.7581 80.0427 28.772 80.1073 28.7684 80.172C28.7684 80.201 28.7673 80.2298 28.7649 80.2588C28.7601 80.2981 28.7527 80.3372 28.7427 80.3755C28.717 80.4774 28.6692 80.572 28.6029 80.6524C28.4105 80.8848 28.0745 81.0009 27.595 81.0008H27.0874C26.6791 81.0008 26.3713 80.8545 26.1641 80.562C26.0006 80.325 25.9161 80.0403 25.9233 79.7502C25.9276 79.4954 25.9742 79.2432 26.0612 79.0044C26.0994 78.8913 26.1455 78.7811 26.1991 78.6748L26.7417 78.9424Z" fill="black"></path><path d="M30.5121 79.3273C30.5354 79.3029 30.5531 79.2736 30.564 79.2413C30.5749 79.2091 30.5786 79.1748 30.575 79.1409V78.6836H31.1782V79.1413C31.1727 79.1987 31.1842 79.2565 31.2113 79.307C31.2335 79.3302 31.2608 79.3477 31.2908 79.3582C31.3208 79.3686 31.3528 79.3717 31.3842 79.3673C31.4339 79.3712 31.4833 79.3572 31.524 79.3277C31.5467 79.3029 31.5639 79.2735 31.5743 79.2413C31.5848 79.2091 31.5883 79.175 31.5847 79.1412V78.6836H32.1879V79.1413C32.1825 79.1999 32.1975 79.2586 32.2302 79.307C32.2546 79.3299 32.2834 79.3471 32.3149 79.3575C32.3463 79.3679 32.3795 79.3712 32.4123 79.3673H32.6477V79.9851H32.4123C32.1597 79.9851 31.9837 79.9279 31.8844 79.8137C31.7413 79.927 31.5651 79.9874 31.3842 79.9851C31.1439 79.9851 30.974 79.9279 30.8747 79.8137C30.734 79.9261 30.5603 79.9865 30.3819 79.9851C30.198 79.9884 30.0185 79.928 29.8724 79.8137C29.773 79.9279 29.5971 79.9851 29.3446 79.9851H29.0797V79.3673H29.3446C29.3774 79.3712 29.4106 79.3678 29.442 79.3575C29.4734 79.3471 29.5023 79.3299 29.5266 79.307C29.5593 79.2586 29.5742 79.1999 29.5689 79.1413V78.6836H30.1721V79.1413C30.1685 79.1752 30.1722 79.2096 30.1831 79.2418C30.194 79.274 30.2117 79.3034 30.2351 79.3278C30.2749 79.3575 30.3239 79.3715 30.373 79.3674C30.4225 79.371 30.4717 79.3568 30.5121 79.3273ZM30.8394 77.9034L30.4753 78.2801L30.1111 77.9072L30.4753 77.5305L30.8394 77.9034ZM31.1962 77.4119L30.8763 77.7396L30.5599 77.4157L30.8799 77.0879L31.1962 77.4119ZM31.6376 77.8977L31.2771 78.2707L30.9038 77.9015L31.2716 77.5249L31.6376 77.8977Z" fill="black"></path><path d="M33.7781 79.1954C33.7758 79.2186 33.7783 79.242 33.7856 79.2641C33.793 79.2862 33.8048 79.3064 33.8205 79.3234C33.8702 79.3576 33.93 79.3729 33.9897 79.3667H34.0632V79.9845H33.9897C33.9135 79.9849 33.8376 79.9761 33.7635 79.9582C33.7087 79.945 33.6556 79.9254 33.6052 79.8998C33.559 79.879 33.5163 79.8511 33.4784 79.817C33.4379 79.8522 33.3919 79.8803 33.3423 79.8998C33.2025 79.9594 33.0521 79.9883 32.9008 79.9845H32.5554V79.3667H32.9435C33.0086 79.373 33.0739 79.3572 33.1293 79.3215C33.1462 79.3057 33.1593 79.2861 33.1676 79.2642C33.1759 79.2423 33.1791 79.2188 33.1771 79.1954V78.6835H33.7781V79.1954ZM32.9634 77.8144L33.3459 77.4185L33.7359 77.8179L33.3477 78.2138L32.9634 77.8144Z" fill="black"></path><path d="M36.2062 77.4835L35.0015 78.0452C35.107 78.152 35.2547 78.3083 35.4447 78.5142C35.5855 78.6607 35.7017 78.83 35.7887 79.0152C35.8319 79.1129 35.855 79.2187 35.8567 79.3259V79.341C35.8562 79.4182 35.8405 79.4944 35.8107 79.5652C35.7833 79.6311 35.744 79.6912 35.6949 79.7422C35.6249 79.8134 35.5408 79.8686 35.4484 79.9041C35.2873 79.9622 35.1171 79.9897 34.9464 79.9852H33.9716V79.3674H34.9468C35.0612 79.3767 35.1763 79.3659 35.287 79.3353C35.2826 79.3184 35.2766 79.302 35.269 79.2864C35.254 79.2578 35.2374 79.2302 35.2193 79.2035C35.1558 79.1084 35.0844 79.0191 35.006 78.9365C34.7927 78.7041 34.6075 78.5101 34.4506 78.3544C34.4236 78.3281 34.3979 78.3035 34.3733 78.2808C34.3554 78.2619 34.3374 78.245 34.3199 78.2299C34.3142 78.224 34.3082 78.2183 34.302 78.213L34.2891 78.1998L34.2835 78.196L34.2817 78.1922L34.278 78.1904L34.348 77.6742L35.9573 76.9209L36.2062 77.4835Z" fill="black"></path><path d="M36.9934 79.9846H36.3901V77.2686H36.9934V79.9846Z" fill="black"></path><path d="M38.369 78.6821V79.1963C38.3695 79.2235 38.3773 79.2501 38.3916 79.273C38.4058 79.2959 38.426 79.3144 38.4499 79.3263C38.4887 79.3526 38.534 79.367 38.5806 79.3677H38.6652V79.9855H38.5806C38.5039 79.9846 38.4277 79.9725 38.3544 79.9497C38.3316 80.1965 38.236 80.4304 38.0802 80.6203C37.8657 80.87 37.5519 80.995 37.1386 80.9951H36.9565V80.3773H37.1386C37.3643 80.3773 37.5249 80.3251 37.6205 80.2208C37.7173 80.1165 37.7657 79.9419 37.7658 79.6971V78.6821H38.369Z" fill="black"></path><path d="M40.1696 79.0287C40.1792 79.086 40.1841 79.144 40.1844 79.2021C40.1861 79.3672 40.1356 79.5284 40.0405 79.6616C39.8872 79.8776 39.6377 79.9856 39.292 79.9856H38.5728V79.3678H39.279C39.3595 79.3744 39.4402 79.3588 39.5128 79.3226C39.5356 79.3085 39.5542 79.2882 39.5666 79.2639C39.5789 79.2397 39.5844 79.2124 39.5826 79.1852C39.5824 79.1642 39.5799 79.1434 39.5753 79.123C39.5633 79.0591 39.551 78.9938 39.5385 78.9271C39.5336 78.9021 39.5287 78.875 39.5238 78.8461L39.5165 78.8103L39.5109 78.7745C39.4926 78.6716 39.4785 78.5981 39.4686 78.5541L40.044 78.3752C40.0812 78.5523 40.123 78.7701 40.1696 79.0287ZM39.0202 78.0908L38.6599 77.7179L39.0148 77.3412L39.3826 77.7179L39.0202 78.0908ZM39.7908 78.0889L39.4303 77.716L39.7871 77.3394L40.155 77.716L39.7908 78.0889Z" fill="black"></path><path d="M42.9633 80.0056C42.7417 80.0117 42.5199 80.0028 42.2994 79.9792C42.2119 79.9668 42.128 79.9354 42.0535 79.887C41.9789 79.8385 41.9153 79.7743 41.8671 79.6985C41.8035 79.5988 41.7632 79.4854 41.7494 79.3671C41.7444 79.3202 41.742 79.273 41.7421 79.2258C41.7421 79.1699 41.7451 79.1139 41.7511 79.0583C41.7666 78.9457 41.7893 78.8344 41.8191 78.7249C41.8302 78.6784 41.8425 78.6313 41.8559 78.5836C41.8608 78.5673 41.8649 78.5523 41.8688 78.5383C41.8701 78.5313 41.8719 78.5244 41.8743 78.5176L42.4537 78.6853C42.4008 78.8697 42.3591 79.0573 42.3286 79.2469C42.3273 79.2569 42.3267 79.267 42.3267 79.2771C42.3262 79.2986 42.3306 79.3198 42.3397 79.3392C42.3462 79.3548 42.3573 79.3679 42.3715 79.3767C42.3857 79.3855 42.4022 79.3895 42.4187 79.3882H44.4199C44.5004 79.3948 44.5811 79.3792 44.6537 79.3429C44.6766 79.3288 44.6952 79.3085 44.7075 79.2843C44.7199 79.26 44.7254 79.2328 44.7236 79.2055C44.7234 79.1846 44.7209 79.1637 44.7163 79.1433C44.704 79.0793 44.6917 79.014 44.6795 78.9475C44.6746 78.9223 44.6697 78.8953 44.6647 78.8665L44.6574 78.8307L44.6519 78.7949C44.6433 78.7472 44.6359 78.7057 44.6298 78.6706L45.2073 78.5048C45.2379 78.6606 45.2722 78.842 45.3102 79.0492C45.3199 79.1064 45.3248 79.1644 45.325 79.2224C45.3267 79.3875 45.2762 79.5487 45.1811 79.682C45.028 79.898 44.7784 80.006 44.4326 80.006L42.9633 80.0056ZM43.1803 78.5797L42.8198 78.2068L43.1748 77.8301L43.5427 78.2068L43.1803 78.5797ZM43.9509 78.5778L43.5905 78.2049L43.9473 77.8281L44.3147 78.205L43.9509 78.5778Z" fill="black"></path><path d="M46.5663 79.9845H46.4005C46.2748 79.9866 46.1501 79.9615 46.0345 79.9109C45.8723 79.8401 45.7431 79.7078 45.6741 79.5417C45.6246 79.4233 45.6001 79.2956 45.6022 79.1669V77.2686H46.2035V79.1671C46.1975 79.2234 46.2126 79.28 46.2459 79.3253C46.2905 79.3584 46.3456 79.3732 46.4003 79.3667H46.5659L46.5663 79.9845Z" fill="black"></path><path d="M48.3815 78.6453C48.4411 78.7444 48.4852 78.8524 48.5121 78.9655C48.5358 79.0603 48.5482 79.1577 48.5489 79.2555C48.5489 79.5608 48.474 79.7893 48.3242 79.9411C48.2679 80 48.2003 80.0462 48.1256 80.0768C48.0663 80.1014 48.0035 80.116 47.9397 80.1201C47.9275 80.1212 47.9103 80.1219 47.8883 80.1219C47.7191 80.1182 47.5525 80.0784 47.399 80.0052C47.3341 79.977 47.2709 79.9449 47.2096 79.9091L47.1692 79.8866L47.1323 79.8657C47.1042 79.8483 47.084 79.8363 47.0717 79.8299C46.9711 79.9329 46.8038 79.9844 46.5696 79.9844H46.4707V79.3666H46.546C46.6699 79.3666 46.7515 79.3403 46.7908 79.2876C46.8335 79.1968 46.8679 79.1022 46.8937 79.005C46.8974 78.9937 46.9011 78.9831 46.9048 78.973C46.9085 78.9589 46.9134 78.945 46.9194 78.9316C46.9316 78.897 46.9457 78.8632 46.9618 78.8303C47.0006 78.7433 47.0501 78.6616 47.1089 78.5873C47.182 78.49 47.2762 78.4116 47.3842 78.3583C47.4921 78.305 47.6107 78.2783 47.7305 78.2803C47.8611 78.2753 47.9906 78.3065 48.1052 78.3708C48.2198 78.4351 48.3153 78.5299 48.3815 78.6453ZM47.9659 79.4439C47.9822 79.3966 47.9903 79.3467 47.9898 79.2966C47.9898 79.2829 47.9892 79.269 47.988 79.2551C47.9841 79.1653 47.9554 79.0784 47.9052 79.0046C47.887 78.9733 47.8615 78.9471 47.831 78.9284C47.8005 78.9096 47.766 78.8989 47.7304 78.8973C47.6815 78.9002 47.6343 78.9173 47.5945 78.9467C47.5547 78.976 47.5239 79.0164 47.5057 79.063C47.482 79.1073 47.4629 79.1541 47.4486 79.2025C47.4425 79.22 47.4357 79.2414 47.4284 79.2669L47.421 79.2952L47.4137 79.3196C47.4945 79.3881 47.5867 79.4411 47.6858 79.4761C47.7552 79.5042 47.8284 79.5207 47.9029 79.5251C47.9253 79.525 47.9463 79.4979 47.9659 79.4439Z" fill="black"></path><path d="M49.794 77.9036C49.8259 77.9538 49.8688 78.0191 49.9228 78.0996C50.065 78.3192 50.2373 78.5841 50.4396 78.8943C50.4506 78.912 50.4623 78.9295 50.4745 78.9471C50.4904 78.9697 50.5057 78.9923 50.5205 79.0149C50.5634 79.0751 50.6039 79.1278 50.6419 79.1731C50.7498 79.3037 50.8326 79.369 50.8901 79.369H51.0189V79.9849H50.8442C50.6517 79.9792 50.4683 79.8991 50.3311 79.7607C50.2791 79.818 50.2184 79.8663 50.1513 79.9038C50.0222 79.9777 49.8763 80.0154 49.7283 80.0131C49.5113 80.0073 49.2954 79.9776 49.0845 79.9246C49.0037 79.9057 48.9228 79.885 48.8418 79.8625C48.8148 79.855 48.7897 79.8474 48.7664 79.8398C48.7574 79.8374 48.7504 79.8354 48.7443 79.8341L48.737 79.8323L48.7333 79.8304L48.9117 79.2411C48.9534 79.2534 49.0024 79.2678 49.0588 79.2844C49.1311 79.3033 49.2016 79.3202 49.2704 79.3352C49.4206 79.3717 49.574 79.3925 49.7283 79.3974C49.7634 79.4023 49.7991 79.397 49.8313 79.382C49.8635 79.367 49.8909 79.343 49.9103 79.3127C49.9198 79.2961 49.9249 79.2773 49.925 79.2581C49.9229 79.2191 49.9094 79.1818 49.8864 79.1507C49.7785 78.9875 49.6786 78.8356 49.5866 78.6949C49.5168 78.5882 49.4512 78.4884 49.3898 78.3954L49.2464 78.175L49.7499 77.8379L49.794 77.9036Z" fill="black"></path><path d="M51.9827 78.2293C52.0832 78.2444 52.3333 78.3085 52.733 78.4215C52.8728 78.4603 53.0206 78.5024 53.1762 78.5477C53.2988 78.5841 53.3932 78.6124 53.4594 78.6324L53.5533 79.1767C53.0788 79.5334 52.722 79.7538 52.4829 79.8378C52.2008 79.936 51.6827 79.9851 50.9287 79.9851V79.3673C51.2814 79.375 51.6342 79.3574 51.9844 79.3147C52.234 79.2768 52.4733 79.1863 52.687 79.049L52.5527 79.0114L52.424 78.9737C52.3185 78.9423 52.2394 78.9197 52.1867 78.9059C52.0873 78.8736 51.9851 78.8509 51.8815 78.8381C51.8625 78.8396 51.8441 78.8457 51.8278 78.8558C51.8115 78.866 51.7977 78.8799 51.7877 78.8965C51.7533 78.942 51.7294 78.9948 51.7177 79.051L51.1347 78.8945C51.1793 78.6903 51.2902 78.5077 51.4493 78.3765C51.5674 78.2766 51.7155 78.2213 51.8687 78.22C51.9068 78.2201 51.9449 78.2232 51.9827 78.2293ZM51.4842 77.5815L51.8668 77.1855L52.2567 77.5849L51.8686 77.9803L51.4842 77.5815Z" fill="black"></path></g><defs><clipPath id="clip0_9871_2653"><rect width="63.2653" height="62" fill="white" transform="translate(18 19)"></rect></clipPath></defs></svg> 