<?xml version="1.0" encoding="UTF-8"?> <svg xmlns="http://www.w3.org/2000/svg" width="124" height="124" viewBox="0 0 124 124" fill="none"><g id="Sever"><path id="Union" fill-rule="evenodd" clip-rule="evenodd" d="M76.1342 94.1352C76.1342 94.6128 75.7471 95 75.2694 95L48.4605 95C47.9829 95 47.5957 94.6128 47.5957 94.1352L47.5957 92.6148C47.5957 92.1372 47.9829 91.75 48.4605 91.75L75.2694 91.75C75.7471 91.75 76.1342 92.1372 76.1342 92.6148L76.1342 94.1352Z" fill="#262626"></path><path id="Union_2" fill-rule="evenodd" clip-rule="evenodd" d="M60.8647 93.0464C60.3871 93.0464 59.9999 92.6592 59.9999 92.1815L59.9999 65.3726C59.9999 64.895 60.3871 64.5078 60.8647 64.5078L62.477 64.5078C62.9546 64.5078 63.3418 64.895 63.3418 65.3726L63.3418 92.1815C63.3418 92.6592 62.9546 93.0464 62.477 93.0464L60.8647 93.0464Z" fill="#262626"></path><rect id="Rectangle 1603" x="21.9805" y="53.2929" width="80.0404" height="28.3737" fill="#262626" stroke="white" stroke-width="2"></rect><rect id="Rectangle 1604" x="21.9805" y="22.6055" width="80.0404" height="28.3737" fill="#262626" stroke="white" stroke-width="2"></rect><path id="Vector" d="M32.4005 38.5532C32.5999 38.8956 35.3047 40.4455 35.7035 40.4455C36.1024 40.4455 38.8073 38.8956 39.0067 38.5532C39.2061 38.2107 39.2062 35.111 39.0067 34.7711C38.8073 34.4286 36.1025 32.8788 35.7037 32.8788C35.3048 32.8788 32.5999 34.4286 32.4005 34.7711C32.2011 35.1135 32.2036 38.2107 32.4005 38.5532Z" fill="white"></path><path id="Vector_2" d="M32.4005 69.2408C32.5999 69.5832 35.3047 71.1331 35.7035 71.1331C36.1024 71.1331 38.8073 69.5832 39.0067 69.2408C39.2061 68.8983 39.2062 65.7986 39.0067 65.4587C38.8073 65.1163 36.1025 63.5664 35.7037 63.5664C35.3048 63.5664 32.5999 65.1163 32.4005 65.4587C32.2011 65.8012 32.2036 68.8983 32.4005 69.2408Z" fill="white"></path><path id="Vector_3" d="M42.0665 38.5532C42.2659 38.8956 44.9707 40.4455 45.3696 40.4455C45.7684 40.4455 48.4733 38.8956 48.6727 38.5532C48.8721 38.2107 48.8722 35.111 48.6728 34.7711C48.4734 34.4286 45.7685 32.8788 45.3697 32.8788C44.9709 32.8788 42.266 34.4286 42.0665 34.7711C41.8671 35.1135 41.8696 38.2107 42.0665 38.5532Z" fill="white"></path><path id="Vector_4" d="M42.0665 69.2408C42.2659 69.5832 44.9707 71.1331 45.3696 71.1331C45.7684 71.1331 48.4733 69.5832 48.6727 69.2408C48.8721 68.8983 48.8722 65.7986 48.6728 65.4587C48.4734 65.1163 45.7685 63.5664 45.3697 63.5664C44.9709 63.5664 42.266 65.1163 42.0665 65.4587C41.8671 65.8012 41.8696 68.8983 42.0665 69.2408Z" fill="white"></path></g></svg> 