<?xml version="1.0" encoding="UTF-8"?> <svg xmlns="http://www.w3.org/2000/svg" width="100" height="100" viewBox="0 0 100 100" fill="none"><g clip-path="url(#clip0_9871_996)"><path d="M71.3449 31C72.2896 31.2481 73.0355 31.6315 73.5825 32.1502C74.7487 33.2575 76.8254 35.358 79.8129 38.4516C79.827 38.4661 79.8418 38.4753 79.8573 38.4793C79.8766 38.4846 79.894 38.4865 79.9094 38.4852C79.9442 38.5143 79.9693 38.5532 79.9847 38.602C80.004 38.6627 80.0355 38.7162 80.0793 38.7624C80.8297 39.5503 81.3941 40.1218 81.7725 40.4768C82.9284 41.5617 84.2644 41.6336 85.7806 40.6926C84.6621 41.8751 83.5687 43.0082 82.5004 44.0917C82.149 44.4494 81.7461 44.7906 81.2918 45.1152C79.7704 46.2021 78.4633 45.3429 77.3339 44.1966C74.1212 40.9288 70.7006 37.4393 67.0722 33.728C66.7775 33.4271 66.7627 33.1275 67.0278 32.8292C67.8426 31.9133 68.833 31.3036 69.9992 31H71.3449Z" fill="black"></path><path d="M89.5724 31C90.9252 31.293 91.9987 31.941 92.7928 32.9441C92.8919 33.0681 92.9112 33.2166 92.8507 33.3895C92.8173 33.4885 92.7388 33.6013 92.6152 33.728C90.3061 36.0891 88.0279 38.4107 85.7805 40.6926C84.2643 41.6336 82.9283 41.5617 81.7724 40.4768C81.394 40.1218 80.8296 39.5503 80.0792 38.7624C80.0354 38.7162 80.0039 38.6627 79.9846 38.602C79.9692 38.5532 79.9441 38.5143 79.9093 38.4852C79.9466 38.4747 79.9801 38.4549 80.0097 38.4258C82.4449 35.8984 84.449 33.86 86.0219 32.3106C86.6938 31.6493 87.5053 31.2125 88.4565 31H89.5724Z" fill="black"></path><path d="M98.5001 40.6962V42.4541C98.2323 43.3476 97.8713 44.0419 97.4169 44.5368C96.319 45.7391 94.2287 47.8924 91.146 50.9965C90.4677 51.6274 89.8171 52.2893 89.1941 52.9822C88.2944 53.9819 88.111 55.3776 88.8775 56.5397C88.9444 56.6413 88.92 56.7264 88.8041 56.7951C87.0613 55.0252 85.892 53.8268 85.296 53.1999C84.9691 52.8568 84.7007 52.4721 84.4909 52.0458C83.7631 50.5729 84.6473 49.3633 85.6378 48.3477C89.3164 44.5797 92.7337 41.0888 95.8898 37.8751C96.1819 37.5795 96.478 37.5762 96.7779 37.8652C97.5939 38.6544 98.168 39.5981 98.5001 40.6962Z" fill="black"></path><path d="M23.8304 45.3672C20.5753 45.3672 18.7154 45.3645 18.2507 45.3592C18.1838 45.3592 18.1606 45.3269 18.1812 45.2622C18.4206 44.539 18.8132 43.8936 19.3589 43.3261C20.5405 42.1007 21.8901 42.3402 23.871 42.3402C27.1261 42.3402 28.986 42.3429 29.4507 42.3481C29.5176 42.3481 29.5408 42.3805 29.5202 42.4451C29.2808 43.1684 28.8882 43.8138 28.3425 44.3813C27.1609 45.6067 25.8113 45.3672 23.8304 45.3672Z" fill="black"></path><path d="M64.2784 42.3394C67.755 42.3407 69.6277 42.342 69.8968 42.3433C69.9084 42.3437 69.9199 42.3469 69.9302 42.3525C69.9405 42.3581 69.9493 42.366 69.9561 42.3756C69.9628 42.3852 69.9673 42.3963 69.969 42.4078C69.9708 42.4194 69.9698 42.4312 69.9663 42.4423C69.7101 43.2197 69.2937 43.8895 68.7171 44.4517C68.1289 45.0271 67.4068 45.33 66.5509 45.3604C66.4466 45.3643 65.684 45.3663 64.263 45.3663C60.7865 45.365 58.9137 45.3637 58.6447 45.3624C58.633 45.3619 58.6216 45.3588 58.6113 45.3532C58.601 45.3476 58.5921 45.3396 58.5853 45.33C58.5786 45.3204 58.5742 45.3094 58.5724 45.2978C58.5706 45.2863 58.5716 45.2745 58.5752 45.2634C58.8313 44.486 59.2477 43.8162 59.8243 43.254C60.4125 42.6785 61.1346 42.3757 61.9906 42.3453C62.0948 42.3413 62.8574 42.3394 64.2784 42.3394Z" fill="black"></path><path d="M38.5539 56.5063C37.3163 57.7535 36.0401 57.8565 34.4029 57.7258C33.3886 57.6453 32.5468 57.2216 31.8775 56.4548C31.2674 55.7567 30.9592 54.9126 30.9527 53.9228C30.9231 49.3299 30.9064 46.8236 30.9025 46.4039C30.8922 45.1923 31.3286 44.2098 32.2115 43.4561C32.7045 43.0365 33.2496 42.7289 33.8468 42.5336C33.9176 42.5112 33.953 42.5376 33.953 42.6128C33.9556 44.904 33.9562 48.342 33.9549 52.927C33.9549 54.7345 36.378 55.3343 37.1599 53.6753C37.2847 53.4101 37.3407 52.9996 37.3279 52.444C37.3227 52.2117 37.4006 51.8791 37.5615 51.4462C37.9997 50.2703 39.1215 49.4526 40.2741 49.0745C40.2825 49.072 40.2914 49.0715 40.3 49.0731C40.3085 49.0746 40.3166 49.0781 40.3236 49.0833C40.3305 49.0885 40.3361 49.0952 40.34 49.103C40.3438 49.1107 40.3457 49.1193 40.3455 49.128C40.343 50.9651 40.3391 51.9893 40.334 52.2005C40.3146 52.892 40.3912 53.3969 40.5637 53.7149C40.7542 54.0673 41.0367 54.326 41.4113 54.491C41.6507 54.5979 42.0072 54.6513 42.4809 54.6513C52.9195 54.646 59.2078 54.648 61.3457 54.6573C61.4113 54.6573 61.4345 54.6896 61.4152 54.7543C61.1964 55.496 60.8283 56.1374 60.3108 56.6785C59.4189 57.611 58.5249 57.7555 57.1619 57.7575C55.5182 57.7588 50.362 57.7601 41.6932 57.7614C40.4472 57.7614 39.4529 57.3444 38.7102 56.5103C38.66 56.4535 38.6079 56.4522 38.5539 56.5063Z" fill="black"></path><path d="M1 57.7573V57.6385C1.46337 56.3992 2.2646 55.2569 3.51183 54.8372C3.87351 54.7145 4.48941 54.6524 5.35951 54.6511C8.91069 54.6498 12.4612 54.6491 16.0111 54.6491C16.6534 54.6478 17.1116 54.56 17.3858 54.3858C17.6973 54.1879 17.9167 53.9054 18.0442 53.5385C18.1175 53.33 18.1536 52.9849 18.1523 52.5031C18.1458 50.5459 18.1458 48.5101 18.1523 46.3958C18.1523 46.3337 18.1825 46.3027 18.243 46.3027H21.0792C21.1436 46.3027 21.1764 46.3357 21.1777 46.4017C21.1893 47.0009 21.1938 49.1271 21.1912 52.7803C21.1912 53.1908 21.2285 53.4897 21.3032 53.6771C21.5812 54.3779 22.3496 54.6432 23.0601 54.6412C26.3204 54.6373 28.4899 54.6458 29.5685 54.6669C29.5797 54.6673 29.5907 54.6703 29.6005 54.6757C29.6104 54.6812 29.6188 54.689 29.6252 54.6984C29.6316 54.7079 29.6358 54.7187 29.6373 54.7301C29.6388 54.7415 29.6377 54.7531 29.6341 54.764C29.3033 55.6997 28.8277 56.4302 28.2073 56.9555C27.5612 57.5019 26.7941 57.7757 25.9059 57.777C23.8903 57.781 22.6025 57.7711 22.0426 57.7474C21.3077 57.7157 20.6126 57.4346 19.9575 56.904C19.9073 56.8631 19.8571 56.8624 19.8069 56.902C19.09 57.4643 18.2752 57.7467 17.3626 57.7493C11.9078 57.7573 6.45356 57.7599 1 57.7573Z" fill="black"></path><path d="M65.2534 46.3564V57.5714C65.2534 57.64 65.2199 57.6743 65.153 57.6743H62.3496C62.2801 57.6743 62.2454 57.6387 62.2454 57.5674C62.2441 55.0176 62.2441 52.4638 62.2454 49.906C62.2454 48.1164 63.6432 46.8177 65.209 46.3248C65.2141 46.3232 65.2196 46.3228 65.2249 46.3237C65.2302 46.3245 65.2352 46.3266 65.2395 46.3297C65.2438 46.3327 65.2473 46.3368 65.2497 46.3414C65.2521 46.346 65.2534 46.3512 65.2534 46.3564Z" fill="black"></path><path d="M24.57 52.9211C25.3974 52.9211 26.0682 52.2333 26.0682 51.3849C26.0682 50.5364 25.3974 49.8486 24.57 49.8486C23.7426 49.8486 23.0718 50.5364 23.0718 51.3849C23.0718 52.2333 23.7426 52.9211 24.57 52.9211Z" fill="black"></path><path d="M28.1572 52.9211C28.9846 52.9211 29.6554 52.2333 29.6554 51.3849C29.6554 50.5364 28.9846 49.8486 28.1572 49.8486C27.3297 49.8486 26.6589 50.5364 26.6589 51.3849C26.6589 52.2333 27.3297 52.9211 28.1572 52.9211Z" fill="black"></path><path d="M98.5 59.5236V61.1173C98.1911 62.2774 97.6003 63.2633 96.7276 64.0749C96.4187 64.362 96.1195 64.2472 95.8434 63.9641C93.506 61.5647 91.1595 59.1752 88.8041 56.7956C88.9199 56.727 88.9444 56.6418 88.8774 56.5402C88.111 55.3781 88.2944 53.9825 89.1941 52.9827C89.8171 52.2898 90.4677 51.6279 91.146 50.9971C93.6122 53.4506 95.6587 55.5471 97.2856 57.2866C97.8545 57.895 98.2593 58.6407 98.5 59.5236Z" fill="black"></path><path d="M85.7439 60.2955C84.1916 59.3954 82.8369 59.5056 81.6798 60.6261C80.9564 61.3269 80.365 61.9578 79.9054 62.5187C79.8334 62.5385 79.7883 62.5576 79.7703 62.5761C77.0249 65.4269 74.9886 67.4963 73.6616 68.7844C73.0991 69.3308 72.3738 69.736 71.4857 70H69.8543C68.8477 69.7043 67.9345 69.1461 67.1146 68.3252C66.5277 67.7352 66.9428 67.4224 67.4119 66.9453C70.0995 64.2067 73.4273 60.8162 77.3955 56.7736C78.4343 55.7145 79.6892 54.9068 81.087 55.7838C81.5839 56.0939 82.0511 56.4727 82.4887 56.9201C83.5454 57.9997 84.6305 59.1249 85.7439 60.2955Z" fill="black"></path><path d="M33.814 61.8948C34.6415 61.8948 35.3122 61.207 35.3122 60.3585C35.3122 59.5101 34.6415 58.8223 33.814 58.8223C32.9866 58.8223 32.3158 59.5101 32.3158 60.3585C32.3158 61.207 32.9866 61.8948 33.814 61.8948Z" fill="black"></path><path d="M37.4013 61.8987C38.2298 61.8987 38.9014 61.21 38.9014 60.3605C38.9014 59.511 38.2298 58.8223 37.4013 58.8223C36.5728 58.8223 35.9011 59.511 35.9011 60.3605C35.9011 61.21 36.5728 61.8987 37.4013 61.8987Z" fill="black"></path><path d="M85.7439 60.2953C88.0286 62.6194 90.348 64.9819 92.7021 67.3826C92.8399 67.5225 92.8933 67.6848 92.8624 67.8696C92.8405 67.995 92.762 68.1296 92.6268 68.2735C91.8327 69.1221 90.8789 69.6975 89.7656 69.9998H88.2924C87.4018 69.7596 86.6469 69.3372 86.0277 68.7328C84.3365 67.0777 82.2957 65.0063 79.9055 62.5185C80.365 61.9576 80.9565 61.3267 81.6798 60.6259C82.837 59.5054 84.1917 59.3952 85.7439 60.2953Z" fill="black"></path></g><defs><clipPath id="clip0_9871_996"><rect width="97.5" height="39" fill="white" transform="translate(1 31)"></rect></clipPath></defs></svg> 