<?xml version="1.0" encoding="UTF-8"?> <svg xmlns="http://www.w3.org/2000/svg" width="100" height="100" viewBox="0 0 100 100" fill="none"><g clip-path="url(#clip0_9871_821)"><path d="M37.385 19.6488H35.5786C35.5624 19.3207 35.5648 18.9919 35.5858 18.6641C35.6218 18.4376 35.7437 18.2336 35.9263 18.0942C36.1089 17.9548 36.3383 17.8908 36.567 17.9153C36.7896 17.9259 36.9994 18.0225 37.1519 18.1846C37.3044 18.3467 37.3878 18.5616 37.3843 18.7838C37.3879 19.0564 37.385 19.329 37.385 19.6488Z" fill="black"></path><path d="M34.2161 17.6885C34.5586 17.9753 34.8041 18.3605 34.9189 18.7916C35.0338 19.2227 35.0124 19.6787 34.8577 20.0972C34.3431 19.4457 33.9297 18.803 33.4867 18.1652C33.7014 17.9667 33.9479 17.8056 34.2161 17.6885Z" fill="black"></path><path d="M36.2265 17.3948C36.06 17.1855 35.933 16.9477 35.8517 16.6932C36.0983 16.5286 36.3717 16.4079 36.6596 16.3364C36.8856 16.6468 37.0638 16.9891 37.1884 17.352C36.8484 17.4574 36.5422 17.2562 36.2265 17.3948Z" fill="black"></path><path d="M37.3683 61.6508C38.3668 62.6339 39.396 63.4935 40.3904 64.3963V72.5248C39.6274 73.2528 38.788 73.9106 38.0405 74.7212L35.6108 72.5436V64.1806L37.426 65.7868V71.8194L37.9803 72.3474C38.1866 72.2081 38.3773 72.0473 38.5492 71.8675V65.0715C36.5256 63.2086 34.4198 61.4362 32.3392 59.6333V51.6999L31.7582 51.1753L31.1881 51.6833V73.0604L29.3876 74.6975V50.9882L31.7766 48.8479L34.1474 51.0046V58.9368L35.5529 60.1813V29.8569H37.369L37.3683 61.6508Z" fill="black"></path><path d="M47.1576 74.6881L44.7278 72.5139V64.1849L46.5259 65.7689V71.8054L47.1094 72.3414L47.6677 71.8394V65.0311L44.6688 62.3504V61.9807C44.6688 57.7709 44.6513 53.5608 44.6813 49.351C44.6539 48.2991 44.7496 47.2476 44.9666 46.2179C45.3169 44.8702 46.0337 43.6453 47.038 42.6783C48.1314 41.5647 49.4263 40.7774 50.7803 40.0447C53.119 38.7789 55.4407 37.4815 57.7695 36.1978C57.8106 36.1754 57.8532 36.1553 57.9113 36.126L59.2476 36.8356C58.4199 37.2897 57.6353 37.721 56.85 38.1511C55.1161 39.1002 53.3616 40.0135 51.6546 41.0085C50.2443 41.7866 48.9909 42.8186 47.9577 44.0522C47.5524 44.6027 47.2484 45.2206 47.06 45.8772C46.7134 46.8855 46.5302 47.9425 46.5173 49.0084C46.5066 53.171 46.5124 57.3325 46.5124 61.4946C46.5124 61.5539 46.5173 61.613 46.5212 61.6992L49.5123 64.3671V72.4855C48.7528 73.2169 47.9186 73.8643 47.1576 74.6881Z" fill="black"></path><path d="M55.7689 34.9868L57.3535 35.8305C56.6767 36.1886 56.0447 36.5243 55.4112 36.8573C53.2589 37.9895 51.0838 39.0809 48.961 40.2657C47.4183 41.1267 45.9665 42.1456 45.041 43.714C44.233 45.0856 43.8583 46.601 43.7009 48.1727C43.5766 49.4125 43.6347 50.6568 43.6336 51.9007C43.6294 58.5985 43.6288 65.2962 43.6316 71.994V72.6806C42.9911 73.2697 42.3364 73.8718 41.6674 74.4871C41.604 74.3614 41.5844 74.2181 41.6118 74.08C41.6095 65.7797 41.6095 57.4792 41.6118 49.1784C41.6118 47.7996 41.7164 46.4385 42.1645 45.1134C42.5759 43.8593 43.2985 42.7294 44.2651 41.8285C45.55 40.6412 46.9875 39.6296 48.5397 38.8202C50.8588 37.5925 53.1754 36.3616 55.4897 35.1276C55.5739 35.0819 55.66 35.0412 55.7689 34.9868Z" fill="black"></path><path d="M67.7192 65.7837V71.8215L68.289 72.3389L68.8413 71.8522V65.0284C67.9573 64.2382 67.063 63.4258 66.1513 62.6338C66.0494 62.5539 65.9683 62.4508 65.9147 62.3331C65.8611 62.2154 65.8368 62.0866 65.8437 61.9575C65.8547 57.5791 65.8906 53.2003 65.8423 48.8224C65.8199 46.7053 64.937 44.8807 63.4843 43.3519C62.6943 42.5203 61.8388 41.7507 60.9838 40.9251L61.9908 40.3589C62.6921 40.9598 63.3882 41.5591 64.0299 42.2182C64.9583 43.1725 65.8603 44.154 66.4889 45.3379C66.9934 46.2879 67.4606 47.2643 67.6532 48.3328C67.7038 48.7602 67.7166 49.1912 67.6916 49.6209C67.6916 53.5926 67.6895 57.5643 67.6853 61.5361C67.6853 61.5831 67.6922 61.6301 67.6979 61.7015L70.6896 64.3693V72.4813C69.9473 73.2118 69.0978 73.8599 68.3366 74.6877L65.909 72.5193V64.1865L67.7192 65.7837Z" fill="black"></path><path d="M53.8334 52.3816L56.2524 50.2197L58.6123 52.3682V61.6705L61.624 64.3561V72.5022C60.8691 73.2139 60.0463 73.8723 59.281 74.6849L56.8407 72.5045V64.1712L58.663 65.7825V71.825L59.2382 72.3398L59.7909 71.8398V65.0319L56.8101 62.3638V53.1098C56.6364 52.9042 56.4421 52.7167 56.2302 52.5503L55.6546 53.0581V60.3056L53.8334 58.6969V52.3816Z" fill="black"></path><path d="M61.6118 38.0825C62.0344 38.3423 62.4985 38.4918 62.8428 38.836C62.7804 38.9676 62.6601 39.0075 62.5593 39.0661C60.6445 40.1811 58.7136 41.2689 56.8179 42.4152C55.54 43.188 54.3887 44.1161 53.6346 45.455C52.9232 46.6819 52.5427 48.0716 52.5303 49.4888C52.511 57.0824 52.5213 64.676 52.5213 72.2699V72.6866L50.4932 74.5495V74.2055C50.4932 66.0498 50.4959 57.894 50.5015 49.7383C50.4993 47.8102 51.1263 45.9338 52.2879 44.3925C53.1597 43.2307 54.2663 42.2643 55.5362 41.5558C57.5506 40.3986 59.5698 39.2494 61.6118 38.0825Z" fill="black"></path><path d="M59.0015 42.1379L60.1651 41.4478C61.6533 42.8713 63.1423 44.2745 63.9579 46.2184C64.2553 46.8312 64.4859 47.4739 64.646 48.1357C64.6944 48.393 64.7188 48.6543 64.7189 48.9161C64.7174 56.653 64.7169 64.3897 64.7175 72.1262V72.6799L62.739 74.4973C62.6383 74.3839 62.6858 74.2735 62.6858 74.1744C62.6831 66.2942 62.6831 58.4141 62.6858 50.5339C62.6858 49.9489 62.7175 49.3637 62.6997 48.7795C62.6324 46.5331 61.6752 44.6912 60.0805 43.1486C59.7362 42.8169 59.3834 42.4953 59.0015 42.1379Z" fill="black"></path><path d="M38.5602 60.9938V60.5523C38.5602 56.2576 38.5391 51.963 38.5678 47.6685C38.5598 46.3437 38.8162 45.0304 39.3222 43.8054C39.8281 42.5803 40.5735 41.4679 41.515 40.533C42.8516 39.1665 44.485 38.2532 46.1933 37.4419C48.5527 36.3214 50.8988 35.1735 53.2508 34.0378C53.3688 33.9809 53.4893 33.929 53.6363 33.8623L54.9568 34.6163C54.6474 34.7796 54.3794 34.924 54.1087 35.0639C51.3721 36.4754 48.6104 37.8416 45.906 39.3115C43.8983 40.3771 42.307 42.0834 41.3866 44.1574C40.6251 45.8462 40.3946 47.6103 40.396 49.4309C40.3994 53.6532 40.3994 57.8761 40.396 62.0996C40.4211 62.2591 40.3991 62.4224 40.3327 62.5696L38.5602 60.9938Z" fill="black"></path><path d="M69.062 35.8118L77.8859 33.5631C78.014 33.8487 78.1011 34.1509 78.1447 34.4607L64.3612 38.2026C64.1184 38.0486 64.1579 37.8378 64.1478 37.606L69.2685 34.1819C67.4019 34.821 65.6 35.624 63.7476 36.2813C63.5984 36.0748 63.5073 35.8322 63.4835 35.5788L70.6924 29.81L70.652 29.7465L62.8394 34.5006C62.7345 34.4138 62.6493 34.3058 62.5897 34.1836C62.5301 34.0614 62.4974 33.9279 62.4938 33.792L74.4764 26.2402C74.689 26.5889 74.8712 26.8877 75.0694 27.2122L67.9637 33.337L67.9998 33.393L76.5167 30.0202C76.6525 30.1971 76.7542 30.3975 76.8167 30.6114L69.0422 35.7478L69.062 35.8118Z" fill="black"></path><path d="M60.115 31.0047C59.8868 30.8807 59.6967 30.697 59.5652 30.4734L63.1156 21.9772L63.0581 21.9485L58.5584 29.7179C58.2703 29.6563 58.1455 29.4406 57.9105 29.2703C60.1898 25.1884 62.4639 21.116 64.733 17.0532C65.0826 17.1742 65.4134 17.3434 65.7158 17.5561C64.6058 20.5111 63.4961 23.4652 62.3869 26.4184L62.4475 26.4547L68.2686 19.4358C68.4777 19.492 68.6592 19.6223 68.7789 19.8023C67.3362 22.5497 65.8905 25.3024 64.4419 28.0604L64.5001 28.1099L71.0633 21.9725C71.3506 22.1321 71.4962 22.3829 71.7366 22.6157L61.5029 32.4838C61.2706 32.3795 61.2012 32.1942 61.072 32.0163L63.8863 26.6004C62.5772 28.034 61.3969 29.5695 60.115 31.0047Z" fill="black"></path><path d="M52.0115 13.0341C52.388 13.0284 52.7625 13.089 53.1179 13.2131C53.3746 16.331 53.6296 19.429 53.8845 22.5271L53.9691 22.5389C54.7172 19.6246 55.4646 16.7131 56.2114 13.8044C56.4275 13.6864 56.5953 13.8176 56.8418 13.8664C56.712 16.9606 56.5824 20.0557 56.4528 23.1517L56.5374 23.1741L59.8214 14.9041C60.1292 14.9681 60.4292 15.0649 60.7162 15.1928L55.7594 28.25L55.0971 28.0228C55.17 26.0689 55.2427 24.1268 55.3152 22.1846L55.2454 22.1719L53.845 27.5994L53.0672 27.4175C52.9261 24.3686 52.7852 21.3277 52.6444 18.2946H52.5817L51.8452 27.0524C51.5505 27.1382 51.3411 27.0225 51.0613 27.005C51.3782 22.3435 51.6933 17.7072 52.0115 13.0341Z" fill="black"></path><path d="M38.4463 15.4334C38.7993 15.2604 39.0338 14.9858 39.4587 14.9634L44.3735 22.9261L44.4523 22.8943C43.8055 19.9908 43.159 17.0889 42.5126 14.1886C42.6856 14.0463 42.9026 13.9681 43.1269 13.9671L46.9564 22.34L47.0363 22.3243C46.7631 19.3788 46.4898 16.4301 46.2163 13.4781C46.5187 13.395 46.8308 13.3518 47.1445 13.3496C47.6412 17.9356 48.136 22.5049 48.6288 27.0574C48.3923 27.1499 48.1367 27.1836 47.8842 27.1556L45.5053 22.0054L45.4337 22.0262C45.8233 23.7779 46.2129 25.5295 46.6072 27.3015L45.7641 27.4947L41.3963 19.8043L41.3308 19.8348C42.408 22.4804 43.4867 25.1279 44.5668 27.7775C44.3559 27.9551 44.0838 28.0435 43.8085 28.0237C42.0324 23.8524 40.2518 19.6725 38.4463 15.4334Z" fill="black"></path><path d="M34.888 40.7403C34.9321 40.9721 34.9411 41.2092 34.9147 41.4437L29.3223 43.1329L29.329 43.2018L34.8299 42.756C34.9627 43.0391 34.8346 43.3155 34.8422 43.6219L26.4984 46.9135L26.5177 46.9733L34.8887 44.8637C35.0139 45.1498 34.9172 45.3825 34.936 45.6694L21.8983 49.1712C21.7267 48.8386 21.6036 48.4833 21.5328 48.116L30.1506 44.3546L30.1408 44.2832L21.1719 44.9982C21.1106 44.9048 21.0686 44.8002 21.0483 44.6904C21.028 44.5806 21.0299 44.4679 21.0538 44.3589L29.8712 41.7429L29.8674 41.6534L21.0428 41.2521C20.9549 40.9404 21.026 40.6732 21.041 40.314L34.888 40.7403Z" fill="black"></path><path d="M34.8249 37.3942C34.869 37.6608 34.8704 37.9327 34.8292 38.1998L21.6315 35.7535C21.6562 35.3782 21.7597 35.0122 21.9353 34.6793L31.2954 35L31.3178 34.9223L22.857 31.6773C22.8912 31.4644 22.9706 31.2612 23.0898 31.0813L32.2535 32.536L32.2844 32.4727L24.4431 28.2702C24.5066 27.9412 24.7238 27.7485 24.9018 27.4585L34.8958 32.6186V34.11L31.0391 33.5299L31.0245 33.5945L34.8422 35.0544V36.2835L26.9027 35.7226L26.8899 35.7916L34.8249 37.3942Z" fill="black"></path><path d="M49.4518 62.5382L47.6788 60.9662V60.5661C47.6788 56.7503 47.6797 52.9346 47.6815 49.1189C47.6831 48.1738 47.7309 47.2267 48.063 46.3288C48.6813 44.6566 49.7806 43.3447 51.1644 42.2392C52.0826 41.5482 53.0551 40.9321 54.0724 40.3966C55.98 39.3186 57.8861 38.2361 59.8188 37.1406L60.9721 37.7482C60.7243 37.9536 60.4545 38.1311 60.1678 38.2777C57.9868 39.6017 55.8034 40.9214 53.6175 42.2369C51.7939 43.3315 50.4675 44.8245 49.814 46.8715C49.6118 47.5226 49.5124 48.2012 49.5196 48.8828C49.5218 53.2841 49.5218 57.686 49.5196 62.0883C49.5424 62.2417 49.5188 62.3983 49.4518 62.5382Z" fill="black"></path><path d="M70.6266 62.5373L68.8536 60.964V60.6435C68.8536 56.8656 68.824 53.0873 68.868 49.3098C68.929 47.646 68.5206 45.9986 67.6893 44.5548C67.1311 43.633 66.4234 42.8099 65.5952 42.119C64.7148 41.3652 63.8187 40.6285 62.9508 39.7846L63.9181 39.1953C64.6501 39.7911 65.3919 40.3568 66.0903 40.9718C67.3042 42.0407 68.493 43.1467 69.32 44.5555C69.9225 45.5825 70.5256 46.6262 70.6429 47.8506C70.6838 48.2774 70.6928 48.7087 70.693 49.1379C70.6966 53.4657 70.6966 57.7936 70.693 62.1217C70.7158 62.2637 70.6925 62.4093 70.6266 62.5373Z" fill="black"></path><path d="M73.9124 42.7967H69.9969C69.6565 42.547 69.3454 42.2599 69.0694 41.9409L75.768 39.7891L75.7552 39.7219L67.6252 40.5798C67.3801 40.2331 66.9825 40.1017 66.8536 39.6371L78.9052 38.2881C78.9389 38.3559 78.9667 38.4265 78.988 38.4991C79.039 38.8042 79.0841 39.1101 79.1397 39.4715L73.2279 41.7766L73.232 41.8456L79.058 42.1069C79.1109 42.1809 79.1453 42.2664 79.1583 42.3563C79.1713 42.4462 79.1625 42.5379 79.1328 42.6237L74.4145 43.7516L74.4178 43.8244L78.986 44.2619C78.9391 44.4774 78.9882 44.6479 78.8437 44.8075L70.7579 44.3375C70.6556 44.1397 70.5647 43.964 70.4345 43.712L73.9232 42.8929L73.9124 42.7967Z" fill="black"></path><path d="M61.5413 62.5057L59.8058 60.9682V60.547C59.8058 56.9361 59.7863 53.3247 59.8146 49.7137C59.8336 47.2672 58.9139 45.234 57.2404 43.4985C57.1687 43.4417 57.0917 43.392 57.0104 43.3501C57.2492 43.199 57.4143 43.0905 57.5847 42.9882C57.7467 42.8904 57.9132 42.7995 58.093 42.6973C59.2219 43.7768 60.1523 45.0453 60.842 46.4452C61.4032 47.608 61.6814 48.8865 61.6539 50.1768C61.6104 54.146 61.638 58.1162 61.638 62.0861V62.4665L61.5413 62.5057Z" fill="black"></path><path d="M57.4426 77.1675C57.2568 77.6786 57.0661 78.1018 56.6599 78.295C56.0842 78.5687 55.6275 78.9887 55.1326 79.3605C53.2939 80.7402 51.3688 81.9612 49.1565 82.6677C47.5018 83.227 45.7361 83.3798 44.0095 83.1131C43.8524 83.1849 43.8612 83.3389 43.8383 83.4774C43.6015 84.9059 43.0752 86.1916 41.9655 87.1777C41.3146 87.756 40.5624 88.0883 39.6692 87.9789C38.8509 87.8784 38.418 87.3413 38.269 86.5913C38.0275 85.3777 38.5138 84.3086 39.0208 83.2545C39.0183 83.4953 38.9594 83.7322 38.8489 83.9463C38.6775 84.3548 38.6036 84.7975 38.633 85.2394C38.6588 85.535 38.7809 85.8141 38.9806 86.0341C39.1804 86.2541 39.4469 86.4028 39.7394 86.4575C40.2225 86.5942 40.7345 86.592 41.2165 86.4512C41.6984 86.3104 42.1306 86.0366 42.4632 85.6615C42.8105 85.3199 43.0819 84.9094 43.2597 84.4566C43.4376 84.0037 43.5179 83.5186 43.4956 83.0327C43.4803 82.7221 43.4878 82.4108 43.518 82.1013C43.5587 81.7153 43.7849 81.5315 44.1152 81.6089C46.7199 82.2152 49.1872 81.7014 51.5796 80.6735C53.3193 79.9258 54.8618 78.8464 56.358 77.7006C56.6703 77.437 57.0428 77.2539 57.4426 77.1675Z" fill="black"></path><path d="M58.0437 79.4112C57.9032 80.336 57.7703 81.2079 57.6386 82.08C57.5834 82.4461 57.5297 82.8125 57.4777 83.1791C57.4553 83.3455 57.4646 83.5145 57.5051 83.6775C57.5318 83.8317 57.6021 83.975 57.7079 84.0906C57.8136 84.2062 57.9503 84.2892 58.1018 84.3298C58.2477 84.3696 58.4022 84.3657 58.5459 84.3184C58.6896 84.2712 58.8161 84.1828 58.9097 84.0642C59.1241 83.8404 59.3099 83.5877 59.5269 83.3662C59.6098 83.2623 59.723 83.1867 59.8509 83.1496C59.9787 83.1126 60.115 83.116 60.2408 83.1594C62.7586 84.042 65.2356 83.5808 67.6892 82.8875C69.4714 82.3471 71.1464 81.5034 72.6402 80.3937C73.0693 80.0889 73.5123 79.8024 73.9574 79.5209C74.0219 79.4601 74.1003 79.4159 74.1858 79.392C74.2713 79.368 74.3613 79.3651 74.4482 79.3835C74.4228 79.5919 74.3499 79.7917 74.235 79.9676C74.1202 80.1435 73.9663 80.2908 73.7854 80.3982C72.7928 80.8818 71.995 81.6369 71.0805 82.2264C68.9917 83.5727 66.7599 84.5505 64.2822 84.9072C63.2003 85.0646 62.1003 85.0522 61.0222 84.8705C60.6065 84.8047 60.2102 84.6489 59.8613 84.414C59.4593 84.1412 59.3294 84.1736 59.0309 84.5677C58.8792 84.7692 58.7392 84.9771 58.5821 85.172C58.4392 85.3656 58.251 85.5213 58.0338 85.6256C57.5486 85.8382 57.1734 85.6728 57.0365 85.1608C56.8722 84.5458 56.9525 83.9241 57.0443 83.31C57.2261 82.0957 57.3215 80.861 57.8298 79.7174C57.8691 79.6256 57.8691 79.5079 58.0437 79.4112Z" fill="black"></path><path d="M62.1842 33.4787C61.9745 33.2863 61.8248 33.0376 61.7531 32.7626L72.8964 24.0327C73.1237 24.2514 73.3071 24.5112 73.437 24.7983L62.1842 33.4787Z" fill="black"></path><path d="M57.2209 28.9017C56.9511 28.8239 56.6986 28.6955 56.4769 28.5235C58.4541 24.2828 60.4335 20.0369 62.4152 15.7856C62.7327 15.8332 63.0276 15.9776 63.2595 16.199L57.2209 28.9017Z" fill="black"></path><path d="M50.4674 26.9861C50.1939 27.0429 49.912 27.0466 49.6371 26.9973C49.408 22.3543 49.1791 17.7142 48.9503 13.0771C49.253 12.98 49.5777 12.9745 49.8835 13.0613C50.0777 17.6867 50.2723 22.3283 50.4674 26.9861Z" fill="black"></path><path d="M34.894 39.1996C34.9878 39.4697 34.9907 39.7629 34.9023 40.0348L21.1883 38.5479C21.1664 38.2365 21.1841 37.9237 21.2408 37.6167L34.894 39.1996Z" fill="black"></path><path d="M78.59 36.252C78.6508 36.615 78.7527 36.8754 78.6773 37.1782L65.6244 39.2202L64.8654 38.6327L64.8712 38.5186C69.4268 37.7236 73.9938 36.9903 78.59 36.252Z" fill="black"></path><path d="M34.2596 27.0734C33.5397 26.727 32.9499 26.308 32.2829 26.0108L34.2354 27.5602V28.4956L34.1476 28.576C31.9501 26.9539 29.803 25.2651 27.6304 23.6265C27.8075 23.2973 28.0438 23.0033 28.3274 22.7593L34.2596 26.0164V27.0734Z" fill="black"></path><path d="M22.5817 51.7977L22.2861 50.9128L34.9302 46.2017C35.0752 46.5011 35.0125 46.7585 34.9975 47.0646L22.5817 51.7977Z" fill="black"></path><path d="M27.6571 80.5235C27.5139 80.8144 27.3878 81.0671 27.2661 81.3205C26.9554 81.9267 26.7172 82.5673 26.5563 83.229C26.2757 84.5196 26.9061 85.2765 28.2195 85.1718C29.1737 85.0957 29.8609 84.5651 30.3342 83.7504C30.3659 83.6804 30.3889 83.6069 30.4029 83.5313C30.2907 83.2601 30.0398 83.2455 29.8324 83.1733C29.2801 82.981 29.1497 82.7906 29.2669 82.2051C29.4729 81.1757 30.0393 80.3373 30.7341 79.5775C31.0053 79.2569 31.3252 78.9806 31.6821 78.7587C31.9164 78.6244 32.1633 78.521 32.4027 78.8166C32.3255 79.2424 32.106 79.6297 31.78 79.9152C30.9523 79.9448 30.0934 80.6486 29.8144 81.5098C29.8546 81.7884 30.0936 81.8506 30.305 81.9146C30.4662 81.9457 30.6088 82.038 30.7029 82.1721C30.7971 82.3061 30.8352 82.4714 30.8093 82.633C30.7757 83.3397 30.5849 84.0301 30.2506 84.6542C29.9163 85.2782 29.447 85.8203 28.8766 86.2411C28.6351 86.4211 28.355 86.5426 28.0583 86.5962C26.7273 86.8561 25.8509 86.0144 25.955 84.5727C26.0585 83.1383 26.6483 81.8797 27.3913 80.6786C27.4151 80.6293 27.4531 80.5882 27.5005 80.5606C27.5478 80.533 27.6023 80.5201 27.6571 80.5235Z" fill="black"></path><path d="M34.7422 28.8668V24.9703C35.0431 24.9218 35.349 24.9116 35.6525 24.94V27.8595C35.7671 27.9868 35.8639 27.9434 35.9976 27.9459V24.9568H36.9288V27.8742C36.9776 27.9162 37.0381 27.9424 37.1022 27.9495C37.1663 27.9565 37.231 27.944 37.2878 27.9136V24.9533H38.2026V28.8668H34.7422Z" fill="black"></path><path d="M25.8165 25.8976C25.957 25.6163 26.1441 25.3607 26.37 25.1416L34.8806 30.7951C34.9228 31.1315 34.9148 31.4723 34.8568 31.8063L25.8165 25.8976Z" fill="black"></path><path d="M38.2105 19.0464L43.4661 28.344C43.2493 28.5575 43.004 28.5973 42.8153 28.7166C42.6582 28.6857 42.6256 28.5568 42.5684 28.4577C41.089 25.8894 39.6104 23.3207 38.1325 20.7515C38.0478 20.608 38.0075 20.4428 38.0166 20.2766C38.031 19.8773 38.0211 19.4772 38.0211 19.0775L38.2105 19.0464Z" fill="black"></path><path d="M51.2727 82.9784C51.1875 83.1828 51.099 83.3858 51.0178 83.5914C50.8218 84.0157 50.7099 84.4738 50.6883 84.9405C50.6789 85.1878 50.7465 85.432 50.882 85.6394C51.0175 85.8469 51.2142 86.0073 51.4449 86.0986C52.9373 86.7816 55.1815 85.6311 55.4858 84.0251C55.5437 83.6582 55.5452 83.2846 55.4903 82.9171C55.4053 82.1918 55.684 81.5743 56.0803 80.9741C56.0803 81.4284 56.094 81.8834 56.0779 82.337C56.0153 84.0943 55.4315 85.6329 54.1236 86.8544C53.8394 87.1398 53.5 87.3645 53.126 87.5149C52.752 87.6654 52.3512 87.7383 51.948 87.7294C50.9498 87.7008 50.3243 87.133 50.2476 86.1452C50.1558 84.9651 50.5986 83.9345 51.1612 82.9449L51.2727 82.9784Z" fill="black"></path><path d="M34.1074 82.8223C34.4165 82.8693 34.5074 83.1372 34.7758 83.1462C35.0251 83.0065 35.1651 82.7321 35.3557 82.5083C35.6583 82.1068 36.002 81.7378 36.3813 81.4073C36.5685 81.2622 36.7628 81.1463 37.0043 81.288C37.1094 81.3485 37.193 81.4401 37.2435 81.5502C37.2939 81.6602 37.3087 81.7832 37.2857 81.9021C37.1892 82.7427 36.6863 83.3404 36.0783 83.8699C35.8596 84.0585 35.6028 84.198 35.3254 84.279C34.701 84.4668 34.4593 84.3909 34.054 83.8762C33.9977 83.79 33.9464 83.7007 33.9003 83.6088C33.5071 84.2479 32.8951 84.5603 32.6783 85.2082C32.3955 86.0526 31.7063 86.372 30.9033 86.5286C30.8559 86.5358 30.8078 86.5358 30.7604 86.5286C30.7404 86.5266 30.7222 86.5062 30.652 86.4637C31.246 85.9989 31.9312 85.6643 32.3901 85.0428C32.2517 84.945 32.1413 85.0404 32.0326 85.0442C31.597 85.059 31.3419 84.7828 31.4491 84.3616C31.5638 83.914 31.6848 83.4602 32.0813 83.1715C32.6489 83.2232 32.7564 83.6356 32.8668 84.0781C33.4517 83.8048 33.6453 83.1495 34.1074 82.8223ZM35.0677 83.137C35.761 83.2086 36.5346 82.8369 36.7873 82.3313C36.4466 81.9515 35.9798 82.095 35.0677 83.137Z" fill="black"></path><path d="M42.3741 28.8995C42.2255 29.0854 42.0255 29.2238 41.7989 29.2976L38.7421 27.1008C38.7421 26.4413 38.7454 25.7885 38.7409 25.1355C38.7371 24.5858 38.5614 24.3499 38.0169 24.1857C37.97 23.8144 37.966 23.4389 38.0053 23.0667L38.1271 23.0161L42.3741 28.8995Z" fill="black"></path><path d="M47.1616 83.9548C47.0943 84.5924 46.8039 85.2821 47.6515 85.618C47.8933 85.6914 48.1523 85.6853 48.3903 85.6006C48.6283 85.516 48.8327 85.3574 48.9734 85.1481C48.9624 85.0138 48.8704 84.9444 48.7346 84.8795C48.6038 84.9178 48.4577 84.9726 48.3069 85.0019C48.0315 85.055 47.7009 84.83 47.759 84.5857C47.8575 84.0026 48.1561 83.4717 48.6038 83.084C49.0564 83.1695 49.372 83.5618 49.4613 84.1045C49.6141 85.0355 48.8877 86.5018 48.0474 86.9566C47.3423 87.3384 46.7393 87.0996 46.252 86.2147C45.8326 86.9268 45.212 87.2314 44.3063 87.1915C44.9387 86.6681 45.5938 86.3297 46.086 85.7901C46.5736 85.2575 46.7927 84.5695 47.1616 83.9548Z" fill="black"></path><path d="M37.3634 20.1943V24.3366H35.5875V20.1943H37.3634Z" fill="black"></path><path d="M71.2658 46.2656C71.1775 45.9797 71.1493 45.6786 71.183 45.3813L78.9045 45.8578C78.9159 45.9355 78.9207 46.0141 78.9189 46.0926C78.8922 46.2683 78.8569 46.4426 78.8139 46.6796L71.2658 46.2656Z" fill="black"></path><path d="M30.5374 20.518C30.6753 20.3432 30.853 20.2038 31.0558 20.1113L34.871 22.8766V24.1522C34.6182 24.2336 34.4051 24.4065 34.274 24.6369L30.5374 20.518Z" fill="black"></path><path d="M78.516 48.0269C78.5102 48.3035 78.4601 48.5774 78.3676 48.8382L71.6001 48.0956C71.4865 47.8124 71.4574 47.5025 71.5162 47.2031L78.516 48.0269Z" fill="black"></path><path d="M23.4265 53.9319L23.0826 53.0664L28.886 50.3408C29.0312 50.67 28.9641 50.9625 28.9599 51.2857L23.4265 53.9319Z" fill="black"></path><path d="M77.8856 50.0048C77.9814 50.2993 77.8225 50.5095 77.8239 50.8259L71.5687 49.9836C71.4426 49.7081 71.5052 49.435 71.452 49.0884L77.8856 50.0048Z" fill="black"></path><path d="M23.8939 54.9337L28.8896 52.2705C29.0379 52.5979 28.9536 52.9032 28.9708 53.2375L24.3702 55.7344C24.1204 55.5238 24.0546 55.2405 23.8939 54.9337Z" fill="black"></path><path d="M77.2694 52.2189C77.1612 52.5322 77.1671 52.7784 76.9866 52.9997L71.4351 51.9479C71.3682 51.6567 71.3583 51.3554 71.4061 51.0605L77.2694 52.2189Z" fill="black"></path><path d="M71.4195 53.8033C71.3553 53.5122 71.3637 53.2099 71.4439 52.9229L76.4217 54.1956C76.3543 54.4046 76.3045 54.5485 76.2598 54.6935C76.2496 54.7459 76.2291 54.7958 76.1994 54.8403C76.1698 54.8849 76.1317 54.9231 76.0873 54.9529L71.4195 53.8033Z" fill="black"></path><path d="M28.8624 54.4229C29.0213 54.7695 28.8752 55.0719 28.9695 55.4022L25.475 57.4667C25.2773 57.2243 25.1283 56.9462 25.036 56.6476L28.8624 54.4229Z" fill="black"></path><path d="M71.7593 78.9235C71.8376 78.516 72.0649 78.1521 72.397 77.9024C72.7292 77.6526 73.1426 77.5348 73.5569 77.5718C74.0226 77.6202 74.4933 77.5686 74.9374 77.4205C75.3814 77.2724 75.7885 77.0312 76.1313 76.7131C76.2469 76.6148 76.3288 76.4722 76.5076 76.4248C76.5985 76.5958 76.4814 76.7211 76.4136 76.8437C76.0593 77.4609 75.5263 77.957 74.8844 78.267C74.2426 78.5769 73.5218 78.6863 72.8165 78.5809C72.5531 78.5624 72.2907 78.6285 72.0676 78.7695C71.9646 78.8179 71.8939 78.9333 71.7593 78.9235Z" fill="black"></path><path d="M75.3137 56.2092C75.3011 56.4913 75.2093 56.7641 75.0489 56.9968L71.4049 55.8433C71.3413 55.5449 71.3501 55.2357 71.4305 54.9414L75.3137 56.2092Z" fill="black"></path><path d="M28.9053 56.4961C28.9861 56.8332 29.0023 57.1825 28.9531 57.5256L26.3947 59.0313C26.199 58.7874 26.0551 58.5065 25.9717 58.2055L28.9053 56.4961Z" fill="black"></path><path d="M60.8623 80.3664L60.234 79.8833C59.9914 80.0939 59.9198 80.4613 59.5712 80.5712C59.3167 80.4244 59.084 80.2427 58.88 80.0314C59.0467 79.656 59.261 79.3034 59.5176 78.9823C59.8603 79.0091 60.0194 79.2801 60.2618 79.4413C60.4721 79.2244 60.5708 78.925 60.8251 78.7334C61.1465 78.8419 61.4458 79.0181 61.4793 79.3656C61.5228 79.8148 61.1853 80.084 60.8623 80.3664Z" fill="black"></path><path d="M49.1147 78.7398C48.8997 78.9777 48.8023 79.3015 48.4533 79.4387L47.776 78.9164C47.9399 78.529 48.1559 78.1656 48.4181 77.8363C48.7563 77.8636 48.9192 78.1302 49.1558 78.2913C49.3802 78.0899 49.4612 77.7737 49.7296 77.5938C50.0532 77.6938 50.3436 77.8818 50.3834 78.2215C50.4343 78.6572 50.0858 78.9164 49.8167 79.1921C49.5112 79.131 49.3815 78.8609 49.1147 78.7398Z" fill="black"></path><path d="M38.3365 29.5106C39.0628 29.1807 38.6025 28.5259 38.8422 27.9966L40.6977 30.0331C40.5445 30.2694 40.3264 30.4568 40.0693 30.5729C39.4719 30.252 38.8934 29.8973 38.3365 29.5106Z" fill="black"></path><path d="M74.3505 58.0639C74.2109 58.3409 74.1108 58.5399 73.9799 58.7993L71.3975 57.7653C71.3937 57.4576 71.323 57.1877 71.4691 56.8838L74.3505 58.0639Z" fill="black"></path><path d="M28.9747 59.362L27.4013 60.2836C27.2621 60.2044 27.1404 60.098 27.0435 59.9707C26.9466 59.8435 26.8766 59.698 26.8375 59.543L28.8986 58.3457C29.0306 58.7165 28.95 59.033 28.9747 59.362Z" fill="black"></path><path d="M73.6408 80.9312C73.2982 82.4753 73.5616 84.15 72.661 85.6604C72.4905 84.3651 73.0493 81.6182 73.6408 80.9312Z" fill="black"></path><path d="M37.613 83.1855C37.6698 83.525 37.5275 83.8196 37.4404 84.1235C37.292 84.6139 37.1026 85.0911 36.8742 85.55C36.5192 86.2885 35.8899 86.5452 35.1293 86.5975C35.0936 86.5992 35.0578 86.5947 35.0236 86.5841C35.0034 86.5781 34.9879 86.5561 34.9269 86.5051C35.4839 86.0264 36.178 85.7218 36.6101 85.1093C37.0293 84.5138 37.2894 83.8397 37.613 83.1855Z" fill="black"></path><path d="M53.1839 82.8164C53.3622 82.8316 53.5322 82.8983 53.6731 83.0083C53.8141 83.1184 53.9198 83.2669 53.9774 83.4359C54.0416 83.7118 53.7624 84.2254 53.4087 84.4613C53.1405 84.3518 52.8888 84.2056 52.6607 84.0271C52.6583 83.8001 52.7035 83.575 52.7936 83.3665C52.8837 83.1579 53.0167 82.9706 53.1839 82.8164Z" fill="black"></path><path d="M35.6982 78.8926C36.0869 78.9922 36.3526 79.1985 36.4069 79.5326C36.4742 79.9502 36.1686 80.2235 35.9064 80.5032C35.6181 80.3789 35.3467 80.2188 35.0985 80.0268C35.1993 79.6043 35.4056 79.2142 35.6982 78.8926Z" fill="black"></path><path d="M72.6307 60.3154L71.4471 59.7559C71.4138 59.4607 71.4146 59.1627 71.4496 58.8677C72.001 59.0793 72.5353 59.3328 73.0479 59.6259C72.9887 59.8952 72.842 60.1376 72.6307 60.3154Z" fill="black"></path><path d="M38.6504 31.9989C38.4005 31.8558 38.1686 31.6836 37.9594 31.4859C37.9243 31.157 37.9219 30.8255 37.9522 30.4961L39.1354 31.4215C39.0314 31.6556 38.8633 31.8558 38.6504 31.9989Z" fill="black"></path><path d="M27.9845 60.8516L28.888 60.3281C29.0451 60.6723 28.9446 61.0018 28.9744 61.3072C28.8382 61.443 28.672 61.5452 28.4892 61.6058C28.2384 61.4203 28.06 61.1537 27.9845 60.8516Z" fill="black"></path></g><defs><clipPath id="clip0_9871_821"><rect width="58.1633" height="75" fill="white" transform="translate(21 13)"></rect></clipPath></defs></svg> 