<?xml version="1.0" encoding="UTF-8"?> <svg xmlns="http://www.w3.org/2000/svg" width="100" height="100" viewBox="0 0 100 100" fill="none"><g clip-path="url(#clip0_9871_111)"><path fill-rule="evenodd" clip-rule="evenodd" d="M49.5608 16L25 29.6623V55.9081L36.2941 61.4728L48.6602 54.9253L37.2631 48.6702V35.1928L61.3464 22.4268L49.5608 16ZM37.5227 62.5178L49.2572 68.8535L73.7046 55.1004L73.6951 29.102L62.3796 23.474L50.1451 30.0019L61.5341 36.3182L61.532 49.7046L37.5227 62.5178Z" fill="black"></path><path fill-rule="evenodd" clip-rule="evenodd" d="M49.2039 32.1455C51.2031 32.1455 53.1574 32.7443 54.8197 33.8662C56.482 34.9881 57.7776 36.5826 58.5427 38.4482C59.3078 40.3139 59.5079 42.3667 59.1179 44.3472C58.7279 46.3278 57.7652 48.147 56.3515 49.5749C54.9378 51.0028 53.1367 51.9752 51.1759 52.3691C49.2151 52.7631 47.1826 52.5609 45.3356 51.7881C43.4885 51.0153 41.9098 49.7067 40.7991 48.0277C39.6884 46.3487 39.0956 44.3747 39.0956 42.3554C39.0956 41.0146 39.357 39.687 39.865 38.4482C40.373 37.2095 41.1176 36.084 42.0562 35.1359C42.9949 34.1878 44.1092 33.4358 45.3356 32.9227C46.562 32.4096 47.8764 32.1455 49.2039 32.1455Z" fill="#1A1A1A"></path><path fill-rule="evenodd" clip-rule="evenodd" d="M68.3258 75.4823V75.7855C68.3258 76.3389 68.4729 76.7236 68.7669 76.9396C68.9503 77.0638 69.1674 77.1274 69.3882 77.1216C69.5753 77.1216 69.7424 76.9124 69.8895 76.494C69.9161 76.3994 69.9462 76.2914 69.9796 76.1701C70.013 76.0488 70.0564 75.9881 70.1098 75.9881C70.1765 75.9881 70.2099 76.0556 70.21 76.1905C70.2068 76.2722 70.1967 76.3536 70.1799 76.4336C70.1597 76.5415 70.1439 76.6293 70.1297 76.6968C70.01 77.3464 69.7866 77.972 69.4684 78.5493C69.201 78.9882 68.927 79.2075 68.6464 79.2074C68.4498 79.2194 68.2546 79.1667 68.0902 79.0572C67.9258 78.9476 67.8009 78.7872 67.7345 78.5999C67.5524 78.1084 67.4673 77.5857 67.4838 77.0611H67.4788C67.4788 76.8992 67.5522 76.1939 67.6992 74.9455C67.8461 73.697 67.9662 72.742 68.0595 72.0805C68.073 72.0266 68.18 71.7499 68.3804 71.2504C68.5809 70.7509 68.7412 70.373 68.8613 70.1166L68.9417 70.076C68.9525 70.1844 68.9457 70.2939 68.9215 70.4001L68.8413 70.9265L68.5006 73.3967C68.4337 73.8961 68.3869 74.3279 68.3603 74.6923C68.3336 75.0567 68.3202 75.3199 68.3202 75.482C68.3179 75.4896 68.3156 75.4969 68.3134 75.5045L68.3253 75.482L68.3258 75.4823ZM30.22 75.2483L30.2151 75.2647C30.2176 75.9174 30.3779 76.3911 30.696 76.6857C30.9259 76.8976 31.2268 77.0134 31.538 77.0096C31.7551 77.0097 31.9689 76.9562 32.1609 76.8539C32.3529 76.7516 32.5173 76.6035 32.6398 76.4225C32.7922 76.2019 32.9783 76.0071 33.1912 75.8454C33.2521 75.799 33.3216 75.7652 33.3955 75.7461C33.4695 75.727 33.5465 75.7229 33.622 75.734L33.6247 75.7395L34.0997 75.8194C34.1793 75.8192 34.258 75.802 34.3306 75.7688C34.4031 75.7357 34.4679 75.6873 34.5206 75.627C34.6876 75.4388 34.8416 75.2393 34.9815 75.0297C35.3291 74.5034 35.6632 74.2402 35.9838 74.2402C36.1898 74.259 36.3922 74.3067 36.5851 74.3818C37.0558 74.5374 37.5386 74.6525 38.0284 74.726C38.5497 74.8071 38.9205 74.8612 39.1408 74.8881C39.4305 74.9185 39.7217 74.932 40.0129 74.9285L40.0165 74.9345V74.9214L40.658 74.9416C43.7878 74.9369 46.8841 74.2894 49.7585 73.0385C50.9735 72.5127 52.1581 71.9179 53.3065 71.2568C53.7341 71.0141 54.4123 70.5755 55.3409 69.9408C55.982 69.4849 56.6479 69.0656 57.3354 68.685C57.8097 68.4562 58.307 68.2796 58.8188 68.1585C58.9792 68.1181 59.0594 68.1519 59.0594 68.2597C59.0431 68.3517 59.0127 68.4405 58.9693 68.5231C58.8239 68.7827 58.6527 69.0266 58.4581 69.251C58.3645 69.3591 58.231 69.5212 58.0574 69.7371C57.8702 69.8045 57.6831 69.8651 57.4961 69.9191C57.0774 70.0861 56.6803 70.3036 56.3134 70.5669C56.0194 70.7695 55.378 71.2015 54.389 71.8628C53.5472 72.4162 52.9726 72.7874 52.6652 72.9763C51.5293 73.6921 50.4936 74.286 49.5581 74.758C48.8633 75.1089 48.3155 75.3653 47.9145 75.5273C45.4016 76.5351 42.7217 77.0505 40.018 77.0459L40.0131 77.053L38.7502 77.0328C38.4388 77.034 38.1276 77.0171 37.8181 76.9822C37.5309 76.9483 37.2035 76.8976 36.8359 76.8302C36.527 76.7795 36.2245 76.6946 35.9339 76.5772C35.7541 76.5056 35.5826 76.414 35.4228 76.3042C35.3217 76.2288 35.2308 76.1403 35.1525 76.0411C35.079 75.9464 35.0221 75.8992 34.982 75.8993C34.9018 75.8993 34.7949 75.9938 34.6615 76.1828C34.528 76.3719 34.4211 76.5136 34.3406 76.608C34.2315 76.7357 34.103 76.8451 33.9599 76.9319C33.8466 76.9576 33.7284 76.9505 33.6189 76.9115V76.9068C33.4745 76.8785 33.3261 76.8785 33.1816 76.9068C32.8476 77.0148 32.4968 77.3859 32.1294 78.0203C31.7619 78.6546 31.3376 78.9718 30.8564 78.9719C30.6333 78.9792 30.4126 78.9246 30.2182 78.814C30.0238 78.7033 29.8631 78.5409 29.7538 78.3444C29.4891 77.884 29.3572 77.358 29.3731 76.8258L29.3783 76.816C29.3811 76.6373 29.4545 75.9353 29.5987 74.71C29.7457 73.4615 29.8658 72.5066 29.9591 71.8452C29.9724 71.7911 30.0793 71.5144 30.2798 71.0151C30.4803 70.5158 30.6406 70.1379 30.7609 69.8813L30.8411 69.8407C30.852 69.9491 30.8452 70.0585 30.8211 70.1646L30.7409 70.6912L30.4001 73.1612C30.3334 73.6606 30.2866 74.0925 30.2598 74.457C30.233 74.8215 30.2196 75.0847 30.2196 75.2467L30.22 75.2483ZM34.3896 67.3892C34.4157 67.5346 34.4053 67.6843 34.3595 67.8246C34.3016 68.0063 34.2278 68.1824 34.1389 68.3509C34.0341 68.5526 33.8951 68.7342 33.7281 68.8874C33.6633 68.9713 33.5708 69.0288 33.4674 69.0494C33.4274 69.0494 33.3373 68.9887 33.1971 68.8674C33.0569 68.7461 32.93 68.6415 32.8162 68.5536C32.714 68.4757 32.6169 68.3911 32.5256 68.3005C32.4622 68.2502 32.4194 68.1781 32.4052 68.0979C32.4855 67.9225 32.5455 67.7875 32.5854 67.693C32.7191 67.3961 32.8194 67.1801 32.8861 67.0451C33.0063 66.8427 33.1264 66.6335 33.2465 66.4176L33.3667 66.2356C33.4034 66.2732 33.4436 66.3071 33.4869 66.3368C33.527 66.3637 33.5805 66.3974 33.6474 66.4379C33.8514 66.5941 34.0394 66.7705 34.2087 66.9645C34.3032 67.0886 34.3652 67.2348 34.3889 67.3896L34.3896 67.3892ZM35.4662 80.8777C35.4922 81.0231 35.4818 81.1728 35.4361 81.3131C35.3783 81.4948 35.3044 81.6709 35.2155 81.8394C35.1107 82.0412 34.9716 82.2228 34.8045 82.3759C34.7398 82.4598 34.6473 82.5174 34.544 82.5379C34.504 82.5379 34.4139 82.4772 34.2737 82.3559C34.1335 82.2346 34.0066 82.13 33.893 82.0421C33.7907 81.9644 33.6936 81.8798 33.6024 81.789C33.539 81.7388 33.4961 81.6667 33.482 81.5866C33.5622 81.4111 33.6223 81.2761 33.6622 81.1817C33.7959 80.8847 33.8961 80.6687 33.9629 80.5338C34.083 80.3312 34.2032 80.1219 34.3233 79.9061L34.4436 79.7241C34.4803 79.7617 34.5206 79.7956 34.5638 79.8253C34.6041 79.8522 34.6575 79.8859 34.7242 79.9265C34.9283 80.0826 35.1163 80.2589 35.2855 80.453C35.38 80.5771 35.442 80.7233 35.4656 80.8781L35.4662 80.8777ZM37.5307 80.7562C37.5569 80.9015 37.5465 81.0512 37.5006 81.1915C37.4428 81.3733 37.3691 81.5495 37.2803 81.718C37.1753 81.9197 37.0362 82.1013 36.8693 82.2545C36.8045 82.3383 36.712 82.3958 36.6087 82.4165C36.5685 82.4165 36.4784 82.3558 36.3384 82.2345C36.1985 82.1132 36.0715 82.0085 35.9575 81.9206C35.8553 81.8428 35.7582 81.7583 35.6669 81.6676C35.6036 81.6173 35.5607 81.5452 35.5465 81.465C35.6268 81.2896 35.6868 81.1546 35.7267 81.0601C35.8604 80.7632 35.9607 80.5472 36.0274 80.4122C36.1476 80.2098 36.2677 80.0006 36.3878 79.7845C36.4147 79.7441 36.4548 79.6834 36.5082 79.6025C36.5448 79.6402 36.5851 79.6742 36.6284 79.7039C36.6685 79.7308 36.7219 79.7645 36.7887 79.8051C36.9928 79.9611 37.1808 80.1374 37.35 80.3314C37.4446 80.4555 37.5066 80.6017 37.5302 80.7565L37.5307 80.7562ZM65.6735 69.4343C66.2672 68.8423 66.8964 68.2878 67.5577 67.7742C68.413 67.0856 69.2683 66.3904 70.1235 65.6887C70.7383 65.1758 71.3263 64.6562 71.8875 64.1297C72.2885 63.7518 72.8163 63.2389 73.471 62.591C74.4733 61.6191 74.9744 61.1197 74.9744 61.0928C74.9754 61.1558 74.9616 61.2181 74.9342 61.2748C74.8464 61.5744 74.7183 61.8605 74.5535 62.125C74.3928 62.4207 74.2122 62.7049 74.013 62.9755C73.7993 63.2589 73.5687 63.539 73.3214 63.8158C73.0741 64.0925 72.877 64.3049 72.73 64.4528C72.5297 64.6551 72.189 64.9723 71.7079 65.4044C71.3475 65.7281 70.8062 66.2005 70.0841 66.8216C69.5763 67.2535 69.1219 67.6247 68.721 67.9352C68.1866 68.3536 67.652 68.7652 67.1173 69.1702L65.7344 70.2635C65.534 70.4254 65.3435 70.5771 65.1631 70.7185C64.9827 70.8598 64.8791 70.9105 64.8523 70.8704C64.9511 70.5913 65.0716 70.3205 65.2126 70.0605C65.3367 69.8307 65.4919 69.6194 65.6737 69.4328L65.6735 69.4343ZM64.035 76.7157L64.0292 76.7392L64.0416 76.7157V77.0195C64.0416 77.573 64.1886 77.9576 64.4825 78.1735C64.666 78.2978 64.8831 78.3614 65.104 78.3555C65.291 78.3555 65.458 78.1463 65.6051 77.728C65.632 77.6334 65.662 77.5255 65.6952 77.404C65.7283 77.2826 65.7717 77.2219 65.8254 77.222C65.8922 77.222 65.9256 77.2895 65.9256 77.4244C65.9225 77.5061 65.9124 77.5874 65.8955 77.6674C65.8755 77.7755 65.8595 77.863 65.8454 77.9305C65.7256 78.5802 65.5022 79.2059 65.184 79.7832C64.9167 80.2218 64.6428 80.4411 64.3622 80.4411C64.1655 80.4532 63.9704 80.4006 63.8059 80.291C63.6414 80.1815 63.5166 80.0211 63.4501 79.8338C63.2686 79.3438 63.1835 78.8226 63.1996 78.2996C63.1973 78.2982 63.1949 78.2967 63.1928 78.2951C63.1957 77.9396 63.2191 77.5847 63.2629 77.232C63.3097 76.8338 63.3397 76.574 63.353 76.4525L63.373 76.2298C63.3763 76.2012 63.3692 76.1724 63.353 76.1488C63.3396 76.1353 63.3128 76.1488 63.2728 76.1894C63.2192 76.2568 63.1324 76.3782 63.0122 76.5534C62.7583 76.9044 62.5712 77.1609 62.451 77.3229C62.0162 77.8683 61.5105 78.352 60.9475 78.7606C60.3575 79.2 59.7099 79.5544 59.0232 79.8134C58.2688 80.0908 57.4949 80.3108 56.708 80.4715C55.821 80.6562 54.9175 80.7477 54.0119 80.7445H53.7112C53.2414 80.7526 52.7719 80.7188 52.3081 80.6433C51.7334 80.5352 51.3425 80.3564 51.1355 80.1068C50.9284 79.8572 50.8248 79.4759 50.8246 78.9628C50.8256 78.5159 50.8557 78.0695 50.9147 77.6266C50.9748 77.1676 51.0583 76.9381 51.1654 76.9381C51.2054 76.9381 51.2354 77.0697 51.2555 77.3329C51.2737 77.5917 51.3759 77.8373 51.5463 78.0315C51.9066 78.4364 52.7819 78.6388 54.1721 78.6388C54.9339 78.6388 55.542 78.6186 55.9963 78.5781C58.1879 78.3892 59.9786 77.856 61.3682 76.9787C61.976 76.6302 62.5025 76.1537 62.9119 75.5815C63.211 75.1215 63.4344 74.6155 63.5733 74.0833L63.8539 72.9293C63.9768 72.5751 64.1242 72.23 64.295 71.8967C64.4687 71.5327 64.5822 71.2999 64.6357 71.1982C64.6887 71.0976 64.7563 71.0056 64.8362 70.9252V71.229C64.7692 71.526 64.7224 71.7555 64.6959 71.9174L64.2748 74.0433C64.1948 74.6236 64.1347 75.1534 64.0946 75.6327C64.0545 76.1119 64.0345 76.4729 64.0346 76.7157H64.035ZM67.2808 73.0436C67.3068 73.1889 67.2965 73.3385 67.2507 73.4788C67.193 73.6606 67.1192 73.8368 67.0303 74.0053C66.9254 74.207 66.7863 74.3886 66.6193 74.5418C66.5546 74.6257 66.4621 74.6832 66.3588 74.7038C66.3185 74.7038 66.2284 74.6431 66.0885 74.5218C65.9486 74.4005 65.8216 74.2959 65.7076 74.208C65.6054 74.1301 65.5083 74.0455 65.417 73.9549C65.3536 73.9045 65.3109 73.8324 65.2968 73.7523C65.377 73.5769 65.4371 73.4419 65.477 73.3474C65.6107 73.0506 65.7109 72.8346 65.7777 72.6995C65.8978 72.4971 66.0179 72.2879 66.1381 72.0719L66.2584 71.89C66.2951 71.9276 66.3353 71.9616 66.3786 71.9913C66.4186 72.0183 66.472 72.052 66.539 72.0925C66.743 72.2487 66.931 72.425 67.1002 72.619C67.1948 72.7431 67.2568 72.8894 67.2804 73.0442L67.2808 73.0436ZM69.4709 81.5469C69.4969 81.6923 69.4865 81.842 69.4408 81.9823C69.383 82.164 69.3092 82.3401 69.2203 82.5086C69.1156 82.7104 68.9764 82.8921 68.8093 83.0451C68.7446 83.1291 68.6521 83.1866 68.5487 83.2073C68.5087 83.2073 68.4186 83.1466 68.2784 83.0253C68.1383 82.904 68.0113 82.7994 67.8975 82.7115C67.7953 82.6337 67.6982 82.5492 67.6069 82.4586C67.5436 82.4082 67.5009 82.3361 67.4867 82.256C67.567 82.0805 67.627 81.9456 67.6669 81.8511C67.8006 81.554 67.9008 81.3381 67.9676 81.2032C68.0878 81.0007 68.2079 80.7914 68.328 80.5754C68.3548 80.535 68.3949 80.4744 68.4484 80.3935C68.485 80.4311 68.5253 80.465 68.5685 80.4946C68.6087 80.5216 68.6621 80.5554 68.7289 80.596C68.933 80.752 69.121 80.9283 69.2902 81.1223C69.3847 81.2465 69.4467 81.3927 69.4704 81.5475L69.4709 81.5469Z" fill="black"></path></g><defs><clipPath id="clip0_9871_111"><rect width="49.9744" height="67.2069" fill="white" transform="translate(25 16)"></rect></clipPath></defs></svg> 