<?xml version="1.0" encoding="UTF-8"?> <svg xmlns="http://www.w3.org/2000/svg" width="100" height="100" viewBox="0 0 100 100" fill="none"><path d="M47.5988 20.0804C54.3704 14.0743 66.7901 15.7479 70.4821 18.461C73.598 20.7508 74.7233 22.7973 74.7233 25.3705V63.2113H58.6079L58.6088 25.2997C58.6088 25.2997 59.1291 20.5811 54.1038 19.2982C50.5264 18.3855 47.5392 20.17 47.5392 20.17" fill="black"></path><path d="M53.4849 59.1318C46.7134 65.1379 34.2937 63.4643 30.6017 60.7512C27.4858 58.4614 26.3605 56.4149 26.3605 53.8417V16H42.4759L42.475 53.9116C42.475 53.9116 41.9547 58.6302 46.98 59.9131C50.5574 60.8258 53.5446 59.0413 53.5446 59.0413" fill="black"></path><path d="M50.5419 47.0941C54.8039 47.0941 58.2589 43.6391 58.2589 39.3771C58.2589 35.1152 54.8039 31.6602 50.5419 31.6602C46.28 31.6602 42.825 35.1152 42.825 39.3771C42.825 43.6391 46.28 47.0941 50.5419 47.0941Z" fill="black"></path><g clip-path="url(#clip0_9870_20)"><path d="M31.5257 72.5109C31.5181 72.5858 31.5112 72.6607 31.5057 72.7304C31.444 73.5922 31.2703 74.4401 30.9896 75.2488C30.8133 75.7372 30.5846 76.2012 30.3082 76.6311C30.0551 77.0637 29.7077 77.4215 29.2968 77.6726C28.8859 77.9237 28.4243 78.0604 27.9531 78.0704C27.5404 78.061 27.1455 77.8857 26.8443 77.5784C26.6861 77.4089 26.5616 77.2057 26.4788 76.9815C26.3959 76.7573 26.3563 76.517 26.3626 76.2754C26.3939 75.242 26.6535 74.232 27.1196 73.3309L27.2731 73.0067C27.2917 73.0007 27.2986 73.0359 27.2931 73.1115C27.2784 73.2226 27.2485 73.3306 27.2043 73.432C27.1423 73.5958 27.0813 73.7618 27.0212 73.93C26.9607 74.0985 26.9077 74.2648 26.8615 74.4303C26.8174 74.5895 26.7824 74.7515 26.7569 74.9155C26.7359 75.034 26.725 75.1543 26.7246 75.275C26.7246 75.3069 26.726 75.3406 26.7287 75.3761C26.7426 75.5694 26.7964 75.7568 26.8861 75.9243C26.9759 76.0918 27.0992 76.2352 27.247 76.3436C27.553 76.5545 27.9068 76.6691 28.269 76.6746C28.8019 76.6781 29.3256 76.5227 29.7831 76.2253C30.1357 75.9736 30.4321 75.6392 30.6503 75.2465C30.9834 74.7089 31.1476 74.0684 31.1183 73.4208C31.1183 73.307 31.1141 73.1902 31.1059 73.0703C31.1018 72.8936 31.1208 72.7171 31.1623 72.5461C31.2027 72.3884 31.3174 72.0417 31.5064 71.506C31.5269 71.4245 31.5597 71.3473 31.6035 71.2776C31.6133 71.2664 31.626 71.2588 31.6399 71.2559C31.6461 71.2565 31.6518 71.2598 31.6558 71.2648C31.662 71.2766 31.6649 71.2902 31.664 71.3038C31.6631 71.3349 31.659 71.3658 31.6516 71.3959L31.5911 71.8527L31.5257 72.5109ZM29.6991 73.5189C29.7075 73.5549 29.7116 73.5919 29.7115 73.629C29.7112 73.6794 29.7056 73.7297 29.695 73.7788C29.6723 73.8844 29.6312 73.9843 29.5739 74.0731C29.558 74.1023 29.5381 74.1352 29.514 74.1712C29.4899 74.2071 29.4631 74.246 29.4348 74.2835C29.4066 74.3209 29.3777 74.3584 29.3481 74.3951C29.3185 74.4318 29.2903 74.4647 29.2635 74.4939C29.2331 74.5291 29.1995 74.5608 29.163 74.5883C29.1425 74.6046 29.1191 74.6158 29.0942 74.6212C29.085 74.624 29.0755 74.6255 29.066 74.6257C29.0578 74.6257 29.0496 74.6242 29.0419 74.6212C29.0291 74.6153 29.0168 74.6081 29.0054 74.5995C28.909 74.5119 28.812 74.422 28.715 74.3314C28.6149 74.2411 28.5099 74.1576 28.4004 74.0813C28.3899 74.0716 28.383 74.058 28.3812 74.0431C28.3841 74.0226 28.3909 74.0029 28.4011 73.9854L29.0467 72.9018C29.068 72.8756 29.088 72.8637 29.1072 72.8666C29.1288 72.8711 29.1494 72.88 29.1678 72.8929C29.2867 72.9657 29.3963 73.0551 29.494 73.1587C29.5909 73.2566 29.6617 73.381 29.6991 73.5189Z" fill="black"></path><path d="M33.5223 70.2993C33.5574 70.2117 33.5856 70.1675 33.6069 70.1675C33.6283 70.1675 33.6434 70.1817 33.6434 70.2117C33.6432 70.2248 33.6418 70.2378 33.6393 70.2506C33.5957 70.5696 33.5661 70.7943 33.5505 70.9246C33.5312 71.0743 33.5168 71.1994 33.5057 71.299C33.4947 71.3986 33.4858 71.4937 33.4775 71.5776C33.4693 71.6614 33.4631 71.7416 33.4576 71.821C33.4521 71.9003 33.4452 71.9902 33.4376 72.0928C33.4076 72.4744 33.3384 72.8512 33.2311 73.2161C33.143 73.4974 33.0322 73.7698 32.9001 74.0301C32.7728 74.2802 32.6723 74.4112 32.6 74.4232C32.5918 74.4232 32.5876 74.4157 32.5876 74.4008C32.5917 74.3545 32.6012 74.3089 32.6159 74.2652C32.6571 74.143 32.6909 74.0179 32.717 73.8908C32.7492 73.741 32.7781 73.5808 32.8038 73.41C32.8294 73.2393 32.8524 73.0646 32.8726 72.8858C32.8932 72.7061 32.9097 72.5354 32.9235 72.3744C32.9283 72.2778 32.9448 72.1242 32.9717 71.9138C32.9927 71.7293 33.0333 71.5481 33.0928 71.3739L33.5223 70.2993Z" fill="black"></path><path d="M36.8464 72.2041C36.8081 72.3621 36.7541 72.515 36.6853 72.6602C36.6306 72.7758 36.5629 72.8834 36.4837 72.9807C36.4116 73.0583 36.3332 73.1287 36.2497 73.1911C36.1638 73.2552 36.0714 73.3082 35.9744 73.3491C35.8847 73.3882 35.7995 73.4385 35.7204 73.4989C35.6558 73.5482 35.5974 73.6066 35.547 73.6726C35.4674 73.7725 35.406 73.8878 35.366 74.0126C35.3146 74.1574 35.262 74.3102 35.2084 74.4709C35.1547 74.6317 35.0934 74.7889 35.0246 74.9427C34.9477 75.1285 34.8287 75.2901 34.6789 75.4124C34.5291 75.5347 34.3532 75.6137 34.1678 75.6421L33.43 75.7784C33.4089 75.7814 33.3827 75.7837 33.3515 75.7852C33.3286 75.788 33.3056 75.788 33.2827 75.7852C33.2368 75.7702 33.2139 75.7425 33.2139 75.702C33.2144 75.6836 33.2184 75.6655 33.2256 75.6489C33.268 75.5609 33.334 75.4891 33.4148 75.4429C33.6222 75.2932 33.7876 75.1726 33.911 75.0812L34.2139 74.8566C34.2916 74.7982 34.3515 74.7495 34.4011 74.7113C34.4506 74.6731 34.4988 74.6312 34.5525 74.584C34.7431 74.44 34.8982 74.2471 35.004 74.0224C35.0521 73.9205 35.0969 73.8209 35.1368 73.7228C35.1767 73.6247 35.2201 73.5311 35.2641 73.4375C35.3082 73.3439 35.3563 73.251 35.4073 73.1589C35.4611 73.0622 35.5204 72.9692 35.5848 72.8804C35.6665 72.7749 35.7615 72.6826 35.867 72.6063C36.0032 72.5062 36.146 72.4173 36.2944 72.3404C36.465 72.2586 36.5995 72.1076 36.6695 71.9196C36.7015 71.8384 36.7399 71.7605 36.7844 71.6867C36.7982 71.6573 36.8176 71.6315 36.8413 71.6111C36.8651 71.5907 36.8926 71.5761 36.9221 71.5684C36.9572 71.5744 36.9744 71.6036 36.9744 71.656C36.9737 71.69 36.9698 71.7239 36.9627 71.7571C36.9489 71.8155 36.9324 71.8821 36.9117 71.957C36.8911 72.0319 36.8718 72.1105 36.8464 72.2041ZM35.5153 77.9037C35.5264 77.945 35.532 77.9879 35.5318 78.031C35.5315 78.074 35.526 78.1168 35.5153 78.1583C35.4874 78.2547 35.4469 78.3463 35.3949 78.4301C35.3488 78.505 35.3027 78.5799 35.2572 78.6428C35.21 78.7091 35.1583 78.7715 35.1024 78.8293C35.0753 78.863 35.044 78.8925 35.0095 78.9169C34.9884 78.932 34.9651 78.9431 34.9406 78.9498C34.925 78.9552 34.9081 78.9552 34.8925 78.9498C34.8774 78.9444 34.8632 78.9363 34.8505 78.9259C34.7569 78.8442 34.6653 78.7619 34.5752 78.6802C34.4812 78.5933 34.3814 78.5142 34.2765 78.4436C34.2666 78.4308 34.2598 78.4157 34.2565 78.3994C34.2592 78.3804 34.266 78.3624 34.2765 78.347L34.8897 77.3203C34.9083 77.2934 34.9269 77.2814 34.9441 77.2829C34.9651 77.2854 34.9852 77.2937 35.0026 77.3068C35.0563 77.342 35.1106 77.3817 35.1657 77.4184C35.2747 77.4954 35.3683 77.5955 35.441 77.7127C35.4767 77.7705 35.5015 77.8354 35.5139 77.9037H35.5153ZM36.7452 77.8243C36.7562 77.8657 36.7618 77.9085 36.7617 77.9516C36.7615 77.9946 36.7559 78.0375 36.7452 78.0789C36.7174 78.1756 36.6768 78.2674 36.6247 78.3515C36.5786 78.4264 36.5325 78.5013 36.4871 78.5642C36.4395 78.6303 36.3875 78.6927 36.3316 78.7506C36.3041 78.784 36.2729 78.8134 36.2386 78.8382C36.2174 78.8529 36.1942 78.864 36.1698 78.8712C36.1539 78.8766 36.1369 78.8766 36.121 78.8712C36.1083 78.8655 36.0963 78.8582 36.0852 78.8495C35.9907 78.7671 35.8989 78.6852 35.8099 78.6039C35.716 78.5166 35.6161 78.4373 35.5112 78.3665C35.5014 78.354 35.4945 78.3391 35.4912 78.323C35.4938 78.3038 35.5007 78.2856 35.5112 78.2699L36.1244 77.2432C36.143 77.217 36.1616 77.2042 36.1788 77.2057C36.1999 77.2086 36.22 77.2171 36.2373 77.2305C36.291 77.2649 36.3453 77.3053 36.4004 77.342C36.5094 77.419 36.603 77.5191 36.6757 77.6363C36.7094 77.6936 36.7325 77.7574 36.7438 77.8243H36.7452Z" fill="black"></path><path d="M38.3605 70.3169C38.3956 70.2292 38.4238 70.1851 38.4451 70.1851C38.4664 70.1851 38.4816 70.2 38.4816 70.2292C38.4814 70.2426 38.48 70.2559 38.4775 70.2689C38.4535 70.3736 38.4346 70.4796 38.421 70.5864C38.3997 70.7362 38.3832 70.8553 38.3728 70.9399C38.3563 71.0897 38.3405 71.2574 38.324 71.4446C38.3075 71.6318 38.2937 71.8236 38.2799 72.019C38.2662 72.2145 38.2531 72.4114 38.2393 72.5986C38.2256 72.7858 38.2111 72.9543 38.1953 73.1033C38.1655 73.4842 38.0993 73.8607 37.9978 74.2266C37.9141 74.5072 37.8104 74.7801 37.6874 75.0429C37.569 75.293 37.4733 75.4233 37.4011 75.4353C37.3928 75.4353 37.3887 75.4278 37.3887 75.4136C37.3927 75.367 37.4022 75.3212 37.4169 75.2773C37.458 75.1552 37.4911 75.03 37.516 74.9028C37.5467 74.7531 37.5743 74.5928 37.5986 74.4221C37.6229 74.2513 37.6445 74.0766 37.6633 73.8979C37.6821 73.7182 37.6981 73.5479 37.7114 73.3872C37.73 73.2374 37.7465 73.0067 37.7596 72.7027C37.7727 72.3987 37.7934 72.1456 37.8202 71.9344C37.8412 71.7501 37.8818 71.5692 37.9413 71.3952L38.3605 70.3169Z" fill="black"></path><path d="M47.3212 72.92C47.3244 72.9327 47.3258 72.9458 47.3253 72.959C47.3225 73.0097 47.3144 73.06 47.3012 73.1087C47.2499 73.2818 47.1852 73.4499 47.1078 73.6112C47.0177 73.8062 46.9136 73.9932 46.7967 74.1706C46.6809 74.3467 46.5393 74.501 46.3776 74.6274C46.1376 74.8093 45.8809 74.9636 45.6116 75.088C45.2877 75.2339 44.9546 75.3548 44.615 75.4496C44.2001 75.5684 43.7778 75.6542 43.3514 75.7065C42.9118 75.7638 42.4694 75.7931 42.0266 75.7941C41.6464 75.8016 41.2662 75.7795 40.8889 75.7282C40.5492 75.6986 40.2271 75.5511 39.9702 75.3074C39.8876 75.2237 39.8229 75.1215 39.7804 75.0078C39.738 74.8941 39.7189 74.7717 39.7245 74.6491C39.7245 74.5413 39.7334 74.3863 39.7527 74.1841C39.7719 73.9819 39.7967 73.7804 39.8291 73.5783C39.8421 73.4936 39.8545 73.418 39.8655 73.3536C39.8712 73.314 39.8819 73.2754 39.8972 73.239C39.9011 73.2278 39.9071 73.2175 39.9148 73.2089C39.9225 73.2002 39.9317 73.1934 39.9419 73.1889C39.9578 73.1844 39.9736 73.1963 39.988 73.224C40.0085 73.269 40.0228 73.3169 40.0307 73.3663C40.041 73.4412 40.0562 73.5161 40.0748 73.591C40.098 73.6871 40.142 73.7758 40.203 73.8498C40.2641 73.9238 40.3404 73.9809 40.4258 74.0163C41.1386 74.2817 41.8905 74.4008 42.6432 74.3675C42.9901 74.3675 43.3787 74.3501 43.8091 74.3151C44.2426 74.2794 44.6732 74.2096 45.0975 74.1062C45.4677 74.0225 45.83 73.9022 46.1801 73.7467C46.3972 73.6529 46.6064 73.5384 46.805 73.4045C46.9299 73.311 47.0414 73.198 47.136 73.069C47.1741 73.0078 47.2172 72.9504 47.2647 72.8975C47.2687 72.8943 47.2733 72.892 47.2782 72.8908C47.283 72.8896 47.2881 72.8896 47.2929 72.8908C47.2999 72.8917 47.3065 72.895 47.3115 72.9003C47.3166 72.9055 47.32 72.9125 47.3212 72.92ZM43.1876 70.7963C43.1986 70.8361 43.2041 70.8775 43.2042 70.9191C43.204 70.9636 43.1985 71.0079 43.1876 71.0509C43.1598 71.1475 43.119 71.2391 43.0665 71.3227C43.0211 71.3976 42.975 71.4725 42.9289 71.5354C42.8817 71.6017 42.8299 71.6641 42.774 71.7218C42.7469 71.7556 42.7157 71.7851 42.6811 71.8095C42.6603 71.8246 42.6369 71.8351 42.6123 71.8402C42.6046 71.8432 42.5964 71.8447 42.5882 71.8447C42.58 71.8446 42.5718 71.8431 42.5641 71.8402C42.5512 71.8346 42.5389 71.8273 42.5276 71.8184C42.434 71.7368 42.3425 71.653 42.2523 71.5683C42.1575 71.4838 42.0577 71.406 41.9536 71.3354C41.943 71.3218 41.9361 71.3052 41.9337 71.2875C41.9371 71.2699 41.9439 71.2534 41.9536 71.2388L42.5669 70.2122C42.5854 70.1859 42.604 70.174 42.6212 70.1755C42.6422 70.1781 42.6623 70.1864 42.6797 70.1994C42.7334 70.2346 42.7878 70.2743 42.8428 70.311C42.9518 70.388 43.0454 70.4881 43.1181 70.6053C43.1526 70.6631 43.1762 70.7285 43.1876 70.7963ZM44.4175 70.7169C44.4283 70.7568 44.4339 70.7981 44.434 70.8397C44.4339 70.8848 44.4281 70.9296 44.4168 70.973C44.3889 71.0694 44.3484 71.161 44.2964 71.2448C44.2503 71.3197 44.2042 71.3946 44.1587 71.4582C44.1112 71.5243 44.0595 71.5866 44.0039 71.6447C43.9764 71.6781 43.9452 71.7075 43.911 71.7323C43.89 71.7472 43.8667 71.7576 43.8422 71.763C43.8344 71.7661 43.8263 71.7676 43.8181 71.7675C43.8099 71.7674 43.8017 71.7659 43.794 71.763C43.781 71.7572 43.7688 71.7496 43.7575 71.7406C43.6657 71.6587 43.574 71.5753 43.4822 71.4905C43.3873 71.4062 43.2876 71.3286 43.1835 71.2583C43.1728 71.2444 43.1659 71.2276 43.1636 71.2096C43.1671 71.1923 43.1739 71.176 43.1835 71.1617L43.7974 70.1328C43.816 70.1066 43.8346 70.0938 43.8518 70.0953C43.8727 70.0983 43.8927 70.1065 43.9103 70.1193C43.964 70.1542 44.0183 70.1917 44.0734 70.2316C44.128 70.2702 44.1787 70.3149 44.2248 70.3649C44.2699 70.4139 44.3105 70.4676 44.3459 70.5252C44.3808 70.5832 44.4049 70.6481 44.4168 70.7161L44.4175 70.7169Z" fill="black"></path><path d="M49.1967 70.2993C49.2318 70.2117 49.26 70.1675 49.2814 70.1675C49.3027 70.1675 49.3178 70.1817 49.3178 70.2117C49.3177 70.2248 49.3163 70.2378 49.3137 70.2506C49.2706 70.5696 49.241 70.7943 49.2249 70.9246C49.2057 71.0743 49.1912 71.1994 49.1802 71.299C49.1692 71.3986 49.1602 71.4937 49.152 71.5776C49.1437 71.6614 49.1375 71.7416 49.132 71.821C49.1265 71.9003 49.1196 71.9902 49.1121 72.0928C49.0821 72.4744 49.0128 72.8512 48.9056 73.2161C48.8174 73.4974 48.7066 73.7698 48.5745 74.0301C48.4472 74.2802 48.3467 74.4112 48.2745 74.4232C48.2662 74.4232 48.2621 74.4157 48.2621 74.4008C48.2661 74.3545 48.2756 74.3089 48.2903 74.2652C48.3315 74.143 48.3653 74.0179 48.3915 73.8908C48.4236 73.741 48.4525 73.5808 48.4782 73.41C48.5039 73.2393 48.5268 73.0646 48.547 72.8858C48.5677 72.7061 48.5842 72.5354 48.5979 72.3744C48.6028 72.2778 48.6193 72.1242 48.6461 71.9138C48.6671 71.7293 48.7078 71.5481 48.7672 71.3739L49.1967 70.2993Z" fill="black"></path><path d="M50.6441 73.8888C50.5257 74.2422 50.4278 74.5113 50.3502 74.696C50.2932 74.8395 50.2229 74.9762 50.1403 75.1041C50.0571 75.2109 49.9566 75.3 49.8437 75.367C49.7304 75.4418 49.6132 75.5093 49.4927 75.5692C49.3831 75.6205 49.2707 75.6643 49.1561 75.7002C49.0302 75.7414 48.929 75.7706 48.854 75.7886C48.817 75.7983 48.7792 75.804 48.7411 75.8058C48.7288 75.8064 48.7165 75.8048 48.7046 75.8013C48.6964 75.7953 48.6923 75.7901 48.6923 75.7841C48.6956 75.7622 48.7055 75.7422 48.7205 75.7272C48.7942 75.6453 48.8754 75.5718 48.9627 75.5078C49.0944 75.4024 49.3316 75.1925 49.6744 74.878C50.0091 74.5735 50.2935 74.2091 50.5154 73.8004C50.5877 73.6604 50.6372 73.59 50.6647 73.59C50.6923 73.59 50.6957 73.6147 50.6943 73.6648C50.6876 73.7417 50.6707 73.8172 50.6441 73.8888ZM50.693 75.6111C50.7595 75.5497 50.8386 75.4748 50.9304 75.3865C51.0405 75.2869 51.1492 75.1783 51.2552 75.0615C51.3596 74.9469 51.4573 74.8253 51.5477 74.6975C51.6336 74.5765 51.7092 74.4471 51.7735 74.3111C51.8319 74.1895 51.8741 74.0593 51.8987 73.9247C51.9035 73.8943 51.9061 73.8635 51.9063 73.8326C51.8989 73.6908 51.8429 73.5572 51.7494 73.4582C51.5297 73.2109 51.2739 73.005 50.9923 72.8486C50.9794 72.8408 50.9694 72.8284 50.9641 72.8134C50.9627 72.8083 50.9623 72.8029 50.9631 72.7976C50.9638 72.7922 50.9655 72.7872 50.9682 72.7827L51.1458 72.3004L51.3874 71.6332C51.4066 71.5838 51.4239 71.5411 51.4397 71.5059C51.4479 71.4827 51.4603 71.4707 51.4762 71.4707C51.4867 71.4717 51.4966 71.4764 51.5044 71.4842C51.661 71.5815 51.8089 71.6946 51.9462 71.8219C52.0899 71.9496 52.2162 72.0989 52.3213 72.2652C52.4234 72.4457 52.4797 72.6524 52.4844 72.8643C52.4872 72.8968 52.4885 72.9305 52.4885 72.9654C52.4814 73.2705 52.4351 73.573 52.3509 73.864C52.2478 74.2461 52.0795 74.6035 51.8547 74.9177C51.787 75.0148 51.7092 75.103 51.6228 75.1805C51.5321 75.2624 51.4365 75.3375 51.3365 75.4052C51.2381 75.4724 51.1366 75.5339 51.0323 75.5894C50.9297 75.6433 50.8333 75.6897 50.7418 75.7279C50.7185 75.7379 50.6939 75.7437 50.6689 75.7452C50.6588 75.7453 50.649 75.7422 50.6406 75.7362C50.6373 75.7312 50.6358 75.7251 50.6365 75.719C50.6369 75.7101 50.6383 75.7013 50.6406 75.6927C50.6494 75.6592 50.6677 75.6296 50.693 75.6081V75.6111Z" fill="black"></path><path d="M53.6165 73.3179C53.603 73.5783 53.5412 73.8331 53.4348 74.0668C53.3352 74.271 53.2224 74.3733 53.0962 74.3738C53.0962 74.263 53.129 73.9178 53.1946 73.3382C53.2602 72.7585 53.31 72.3439 53.344 72.0943C53.3779 71.8447 53.4162 71.5794 53.4589 71.2983C53.5022 71.0175 53.5435 70.7906 53.5841 70.6176C53.63 70.4748 53.6791 70.33 53.7314 70.1832C53.7837 70.0365 53.8381 69.8917 53.8945 69.7489C53.9104 69.7227 53.9241 69.71 53.9345 69.71C53.9448 69.71 53.962 69.7332 53.9668 69.7796C53.9003 70.2659 53.8386 70.7698 53.7817 71.2915C53.7248 71.8132 53.6865 72.1877 53.6667 72.4148C53.6468 72.6395 53.6365 72.772 53.6365 72.8095C53.6227 73.0446 53.6165 73.2191 53.6165 73.3179Z" fill="black"></path><path d="M56.4953 74.6959C56.399 74.7042 56.2985 74.7079 56.1952 74.7064C56.0916 74.7052 55.9883 74.6949 55.8862 74.6757C55.7835 74.6568 55.6829 74.6259 55.5862 74.5836C55.486 74.5401 55.3917 74.4819 55.306 74.4106C55.2969 74.4075 55.2874 74.406 55.2778 74.4061C55.2565 74.4085 55.236 74.4161 55.2178 74.4282C55.1996 74.4404 55.1841 74.4569 55.1725 74.4765C55.1184 74.5493 55.0711 74.6278 55.0314 74.7109C54.9856 74.8107 54.9333 74.9183 54.8745 75.0337C54.8189 75.1519 54.7554 75.2655 54.6846 75.3736C54.6178 75.4775 54.5387 75.5711 54.4492 75.6522C54.3647 75.7296 54.2619 75.7797 54.1526 75.7967C54.12 75.7997 54.089 75.8012 54.0597 75.8012C53.9187 75.8055 53.7788 75.7724 53.6522 75.7046C53.5188 75.6323 53.4049 75.5233 53.3219 75.3886C53.2355 75.2466 53.1745 75.088 53.1422 74.9213C53.1056 74.7407 53.0901 74.5558 53.0961 74.3709C53.1176 74.2448 53.1486 74.1208 53.189 74.0002C53.2257 73.8872 53.2701 73.7773 53.3219 73.6715C53.3628 73.5848 53.4129 73.5036 53.4712 73.4296C53.5079 73.377 53.5586 73.3381 53.6164 73.318C53.6135 73.4854 53.6416 73.6517 53.699 73.807C53.748 73.9399 53.8237 74.0591 53.9206 74.156C54.0138 74.2468 54.1249 74.313 54.2455 74.3492C54.3307 74.3758 54.419 74.3892 54.5077 74.3889C54.5493 74.3888 54.591 74.3858 54.6323 74.3799C54.6884 74.3681 54.7428 74.3482 54.794 74.3207C54.8524 74.2874 54.9071 74.247 54.9571 74.2002C55.0245 74.1369 55.0877 74.0686 55.1464 73.9957C55.2152 73.9124 55.2966 73.8063 55.3907 73.6775C55.4387 73.6017 55.508 73.545 55.5882 73.5157C55.6129 73.5071 55.6387 73.5026 55.6646 73.5022C55.6993 73.5023 55.7337 73.5097 55.7658 73.524C55.8203 73.5627 55.8776 73.5965 55.9372 73.6251C56.0011 73.6554 56.0681 73.6775 56.1367 73.691L56.2744 73.5285C56.3606 73.4261 56.479 73.2813 56.6295 73.0941C56.7906 72.8979 56.9491 72.7137 57.1051 72.5415C57.2244 72.3987 57.3664 72.2805 57.5242 72.1925C57.6231 72.1392 57.7326 72.1135 57.8429 72.1176C57.9043 72.1242 57.9639 72.1443 58.018 72.1768C58.072 72.2092 58.1195 72.2533 58.1574 72.3063C58.221 72.3936 58.2552 72.502 58.2544 72.6134C58.2544 72.6342 58.253 72.6549 58.2503 72.6755C58.2101 72.9489 58.1097 73.2076 57.9578 73.4296C57.8052 73.6895 57.6291 73.9321 57.432 74.1538C57.1754 74.4305 56.8497 74.6191 56.4953 74.6959ZM57.189 73.6206C57.4584 73.5124 57.7012 73.3382 57.8986 73.1113C57.8831 73.0871 57.8663 73.0639 57.8484 73.0417C57.8208 73.0078 57.7896 72.9776 57.7555 72.9518C57.7124 72.9181 57.6663 72.8892 57.6178 72.8657C57.5577 72.838 57.4937 72.8218 57.4286 72.8178C57.4112 72.815 57.3938 72.8135 57.3762 72.8133C57.2157 72.823 57.0643 72.8981 56.9523 73.0237C56.7419 73.2383 56.544 73.4669 56.3597 73.7082C56.4439 73.72 56.5288 73.7261 56.6137 73.7262C56.8096 73.7269 57.0042 73.6912 57.189 73.6206Z" fill="black"></path><path d="M61.6373 76.021C61.2989 76.0219 60.9607 75.9999 60.6249 75.9551C60.2848 75.9256 59.9625 75.7781 59.7054 75.5342C59.6228 75.4506 59.5581 75.3483 59.5156 75.2346C59.4732 75.1209 59.4541 74.9985 59.4597 74.876C59.4597 74.7671 59.4691 74.6121 59.4879 74.4109C59.5065 74.2087 59.5319 74.0073 59.5643 73.8051C59.5781 73.7205 59.5898 73.6441 59.6008 73.5804C59.6066 73.5408 59.6175 73.5022 59.6331 73.4659C59.6368 73.4546 59.6426 73.4443 59.6502 73.4356C59.6578 73.427 59.667 73.4202 59.6772 73.4157C59.6937 73.4112 59.7088 73.4232 59.724 73.4509C59.744 73.4959 59.7582 73.5438 59.766 73.5932C59.777 73.6681 59.7914 73.7429 59.8107 73.8178C59.8337 73.914 59.8775 74.0028 59.9384 74.0768C59.9993 74.1507 60.0757 74.2078 60.161 74.2432C60.874 74.5086 61.6262 74.6277 62.3792 74.5944H62.395C62.5593 74.5884 62.7368 74.5797 62.9277 74.5682C63.929 74.5255 64.9179 74.3107 65.8575 73.9317C66.323 73.7349 66.7451 73.4336 67.0963 73.0473C67.3123 72.7659 67.4673 72.4352 67.5499 72.0797L67.8561 70.8067C67.9035 70.638 67.9601 70.4724 68.0254 70.3109C68.1172 70.0713 68.2112 69.8534 68.3076 69.6572C68.3211 69.6244 68.3419 69.5958 68.3682 69.5741L68.3723 69.5696C68.3833 69.5696 68.3881 69.5868 68.3881 69.622C68.3893 69.6397 68.3893 69.6575 68.3881 69.6752C68.3477 69.8564 68.2642 70.2995 68.1376 71.0044C68.0364 71.5331 67.9652 72.068 67.9243 72.6062C67.9031 72.9302 67.8924 73.1713 67.8919 73.3296C67.8678 73.4352 67.8437 73.546 67.819 73.6636C67.7873 73.7895 67.7471 73.9126 67.6985 74.032C67.6594 74.1426 67.5972 74.2418 67.5168 74.3218C67.4898 74.3589 67.451 74.3837 67.4081 74.3915C67.4006 74.3918 67.3931 74.3905 67.3861 74.3875C67.3791 74.3846 67.3728 74.38 67.3675 74.3742C67.3702 74.1521 67.3838 73.9167 67.4081 73.6681C67.4148 73.5381 67.4309 73.4089 67.4563 73.2817C67.4563 73.2524 67.4521 73.2345 67.4446 73.2292C67.4354 73.2282 67.4262 73.2297 67.4176 73.2335C67.4091 73.2373 67.4016 73.2433 67.3957 73.2509C67.2014 73.5668 66.9866 73.8671 66.7529 74.1496C66.5291 74.3969 66.2846 74.621 66.0227 74.8191C65.6762 75.0817 65.2983 75.2914 64.8995 75.4421C64.4891 75.6051 64.0669 75.7303 63.6373 75.8165C63.234 75.8954 62.8885 75.9478 62.6008 75.9738C62.3131 75.9997 61.9919 76.0155 61.6373 76.021ZM64.0853 72.2168C64.077 72.3014 64.022 72.3426 63.9194 72.3396C63.8203 72.3486 63.757 72.3778 63.7302 72.4272C63.7166 72.451 63.7097 72.4786 63.7102 72.5066C63.7123 72.557 63.7245 72.6064 63.746 72.6511C63.7597 72.6859 63.7667 72.7234 63.7666 72.7612C63.7633 72.8386 63.7394 72.9132 63.6978 72.9761C63.6683 73.0238 63.6277 73.0622 63.5803 73.0876C63.5328 73.1129 63.4801 73.1243 63.4273 73.1206C63.4112 73.1206 63.3951 73.1191 63.3792 73.1162C63.3514 73.1127 63.3242 73.1046 63.2986 73.0922C63.2808 73.0827 63.2645 73.0701 63.2505 73.0547C63.2217 73.0219 63.2021 72.9809 63.194 72.9364C63.1858 72.8865 63.2087 72.8615 63.2629 72.8615H63.3392C63.4226 72.8691 63.506 72.8476 63.5774 72.8001C63.5903 72.7857 63.6002 72.7683 63.6065 72.7494C63.6128 72.7304 63.6153 72.7102 63.6139 72.6901C63.6129 72.6426 63.6062 72.5955 63.5939 72.55C63.5859 72.517 63.5817 72.4831 63.5815 72.4489C63.5816 72.4077 63.5896 72.3669 63.6048 72.3291C63.6201 72.2914 63.6424 72.2575 63.6703 72.2295C63.7022 72.1937 63.7404 72.1652 63.7826 72.1456C63.8248 72.1261 63.8701 72.1159 63.916 72.1157C63.9349 72.1154 63.9537 72.1167 63.9724 72.1194C64.0394 72.1379 64.077 72.1704 64.0853 72.2168ZM68.9889 68.7106C69.0261 68.6762 69.1046 68.614 69.2223 68.5242C69.3399 68.4343 69.4879 68.3257 69.6641 68.1954C69.8403 68.0651 70.0406 67.9184 70.2649 67.7544C70.4893 67.5904 70.7267 67.4181 70.9766 67.2369L71.7391 66.6775C71.9997 66.4858 72.2564 66.2956 72.5093 66.1069C72.7621 65.9182 73.0046 65.7354 73.2367 65.5587C73.4693 65.3815 73.6804 65.2175 73.8699 65.0667C74.0594 64.9159 74.2213 64.7822 74.3558 64.6653C74.4578 64.5799 74.5548 64.4876 74.6462 64.389C74.6626 64.3751 74.6821 64.366 74.7027 64.3628C74.7164 64.3628 74.7233 64.3755 74.7233 64.4025C74.7191 64.4507 74.7082 64.4979 74.691 64.5425C74.5516 64.8476 74.3752 65.131 74.1665 65.385C73.5292 65.9207 72.755 66.5277 71.8437 67.2062C70.9325 67.8847 70.1725 68.4266 69.5636 68.832C68.9543 69.2373 68.6201 69.4573 68.5609 69.4917C68.5222 69.5206 68.4783 69.5402 68.4322 69.5494C68.4253 69.5497 68.4184 69.5482 68.4122 69.5449C68.4621 69.4152 68.5286 69.294 68.6097 69.1847C68.7277 69.0196 68.8536 68.8614 68.9869 68.7106H68.9889Z" fill="black"></path><path d="M67.3674 74.3716C67.4023 74.205 67.4466 74.0409 67.5003 73.8803C67.5403 73.7607 67.5877 73.6441 67.642 73.5314C67.6776 73.4545 67.7223 73.383 67.7749 73.3187C67.8042 73.2785 67.8433 73.2481 67.8877 73.2311V73.5194C67.8732 73.6623 67.8901 73.807 67.9371 73.9413C67.9842 74.0757 68.06 74.196 68.1582 74.2922C68.2319 74.3473 68.3187 74.3777 68.408 74.3798C68.4351 74.3798 68.4621 74.3768 68.4886 74.3708C68.5391 74.3598 68.5871 74.3378 68.6297 74.3061C68.6722 74.2745 68.7085 74.2338 68.7363 74.1866C68.7988 74.0799 68.8483 73.9649 68.8836 73.8444C68.9242 73.7156 68.9628 73.6512 69.0006 73.6512C69.0385 73.6512 69.0612 73.6983 69.0529 73.792C69.0323 74.0532 68.9862 74.3112 68.9153 74.5618C68.8456 74.8742 68.7253 75.1706 68.5601 75.4372C68.5024 75.5396 68.4232 75.6257 68.3289 75.6882C68.2346 75.7507 68.1279 75.7878 68.0178 75.7966C67.907 75.7895 67.8004 75.7482 67.7105 75.6775C67.6205 75.6068 67.5509 75.5097 67.5099 75.3975C67.4024 75.1265 67.3514 74.8329 67.3605 74.5378C67.3605 74.4966 67.3605 74.4539 67.3647 74.4105L67.3674 74.3716ZM69.799 71.2728C69.8074 71.3055 69.8115 71.3392 69.8113 71.3732C69.8109 71.4224 69.8042 71.4712 69.7914 71.5184C69.7637 71.6165 69.7228 71.7096 69.6703 71.7948C69.6241 71.8696 69.5787 71.9445 69.5326 72.0097C69.4845 72.0796 69.4304 72.1443 69.3709 72.2029C69.302 72.2815 69.247 72.322 69.2098 72.3235C69.178 72.3268 69.1461 72.3166 69.121 72.295L69.002 72.1782C68.9524 72.1302 68.9008 72.0816 68.8464 72.0284C68.7921 71.9752 68.7398 71.9318 68.6875 71.8884C68.6455 71.8523 68.6018 71.8185 68.5567 71.7873C68.5451 71.7788 68.5364 71.7664 68.5319 71.7521C68.5319 71.7401 68.5374 71.7199 68.5567 71.6907L69.1692 70.673C69.1906 70.6408 69.2071 70.6258 69.2181 70.6288C69.2444 70.64 69.2699 70.6532 69.2945 70.6685C69.3454 70.7037 69.3977 70.7434 69.4514 70.7801C69.5046 70.8192 69.5545 70.8633 69.6007 70.9119C69.647 70.9605 69.6877 71.0151 69.7219 71.0744C69.7576 71.1354 69.7836 71.2024 69.799 71.2728Z" fill="black"></path><path d="M70.4038 73.3179C70.3909 73.5783 70.3293 73.8331 70.2228 74.0668C70.1233 74.271 70.0102 74.3733 69.8835 74.3738C69.8835 74.263 69.9166 73.9178 69.9826 73.3382C70.0487 72.7585 70.0985 72.3439 70.132 72.0943C70.165 71.8447 70.2033 71.5794 70.2469 71.2983C70.2896 71.0175 70.3316 70.7906 70.3715 70.6176C70.4174 70.4748 70.4665 70.33 70.5188 70.1832C70.5711 70.0365 70.6255 69.8917 70.6819 69.7489C70.6984 69.7227 70.7115 69.71 70.7225 69.71C70.7335 69.71 70.7493 69.7332 70.7548 69.7796C70.6874 70.2659 70.6255 70.7698 70.569 71.2915C70.5126 71.8132 70.4743 72.1877 70.4541 72.4148C70.4341 72.6395 70.4238 72.772 70.4238 72.8095C70.4107 73.0446 70.4038 73.2191 70.4038 73.3179Z" fill="black"></path><path d="M69.8816 74.371C69.9163 74.2043 69.9609 74.0402 70.0151 73.8797C70.0546 73.76 70.1018 73.6434 70.1562 73.5308C70.192 73.454 70.2366 73.3826 70.289 73.3181C70.3184 73.2781 70.3575 73.2477 70.4019 73.2305V73.5188C70.3873 73.6617 70.4042 73.8064 70.4513 73.9408C70.4983 74.0751 70.5741 74.1954 70.6723 74.2916C70.746 74.3467 70.8328 74.3771 70.9222 74.3792C70.9492 74.3792 70.9762 74.3762 71.0027 74.3702C71.0533 74.3592 71.1014 74.3372 71.1441 74.3056C71.1868 74.2739 71.2232 74.2333 71.2511 74.186C71.3134 74.0793 71.3627 73.9643 71.3977 73.8438C71.4383 73.715 71.4776 73.6506 71.5147 73.6506C71.5519 73.6506 71.5753 73.6978 71.5677 73.7914C71.5471 74.0526 71.5009 74.3106 71.4301 74.5612C71.3603 74.8735 71.2403 75.1698 71.0756 75.4366C71.0178 75.5389 70.9385 75.6248 70.8442 75.6873C70.75 75.7498 70.6434 75.7871 70.5333 75.796C70.4224 75.7891 70.3157 75.7478 70.2256 75.6771C70.1355 75.6064 70.0658 75.5092 70.0247 75.3969C69.9175 75.1258 69.8665 74.8322 69.8754 74.5372C69.8754 74.496 69.8754 74.4533 69.8795 74.4099L69.8816 74.371ZM71.4824 78.9128C71.4907 78.9454 71.4949 78.9792 71.4948 79.0131C71.4944 79.0623 71.4876 79.1112 71.4748 79.1584C71.4473 79.2566 71.4065 79.3497 71.3537 79.4347C71.3083 79.5096 71.2622 79.5845 71.216 79.6497C71.168 79.7195 71.1138 79.7843 71.0543 79.8429C70.9855 79.9215 70.9311 79.9619 70.8933 79.9634C70.8614 79.9668 70.8296 79.9566 70.8045 79.935L70.6854 79.8181C70.6359 79.7702 70.5843 79.7215 70.5306 79.6684C70.4769 79.6152 70.4232 79.5718 70.3709 79.5283C70.329 79.4921 70.2854 79.4583 70.2401 79.4272C70.2287 79.4188 70.2202 79.4064 70.216 79.392C70.216 79.3801 70.2209 79.3598 70.2401 79.3306L70.8527 78.3129C70.8747 78.2807 70.8905 78.2658 70.9015 78.2688C70.9278 78.2799 70.9534 78.2932 70.9779 78.3085C71.0288 78.3436 71.0812 78.3833 71.1355 78.42C71.1885 78.4592 71.2382 78.5033 71.2842 78.5518C71.3304 78.6005 71.3711 78.6551 71.4053 78.7143C71.4415 78.7745 71.4683 78.8408 71.4845 78.9105L71.4824 78.9128Z" fill="black"></path></g><defs><clipPath id="clip0_9870_20"><rect width="48.3628" height="15.6009" fill="white" transform="translate(26.3605 64.3628)"></rect></clipPath></defs></svg> 