<?xml version="1.0" encoding="UTF-8"?> <svg xmlns="http://www.w3.org/2000/svg" xmlns:xlink="http://www.w3.org/1999/xlink" fill="none" viewBox="0 0 100 100"><g clip-path="url(#a)"><path fill="#FAFAFA" d="M49.1713 65.5664H48.89c-.2277-.002-.4535.0416-.6647.1283-.225-.2978-.4653-.5833-.7199-.8554.1261-.139.5202-.457 1.5213-.457.996 0 1.3954.318 1.5215.457-.2602.2808-.4993.5667-.7175.8528-.2095-.0856-.4336-.1284-.6594-.1257ZM69.4489 40.167c.2174-.3149.4166-.6424.5965-.9809.1092-.1748.1708-.3758.1787-.5827-.0305-.2762-.1585-.5317-.3601-.7192-.0503-.0552-.0977-.1132-.1419-.1736-.1054-.1512-.1803-.3221-.2204-.5029-.0401-.1808-.0447-.3679-.0133-.5505.0105-.0588.0235-.1149.0368-.1711.0379-.1403.0582-.2848.0603-.4303-.0078-.278-.1787-.5639-.452-.5666-.0943.0038-.1859.0333-.2653.0855-.1276.0802-.2488.1704-.3626.2699-.0841.0695-.1629.1364-.2444.1924-.1069.0919-.2411.1447-.381.1497-.0863-.1232-.1889-.2338-.3048-.3287-.0841-.0709-.1615-.1496-.2312-.2352-.0781-.1154-.1416-.2402-.1892-.3717-.0315-.072-.0631-.1469-.0998-.2191-.0032-.223.036-.4445.1156-.6523.0587-.1369.1291-.2683.2102-.3928.0473-.0802.0998-.1604.1444-.2459.1431-.2908.255-.5965.3338-.9116.1182-.4143.226-.8875-.0263-1.2671-.0357-.0511-.0743-.1002-.1156-.1469-.0542-.0546-.0979-.119-.1288-.1899-.0204-.1155-.0104-.2344.029-.3447.0792-.341.1389-.6865.1787-1.0346.0349-.1859.0157-.3782-.0553-.5532-.1375-.2175-.3537-.3711-.6017-.4277-.0658-.0242-.1313-.0481-.1944-.0776-.1449-.069-.2731-.1697-.3753-.2949-.1022-.1252-.176-.2718-.216-.4294-.0124-.0493-.022-.0993-.0288-.1497-.0168-.1305-.0531-.2577-.1079-.377-.0507-.1144-.1415-.2055-.2547-.2555-.1132-.0499-.2407-.055-.3574-.0144-.0796.0404-.1481.1-.1997.1737-.0858.1165-.1623.2399-.2287.3688-.0465.0882-.0973.1738-.1524.2567-.0775.1251-.1875.226-.3179.2914-.1268-.062-.2611-.1069-.3994-.1336-.1017-.0191-.2012-.0487-.297-.0883-.1114-.057-.2148-.1289-.3073-.2139-.0711-.0588-.1447-.1176-.2235-.1711-.0047-.002-.0091-.0046-.013-.0079.0042-.1131.0173-.2258.0393-.3368.0375-.144.0876-.2843.1499-.4191.0368-.0855.0735-.1737.1076-.2645.0985-.3093.1646-.6283.1972-.9516.0578-.4277.0918-.9117-.213-1.2485-.0445-.0481-.0893-.0881-.1339-.1283-.0616-.0456-.1143-.1027-.1551-.1683-.037-.111-.0451-.2298-.0236-.3449.0285-.3493.0372-.7001.0263-1.0504.0069-.1897-.0406-.3773-.1366-.54-.1684-.193-.404-.3119-.6569-.3314-.0684-.0135-.1367-.0295-.2025-.0481-.1533-.0462-.2946-.1262-.4141-.2343-.1194-.1082-.2139-.2417-.2768-.3912-.0185-.0482-.0368-.0963-.0526-.1444-.0352-.1266-.0902-.2467-.1629-.3556-.067-.1051-.17-.1811-.289-.2132-.119-.0321-.2455-.018-.3549.0396-.0724.0513-.131.1202-.1707.2003-.0676.1282-.1256.2613-.1734.3984-.0368.0988-.0711.1897-.1131.278-.0593.1345-.1527.2505-.2705.3362-.1349-.0415-.2744-.0649-.4152-.0695-.1037-.0038-.2067-.0182-.3076-.0428-.1186-.0404-.2316-.0961-.3363-.1657-.0797-.0502-.1622-.0958-.247-.1365-.239-.1094-.5938-.1522-.8118.0856-.2971.3235-.0631.7645.1076 1.0852.0185.0375.0395.0723.0578.107.1284.25.1866.5311.1682.8126-.0109-.0056-.0223-.0101-.0341-.0133-.5027-.1474-1.0249-.2142-1.5478-.1978-.2075-.0053-.3468.0935-.3599.2485-.029.3022.1077.5934.4125.8902.3136.3072.556.6816.7094 1.096.0448.1202.0816.2485.1209.3714.0756.308.1998.6014.3679.8689.268.3294.6046.5942.9855.7752.2779.1389.5346.318.762.5318.034.0349.0683.0723.0998.1097.1139.1503.2598.2722.4269.3565.1671.0843.3509.1288.5374.13.0921.0133.1787.0267.2602.0453.8434.1925 1.4347.4786 1.5924.7699-.0028.089-.0134.1776-.0315.2647-.0106-.0053-.0211-.0135-.0316-.0188-.4756-.2231-.9828-.3683-1.503-.4303-.2024-.0348-.3548.04-.3916.1897-.0293.1683-.0196.3413.0283.5051s.1327.314.2477.4386c.2666.3507.4517.7583.5413 1.1922.0263.1255.0445.2566.063.3849.0284.316.1084.625.2365.9142.2157.3662.5093.6786.8592.9142.2535.1807.4808.3967.6754.6415.0288.04.0551.0828.0841.123.0676.1162.1508.2223.247.3154.1864.1522.4049.2583.6384.3101.0893.0267.1709.0535.2522.0855.5834.2325.9197.5239 1.0248.89-.0493.1486-.1164.2905-.1997.4224-.0025-.0026-.0052-.0079-.0077-.0107-.3281-.452-.7256-.8474-1.1772-1.1708-.0811-.0702-.1854-.1065-.2918-.1016-.034.0054-.0667.0176-.096.0359-.0293.0184-.0547.0425-.0747.071-.1839.2648-.2312.6176-.1446 1.0827.0925.4967.0889 1.007-.0105 1.5023-.0288.1416-.0684.2887-.1052.4303-.1062.3381-.1637.6902-.1706 1.0452.04.471.1723.929.3889 1.3472.1552.3155.2708.6496.3441.9944l.0237.1683c.0133.1491.0433.2962.0894.4384.1002.2396.2519.4534.4439.6255.0674.0662.1315.1358.192.2085.1934.2058.3176.4689.3546.7512-.1869-.2454-.3859-.4809-.5964-.7057-.0336-.0417-.0751-.0762-.1221-.1015-.0469-.0253-.0983-.0408-.1512-.0456-.0342-.0004-.0681.0063-.0997.0197-.0317.0133-.0603.033-.0842.0579-.2235.2299-.3258.5721-.3101 1.0479.0152.5052-.0679 1.0084-.2444 1.4809-.0499.1362-.1129.2752-.1707.4063-.1576.3169-.2691.6555-.3311 1.005-.0339.4715.0259.9451.1759 1.3926.1052.3361.167.6848.184 1.0371 0 .0563-.0026.1151-.0026.1711-.0108.1491-.0046.2989.0183.4465.0626.2527.1793.4882.3416.6897.0578.0802.1104.1576.1577.2378.2466.4981.3019 1.0718.1551 1.6091-.002.0003-.0039.0013-.0052.0028v-.0134c-.0405-.5599-.1692-1.1095-.3812-1.6278-.015-.0516-.04-.0996-.0734-.1414-.0333-.0418-.0745-.0764-.121-.102-.0314-.0142-.0652-.0218-.0996-.0222-.0343-.0005-.0684.0062-.1001.0196-.2943.123-.5203.3957-.6884.8394-.1818.4709-.4532.9005-.7989 1.2642-.0998.1044-.2074.2085-.3153.3075-.2679.229-.5016.4964-.6937.7938-.2132.4197-.341.8789-.3756 1.35-.0323.3511-.1101.6962-.2313 1.0265-.021.0535-.0447.1041-.0683.155-.0677.1332-.1198.274-.1551.4196-.0404.257-.0243.5199.0473.7698.021.0963.0395.1871.0525.2808.0658.4865-.2915 1.2055-.6804 1.668h-.0028c.0028-.0053.0028-.0081.0053-.0135.1433-.5423.2001-1.1045.1682-1.6652.004-.1082-.0337-.2137-.1051-.294-.0249-.0238-.0542-.0423-.0863-.0542-.032-.012-.0661-.0172-.1002-.0153-.3181.016-.6201.2004-.9224.5585-.3243.3833-.7199.6976-1.164.9249-.1288.0642-.2655.1258-.3968.1846-.3268.1263-.6339.3001-.9117.516-.3381.3247-.6081.7157-.7936 1.1494-.1459.3202-.3313.6202-.5518.8928-.0368.0428-.0763.0828-.1156.123-.1063.1034-.2014.2181-.2838.3421-.1226.2288-.1926.4829-.205.7431-.0132.0988-.0237.1925-.042.2834-.0868.433-.1919.711-.4862.9462v-.7912c-.0001-.1914-.0748-.3749-.2079-.5103-.133-.1353-.3134-.2114-.5016-.2114h-1.5108c-.3214.0076-.6423-.0293-.9539-.1097-.1737-.0379-.3448-.087-.5123-.1469-.4765-.1891-1.0055-.1891-1.482 0-.1686.0596-.3406.1086-.515.1469-.3116.0805-.6326.1174-.954.1097h-1.5285c-.1881.0001-.3685.0762-.5015.2115-.133.1353-.2078.3188-.2079.5102v1.2856c-.0841-.056-.1629-.1148-.2418-.171.1499-1.2136-.3626-2.6276-1.3373-3.6407-.4659-.4506-.9778-.8493-1.5268-1.1895-.7856-.5266-1.5293-1.0264-1.9445-1.8016-.0176-.0337-.0458-.0604-.0801-.0759-.0343-.0155-.0727-.0189-.1091-.0096-.0363.0085-.0689.0287-.093.0576-.0241.0289-.0385.0649-.0409.1028-.0229.3901-.0168.7815.0183 1.1708.0648.376.173.7429.3225 1.0931-.3117-.0783-.6188-.1747-.9197-.2887-.2572-.1003-.503-.2284-.7332-.3821.3092-.5827.4801-1.2309.4988-1.8929.0187-.6619-.1152-1.3191-.391-1.9189-.2833-.5874-.6278-1.1421-1.0275-1.6547-.5571-.7724-1.0851-1.5023-1.2087-2.3763-.0053-.0375-.0225-.0723-.0491-.0989-.0266-.0265-.0611-.0435-.0981-.0482-.0369-.0052-.0745.0022-.1069.0211-.0323.0189-.0576.0482-.0718.0833-.1543.3579-.2825.7268-.3836 1.1038-.0681.3754-.091.7578-.0683 1.1388-.2654-.1834-.5206-.3815-.7646-.5935-.1992-.1783-.3797-.3772-.5387-.5934.4565-.4441.8082-.9878 1.0285-1.5902.2203-.6023.3034-1.2476.2432-1.8873-.0736-.6497-.2154-1.2896-.4229-1.9086-.2708-.9169-.5283-1.7856-.3574-2.6517.0076-.0372.0029-.0759-.0132-.1102-.0161-.0343-.0429-.0623-.0761-.0796-.0331-.0175-.0709-.0233-.1075-.0165-.0366.0068-.07.0257-.0949.0539-.2623.2846-.5038.5884-.7225.9088-.1881.3306-.3355.6835-.439 1.0506-.1893-.2639-.3647-.5378-.5255-.8207-.1341-.243-.2416-.5002-.3206-.7671 1.1011-.5132 2.0128-1.684 2.3361-3.0259.1303-.64.1928-1.2924.1865-1.9459.0263-.957.05-1.8633.4782-2.6303.0179-.0331.0251-.0712.0203-.1086-.0047-.0375-.021-.0725-.0466-.0999-.0262-.0271-.0605-.0447-.0975-.0501-.0371-.0053-.0748.0019-.1074.0206-.337.187-.6602.3988-.967.6336-.2801.2545-.5289.5426-.741.8579-.0995-.3103-.1811-.6262-.2443-.9462-.047-.2529-.0699-.5098-.0683-.7671.6128-.1539 1.1834-.4469 1.6691-.8569.4856-.4101.8738-.9267 1.1354-1.511.253-.6011.4442-1.2273.5703-1.8686.2154-.9328.4177-1.8149.9905-2.4778.0241-.0285.0386-.0641.0414-.1016.0029-.0375-.0061-.075-.0256-.1069-.0208-.0314-.0508-.0553-.0857-.0683-.0349-.013-.073-.0144-.1088-.004-.367.1141-.7253.2552-1.0721.4224-.3244.1919-.6252.4226-.8959.687-.0358-.3239-.0533-.6497-.0525-.9757.0039-.2854.0382-.5694.1023-.8473.1509.0191.3027.0289.4547.0293 1.0098-.0137 1.9781-.4113 2.7143-1.1145.4313-.4342.816-.9137 1.1475-1.4307.5123-.7377.9933-1.4353 1.7238-1.8095.0333-.0174.0602-.0453.0768-.0795.0165-.0342.0218-.0729.015-.1104-.0068-.037-.0254-.0707-.053-.0958-.0275-.0251-.0625-.0403-.0994-.0432-.3617-.0331-.7252-.0393-1.0878-.0186-.3458.0496-.6846.1412-1.009.2726.08-.2894.1757-.5741.2865-.8528.1396-.3421.3301-.6603.5648-.9435.021-.0241.0448-.0534.0711-.0855.1587-.2178.3482-.4105.5623-.572.039-.0208.0694-.055.0858-.0965.0165-.0415.0178-.0875.0039-.13-.0139-.0424-.0422-.0784-.0798-.1016-.0376-.0232-.0821-.0319-.1255-.0248-1.0104.1739-1.9779.5461-2.8484 1.096.1754-.6181.1288-1.2795-.1314-1.8658-.0956-.162-.2027-.3166-.3206-.4626-.0211-.0262-.049-.0459-.0806-.0568-.0316-.0108-.0656-.0124-.098-.0045-.0322.0084-.0614.0259-.0843.0505-.0228.0246-.0382.0553-.0446.0885-.1368.7559-.4939 1.4525-1.0248 1.9994-.1787.1818-.3784.3529-.5728.5158-.2072.169-.406.3485-.5956.5378-.9276.9489-1.4347 3.0927-.6806 4.9505-.3419.3396-.6548.708-.9355 1.1013-.1103-.7752-.4099-1.4141-.8566-1.8016-.1559-.121-.3211-.2292-.494-.3236-.0288-.0167-.0617-.0246-.0948-.0227-.0331.0019-.0649.0135-.0916.0334-.0272.02-.0481.0476-.0602.0794-.0121.0318-.0149.0664-.0082.0998.1601.8.0814 1.6303-.2259 2.3844-.1026.2513-.2365.4998-.3627.7378-.1378.2491-.2632.5051-.3758.767-.6489 1.5746-.1812 3.713 1.0878 5.004-.2221.3512-.4189.7184-.5886 1.0987-.26-.7352-.6832-1.3019-1.1954-1.5878-.1768-.0856-.3595-.158-.5466-.2166-.0319-.01-.0659-.0105-.098-.0015-.0322.009-.0611.0272-.0834.0524-.0222.0255-.0369.0567-.0424.0903-.0056.0335-.0018.0679.0109.0994.3137.7511.4003 1.5803.2488 2.3818-.0525.2673-.1313.5372-.2102.7991-.086.2722-.1579.5488-.2154.8287-.3206 1.6547.6279 3.7878 2.1231 4.7847-.1376.4825-.2335.9762-.2865 1.4756-.4755-.6148-1.0483-1.0184-1.6239-1.1253-.1943-.0245-.3901-.0352-.5859-.0321-.0332.0006-.0656.0106-.0935.029-.0279.0185-.0501.0445-.0641.0752-.013.0312-.0172.0656-.0122.0991.0051.0335.0193.065.041.0908.531.6119.8697 1.3716.9722 2.1812.0303.2742.0461.5499.0473.8259.008.2807.0158.5694.05.8553.1997 1.628 1.7631 3.3174 3.5053 3.8093.0321.4739.1033.9442.2128 1.406-.649-.417-1.3244-.6016-1.9025-.5079-.1917.0412-.3798.0984-.5623.1711-.0312.0117-.0585.0324-.0785.0595-.0201.027-.032.0594-.0345.0932-.0025.0338.0046.0676.0205.0974.0159.0298.0398.0543.069.0707.7018.3958 1.271.9962 1.6344 1.724.1209.2433.2207.5078.3178.7619.0962.2683.2059.5315.3286.7884.7095 1.4328 2.4252 2.4246 4.1122 2.4246.1273.0005.2545-.0058.3811-.0188.2002.4744.4429.9289.7252 1.3579-.6543-.1747-1.3484-.1065-1.9577.1925-.1651.1076-.3223.2273-.4702.3582-.0256.0217-.0444.0505-.0542.0829-.0097.0323-.0101.0669-.0009.0995.0092.0325.0275.0617.0526.0839.0251.0222.0561.0365.0891.0412.7933.1243 1.5319.4874 2.1206 1.0425.197.1871.3784.3981.5571.6013.1822.2182.3751.427.5781.6255.8356.794 1.8051 1.4862 3.9309 1.4862 1.2843-.03 2.5617-.2003 3.8101-.5079.2795.1413.5163.3564.6858.6229l.0052-.0027c.0116.044.0322.085.0606.1204l.0945.1255c-.4624.254-1.3691.5239-2.985.2673-.5728-.0935-.7752.1097-.8461.2406-.1051.1952-.0553.4465.1339.7217-.7855.3101-2.0863.4839-4.0491-.2004-.0376-.0124-.0784-.0099-.1142.0071-.0358.0169-.0641.0469-.079.0841-.015.0372-.0156.0788-.0017.1164.0139.0376.0412.0685.0766.0865l2.0127.9783-.5648.6494c-.0177.0211-.0299.0463-.0355.0734-.0055.0271-.0041.0552.004.0817.0088.026.024.0493.0443.0676.0202.0183.0448.031.0713.0367.672.1323 1.3546.2011 2.0391.2058.8776 0 1.8498-.1337 2.4935-.6121.0514-.0383.0915-.0902.1161-.1501.0245-.0598.0326-.1253.0233-.1894-.0091-.0664-.036-.129-.0777-.1808-.0417-.0519-.0967-.0911-.1588-.1133-.0894-.0321-.1762-.0695-.2603-.1095.0763.0026.1524.0054.226.0054 1.5398 0 2.3124-.6148 2.683-1.0988.0918.0683.198.114.3102.1335.1121.0195.2272.0122.3362-.0212l.289-.0802.2891.0802c.0718.0203.1461.0302.2207.0295.1535.0027.3034-.0473.4257-.1418.3703.484 1.1429 1.0988 2.6749 1.0988.0761 0 .1524-.0028.2312-.0054-.084.0374-.1681.0749-.2602.1095-.0621.0222-.1171.0614-.1588.1133-.0417.0518-.0686.1144-.0777.1808-.0093.0641-.0013.1296.0233.1894.0246.0599.0647.1118.1161.1501.6437.4784 1.6159.6121 2.4935.6121.6846-.0031 1.3673-.072 2.0391-.2058.0267-.0056.0514-.0182.0717-.0367.0203-.0184.0355-.0419.044-.0682.0086-.0263.0101-.0545.0046-.0816-.0056-.0271-.0181-.0522-.0362-.0729l-.5649-.6494 2.0128-.9783c.0354-.018.0627-.0489.0766-.0865.0139-.0376.0133-.0792-.0017-.1164s-.0432-.0672-.079-.0841c-.0359-.017-.0766-.0195-.1142-.0071-1.9628.6843-3.2636.5105-4.0491.2004.1917-.2752.239-.5265.1339-.7217-.0709-.1309-.2733-.3341-.8461-.2406-1.6187.2566-2.5251-.0133-2.9876-.2673l.0946-.1255c.0263-.0366.0467-.0773.0603-.1204l.0053.0027c.153-.2468.3668-.4486.6201-.5855.3503.1727.7354.2597 1.1247.2541.6012-.0158 1.1931-.1558 1.7395-.4117.0818-.0397.1593-.0881.2312-.1443.2624-.1244.5527-.1752.8409-.1471.1542.016.3065.0473.4546.0936.0919.024.1892.0507.2891.0721.3386.0564.682.077 1.0248.0616.4545-.0054.967-.0402 1.3138-.4038.0467-.0509.0906-.1044.1314-.1603.051-.0752.113-.1419.1839-.1978.1188-.0579.2493-.0862.3809-.0828.377-.0235.7525-.0681 1.1247-.1337.2022-.022.3952-.0976.5598-.2191.194-.195.3109-.4556.3283-.7325.0133-.0776.0263-.1524.0448-.2219.0506-.1781.1355-.3441.2495-.4886.1141-.1445.2552-.2646.4152-.3533.05-.0268.1026-.0535.1551-.0777.1323-.0559.2561-.1306.3679-.2217.2075-.1792.3231-.4946.1549-.7111-.0616-.0729-.1415-.1274-.2312-.1578-.1413-.0511-.2862-.0913-.4335-.1202-.1051-.0241-.2049-.0455-.2995-.0748-.134-.0382-.2555-.112-.3521-.2138.04-.1455.0612-.2956.063-.4465.001-.1115.0133-.2226.0368-.3315.0404-.134.0968-.2623.1682-.3821.013-.0242.0263-.0482.0393-.0749.1924-.1906.4308-.3262.6912-.393.151-.0353.3049-.0568.4597-.0642.0946-.0079.1945-.016.2943-.0293.3383-.0598.6695-.1557.988-.2861.4284-.1576.9014-.3636 1.1064-.8233.0288-.0667.0498-.1309.0708-.195.0235-.0884.0607-.1724.1104-.2487.0935-.0948.2079-.1653.3338-.2058.3486-.1495.6889-.3182 1.0195-.5053.1842-.0883.342-.2248.4572-.3956.1188-.2496.144-.5347.0709-.8019-.0131-.0776-.0236-.1523-.0288-.2245-.0104-.1848.0157-.3699.0766-.5443.0609-.1745.1554-.3347.278-.4715.0395-.0428.0788-.083.1209-.1258.1056-.098.1983-.2094.276-.3314.1391-.2378.1444-.5746-.0841-.7243-.0812-.0483-.1739-.0732-.268-.0721-.1504-.0015-.3007.0092-.4495.0319-.1076.0135-.2074.0267-.3073.0295-.1389.0097-.2779-.019-.4021-.083-.008-.1504-.0371-.2989-.0866-.4409-.0333-.1055-.0579-.2137-.0736-.3233-.0049-.1399.0066-.2799.034-.417.0158-.1018.0316-.206.0396-.3101.0012-.0241.0012-.0482 0-.0723l.0025.0028c.0883-.1077.1869-.2062.2943-.2941.1252-.0925.258-.1739.3969-.2433.0841-.0453.1734-.0909.26-.1444.2876-.1898.5545-.4102.7963-.6575.3311-.3154.6884-.695.7015-1.2001.002-.0697-.0016-.1394-.0105-.2085-.0129-.0897-.0112-.181.0052-.2701.049-.1245.1276-.2347.2287-.3208.2629-.2761.5103-.567.741-.8714.1346-.1549.227-.3429.2681-.5453.0137-.2775-.0734-.5505-.2445-.7671-.0409-.063-.0786-.1282-.1129-.1952-.0804-.1662-.1276-.347-.1389-.5319-.0113-.1848.0135-.3702.0731-.5452.0185-.0563.0395-.1097.0631-.1632.0604-.1316.1028-.2709.1261-.4142.0342-.2754-.0894-.5855-.3574-.6336-.0938-.0114-.1889.0024-.2758.0402-.1389.0592-.2733.1289-.4021.2085-.0946.056-.1812.1069-.2733.1497-.1239.0648-.263.0935-.4019.0827-.0663-.1334-.1493-.2576-.247-.3693-.0731-.0829-.1374-.1734-.1919-.2699-.0551-.1155-.0957-.2377-.1209-.3635.0235-.0319.049-.0623.0763-.0909.1086-.1118.2274-.2129.3546-.3021.0763-.0589.1577-.1177.234-.1846.255-.2338.4848-.4945.6857-.7777.2785-.3636.5703-.7966.5045-1.2964-.0105-.0723-.0263-.139-.042-.2031-.0267-.0874-.0391-.1786-.0368-.2701.0228-.1328.0809-.2567.1682-.3582Z"></path><path fill="url(#b)" fill-opacity=".05" d="M49.1713 65.5664H48.89c-.2277-.002-.4535.0416-.6647.1283-.225-.2978-.4653-.5833-.7199-.8554.1261-.139.5202-.457 1.5213-.457.996 0 1.3954.318 1.5215.457-.2602.2808-.4993.5667-.7175.8528-.2095-.0856-.4336-.1284-.6594-.1257ZM69.4489 40.167c.2174-.3149.4166-.6424.5965-.9809.1092-.1748.1708-.3758.1787-.5827-.0305-.2762-.1585-.5317-.3601-.7192-.0503-.0552-.0977-.1132-.1419-.1736-.1054-.1512-.1803-.3221-.2204-.5029-.0401-.1808-.0447-.3679-.0133-.5505.0105-.0588.0235-.1149.0368-.1711.0379-.1403.0582-.2848.0603-.4303-.0078-.278-.1787-.5639-.452-.5666-.0943.0038-.1859.0333-.2653.0855-.1276.0802-.2488.1704-.3626.2699-.0841.0695-.1629.1364-.2444.1924-.1069.0919-.2411.1447-.381.1497-.0863-.1232-.1889-.2338-.3048-.3287-.0841-.0709-.1615-.1496-.2312-.2352-.0781-.1154-.1416-.2402-.1892-.3717-.0315-.072-.0631-.1469-.0998-.2191-.0032-.223.036-.4445.1156-.6523.0587-.1369.1291-.2683.2102-.3928.0473-.0802.0998-.1604.1444-.2459.1431-.2908.255-.5965.3338-.9116.1182-.4143.226-.8875-.0263-1.2671-.0357-.0511-.0743-.1002-.1156-.1469-.0542-.0546-.0979-.119-.1288-.1899-.0204-.1155-.0104-.2344.029-.3447.0792-.341.1389-.6865.1787-1.0346.0349-.1859.0157-.3782-.0553-.5532-.1375-.2175-.3537-.3711-.6017-.4277-.0658-.0242-.1313-.0481-.1944-.0776-.1449-.069-.2731-.1697-.3753-.2949-.1022-.1252-.176-.2718-.216-.4294-.0124-.0493-.022-.0993-.0288-.1497-.0168-.1305-.0531-.2577-.1079-.377-.0507-.1144-.1415-.2055-.2547-.2555-.1132-.0499-.2407-.055-.3574-.0144-.0796.0404-.1481.1-.1997.1737-.0858.1165-.1623.2399-.2287.3688-.0465.0882-.0973.1738-.1524.2567-.0775.1251-.1875.226-.3179.2914-.1268-.062-.2611-.1069-.3994-.1336-.1017-.0191-.2012-.0487-.297-.0883-.1114-.057-.2148-.1289-.3073-.2139-.0711-.0588-.1447-.1176-.2235-.1711-.0047-.002-.0091-.0046-.013-.0079.0042-.1131.0173-.2258.0393-.3368.0375-.144.0876-.2843.1499-.4191.0368-.0855.0735-.1737.1076-.2645.0985-.3093.1646-.6283.1972-.9516.0578-.4277.0918-.9117-.213-1.2485-.0445-.0481-.0893-.0881-.1339-.1283-.0616-.0456-.1143-.1027-.1551-.1683-.037-.111-.0451-.2298-.0236-.3449.0285-.3493.0372-.7001.0263-1.0504.0069-.1897-.0406-.3773-.1366-.54-.1684-.193-.404-.3119-.6569-.3314-.0684-.0135-.1367-.0295-.2025-.0481-.1533-.0462-.2946-.1262-.4141-.2343-.1194-.1082-.2139-.2417-.2768-.3912-.0185-.0482-.0368-.0963-.0526-.1444-.0352-.1266-.0902-.2467-.1629-.3556-.067-.1051-.17-.1811-.289-.2132-.119-.0321-.2455-.018-.3549.0396-.0724.0513-.131.1202-.1707.2003-.0676.1282-.1256.2613-.1734.3984-.0368.0988-.0711.1897-.1131.278-.0593.1345-.1527.2505-.2705.3362-.1349-.0415-.2744-.0649-.4152-.0695-.1037-.0038-.2067-.0182-.3076-.0428-.1186-.0404-.2316-.0961-.3363-.1657-.0797-.0502-.1622-.0958-.247-.1365-.239-.1094-.5938-.1522-.8118.0856-.2971.3235-.0631.7645.1076 1.0852.0185.0375.0395.0723.0578.107.1284.25.1866.5311.1682.8126-.0109-.0056-.0223-.0101-.0341-.0133-.5027-.1474-1.0249-.2142-1.5478-.1978-.2075-.0053-.3468.0935-.3599.2485-.029.3022.1077.5934.4125.8902.3136.3072.556.6816.7094 1.096.0448.1202.0816.2485.1209.3714.0756.308.1998.6014.3679.8689.268.3294.6046.5942.9855.7752.2779.1389.5346.318.762.5318.034.0349.0683.0723.0998.1097.1139.1503.2598.2722.4269.3565.1671.0843.3509.1288.5374.13.0921.0133.1787.0267.2602.0453.8434.1925 1.4347.4786 1.5924.7699-.0028.089-.0134.1776-.0315.2647-.0106-.0053-.0211-.0135-.0316-.0188-.4756-.2231-.9828-.3683-1.503-.4303-.2024-.0348-.3548.04-.3916.1897-.0293.1683-.0196.3413.0283.5051s.1327.314.2477.4386c.2666.3507.4517.7583.5413 1.1922.0263.1255.0445.2566.063.3849.0284.316.1084.625.2365.9142.2157.3662.5093.6786.8592.9142.2535.1807.4808.3967.6754.6415.0288.04.0551.0828.0841.123.0676.1162.1508.2223.247.3154.1864.1522.4049.2583.6384.3101.0893.0267.1709.0535.2522.0855.5834.2325.9197.5239 1.0248.89-.0493.1486-.1164.2905-.1997.4224-.0025-.0026-.0052-.0079-.0077-.0107-.3281-.452-.7256-.8474-1.1772-1.1708-.0811-.0702-.1854-.1065-.2918-.1016-.034.0054-.0667.0176-.096.0359-.0293.0184-.0547.0425-.0747.071-.1839.2648-.2312.6176-.1446 1.0827.0925.4967.0889 1.007-.0105 1.5023-.0288.1416-.0684.2887-.1052.4303-.1062.3381-.1637.6902-.1706 1.0452.04.471.1723.929.3889 1.3472.1552.3155.2708.6496.3441.9944l.0237.1683c.0133.1491.0433.2962.0894.4384.1002.2396.2519.4534.4439.6255.0674.0662.1315.1358.192.2085.1934.2058.3176.4689.3546.7512-.1869-.2454-.3859-.4809-.5964-.7057-.0336-.0417-.0751-.0762-.1221-.1015-.0469-.0253-.0983-.0408-.1512-.0456-.0342-.0004-.0681.0063-.0997.0197-.0317.0133-.0603.033-.0842.0579-.2235.2299-.3258.5721-.3101 1.0479.0152.5052-.0679 1.0084-.2444 1.4809-.0499.1362-.1129.2752-.1707.4063-.1576.3169-.2691.6555-.3311 1.005-.0339.4715.0259.9451.1759 1.3926.1052.3361.167.6848.184 1.0371 0 .0563-.0026.1151-.0026.1711-.0108.1491-.0046.2989.0183.4465.0626.2527.1793.4882.3416.6897.0578.0802.1104.1576.1577.2378.2466.4981.3019 1.0718.1551 1.6091-.002.0003-.0039.0013-.0052.0028v-.0134c-.0405-.5599-.1692-1.1095-.3812-1.6278-.015-.0516-.04-.0996-.0734-.1414-.0333-.0418-.0745-.0764-.121-.102-.0314-.0142-.0652-.0218-.0996-.0222-.0343-.0005-.0684.0062-.1001.0196-.2943.123-.5203.3957-.6884.8394-.1818.4709-.4532.9005-.7989 1.2642-.0998.1044-.2074.2085-.3153.3075-.2679.229-.5016.4964-.6937.7938-.2132.4197-.341.8789-.3756 1.35-.0323.3511-.1101.6962-.2313 1.0265-.021.0535-.0447.1041-.0683.155-.0677.1332-.1198.274-.1551.4196-.0404.257-.0243.5199.0473.7698.021.0963.0395.1871.0525.2808.0658.4865-.2915 1.2055-.6804 1.668h-.0028c.0028-.0053.0028-.0081.0053-.0135.1433-.5423.2001-1.1045.1682-1.6652.004-.1082-.0337-.2137-.1051-.294-.0249-.0238-.0542-.0423-.0863-.0542-.032-.012-.0661-.0172-.1002-.0153-.3181.016-.6201.2004-.9224.5585-.3243.3833-.7199.6976-1.164.9249-.1288.0642-.2655.1258-.3968.1846-.3268.1263-.6339.3001-.9117.516-.3381.3247-.6081.7157-.7936 1.1494-.1459.3202-.3313.6202-.5518.8928-.0368.0428-.0763.0828-.1156.123-.1063.1034-.2014.2181-.2838.3421-.1226.2288-.1926.4829-.205.7431-.0132.0988-.0237.1925-.042.2834-.0868.433-.1919.711-.4862.9462v-.7912c-.0001-.1914-.0748-.3749-.2079-.5103-.133-.1353-.3134-.2114-.5016-.2114h-1.5108c-.3214.0076-.6423-.0293-.9539-.1097-.1737-.0379-.3448-.087-.5123-.1469-.4765-.1891-1.0055-.1891-1.482 0-.1686.0596-.3406.1086-.515.1469-.3116.0805-.6326.1174-.954.1097h-1.5285c-.1881.0001-.3685.0762-.5015.2115-.133.1353-.2078.3188-.2079.5102v1.2856c-.0841-.056-.1629-.1148-.2418-.171.1499-1.2136-.3626-2.6276-1.3373-3.6407-.4659-.4506-.9778-.8493-1.5268-1.1895-.7856-.5266-1.5293-1.0264-1.9445-1.8016-.0176-.0337-.0458-.0604-.0801-.0759-.0343-.0155-.0727-.0189-.1091-.0096-.0363.0085-.0689.0287-.093.0576-.0241.0289-.0385.0649-.0409.1028-.0229.3901-.0168.7815.0183 1.1708.0648.376.173.7429.3225 1.0931-.3117-.0783-.6188-.1747-.9197-.2887-.2572-.1003-.503-.2284-.7332-.3821.3092-.5827.4801-1.2309.4988-1.8929.0187-.6619-.1152-1.3191-.391-1.9189-.2833-.5874-.6278-1.1421-1.0275-1.6547-.5571-.7724-1.0851-1.5023-1.2087-2.3763-.0053-.0375-.0225-.0723-.0491-.0989-.0266-.0265-.0611-.0435-.0981-.0482-.0369-.0052-.0745.0022-.1069.0211-.0323.0189-.0576.0482-.0718.0833-.1543.3579-.2825.7268-.3836 1.1038-.0681.3754-.091.7578-.0683 1.1388-.2654-.1834-.5206-.3815-.7646-.5935-.1992-.1783-.3797-.3772-.5387-.5934.4565-.4441.8082-.9878 1.0285-1.5902.2203-.6023.3034-1.2476.2432-1.8873-.0736-.6497-.2154-1.2896-.4229-1.9086-.2708-.9169-.5283-1.7856-.3574-2.6517.0076-.0372.0029-.0759-.0132-.1102-.0161-.0343-.0429-.0623-.0761-.0796-.0331-.0175-.0709-.0233-.1075-.0165-.0366.0068-.07.0257-.0949.0539-.2623.2846-.5038.5884-.7225.9088-.1881.3306-.3355.6835-.439 1.0506-.1893-.2639-.3647-.5378-.5255-.8207-.1341-.243-.2416-.5002-.3206-.7671 1.1011-.5132 2.0128-1.684 2.3361-3.0259.1303-.64.1928-1.2924.1865-1.9459.0263-.957.05-1.8633.4782-2.6303.0179-.0331.0251-.0712.0203-.1086-.0047-.0375-.021-.0725-.0466-.0999-.0262-.0271-.0605-.0447-.0975-.0501-.0371-.0053-.0748.0019-.1074.0206-.337.187-.6602.3988-.967.6336-.2801.2545-.5289.5426-.741.8579-.0995-.3103-.1811-.6262-.2443-.9462-.047-.2529-.0699-.5098-.0683-.7671.6128-.1539 1.1834-.4469 1.6691-.8569.4856-.4101.8738-.9267 1.1354-1.511.253-.6011.4442-1.2273.5703-1.8686.2154-.9328.4177-1.8149.9905-2.4778.0241-.0285.0386-.0641.0414-.1016.0029-.0375-.0061-.075-.0256-.1069-.0208-.0314-.0508-.0553-.0857-.0683-.0349-.013-.073-.0144-.1088-.004-.367.1141-.7253.2552-1.0721.4224-.3244.1919-.6252.4226-.8959.687-.0358-.3239-.0533-.6497-.0525-.9757.0039-.2854.0382-.5694.1023-.8473.1509.0191.3027.0289.4547.0293 1.0098-.0137 1.9781-.4113 2.7143-1.1145.4313-.4342.816-.9137 1.1475-1.4307.5123-.7377.9933-1.4353 1.7238-1.8095.0333-.0174.0602-.0453.0768-.0795.0165-.0342.0218-.0729.015-.1104-.0068-.037-.0254-.0707-.053-.0958-.0275-.0251-.0625-.0403-.0994-.0432-.3617-.0331-.7252-.0393-1.0878-.0186-.3458.0496-.6846.1412-1.009.2726.08-.2894.1757-.5741.2865-.8528.1396-.3421.3301-.6603.5648-.9435.021-.0241.0448-.0534.0711-.0855.1587-.2178.3482-.4105.5623-.572.039-.0208.0694-.055.0858-.0965.0165-.0415.0178-.0875.0039-.13-.0139-.0424-.0422-.0784-.0798-.1016-.0376-.0232-.0821-.0319-.1255-.0248-1.0104.1739-1.9779.5461-2.8484 1.096.1754-.6181.1288-1.2795-.1314-1.8658-.0956-.162-.2027-.3166-.3206-.4626-.0211-.0262-.049-.0459-.0806-.0568-.0316-.0108-.0656-.0124-.098-.0045-.0322.0084-.0614.0259-.0843.0505-.0228.0246-.0382.0553-.0446.0885-.1368.7559-.4939 1.4525-1.0248 1.9994-.1787.1818-.3784.3529-.5728.5158-.2072.169-.406.3485-.5956.5378-.9276.9489-1.4347 3.0927-.6806 4.9505-.3419.3396-.6548.708-.9355 1.1013-.1103-.7752-.4099-1.4141-.8566-1.8016-.1559-.121-.3211-.2292-.494-.3236-.0288-.0167-.0617-.0246-.0948-.0227-.0331.0019-.0649.0135-.0916.0334-.0272.02-.0481.0476-.0602.0794-.0121.0318-.0149.0664-.0082.0998.1601.8.0814 1.6303-.2259 2.3844-.1026.2513-.2365.4998-.3627.7378-.1378.2491-.2632.5051-.3758.767-.6489 1.5746-.1812 3.713 1.0878 5.004-.2221.3512-.4189.7184-.5886 1.0987-.26-.7352-.6832-1.3019-1.1954-1.5878-.1768-.0856-.3595-.158-.5466-.2166-.0319-.01-.0659-.0105-.098-.0015-.0322.009-.0611.0272-.0834.0524-.0222.0255-.0369.0567-.0424.0903-.0056.0335-.0018.0679.0109.0994.3137.7511.4003 1.5803.2488 2.3818-.0525.2673-.1313.5372-.2102.7991-.086.2722-.1579.5488-.2154.8287-.3206 1.6547.6279 3.7878 2.1231 4.7847-.1376.4825-.2335.9762-.2865 1.4756-.4755-.6148-1.0483-1.0184-1.6239-1.1253-.1943-.0245-.3901-.0352-.5859-.0321-.0332.0006-.0656.0106-.0935.029-.0279.0185-.0501.0445-.0641.0752-.013.0312-.0172.0656-.0122.0991.0051.0335.0193.065.041.0908.531.6119.8697 1.3716.9722 2.1812.0303.2742.0461.5499.0473.8259.008.2807.0158.5694.05.8553.1997 1.628 1.7631 3.3174 3.5053 3.8093.0321.4739.1033.9442.2128 1.406-.649-.417-1.3244-.6016-1.9025-.5079-.1917.0412-.3798.0984-.5623.1711-.0312.0117-.0585.0324-.0785.0595-.0201.027-.032.0594-.0345.0932-.0025.0338.0046.0676.0205.0974.0159.0298.0398.0543.069.0707.7018.3958 1.271.9962 1.6344 1.724.1209.2433.2207.5078.3178.7619.0962.2683.2059.5315.3286.7884.7095 1.4328 2.4252 2.4246 4.1122 2.4246.1273.0005.2545-.0058.3811-.0188.2002.4744.4429.9289.7252 1.3579-.6543-.1747-1.3484-.1065-1.9577.1925-.1651.1076-.3223.2273-.4702.3582-.0256.0217-.0444.0505-.0542.0829-.0097.0323-.0101.0669-.0009.0995.0092.0325.0275.0617.0526.0839.0251.0222.0561.0365.0891.0412.7933.1243 1.5319.4874 2.1206 1.0425.197.1871.3784.3981.5571.6013.1822.2182.3751.427.5781.6255.8356.794 1.8051 1.4862 3.9309 1.4862 1.2843-.03 2.5617-.2003 3.8101-.5079.2795.1413.5163.3564.6858.6229l.0052-.0027c.0116.044.0322.085.0606.1204l.0945.1255c-.4624.254-1.3691.5239-2.985.2673-.5728-.0935-.7752.1097-.8461.2406-.1051.1952-.0553.4465.1339.7217-.7855.3101-2.0863.4839-4.0491-.2004-.0376-.0124-.0784-.0099-.1142.0071-.0358.0169-.0641.0469-.079.0841-.015.0372-.0156.0788-.0017.1164.0139.0376.0412.0685.0766.0865l2.0127.9783-.5648.6494c-.0177.0211-.0299.0463-.0355.0734-.0055.0271-.0041.0552.004.0817.0088.026.024.0493.0443.0676.0202.0183.0448.031.0713.0367.672.1323 1.3546.2011 2.0391.2058.8776 0 1.8498-.1337 2.4935-.6121.0514-.0383.0915-.0902.1161-.1501.0245-.0598.0326-.1253.0233-.1894-.0091-.0664-.036-.129-.0777-.1808-.0417-.0519-.0967-.0911-.1588-.1133-.0894-.0321-.1762-.0695-.2603-.1095.0763.0026.1524.0054.226.0054 1.5398 0 2.3124-.6148 2.683-1.0988.0918.0683.198.114.3102.1335.1121.0195.2272.0122.3362-.0212l.289-.0802.2891.0802c.0718.0203.1461.0302.2207.0295.1535.0027.3034-.0473.4257-.1418.3703.484 1.1429 1.0988 2.6749 1.0988.0761 0 .1524-.0028.2312-.0054-.084.0374-.1681.0749-.2602.1095-.0621.0222-.1171.0614-.1588.1133-.0417.0518-.0686.1144-.0777.1808-.0093.0641-.0013.1296.0233.1894.0246.0599.0647.1118.1161.1501.6437.4784 1.6159.6121 2.4935.6121.6846-.0031 1.3673-.072 2.0391-.2058.0267-.0056.0514-.0182.0717-.0367.0203-.0184.0355-.0419.044-.0682.0086-.0263.0101-.0545.0046-.0816-.0056-.0271-.0181-.0522-.0362-.0729l-.5649-.6494 2.0128-.9783c.0354-.018.0627-.0489.0766-.0865.0139-.0376.0133-.0792-.0017-.1164s-.0432-.0672-.079-.0841c-.0359-.017-.0766-.0195-.1142-.0071-1.9628.6843-3.2636.5105-4.0491.2004.1917-.2752.239-.5265.1339-.7217-.0709-.1309-.2733-.3341-.8461-.2406-1.6187.2566-2.5251-.0133-2.9876-.2673l.0946-.1255c.0263-.0366.0467-.0773.0603-.1204l.0053.0027c.153-.2468.3668-.4486.6201-.5855.3503.1727.7354.2597 1.1247.2541.6012-.0158 1.1931-.1558 1.7395-.4117.0818-.0397.1593-.0881.2312-.1443.2624-.1244.5527-.1752.8409-.1471.1542.016.3065.0473.4546.0936.0919.024.1892.0507.2891.0721.3386.0564.682.077 1.0248.0616.4545-.0054.967-.0402 1.3138-.4038.0467-.0509.0906-.1044.1314-.1603.051-.0752.113-.1419.1839-.1978.1188-.0579.2493-.0862.3809-.0828.377-.0235.7525-.0681 1.1247-.1337.2022-.022.3952-.0976.5598-.2191.194-.195.3109-.4556.3283-.7325.0133-.0776.0263-.1524.0448-.2219.0506-.1781.1355-.3441.2495-.4886.1141-.1445.2552-.2646.4152-.3533.05-.0268.1026-.0535.1551-.0777.1323-.0559.2561-.1306.3679-.2217.2075-.1792.3231-.4946.1549-.7111-.0616-.0729-.1415-.1274-.2312-.1578-.1413-.0511-.2862-.0913-.4335-.1202-.1051-.0241-.2049-.0455-.2995-.0748-.134-.0382-.2555-.112-.3521-.2138.04-.1455.0612-.2956.063-.4465.001-.1115.0133-.2226.0368-.3315.0404-.134.0968-.2623.1682-.3821.013-.0242.0263-.0482.0393-.0749.1924-.1906.4308-.3262.6912-.393.151-.0353.3049-.0568.4597-.0642.0946-.0079.1945-.016.2943-.0293.3383-.0598.6695-.1557.988-.2861.4284-.1576.9014-.3636 1.1064-.8233.0288-.0667.0498-.1309.0708-.195.0235-.0884.0607-.1724.1104-.2487.0935-.0948.2079-.1653.3338-.2058.3486-.1495.6889-.3182 1.0195-.5053.1842-.0883.342-.2248.4572-.3956.1188-.2496.144-.5347.0709-.8019-.0131-.0776-.0236-.1523-.0288-.2245-.0104-.1848.0157-.3699.0766-.5443.0609-.1745.1554-.3347.278-.4715.0395-.0428.0788-.083.1209-.1258.1056-.098.1983-.2094.276-.3314.1391-.2378.1444-.5746-.0841-.7243-.0812-.0483-.1739-.0732-.268-.0721-.1504-.0015-.3007.0092-.4495.0319-.1076.0135-.2074.0267-.3073.0295-.1389.0097-.2779-.019-.4021-.083-.008-.1504-.0371-.2989-.0866-.4409-.0333-.1055-.0579-.2137-.0736-.3233-.0049-.1399.0066-.2799.034-.417.0158-.1018.0316-.206.0396-.3101.0012-.0241.0012-.0482 0-.0723l.0025.0028c.0883-.1077.1869-.2062.2943-.2941.1252-.0925.258-.1739.3969-.2433.0841-.0453.1734-.0909.26-.1444.2876-.1898.5545-.4102.7963-.6575.3311-.3154.6884-.695.7015-1.2001.002-.0697-.0016-.1394-.0105-.2085-.0129-.0897-.0112-.181.0052-.2701.049-.1245.1276-.2347.2287-.3208.2629-.2761.5103-.567.741-.8714.1346-.1549.227-.3429.2681-.5453.0137-.2775-.0734-.5505-.2445-.7671-.0409-.063-.0786-.1282-.1129-.1952-.0804-.1662-.1276-.347-.1389-.5319-.0113-.1848.0135-.3702.0731-.5452.0185-.0563.0395-.1097.0631-.1632.0604-.1316.1028-.2709.1261-.4142.0342-.2754-.0894-.5855-.3574-.6336-.0938-.0114-.1889.0024-.2758.0402-.1389.0592-.2733.1289-.4021.2085-.0946.056-.1812.1069-.2733.1497-.1239.0648-.263.0935-.4019.0827-.0663-.1334-.1493-.2576-.247-.3693-.0731-.0829-.1374-.1734-.1919-.2699-.0551-.1155-.0957-.2377-.1209-.3635.0235-.0319.049-.0623.0763-.0909.1086-.1118.2274-.2129.3546-.3021.0763-.0589.1577-.1177.234-.1846.255-.2338.4848-.4945.6857-.7777.2785-.3636.5703-.7966.5045-1.2964-.0105-.0723-.0263-.139-.042-.2031-.0267-.0874-.0391-.1786-.0368-.2701.0228-.1328.0809-.2567.1682-.3582Z"></path><path fill="#000" d="M44.5422 69.1135c.2494.168.5175.3053.7988.4089.0085.0033.016.0087.022.0158.0059.007.0101.0154.0121.0244.0015.0071.0007.0145-.0021.0212-.0028.0067-.0076.0124-.0137.0162-1.0721.7966-3.2556.5265-4.0176.401l.5176-.5962c.0155-.0186.0268-.0405.0331-.064.0064-.0235.0076-.0482.0036-.0723-.0051-.0241-.0156-.0468-.0306-.0662-.015-.0195-.0341-.0352-.056-.046l-.77-.3742c1.2876.2085 2.2047.0132 2.8116-.246.1976.2064.416.391.6517.5507M45.1335 68.7949h-.494c-.2268-.1586-.4356-.3424-.6226-.5478-.2235-.2541-.276-.4519-.2313-.5346.0394-.0751.197-.1337.5228-.0802 1.6897.2673 2.6725-.0054 3.2268-.3261l.3521.4649c-.3283.4625-1.0851 1.104-2.7538 1.0238ZM53.5499 69.0892c.235-.1606.4534-.3451.6517-.5506.6068.2619 1.524.4544 2.8116.2459l-.7701.3742c-.022.0105-.0414.0261-.0564.0456-.0151.0195-.0254.0424-.0302.0667-.0052.024-.0046.049.0018.0727.0064.0238.0184.0456.035.0635l.5176.5962c-.762.1255-2.9455.3956-4.0176-.4009-.0061-.0039-.0109-.0095-.0137-.0162-.0029-.0067-.0036-.0141-.0021-.0213.0017-.0091.0057-.0177.0117-.0247.006-.007.0137-.0123.0224-.0153.2817-.1026.55-.24.7988-.409M53.7521 67.6325c.3258-.0535.4835.0051.523.0802.0446.0827-.008.2805-.234.5371-.1852.2056-.3933.3886-.6201.5454h-.5018c-1.6607.0774-2.4174-.5614-2.746-1.0239l.3521-.4651c.5518.3235 1.5346.5961 3.2268.3263ZM50.7882 66.3941c-.0182-.0293-.0367-.0616-.0603-.0937-.1259-.1709-.2874-.3115-.473-.4116-.0395-.0214-.0815-.0428-.1261-.0667.6008-.765 1.2848-1.4582 2.0391-2.0664.0314-.0265.0513-.0644.0554-.1057.0041-.0412-.008-.0825-.0335-.1148-.0256-.0323-.0626-.0531-.1031-.0578-.0404-.0048-.0812.0068-.1133.0324-.4221.3437-.8248.7114-1.2062 1.1013-.1917-.2032-.6727-.5453-1.7368-.5453-1.0641 0-1.545.3421-1.7369.5453-.3807-.3906-.7834-.7583-1.206-1.1013-.0159-.0134-.0342-.0234-.0538-.0295-.0197-.0061-.0404-.0081-.0608-.006-.0205.0021-.0403.0083-.0584.0183-.0181.01-.034.0235-.0469.0398-.0129.0163-.0224.035-.0281.0551-.0058.0201-.0075.0412-.0051.0619.0024.0208.0088.0409.0188.0592.0101.0182.0236.0342.0398.0471.7548.6076 1.4389 1.3009 2.0391 2.0664-.0448.0214-.0868.0453-.1261.0667-.1861.0993-.3478.24-.473.4116-.0238.0321-.0421.0642-.0606.0937-.5123-.5827-1.474-.8688-2.0443-.9944-.0885-.02-.1677-.0701-.2245-.142-.0568-.0719-.0879-.1613-.0881-.2536v-1.3868c0-.1077.0421-.2111.117-.2873.0749-.0762.1765-.119.2824-.119h1.5108c.3427.0076.6848-.0321 1.017-.1178.1865-.0392.37-.0919.5491-.1576.4134-.1674.8742-.1674 1.2876 0 .1799.0632.3633.1158.5493.1576.3321.0858.6741.1255 1.0168.1178h1.511c.1059 0 .2075.0428.2824.119.0749.0762.117.1796.117.2873v1.3875c-.0003.0922-.0314.1817-.0882.2536-.0569.0719-.1361.122-.2246.142-.5806.1255-1.5424.4116-2.0549.9943M65.2772 28.2447c.0631-.0934.1157-.1897.1682-.2833.0595-.1145.1271-.2244.2025-.3287.0215-.032.0492-.0593.0813-.0802.0578-.0267.1604.0374.2077.1283.0401.0918.0667.189.0788.2887.0105.056.021.1148.0341.1711.0506.2041.1456.3942.278.5561.1323.1619.2987.2915.4867.3794.0709.0321.1444.0614.2155.0856.1707.0365.3233.133.4309.2726.0415.1202.0497.2497.0236.3743-.0386.3381-.0965.6737-.1734 1.005-.0551.1657-.0615.344-.0183.5133.0415.1114.106.2126.1892.2966.034.0402.0655.0776.0918.115.1762.2673.0841.6548-.013.9997-.0734.2938-.1773.5787-.3101.8501-.042.0774-.0893.1522-.1341.2299-.0922.1401-.1713.2886-.2365.4437-.0462.1278-.0822.2591-.1076.3928-.0492-.039-.1031-.0713-.1604-.0962.1077-.6326.1404-1.276.0973-1.9165.0071-.2534-.0377-.5056-.1314-.7405-.0315-.0642-.0683-.123-.1025-.179-.0369-.0571-.0693-.1171-.0972-.1792-.0588-.1985-.0697-.4086-.0315-.6123.0582-.2876.0202-.5868-.1078-.85-.1544-.2144-.3672-.378-.6122-.4705-.2004-.0694-.373-.2037-.4914-.3823-.0312-.0796-.0515-.1633-.0604-.2485-.0157-.1379-.0577-.2714-.1236-.393.1294-.0915.2401-.2077.3258-.3422M60.7287 21.629c.0473-.1014.0866-.2032.1234-.3046.0423-.1221.0933-.2409.1524-.3556.0163-.0356.0406-.0667.0711-.0909.055-.0346.1629.0107.2232.0937.0518.0848.0916.1766.1184.2727.0183.056.0367.1094.0578.1629.0806.1939.2025.3672.357.5073.1545.1401.3377.2435.5364.3027.0735.0214.1524.0375.226.0535.1744.0086.3398.0817.4649.2057.0589.1124.0862.2392.0789.3663.0118.3406.004.6815-.0236 1.0212-.0301.1713-.01.348.0578.5078.0583.1032.1367.1932.2304.2646.0376.0319.0736.0658.1077.1015.2129.2353.1814.6362.1313.9918-.0296.3015-.0904.599-.1812.8875-.029.0828-.0658.1657-.0998.2459-.0705.1529-.1268.3122-.1682.4758-.02.0924-.0332.1862-.0395.2806-.0578-.0129-.1168-.0191-.1759-.0186.005-.6185-.0594-1.2355-.192-1.8391-.0289-.2516-.1104-.494-.239-.711-.0394-.0572-.0824-.1117-.1288-.1632-.046-.0494-.0873-.1031-.1234-.1604-.0875-.1866-.129-.3921-.1209-.5987.0164-.2939-.0651-.5849-.2312-.8259-.1841-.1881-.4177-.3181-.6727-.3742-.2089-.0372-.3995-.1444-.5413-.3047-.0421-.0749-.0748-.1549-.0974-.2381-.0355-.1348-.0971-.2611-.1812-.3714.1175-.1078.2123-.2388.2786-.3849M61.2042 28.4054c-.0946-.0214-.1917-.0346-.2837-.0507-.1506.0045-.3-.0282-.4354-.0952-.1355-.0671-.2529-.1665-.3424-.2897-.0368-.04-.0736-.0828-.1104-.1202-.2494-.234-.5301-.431-.8337-.5851-.34-.1584-.6414-.391-.8829-.6815-.148-.2391-.2571-.5008-.3233-.7752-.0393-.1283-.0788-.2619-.1261-.3902-.1701-.4595-.4395-.8743-.7883-1.2136-.0902-.0708-.165-.1599-.2197-.2616-.0547-.1017-.0881-.2138-.0982-.3293.0148-.0023.0297-.0032.0446-.0025.4907-.0167.981.0447 1.4532.1817.2207.0648.4237.1805.5933.3381.1695.1577.301.353.3842.5708.0253.086.0455.1735.0603.2619-.0037.2032.0615.4015.1844.5616.123.1601.2964.2723.491.3178.0931.0252.1811.0668.2601.1229.1066.1233.1719.2777.1866.4412.0279.1692.0849.332.1682.4812.1553.2065.3634.3655.6016.4597.0578.0293.1157.056.1682.0881.6569.3636 1.038.7327 1.1642 1.1255.0262.0827.0525.1629.0788.2378.013.0402.0288.0776.0393.115l.0158.0561c-.4462-.2754-.9376-.4664-1.4505-.564M64.7543 35.0185c-.0921-.0346-.184-.0641-.2733-.0936-.1881-.0414-.3648-.1244-.5178-.2432-.075-.0776-.1411-.1637-.1969-.2566-.029-.0453-.0606-.0909-.0921-.1362-.2114-.2693-.4591-.5068-.7357-.7057-.312-.209-.5756-.4844-.7726-.8073-.112-.2584-.1813-.5339-.2049-.8154-.0183-.1336-.0393-.2698-.0684-.4063-.1011-.479-.3057-.9291-.5991-1.3177-.0782-.0838-.1388-.183-.1781-.2914-.0393-.1085-.0564-.224-.0504-.3394.0151-.0009.0302.0009.0446.0053.4881.058.9642.1933 1.4112.401.2086.0978.3922.2433.5367.425.1444.1817.2457.3948.2961.6228.0125.0895.0204.1796.0238.2699-.0186.2718.0619.541.226.7564.0906.0905.1965.1639.3125.2166.1249.0421.2304.1292.2967.2448.0663.1157.0889.2519.0634.3833.0041.171.037.3401.0972.4999.1231.228.306.4167.5282.5453.0526.0374.1051.0749.155.1123.2194.1639.3994.3763.5264.6213.127.2449.1977.516.2068.7928-.0028.04-.008.0802-.0105.1177-.0026.0374-.0053.0667-.008.0988-.269-.3244-.6209-.5668-1.0168-.7004ZM65.1221 43.078c-.0683-.0801-.1394-.155-.2102-.2273-.1571-.1383-.2827-.3098-.3679-.5025-.0371-.119-.0609-.2418-.0711-.3661-.0077-.0616-.0157-.123-.0235-.1818-.0765-.3737-.2002-.7358-.3679-1.0773-.1978-.3773-.3201-.7907-.3601-1.2164.0081-.3225.0622-.6421.1604-.9488.0393-.1471.0789-.2968.1104-.4491.1094-.5392.1138-1.095.013-1.6359-.0703-.2562-.0507-.5294.0553-.7726.0053.0028.0105.0081.0183.0135.4229.303.7963.6719 1.1063 1.0931.1521.215.2585.4599.3123.719.0538.2592.0539.5269.0003.7861-.0267.0986-.0583.1958-.0946.2912-.1287.2697-.1683.5745-.1128.8689.0448.1326.1085.2577.1891.3714.0656.087.1162.1846.1497.2887.0221.1899-.0079.3824-.0866.556-.0689.1767-.1097.3635-.1209.5532.0132.2849.0973.5617.2443.8045.0315.0642.0631.1283.0921.1925.2365.5239.4309 1.0852.281 1.6573-.008.0317-.0176.063-.0288.0936-.0052.0186-.0105.0347-.0157.0535-.0838.2445-.2142.4698-.3837.6629-.0027-.0053-.0027-.0081-.0052-.0135-.021-.0481-.0473-.0962-.0711-.1415.0521-.2612.0418-.5312-.03-.7875-.0718-.2562-.2029-.491-.3824-.6851ZM64.2681 51.0136c-.0526-.0909-.1129-.1764-.1707-.2592-.133-.1623-.2298-.3519-.2838-.556-.0178-.1229-.0223-.2475-.0132-.3714.0027-.0616.0027-.123.0027-.1845-.0175-.3812-.0829-.7585-.1945-1.1227-.1381-.405-.1944-.8341-.1656-1.2617.0579-.3172.1605-.6242.3048-.9114.0606-.139.1236-.2808.1787-.4251.1923-.5152.2833-1.0637.268-1.6146-.0308-.2645.0316-.5316.1762-.7538l.0157.0161c.3703.367.6815.7909.9222 1.2563.1163.237.1831.4959.1963.7604.0131.2646-.0277.529-.12.7767-.0395.0883-.0868.179-.1366.2727-.1698.245-.2565.5397-.247.8393.023.1381.0673.2716.1314.3956.0508.0959.0854.1998.1024.3073-.0082.1911-.0683.3761-.1735.5346-.0948.1637-.1639.3414-.2049.5267-.0307.2837.01.5707.1183.834.0211.0695.0421.1362.0631.2032.1827.6116.1407 1.2699-.1184 1.8523-.0235.0321-.0473.0616-.0683.0909-.092.121-.1979.2304-.3153.3261.0677-.5264-.0259-1.0613-.268-1.5316M60.4598 58.0705c-.0132-.1043-.0368-.2057-.0578-.3047-.0608-.2024-.077-.416-.0473-.6255.0307-.1205.0748-.2371.1314-.3475.0263-.0562.0526-.1122.0736-.1685.1319-.3568.2167-.7297.2522-1.1092.0295-.4276.143-.8448.3336-1.227.1749-.2696.3884-.5111.6334-.7164.1104-.1016.2207-.2085.3284-.3208.3752-.3963.6699-.8641.8671-1.3765.0739-.2553.2339-.4759.4519-.6229.0031.0069.0058.0141.008.0214.1987.4853.3211.9995.3627 1.5236.0156.2643-.0228.529-.1129.7775-.09.2484-.2296.4752-.4102.6659-.0708.067-.1471.1284-.2312.1953-.2506.158-.4442.3943-.5518.6736-.0329.1363-.0444.277-.0341.417.0099.1084.0019.2177-.0237.3233-.0811.1723-.2075.3185-.3651.4224-.1502.1122-.2823.2475-.3917.4009-.1367.2486-.2107.5278-.2154.8126-.0053.0723-.0131.1418-.0211.2113-.0384.3176-.138.6244-.2931.9028-.1551.2784-.3626.523-.6108.7197-.042.0267-.0813.0562-.1208.0829-.0396.0268-.0761.0535-.1129.0774-.1078.0704-.2222.1295-.3416.1765.3153-.4838.5648-1.0986.4992-1.5851ZM54.2699 63.5267c.021-.1044.034-.2085.0446-.3075.0095-.2113.0633-.4182.1576-.6067.0689-.1026.1482-.1975.2365-.2833.042-.0428.0841-.0884.1261-.1337.2391-.2936.4404-.617.5991-.9623.1669-.3931.409-.7484.7122-1.0453.2539-.194.5335-.3506.8304-.4651.1366-.0588.2758-.1229.4124-.1924.4832-.248.9136-.5904 1.2665-1.0077.1526-.2169.3762-.3715.6307-.4358v.0242c.0305.5253-.0209 1.0521-.1524 1.561-.071.2547-.1931.4917-.3587.6959-.1655.2043-.3708.3715-.603.491-.0866.04-.1812.072-.2811.1069-.2888.0643-.549.2229-.741.4516-.0754.1174-.1313.2466-.1656.3824-.0263.1064-.0698.2075-.1287.2994-.1332.1358-.3004.232-.4835.278-.1786.0555-.3479.1384-.502.2459-.2115.1873-.3725.4266-.4677.695-.0288.0641-.0578.1309-.0893.1925-.205.4088-.8829.8019-1.5476 1.0771.2791-.2871.4566-.6603.5045-1.0611ZM41.305 60.1877c.5277.3291 1.0208.7125 1.4715 1.1441.8329.8661 1.3139 2.085 1.2613 3.1382-.5776-.5375-1.0597-1.1723-1.425-1.8765-.3864-.6629-.7175-1.2322-1.3401-1.5718-.4095-.2076-.8405-.3681-1.2851-.4784l-.0025-.0049c-.1848-.398-.319-.8184-.3994-1.251-.0205-.1845-.0293-.3702-.0263-.556.4625.596 1.1114 1.0318 1.7448 1.4568M35.4139 53.0509c.0433-.1806.0977-.3582.1629-.5319.2337.7243.6962 1.3633 1.1429 1.9832.3829.4943.7149 1.0273.9907 1.5906.2479.5372.372 1.1249.3629 1.7182-.0091.5934-.1512 1.1768-.4154 1.7059-.0368-.2459-.0683-.4944-.0999-.7592-.1524-1.2403-.3075-2.5205-1.1536-3.4856-.3133-.3395-.6635-.6417-1.0439-.9007v-.0028c-.0368-.4398-.0192-.8825.0525-1.3177M33.4719 45.8335c.1013-.1555.2119-.3045.3311-.4463-.0183.7617.2077 1.5209.4257 2.2586.1998.5958.3372 1.2114.4099 1.8365.0548.5785-.0177 1.1622-.2123 1.7087-.1945.5464-.5062 1.042-.9124 1.4507-.0019-.0055-.0056-.0102-.0105-.0133-.0078-.0135-.0183-.0293-.0288-.0481.0446-.2273.0946-.4572.1444-.6843.2628-1.2003.5361-2.4406.0606-3.6328-.1838-.4265-.4139-.8309-.6859-1.2054v-.0028c.1074-.4263.2681-.8368.4782-1.2215ZM33.9213 38.1673c.143-.1155.293-.2218.4492-.3182-.2523.7192-.2733 1.5104-.2943 2.2802.006.6293-.0539 1.2574-.1787 1.8738-.2943 1.2216-1.1061 2.2855-2.0916 2.7667-.0053-.0293-.013-.0642-.021-.1044-.0025-.0132-.0053-.0267-.0078-.0428.1209-.2138.247-.4276.3809-.6547.6334-1.0639 1.2876-2.1627 1.2062-3.4322-.0422-.4639-.1366-.9213-.2813-1.3633l.0028-.0028c.2381-.3669.5186-.7034.8356-1.0023ZM35.9183 30.7763c.1636-.0835.3321-.1567.5045-.2192-.3889.6523-.5675 1.4221-.7384 2.1733-.1199.6171-.3021 1.2199-.5439 1.7989-.2327.5216-.5749.985-1.0025 1.3577-.4277.3727-.9303.6456-1.4727.7996.0021-.0151.0029-.0304.0025-.0456.0027-.0133.0027-.0267.0053-.0428.1498-.1764.3075-.3554.4624-.5264.7858-.8796 1.5951-1.791 1.7711-3.0875.0508-.4629.049-.9302-.0053-1.3926l.0027-.0026c.3039-.3124.6446-.5855 1.0143-.8128ZM39.8379 25.0102c.1625-.0148.3258-.0184.4887-.0106-.557.4304-.9749 1.0345-1.3821 1.6198-.319.4966-.688.9579-1.1011 1.3765-.3764.3631-.8247.6401-1.3149.8126-.4902.1726-1.0109.2366-1.5274.1878.008-.0242.0158-.0534.0263-.083.0027-.0079.0052-.0186.008-.0267.1812-.0934.3651-.1843.5465-.2726.988-.4812 2.0075-.9784 2.6067-2.0395.2048-.3854.3652-.7935.4782-1.2163.3743-.1658.7678-.2827 1.1711-.348ZM34.6069 24.2775c.1762-.1817.3784-.3503.5703-.5132.209-.1691.409-.3493.5991-.54.4879-.5035.843-1.1242 1.0326-1.8044.0231.0335.0442.0683.0631.1044.3601.7029.1288 1.6038-.0131 2.0127-.269.1983-.5221.4182-.7567.6576-.9382.9623-1.6424 2.5635-1.8894 4.2982-.0894.0749-.176.1497-.2601.2271-.494-1.3739-.3653-3.3999.6542-4.4424ZM30.492 32.1743c.1077-.2515.2287-.4969.3626-.735.1314-.2487.268-.5026.3784-.7699.2834-.6978.3892-1.457.3075-2.2075.0422.0275.0826.0579.1209.0909.6331.5479.754 1.5343.775 1.9941-.1864.3041-.3498.6222-.4887.9516-.5911 1.43-.699 3.2851-.2916 4.9665-.0683.0909-.1341.1818-.1997.2753-1.1168-1.1841-1.5425-3.1596-.9644-4.5656M28.8839 40.6477c.0526-.2673.1314-.5346.2077-.7938.0788-.2701.1629-.5481.218-.8315.1404-.7419.0934-1.508-.1366-2.2265.0471.0177.0927.0392.1366.0642.728.4088 1.0433 1.3497 1.1562 1.7962-.1225.3358-.2192.6808-.2891 1.0318-.2758 1.4221.0133 3.3439.7332 4.9424-.0473.1256-.0946.2513-.1366.3796-1.3376-.9463-2.181-2.8655-1.8894-4.3624ZM29.4534 49.7976c-.0343-.2699-.0396-.5507-.0473-.8206-.008-.2805-.0158-.572-.0501-.8607-.0949-.7491-.3762-1.4612-.8171-2.0689.0502.0018.1002.0071.1497.016.8173.155 1.4059.949 1.6502 1.3365-.0118.3579.0032.7162.0448 1.0718.1891 1.5371 1.0168 3.2077 2.2124 4.4722-.0027.1122 0 .2219.0026.3342-1.5739-.4972-2.964-2.0155-3.1452-3.4805ZM32.9333 58.1565c-.1209-.2432-.2182-.5026-.3153-.7566-.0999-.262-.2025-.5346-.3311-.7938-.3367-.6736-.8357-1.2493-1.4505-1.6734.0474-.0145.0956-.0261.1444-.0346.8199-.1337 1.6372.4142 1.9945.695.1068.341.2385.6733.3942.9942.7743 1.4878 1.9923 2.6875 3.479 3.4268.0393.1203.0813.2407.1261.361-1.6108.0988-3.3661-.8554-4.0413-2.2186ZM38.9953 64.9517c-.1944-.1846-.3784-.3957-.5543-.5988-.1825-.2198-.3764-.4295-.5808-.6283-.545-.5138-1.2101-.8772-1.9321-1.0557.0473-.0349.0893-.0642.1234-.0856.7252-.4142 1.6764-.1896 2.1101-.0509.215.2838.4522.5494.7095.794 1.3453 1.2778 3.6129 2.1357 6.0619 2.2907.0689.0437.1444.0753.2234.0937.2722.0581.54.1358.8014.2325-4.4696.933-5.8492.0641-6.9633-.9916"></path><path fill="#000" d="m49.4006 67.8275-.3704-.1016-.3706.1016c-.0693.0248-.1439.0297-.2158.0142-.0718-.0156-.138-.051-.1914-.1023l-.7567-1.0025c-.0291-.0374.0052-.1337.0866-.2459.0983-.1339.225-.2435.3706-.3208.2704-.1615.5729-.2592.8854-.2859h.3443c.327.0174.6451.1145.9275.2833.1457.0772.2723.1869.3706.3208.0813.1123.1129.2085.0866.2459l-.7568 1.0023c-.0542.0509-.1207.0861-.1928.1021s-.147.0121-.2171-.0112ZM61.5406 61.9685c.1104.0348.2207.0588.3311.0827.1306.0245.259.0603.3836.107.0324.0117.0626.0289.0894.0508.029.0375-.0105.1604-.1077.246-.091.0694-.1898.1277-.2943.1736-.0578.0267-.1156.0563-.1709.0856-.2006.11-.3773.26-.5196.4411-.1424.181-.2474.3894-.3088.6127-.021.0829-.0368.1657-.05.2459-.0079.1984-.0841.3877-.2155.5346-.1204.0833-.2597.1339-.4047.1471-.3626.0639-.7283.1076-1.0956.1309-.1863-.0035-.3702.0425-.5335.1337-.1052.0743-.196.1677-.268.2754-.0333.0458-.0692.0895-.1077.1309-.255.2701-.6912.2968-1.0773.3021-.319.0153-.6388-.0035-.954-.056-.0893-.0188-.1759-.0428-.268-.0669-.1678-.0521-.3403-.087-.515-.1042-.1944-.016-.7673-.0053-1.0616.2085-.0534.0419-.1105.0786-.1707.1095-.3338.1525-1.4031.5748-2.3308.2673.3263-.1357.664-.2413 1.009-.3154.1771-.0392.3324-.1465.4337-.2994.1237.0168.2483.0249.3731.0242 1.0668 0 2.7591-.4305 3.4633-.6576.268-.0711.5209-.1916.7462-.3556.0604-.0507.1156-.1042.1682-.1576.0532-.0577.1112-.1105.1734-.1578.1992-.1212.4212-.1986.6517-.2271.3159-.0315.6157-.1571.8619-.361.1893-.2143.3182-.4765.3731-.7592.0392-.2386.1502-.459.3178-.6308.0807-.0571.167-.1055.2575-.1443.1456-.0581.2793-.1434.3942-.2513.1239.1082.269.1884.4257.2352M66.8168 54.1573c.1157-.0025.2288-.0186.3391-.032.1312-.0213.2639-.0311.3967-.0293.0351-.0012.07.0051.1026.0186.0368.0241.042.155-.0238.2673-.0631.0966-.1381.1847-.2232.2619-.0448.0456-.0921.0909-.1341.139-.1536.1712-.2716.3721-.3469.5907-.0754.2186-.1066.4505-.0919.6817.0078.0855.0211.1685.0316.2487.0567.19.0465.3942-.029.5774-.0866.1189-.2014.2136-.3336.2752-.321.1827-.6518.3469-.9908.4919-.1765.0594-.335.1644-.4597.3047-.0748.1057-.13.2244-.1629.3503-.0185.056-.0368.1122-.0578.1603-.1524.3422-.5546.5133-.9197.6469-.2973.1201-.6053.2104-.9197.2699-.0893.0135-.1787.0188-.2733.0267-.1753.0085-.3495.0335-.5202.0749-.1474.043-.2901.1012-.4257.1738.0051-.0662.0006-.1329-.0133-.1978.6589-.3137 1.2768-.7097 1.8394-1.1789.2298-.1567.4293-.3551.5886-.5853.0395-.0667.0755-.1354.1078-.2059.0328-.0721.0706-.1418.1129-.2085.1473-.1827.332-.3305.5413-.4331.2858-.106.5243-.3133.672-.5838.1477-.2705.1946-.5861.1321-.8889-.0401-.239-.006-.4847.0973-.7031.0576-.081.1236-.1553.197-.2218.1192-.1043.2181-.2303.2917-.3717.1509.0619.3132.0893.4755.0802ZM67.9128 45.7317c.022-.0975.0537-.1924.0946-.2834.0697-.1428.1116-.298.1234-.4569.163-.0068.323-.0468.4705-.1177.1028-.0495.2028-.1048.2995-.1657.1121-.0714.2299-.1332.3521-.1845.0312-.0152.0653-.0234.0999-.024.0445.0079.0998.1255.0841.2566-.0205.1136-.055.2241-.1026.3289-.0236.0588-.0473.1204-.0683.1818-.0751.2186-.1061.4503-.0912.6813.0149.231.0755.4566.178.6633.0393.0749.0841.147.1261.2165.1252.1524.1948.3441.197.5427-.0345.1436-.104.276-.2023.3849-.2238.297-.4651.58-.7227.8473-.1401.1249-.2453.2854-.3048.4651-.0271.1273-.0324.2585-.0157.3877.0064.0568.009.1139.0079.1711-.0105.3742-.3128.6922-.5938.9623-.2265.2292-.4747.4351-.741.6148-.0763.0481-.1577.0881-.2418.1336-.1577.0777-.3081.1698-.4494.2752-.0605.0485-.1184.1003-.1734.1551-.0255-.0565-.0591-.1088-.0999-.1551.4197-.5175.7877-1.0762 1.0984-1.668.1511-.2364.258-.4992.3153-.7751.0112-.077.0174-.1547.0185-.2325.0002-.1582.0316-.3148.0926-.4604.0609-.1456.15-.2773.262-.3871.2128-.2397.351-.5383.3969-.8579-.0023-.2883-.0803-.5707-.226-.818-.1319-.2011-.1965-.4402-.1839-.6817M69.1739 39.9802c-.1184.1461-.1972.3212-.2287.5078-.006.13.0092.26.0448.385.0146.0554.0259.1117.034.1685.0501.3714-.1997.7349-.4387 1.045-.1874.2635-.4004.5071-.6359.7271-.0683.0588-.1419.1123-.2182.1711-.1207.0885-.2357.1849-.3441.2887-.0325-.0852-.0767-.1653-.1314-.2378.2394-.4799.4491-.9745.6279-1.4809.1121-.2576.1762-.534.1892-.8154-.0011-.0777-.0063-.1553-.0157-.2324-.0106-.078-.015-.1566-.0131-.2353.0282-.2348.1072-.4603.2313-.6603.1732-.2709.2629-.5883.2575-.9114-.0461-.2845-.1679-.5507-.3521-.7699-.159-.1803-.2591-.4063-.2865-.6469.0047-.0997.0215-.1985.05-.294.0454-.1496.0633-.3064.0525-.4625.1612-.0338.3135-.1021.4467-.2004.0946-.0642.184-.139.2706-.2113.1-.0885.2072-.168.3206-.2378.029-.0206.0623-.0344.0973-.0402.0446 0 .1181.1069.1209.2406-.0033.1157-.0201.2305-.0501.3421-.0157.0642-.0288.1258-.0393.1897-.0399.2277-.0345.4612.0161.6867.0505.2255.1452.4384.2782.6259.0498.0667.1051.1309.1577.1925.1476.1304.2461.3091.2785.5053-.0116.1477-.0595.2902-.1394.4142-.1762.326-.3701.6419-.5806.9463ZM58.5029 22.5456c-.0183-.0375-.0393-.0749-.0578-.1123-.1682-.3182-.2891-.572-.155-.7164.0668-.0457.1449-.0713.2254-.0736.0804-.0024.1599.0184.2291.0602.0749.0359.1477.0761.2182.1203.1275.084.2654.1505.4099.1979.1207.0295.2439.0474.3679.0534.166-.0125.331.0358.465.1362.0619.0814.1058.1753.1289.2755.0307.1098.0757.2149.1339.3126.1796.2235.4307.3759.7094.4305.1978.0401.3807.1354.5283.2752.1173.1908.1725.4144.1576.639-.007.2587.0499.5151.1655.7456.0461.072.098.1399.1551.2032.0382.0426.0741.0872.1077.1336.103.1813.1675.3826.1891.5909.1397.6203.1998 1.2565.1787 1.8925-.0006 0-.0013.0003-.0018.0008-.0004.0005-.0007.0011-.0007.0018-.0678.0532-.1212.1231-.1551.2031-.2856-.308-.6217-.563-.9933-.7538-.0578-.032-.1209-.0641-.1812-.0934-.1869-.0706-.352-.1905-.4782-.3475-.0625-.1188-.106-.2469-.1289-.3796-.0268-.2311-.1285-.4465-.289-.6122-.1074-.0836-.2296-.1453-.3599-.1818-.0894-.0239-.174-.0637-.2497-.1176-.1308-.1456-.2087-.3324-.2208-.5293-.0177-.0991-.0405-.1973-.0683-.294-.1466-.4189-.447-.7638-.8381-.9623.0479-.3775-.0191-.7609-.1919-1.0985ZM62.9403 28.8146c-.0132-.0377-.0263-.0777-.042-.1204-.1209-.3394-.2025-.6095-.0473-.7325.1128-.0908.3153-.0346.4519.0561.0686.0467.1344.0976.197.1524.1136.1033.241.1897.3784.2567.1142.0482.2332.084.3548.1069.0677-.007.1361.0008.2006.0227.0645.022.1237.0577.1737.1047.0499.047.0894.1043.116.1681.0265.0637.0394.1325.0378.2017.0143.1133.0438.2241.0876.3293.1443.2481.3692.4372.6359.5346.1899.0703.3572.1924.4835.3528.0866.2066.1086.4353.0631.655-.0449.2555-.0259.5184.055.7645.0344.0786.0758.1538.1237.2246.0317.0481.0606.0981.0866.1497.0747.1957.1096.4049.1025.6148.0471.6262.0144 1.256-.0973 1.8737-.0068.0023-.0139.0032-.021.0028-.0681.0191-.1318.0519-.1873.0964-.0555.0445-.1016.0998-.1358.1627-.1448-.3819-.3937-.7139-.7175-.9569-.0525-.04-.1103-.0802-.1654-.1202-.1737-.0978-.3188-.2408-.4204-.4144-.0457-.1268-.0698-.2606-.0711-.3956.0067-.2327-.0625-.4611-.1969-.6495-.094-.0988-.2055-.1786-.3286-.2352-.0843-.0384-.1623-.0899-.2312-.1525-.1076-.1637-.1577-.3597-.1419-.556-.0037-.101-.0125-.2018-.0263-.3019-.0836-.4356-.3292-.8214-.6857-1.0772.1014-.367.0904-.7568-.0316-1.1173"></path><path fill="#000" d="M66.0919 35.7879c.0052-.0455.0079-.0936.0132-.1418.0263-.3261.0603-.7324.2628-.7884.1313-.0374.2785.1176.3626.2727.0155.0277.0296.0562.042.0855.0127.0455.0322.0888.0578.1283.0053.0135.0131.0267.0183.0428.0582.1573.1359.3064.2312.4437.0827.1035.1751.1984.2761.2833.1518.1023.2634.2555.3153.4331.0074.1212-.0078.2427-.0448.3582-.0341.1219-.0543.2475-.0603.3742.0228.3123.1445.6087.3468.8447.1465.1736.2469.3824.2916.6067-.0053.2581-.0827.5094-.2233.7245-.148.2431-.2396.5173-.268.8019-.0016.0955.0037.1911.0158.2859.0089.0656.0142.1316.0158.1978-.0136.2394-.0706.4742-.1682.6924-.1659.471-.3589.9315-.5781 1.3793-.0803-.0385-.169-.0551-.2575-.0481-.0736.0082-.1448.0317-.2091.0691-.0644.0373-.1205.0877-.1649.148-.0711-.3069-.176-.6046-.3128-.8875-.0315-.0695-.0656-.1362-.0971-.2031-.1204-.194-.1918-.4153-.2077-.6442.0127-.1551.0481-.3074.1051-.4518.1038-.2334.1368-.4931.0946-.7457-.0414-.143-.1081-.277-.197-.3956-.062-.084-.1116-.1768-.1471-.2754-.0314-.227.0062-.4583.1076-.6629.0398-.1051.074-.2121.1026-.3208.1082-.4853.0469-.9938-.1734-1.4381.2537-.3392.4093-.7437.4492-1.168M65.8236 51.7928c.1288.04.1761.2513.1656.4277-.0052.0881-.021.1818-.0342.278-.0336.1652-.0459.3341-.0368.5026.0169.1323.0451.2628.084.3902.0471.131.0711.2694.0711.4089-.0046.0441-.0152.0873-.0315.1283-.0626.1027-.1387.1962-.226.278-.0931.0842-.176.1793-.247.2834-.1452.2765-.1969.594-.1472.9034.0341.2262.0096.4575-.071.6711-.1401.2148-.3368.3852-.5676.4918-.2518.1259-.4727.3077-.6464.5319-.0514.0803-.0971.1643-.1366.2512-.0269.0608-.0576.1197-.0919.1765-.1374.1954-.3094.3632-.5072.4946-.551.4593-1.1567.8464-1.8026 1.152-.0105-.008-.0183-.0214-.0315-.0293-.0855-.0643-.1881-.1007-.2943-.1044.2665-.3797.4371-.8204.4967-1.2831.0105-.0748.0158-.1497.0235-.2245 0-.23.0551-.4566.1604-.6601.0918-.1241.2017-.2332.3259-.3236.2091-.1423.3726-.344.4702-.5799.0391-.1435.0533-.2928.042-.4412-.0091-.1047-.002-.2102.0211-.3126.0926-.2091.2457-.3844.4389-.5026.0866-.0669.1734-.139.2548-.2138.3466-.3522.5613-.8164.6071-1.3126.3916-.1479.7342-.4055.988-.7431.013-.0186.0761-.0962.0893-.1202.1945-.2594.4335-.5801.6332-.5186ZM55.6125 63.6578c.0343-.067.0631-.1364.0946-.2057.0746-.2164.2-.411.3654-.5667.1267-.0871.2658-.1538.4124-.1978.2438-.0636.464-.1984.6334-.3877.0838-.1223.1452-.259.1812-.4036.0248-.1013.0657-.198.1209-.2861.1545-.1661.3554-.2799.5755-.3261.1024-.0346.2075-.0721.3101-.1176.4406-.2166.7936-.5823.9985-1.0344.4178-.008.8249-.1359 1.1745-.3689.0367-.024.0761-.0508.1183-.0801.0393-.0268.0789-.0535.1209-.0802v.0025c.0025-.0025.0078-.0053.0105-.0079.239-.155.4965-.2994.6384-.1924.1079.0801.0841.294.0158.4597-.0236.0557-.0499.1101-.0788.163-.0264.0383-.0484.0795-.0656.1229-.0772.1334-.1372.2763-.1787.4252-.0285.1299-.0443.2624-.0473.3956.0019.1391-.0203.2776-.0658.4088 0 0-.0578.0963-.0708.1097-.0886.0808-.1911.1442-.3023.1872-.1153.0482-.2247.1101-.3259.1843-.2259.2126-.3779.494-.4334.8019-.0421.2249-.1408.4349-.2865.6095-.2022.1559-.4435.2504-.6963.2726-.2787.0346-.5463.1324-.783.2861-.0748.0577-.145.1211-.2102.1897-.0456.0483-.0939.0938-.1446.1365-.193.138-.4095.2386-.6385.2966-.8356.2726-2.6987.7163-3.6156.6308 0-.0081.0025-.016.0025-.0242.452-.1548 1.8078-.6761 2.1704-1.4032ZM39.6206 60.8132c.5135.1131 1.0119.2881 1.4847.5213.5386.2913.8461.8233 1.206 1.4381.4389.7538.9802 1.684 2.1311 2.4485-2.1704-.2298-4.1359-1.0185-5.3316-2.1544-.9736-.9658-1.6765-2.178-2.0363-3.512.0866.0748.1759.147.268.2164.0315.0267.063.0481.0866.0695.3314.2667.701.4803 1.0958.6334.358.136.724.2494 1.0957.3396M34.0151 53.7911c.2911.2523.5964.4871.9145.7031.4432.2868.8509.627 1.2139 1.0132.7726.8847.9223 2.1089 1.0669 3.2958.0183.1497.0368.3047.0578.4572-.1292-.1029-.2418-.2255-.3338-.3636-.022-.0385-.0565-.068-.0977-.0831-.0412-.0152-.0863-.0151-.1274.0002-.0411.0153-.0756.0449-.0973.0836-.0218.0386-.0295.0838-.0217.1276.034.1711.0734.3422.1181.5133-1.2897-.7102-2.3438-1.7928-3.0296-3.1115-.5849-1.2489-.8316-2.634-.7147-4.0123.0551.099.1156.2005.1759.2993.021.0349.0421.067.0578.0937.2227.3675.4982.6991.8173.9837M32.5418 47.0279c.3228.422.5954.8814.812 1.3686.4362 1.0906.176 2.2749-.0763 3.4215-.0235.1016-.0445.2059-.0683.3101-.0668-.1167-.1164-.2428-.1471-.3742-.0068-.0442-.0287-.0846-.0618-.1139-.0332-.0294-.0755-.0458-.1194-.0465-.0443-.001-.0874.0145-.1213.0436-.0339.029-.0561.0696-.0627.1142-.0368.2271-.063.4598-.0788.6922-1.0223-1.1761-1.7212-2.6542-1.8894-4.0175-.1321-1.2932.0584-2.5993.5537-3.7979l.0078-.0025c0-.0028-.0025-.0028-.0025-.0054.0288-.072.0603-.1443.0918-.2164.021.1121.0448.2271.0683.3422.008.0427.0158.0774.0238.1094.0863.4207.2352.8254.4414 1.2004.1909.3362.4005.661.6279.9727M33.0174 40.5656c.0761 1.1573-.5493 2.208-1.1561 3.2237-.0578.0963-.1157.1978-.1762.2966-.0119-.0914-.0119-.184 0-.2754.008-.044.0003-.0894-.0216-.1282-.0219-.0387-.0566-.0683-.098-.0834-.0414-.0151-.0867-.0147-.1278.0011-.0411.0157-.0754.0459-.0967.085-.0868.1629-.1682.3287-.247.4972-.5966-1.4702-.8251-3.1624-.5808-4.4266.2935-1.3509.9346-2.5981 1.8578-3.614-.0157.1123-.029.2299-.0395.3447-.0052.0428-.0078.0802-.013.1123-.0474.4269-.0306.8587.0498 1.2805.0783.3813.1775.7579.297 1.128.1796.5029.2978 1.0263.3521 1.5585ZM39.4446 22.8292c-.0263.0321-.0473.0588-.0658.0828-.2571.3108-.4662.6597-.6201 1.0346-.1343.3414-.2492.6904-.3441 1.0452-.1201.4881-.2965.9599-.5256 1.4058-.544.9679-1.4714 1.4195-2.4542 1.8953l-.2287.1123c.0397-.1029.0927-.2.1577-.2887.0292-.0335.0454-.0767.0454-.1215 0-.0449-.0162-.0881-.0454-.1216-.028-.0346-.0674-.0578-.1109-.0652-.0435-.0074-.0881.0015-.1256.025-.1735.1069-.3416.2219-.5071.3421.2786-1.5183.9092-2.8894 1.7316-3.7316.9158-.8979 2.0491-1.5332 3.2845-1.8412-.0655.0749-.1286.1523-.1917.2271M34.8043 28.4746c-.0368.1069-.0736.2192-.1079.3315-.013.0402-.0235.0776-.034.1069-.1315.4083-.2006.8348-.205 1.2645.0014.3894.0242.7784.0683 1.1652.0734.5296.0839 1.0663.0316 1.5985-.1604 1.187-.8987 2.0182-1.6845 2.8978-.0393.0428-.0788.0881-.1181.1336.0182-.1007.0491-.1987.0919-.2914.0216-.0391.0285-.0848.0193-.1286-.0092-.0438-.0338-.0827-.0692-.1094-.0345-.0276-.0776-.0417-.1215-.0398-.0439.002-.0856.0199-.1177.0505-.221.2093-.4298.4316-.6254.6657-.3232-1.4946-.2062-3.0528.3364-4.4801.5536-1.2656 1.4289-2.3581 2.5358-3.1649ZM67.8022 44.9726c-.0101.1205-.0441.2378-.0998.3447-.0527.1145-.0924.2347-.1184.3584-.0261.3123.0486.6248.213.89.1189.1948.186.4177.1944.6469-.0453.2535-.1601.4889-.3311.679-.1832.2166-.3161.4724-.3889.7484-.0159.0945-.0256.1901-.029.2859-.0025.0695-.0078.1365-.0157.198-.0515.2341-.1441.4568-.2733.6574-.3096.5964-.6823 1.1566-1.1114 1.6708-.1437-.0177-.2886.0215-.4047.1095.0682-.458.0395-.9254-.0841-1.3712-.021-.0723-.042-.1444-.0658-.2166-.0884-.2116-.1244-.4419-.1051-.6709.0371-.1504.0955-.2944.1735-.4277.1374-.2147.2104-.4655.2102-.7217-.0189-.1476-.0634-.2906-.1314-.4223-.0484-.0923-.0829-.1914-.1024-.2941.0052-.2288.0785-.4506.2102-.6362.0526-.0962.1077-.1952.1524-.2993.1827-.4621.2013-.9744.0526-1.4488.2733-.2648.4758-.596.5886-.9623.0235-.0721.042-.1418.0578-.2113.0025-.0133.0078-.0293.0105-.0428.0788-.318.1734-.7136.3836-.7378.134-.0158.2576.1604.3179.3289.0296.0886.0541.1787.0736.2701.0332.165.0871.3249.1604.4758.0649.1156.1415.2239.2285.3234.1275.1279.2097.2952.2339.4758Z"></path><path fill="#000" fill-rule="evenodd" d="M43.218 24.8767c-4.7561 3.0686-8.0644 9.7861-8.0644 17.5566 0 10.6627 6.225 19.3369 13.874 19.3369 7.649 0 13.8741-8.6742 13.8741-19.3369 0-7.7707-3.3056-14.4854-8.0617-17.5566l4.2253-5.1886c.0317-.0392.0474-.0893.044-.14-.0034-.0506-.0257-.0981-.0623-.1326-1.3148-1.2001-2.8316-2.1491-4.4775-2.8014-.5732-.2325-1.1593-.4307-1.7553-.5934-3.3136-.9195-3.5816-2.9055-3.5894-2.9885 0-.0026-.0007-.0046-.0014-.0066s-.0013-.004-.0013-.0066c0-.0054-.0026-.0161-.0053-.0242-.0029-.0049-.0047-.0104-.0053-.016-.0021-.0064-.0047-.0126-.0077-.0186-.0013-.0026-.0032-.0052-.0051-.0077-.0021-.0028-.0041-.0056-.0054-.0084-.0021-.0055-.0057-.0102-.0106-.0134l-.0157-.0161c-.0009-.0008-.0018-.002-.0028-.0033-.0019-.0025-.0042-.0055-.0077-.0074l-.0238-.016c-.0012-.0012-.0025-.0019-.0037-.0025-.0014-.0007-.0028-.0014-.0041-.0029-.0446-.0254-.0973-.0318-.1466-.0178-.0492.014-.091.0474-.1161.0927 0 .0007-.0003.0014-.0008.002-.0005.0005-.0012.0008-.002.0008-.0059.0089-.0103.0188-.013.0293 0 .0014-.0007.0027-.0014.004-.0006.0014-.0013.0027-.0013.0041-.003.0086-.0048.0176-.0053.0267 0 .0014-.0006.0035-.0013.0056-.0006.0019-.0012.0039-.0012.0051-.0105.0828-.2785 2.069-3.5921 2.9913-.5965.161-1.1827.3592-1.7553.5934-1.6457.6528-3.1624 1.6018-4.4775 2.8014-.0367.0345-.0589.0819-.0623.1326-.0034.0507.0123.1007.044.14l4.2253 5.183Zm5.8096 36.4978c7.4363 0 13.4852-8.4975 13.4852-18.9413 0-10.4435-6.0489-18.9412-13.4852-18.9412-7.4363 0-13.4851 8.4977-13.4851 18.9412 0 10.4436 6.0488 18.9413 13.4851 18.9413Zm-5.7457-13.8623c.0059-.0418-.0028-.0845-.0247-.1205v-.0002c-.8333-1.4069-1.2655-3.0219-1.2481-4.6644 0-2.6008 1.0196-4.8942 2.5724-6.2575.032-.0284.0529-.0675.0589-.1103.006-.0427-.0033-.0863-.0263-.1226-.0229-.0363-.058-.063-.0987-.0752-.0407-.0123-.0844-.0091-.1231.0087-1.0392.4766-1.9403 1.2172-2.6167 2.1506-.6764.9334-1.1053 2.0282-1.2454 3.179-.1402 1.1508.0132 2.3189.4452 3.392.4321 1.0731 1.1283 2.015 2.0217 2.7351.0326.0264.0732.0402.1148.0391.0416-.0012.0815-.0172.1126-.0454.031-.0281.0514-.0665.0574-.1084Zm10.1969-11.0428c1.553 1.3632 2.5725 3.6567 2.5725 6.2577.0148 1.6422-.4172 3.2567-1.2482 4.6646-.0217.036-.0303.0786-.0242.1204.006.0418.0264.0801.0574.1082.0311.028.0708.0441.1123.0453.0416.0012.0822-.0125.1147-.0387.8935-.7201 1.5898-1.6621 2.0218-2.7352.4321-1.0731.5854-2.2413.4453-3.3921-.1402-1.1509-.5691-2.2456-1.2456-3.179-.6764-.9334-1.5776-1.674-2.6168-2.1506-.0387-.0183-.0826-.0217-.1236-.0096-.041.0121-.0763.0389-.0993.0754-.0231.0365-.0324.0803-.0262.1232.0062.0429.0275.0822.0599.1104Zm-4.8483-.987c.1567-.0829.2926-.2015.397-.3466.1053.1442.2413.2621.3979.345.1566.0829.3296.1286.506.1336.24-.0029.4726-.0855.6622-.2352.2007-.1598.3558-.3711.4494-.6122.0751-.1889.1169-.3898.1234-.5935.0006-.0181-.005-.0359-.0158-.0503-.0109-.0144-.0263-.0246-.0437-.0287-.0174-.004-.0357-.0019-.0516.0062-.016.0081-.0288.0216-.036.0382-.0867.1988-.2275.3681-.4059.4879-.1783.1199-.3867.1852-.6004.1883-.1812-.0014-.3592-.0482-.5183-.1364-.159-.0881-.2943-.2149-.3936-.3689-.0081-.0123-.019-.0224-.0319-.0294-.0128-.007-.0271-.0106-.0417-.0106-.0145 0-.0289.0036-.0417.0106-.0128.007-.0238.0171-.0319.0294-.0997.1536-.235.2801-.3939.3682-.159.0881-.3368.1351-.5178.1371-.2137-.0031-.4221-.0684-.6005-.1882-.1784-.1199-.3193-.2892-.406-.488-.0074-.0164-.0202-.0296-.0361-.0375-.0159-.008-.034-.0101-.0513-.006-.0172.0041-.0326.014-.0435.0283-.0109.0142-.0166.0318-.0162.0498.0066.2037.0484.4046.1236.5935.0929.2414.2481.4529.4492.6122.189.1508.422.2336.6622.2352.1767-.0038.3501-.049.5069-.132Zm2.0262 14.4355c.8436.0318 1.6863-.0848 2.491-.3448.0173-.0056.0321-.0176.0413-.0335.0093-.016.0124-.0349.0089-.0531-.0036-.0182-.0136-.0344-.0282-.0456-.0146-.0111-.0327-.0164-.0508-.0149-.0343.0028-.0658.0054-.0894.0081-.8347.0534-1.6721-.0453-2.4727-.2914-.0069-.0024-.013-.0068-.0175-.0127-.0045-.0058-.0072-.0129-.0078-.0203-.0005-.0074.0011-.0148.0046-.0213.0036-.0065.009-.0118.0154-.0152 1.067-.5828 1.9855-1.4107 2.6825-2.4181.6971-1.0073 1.1535-2.1663 1.3328-3.3846.1794-1.2183.0768-2.4623-.2995-3.6332-.3764-1.1709-1.0161-2.2363-1.8684-3.1115-.021-.0216-.0489-.0347-.0787-.0369-.0297-.0022-.0593.0067-.0831.025-.0237.0183-.0402.0448-.0462.0746-.006.0297-.0012.0606.0136.087.9726 1.8264 1.2847 3.942.8818 5.9783-.4029 2.0363-1.4951 3.8644-3.0866 5.1658-.0053.0048-.0119.0079-.019.0089-.0071.001-.0143-.0002-.0207-.0033-.0065-.0032-.0118-.0082-.0155-.0144-.0017-.0029-.003-.006-.0038-.0091-.001-.0038-.0015-.0077-.0013-.0116l.2102-11.3738c.0011-.0267-.0066-.053-.0218-.0748-.0152-.0218-.0371-.0378-.0623-.0456-.3673-.137-.6915-.3725-.9381-.6815-.0115-.0134-.0256-.0241-.0415-.0315-.0158-.0074-.0331-.0112-.0505-.0112-.0175 0-.0347.0038-.0506.0112-.0158.0074-.03.0181-.0414.0315-.2448.311-.5694.5468-.9379.6815-.0249.0084-.0464.0245-.0615.0462-.0152.0217-.0231.0477-.0226.0742l.2102 11.3738c-.0004.007-.0026.0137-.0064.0195-.0038.0058-.0091.0105-.0153.0135-.0062.003-.0131.0043-.0199.0037-.0068-.0006-.0134-.0031-.019-.0072-1.5914-1.3014-2.6836-3.1295-3.0864-5.1658-.4028-2.0364-.0907-4.1519.8819-5.9783.0144-.0264.0189-.0571.0127-.0866-.0061-.0295-.0225-.0557-.0462-.0739-.0236-.0182-.0529-.0271-.0824-.0251-.0296.002-.0574.0147-.0785.0359-.8523.8752-1.4921 1.9406-1.8684 3.1114-.3764 1.1709-.479 2.415-.2996 3.6333.1793 1.2183.6357 2.3772 1.3327 3.3846.697 1.0073 1.6155 1.8353 2.6824 2.4181.0065.0034.0119.0087.0154.0152.0036.0065.0052.0139.0046.0213-.0005.0074-.0032.0145-.0077.0203-.0045.0059-.0106.0103-.0175.0127-.8003.2474-1.6379.3461-2.4725.2914-.0263-.0027-.0553-.0053-.0894-.0081-.0182-.0016-.0363.0036-.051.0148-.0146.0111-.0246.0273-.0282.0456-.0036.0182-.0005.0371.0088.0531.0092.016.024.028.0414.0336.8046.2602 1.6474.3768 2.491.3448.2665-.0112.5323-.0362.7963-.0749.007-.0016.0144-.0009.021.0019.0066.0029.0121.0079.0158.0141l.6359 1.0158c.0162.0262.0387.0478.0654.0627.0266.015.0566.0228.087.0228.0304-.0003.0602-.0083.0868-.0232.0266-.0149.0491-.0363.0656-.0623l.6359-1.0158c.0042-.0057.0098-.0101.0163-.0129.0064-.0028.0135-.0039.0205-.0031.2638.0399.5295.0649.7961.0749ZM45.349 16.406c-.5819.1574-1.154.3502-1.7132.5774-1.544.6123-2.9718 1.4924-4.2201 2.601l4.1379 5.0788c0 .0014.0006.0021.0013.0028.0006.0007.0012.0013.0012.0026 1.6483-1.0278 3.544-1.5718 5.4774-1.5718 1.9334 0 3.829.544 5.4774 1.5718.0001-.0012.0005-.0024.0011-.0035.0004-.0007.0009-.0013.0014-.0019l4.1387-5.0788c-1.2498-1.1075-2.6781-1.9874-4.2219-2.601-.5592-.2272-1.1313-.42-1.7132-.5774-2.4385-.6789-3.3477-1.9271-3.684-2.6891-.3364.762-1.2489 2.0102-3.684 2.6891Z" clip-rule="evenodd"></path><path fill="#000" d="M46.2633 21.669c-.0183.1308-.0394.1924-.0604.1843-.021-.0081-.042-.0695-.0553-.1925-.0194-.2216-.051-.442-.0946-.6601-.0463-.2284-.1042-.4541-.1734-.6764-.0708-.2225-.155-.4403-.2522-.6522-.0947-.2064-.2082-.4032-.3389-.5881-.029-.0393-.0474-.0856-.0534-.1344-.006-.0487.0006-.0982.0191-.1436.0238-.1016.0501-.2031.0816-.2994.0327-.0981.0598-.1981.0813-.2994.0185-.0613.0368-.0962.0553-.1069.0185-.0107.0421.0107.0761.0669.1557.2472.2886.5085.3969.7806.1149.2864.2054.5824.2706.8847.0659.3059.1046.6172.1156.9302.0093.3037-.0136.6075-.0683.9063ZM49.0435 18.9529c-.078.1281-.1967.2252-.3364.2752-.0758.0182-.1549.016-.2296-.0065-.0747-.0225-.1422-.0645-.1961-.1218-.0367-.0374-.0578-.0534-.0603-.0453-.0208.0259-.0437.05-.0683.0721-.0665.0857-.1533.1529-.2523.1952-.0128.0049-.0251.0112-.0368.0186-.0027.0028 0 .0188.0106.0535.1165.3707.1914.7536.2232 1.1415.0285.3935.0046.7891-.0708 1.1761-.0238.1069-.0421.1551-.0578.1471-.0158-.0079-.0291-.0641-.0368-.1659-.0414-.4884-.1357-.9706-.2813-1.4379-.1313-.4146-.3254-.8059-.5753-1.1597-.03-.0403-.0512-.0867-.0621-.1361-.0108-.0493-.0112-.1005-.001-.15.0263-.0962.0578-.1978.0893-.3019.0316-.1042.0683-.2139.1104-.3315.0081-.0255.0196-.0498.034-.0723.008-.0107.0263 0 .0473.0374.0764.0901.1628.1709.2576.2406.09.0724.1985.1169.3127.1283.0574.0049.1151-.0043.1682-.0267.0536-.0243.1032-.0568.1472-.0962.0441-.0412.083-.0879.1156-.139.0323-.0506.0596-.1043.0813-.1604.0238-.0642.0421-.0909.0578-.0802.0259.0231.0481.0501.0658.0802.0365.072.0825.1385.1367.1978.0289.028.0632.0496.1007.0634.0375.0138.0775.0195.1173.0168.0884.0015.175-.0253.2476-.0766s.1276-.1245.157-.2093c.0185-.0509.0343-.0777.0526-.0802.0183-.0026.021.0267.0185.0881-.0105.1554-.0397.309-.0868.4572-.049.1445-.1161.2819-.1997.4089M50.0682 20.3941c-.0418.1152-.0974.2247-.1654.3261-.0789.0965-.1394.1471-.1892.1497-.0742-.0056-.1457-.0305-.2077-.0723-.0683-.032-.1313-.0641-.1892-.0962-.0578-.0321-.1129-.0642-.1682-.0962-.0445-.0268-.0683-.0481-.0683-.0616.0046-.0331.0134-.0655.0263-.0963.0448-.1015.0893-.2057.1341-.31.0448-.1044.0866-.2085.1339-.3101.0263-.0613.0526-.0934.0788-.0962.0404-.0005.0798.0117.1131.0348.0761.0428.1577.0881.239.1362.0803.0464.1537.104.2182.1711.0219.0188.0395.0421.0517.0684.0122.0263.0188.055.0192.0841.0003.0572-.0086.1142-.0263.1685ZM52.8273 18.5629c.0012.0664-.0049.1328-.0183.1978-.0133.0639-.0433.123-.0868.1711-.3122.3803-.5576.8125-.7253 1.2777-.1684.4684-.2899.9528-.3626 1.446-.0235.1337-.0498.2006-.0788.1953-.029-.0054-.0526-.0749-.0709-.2085-.0921-.8885-.418-1.7352-.9434-2.4511-.0325-.0447-.0557-.0956-.0683-.1497-.0101-.0569-.0074-.1154.008-.1711.013-.0883.0315-.1845.0525-.2861.021-.1016.0421-.2166.0656-.3422.0133-.0748.0421-.0801.0816-.0213.4221.622.7325 1.3153.9169 2.0475.0185.0563.0368.0563.0553 0 .0383-.1886.0919-.3737.1602-.5534.0725-.1915.1549-.3788.247-.5613.0941-.1868.1985-.3679.3128-.5426.1086-.1692.227-.3316.3546-.4865.0448-.0562.0736-.0802.0868-.0722.0133.0079.0183.0402.0183.1015v.4091h-.0052ZM50.9569 71.7886c-.0898.0609-.2676.3765-.4534.2306-.1858-.1459-.1008-.1329-.1906.0128-.0897.1457-.0897.1523-.1905.2178-.0957.0631-.209.0929-.3228.0849-.1306 0-.1667-.0127-.2377-.1696-.0709-.1569-.2866.1142-.2141.4612.0725.3471.4408.2067.573.1571.1322-.0495.1071-.1283.2977-.0721.1905.0561.5478-.0914.7631-.4133.2152-.322.0644-.5686-.0254-.5094M65.4933 87.3816c.2518-.3476.1953-.6037-.0521-.9362-.2062-.2785-.5007-.5251-.6345-.5317-.2314-.0128-1.1222 1.464-1.118 1.4768.0238.0609.6285.3139.7369.5623.2426.5638.8913-.3267 1.0677-.5708M40.3413 86.2415c.0707-.3092-.2677-.5023-.43-.6071s-.4895-.4795-.6801-.2055c-.1905.274-.6565.977-.8109 1.2861-.1544.3092.2502.322.4646.4982.2143.1763.1903.1697.2503.2914.1054.2146.6787-.4516.7631-.5542.1894-.2063.3399-.4462.4442-.7078M42.166 86.0953c.0772-.3763-.4298-.764-.6801-.9096-.2502-.1457-.2031-.1332-.3227 0-.1197.1331-.3039.4372-.4536.618-.1567.1995-.2929.4148-.4063.6425-.1369.261.0673.2243.3937.4852.3263.261.2568.5222.5494.3637.2927-.1584.8426-.8233.9203-1.1998M34.1502 79.1549c-.0851.0228-.6803 1.1037-.7748 1.3699-.0945.2662.1796.3882.3937.5334.2141.1452.2204.1459.2976.2548.3086.4338.5007.1121.8455-.4213.1384-.192.2326-.4132.2756-.6473.0111-.141-.0164-.2823-.0794-.4085-.063-.1261-.159-.232-.2775-.3061-.1795-.137-.595-.3989-.68-.3749M65.7198 76.6238c.1008-.5222-.0772-.3283-.167-.0977-.0898.2306-.0833.2484-.1542.4726-.1347.2982-.2463.6066-.3337.9224-.1733.6393-.6047 3.5416-.5497 4.3809.055.8393.4473 1.054.8677 1.0503.4204-.0036 1.0345-1.541 1.0408-1.9124.0062-.3715.0224-.588-.167-.1329-.1895.455-.7746.3827-.9667-.2548-.1922-.6375.329-3.9083.4298-4.4295"></path><path fill="#000" d="M30.7272 83.645c.0299.7306.1904 1.3197 1.0848 1.8661.6047.2785 1.2887.3218 1.9226.1217.8973-.3307 1.6775-.9257 2.2411-1.7092.3949-.5752.7003-1.2089.9054-1.8787.2249-.7124.3852-1.4443.4788-2.1864.0126-.2243.0224-.4069.0361-.6072.0137-.2002.0063-.4004.0236-.5936.0173-.1932.2505-1.2606.0599-1.1873-.1905.0733-.7038 1.3231-.7407 1.6866-.0368.3635-.0224.6375-.0363 1.0076-.0139.3702.0536.583.0128 1.0556-.1085.5988-.3815 1.1542-.7874 1.6017-.606.6263-1.4975.9338-2.3383 1.0428-.3151.0254-.6321.0048-.9415-.061-.5306-.1393-1.1068-.4325-1.2644-1.0076-.1051-.66-.0433-1.3363.1796-1.9652.1968-.4436.2675-.6423.3463-.8249.0788-.1827.389-.7946.2505-.849-.1385-.0543-.8188 1.4673-.9321 1.7234-.3582.8755-.5289 1.8186-.5008 2.7664M42.4293 79.1309c-.1607.0849-.3228.4918-.5243.6422-.3395.2104-.6661.4415-.978.6921-.1369.1632-.1369.1936-.2502.3395-.1142.2253-.2162.4568-.3055.6934-.2568.6622-.7811 1.0252-1.2793 1.3168-.0943.0559-1.0774.5861-1.1115.6359-.0599.0849-.1796.3523-.0225.3881.3479.0815 1.4533-.3011 1.7651-.5336.3573-.2673.6314-1.2427.8345-1.5298.1557-.2416.3742-.4346.6314-.5573.2639-.1118.5001-.282.6913-.4982.1542-.2002.3211-.6183.4172-.764.0961-.1457.2918-.9099.1322-.8249M63.1486 73.2395c.252-.3475.1953-.6039-.0519-.9362-.2062-.2787-.5007-.5251-.6345-.5317-.2316-.0128-1.1222 1.464-1.1179 1.4768.0224.0607.6284.3139.7368.5621.2408.564.8911-.3283 1.0675-.5708M44.5879 74.7267c-.2331.4228-.4284.866-.5836 1.3242-.0534.1937-.1369.4916-.1906.764-.1604.8138-.151 1.7218-.2976 2.5356-.0707.3941-.107.6726-.1306.8249-.0236.1523-.2141.8617-.0236.6183.1906-.2434.4346-.9578.5836-1.3231.1599-.5091.2681-1.0335.323-1.565.0408-.3762.0958-.5397.1196-.8377.0265-.555.0981-1.1069.2141-1.6499.033-.1329.0882-.7831-.0141-.6902M40.0437 75.4295c-.096.0543-.3999.9032-.5133 1.238-.1311.4869-.2347.9812-.3102 1.4802-.0834.5305-.1391 1.0652-.167 1.6017-.0158.258-.0559.5138-.1196.764-.0298.1456-.3463.9035-.0126.5936.3338-.3098.8-2.1353.8942-2.6814.0943-.5462.1199-1.233.167-1.6145.0472-.3816.0772-.588.1197-.7763.0424-.1884.0673-.2242.0835-.3523.0161-.1281-.0472-.3076-.1417-.253ZM71.4543 69.6421c-.729.4964-1.1997.8617-2.0169 1.3309-1.1054.6327-2.2297 1.2787-3.368 1.8495-.5668.2852-2.2122 1.243-2.6247 1.7955-.3422.4112-.6272.8683-.8471 1.3583-.3315.8168-.6066 1.656-.8235 2.5116-.2469.959-.4803 1.4191-1.3842 1.9408-.7871.455-2.1917.8715-3.256 1.0797-1.0644.2083-3.5759.2898-4.4607.2179-.8848-.072-1.2392-.1875-1.5745-.4727-.3353-.2851-.202-.7655-.3102-.7534-.1082.0121-.1858.732-.2269.9466-.0809.3209-.1048.6539-.0707.9834.0471.5142.8028.7384 1.4075.8489.6047.1105 2.3567.1089 3.7458-.0719 1.3891-.1808 3.7238-.8074 4.8308-1.9045.0788-.0785 1.025-1.2542 1.0376-1.2382.0379.0496-.1243.685-.1432.9339-.0188.2488-.0426.5333-.0835.9946-.0408.4612-.0772 1.2493.4173 1.7106.4944.4612.9983-.1142 1.2046-.5092.2026-.3943.362-.8101.4754-1.2398.0379-.1875.0094-.3283-.0582-.3251-.1149.0032-.2866.9674-1.0187.2577-.1837-.2713-.2781-.5949-.2694-.9242-.0157-1.1339.2992-2.5484.5196-3.5619.1087-.4964.2584-1.0795.411-1.5583.1196-.3765.2204-.4795.6439-.7882.4236-.3087 2.1713-1.3165 2.8029-1.6866 1.551-.9081 3.2859-1.7748 4.7471-2.7662.1918-.1545.3486-.3492.4599-.5708.1196-.2283.1748-.6247-.167-.3907M45.7688 78.5116c-.0362-.0978-.1196-.1569-.2141.0239-.5308.9279-.9782 1.9025-1.3369 2.9121-.2276.7329-.3168 1.5031-.2628 2.2698.0566.4356.2534 1.0939.5369 1.4078.5212.575 1.5337.7017 2.2422.4613.5182-.1685.9963-.4446 1.4041-.8107.4079-.3661.7366-.8144.9654-1.3164.2289-.4529.4103-.9291.5409-1.4207.1347-.5381.4489-1.6355-.0944-2.0951-.0867-.0721-.1843-.1507-.2882-.2242-.2409-.1683-.4519-.3283-.4314-.5708.0445-.1693.1095-.3323.1937-.4852.0587-.1498.1262-.2958.202-.4375.088-.1648.0612-.1616.2244-.0671.0966.0751.2114.1224.3322.1368.1208.0143.2431-.0047.3542-.0551.2674-.1607.4791-.402.606-.6904.1347-.2641.2197-.5515.2505-.8473.0224-.2546-.1466-.7784-.3623-.7448-.2157.0335-.2244.5413-.4518.4998-.2274-.0416-.3228-.0722-.4298-.4245-.1071-.3523-.0364-1.2558.0361-1.5889.037-.1265.0607-.2566.0709-.3881.0126-.1329-.0834-.3587-.1669-.1827-.1545.4037-.2787.8187-.3717 1.2414-.0898.411-.1385.9514-.1998 1.3487-.0725.4708-.0693.8202-.1347 1.2766-.1096.4938-.285.97-.5211 1.4156-.233.4918-.4251.966-.4016 1.3168.0427.6151.5212.74.9039.905.389.1665.6376.3667.1055 1.1339-.3196.4302-.7337.7783-1.2091 1.0167-.4755.2383-.9991.3602-1.5292.356-.8787-.0048-1.4692-.2968-1.7478-1.2124-.0716-.4213-.0502-.8536.0629-1.2654.1374-.5585.3283-1.1019.5701-1.6225.2393-.4968.5856-1.1758.5494-1.2736"></path></g><defs><clipPath id="a"><path fill="#fff" d="M0 0h43.5862v79H0z" transform="translate(28 11)"></path></clipPath><pattern id="b" width="41.2895" height="20.9552" patternContentUnits="objectBoundingBox"><use xlink:href="#c" transform="scale(.03226 .02729)"></use></pattern></defs></svg> 