<?xml version="1.0" encoding="UTF-8"?> <svg xmlns="http://www.w3.org/2000/svg" width="100" height="100" viewBox="0 0 100 100" fill="none"><path d="M50.2786 73.88L49.5426 74.4295L48.992 74.8633C48.8757 74.9528 48.8139 75.0937 48.8284 75.2383V76.7386C48.8248 76.8687 48.7239 76.9772 48.5922 76.9907C48.5322 76.9971 48.4732 76.9971 48.4141 76.9907H46.9104C46.8586 76.9971 46.8059 76.9971 46.7532 76.9907V73.8592C46.4443 74.0598 46.1753 74.2478 45.9263 74.4286L45.3158 74.9139C45.2385 74.969 45.1967 75.0594 45.204 75.1534V76.6012C45.2149 76.6988 45.1831 76.7964 45.1168 76.8696C45.0504 76.9419 44.955 76.9835 44.856 76.9835H43.057V73.8728L42.2892 74.4349L41.7504 74.8624C41.6304 74.9482 41.5678 75.0919 41.5868 75.2374V76.5696C41.5868 76.8922 41.4878 76.9962 41.1789 76.9962H39.1181C39.07 77.0025 39.0209 77.0025 38.9728 76.9962V71.9649C38.4748 72.34 37.9824 72.7024 37.4899 73.0449C37.4045 73.1172 37.3645 73.2275 37.3845 73.3359V79.0911H41.3233C41.5441 79.0848 41.764 79.0585 41.9803 79.0134C42.3782 78.9474 42.7044 78.6681 42.8271 78.2894V78.1213V79.0332C42.8271 79.0332 42.9388 79.0784 42.9516 79.0784H45.3348C45.8337 79.0784 46.2752 78.7621 46.4315 78.2958L46.5106 78.2244V78.632C46.4897 78.7775 46.5033 78.9257 46.5496 79.0658H48.7094C48.8639 79.0622 49.0183 79.0423 49.1692 79.007C49.6389 78.9158 50.0051 78.5524 50.095 78.0888C50.2013 77.7553 50.2631 77.4101 50.2786 77.0603V74.0219C50.2849 73.9749 50.2849 73.927 50.2786 73.88ZM73.6443 73.88L72.8302 74.4295L72.2196 74.8759C72.0879 74.9537 72.0161 75.1019 72.0352 75.251V76.5958C72.0352 77.016 71.9498 77.1525 71.5427 77.1525H70.2698L70.2298 76.9519C70.1798 76.5642 69.9717 76.2135 69.6519 75.9812C69.3702 75.768 69.094 75.5294 68.8124 75.3034L68.1554 74.7856L68.6479 74.4232C69.4293 73.899 70.2107 73.3884 70.9921 72.8389C70.9376 72.8334 70.8849 72.8226 70.834 72.8063H68.9959C68.8669 72.8117 68.7424 72.8569 68.6415 72.9356L66.4482 74.4295L66.1211 74.669L65.963 74.8045C66.0029 74.847 66.0475 74.8859 66.0938 74.9211L67.9192 76.3247C67.9855 76.3744 68.0491 76.4286 68.11 76.4864C68.2027 76.5551 68.2427 76.6735 68.2081 76.7838C68.1091 77.0549 67.7157 77.0685 67.683 77.0685C66.1202 77.0685 63.507 77.139 61.9515 77.139H61.8788C61.7361 77.1625 61.5889 77.1227 61.479 77.0296C61.37 76.9347 61.3073 76.7973 61.3082 76.6545V73.8348C60.9802 74.0418 60.6512 74.2352 60.4023 74.4295L59.6663 74.9537C59.5873 75.0205 59.5482 75.1227 59.5618 75.2248V77.1652C59.5673 77.4001 59.5954 77.6342 59.6472 77.8638C59.7326 78.3997 60.1152 78.8444 60.6376 79.0143C60.9138 79.1019 61.2028 79.1408 61.4917 79.1318H67.7157C67.9783 79.1318 68.2399 79.1046 68.4971 79.0531C69.1413 78.9356 69.7001 78.5461 70.0263 77.9867C70.0263 77.9279 70.0263 77.8638 70.0662 77.8059V79.0983H71.1884C71.5645 79.1209 71.9425 79.1209 72.3178 79.0983C72.9983 79.0802 73.5508 78.5524 73.5916 77.8828C73.6516 77.5456 73.6825 77.204 73.6825 76.8615V74.1059C73.6552 74.0336 73.6416 73.9568 73.6443 73.88ZM30.261 72.8127C30.1048 72.8127 29.9539 72.8678 29.834 72.9681L27.865 74.4232L27.6551 74.5976L27.4253 74.7919L27.5961 74.9537L29.218 76.3183C29.2952 76.3789 29.3661 76.4485 29.4269 76.5253C29.4978 76.6075 29.5223 76.7187 29.4933 76.8226C29.4605 76.9248 29.3842 77.0079 29.2834 77.0486H27.2599C27.2081 77.0486 27.1618 76.9645 27.1618 76.9519V71.9396C26.7802 72.0237 26.8801 72.0752 26.8011 72.1276C26.4194 72.4123 25.9869 72.697 25.599 72.9744C25.4718 73.0512 25.3973 73.1895 25.4027 73.3359V79.0983H29.1371C29.337 79.0992 29.5351 79.0775 29.7286 79.0341C30.4119 78.8778 30.9679 78.3907 31.206 77.7409C31.4695 77.1254 31.2914 76.4123 30.7662 75.9876C30.6417 75.8909 30.5363 75.7878 30.4246 75.6902L29.4333 74.8172L29.8794 74.462L30.1093 74.3002L30.7662 73.8086C30.9825 73.6532 31.1996 73.4986 31.4222 73.3242C31.6567 73.1832 31.8765 73.0214 32.0792 72.8389H30.2601V72.8127H30.261ZM76.3293 81.7635L77.8067 82.8814L79.3159 81.7951C78.8834 81.4526 78.2982 81.0197 77.8394 80.6636L76.3293 81.7635ZM80.8133 74.1059V73.9315L80.7215 73.9704L80.0191 74.4557L79.3159 74.9473C79.2405 75.0007 79.1978 75.0883 79.205 75.1796V76.5958C79.205 76.8543 79.106 76.9772 78.8234 77.0034H77.2424V71.9396L77.1116 72.011C76.6191 72.3273 76.1721 72.6581 75.6869 72.9808C75.5715 73.044 75.5024 73.1678 75.5097 73.2971V79.1173L78.2601 79.1571H78.7525C78.9542 79.1634 79.1569 79.1507 79.3568 79.1182C80.0564 79.1562 80.6624 78.6473 80.7351 77.9614C80.7951 77.6604 80.826 77.355 80.8269 77.0486V74.462C80.8205 74.3328 80.8133 74.209 80.8133 74.1059ZM51.7823 79.0983H55.8856C56.1064 79.0983 56.3272 79.0721 56.5416 79.0215C56.9414 78.9564 57.2749 78.6808 57.4084 78.303C57.4611 78.1557 57.5002 78.0048 57.5265 77.8511C57.5992 77.2637 57.6247 76.6708 57.6056 76.0788V73.9125L57.4475 74.0029L56.8769 74.4295C56.7388 74.5461 56.5943 74.6491 56.4562 74.753C56.1945 74.9094 56.0546 75.2049 56.1018 75.5031C56.1346 75.8782 56.1018 76.2596 56.1018 76.6419C56.1018 76.8805 56.0164 76.9772 55.8002 76.9971H53.4623C53.3996 77.0097 53.3351 77.0097 53.2715 76.9971V71.9396C53.2715 71.9848 53.187 71.9984 53.1607 72.0173C52.7273 72.3337 52.3066 72.6644 51.8477 72.9871C51.7505 73.0576 51.6978 73.1733 51.7096 73.2916V78.8986C51.7442 78.9618 51.7687 79.0287 51.7823 79.0983ZM23.4338 76.0011L21.6801 74.4295L20.7879 73.692L20.0792 73.0973V74.5524C20.0583 74.7422 20.1428 74.9284 20.3018 75.0377L21.8773 76.3762C21.9545 76.4385 22.0245 76.5081 22.0881 76.5831C22.1344 76.6392 22.1535 76.7124 22.1408 76.7838C22.1244 76.8561 22.0772 76.9184 22.0091 76.9519C21.9173 77.0115 21.8146 77.0531 21.7074 77.0748C21.4712 77.0748 20.0001 77.016 20.0001 77.0296V79.0992C20.0528 79.1046 20.1055 79.1046 20.1573 79.0992H21.8446C22.0281 79.0965 22.2108 79.0748 22.3898 79.0341C23.0658 78.8977 23.6246 78.4322 23.8735 77.7987C24.1379 77.1688 23.9607 76.4431 23.4338 76.0011ZM35.9144 73.8673L35.1784 74.4295L34.5751 74.9211C34.4906 74.9934 34.4479 75.1028 34.4633 75.2121V76.5054C34.4761 76.5868 34.4761 76.6699 34.4633 76.7512C34.4234 76.932 34.3643 77.0676 34.1871 77.0874H32.6707V79.1444H34.666C35.3229 79.0857 35.7372 78.8462 35.8944 77.9542C35.9471 77.6442 35.9735 77.3306 35.9735 77.016V74.1059C35.9689 74.0336 35.958 73.9631 35.9407 73.8926L35.9144 73.8673ZM56.3254 81.7048L55.1442 80.6962C54.6899 81.0324 54.2901 81.3948 53.8303 81.6984L52.6491 80.6835C52.2157 81.0586 51.7623 81.3884 51.3353 81.7762L52.6092 82.8751L53.9157 81.8665L55.0906 82.8751L56.3581 81.8665L57.5465 82.8751L58.387 82.2289L58.9185 81.8277L58.3997 81.4137L57.5856 80.7224L56.3254 81.7048ZM72.2523 70.9247L73.6698 71.9396L75.1472 70.9636L73.7034 69.9414L72.2523 70.9247Z" fill="black"></path><path d="M30.7606 71.8828H29.7694C29.6712 71.8755 29.5731 71.8891 29.4804 71.9216C29.2778 72.0147 29.0915 72.1385 28.9289 72.2904C28.4364 72.6392 27.944 72.9953 27.4906 73.3505C27.4251 73.3957 27.3397 73.4734 27.3334 73.5312V74.3916L30.7606 71.8828Z" fill="black"></path><path d="M55.2741 18.789V18.9245H28.6919V18.873C28.6983 18.9372 28.6983 19.0023 28.6919 19.0664H55.2205V19.202H28.7255V19.1387C28.949 20.6571 29.3825 23.522 29.9467 27.0466C30.7917 26.8749 31.4686 26.2504 31.7003 25.4298H31.5813V24.9581C31.1134 24.5893 30.8217 24.0462 30.7735 23.4578C30.6881 22.7402 30.1175 21.6539 30.1175 21.4081C30.1175 21.1623 30.6227 21.5762 30.9898 21.8798C31.365 22.2658 31.7112 22.6752 32.0274 23.109C32.3454 22.6752 32.6934 22.2639 33.0723 21.8798C33.4457 21.5762 33.9509 21.136 33.9509 21.4081C33.9509 21.6792 33.393 22.7728 33.2949 23.4578C33.2513 24.0425 32.9669 24.5848 32.5072 24.9581V25.437H32.36C32.6053 26.3797 33.4539 27.0494 34.4416 27.0792H34.5797C35.5583 27.0277 36.3933 26.367 36.654 25.437H36.4905V24.9581C36.0335 24.583 35.75 24.0416 35.7027 23.4578C35.6173 22.7402 35.0458 21.6539 35.0458 21.4081C35.0458 21.1623 35.551 21.5762 35.9326 21.8798C36.306 22.2658 36.6531 22.6752 36.9693 23.109C37.2864 22.6752 37.6326 22.2658 38.007 21.8798C38.3813 21.5762 38.8929 21.136 38.8929 21.4081C38.8929 21.6792 38.3086 22.7728 38.2368 23.4578C38.1642 24.1438 37.8034 24.8351 37.4027 24.9581V25.437C37.4027 25.5726 38.0597 27.118 39.4117 27.0792H39.6806C41.0599 27.0792 41.6505 25.5726 41.6505 25.437H42.3992C42.6699 26.3634 43.5031 27.0213 44.4799 27.0792H44.7098C45.7001 27.0593 46.5515 26.3851 46.7841 25.437H47.4928C47.75 26.3724 48.5922 27.0367 49.5745 27.0792H49.7126C50.6948 27.0403 51.537 26.3742 51.7869 25.437H52.4956C52.7028 26.2052 53.2952 26.8153 54.0648 27.0539L55.4186 18H28.5338C28.5474 18.2711 28.5847 18.5423 28.6456 18.808L55.2741 18.789ZM33.6093 21.3755L32.7888 22.0678L32.5717 22.2612C32.5417 21.9991 32.3173 21.8021 32.0501 21.8021C31.7821 21.8021 31.5577 22 31.5277 22.2612L31.3241 22.0805L30.51 21.3493C30.4573 21.2834 30.4319 21.2002 30.4373 21.1171C30.4555 21.0375 30.5082 20.9707 30.5827 20.9363C30.6609 20.8966 30.7535 20.8966 30.8317 20.9363C31.0861 21.193 31.306 21.4795 31.4886 21.7895L31.5804 21.7244C31.3705 21.4316 31.1924 21.1171 31.0488 20.7872C31.0379 20.6589 31.1161 20.5396 31.2396 20.4962C31.3596 20.4456 31.4995 20.4871 31.574 20.5929C31.703 20.9246 31.7921 21.2698 31.843 21.6214H31.8957C31.7903 21.2689 31.7385 20.902 31.7448 20.535C31.7448 20.3091 31.922 20.3145 32.0201 20.1853H32.1192C32.2173 20.3145 32.3881 20.3082 32.3945 20.535C32.3936 20.8803 32.3427 21.2246 32.2437 21.5563H32.3163C32.3627 21.2065 32.4526 20.8631 32.5853 20.535C32.658 20.423 32.8025 20.3787 32.926 20.4311C33.0469 20.4799 33.1196 20.6019 33.1032 20.7294C32.9569 21.0592 32.7716 21.371 32.5517 21.6602H32.6044C32.7879 21.353 33.0087 21.0683 33.2613 20.8125C33.3376 20.7736 33.4276 20.7736 33.5039 20.8125C33.582 20.8459 33.6402 20.9128 33.662 20.9933C33.7011 21.1234 33.6629 21.2644 33.563 21.3557L33.6084 21.3755H33.6093ZM38.5985 21.3755L37.8043 22.0678L37.5808 22.2612C37.5808 21.9793 37.3491 21.7506 37.0629 21.7506C36.7758 21.7506 36.5441 21.9793 36.5441 22.2612L36.386 22.0805L35.5519 21.3493C35.5019 21.2825 35.4765 21.2002 35.4801 21.1171C35.5047 21.0357 35.5646 20.9689 35.6437 20.9363C35.72 20.8966 35.8109 20.8966 35.8872 20.9363C36.138 21.1948 36.3587 21.4813 36.5441 21.7895L36.6286 21.7244C36.4142 21.4352 36.2352 21.1189 36.0971 20.7872C36.0862 20.6634 36.1589 20.5477 36.2761 20.5025C36.3933 20.4573 36.5268 20.4944 36.6032 20.5929C36.734 20.9246 36.8258 21.2698 36.8785 21.6214H36.9512C36.8394 21.2689 36.7867 20.9029 36.7931 20.535C36.7931 20.3091 36.9702 20.3145 37.0747 20.1853H37.1474C37.2528 20.3145 37.4173 20.3082 37.43 20.535C37.43 20.8812 37.3773 21.2255 37.2728 21.5563H37.3446C37.3982 21.2074 37.4881 20.8649 37.6135 20.535C37.6899 20.4176 37.8407 20.3742 37.9679 20.4311C38.0924 20.4763 38.166 20.601 38.146 20.7294C38.0097 21.0574 37.8352 21.3701 37.6272 21.6602H37.6799C37.8607 21.3511 38.0815 21.0665 38.3359 20.8125C38.4113 20.7691 38.5022 20.7637 38.5821 20.7962C38.6621 20.8297 38.722 20.8984 38.7429 20.9806C38.7711 21.1225 38.7084 21.2662 38.5857 21.343L38.5985 21.3755ZM40.8436 20.9689C41.0962 21.2237 41.3161 21.5075 41.5006 21.8157L41.5787 21.7253C41.3643 21.4361 41.1853 21.1243 41.0472 20.7935C41.0272 20.6652 41.1017 20.5405 41.2243 20.4953C41.347 20.4501 41.486 20.4926 41.5596 20.5992C41.685 20.93 41.775 21.2725 41.8286 21.6205H41.9013C41.794 21.2644 41.7413 20.8938 41.7432 20.5215C41.7432 20.2956 41.9203 20.3082 42.0248 20.1726H42.1175C42.2229 20.3082 42.3865 20.2956 42.3992 20.5215C42.3992 20.8703 42.3465 21.2174 42.242 21.55H42.3147C42.3665 21.1993 42.4573 20.8541 42.5836 20.5215C42.6636 20.4239 42.799 20.3868 42.918 20.4311C43.0407 20.4781 43.1133 20.601 43.0961 20.7294C42.9607 21.0583 42.7871 21.371 42.5773 21.6602H42.63C42.8117 21.353 43.0325 21.0674 43.286 20.8125C43.365 20.7773 43.4559 20.7773 43.5358 20.8125C43.614 20.8487 43.6721 20.9182 43.693 21.0005C43.6994 21.0845 43.674 21.1668 43.6203 21.2337L42.8135 21.9386L42.5963 22.132C42.5963 21.85 42.3646 21.6214 42.0784 21.6214C41.7913 21.6214 41.5596 21.85 41.5596 22.132L41.3161 22.0805L40.5283 21.343C40.4584 21.2725 40.423 21.1758 40.4302 21.0782C40.4538 21.0032 40.5084 20.9426 40.581 20.9101C40.6528 20.8703 40.7391 20.8703 40.8109 20.9101L40.8436 20.9689ZM43.385 23.484C43.3378 24.0579 43.0579 24.5893 42.61 24.9581V25.437H41.6378V24.9581C41.2243 24.8415 40.9027 24.1754 40.8109 23.4578C40.7192 22.7402 40.1549 21.6539 40.1549 21.4081C40.1549 21.1623 40.6665 21.5762 41.0272 21.8798C41.4061 22.2639 41.7541 22.6752 42.0721 23.109C42.3883 22.6752 42.7354 22.2658 43.1088 21.8798C43.4831 21.5762 43.9947 21.136 43.9947 21.4081C43.9947 21.6792 43.4632 22.7456 43.3777 23.4506L43.385 23.484ZM45.8401 20.968C46.0945 21.221 46.3153 21.5066 46.4961 21.8157L46.5688 21.7253C46.358 21.4352 46.1817 21.1225 46.0436 20.7935C46.0182 20.6643 46.0899 20.5369 46.2144 20.489C46.338 20.4411 46.4788 20.4881 46.5488 20.5992C46.6805 20.9282 46.7714 21.2707 46.8177 21.6205H46.8904C46.7841 21.268 46.7332 20.902 46.7396 20.535C46.7396 20.3091 46.9168 20.3218 47.0149 20.1853H47.1139C47.2184 20.3209 47.3829 20.3082 47.3892 20.535C47.3892 20.883 47.3375 21.2291 47.2384 21.5626H47.3111C47.3602 21.2111 47.4501 20.8667 47.5801 20.535C47.6546 20.4302 47.7918 20.3877 47.9144 20.4311C48.0325 20.4835 48.1034 20.6028 48.0916 20.7294C47.9553 21.0583 47.7781 21.371 47.5664 21.6602H47.6518C47.8372 21.3539 48.0571 21.0692 48.3088 20.8125C48.3851 20.7773 48.4741 20.7773 48.5514 20.8125C48.6304 20.8505 48.6895 20.9182 48.7149 21.0005C48.7167 21.0845 48.6886 21.1668 48.6368 21.2337L47.8099 22.0805L47.5928 22.2748C47.5628 22.0127 47.3384 21.8148 47.0712 21.8148C46.8032 21.8148 46.5788 22.0127 46.5488 22.2748L46.3389 22.0805L45.4984 21.3493C45.4457 21.2834 45.4203 21.2002 45.4257 21.1171C45.4466 21.0321 45.5048 20.9607 45.5838 20.9228C45.6629 20.8848 45.7547 20.8848 45.8337 20.9228L45.8401 20.968ZM48.3478 23.484C48.2879 24.0615 47.9971 24.5911 47.5401 24.9581V25.437H46.5679V24.9581C46.089 24.5947 45.7846 24.0516 45.7283 23.4578C45.6429 22.7402 45.0714 21.6539 45.0714 21.4081C45.0714 21.1623 45.5838 21.5762 45.9446 21.8798C46.3253 22.2612 46.676 22.6697 46.9958 23.1017C47.312 22.6697 47.6591 22.2585 48.0325 21.8726C48.4069 21.5699 48.9193 21.1297 48.9193 21.4018C48.9193 21.6729 48.4269 22.7466 48.3478 23.4515V23.484ZM50.8029 20.9426C51.0546 21.2011 51.2754 21.4876 51.4598 21.7958L51.5452 21.7244C51.3299 21.4352 51.1518 21.1189 51.0137 20.7872C51.0019 20.6634 51.0746 20.5477 51.1918 20.5025C51.3099 20.4573 51.4425 20.4944 51.5189 20.5929C51.6497 20.9246 51.7424 21.2698 51.7942 21.6214H51.8669C51.7624 21.2879 51.7088 20.9417 51.7088 20.5929C51.7088 20.5188 51.736 20.4474 51.7878 20.3923C51.8423 20.3389 51.915 20.3091 51.9914 20.3082H52.0831C52.1594 20.3082 52.233 20.3389 52.2866 20.3923C52.3384 20.4465 52.3666 20.5188 52.3657 20.5929C52.3657 20.9417 52.313 21.2888 52.2085 21.6214H52.2812C52.3339 21.2698 52.4238 20.9255 52.5492 20.5929C52.6274 20.479 52.7782 20.4374 52.9036 20.4962C53.0263 20.5378 53.1017 20.6607 53.0817 20.7872C52.939 21.1189 52.7582 21.4334 52.5429 21.7244H52.5956C52.7782 21.4153 52.999 21.1279 53.2516 20.8712C53.3315 20.8351 53.4224 20.8351 53.5015 20.8712C53.5796 20.9074 53.6377 20.9761 53.6586 21.0583C53.665 21.1424 53.6396 21.2255 53.586 21.2915L52.7791 22.0091L52.5629 22.2034C52.5329 21.9413 52.3085 21.7434 52.0404 21.7434C51.7733 21.7434 51.5489 21.9422 51.5189 22.2034L51.2826 22.0805L50.4685 21.3493C50.4158 21.2834 50.3895 21.2002 50.3958 21.1171C50.4204 21.0357 50.4812 20.9689 50.5603 20.9363C50.6366 20.8966 50.7275 20.8966 50.8029 20.9363V20.9426ZM53.2979 23.4515C53.2525 24.0416 52.9599 24.5875 52.4902 24.9581V25.437H51.518V24.9581C51.0582 24.5839 50.7702 24.0434 50.7184 23.4578C50.6393 22.7402 50.0615 21.6539 50.0615 21.4081C50.0615 21.1623 50.5667 21.5762 50.941 21.8798C51.3135 22.2639 51.6552 22.6752 51.965 23.109C52.2821 22.6752 52.6283 22.2658 53.0026 21.8798C53.377 21.5762 53.8749 21.136 53.8749 21.4081C53.8749 21.6792 53.3897 22.7529 53.2916 23.4578L53.2979 23.4515Z" fill="black"></path><path d="M53.594 27.8677H53.882L53.9547 27.3887C52.9852 27.217 52.212 26.4958 51.9848 25.5522C51.7522 26.6892 50.7328 27.5035 49.5552 27.4926H49.4443C48.2632 27.5089 47.2392 26.6928 47.0084 25.5522C46.7785 26.6883 45.7618 27.5026 44.586 27.4926H44.4543C43.2731 27.5116 42.2473 26.6946 42.0192 25.5522C41.7866 26.6865 40.7708 27.4998 39.5959 27.4926H39.4978C38.3184 27.508 37.2972 26.6919 37.0691 25.5522C36.8356 26.6892 35.817 27.5035 34.6395 27.4926H34.495C33.3166 27.508 32.2944 26.6919 32.0663 25.5522C31.8573 26.5672 31.025 27.3435 29.9856 27.4926L30.0437 27.9129H53.5603L53.594 27.8677ZM53.8102 28.2301H30.1228L30.3136 29.4456H53.613L53.7902 28.2301H53.8102Z" fill="black"></path><path d="M65.1152 43.3176C64.6055 42.5983 63.9304 42.0072 63.1463 41.5915C61.8987 40.9444 61.8333 41.4161 61.1764 42.1789C60.7693 42.5802 60.5794 42.1789 60.2969 41.9656C60.0152 41.7523 59.47 41.1251 58.2025 42.2765C58.2025 42.2765 58.9312 43.7704 59.8307 43.699C60.3223 43.737 60.7893 43.4821 61.0192 43.0519C61.2282 42.8061 61.767 42.1021 61.9969 42.0307C62.5638 41.8029 63.2144 42.0135 63.5333 42.5278C63.5333 42.5278 64.1112 42.328 65.1152 43.3176ZM65.575 43.9638C65.1116 43.8364 64.6137 43.9042 64.203 44.1518C63.7941 44.3994 63.5079 44.8025 63.4088 45.2634C63.1326 46.169 62.6929 46.7122 61.807 46.5576C61.2355 46.3823 61.459 45.7298 61.807 45.5364C61.9778 45.4523 62.1622 45.3981 62.3521 45.3737C62.3521 45.3737 63.6841 43.0655 65.575 43.9638Z" fill="black"></path><path d="M64.1311 44.4691C64.1311 44.4691 65.444 44.2233 66.0083 44.8179C66.3599 45.212 66.5762 45.7054 66.6261 46.2278C66.7261 45.8808 66.8469 45.5391 66.9869 45.2065C67.085 45.0638 67.2167 44.6236 66.9869 44.507C66.5598 44.3453 66.4153 44.6245 66.1782 44.507C65.5576 44.1184 64.7671 44.104 64.1311 44.4691Z" fill="black"></path><path d="M66.3098 46.3316C66.3098 46.3316 65.9691 44.2819 64.459 44.7672C63.8484 44.9805 63.8348 45.3366 63.5986 45.9313C63.4332 46.3099 63.1315 46.6163 62.7517 46.7907C63.9593 46.7546 65.1596 46.6009 66.3362 46.3316H66.3098ZM65.6602 47.9494H65.3322C65.3322 47.9494 64.8597 47.0366 62.6073 47.8382C62.2329 47.9421 62.0894 49.6105 64.2028 49.2616C64.6098 49.1577 65.1814 48.2404 65.1814 48.2404L65.5085 48.3235L64.807 49.2092C64.807 49.2092 64.9315 50.5422 63.9602 50.6643C62.988 50.7872 62.9816 50.0181 62.9816 50.0181L63.0997 49.9078C63.0997 49.9078 61.019 48.6471 62.1939 47.6511C63.3687 46.6552 65.0105 47.3348 66.5861 46.5196L65.6602 47.9484V47.9494Z" fill="black"></path><path d="M64.8335 47.9998C64.8335 47.9998 64.8335 48.4724 64.4392 48.5429C64.4392 48.5429 64.4392 47.8967 62.7128 48.0323C62.7128 48.0323 63.258 47.4114 64.8335 47.9998ZM62.6202 43.189C62.6202 43.189 62.3912 43.79 62.7655 43.8352C62.9227 43.7177 62.9836 43.5117 62.9127 43.3291C62.8437 43.1484 62.6601 43.0327 62.463 43.0462C62.2849 43.0327 62.1095 43.0959 61.9832 43.2207C61.8569 43.3454 61.7924 43.518 61.807 43.6933C61.8469 43.8759 61.9859 44.0223 62.1677 44.0747C62.3485 44.1271 62.5438 44.0801 62.6801 43.9518C62.6801 43.9518 61.9242 43.6481 62.6202 43.189Z" fill="black"></path><path d="M63.3106 43C62.9226 41.9787 61.5897 42.3538 61.229 43.4717C60.8673 44.5906 61.6224 45.6516 62.7518 44.5002C63.277 44.0348 64.1047 43.2395 65.1024 43.5946C64.6817 43.0705 63.9875 42.8382 63.3297 43H63.3106ZM62.6537 44.1514C61.905 44.8753 61.4725 44.4487 61.4452 44.2544C61.3889 43.8857 61.497 43.5115 61.7405 43.2268C62.0949 42.8707 62.621 42.418 63.1852 43.3425C63.505 43.1545 63.903 43.1545 64.2228 43.3425C64.2228 43.3425 63.5659 43.188 62.6537 44.1514Z" fill="black"></path><path d="M62.9953 61.9355L61.7278 51.4718C61.2053 51.4727 60.6883 51.3742 60.205 51.1807C60.205 51.1807 60.7038 51.0515 60.7301 50.6376C60.7301 50.6376 59.3118 50.7605 59.0619 50.0556C59.23 50.0881 59.4036 50.0501 59.5417 49.9516C59.6789 49.8549 59.7734 49.7085 59.8043 49.5449C59.4681 49.6109 59.1183 49.526 58.852 49.3118C58.5867 49.0976 58.4341 48.7767 58.4386 48.4387C58.6785 48.5788 58.9883 48.5174 59.1546 48.2968C58.6494 48.239 58.2351 47.8775 58.117 47.3913C58.584 47.3479 58.9865 47.0478 59.1546 46.6149C59.1546 46.6149 57.5854 46.9186 58.3459 45.1599C58.5549 44.7225 58.8275 44.3176 59.1546 43.9579C58.3805 43.6759 57.8598 42.9583 57.8408 42.1468C58.0988 41.8015 58.4313 41.5168 58.813 41.3126C59.2636 41.0207 59.846 41.0207 60.2967 41.3126C60.7238 41.6678 60.9527 42.088 61.2871 41.5774C61.4606 41.2864 61.6833 41.0261 61.944 40.8074C60.2549 39.9949 58.246 40.1847 56.745 41.299C53.8556 43.1553 51.8603 47.0614 51.2824 50.4695C50.7045 53.8767 53.961 54.9964 55.4448 55.6426C56.9285 56.2897 59.3836 57.8162 58.0188 60.9007C59.7152 61.0462 61.3898 61.3824 63.008 61.903L62.9953 61.9355ZM54.2172 51.9878C53.6266 49.2991 54.1945 46.4893 55.7864 44.2281C55.7864 44.2281 53.7057 48.9747 54.9923 51.8911C55.6465 53.5387 56.9594 54.85 58.6222 55.5188C58.6222 55.5188 54.9723 54.7434 54.2172 51.9878Z" fill="black"></path><path d="M67.0133 64.0902H66.6453C65.5213 63.4612 64.2293 63.1855 62.9427 63.3003C62.9427 63.3003 62.4039 62.5113 58.6295 62.3243C57.0967 62.3423 55.5675 62.1842 54.0729 61.8525C54.0729 61.8525 52.1757 61.0635 51.3152 62.2727C50.4557 63.482 52.6282 64.5168 53.3959 64.6397L62.9818 64.7427C62.9818 64.7427 62.9027 64.3414 60.6448 64.0965C58.386 63.8507 55.5239 63.7983 54.7752 63.8182C54.0265 63.8372 53.167 64.0378 52.8063 63.3527C52.4446 62.6668 52.6482 62.3947 53.3514 62.3767C53.783 62.3676 54.211 62.4634 54.598 62.6541C55.6393 62.6478 56.6806 62.6993 57.7164 62.8096C59.1856 62.9 60.6385 63.1648 62.0432 63.5986C62.8636 63.9926 63.8749 63.5986 65.1615 64.0378C65.8221 64.2438 66.4281 64.5936 66.9333 65.059H67.6693C67.6693 65.059 67.4003 64.3225 67.6693 64.2005C67.9382 64.0766 68.3916 64.4644 68.6278 64.6587L68.7332 64.458C68.7332 64.458 69.6582 64.9171 69.8754 65.4793H52.5955C52.5955 65.4793 49.8387 64.458 50.0423 62.6541C50.2458 60.8493 52.4183 60.6044 53.4159 60.8303C54.4145 61.0563 55.1496 61.5479 55.6484 61.5479C56.1481 61.5479 61.3799 61.8191 63.1589 62.7255C63.8895 62.8249 64.63 62.8448 65.365 62.7834L65.5949 62.7056C65.7648 62.4535 66.0383 62.2881 66.3436 62.2538C66.6462 62.2267 66.9433 62.3441 67.1441 62.5701C67.1441 62.5701 67.8528 62.3758 68.1881 62.6216C68.4816 62.9623 68.7187 63.3464 68.8904 63.7603C69.2566 63.7287 69.6128 63.8878 69.829 64.1806C70.0998 64.6053 70.4024 65.0093 70.7349 65.3898H70.0789C69.69 64.8946 69.2757 64.4201 68.8377 63.9664C68.4307 63.5986 68.1817 63.1259 67.8792 63.0744C67.5775 63.0229 68.2335 63.9022 68.2335 63.9022L67.0587 62.881C67.0587 62.881 66.6716 62.5375 66.5208 63.0093C66.3691 63.482 67.5711 63.9745 67.0133 64.0902ZM60.5194 43.9644C60.3432 45.1302 60.4467 46.3187 60.822 47.4375C61.1473 48.541 61.8415 49.5053 62.7919 50.1732C62.4975 50.7733 61.806 51.077 61.1564 50.8908C61.3199 50.7877 61.4399 50.6323 61.498 50.4506C61.6361 49.9265 61.5834 49.94 61.1764 50.044C60.7693 50.147 60.0533 50.419 59.8634 49.9599C59.8634 49.9599 60.5794 49.9599 60.6712 48.9378C60.6712 48.9378 59.5281 49.358 59.0166 48.8148C59.0166 48.8148 60.3295 48.5564 60.1524 47.7864C60.1524 47.7864 58.9893 47.9743 58.8394 47.489C58.8394 47.489 59.7653 46.8428 59.6535 46.1569C59.6535 46.1569 58.6622 46.2473 58.6086 46.1054C58.4633 45.4294 58.7558 44.7353 59.3446 44.3593C59.698 44.1352 60.1015 43.9996 60.5194 43.9644ZM28.4229 65.8101H72.0288V67.1621H28.4229V65.8101Z" fill="black"></path><path d="M54.4471 55.9537C50.1203 54.2908 50.2848 51.2198 50.7636 48.0765L53.5603 29.7627H30.3735C32.1453 40.756 34.713 55.6943 35.8888 57.4991C39.8276 65.576 46.872 65.2597 46.872 65.2597H51.5132C51.5132 65.2597 47.9678 63.8363 48.9328 61.6121C49.8986 59.3871 51.7949 59.5687 53.2986 59.8787C54.8024 60.1896 56.5024 61.2624 57.461 59.5751C58.4195 57.8868 54.4471 55.9537 54.4471 55.9537ZM46.674 36.333C46.674 36.333 47.718 37.122 47.5926 37.7556C47.4681 38.3891 47.0292 38.4026 46.5495 38.5771C45.8599 38.8355 45.2284 39.2242 44.6914 39.7212C44.6123 39.7926 44.4415 39.2495 43.6465 39.0036L45.8662 36.3647C45.8662 36.3647 46.3659 35.9516 46.674 36.333ZM43.9363 41.649L42.6888 41.5902C42.6888 41.5902 42.2618 41.3706 42.1709 40.2978C42.0782 39.2233 42.0455 38.9006 43.4375 39.3209C44.8295 39.7411 44.2843 40.3484 44.0935 40.7172C43.9627 41.0172 43.9091 41.3435 43.9363 41.6679V41.649ZM47.0619 57.2922C45.8335 57.5118 45.958 57.1114 45.8726 56.833C45.7563 56.4851 45.9116 56.1046 46.2406 55.9338C46.9075 55.81 47.5798 55.7214 48.2559 55.669C48.3476 56.0576 48.433 56.4833 48.5193 56.9623C48.0432 57.1132 47.5562 57.2235 47.061 57.2922H47.0619ZM48.5584 57.2208C48.6175 57.6609 48.6829 58.1336 48.722 58.6369L47.3436 58.9216C45.9444 59.2 46.2142 58.7083 46.1025 58.3396C46.0525 58.1814 46.0743 58.0088 46.1615 57.8678C46.2478 57.7232 46.395 57.6265 46.5622 57.6021C46.8511 57.5316 48.1314 57.3048 48.5321 57.2208H48.5584ZM46.5886 55.669C45.7681 55.7982 45.6827 55.669 45.5446 55.3391C45.4065 55.0093 45.2229 54.4851 45.65 54.3757C46.077 54.2655 47.389 54.0648 47.8161 54.007C47.9733 54.448 48.1068 54.8972 48.2159 55.3518C47.9542 55.3906 47.2455 55.5461 46.5686 55.6627L46.5886 55.669ZM46.0498 54.0585C45.3937 54.1814 45.013 54.1814 44.665 53.735C44.317 53.2894 44.4479 53.0237 44.8422 52.9207C45.2365 52.8167 46.674 52.4869 47.0083 52.4164C47.2464 52.8321 47.4536 53.265 47.6325 53.7087C47.3173 53.7937 46.5886 53.9744 46.0634 54.0711L46.0498 54.0585ZM44.6914 52.7137C44.2707 52.7661 43.8591 52.5646 43.6465 52.2022C43.5556 52.0277 43.3784 51.6201 43.89 51.4846C44.4024 51.349 45.7281 51.1357 46.1551 51.0643C46.2669 51.2198 46.3723 51.3626 46.4568 51.4981L46.5422 51.6274C46.6676 51.8145 46.7984 52.0277 46.9429 52.2736C46.5622 52.3386 45.1893 52.6351 44.6914 52.6938V52.7137ZM44.1598 51.2912C43.5965 51.5027 42.9587 51.3364 42.5771 50.8773C42.2754 50.3594 42.6824 50.1723 42.9841 50.1136L45.0648 49.7195C45.4065 50.1136 45.7217 50.4697 45.9643 50.7995L44.1598 51.2912ZM44.1598 49.5966C43.5029 49.7647 42.0791 50.2428 41.6321 49.7521C41.1851 49.2604 41.3886 48.9631 41.7439 48.9116C42.0982 48.8592 43.3248 48.5356 43.8246 48.3874L44.7632 49.415C44.5487 49.4882 44.3288 49.5487 44.1071 49.5957L44.1598 49.5966ZM42.4916 48.4326C42.1309 48.523 40.8707 49.0788 40.4109 48.4326C39.9512 47.7855 40.1938 47.734 40.5681 47.5984C40.9425 47.4629 42.1173 47.1709 42.6488 47.0489L42.8796 47.2749L43.6674 48.0964C43.2858 48.1868 42.7224 48.3612 42.4389 48.4326H42.4916ZM40.5227 47.3065C39.6359 47.4746 39.4778 47.3065 39.2097 46.9251C38.9399 46.5428 38.9008 46.278 39.3079 46.175L41.2378 45.7349C41.5667 46.1181 41.9156 46.485 42.2818 46.8338C41.7066 47.0182 41.1215 47.1682 40.5281 47.2866L40.5227 47.3065ZM40.3319 45.6508C39.1634 45.9093 38.6837 46.0521 38.362 45.5279C37.8895 44.7199 38.5792 44.7715 38.5792 44.7715L40.549 44.5256C40.6944 44.8926 40.8943 45.2369 41.1396 45.5469L40.3319 45.6508ZM40.43 44.2599L38.402 44.4226C37.7451 44.4226 37.5025 43.7755 37.4888 42.8889C37.4761 42.0032 37.5479 41.8613 38.0994 42.2039C38.7836 42.6964 39.5641 43.0444 40.3909 43.2251V43.4646C40.3482 43.7403 40.3619 44.0222 40.43 44.2925V44.2599ZM40.43 43.0642C39.5705 42.7036 38.7627 42.2346 38.0276 41.667C37.7387 41.4022 37.6797 41.1754 38.1131 40.6458C38.5465 40.1153 39.0189 39.7981 39.078 39.9273C39.2743 40.2843 39.4932 40.6277 39.7349 40.9558C40.0784 41.4185 40.4982 41.8234 40.9752 42.1524C40.6971 42.4108 40.5072 42.747 40.43 43.1158V43.0642ZM40.1029 40.7868C39.5178 39.9282 39.5505 39.611 39.7667 39.4356C40.2583 39.0741 40.8625 38.8934 41.4749 38.925C42.2227 39.0091 41.7829 39.4555 41.8293 40.1406C41.901 40.6503 42.0846 41.1374 42.3672 41.5703H42.0319C41.7148 41.611 41.4104 41.7195 41.1396 41.8866C40.7398 41.5821 40.3855 41.2233 40.0893 40.8202L40.102 40.7877L40.1029 40.7868ZM44.8822 35.207C45.7617 35.4916 46.0107 35.7366 45.6818 36.2282L43.4502 38.8536C43.1159 38.7271 42.757 38.6756 42.3999 38.7054C42.597 38.136 43.3194 36.0149 43.4439 35.6326C43.5683 35.2521 43.9818 34.9864 44.8549 35.2521L44.8822 35.207ZM41.7439 34.9358C42.5116 34.8834 43.3848 34.9358 43.273 35.3163L43.0759 35.8468L42.0392 38.6855C41.6003 38.5373 41.1242 38.5373 40.6862 38.6855V35.6136C40.6862 35.2458 41.0079 35.019 41.7766 34.9675L41.7439 34.9349V34.9358ZM38.1848 35.7564C38.7364 35.4266 40.1874 34.7352 40.2656 35.6724C40.2656 36.1893 40.3909 38.1758 40.4236 38.7506C39.9666 38.7886 39.5423 38.9964 39.2352 39.3326C38.9463 38.8283 37.9813 37.1274 37.7851 36.7461C37.5879 36.3647 37.6597 36.1315 38.2048 35.8016L38.1848 35.7564ZM35.9587 37.1988C36.314 36.8753 37.1545 36.0348 37.4307 36.7524L38.8218 39.5459C38.5201 39.6607 38.2521 39.8478 38.0404 40.0891C37.6333 39.7917 36.1505 38.6665 35.7425 38.3105C35.3354 37.9553 35.6317 37.5603 35.9787 37.2305L35.9587 37.1988ZM35.4736 38.5364C35.9796 38.8609 37.5543 40.0502 37.8632 40.277C37.5234 40.5753 37.3217 40.9982 37.3053 41.4474L34.5222 40.2319C33.7999 39.9598 34.7648 38.1171 35.5126 38.5825L35.4736 38.5364ZM33.5764 41.311C33.5764 41.311 33.7272 40.484 34.3514 40.5545C35.3463 40.8925 36.3158 41.2983 37.2526 41.771C37.159 42.0204 37.1227 42.2879 37.1481 42.5527V42.9088L34.0298 42.5021C33.3729 42.437 33.5827 41.3634 33.5827 41.3634L33.5764 41.311ZM33.5764 43.7882C33.5764 43.5749 33.4973 42.8374 34.0761 42.8374C34.6531 42.8374 36.5566 43.0507 37.2008 43.1158C37.2008 43.8333 37.378 44.409 37.7587 44.5708C37.1018 44.5708 34.4759 44.6612 34.1079 44.6422C33.7408 44.6223 33.6227 44.0466 33.6418 43.8333L33.5764 43.7882ZM34.0761 46.0322C33.9507 45.7159 33.839 45.1655 34.1806 45.1013C34.5222 45.0363 37.8968 44.8356 37.8968 44.8356C37.7587 44.9197 37.6797 45.1203 37.8968 45.593C38.0058 45.7828 38.1967 45.9156 38.4147 45.9545C38.4147 45.9545 35.3891 46.5238 34.8893 46.5238C34.5677 46.5374 34.2706 46.3548 34.1406 46.0647L34.0761 46.0322ZM35.33 47.8361C34.942 47.4357 34.942 46.9052 35.2637 46.8149C35.5853 46.7245 38.6319 46.297 38.6837 46.297C38.4474 46.4199 38.4874 46.6594 38.7364 46.9956C38.8872 47.2884 39.1988 47.4656 39.5314 47.4484L36.3331 47.9979C36.0214 48.1199 35.6689 48.0837 35.3881 47.9012L35.33 47.8361ZM36.294 49.2071C36.0978 48.955 35.7761 48.4895 36.1168 48.4181L39.6949 47.63C39.5568 47.7846 39.5705 48.0241 39.9048 48.5347C39.9984 48.6856 40.1429 48.8004 40.3119 48.8583C39.7667 48.9748 37.7387 49.4141 37.4371 49.4665C37.0636 49.5361 36.6775 49.4547 36.3667 49.2405L36.294 49.2071ZM37.3317 50.5402C36.99 49.9446 37.4561 49.7828 37.4561 49.7828C37.9813 49.6472 40.5817 49.1366 40.818 49.0978C40.7262 49.2595 40.7126 49.5044 41.0152 49.8542C41.2023 50.035 41.4622 50.1253 41.7239 50.1C41.7239 50.1 39.0526 50.7083 38.6055 50.7462C38.1585 50.7851 37.7587 51.1475 37.4034 50.5528L37.3317 50.5402ZM38.4611 51.7494C38.3557 51.5162 38.1131 51.2379 38.6582 51.1023C39.2034 50.9667 41.494 50.4552 41.862 50.3648C41.8393 50.5302 41.8792 50.6992 41.9728 50.8375C42.1436 51.1023 42.4208 51.2839 42.7351 51.3346C42.7351 51.3346 40.0693 52.0467 39.6368 52.1172C39.2479 52.2094 38.8399 52.0856 38.5728 51.7946L38.4611 51.7494ZM39.4978 53.2171C39.2161 52.9776 39.1634 52.486 39.7613 52.3242C40.3582 52.1633 42.7215 51.6391 43.1413 51.5352C43.0041 51.7855 43.0041 52.0874 43.1413 52.3377C43.2758 52.5573 43.4857 52.7227 43.7319 52.8032C42.7233 53.0734 41.7002 53.2894 40.6672 53.4503C40.0102 53.5533 39.9048 53.4955 39.6223 53.256L39.4978 53.2171ZM40.43 54.6396C40.2528 54.3748 40.0956 53.8506 40.5227 53.7603L43.8845 53.1132C43.9118 53.6346 44.2689 54.0829 44.7768 54.232C44.7768 54.232 41.8093 54.8791 41.3959 54.918C41.0888 54.9839 40.768 54.9053 40.529 54.7047L40.43 54.6396ZM41.0152 55.998C40.9397 55.8244 40.957 55.6256 41.0606 55.4675C41.1605 55.3048 41.335 55.2018 41.5267 55.1891L44.8749 54.5104C44.5533 55.293 45.3874 55.8362 45.3874 55.8362L42.0064 56.5348C41.6475 56.5285 41.3168 56.3405 41.1333 56.0368L41.0152 55.998ZM41.5467 57.5244C41.4913 57.3861 41.4931 57.2316 41.554 57.096C41.6139 56.9605 41.7275 56.8529 41.8683 56.7996L45.5382 56.0621C45.0657 56.7092 45.7617 57.4331 45.7617 57.4331C45.7617 57.4331 42.9387 58.0088 42.4789 58.0414C42.1218 58.0676 41.7857 57.8751 41.6321 57.5561L41.5467 57.5244ZM41.9338 58.9795C41.8811 58.4878 42.2027 58.3324 42.5907 58.261C43.194 58.1833 45.63 57.7504 45.63 57.7504C45.3874 58.8493 45.9189 59.0436 45.9189 59.0436C44.8958 59.3464 43.8546 59.5859 42.8006 59.7612C42.4099 59.6916 42.1118 59.3753 42.0719 58.9858L41.9338 58.9795ZM43.3975 59.8778C44.0544 59.7359 45.8335 59.3735 45.8335 59.3735C45.1766 60.0721 46.0107 60.8286 46.0107 60.8286C46.0107 60.8286 43.93 61.3329 43.5947 61.4043C43.2603 61.4757 42.617 61.6889 42.558 60.9515C42.498 60.214 42.8851 60.0206 43.5156 59.9167L43.3975 59.8778ZM43.1813 63.2922C42.9905 63.2741 42.8151 63.1811 42.6952 63.0337C42.5807 62.8846 42.5334 62.6948 42.5643 62.5096C42.6298 61.773 43.2203 61.6501 44.4879 61.4232C45.0039 61.3139 45.5255 61.2298 46.0507 61.1711C45.7263 61.5913 45.7799 62.186 46.1751 62.5421L43.1813 63.2922ZM48.3812 61.9998C48.3812 61.9998 47.6325 62.271 47.3436 62.3487C47.0547 62.4255 46.4241 62.665 46.2996 62.4454C45.9889 62.0116 46.0652 61.4169 46.4768 61.0744C47.1592 60.853 47.8542 60.6686 48.5575 60.5249L48.3812 61.9989V61.9998ZM48.6175 60.2728C48.5584 60.2728 47.0156 60.5638 46.6476 60.6478C46.2796 60.7319 46.1424 60.6478 46.0697 60.1815C45.9971 59.716 46.1488 59.1602 46.6476 59.1602C47.1474 59.1602 48.3876 58.9343 48.6175 58.9144C48.6175 59.2759 48.6175 59.6519 48.6765 60.0531C48.8728 60.2339 48.8728 60.3243 48.8137 60.3179L48.6175 60.2728ZM48.9846 60.421C48.8474 54.6396 47.2782 52.3956 46.5495 51.2568C45.4137 49.7476 44.1644 48.3232 42.8133 46.9956C41.8483 45.9744 40.3328 44.7714 40.4963 43.452C40.4891 43.0588 40.6408 42.6801 40.9179 42.3973C41.1951 42.1144 41.5749 41.9517 41.9728 41.9454C42.5516 41.8866 43.1349 41.8866 43.7128 41.9454C43.8446 43.4709 47.3836 47.4674 49.07 50.4172C50.7572 53.3653 52.1883 59.3862 52.1883 59.3862C51.0616 59.2813 49.9459 59.6799 49.149 60.4725L48.9846 60.421Z" fill="black"></path><path d="M71.0048 55.999C71.5118 56.0063 72.0079 56.14 72.4495 56.3876C72.9129 56.6317 73.2945 57.0049 73.5453 57.4604C74.0641 58.3371 74.0641 59.4216 73.5453 60.2991C73.2963 60.7582 72.9147 61.1342 72.4486 61.3791C71.5582 61.8906 70.4569 61.8906 69.5665 61.3791C69.1013 61.1351 68.7215 60.7591 68.4762 60.2991C68.2263 59.8653 68.0909 59.3764 68.0827 58.8766C68.0764 58.375 68.2127 57.8825 68.4771 57.4541C68.7224 56.9941 69.1013 56.6181 69.5674 56.3741C70.0072 56.1337 70.5014 56.0053 71.0048 55.999ZM71.0048 56.4708C70.5887 56.4654 70.1789 56.5684 69.8164 56.769C69.4402 56.9706 69.1258 57.2679 68.9032 57.6285C68.6924 57.9972 68.5879 58.4148 68.6016 58.8377C68.5888 59.2462 68.6924 59.6502 68.9032 60.0018C69.1031 60.3796 69.4247 60.6814 69.8164 60.8622C70.198 61.0501 70.6168 61.1514 71.0439 61.1595C71.4728 61.1722 71.898 61.0691 72.2714 60.8613C72.6458 60.6715 72.9511 60.3705 73.1446 60.0027C73.5471 59.2607 73.5471 58.3696 73.1446 57.6285C72.9474 57.2489 72.6258 56.9462 72.2323 56.7681C71.848 56.5865 71.43 56.4852 71.0048 56.4708ZM69.7373 60.4356V57.37H70.8276C71.092 57.3628 71.3564 57.389 71.6154 57.4478C71.779 57.4975 71.9207 57.6032 72.0152 57.7451C72.1015 57.8734 72.1469 58.0244 72.1469 58.1789C72.1478 58.4048 72.0561 58.6217 71.8907 58.7799C71.7099 58.9462 71.48 59.0501 71.2347 59.0772C71.3401 59.098 71.4328 59.1613 71.49 59.2517C71.6281 59.3872 71.7535 59.6005 71.9698 59.8599L72.3695 60.4609H71.7135L71.45 59.9891C71.3137 59.7252 71.1384 59.4812 70.9321 59.2643C70.8467 59.1803 70.7159 59.1803 70.5387 59.1803H70.2361V60.4735H69.7182L69.7373 60.4356ZM70.2552 58.7148H70.8667C71.0811 58.7347 71.2965 58.6895 71.4846 58.5856C71.6009 58.5079 71.669 58.3759 71.6608 58.2367C71.6527 58.1464 71.6236 58.0605 71.5754 57.9837C71.5264 57.9023 71.45 57.8409 71.3592 57.8093C71.1874 57.7776 71.0121 57.7776 70.8404 57.8093H70.2625V58.7221L70.2552 58.7148Z" fill="black"></path></svg> 