<?xml version="1.0" encoding="UTF-8"?> <svg xmlns="http://www.w3.org/2000/svg" width="32" height="32" viewBox="0 0 32 32" fill="none"><path d="M24.0007 17.5734V13.3334C23.9987 11.4442 23.3283 9.61671 22.1081 8.17445C20.8879 6.73219 19.1967 5.76828 17.334 5.45341V4.00008C17.334 3.64646 17.1935 3.30732 16.9435 3.05727C16.6934 2.80722 16.3543 2.66675 16.0007 2.66675C15.647 2.66675 15.3079 2.80722 15.0578 3.05727C14.8078 3.30732 14.6673 3.64646 14.6673 4.00008V5.45341C12.8046 5.76828 11.1133 6.73219 9.89316 8.17445C8.67298 9.61671 8.00257 11.4442 8.00065 13.3334V17.5734C7.22258 17.8485 6.54865 18.3575 6.07124 19.0307C5.59382 19.7038 5.3363 20.5082 5.33398 21.3334V24.0001C5.33398 24.3537 5.47446 24.6928 5.72451 24.9429C5.97456 25.1929 6.3137 25.3334 6.66732 25.3334H10.854C11.161 26.4632 11.8313 27.4606 12.7614 28.1717C13.6916 28.8828 14.8298 29.2681 16.0007 29.2681C17.1715 29.2681 18.3097 28.8828 19.2399 28.1717C20.17 27.4606 20.8403 26.4632 21.1473 25.3334H25.334C25.6876 25.3334 26.0267 25.1929 26.2768 24.9429C26.5268 24.6928 26.6673 24.3537 26.6673 24.0001V21.3334C26.665 20.5082 26.4075 19.7038 25.9301 19.0307C25.4527 18.3575 24.7787 17.8485 24.0007 17.5734ZM10.6673 13.3334C10.6673 11.9189 11.2292 10.5624 12.2294 9.56218C13.2296 8.56198 14.5862 8.00008 16.0007 8.00008C17.4151 8.00008 18.7717 8.56198 19.7719 9.56218C20.7721 10.5624 21.334 11.9189 21.334 13.3334V17.3334H10.6673V13.3334ZM16.0007 26.6667C15.5353 26.6639 15.0787 26.5394 14.6764 26.3055C14.2741 26.0716 13.94 25.7365 13.7073 25.3334H18.294C18.0613 25.7365 17.7272 26.0716 17.3249 26.3055C16.9226 26.5394 16.466 26.6639 16.0007 26.6667ZM24.0007 22.6667H8.00065V21.3334C8.00065 20.9798 8.14113 20.6407 8.39118 20.3906C8.64122 20.1406 8.98036 20.0001 9.33398 20.0001H22.6673C23.0209 20.0001 23.3601 20.1406 23.6101 20.3906C23.8602 20.6407 24.0007 20.9798 24.0007 21.3334V22.6667Z" fill="#262626"></path></svg> 