<?xml version="1.0" encoding="UTF-8"?> <svg xmlns="http://www.w3.org/2000/svg" width="100" height="100" viewBox="0 0 100 100" fill="none"><g clip-path="url(#clip0_9871_3499)"><path fill-rule="evenodd" clip-rule="evenodd" d="M89.5512 56.9692L86.9915 57.7496V63.0443H74.7402C74.7547 63.0203 74.7619 62.9939 74.7619 62.9699V58.9718C74.7619 57.9273 73.907 57.07 72.8601 57.07H68.1272C66.6 57.07 65.3513 58.3187 65.3513 59.8459V62.8667H59.0096V58.7125C59.0096 57.7712 58.2412 57.0028 57.2999 57.0028H52.4398C51.1623 57.0028 50.1177 58.0473 50.1177 59.3248V65.6353C51.1263 65.6929 52.1996 65.352 52.6271 64.0673V60.6815C52.6271 60.2757 52.9584 59.9467 53.3618 59.9467H55.5686C55.972 59.9467 56.3034 60.2781 56.3034 60.6815V64.1681C56.3562 65.0494 56.9974 65.5993 57.6097 65.6449L59.0096 65.6353V65.6137H64.2444C64.9071 65.1911 65.4666 64.6652 65.918 64.0313C66.3551 65.035 67.3036 65.7458 68.4538 65.7458H70.5549C71.6258 65.7458 72.5623 65.1286 73.0258 64.2354C73.3115 64.9582 73.847 65.6113 74.6394 65.6113H85.3634C86.5064 65.6113 87.3276 64.9029 87.7959 63.9016C88.036 64.7444 88.6099 65.6113 89.5224 65.6113H96.5269C98.0301 65.6113 99.2619 64.3818 99.2619 62.8763V57.1084C99.2619 57.0316 99.1947 56.95 99.1226 56.9692L96.2771 57.7496V63.0443H89.6929V57.1084C89.6929 57.0316 89.6233 56.9476 89.5536 56.9692H89.5512ZM68.4394 59.733H71.5562C71.938 59.733 72.2477 60.0452 72.2477 60.4246V62.1775C72.2477 62.5593 71.9356 62.8691 71.5562 62.8691H68.4394C68.0575 62.8691 67.7478 62.5569 67.7478 62.1775V60.4246C67.7478 60.0428 68.06 59.733 68.4394 59.733ZM10.3217 57.3798L8.12934 58.1602V63.0467H3.56935V53.0671C3.56935 52.4476 3.16834 52.4284 2.7169 52.5869C2.39513 52.6997 1.5763 53.1079 1.26414 53.3192C1.11046 53.4225 1 53.5546 1 53.7587V63.6134C1.03842 64.5331 1.24733 65.6113 2.39753 65.6113H6.62135C7.57465 65.6113 7.96365 65.1166 8.66242 64.3746C8.96017 65.0398 9.47644 65.6113 10.2184 65.6113H17.2229C18.2386 65.6113 18.6156 65.0494 19.4129 64.221C19.4321 64.2018 19.4513 64.1825 19.4729 64.1633C19.7658 64.6724 20.0852 65.1406 20.4334 65.5633H44.8374C45.3056 64.9341 45.661 64.0841 45.942 63.0972H20.9833C21.0337 63.0251 21.0625 62.9531 21.0625 62.8787V57.5191C21.0625 57.4422 20.9905 57.3558 20.9232 57.3798L18.7309 58.1602V63.0467H10.7083C10.5018 63.0323 10.4586 63.0395 10.4586 62.6818V57.5215C10.4586 57.4446 10.3889 57.3582 10.3193 57.3822L10.3217 57.3798ZM10.8452 68.4496H16.7306V70.4834H10.8452V68.4496ZM77.6578 68.4496H83.5433V70.4834H77.6578V68.4496ZM91.2441 68.4496H94.1856V70.4834H91.2441V68.4496ZM8.00927 52.438H10.9508V54.4719H8.00927V52.438Z" fill="black"></path><path fill-rule="evenodd" clip-rule="evenodd" d="M72.0533 30H58.9424C56.3539 30.0096 53.8878 30.8092 51.5441 32.4037C47.743 34.9874 45.7019 39.593 41.4324 40.9305C40.8273 41.1202 40.4984 41.077 39.8692 41.077H27.7837V48.6506H40.664C40.8129 48.6506 40.9594 48.653 41.1083 48.6506C43.62 48.6001 46.014 47.8005 48.2952 46.2517C52.0916 43.6728 54.1327 39.072 58.3901 37.7297C59.0649 37.5544 59.353 37.576 60.023 37.576H72.0533V30Z" fill="black"></path></g><defs><clipPath id="clip0_9871_3499"><rect width="98.2595" height="40.4804" fill="white" transform="translate(1 30)"></rect></clipPath></defs></svg> 