<?xml version="1.0" encoding="UTF-8"?> <svg xmlns="http://www.w3.org/2000/svg" width="100" height="100" viewBox="0 0 100 100" fill="none"><path d="M46.3559 65.8475C44.0983 65.666 41.8216 66.0362 39.5712 65.623C37.4666 65.2359 36.5325 64.1537 36.4943 62.0443C36.4704 60.6921 36.9267 59.0772 36.339 58.0619C35.7776 57.0944 33.9739 57.5674 32.746 57.2258C29.9222 56.4422 28.1186 54.2778 28.0995 51.3298C28.0636 45.6011 28.0803 39.87 28.0947 34.1412C28.0995 32.199 28.9762 30.7155 30.5935 29.6595C33.5845 27.7054 37.4642 27.8009 40.2043 29.9056C41.9124 31.2195 42.837 32.9014 42.8107 35.1207C42.7581 39.4973 42.751 43.8739 42.7963 48.248C42.8059 49.175 42.5288 49.4115 41.6568 49.3422C40.7084 49.2657 39.7409 49.2466 38.7948 49.347C37.7891 49.4521 37.6505 49.0221 37.6577 48.1501C37.6983 43.893 37.6792 39.6358 37.6744 35.3763C37.6744 33.3911 36.2458 32.3089 34.3562 32.856C33.4651 33.114 32.8893 33.6706 32.8869 34.6405C32.8774 39.9321 32.8607 45.2236 32.9013 50.5152C32.9132 51.9223 33.489 52.4813 34.865 52.811C35.7298 53.0188 36.6089 52.9328 37.4809 52.9352C40.3859 52.94 43.2909 52.9471 46.1958 52.9041C46.8743 52.8946 47.0869 53.0905 47.0487 53.7665C46.9842 54.918 46.977 56.0743 47.0105 57.2258C47.0272 57.8158 46.8194 57.9687 46.2603 57.9472C45.0682 57.9042 43.8714 57.9592 42.6793 57.9066C42.008 57.8756 41.8001 58.0834 41.7978 58.769C41.793 60.5297 41.7571 60.5297 43.4581 60.5297C46.9197 60.5297 50.3837 60.4795 53.8429 60.556C55.0732 60.5822 54.8009 59.8393 54.8128 59.1728C54.8248 58.523 55.0254 57.7991 53.8787 57.8994C52.6938 58.0022 51.4922 57.909 50.3001 57.9496C49.7745 57.9663 49.6144 57.7943 49.6264 57.2735C49.6503 56.1197 49.6646 54.9634 49.5834 53.8143C49.5308 53.0499 49.7936 52.8922 50.5127 52.9017C53.7354 52.9471 56.9581 52.94 60.1808 52.9328C60.7327 52.9328 61.2917 52.8755 61.8364 52.7823C63.0667 52.5697 63.7212 51.8076 63.738 50.5606C63.7643 48.4917 63.7547 46.4229 63.7571 44.354C63.7571 41.2508 63.7666 38.1475 63.7547 35.0419C63.7499 33.5392 62.964 32.7485 61.5019 32.7198C59.9921 32.6911 58.9696 33.6157 58.9648 35.0897C58.9505 39.4662 58.9362 43.8428 58.9792 48.2194C58.9887 49.0818 58.8215 49.4234 57.8874 49.3446C56.7813 49.2514 55.6609 49.3016 54.5476 49.3326C54.0292 49.347 53.8572 49.1678 53.8596 48.6518C53.8716 43.838 53.776 39.0219 53.9002 34.2129C53.9743 31.3294 56.9485 28.6992 60.1856 28.3217C61.9725 28.1139 63.6711 28.434 65.2789 29.2271C67.4433 30.2926 68.5661 31.9936 68.5565 34.4518C68.535 39.8628 68.5517 45.2738 68.5493 50.6872C68.5493 54.5836 66.6071 56.834 62.7752 57.467C61.9056 57.6104 60.7064 57.2592 60.2525 57.9902C59.8583 58.6257 60.1211 59.6936 60.1617 60.5655C60.3194 63.9244 59.8965 65.8212 54.863 65.8117C53.3962 65.8093 51.9293 65.8117 50.441 65.8117C51.3894 67.9235 51.2772 69.0822 50.0588 70.0163C49.065 70.7783 47.7152 70.7759 46.7381 70.0115C45.5699 69.0941 45.46 67.8877 46.3631 65.8499L46.3559 65.8475Z" fill="black"></path><path d="M47.3257 38.2312C47.3257 35.1685 47.3305 32.1035 47.3257 29.0409C47.3186 25.1158 45.4384 22.3781 41.898 20.8324C40.7943 20.3498 40.7537 19.8959 41.2291 18.9164C42.5311 16.248 44.2559 14 46.8575 12.4591C47.8513 11.8714 48.7113 11.8356 49.7123 12.4233C52.5814 14.1099 54.4377 16.6015 55.6823 19.626C55.883 20.1157 55.8065 20.3355 55.3192 20.5194C54.839 20.701 54.3827 20.9518 53.9312 21.2027C51.0621 22.7866 49.385 25.1707 49.3516 28.4938C49.2871 35.0587 49.2918 41.6211 49.3038 48.186C49.3038 49.003 49.2058 49.4068 48.2287 49.3614C47.4476 49.3255 47.3233 49.0532 47.3305 48.3747C47.3568 44.992 47.3424 41.6116 47.3424 38.2288C47.3377 38.2288 47.3329 38.2288 47.3257 38.2288V38.2312Z" fill="black"></path><path d="M31.0164 27.9637C30.6844 26.2412 31.2529 24.8318 32.4187 23.6325C35.7513 20.2067 41.7094 20.9449 44.4161 25.1041C45.6225 26.9555 46.2126 29.0339 46.2437 31.1936C46.3249 36.9605 46.2508 42.7298 46.301 48.4992C46.3106 49.5193 45.7253 49.321 45.1543 49.3258C44.5738 49.3305 44.01 49.4978 44.0124 48.492C44.0267 44.0772 43.8786 39.66 43.9359 35.2476C43.9765 32.1539 43.3912 29.4114 40.4552 27.8227C37.3496 26.1433 34.1842 26.0621 31.014 27.9637H31.0164Z" fill="black"></path><path d="M65.544 27.9397C62.6247 26.1241 59.605 26.1767 56.5925 27.6005C54.108 28.7735 52.8036 30.8399 52.7487 33.5777C52.6508 38.4679 52.6125 43.3605 52.6173 48.2531C52.6173 49.1728 52.345 49.3663 51.4778 49.3615C50.6297 49.3568 50.3191 49.2039 50.3263 48.265C50.3717 42.8158 50.3263 37.3642 50.3478 31.9126C50.3573 29.741 50.7993 27.6483 51.8385 25.718C54.0937 21.5397 59.3637 20.1899 63.2028 22.7939C65.1402 24.1078 66.0146 26.0333 65.5416 27.9421L65.544 27.9397Z" fill="black"></path><path d="M81.3132 78.9863C81.3132 79.0531 81.306 79.1315 81.2915 79.2215C81.277 79.3115 81.2566 79.4044 81.2305 79.5002C81.2044 79.596 81.1724 79.6919 81.1347 79.7877C81.0969 79.8835 81.0534 79.9706 81.004 80.049C80.9576 80.1274 80.9039 80.1942 80.8429 80.2493C80.7848 80.3016 80.721 80.3321 80.6513 80.3408C80.6222 80.1927 80.6005 80.062 80.5859 79.9488C80.5714 79.8356 80.5642 79.7325 80.5642 79.6396C80.5642 79.5467 80.5714 79.4625 80.5859 79.387C80.6005 79.3115 80.6222 79.2375 80.6513 79.1649C80.6803 79.1765 80.7181 79.1881 80.7645 79.1997C80.8139 79.2113 80.8647 79.2128 80.9169 79.2041C80.9721 79.1954 81.0244 79.1721 81.0737 79.1344C81.1231 79.0938 81.1637 79.0284 81.1957 78.9384C81.2131 78.8804 81.2378 78.8528 81.2697 78.8557C81.3045 78.8557 81.3191 78.8992 81.3132 78.9863ZM81.6355 83.1237C81.6588 83.2079 81.6573 83.295 81.6312 83.385C81.6079 83.475 81.5629 83.5694 81.4962 83.6681C81.4555 83.7349 81.412 83.7944 81.3655 83.8467C81.322 83.9018 81.2755 83.9541 81.2261 84.0034C81.2116 84.0209 81.1884 84.0426 81.1565 84.0688C81.1245 84.0949 81.0911 84.1196 81.0563 84.1428C81.0215 84.166 80.9881 84.182 80.9561 84.1907C80.9242 84.2023 80.901 84.1994 80.8864 84.182C80.7819 84.0978 80.6789 84.0122 80.5772 83.9251C80.4756 83.838 80.3638 83.7567 80.2419 83.6812C80.2216 83.6667 80.2129 83.6521 80.2158 83.6376C80.2158 83.626 80.223 83.6071 80.2375 83.581L80.9344 82.5183C80.9547 82.4893 80.975 82.4748 80.9953 82.4748C81.0156 82.4777 81.0374 82.4864 81.0607 82.5009C81.1216 82.5358 81.1826 82.575 81.2436 82.6185C81.3045 82.6621 81.3612 82.7085 81.4134 82.7579C81.4657 82.8101 81.5107 82.8653 81.5484 82.9234C81.5891 82.9843 81.6181 83.0511 81.6355 83.1237Z" fill="black"></path><path d="M80.3072 78.5379C80.3304 78.506 80.3493 78.4929 80.3638 78.4987C80.3812 78.5045 80.3899 78.5176 80.3899 78.5379C80.3754 78.6889 80.3914 78.8196 80.4379 78.9299C80.4872 79.0373 80.5583 79.1157 80.6513 79.1651C80.6948 79.2638 80.7253 79.3683 80.7427 79.4786C80.7601 79.5861 80.7674 79.6935 80.7645 79.8009C80.7645 79.9054 80.7543 80.0056 80.734 80.1014C80.7137 80.1943 80.6861 80.2742 80.6513 80.3409C80.5206 80.3671 80.3769 80.3468 80.2201 80.28C80.1852 80.2858 80.0415 80.4005 79.7889 80.624C79.5392 80.8476 79.2983 80.9347 79.066 80.8853C79.0369 80.8215 79.0137 80.7532 78.9963 80.6806C78.9789 80.6081 78.9687 80.534 78.9658 80.4585C78.9629 80.386 78.9687 80.3134 78.9832 80.2408C78.9978 80.1682 79.0253 80.0985 79.066 80.0317C79.1473 80.0317 79.2591 80.0709 79.4013 80.1493C79.5465 80.2248 79.6583 80.2553 79.7367 80.2408C79.8005 80.2292 79.8543 80.2045 79.8978 80.1667C79.9414 80.1261 79.9748 80.0854 79.998 80.0448C79.8702 79.5948 79.9414 79.1404 80.2114 78.6816L80.3072 78.5379ZM80.6643 75.1801C80.6875 75.2643 80.6861 75.3514 80.66 75.4414C80.6367 75.5314 80.5917 75.6258 80.525 75.7245C80.4843 75.7913 80.4408 75.8523 80.3943 75.9074C80.3507 75.9597 80.3043 76.0105 80.2549 76.0598C80.2404 76.0773 80.2172 76.099 80.1852 76.1252C80.1533 76.1513 80.1199 76.176 80.0851 76.1992C80.0502 76.2224 80.0169 76.2399 79.9849 76.2515C79.953 76.2602 79.9297 76.2558 79.9152 76.2384C79.8107 76.1542 79.7076 76.0686 79.606 75.9815C79.5044 75.8944 79.3926 75.8131 79.2707 75.7376C79.2504 75.7231 79.2402 75.71 79.2402 75.6984C79.2431 75.6839 79.2518 75.6635 79.2663 75.6374L79.9631 74.5747C79.9835 74.5457 80.0038 74.5326 80.0241 74.5356C80.0444 74.5356 80.0662 74.5428 80.0894 74.5573C80.1504 74.5922 80.2114 74.6314 80.2724 74.6749C80.3333 74.7185 80.3899 74.7664 80.4422 74.8186C80.4945 74.868 80.5395 74.9232 80.5772 74.9841C80.6179 75.0422 80.6469 75.1075 80.6643 75.1801Z" fill="black"></path><path d="M79.4047 80.8484C79.2553 80.9368 78.8367 80.9819 78.7699 81.0052C78.5928 81.0748 78.3925 81.281 78.1689 81.6236C77.8902 82.0417 77.5999 82.2507 77.2979 82.2507C76.9756 82.2478 76.7317 82.1085 76.5662 81.8326C76.4007 81.5539 76.318 81.2215 76.318 80.8353C76.3935 80.5827 76.4762 80.3635 76.5662 80.1777C76.6533 79.9919 76.7579 79.8641 76.8798 79.7944C76.8682 80.4971 77.1542 80.8484 77.7378 80.8484C77.9758 80.8513 78.182 80.7772 78.3562 80.6263C78.5333 80.4724 78.664 80.3548 78.7482 80.2735C78.8672 80.1893 78.9732 80.038 79.0661 80.0409C79.13 80.1077 79.1633 80.3519 79.1662 80.5522C79.1692 80.7497 79.4744 80.7439 79.4047 80.8484ZM79.249 85.7697C79.2722 85.851 79.2708 85.9352 79.2446 86.0223C79.2214 86.1094 79.1793 86.1994 79.1183 86.2923C79.069 86.3678 79.0182 86.4375 78.9659 86.5013C78.9166 86.5681 78.8614 86.6305 78.8004 86.6886C78.7627 86.7293 78.7293 86.7583 78.7003 86.7757C78.6712 86.7931 78.6465 86.8033 78.6262 86.8062C78.6059 86.812 78.5885 86.812 78.574 86.8062C78.5594 86.8004 78.5464 86.7931 78.5348 86.7844C78.4331 86.7031 78.333 86.6204 78.2343 86.5362C78.1384 86.4549 78.0325 86.3779 77.9163 86.3054C77.9018 86.285 77.8946 86.2691 77.8946 86.2575C77.8946 86.2487 77.9018 86.2328 77.9163 86.2095L78.5783 85.1904C78.5986 85.1643 78.6175 85.1513 78.6349 85.1513C78.6552 85.1542 78.677 85.1629 78.7003 85.1774C78.7583 85.2122 78.8164 85.2485 78.8745 85.2863C78.9354 85.3269 78.9906 85.3719 79.04 85.4213C79.0893 85.4706 79.1329 85.5229 79.1706 85.5781C79.2084 85.6361 79.2345 85.7 79.249 85.7697ZM77.9163 85.8524C77.9163 85.864 77.9178 85.8728 77.9207 85.8786C77.9207 85.8873 77.9221 85.8945 77.925 85.9003C77.925 85.9061 77.925 85.9119 77.925 85.9178C77.9279 85.9265 77.9294 85.9337 77.9294 85.9395V86.0005C77.9294 86.0063 77.9279 86.0121 77.925 86.0179C77.925 86.0266 77.925 86.0339 77.925 86.0397L77.912 86.092C77.912 86.0978 77.9105 86.1021 77.9076 86.105C77.9076 86.1079 77.9076 86.1123 77.9076 86.1181L77.8902 86.1704C77.8844 86.182 77.8786 86.1936 77.8728 86.2052C77.8699 86.2168 77.8655 86.2284 77.8597 86.24C77.8597 86.2429 77.8583 86.2444 77.8554 86.2444C77.8554 86.2473 77.8554 86.2502 77.8554 86.2531L77.8336 86.2923C77.8278 86.3068 77.8205 86.3184 77.8118 86.3271C77.8031 86.3388 77.7958 86.3504 77.79 86.362C77.7842 86.3678 77.7813 86.3721 77.7813 86.375L77.7291 86.4534L77.7073 86.4839C77.7015 86.4897 77.6957 86.497 77.6899 86.5057C77.687 86.5144 77.6826 86.5217 77.6768 86.5275C77.6652 86.5449 77.655 86.558 77.6463 86.5667L77.5766 86.6538C77.5708 86.6596 77.5679 86.6639 77.5679 86.6668C77.5621 86.6726 77.5549 86.6799 77.5461 86.6886C77.5403 86.6973 77.5331 86.7046 77.5244 86.7104L77.4982 86.7365C77.4895 86.751 77.4779 86.7627 77.4634 86.7714L77.4198 86.8149L77.3981 86.8323C77.3661 86.8585 77.3385 86.8759 77.3153 86.8846L77.2892 86.8933H77.2587C77.2355 86.8933 77.2152 86.8846 77.1977 86.8672C77.1339 86.8178 77.0714 86.767 77.0105 86.7147C76.9524 86.6625 76.89 86.6117 76.8232 86.5623C76.8029 86.5449 76.7825 86.5289 76.7622 86.5144C76.7012 86.468 76.6417 86.4259 76.5837 86.3881C76.5808 86.3881 76.5793 86.3867 76.5793 86.3838C76.5648 86.3692 76.5575 86.3562 76.5575 86.3446C76.5575 86.3329 76.5648 86.3155 76.5793 86.2923L77.2456 85.2775C77.2456 85.2746 77.2471 85.2717 77.25 85.2688C77.2703 85.2427 77.2921 85.2325 77.3153 85.2384C77.3153 85.2384 77.3182 85.2398 77.324 85.2427C77.3269 85.2427 77.3298 85.2442 77.3327 85.2471L77.3632 85.2601C77.369 85.2659 77.3748 85.2688 77.3806 85.2688C77.3865 85.2717 77.3923 85.2761 77.3981 85.2819C77.4039 85.2848 77.4097 85.2877 77.4155 85.2906C77.4213 85.2935 77.4271 85.2979 77.4329 85.3037C77.4445 85.3095 77.4561 85.3167 77.4677 85.3255C77.4852 85.3371 77.5026 85.3472 77.52 85.3559C77.5374 85.3676 77.5548 85.3806 77.5723 85.3951L77.5897 85.4082C77.6158 85.4285 77.6405 85.4489 77.6637 85.4692C77.687 85.4895 77.7102 85.5113 77.7334 85.5345L77.7857 85.5955L77.8249 85.6477C77.8452 85.6768 77.8612 85.7058 77.8728 85.7348C77.8786 85.7435 77.8844 85.7566 77.8902 85.774L77.9033 85.8132C77.9062 85.8161 77.9076 85.819 77.9076 85.8219C77.9076 85.8248 77.9091 85.8292 77.912 85.835C77.912 85.8437 77.9134 85.8495 77.9163 85.8524Z" fill="black"></path><path d="M76.8754 79.791C76.8522 80.0813 76.7869 80.3281 76.6794 80.5314C76.572 80.7346 76.4501 80.8362 76.3136 80.8362C76.3136 80.7259 76.3484 80.3833 76.4181 79.8084C76.4907 79.2335 76.5444 78.8227 76.5793 78.5759C76.617 78.3262 76.6591 78.062 76.7056 77.7833C76.752 77.5046 76.797 77.2795 76.8406 77.1082C76.8899 76.966 76.9422 76.8223 76.9974 76.6771C77.0554 76.5319 77.1149 76.3882 77.1759 76.2459C77.2166 76.182 77.2427 76.1922 77.2543 76.2764C77.1817 76.7584 77.1149 77.2592 77.054 77.7789C76.993 78.2957 76.9509 78.6659 76.9277 78.8895C76.9073 79.1131 76.8972 79.2437 76.8972 79.2815C76.8827 79.5195 76.8754 79.6894 76.8754 79.791Z" fill="black"></path><path d="M73.8487 82.116C73.9241 82.058 74.0142 81.9883 74.1187 81.907C74.3974 81.7008 74.6297 81.4976 74.8155 81.2973C75.0042 81.0969 75.1044 80.9445 75.116 80.84C75.1392 80.7151 75.0695 80.5554 74.907 80.3609C74.7444 80.1693 74.5513 79.9922 74.3277 79.8296C74.3103 79.8151 74.3001 79.802 74.2972 79.7904C74.2972 79.7788 74.3001 79.7672 74.3059 79.7555L74.5106 79.2852L74.7981 78.6406C74.8213 78.5884 74.8416 78.5463 74.859 78.5143C74.8794 78.4795 74.9026 78.4708 74.9287 78.4882C75.0507 78.5898 75.1712 78.7002 75.2902 78.8192C75.4121 78.9353 75.5167 79.0703 75.6038 79.2242C75.6909 79.3752 75.7344 79.5726 75.7344 79.8165C75.7344 80.1011 75.688 80.3754 75.5951 80.6396C75.5051 80.9009 75.3817 81.1724 75.2249 81.4541C75.1668 81.5557 75.1015 81.6486 75.0289 81.7328C74.9592 81.8141 74.859 81.8852 74.7284 81.9462C74.6006 82.0072 74.3234 82.1044 73.8966 82.238C73.8443 82.2525 73.808 82.2525 73.7877 82.238C73.7819 82.2322 73.7819 82.2191 73.7877 82.1988C73.7935 82.1756 73.8138 82.148 73.8487 82.116Z" fill="black"></path><path d="M71.6056 75.575C71.6434 75.5256 71.6782 75.4864 71.7102 75.4574C71.7421 75.4254 71.7755 75.3949 71.8103 75.3659C71.8423 75.334 71.8916 75.2672 71.9584 75.1656C72.0571 75.0146 72.1239 74.9115 72.1587 74.8564C72.1675 74.8476 72.1936 74.8694 72.2371 74.9217C72.2807 74.9739 72.3402 75.0451 72.4157 75.1351C72.4912 75.2251 72.5493 75.3107 72.5899 75.392C72.6422 75.5053 72.6625 75.6098 72.6509 75.7056C72.6451 75.8247 72.6073 75.9408 72.5376 76.054C72.4709 76.1673 72.3983 76.2486 72.3199 76.2979C72.2299 76.3531 72.1341 76.3821 72.0324 76.385C71.9308 76.3879 71.835 76.3821 71.745 76.3676C71.6405 76.3502 71.5606 76.3647 71.5055 76.4111C71.4532 76.4518 71.3893 76.5258 71.3139 76.6333C71.1716 76.8859 71.0177 77.0862 70.8522 77.2343C70.829 77.1965 70.8087 77.1573 70.7912 77.1167C70.7738 77.076 70.7622 77.0339 70.7564 76.9904C70.7506 76.9468 70.7549 76.9004 70.7695 76.851C70.7811 76.7987 70.8087 76.7436 70.8522 76.6855C70.9771 76.6187 71.1222 76.43 71.2877 76.1193C71.4561 75.8087 71.5621 75.6272 71.6056 75.575Z" fill="black"></path><path d="M68.2435 78.3584C68.1188 78.3131 67.9756 78.3006 67.8683 78.2225C67.8517 78.2104 67.8359 78.1977 67.8211 78.1842C67.7572 78.129 67.7035 78.055 67.6599 77.9621L67.9865 77.6137C68.0649 77.5237 68.184 77.5004 68.3437 77.544C68.5034 77.5905 68.6485 77.6296 68.7792 77.6616C68.8953 77.6964 68.9926 77.6674 69.071 77.5745C69.1523 77.4816 69.2132 77.4133 69.2539 77.3698C69.2974 77.3262 69.3279 77.3001 69.3454 77.2914C69.3744 77.2798 69.3991 77.2827 69.4194 77.3001C69.4426 77.3175 69.4658 77.3306 69.4891 77.3393C69.5733 77.3683 69.6662 77.3277 69.7678 77.2174C69.8723 77.1041 69.942 77.0461 69.9768 77.0432C70.0262 77.0751 70.0814 77.0911 70.1423 77.0911C70.2062 77.0911 70.2744 77.049 70.347 76.9648C70.4167 76.8835 70.4777 76.8109 70.5299 76.747C70.5474 76.7296 70.5648 76.7238 70.5822 76.7296C70.6112 76.7441 70.6403 76.7514 70.6693 76.7514C70.71 76.7514 70.7709 76.7296 70.8522 76.686C70.858 76.7122 70.8653 76.7368 70.874 76.7601C70.8827 76.7804 70.8914 76.8036 70.9001 76.8298C70.9117 76.882 70.9176 76.9198 70.9176 76.943C70.9176 76.9807 70.9132 77.0301 70.9045 77.0911C70.8871 77.1578 70.8696 77.2057 70.8522 77.2348C70.8 77.2841 70.7259 77.3306 70.6301 77.3741C70.5343 77.4206 70.4428 77.4351 70.3557 77.4177C70.1873 77.56 70.048 77.6587 69.9376 77.7138C69.8273 77.769 69.733 77.7922 69.6546 77.7835C69.4165 78.0071 69.2147 78.1131 69.0492 78.1015C69.0086 78.1073 68.9476 78.145 68.8663 78.2147C68.785 78.2844 68.7153 78.3352 68.6572 78.3671C68.5992 78.402 68.5455 78.4194 68.4961 78.4194C68.4264 78.4136 68.3422 78.3932 68.2435 78.3584Z" fill="black"></path><path d="M67.0371 78.9963C66.7235 79.1793 66.4637 79.3099 66.2575 79.3883C66.0543 79.4667 65.9265 79.5146 65.8743 79.532C65.764 79.5698 65.6289 79.6046 65.4693 79.6366C65.4605 79.6017 65.4475 79.5582 65.4301 79.5059C65.6739 79.262 65.9585 79.0617 66.2837 78.9049C66.3417 78.873 66.3998 78.841 66.4579 78.8091C66.5159 78.78 66.6074 78.7292 66.7322 78.6566C66.8571 78.587 66.9674 78.5129 67.0632 78.4345C67.2926 78.2545 67.7364 77.9248 67.9077 77.7129C68.0209 77.6809 67.8704 77.8408 67.943 77.925C67.9865 77.9714 68.0126 78.0193 68.0214 78.0687C68.0301 78.0948 68.4962 78.255 68.5049 78.3101C68.4323 78.3101 67.9183 78.2066 67.8776 78.2386C67.8312 78.2734 67.7601 78.3344 67.6642 78.4215C67.551 78.5463 67.445 78.6566 67.3463 78.7525C67.2476 78.8483 67.1445 78.9296 67.0371 78.9963ZM68.557 73.1126C68.5803 73.1939 68.5788 73.2781 68.5527 73.3652C68.5295 73.4523 68.4874 73.5423 68.4264 73.6352C68.377 73.7107 68.3262 73.7818 68.274 73.8486C68.2246 73.9124 68.1694 73.9734 68.1085 74.0315C68.0707 74.0721 68.0373 74.1012 68.0083 74.1186C67.9793 74.136 67.9546 74.1476 67.9343 74.1534C67.9139 74.1563 67.8965 74.1549 67.882 74.1491C67.8675 74.1433 67.8544 74.136 67.8428 74.1273C67.7412 74.046 67.641 73.9647 67.5423 73.8834C67.4465 73.7992 67.3405 73.7208 67.2244 73.6482C67.2099 73.6279 67.2026 73.6134 67.2026 73.6047C67.2026 73.5931 67.2099 73.5757 67.2244 73.5524L67.8864 72.5333C67.9067 72.5072 67.9255 72.4956 67.943 72.4985C67.9633 72.4985 67.9851 72.5057 68.0083 72.5203C68.0664 72.5551 68.1244 72.5928 68.1825 72.6335C68.2435 72.6712 68.2986 72.7148 68.348 72.7641C68.3974 72.8135 68.4409 72.8672 68.4787 72.9253C68.5164 72.9805 68.5425 73.0429 68.557 73.1126ZM67.2244 73.1953C67.2244 73.2069 67.2258 73.2156 67.2287 73.2214C67.2287 73.2301 67.2302 73.2374 67.2331 73.2432C67.2331 73.249 67.2331 73.2563 67.2331 73.265C67.236 73.2708 67.2374 73.2766 67.2374 73.2824V73.3434C67.2374 73.3492 67.236 73.3564 67.2331 73.3652C67.2331 73.371 67.2331 73.3768 67.2331 73.3826L67.22 73.4348C67.22 73.4406 67.2186 73.445 67.2157 73.4479C67.2157 73.4508 67.2157 73.4552 67.2157 73.461L67.1982 73.5132C67.1924 73.5248 67.1866 73.5365 67.1808 73.5481C67.1779 73.5597 67.1736 73.5713 67.1678 73.5829C67.1678 73.5858 67.1663 73.5887 67.1634 73.5916C67.1634 73.5916 67.1634 73.5931 67.1634 73.596L67.1416 73.6352C67.1358 73.6497 67.1286 73.6628 67.1198 73.6744C67.1111 73.6831 67.1039 73.6932 67.0981 73.7049C67.0923 73.7107 67.0894 73.715 67.0894 73.7179L67.0371 73.7963L67.0153 73.8268C67.0095 73.8326 67.0037 73.8399 66.9979 73.8486C66.995 73.8573 66.9906 73.8645 66.9848 73.8704C66.9732 73.8878 66.9631 73.9008 66.9544 73.9095L66.8847 73.9966C66.8789 74.0025 66.876 74.0068 66.876 74.0097C66.8702 74.0155 66.8629 74.0228 66.8542 74.0315C66.8484 74.0402 66.8411 74.0475 66.8324 74.0533L66.8063 74.0794C66.7976 74.0939 66.786 74.1055 66.7714 74.1142L66.7279 74.1578L66.7061 74.1752C66.6742 74.2013 66.6466 74.2188 66.6234 74.2275L66.5972 74.2362H66.5667C66.5435 74.2362 66.5232 74.2275 66.5058 74.2101C66.4419 74.1607 66.3795 74.1099 66.3185 74.0576C66.2604 74.0054 66.198 73.9545 66.1312 73.9052C66.1109 73.8878 66.0906 73.8718 66.0703 73.8573C66.0093 73.8108 65.9498 73.7687 65.8917 73.731C65.8888 73.731 65.8873 73.7295 65.8873 73.7266C65.8728 73.7121 65.8656 73.699 65.8656 73.6874C65.8656 73.6758 65.8728 73.6584 65.8873 73.6352L66.5537 72.6204C66.5537 72.6175 66.5551 72.6146 66.558 72.6117C66.5784 72.5856 66.6001 72.5754 66.6234 72.5812C66.6234 72.5812 66.6263 72.5827 66.6321 72.5856C66.635 72.5856 66.6379 72.587 66.6408 72.5899L66.6713 72.603C66.6771 72.6088 66.6829 72.6132 66.6887 72.6161C66.6945 72.6161 66.7003 72.619 66.7061 72.6248C66.7119 72.6277 66.7177 72.6306 66.7235 72.6335C66.7293 72.6364 66.7351 72.6408 66.741 72.6466C66.7526 72.6524 66.7642 72.6596 66.7758 72.6683C66.7932 72.6799 66.8106 72.6916 66.8281 72.7032C66.8455 72.7119 66.8629 72.7235 66.8803 72.738L66.8977 72.7511C66.9442 72.7859 66.9921 72.828 67.0415 72.8774L67.0937 72.9384L67.1329 72.9906C67.1532 73.0196 67.1692 73.0487 67.1808 73.0777C67.1866 73.0864 67.1924 73.0995 67.1982 73.1169L67.2113 73.1561C67.2142 73.159 67.2157 73.1619 67.2157 73.1648C67.2157 73.1677 67.2171 73.1721 67.22 73.1779C67.22 73.1866 67.2215 73.1924 67.2244 73.1953Z" fill="black"></path><path d="M67.3071 77.4539C67.3071 77.6687 67.2592 77.8865 67.1634 78.1071C67.0617 78.3394 66.8919 78.608 66.6538 78.9128C66.4738 79.1393 66.2662 79.3222 66.031 79.4616C65.7958 79.5922 65.5302 79.6576 65.234 79.6576C65.1295 79.6576 65.0148 79.6445 64.89 79.6184C64.768 79.5922 64.6504 79.5385 64.5372 79.4572C64.4269 79.373 64.3616 79.315 64.3412 79.283C64.1961 79.4747 64.1061 79.5951 64.0712 79.6445C63.836 79.9581 63.8464 79.981 63.6075 80.3394C63.2492 80.3394 63.553 80.2034 63.5355 80.1628C63.5152 80.1221 63.5021 80.0757 63.4963 80.0234C63.4905 79.9711 63.4736 80.0391 63.4881 79.981C63.4997 79.9259 63.2492 80.3394 63.6075 79.7422C63.8617 79.4082 63.7083 79.6068 63.7664 79.5313C63.8389 79.4442 63.9101 79.344 63.9798 79.2308C64.1598 78.9433 64.302 78.7285 64.4066 78.5862C64.4879 78.4643 64.5546 78.412 64.6069 78.4294C64.6911 78.4846 64.7811 78.5339 64.8769 78.5775C64.9756 78.621 65.0729 78.6385 65.1687 78.6298C65.2384 78.5165 65.3632 78.3423 65.5432 78.1071C65.5607 78.0868 65.6478 77.9736 65.8046 77.7674C65.9642 77.5584 66.1138 77.3958 66.2531 77.2797C66.4796 77.0909 66.6799 76.9966 66.8541 76.9966C66.9848 76.9966 67.0937 77.0488 67.1808 77.1534C67.265 77.2492 67.3071 77.3493 67.3071 77.4539ZM66.8933 77.9634C66.8672 77.917 66.7961 77.872 66.6799 77.8284C66.558 77.7936 66.4462 77.7761 66.3446 77.7761C66.1936 77.7761 66.0151 77.8952 65.8089 78.1333C65.8089 78.1304 65.6855 78.3002 65.4387 78.6428C65.4823 78.6602 65.5824 78.6631 65.7392 78.6515C65.896 78.637 66.0325 78.6036 66.1486 78.5514C66.3286 78.4555 66.4927 78.3539 66.6407 78.2465C66.8091 78.1158 66.8933 78.0215 66.8933 77.9634ZM65.7697 74.1962C65.7929 74.2804 65.7915 74.3675 65.7654 74.4575C65.7421 74.5475 65.6971 74.6419 65.6304 74.7406C65.5897 74.8074 65.5462 74.8684 65.4997 74.9235C65.4561 74.9758 65.4097 75.0266 65.3603 75.076C65.3458 75.0934 65.3226 75.1152 65.2907 75.1413C65.2587 75.1674 65.2253 75.1921 65.1905 75.2153C65.1556 75.2386 65.1223 75.256 65.0903 75.2676C65.0584 75.2763 65.0351 75.2719 65.0206 75.2545C64.9161 75.1703 64.813 75.0847 64.7114 74.9976C64.6098 74.9105 64.498 74.8292 64.3761 74.7537C64.3557 74.7392 64.3456 74.7261 64.3456 74.7145C64.3485 74.7 64.3572 74.6796 64.3717 74.6535L65.0685 73.5909C65.0889 73.5618 65.1092 73.5488 65.1295 73.5517C65.1498 73.5517 65.1716 73.5589 65.1948 73.5734C65.2558 73.6083 65.3168 73.6475 65.3778 73.691C65.4387 73.7346 65.4953 73.7825 65.5476 73.8347C65.5999 73.8841 65.6449 73.9393 65.6826 74.0002C65.7233 74.0583 65.7523 74.1236 65.7697 74.1962Z" fill="black"></path><path d="M63.6075 80.3408C63.503 80.4105 63.3745 80.47 63.2439 80.5193C63.1132 80.5716 62.9869 80.6064 62.865 80.6239C62.833 80.6297 62.7924 80.6253 62.743 80.6108C62.6966 80.5963 62.6487 80.5774 62.5993 80.5542C62.5529 80.5339 62.5093 80.5121 62.4687 80.4888C62.428 80.4656 62.3975 80.4468 62.3772 80.4322C62.322 80.4409 62.2132 80.5034 62.0506 80.6195C61.8909 80.7385 61.7209 80.9268 61.5409 81.0749C61.5148 80.9907 61.4989 80.8474 61.4931 80.7545C61.4873 80.6645 61.5033 80.573 61.541 80.4801C61.631 80.4134 61.7196 80.3495 61.8067 80.2885C61.8967 80.2275 61.9881 80.1593 62.081 80.0838C62.1333 80.0258 62.1304 79.9445 62.0723 79.8399C62.0114 79.7267 61.9272 79.6701 61.8197 79.6701C61.7501 79.6701 61.6789 79.6861 61.6063 79.718C61.5512 79.718 61.5352 79.6846 61.5584 79.6178C61.5729 79.5685 61.6092 79.506 61.6673 79.4306C61.7573 79.3173 61.8691 79.2201 62.0027 79.1388C62.0898 79.0952 62.1827 79.0589 62.2814 79.0299C62.383 79.0008 62.4745 78.9863 62.5558 78.9863C62.7445 78.9863 62.9201 79.0197 63.0827 79.0865C63.2395 79.1475 63.3179 79.2549 63.3179 79.4088C63.3179 79.4581 63.299 79.5235 63.2613 79.6048C63.241 79.6483 63.2206 79.689 63.2003 79.7267C63.1829 79.7615 63.1452 79.8211 63.0871 79.9053C63.119 79.9314 63.1931 79.9343 63.3092 79.914C63.4282 79.8936 63.524 79.853 63.5966 79.792C63.6141 79.8094 63.6228 79.8225 63.6228 79.8312C63.6721 79.9096 63.6968 79.9648 63.6968 79.9967C63.6968 80.0577 63.6852 80.1201 63.662 80.184C63.6533 80.2188 63.6424 80.2711 63.6075 80.3408Z" fill="black"></path><path d="M61.2186 80.6527C61.2592 80.644 61.3072 80.628 61.3623 80.6048C61.4175 80.5816 61.5159 80.4884 61.5769 80.4594C61.6146 80.4855 61.596 80.5932 61.6019 80.6484C61.6106 80.7006 61.6106 80.7558 61.6019 80.8139C61.5931 80.869 61.5801 80.9213 61.5627 80.9706C61.5481 81.02 61.5656 81.0363 61.5627 81.0566C61.4785 81.1147 61.358 81.1884 61.2534 81.2407C61.1518 81.29 61.0357 81.322 60.905 81.3365C60.7511 81.5107 60.6045 81.6573 60.4652 81.7763C60.3258 81.8925 60.1922 81.9868 60.0645 82.0594C59.9367 82.132 59.8133 82.1828 59.6943 82.2119C59.5782 82.2409 59.4635 82.2525 59.3502 82.2467C59.1731 82.238 59.0265 82.1901 58.9104 82.103C58.7913 82.013 58.697 81.9012 58.6273 81.7676C58.5576 81.6312 58.5083 81.4816 58.4792 81.3191C58.4502 81.1536 58.4357 80.9895 58.4357 80.8269C58.5228 80.5685 58.6128 80.3551 58.7057 80.1867C58.7986 80.0183 58.8959 79.8862 58.9975 79.7904C58.9975 79.9472 59.0062 80.0909 59.0236 80.2216C59.0439 80.3493 59.0817 80.4596 59.1368 80.5525C59.192 80.6426 59.2675 80.7137 59.3633 80.7659C59.4591 80.8153 59.5811 80.8429 59.7291 80.8487C59.8104 80.6338 59.9004 80.4277 59.9992 80.2303C60.1008 80.0299 60.2372 79.8252 60.4085 79.6162C60.4753 79.5378 60.5566 79.4725 60.6524 79.4202C60.7482 79.3679 60.8426 79.3418 60.9355 79.3418C61.0284 79.3418 61.1126 79.3723 61.1881 79.4333C61.2636 79.4913 61.3144 79.5915 61.3405 79.7338C61.3638 79.876 61.3609 80.0285 61.3318 80.1911C61.3057 80.3537 61.2651 80.5046 61.2099 80.644L61.2186 80.6527ZM61.101 80.3566C61.0691 80.2114 61.0052 80.1141 60.9094 80.0648C60.8165 80.0154 60.7178 80.0023 60.6132 80.0256C60.5116 80.0488 60.4158 80.104 60.3258 80.1911C60.2358 80.2753 60.1792 80.3798 60.1559 80.5046C60.2489 80.5888 60.3519 80.6426 60.4652 80.6658C60.5784 80.689 60.6829 80.6832 60.7787 80.6484C60.802 80.6455 60.8295 80.6324 60.8615 80.6092C60.8963 80.5859 60.9283 80.5598 60.9573 80.5308C60.9892 80.5017 61.0183 80.4713 61.0444 80.4393C61.0705 80.4074 61.0894 80.3798 61.101 80.3566ZM61.0488 76.8681C61.072 76.9523 61.0705 77.0394 61.0444 77.1294C61.0212 77.2194 60.9762 77.3138 60.9094 77.4125C60.8687 77.4793 60.8252 77.5402 60.7787 77.5954C60.7352 77.6477 60.6887 77.6985 60.6394 77.7478C60.6248 77.7653 60.6016 77.787 60.5697 77.8132C60.5377 77.8393 60.5044 77.864 60.4695 77.8872C60.4347 77.9104 60.4013 77.9279 60.3693 77.9395C60.3374 77.9482 60.3142 77.9438 60.2997 77.9264C60.1951 77.8422 60.0921 77.7565 59.9905 77.6694C59.8888 77.5823 59.777 77.501 59.6551 77.4256C59.6348 77.411 59.6246 77.398 59.6246 77.3864C59.6275 77.3718 59.6362 77.3515 59.6508 77.3254L60.3476 76.2627C60.3679 76.2337 60.3882 76.2206 60.4085 76.2235C60.4289 76.2235 60.4506 76.2308 60.4739 76.2453C60.5348 76.2802 60.5958 76.3194 60.6568 76.3629C60.7178 76.4065 60.7744 76.4544 60.8266 76.5066C60.8789 76.556 60.9239 76.6111 60.9616 76.6721C61.0023 76.7302 61.0313 76.7955 61.0488 76.8681Z" fill="black"></path><path d="M58.9932 79.791C58.97 80.0813 58.9047 80.3281 58.7972 80.5314C58.6898 80.7346 58.5679 80.8362 58.4314 80.8362C58.4314 80.7259 58.4662 80.3833 58.5359 79.8084C58.6085 79.2335 58.6622 78.8227 58.6971 78.5759C58.7348 78.3262 58.7769 78.062 58.8234 77.7833C58.8698 77.5046 58.9148 77.2795 58.9584 77.1082C59.0077 76.966 59.06 76.8223 59.1152 76.6771C59.1732 76.5319 59.2327 76.3882 59.2937 76.2459C59.3344 76.182 59.3605 76.1922 59.3721 76.2764C59.2995 76.7584 59.2327 77.2592 59.1718 77.7789C59.1108 78.2957 59.0687 78.6659 59.0455 78.8895C59.0251 79.1131 59.015 79.2437 59.015 79.2815C59.0005 79.5195 58.9932 79.6894 58.9932 79.791Z" fill="black"></path><path d="M57.7041 78.99C57.6954 79.0626 57.6881 79.1352 57.6823 79.2078C57.5981 80.1398 57.4123 80.9731 57.1248 81.7076C56.9332 82.1954 56.6879 82.6527 56.3888 83.0795C55.6833 84.0347 54.8355 84.5109 53.8454 84.508C53.3722 84.4877 52.9729 84.3251 52.6478 84.0202C52.3168 83.7153 52.1426 83.2842 52.1251 82.7267C52.1222 81.8383 52.3952 80.8642 52.9439 79.8044L53.1094 79.4822C53.1297 79.4763 53.137 79.5112 53.1312 79.5867C53.1254 79.6622 53.0934 79.7681 53.0354 79.9046C52.9686 80.0672 52.9018 80.2327 52.835 80.4011C52.7712 80.5666 52.7145 80.7321 52.6652 80.8976C52.6158 81.0602 52.5766 81.2213 52.5476 81.381C52.5215 81.5378 52.5128 81.6888 52.5215 81.8339C52.5795 82.2694 52.7653 82.5888 53.0789 82.7921C53.3954 82.9982 53.7641 83.1085 54.1851 83.1231C54.7513 83.1289 55.2957 82.9808 55.8183 82.6788C56.2074 82.4204 56.5195 82.0967 56.7547 81.7076C57.1408 81.1821 57.3049 80.4621 57.2468 79.5475C57.2439 79.3559 57.2642 79.1817 57.3078 79.0249C57.3513 78.8681 57.4747 78.524 57.6779 77.9927C57.7215 77.8679 57.7563 77.7938 57.7825 77.7706C57.8086 77.7445 57.8275 77.7401 57.8391 77.7575C57.8507 77.772 57.8492 77.8141 57.8347 77.8838L57.7694 78.3368L57.7041 78.99ZM55.766 80.0483C55.7806 80.1267 55.7747 80.2095 55.7486 80.2966C55.7254 80.3808 55.6818 80.4751 55.618 80.5797C55.5773 80.6435 55.5396 80.6987 55.5047 80.7451C55.4699 80.7916 55.435 80.8337 55.4002 80.8714C55.3683 80.9092 55.3334 80.944 55.2957 80.976C55.2608 81.0079 55.2216 81.0413 55.1781 81.0761C55.1636 81.0907 55.1505 81.0994 55.1389 81.1023C55.1273 81.1052 55.1186 81.1066 55.1128 81.1066C55.0692 81.1066 55.0402 81.0936 55.0257 81.0674C54.9995 81.0355 54.9603 80.9948 54.9081 80.9455C54.8558 80.8961 54.7919 80.841 54.7165 80.78L54.355 80.4882C54.3288 80.465 54.3201 80.4432 54.3288 80.4229C54.3405 80.3996 54.3492 80.3822 54.355 80.3706C54.4479 80.2051 54.5466 80.0338 54.6511 79.8567C54.7586 79.6796 54.8573 79.5185 54.9473 79.3733C54.9618 79.3501 54.9734 79.3326 54.9821 79.321C54.9908 79.3094 54.9995 79.3036 55.0082 79.3036C55.017 79.3007 55.0271 79.3036 55.0387 79.3123C55.0503 79.321 55.0678 79.3312 55.091 79.3428C55.1462 79.3834 55.2086 79.4299 55.2783 79.4822C55.3508 79.5315 55.4249 79.5896 55.5004 79.6564C55.6455 79.7841 55.7341 79.9148 55.766 80.0483Z" fill="black"></path><path d="M50.3264 77.8788L50.7793 76.8118C50.8171 76.7247 50.8476 76.6812 50.8708 76.6812C50.9085 76.6812 50.9202 76.7087 50.9056 76.7639C50.8882 76.8249 50.8679 76.9308 50.8447 77.0818C50.8214 77.2299 50.804 77.346 50.7924 77.4302C50.775 77.5783 50.7576 77.7453 50.7401 77.9311C50.7227 78.1169 50.7067 78.3085 50.6922 78.506C50.6777 78.7005 50.6632 78.8907 50.6487 79.0765C50.6342 79.2623 50.6182 79.4292 50.6008 79.5773C50.5543 80.0273 50.4832 80.399 50.3874 80.6922C50.2916 80.9826 50.1798 81.2526 50.052 81.5023C49.9243 81.7491 49.8212 81.8783 49.7428 81.8899C49.7225 81.8899 49.7283 81.8376 49.7602 81.7331C49.798 81.6344 49.8328 81.511 49.8648 81.3629C49.8996 81.2148 49.9301 81.0566 49.9562 80.8882C49.9823 80.7169 50.0056 80.5427 50.0259 80.3656C50.0462 80.1856 50.0636 80.0157 50.0782 79.856C50.0985 79.7051 50.1159 79.4801 50.1304 79.181C50.1449 78.879 50.1667 78.6235 50.1957 78.4145C50.2248 78.2055 50.2683 78.0269 50.3264 77.8788Z" fill="black"></path><path d="M47.8405 79.2648C47.8898 79.2213 48.512 78.7573 48.5556 78.7137C48.5991 78.6673 48.6412 78.6194 48.6819 78.57C48.7603 78.4626 48.7995 78.3537 48.7995 78.2434V77.8122C48.7995 77.7077 48.8169 77.593 48.8517 77.4682C48.9127 77.294 48.9766 77.1343 49.0434 76.9891L49.309 76.3445C49.3148 76.3126 49.3366 76.2778 49.3744 76.24C49.3918 76.24 49.4005 76.285 49.4005 76.375L49.3874 76.841L49.3613 77.4028C49.3613 77.5974 49.3221 77.8195 49.2437 78.0692C49.1711 78.316 49.0753 78.5352 48.9563 78.7268C48.7792 79.0201 48.0793 79.8621 47.9599 79.6232C47.8293 79.4374 47.7098 79.4448 47.8405 79.2648ZM49.7533 73.579C49.7765 73.6632 49.775 73.7503 49.7489 73.8403C49.7257 73.9304 49.6807 74.0247 49.6139 74.1234C49.5732 74.1902 49.5297 74.2512 49.4832 74.3063C49.4397 74.3586 49.3932 74.4094 49.3439 74.4588C49.3294 74.4762 49.3061 74.498 49.2742 74.5241C49.2423 74.5502 49.2089 74.5749 49.174 74.5981C49.1392 74.6214 49.1058 74.6388 49.0739 74.6504C49.0419 74.6591 49.0187 74.6548 49.0042 74.6373C48.8996 74.5531 48.7966 74.4675 48.695 74.3804C48.5933 74.2933 48.4816 74.212 48.3596 74.1365C48.3393 74.122 48.3306 74.1089 48.3335 74.0973C48.3335 74.0828 48.3407 74.0625 48.3553 74.0363L49.0521 72.9737C49.0724 72.9446 49.0927 72.9316 49.113 72.9345C49.1334 72.9345 49.1551 72.9417 49.1784 72.9563C49.2393 72.9911 49.3003 73.0303 49.3613 73.0738C49.4223 73.1174 49.4789 73.1653 49.5311 73.2176C49.5834 73.2669 49.6284 73.3221 49.6661 73.3831C49.7068 73.4411 49.7358 73.5065 49.7533 73.579Z" fill="black"></path><path d="M47.7874 79.2203C47.8281 79.2116 47.876 79.1956 47.9312 79.1724C47.9863 79.1492 48.0444 79.1231 48.1054 79.094C48.1431 79.1201 48.1649 79.1608 48.1707 79.216C48.1794 79.2682 48.1794 79.3234 48.1707 79.3815C48.162 79.4366 48.1489 79.4889 48.1315 79.5382C48.117 79.5876 48.1083 79.6224 48.1054 79.6428C48.0212 79.7008 47.9268 79.756 47.8223 79.8083C47.7207 79.8576 47.6045 79.8896 47.4739 79.9041C47.32 80.0783 47.1734 80.2249 47.034 80.3439C46.8946 80.4601 46.7611 80.5544 46.6333 80.627C46.5056 80.6996 46.3822 80.7504 46.2631 80.7795C46.147 80.8085 46.0323 80.8201 45.9191 80.8143C45.742 80.8056 45.5954 80.7577 45.4792 80.6706C45.3602 80.5806 45.2658 80.4688 45.1961 80.3352C45.1265 80.1988 45.0771 80.0492 45.0481 79.8867C45.019 79.7212 45.0045 79.5571 45.0045 79.3945C45.0916 79.1361 45.1816 78.9227 45.2745 78.7543C45.3674 78.5859 45.4647 78.4538 45.5663 78.358C45.5663 78.5148 45.575 78.6585 45.5925 78.7892C45.6128 78.9169 45.6505 79.0272 45.7057 79.1201C45.7609 79.2102 45.8363 79.2813 45.9322 79.3335C46.028 79.3829 46.1499 79.4105 46.298 79.4163C46.3793 79.2014 46.4693 78.9953 46.568 78.7979C46.6696 78.5975 46.8061 78.3928 46.9774 78.1838C47.0442 78.1054 47.1255 78.0401 47.2213 77.9878C47.3171 77.9356 47.4115 77.9094 47.5044 77.9094C47.5973 77.9094 47.6815 77.9399 47.757 78.0009C47.8325 78.0589 47.8833 78.1591 47.9094 78.3014C47.9326 78.4437 47.9297 78.5961 47.9007 78.7587C47.8746 78.9213 47.8339 79.0722 47.7787 79.2116L47.7874 79.2203ZM47.6699 78.9242C47.6379 78.779 47.574 78.6817 47.4782 78.6324C47.3853 78.583 47.2866 78.5699 47.1821 78.5932C47.0805 78.6164 46.9847 78.6716 46.8946 78.7587C46.8046 78.8429 46.748 78.9474 46.7248 79.0722C46.8177 79.1564 46.9208 79.2102 47.034 79.2334C47.1472 79.2566 47.2518 79.2508 47.3476 79.216C47.3708 79.2131 47.3984 79.2 47.4303 79.1768C47.4652 79.1535 47.4971 79.1274 47.5261 79.0984C47.5581 79.0693 47.5871 79.0389 47.6132 79.0069C47.6394 78.975 47.6582 78.9474 47.6699 78.9242ZM48.6628 75.2092C48.6861 75.2905 48.6846 75.3747 48.6585 75.4618C48.6352 75.5489 48.5931 75.6389 48.5322 75.7319C48.4828 75.8073 48.432 75.8785 48.3797 75.9453C48.3304 76.0091 48.2752 76.0701 48.2143 76.1282C48.1765 76.1688 48.1431 76.1979 48.1141 76.2153C48.085 76.2327 48.0604 76.2443 48.04 76.2501C48.0197 76.253 48.0023 76.2516 47.9878 76.2458C47.9733 76.24 47.9602 76.2327 47.9486 76.224C47.847 76.1427 47.7468 76.0614 47.6481 75.9801C47.5523 75.8959 47.4463 75.8175 47.3302 75.7449C47.3156 75.7246 47.3084 75.7101 47.3084 75.7014C47.3084 75.6898 47.3156 75.6723 47.3302 75.6491L47.9921 74.63C48.0125 74.6039 48.0313 74.5923 48.0488 74.5952C48.0691 74.5952 48.0909 74.6024 48.1141 74.6169C48.1722 74.6518 48.2302 74.6895 48.2883 74.7302C48.3493 74.7679 48.4044 74.8115 48.4538 74.8608C48.5031 74.9102 48.5467 74.9639 48.5844 75.022C48.6222 75.0771 48.6483 75.1396 48.6628 75.2092ZM47.3302 75.292C47.3302 75.3036 47.3316 75.3123 47.3345 75.3181C47.3345 75.3268 47.336 75.3341 47.3389 75.3399C47.3389 75.3457 47.3389 75.353 47.3389 75.3617C47.3418 75.3675 47.3432 75.3733 47.3432 75.3791V75.4401C47.3432 75.4459 47.3418 75.4531 47.3389 75.4618C47.3389 75.4676 47.3389 75.4734 47.3389 75.4793L47.3258 75.5315C47.3258 75.5373 47.3244 75.5417 47.3214 75.5446C47.3214 75.5475 47.3214 75.5518 47.3214 75.5576L47.304 75.6099C47.2982 75.6215 47.2924 75.6331 47.2866 75.6447C47.2837 75.6564 47.2793 75.668 47.2735 75.6796C47.2735 75.6825 47.2721 75.6854 47.2692 75.6883C47.2692 75.6883 47.2692 75.6898 47.2692 75.6927L47.2474 75.7319C47.2416 75.7464 47.2343 75.7594 47.2256 75.771C47.2169 75.7798 47.2097 75.7899 47.2039 75.8015C47.1981 75.8073 47.1951 75.8117 47.1951 75.8146L47.1429 75.893L47.1211 75.9235C47.1153 75.9293 47.1095 75.9365 47.1037 75.9453C47.1008 75.954 47.0964 75.9612 47.0906 75.967C47.079 75.9845 47.0688 75.9975 47.0601 76.0062L46.9905 76.0933C46.9847 76.0991 46.9817 76.1035 46.9817 76.1064C46.9759 76.1122 46.9687 76.1195 46.96 76.1282C46.9542 76.1369 46.9469 76.1441 46.9382 76.1499L46.9121 76.1761C46.9034 76.1906 46.8917 76.2022 46.8772 76.2109L46.8337 76.2545L46.8119 76.2719C46.78 76.298 46.7524 76.3154 46.7291 76.3242L46.703 76.3329H46.6725C46.6493 76.3329 46.629 76.3242 46.6116 76.3067C46.5477 76.2574 46.4853 76.2066 46.4243 76.1543C46.3662 76.102 46.3038 76.0512 46.237 76.0019C46.2167 75.9845 46.1964 75.9685 46.176 75.954C46.1151 75.9075 46.0556 75.8654 45.9975 75.8277C45.9946 75.8277 45.9931 75.8262 45.9931 75.8233C45.9786 75.8088 45.9714 75.7957 45.9714 75.7841C45.9714 75.7725 45.9786 75.7551 45.9931 75.7319L46.6595 74.7171C46.6595 74.7142 46.6609 74.7113 46.6638 74.7084C46.6841 74.6823 46.7059 74.6721 46.7291 74.6779C46.7291 74.6779 46.7321 74.6794 46.7379 74.6823C46.7408 74.6823 46.7437 74.6837 46.7466 74.6866L46.7771 74.6997C46.7829 74.7055 46.7887 74.7098 46.7945 74.7128C46.8003 74.7128 46.8061 74.7157 46.8119 74.7215C46.8177 74.7244 46.8235 74.7273 46.8293 74.7302C46.8351 74.7331 46.8409 74.7374 46.8467 74.7432C46.8584 74.749 46.87 74.7563 46.8816 74.765C46.899 74.7766 46.9164 74.7882 46.9338 74.7999C46.9513 74.8086 46.9687 74.8202 46.9861 74.8347L47.0035 74.8478C47.0297 74.8681 47.0543 74.8884 47.0776 74.9087C47.1008 74.9291 47.124 74.9508 47.1472 74.9741L47.1995 75.035L47.2387 75.0873C47.259 75.1163 47.275 75.1454 47.2866 75.1744C47.2924 75.1831 47.2982 75.1962 47.304 75.2136L47.3171 75.2528C47.32 75.2557 47.3214 75.2586 47.3214 75.2615C47.3214 75.2644 47.3229 75.2688 47.3258 75.2746C47.3258 75.2833 47.3273 75.2891 47.3302 75.292Z" fill="black"></path><path d="M45.5577 79.2646C45.5519 79.4359 45.5229 79.6667 45.4706 79.9571C45.4183 80.2474 45.3719 80.4536 45.3312 80.5755C45.2935 80.6974 45.234 80.847 45.1527 81.0241C45.0743 81.1983 44.9756 81.3783 44.8565 81.5641C44.7375 81.747 44.5836 81.9096 44.3949 82.0519C44.2091 82.1942 44.0087 82.2653 43.7939 82.2653C43.6806 82.2653 43.5848 82.2348 43.5064 82.1738C43.4309 82.11 43.3627 82.0214 43.3017 81.9082C43.2524 81.8095 43.2248 81.7078 43.219 81.6033C43.2161 81.5772 43.219 81.5612 43.2277 81.5554C43.2393 81.5496 43.2509 81.5452 43.2625 81.5423C43.3438 81.5191 43.4077 81.4596 43.4542 81.3638C43.5093 81.2505 43.5514 81.1315 43.5805 81.0067C43.6095 80.8818 43.6298 80.7323 43.6414 80.5581C43.653 80.3839 43.6589 80.2343 43.6589 80.1095V79.7306C43.6589 79.5999 43.6603 79.4635 43.6632 79.3212C43.6719 78.9496 43.714 78.5431 43.7895 78.1018C43.8418 77.7998 43.9782 77.389 44.1989 76.8693C44.2337 76.7967 44.2613 76.7619 44.2816 76.7648C44.3049 76.7677 44.3136 76.788 44.3078 76.8257C44.2091 77.1625 44.1553 77.704 44.1466 78.4502C44.1408 79.1964 44.1263 79.6914 44.1031 79.9353C44.0828 80.1763 44.0378 80.4086 43.9681 80.6321C43.8694 80.9631 43.7358 81.2578 43.5674 81.5162C43.6893 81.5162 43.8084 81.5089 43.9245 81.4944C44.0436 81.4799 44.1553 81.4523 44.2599 81.4117C44.3673 81.3681 44.466 81.3072 44.556 81.2288C44.646 81.1504 44.723 81.0444 44.7868 80.9108C44.8536 80.7773 44.9044 80.6147 44.9393 80.4231C44.977 80.2285 44.9973 79.9948 45.0002 79.7219C45.0002 79.5216 44.9988 79.2675 44.9959 78.9597C44.993 78.6491 45.0017 78.3645 45.022 78.1061C45.0423 77.8477 45.1164 77.5356 45.2441 77.1698C45.3719 76.804 45.4938 76.4817 45.61 76.2029C45.6303 76.1594 45.6462 76.1434 45.6579 76.155C45.6724 76.1666 45.6738 76.232 45.6622 76.351C45.5983 76.8417 45.5708 77.164 45.5795 77.3179L45.5577 79.2646Z" fill="black"></path><path d="M42.6483 79.3943C42.6599 79.4263 42.6527 79.4901 42.6265 79.5859C42.5859 79.7224 42.5162 79.8894 42.4175 80.0868C42.3188 80.2813 42.207 80.4657 42.0821 80.6399C41.9573 80.8141 41.8063 80.9651 41.6292 81.0928C41.3766 81.2699 41.1008 81.4224 40.8017 81.5501C40.5027 81.6779 40.1441 81.7984 39.726 81.9116C39.3079 82.0219 38.8521 82.1061 38.3585 82.1642C37.8678 82.2223 37.3917 82.2513 36.93 82.2513C36.3958 82.2513 35.9864 82.2295 35.7019 82.186C35.2373 82.1134 34.9063 81.974 34.7089 81.7679C34.5318 81.6082 34.4432 81.3904 34.4432 81.1146C34.4432 81.0072 34.4534 80.8533 34.4737 80.653C34.494 80.4526 34.5216 80.2523 34.5565 80.0519C34.571 79.9677 34.5841 79.8923 34.5957 79.8255C34.6044 79.779 34.616 79.7413 34.6305 79.7122C34.645 79.6832 34.661 79.6672 34.6784 79.6643C34.6958 79.6585 34.7118 79.6701 34.7263 79.6992C34.7437 79.7253 34.7597 79.7718 34.7742 79.8385C34.7858 79.9111 34.8018 79.9866 34.8221 80.065C34.8686 80.2537 34.9949 80.3946 35.201 80.4875C35.7236 80.711 36.5221 80.8272 37.5964 80.8359C37.9709 80.8359 38.3904 80.8185 38.855 80.7836C39.3195 80.7488 39.7826 80.6805 40.2443 80.5789C40.7088 80.4744 41.0993 80.3554 41.4158 80.2218C41.7323 80.0853 41.9573 79.9721 42.0909 79.8821C42.2244 79.7892 42.3435 79.6774 42.448 79.5468C42.5264 79.4422 42.5728 79.3856 42.5873 79.3769C42.5931 79.3711 42.6033 79.3696 42.6178 79.3725C42.6323 79.3725 42.6425 79.3798 42.6483 79.3943ZM38.9334 84.381C38.9566 84.4652 38.9552 84.5523 38.929 84.6423C38.9058 84.7323 38.8608 84.8266 38.794 84.9253C38.7534 84.9921 38.7098 85.0516 38.6634 85.1039C38.6198 85.1591 38.5734 85.2113 38.524 85.2607C38.5095 85.2781 38.4863 85.2999 38.4543 85.326C38.4224 85.3521 38.389 85.3768 38.3541 85.4001C38.3193 85.4233 38.2859 85.4392 38.254 85.448C38.222 85.4596 38.1988 85.4567 38.1843 85.4392C38.0798 85.3551 37.9767 85.2694 37.8751 85.1823C37.7735 85.0952 37.6617 85.0139 37.5397 84.9384C37.5194 84.9239 37.5093 84.9094 37.5093 84.8949C37.5122 84.8832 37.5209 84.8644 37.5354 84.8382L38.2322 83.7756C38.2525 83.7466 38.2729 83.732 38.2932 83.732C38.3135 83.7349 38.3353 83.7437 38.3585 83.7582C38.4195 83.793 38.4804 83.8322 38.5414 83.8758C38.6024 83.9193 38.659 83.9658 38.7113 84.0151C38.7635 84.0674 38.8085 84.1225 38.8463 84.1806C38.8869 84.2416 38.916 84.3084 38.9334 84.381Z" fill="black"></path><path d="M32.4878 77.8788L32.9407 76.8118C32.9785 76.7247 33.0089 76.6812 33.0322 76.6812C33.0699 76.6812 33.0815 76.7087 33.067 76.7639C33.0496 76.8249 33.0293 76.9308 33.006 77.0818C32.9828 77.2299 32.9654 77.346 32.9538 77.4302C32.9364 77.5783 32.9189 77.7453 32.9015 77.9311C32.8841 78.1169 32.8681 78.3085 32.8536 78.506C32.8391 78.7005 32.8246 78.8907 32.8101 79.0765C32.7955 79.2623 32.7796 79.4292 32.7622 79.5773C32.7157 80.0273 32.6446 80.399 32.5488 80.6922C32.4529 80.9826 32.3412 81.2526 32.2134 81.5023C32.0857 81.7491 31.9826 81.8783 31.9042 81.8899C31.8839 81.8899 31.8897 81.8376 31.9216 81.7331C31.9594 81.6344 31.9942 81.511 32.0261 81.3629C32.061 81.2148 32.0915 81.0566 32.1176 80.8882C32.1437 80.7169 32.1669 80.5427 32.1873 80.3656C32.2076 80.1856 32.225 80.0157 32.2395 79.856C32.2599 79.7051 32.2773 79.4801 32.2918 79.181C32.3063 78.879 32.3281 78.6235 32.3571 78.4145C32.3862 78.2055 32.4297 78.0269 32.4878 77.8788Z" fill="black"></path><path d="M30.3059 79.5421C30.2566 79.5596 30.2043 79.5712 30.1492 79.577C30.0969 79.5799 30.0461 79.5842 29.9967 79.5901C29.8806 79.5959 29.7877 79.6234 29.718 79.6728C29.6222 79.7396 29.4596 79.9341 29.2302 80.2564C28.9776 80.6309 28.6902 80.8182 28.3679 80.8182C28.0079 80.8182 27.7495 80.6614 27.5927 80.3478C27.4766 80.0691 27.4243 79.7541 27.4359 79.4028C27.4678 78.9179 27.5332 78.5564 27.6319 78.3184C27.7364 78.0803 27.8351 77.9612 27.928 77.9612C27.9484 77.9612 27.9716 77.9801 27.9977 78.0179C27.9977 78.1514 27.9977 78.285 27.9977 78.4185C28.0093 78.5463 28.0427 78.6943 28.0979 78.8627C28.156 79.0311 28.2518 79.1676 28.3853 79.2721C28.5276 79.3679 28.7091 79.4159 28.9297 79.4159C29.2491 79.41 29.4915 79.3128 29.657 79.1241C29.8225 78.9353 29.9474 78.8294 30.0316 78.8061C30.0809 78.7916 30.1361 78.7916 30.1971 78.8061C30.258 78.8177 30.3118 78.8221 30.3582 78.8192C30.5034 78.8134 30.6326 78.7611 30.7458 78.6624C30.862 78.5608 30.965 78.4316 31.055 78.2748C31.0579 78.2661 31.0637 78.2574 31.0724 78.2487C31.0899 78.2313 31.1102 78.2269 31.1334 78.2356C31.1828 78.2501 31.2263 78.2588 31.2641 78.2617C31.3047 78.2646 31.3439 78.253 31.3817 78.2269C31.4223 78.2008 31.4644 78.1543 31.508 78.0875C31.5515 78.0179 31.6023 77.9177 31.6604 77.787C31.7039 77.6622 31.746 77.6099 31.7867 77.6302C31.8157 77.6361 31.8201 77.7028 31.7998 77.8306C31.7359 78.1122 31.6575 78.3416 31.5646 78.5187C31.4746 78.6929 31.3817 78.8192 31.2859 78.8976C31.19 78.9731 31.0666 79.0297 30.9157 79.0674C30.8315 79.1603 30.7342 79.2518 30.6239 79.3418C30.5135 79.4289 30.4076 79.4957 30.3059 79.5421Z" fill="black"></path><path d="M27.989 79.2646C27.9832 79.4359 27.9541 79.6667 27.9019 79.9571C27.8496 80.2474 27.8031 80.4536 27.7625 80.5755C27.7248 80.6974 27.6652 80.847 27.5839 81.0241C27.5055 81.1983 27.4068 81.3783 27.2878 81.5641C27.1687 81.747 27.0149 81.9096 26.8261 82.0519C26.6403 82.1942 26.44 82.2653 26.2251 82.2653C26.1119 82.2653 26.0161 82.2348 25.9377 82.1738C25.8622 82.11 25.794 82.0214 25.733 81.9082C25.6836 81.8095 25.6561 81.7078 25.6503 81.6033C25.6474 81.5772 25.6503 81.5612 25.659 81.5554C25.6706 81.5496 25.6822 81.5452 25.6938 81.5423C25.7751 81.5191 25.839 81.4596 25.8854 81.3638C25.9406 81.2505 25.9827 81.1315 26.0117 81.0067C26.0408 80.8818 26.0611 80.7323 26.0727 80.5581C26.0843 80.3839 26.0901 80.2343 26.0901 80.1095V79.7306C26.0901 79.5999 26.0916 79.4635 26.0945 79.3212C26.1032 78.9496 26.1453 78.5431 26.2208 78.1018C26.273 77.7998 26.4095 77.389 26.6302 76.8693C26.665 76.7967 26.6926 76.7619 26.7129 76.7648C26.7361 76.7677 26.7448 76.788 26.739 76.8257C26.6403 77.1625 26.5866 77.704 26.5779 78.4502C26.5721 79.1964 26.5576 79.6914 26.5344 79.9353C26.514 80.1763 26.469 80.4086 26.3993 80.6321C26.3006 80.9631 26.1671 81.2578 25.9987 81.5162C26.1206 81.5162 26.2397 81.5089 26.3558 81.4944C26.4748 81.4799 26.5866 81.4523 26.6911 81.4117C26.7986 81.3681 26.8973 81.3072 26.9873 81.2288C27.0773 81.1504 27.1542 81.0444 27.2181 80.9108C27.2849 80.7773 27.3357 80.6147 27.3705 80.4231C27.4083 80.2285 27.4286 79.9948 27.4315 79.7219C27.4315 79.5216 27.4301 79.2675 27.4272 78.9597C27.4243 78.6491 27.433 78.3645 27.4533 78.1061C27.4736 77.8477 27.5476 77.5356 27.6754 77.1698C27.8031 76.804 27.9251 76.4817 28.0412 76.2029C28.0616 76.1594 28.0775 76.1434 28.0891 76.155C28.1037 76.1666 28.1051 76.232 28.0935 76.351C28.0296 76.8417 28.002 77.164 28.0107 77.3179L27.989 79.2646Z" fill="black"></path><path d="M22.4275 79.384C22.4798 79.2824 22.5567 79.1575 22.6583 79.0095C22.7599 78.8585 22.8732 78.7119 22.998 78.5696C23.1258 78.4244 23.2579 78.2938 23.3943 78.1776C23.5279 78.0644 23.6164 77.9773 23.66 77.9163C23.7035 77.867 23.7253 77.8234 23.7253 77.7857C23.7253 77.7537 23.6861 77.7189 23.6077 77.6812C23.5293 77.6376 23.4989 77.5824 23.5163 77.5157C23.766 76.9901 23.9213 76.6664 23.9823 76.5445C24.0723 76.408 24.1608 76.3441 24.2479 76.3528C24.5354 76.4138 24.7604 76.4995 24.923 76.6098C25.0885 76.7259 25.1712 76.845 25.1712 76.9669C25.1712 77.1469 25.0943 77.3342 24.9404 77.5287C24.7894 77.7378 24.6312 77.8858 24.4657 77.9729C24.3205 78.0484 24.1216 78.1631 23.869 78.317C23.6164 78.468 23.4335 78.5914 23.3203 78.6872C23.2071 78.783 23.0866 78.9064 22.9588 79.0574C22.8311 79.2055 22.7541 79.3143 22.728 79.384C22.6641 79.4247 22.6133 79.445 22.5756 79.445C22.5349 79.445 22.4856 79.4247 22.4275 79.384Z" fill="black"></path><path d="M20.4154 78.8812C20.2877 79.1541 20.1585 79.4314 20.0278 79.713C19.9001 79.9917 19.7941 80.2589 19.7099 80.5144C19.5212 81.0834 19.4428 81.532 19.4747 81.8601C19.5008 82.2056 19.6373 82.48 19.8841 82.6832C20.1338 82.8865 20.4895 82.9881 20.9511 82.9881C21.3344 82.9881 21.7045 82.9068 22.0617 82.7442C22.3288 82.6251 22.5654 82.4785 22.7715 82.3043C22.9777 82.1301 23.1359 81.9501 23.2463 81.7643C23.3595 81.5785 23.4161 81.4217 23.4161 81.2939C23.419 81.2359 23.39 81.1865 23.329 81.1458C23.2709 81.1052 23.1998 81.0704 23.1156 81.0413C23.0314 81.0123 22.9443 80.9862 22.8543 80.9629C22.7643 80.9397 22.6917 80.9165 22.6365 80.8933C22.503 80.8439 22.3941 80.7713 22.3099 80.6755C22.2286 80.5768 22.1894 80.4302 22.1923 80.2356C22.1923 80.0034 22.2693 79.729 22.4231 79.4125C22.4522 79.3748 22.4827 79.3472 22.5146 79.3298C22.5465 79.3123 22.5756 79.3051 22.6017 79.308C22.6307 79.3109 22.6554 79.321 22.6757 79.3385C22.699 79.3559 22.7149 79.3806 22.7236 79.4125C22.7149 79.4561 22.7425 79.4996 22.8064 79.5432C22.8732 79.5867 22.9951 79.6404 23.1722 79.7043C23.3522 79.7682 23.464 79.8175 23.5076 79.8524C23.6498 79.9482 23.721 80.1253 23.721 80.3837C23.721 80.7728 23.644 81.2199 23.4901 81.7251C23.3392 82.2274 23.1287 82.6643 22.8587 83.036C22.7454 83.2073 22.6061 83.3771 22.4406 83.5455C22.2751 83.7139 22.095 83.8547 21.9005 83.968C21.526 84.2264 21.0948 84.3556 20.607 84.3556C20.0525 84.3469 19.6315 84.1654 19.3441 83.8112C19.2134 83.6312 19.1234 83.4396 19.074 83.2363C19.0247 83.036 19 82.8444 19 82.6614C19.0087 82.3304 19.0523 81.998 19.1307 81.6641C19.209 81.3302 19.3092 81.0007 19.4312 80.6755C19.5531 80.3503 19.691 80.0324 19.8449 79.7217C20.0017 79.4111 20.1614 79.1135 20.324 78.8289C20.3501 78.7854 20.3646 78.7607 20.3675 78.7549C20.4024 78.6997 20.4328 78.6779 20.459 78.6896H20.4633C20.472 78.6983 20.472 78.7157 20.4633 78.7418C20.4575 78.7679 20.4415 78.8144 20.4154 78.8812Z" fill="black"></path></svg> 