<?xml version="1.0" encoding="UTF-8"?> <svg xmlns="http://www.w3.org/2000/svg" width="32" height="32" viewBox="0 0 32 32" fill="none"><path d="M25.3327 18.6667H27.9993C28.353 18.6667 28.6921 18.5263 28.9422 18.2762C29.1922 18.0262 29.3327 17.687 29.3327 17.3334C29.3327 16.9798 29.1922 16.6407 28.9422 16.3906C28.6921 16.1406 28.353 16.0001 27.9993 16.0001H25.3327V14.6667C25.3209 14.0525 25.2267 13.4426 25.0527 12.8534C26.306 12.3729 27.385 11.5253 28.1487 10.4215C28.9123 9.31761 29.325 8.00897 29.3327 6.66675C29.3327 6.31313 29.1922 5.97399 28.9422 5.72394C28.6921 5.47389 28.353 5.33341 27.9993 5.33341C27.6457 5.33341 27.3066 5.47389 27.0565 5.72394C26.8065 5.97399 26.666 6.31313 26.666 6.66675C26.6648 7.52654 26.3867 8.36307 25.8727 9.05234C25.3588 9.74162 24.6364 10.2469 23.8127 10.4934C23.1551 9.65071 22.3045 8.97848 21.3327 8.53341C21.3465 8.35591 21.3465 8.17759 21.3327 8.00008C21.3327 6.58559 20.7708 5.22904 19.7706 4.22885C18.7704 3.22865 17.4138 2.66675 15.9993 2.66675C14.5849 2.66675 13.2283 3.22865 12.2281 4.22885C11.2279 5.22904 10.666 6.58559 10.666 8.00008C10.6522 8.17759 10.6522 8.35591 10.666 8.53341C9.67484 8.97117 8.8053 9.64392 8.13268 10.4934C7.31892 10.2375 6.60828 9.72813 6.10455 9.03969C5.60081 8.35125 5.33036 7.5198 5.33268 6.66675C5.33268 6.31313 5.19221 5.97399 4.94216 5.72394C4.69211 5.47389 4.35297 5.33341 3.99935 5.33341C3.64573 5.33341 3.30659 5.47389 3.05654 5.72394C2.80649 5.97399 2.66602 6.31313 2.66602 6.66675C2.6737 8.00897 3.08637 9.31761 3.85002 10.4215C4.61366 11.5253 5.69273 12.3729 6.94602 12.8534C6.77198 13.4426 6.67781 14.0525 6.66602 14.6667V16.0001H3.99935C3.64573 16.0001 3.30659 16.1406 3.05654 16.3906C2.80649 16.6407 2.66602 16.9798 2.66602 17.3334C2.66602 17.687 2.80649 18.0262 3.05654 18.2762C3.30659 18.5263 3.64573 18.6667 3.99935 18.6667H6.66602V20.0001C6.66717 20.6181 6.7297 21.2344 6.85268 21.8401C5.62106 22.3337 4.56473 23.1835 3.81889 24.2809C3.07305 25.3783 2.67164 26.6733 2.66602 28.0001C2.66602 28.3537 2.80649 28.6928 3.05654 28.9429C3.30659 29.1929 3.64573 29.3334 3.99935 29.3334C4.35297 29.3334 4.69211 29.1929 4.94216 28.9429C5.19221 28.6928 5.33268 28.3537 5.33268 28.0001C5.33629 27.2225 5.56648 26.4627 5.9951 25.8139C6.42372 25.165 7.03217 24.6552 7.74602 24.3467C8.53896 25.8484 9.72656 27.1052 11.1809 27.9819C12.6352 28.8586 14.3012 29.3219 15.9993 29.3219C17.6975 29.3219 19.3635 28.8586 20.8178 27.9819C22.2721 27.1052 23.4597 25.8484 24.2527 24.3467C24.9665 24.6552 25.575 25.165 26.0036 25.8139C26.4322 26.4627 26.6624 27.2225 26.666 28.0001C26.666 28.3537 26.8065 28.6928 27.0565 28.9429C27.3066 29.1929 27.6457 29.3334 27.9993 29.3334C28.353 29.3334 28.6921 29.1929 28.9422 28.9429C29.1922 28.6928 29.3327 28.3537 29.3327 28.0001C29.3271 26.6733 28.9256 25.3783 28.1798 24.2809C27.434 23.1835 26.3776 22.3337 25.146 21.8401C25.269 21.2344 25.3315 20.6181 25.3327 20.0001V18.6667ZM14.666 26.5334C13.1602 26.226 11.8068 25.4078 10.8349 24.2173C9.86306 23.0267 9.33237 21.537 9.33268 20.0001V14.6667C9.33268 13.6059 9.75411 12.5885 10.5043 11.8383C11.2544 11.0882 12.2718 10.6667 13.3327 10.6667H14.666V26.5334ZM13.3327 8.00008C13.3327 7.29284 13.6136 6.61456 14.1137 6.11446C14.6138 5.61437 15.2921 5.33341 15.9993 5.33341C16.7066 5.33341 17.3849 5.61437 17.885 6.11446C18.3851 6.61456 18.666 7.29284 18.666 8.00008H13.3327ZM22.666 20.0001C22.6663 21.537 22.1356 23.0267 21.1638 24.2173C20.1919 25.4078 18.8385 26.226 17.3327 26.5334V10.6667H18.666C19.7269 10.6667 20.7443 11.0882 21.4944 11.8383C22.2446 12.5885 22.666 13.6059 22.666 14.6667V20.0001Z" fill="#262626"></path></svg> 