<?xml version="1.0" encoding="UTF-8"?> <svg xmlns="http://www.w3.org/2000/svg" width="100" height="100" viewBox="0 0 100 100" fill="none"><path fill-rule="evenodd" clip-rule="evenodd" d="M50.7509 14.2944C47.2855 16.4846 44.3533 15.2352 44.6595 11.6715C44.77 10.8897 44.9859 10.8219 45.3073 11.468C46.5743 13.3509 48.2886 14.1594 50.4215 12.263C50.9139 11.7482 50.8061 11.7068 51.2766 12.2718C53.1 13.8515 55.4362 13.9058 56.5995 11.3656C56.8436 10.88 57.1389 10.8908 57.1894 11.3229C57.426 15.3444 54.1208 16.644 50.7488 14.2951L50.7509 14.2944ZM60.099 17.053C69.5699 24.4374 71.4628 35.3767 65.1375 45.8324C64.352 46.8668 64.6275 47.5037 66.1904 45.9966C76.9275 35.2967 71.9701 20.2348 60.2156 16.3279C58.9036 15.8056 59.008 16.2669 60.099 17.053ZM50.6207 53.012C50.8048 53.2948 50.8436 53.2948 51.0298 53.012L52.5436 50.4624C56.4884 50.9331 60.2258 50.8958 63.0844 49.7162C63.4253 49.5256 63.4423 49.2509 62.815 49.2414C60.0788 49.2505 57.3638 48.7641 54.8027 47.8062C66.6057 39.7645 67.3182 25.0201 57.6851 17.1262C56.9875 16.5158 56.9173 16.781 57.576 17.8724C63.2589 26.3176 61.4792 37.6924 53.1594 44.3334L53.6728 18.0765L50.8252 15.4027L47.9783 18.0752L48.4918 44.3321C40.1726 37.691 38.3915 26.3163 44.0744 17.871C44.7332 16.781 44.6636 16.5144 43.9653 17.1249C34.4249 25.2961 35.0448 39.7645 46.8484 47.8062C44.2869 48.7624 41.572 49.2471 38.8361 49.2367C38.2088 49.2496 38.2224 49.5243 38.5634 49.7115C41.4219 50.8924 45.1593 50.9324 49.1041 50.4576L50.6207 53.012ZM41.9176 17.053C32.2776 24.6029 30.5538 35.3767 36.8791 45.8324C37.6646 46.8668 37.3898 47.5037 35.8262 45.9966C25.0898 35.2967 30.0472 20.2348 41.801 16.3279C43.1137 15.8056 43.0086 16.2662 41.9176 17.053Z" fill="black"></path><g clip-path="url(#clip0_9871_489)"><path d="M20.3801 82.6187C20.2553 82.8795 20.1299 83.1434 20.0037 83.4104C19.8849 83.6599 19.7805 83.9157 19.6911 84.1766C19.5523 84.543 19.472 84.9282 19.4532 85.3185C19.453 85.3659 19.4559 85.4132 19.4619 85.4602C19.4685 85.6114 19.5077 85.7595 19.5769 85.8949C19.6462 86.0302 19.7439 86.1497 19.8637 86.2456C20.165 86.457 20.5321 86.5597 20.9023 86.5362C21.2778 86.5367 21.6491 86.4574 21.9901 86.3037C22.2401 86.1964 22.4732 86.0551 22.6827 85.8841C22.8655 85.7384 23.0226 85.5643 23.1476 85.3688C23.2414 85.2361 23.298 85.0816 23.3115 84.9208C23.3123 84.8921 23.3049 84.8637 23.2904 84.8387C23.2758 84.8138 23.2545 84.7931 23.2289 84.7791C23.1632 84.7372 23.0923 84.7039 23.0178 84.6799C22.9359 84.6522 22.851 84.6274 22.7632 84.6047C22.6909 84.5876 22.6199 84.5656 22.5508 84.5388C22.4281 84.4958 22.319 84.4225 22.2338 84.3262C22.1447 84.2053 22.1032 84.0571 22.1171 83.9087C22.1317 83.6338 22.2087 83.3656 22.3426 83.1234C22.3665 83.0914 22.3968 83.0646 22.4318 83.0447C22.458 83.0294 22.4884 83.0222 22.5188 83.0241C22.5454 83.0267 22.5706 83.0368 22.5914 83.0532C22.6136 83.0715 22.6291 83.0964 22.6356 83.1241C22.6269 83.1659 22.6545 83.2077 22.7183 83.2488C22.8331 83.3129 22.9547 83.3644 23.0809 83.4026C23.1941 83.4366 23.3025 83.4842 23.4036 83.5444C23.4792 83.6049 23.5379 83.6831 23.5743 83.7717C23.6106 83.8603 23.6236 83.9564 23.6118 84.0512C23.6009 84.4848 23.5256 84.9145 23.3884 85.327C23.2556 85.7751 23.0467 86.1982 22.7705 86.5787C22.6506 86.7531 22.5139 86.916 22.3622 87.0649C22.2059 87.2215 22.0288 87.3569 21.8357 87.4675C21.4643 87.716 21.023 87.8453 20.573 87.8375C20.3406 87.8484 20.1087 87.8073 19.895 87.7172C19.6813 87.6272 19.4915 87.4906 19.3401 87.3179C19.2165 87.1547 19.127 86.9692 19.0768 86.7722C19.0303 86.5921 19.0059 86.4072 19.0043 86.2215C19.0137 85.9012 19.0565 85.5828 19.1319 85.271C19.208 84.951 19.3049 84.6362 19.422 84.3283C19.5412 84.0183 19.6768 83.7145 19.8282 83.4182C19.98 83.1219 20.1352 82.8384 20.2938 82.5677C20.3192 82.5266 20.3329 82.5025 20.3358 82.4968C20.3641 82.4521 20.3895 82.4302 20.4127 82.4302C20.4171 82.4307 20.4213 82.4322 20.425 82.4344H20.4294C20.4326 82.4377 20.435 82.4416 20.4365 82.4459C20.438 82.4502 20.4385 82.4547 20.4381 82.4592C20.4376 82.4676 20.4361 82.476 20.4337 82.484C20.4236 82.511 20.4069 82.5556 20.3801 82.6187Z" fill="black"></path><path d="M22.9991 89.0063C23.0104 89.0455 23.0161 89.0861 23.0157 89.1268C23.0157 89.1675 23.0101 89.2081 22.9991 89.2473C22.9694 89.3386 22.9265 89.4253 22.8714 89.5046C22.8236 89.5755 22.7742 89.6464 22.7264 89.7066C22.6763 89.7691 22.6218 89.8281 22.5632 89.8831C22.5342 89.9146 22.5014 89.9425 22.4653 89.966C22.4428 89.9799 22.4184 89.9904 22.3928 89.9972C22.3762 90.0023 22.3585 90.0023 22.342 89.9972C22.3283 89.9918 22.3153 89.9847 22.3035 89.9759C22.2042 89.8987 22.107 89.8214 22.0134 89.7435C21.9162 89.6609 21.8124 89.586 21.703 89.5195C21.6925 89.5075 21.6853 89.4931 21.682 89.4777C21.6849 89.4597 21.6921 89.4427 21.703 89.4281L22.3492 88.4563C22.3688 88.4315 22.3877 88.4195 22.4065 88.4209C22.4286 88.4237 22.4497 88.4315 22.4682 88.4436C22.5247 88.4766 22.582 88.5121 22.6401 88.5499C22.6975 88.5865 22.7509 88.6288 22.7996 88.676C22.8469 88.7226 22.8897 88.7734 22.9273 88.8277C22.9625 88.8823 22.9869 88.9429 22.9991 89.0063ZM22.3405 83.1234C22.4733 82.7917 22.5581 82.5826 22.5994 82.4969C22.7288 82.213 22.8148 81.9121 22.8547 81.6038C22.8437 81.5077 22.8177 81.4138 22.7779 81.3252C22.7184 81.1785 22.6618 81.0517 22.6082 80.9432L22.5356 80.8185C22.5095 80.7774 22.4856 80.7355 22.4631 80.6944C22.4208 80.6459 22.3981 80.5838 22.3993 80.5201C22.4392 80.4031 22.4718 80.2996 22.5015 80.2082C22.5313 80.1168 22.561 80.0381 22.5864 79.9715C22.659 79.7424 22.7454 79.5178 22.8453 79.2988C23.0414 79.3994 23.1916 79.5684 23.266 79.7723C23.391 80.0322 23.4564 80.3158 23.4574 80.603C23.4392 80.9795 23.3558 81.3502 23.2108 81.6995C23.1112 81.9357 23.0145 82.172 22.9207 82.4083C22.8269 82.6445 22.7334 82.882 22.6401 83.1206C22.6277 83.1496 22.605 83.1732 22.5762 83.1872C22.5486 83.201 22.518 83.2081 22.487 83.2078C22.4564 83.2082 22.4263 83.2003 22.4 83.1851C22.3862 83.1797 22.3736 83.1717 22.363 83.1614C22.3524 83.1512 22.344 83.139 22.3384 83.1256L22.3405 83.1234ZM24.2987 88.9298C24.3104 88.9689 24.3163 89.0095 24.3161 89.0503C24.3158 89.091 24.3099 89.1315 24.2987 89.1708C24.2691 89.2621 24.2261 89.3488 24.1711 89.4281C24.1232 89.4989 24.0746 89.5698 24.026 89.6293C23.9763 89.6922 23.9217 89.7512 23.8628 89.8058C23.8343 89.8378 23.8013 89.8657 23.7649 89.8888C23.7427 89.903 23.7182 89.9136 23.6924 89.9199C23.6759 89.9251 23.6582 89.9251 23.6416 89.9199C23.6261 89.915 23.6115 89.9079 23.5981 89.8987C23.4988 89.8214 23.403 89.7435 23.308 89.6662C23.2087 89.5841 23.1035 89.509 22.9933 89.4415C22.9828 89.4298 22.9756 89.4156 22.9722 89.4004C22.975 89.3824 22.9822 89.3654 22.9933 89.3508L23.6395 88.3783C23.659 88.3535 23.6786 88.3422 23.6968 88.3436C23.7189 88.3461 23.7401 88.3539 23.7584 88.3663C23.815 88.3996 23.8723 88.4372 23.9303 88.4719C23.9875 88.5091 24.041 88.5516 24.0898 88.5988C24.1373 88.6452 24.1801 88.696 24.2175 88.7505C24.2557 88.8053 24.2825 88.867 24.2965 88.9319L24.2987 88.9298Z" fill="black"></path><path d="M25.8587 80.6257C25.8957 80.5428 25.9254 80.501 25.9479 80.501C25.9704 80.501 25.9863 80.5152 25.9863 80.5428C25.9861 80.5554 25.9847 80.568 25.982 80.5804C25.937 80.8814 25.9058 81.094 25.8884 81.2183C25.8688 81.36 25.8536 81.4784 25.842 81.5727C25.8304 81.6669 25.821 81.7576 25.8123 81.8363C25.8036 81.915 25.7963 81.9923 25.7912 82.0667C25.7862 82.1411 25.7782 82.2276 25.7695 82.324C25.7382 82.6852 25.6652 83.0419 25.5519 83.3871C25.4595 83.6536 25.343 83.9114 25.2038 84.1576C25.0689 84.3943 24.9637 84.5184 24.8868 84.5297C24.8789 84.5297 24.8745 84.5226 24.8745 84.5091C24.8787 84.4651 24.8887 84.4217 24.9042 84.3801C24.9478 84.2645 24.9831 84.1461 25.0101 84.0258C25.0445 83.884 25.0749 83.7323 25.1015 83.5707C25.1283 83.4091 25.153 83.2426 25.174 83.0746C25.1951 82.9066 25.2132 82.7429 25.227 82.5905C25.2328 82.4997 25.2495 82.3537 25.2785 82.1546C25.3004 81.9802 25.3429 81.809 25.4054 81.6442L25.8587 80.6257Z" fill="black"></path><path d="M27.8263 82.4029C27.7044 83.1338 27.5947 83.6791 27.497 84.0387C27.4254 84.3184 27.3368 84.5937 27.2315 84.863C27.1712 85.0217 27.0829 85.1688 26.9705 85.2975C26.8195 85.4283 26.641 85.5251 26.4476 85.581C26.2402 85.6574 26.0279 85.7206 25.8122 85.7703C25.707 85.7951 25.6005 85.8145 25.4931 85.8284C25.4641 85.83 25.4354 85.8212 25.4126 85.8036C25.411 85.8019 25.4098 85.7998 25.4091 85.7977C25.4083 85.7955 25.4081 85.7931 25.4083 85.7908C25.4129 85.7636 25.4246 85.7379 25.4424 85.7164C25.5413 85.5996 25.6557 85.4962 25.7825 85.4088C25.9522 85.2784 26.1541 85.1163 26.3881 84.9226C26.5804 84.7696 26.7564 84.5979 26.9132 84.4101C27.0482 84.2252 27.152 84.0204 27.2207 83.8034C27.3101 83.5473 27.3974 83.2796 27.4825 83.0004C27.5676 82.7211 27.6292 82.5321 27.6674 82.4333C27.7051 82.3334 27.7443 82.2852 27.7842 82.2916C27.792 82.2925 27.7995 82.295 27.8064 82.2989C27.8132 82.3027 27.8191 82.3079 27.8239 82.314C27.8286 82.3202 27.832 82.3272 27.8339 82.3347C27.8358 82.3421 27.8362 82.3499 27.835 82.3575C27.834 82.3729 27.8311 82.3881 27.8263 82.4029Z" fill="black"></path><path d="M29.709 80.6257C29.746 80.5428 29.7758 80.501 29.7982 80.501C29.8207 80.501 29.8367 80.5152 29.8367 80.5428C29.8365 80.5554 29.835 80.568 29.8323 80.5804C29.7869 80.8814 29.7557 81.094 29.7388 81.2183C29.7192 81.36 29.7032 81.4784 29.6924 81.5727C29.6815 81.6669 29.6706 81.7576 29.6626 81.8363C29.6546 81.915 29.6467 81.9923 29.6409 82.0667C29.6351 82.1411 29.6285 82.2276 29.6198 82.324C29.5733 82.9683 29.3811 83.5946 29.057 84.1576C28.9221 84.3943 28.817 84.5184 28.7401 84.5297C28.7314 84.5297 28.7271 84.5226 28.7271 84.5091C28.7312 84.4651 28.7412 84.4217 28.7568 84.3801C28.8002 84.2644 28.8359 84.146 28.8634 84.0258C28.8977 83.884 28.9282 83.7323 28.9548 83.5707C28.9816 83.4091 29.0055 83.2426 29.0273 83.0746C29.0491 82.9066 29.0657 82.7429 29.0802 82.5905C29.086 82.4997 29.1027 82.3537 29.131 82.1546C29.1531 81.9802 29.1959 81.8089 29.2587 81.6442L29.709 80.6257Z" fill="black"></path><path d="M30.0702 85.7049L30.3335 85.5057C30.5784 85.3322 30.8068 85.1374 31.016 84.9238C31.1519 84.8074 31.2523 84.6566 31.3061 84.4879C31.3091 84.473 31.3105 84.4578 31.3104 84.4426C31.2896 84.2868 31.2163 84.1422 31.1023 84.0315C30.9351 83.8413 30.7454 83.6712 30.5373 83.5247C30.5235 83.5159 30.5135 83.5026 30.509 83.4871C30.508 83.4756 30.5102 83.4641 30.5155 83.4538L30.7157 83.0051L30.9957 82.3906C31.0189 82.341 31.0399 82.2992 31.0595 82.2659C31.0711 82.2467 31.0834 82.2368 31.0979 82.2368C31.1071 82.2371 31.1159 82.24 31.1233 82.2453C31.2422 82.3424 31.3604 82.4466 31.4779 82.5593C31.5974 82.6731 31.6998 82.8029 31.7818 82.9449C31.874 83.1199 31.918 83.3153 31.9095 83.5119C31.91 83.7773 31.8649 84.0408 31.776 84.2916C31.6783 84.5612 31.557 84.822 31.4134 85.0712C31.359 85.1648 31.2956 85.2531 31.2241 85.3349C31.143 85.4223 31.0442 85.4923 30.934 85.5405C30.668 85.6479 30.3961 85.7409 30.1195 85.819C30.0989 85.8241 30.0777 85.8269 30.0564 85.8275C30.0417 85.828 30.027 85.8251 30.0137 85.819C30.0102 85.8143 30.0086 85.8085 30.0093 85.8027C30.0098 85.7941 30.0112 85.7855 30.0137 85.7772C30.0264 85.7491 30.0458 85.7243 30.0702 85.7049Z" fill="black"></path><path d="M35.1869 84.2428C35.0684 84.5412 34.9255 84.8299 34.7597 85.1061C34.6807 85.2384 34.5811 85.358 34.4646 85.4605C34.3573 85.5352 34.2389 85.5933 34.1135 85.6327C33.9555 85.6883 33.7945 85.7356 33.6313 85.7745C33.5078 85.8074 33.3812 85.8276 33.2534 85.8347C33.2193 85.8347 33.2019 85.8347 33.2019 85.8305V85.822C33.2019 85.786 33.3208 85.696 33.5587 85.5519C33.7773 85.4189 33.9886 85.2748 34.1919 85.1203C34.3556 84.9937 34.5058 84.8512 34.6401 84.695C34.7649 84.5521 34.8608 84.3873 34.9229 84.2095C34.8855 84.2253 34.847 84.2383 34.8076 84.2485C34.7601 84.2618 34.7116 84.2715 34.6626 84.2775C34.6132 84.2846 34.5654 84.2896 34.5175 84.2924C34.4778 84.2955 34.4379 84.294 34.3986 84.2882C34.2498 84.2819 34.1078 84.2256 33.9968 84.1287C33.9455 84.0848 33.9053 84.0301 33.8791 83.9686C33.853 83.9072 33.8416 83.8407 33.8459 83.7743C33.8579 83.6911 33.8779 83.6093 33.9054 83.5298C33.9617 83.3773 34.0271 83.2282 34.1012 83.0832C34.1858 82.9015 34.2951 82.7318 34.4261 82.5786C34.4635 82.5245 34.5121 82.4788 34.5689 82.4445C34.6257 82.4101 34.6892 82.388 34.7554 82.3794C34.8404 82.3791 34.9243 82.3987 35 82.4366C35.0757 82.4744 35.141 82.5294 35.1905 82.597C35.3097 82.7492 35.3822 82.9313 35.3994 83.1222C35.3994 83.164 35.403 83.2058 35.403 83.247C35.403 83.3079 35.403 83.3689 35.3951 83.4298C35.3865 83.5156 35.3729 83.6007 35.3544 83.685C35.3392 83.7559 35.3153 83.8402 35.2819 83.9472C35.2486 84.0543 35.2239 84.1514 35.1869 84.2428Z" fill="black"></path><path d="M37.8471 82.748C37.7223 83.0079 37.5968 83.2716 37.4707 83.539C37.352 83.7886 37.2476 84.0444 37.1581 84.3052C37.0193 84.6719 36.9391 85.0573 36.9202 85.4478C36.92 85.4952 36.9229 85.5425 36.9289 85.5896C36.9354 85.7406 36.9745 85.8887 37.0438 86.0239C37.113 86.1592 37.2108 86.2785 37.3307 86.3742C37.6317 86.5864 37.9989 86.6894 38.3692 86.6655C38.7449 86.6658 39.1161 86.5863 39.4571 86.4323C39.707 86.3252 39.9402 86.1842 40.1497 86.0134C40.3324 85.8675 40.4894 85.6935 40.6146 85.4981C40.7085 85.3652 40.7651 85.2105 40.7785 85.0495C40.7792 85.0207 40.7719 84.9923 40.7573 84.9673C40.7428 84.9424 40.7215 84.9217 40.6958 84.9077C40.6306 84.8655 40.5598 84.8319 40.4855 84.8078C40.4028 84.7801 40.318 84.7553 40.2302 84.7369C40.1579 84.7196 40.0869 84.6973 40.0177 84.6703C39.8949 84.6277 39.7856 84.5544 39.7008 84.4576C39.6115 84.3368 39.5701 84.1885 39.584 84.0402C39.6005 83.7433 39.6816 83.4534 39.8219 83.1896C40.0031 82.8239 40.2257 82.4791 40.4855 82.1619C40.6827 81.9342 40.8954 81.7199 41.1223 81.5204C41.2983 81.3725 41.4675 81.2409 41.63 81.1256C41.7813 81.0174 41.9411 80.921 42.1079 80.8372C42.1638 80.8054 42.2222 80.7781 42.2827 80.7556C42.3241 80.743 42.367 80.7358 42.4103 80.7344C42.423 80.7342 42.4357 80.7357 42.448 80.7386C42.4658 80.7455 42.4811 80.7576 42.4917 80.7732C42.5023 80.7887 42.5078 80.8071 42.5075 80.8258C42.4937 80.8761 42.4742 80.9364 42.448 81.0087C42.4219 81.081 42.3944 81.1554 42.3632 81.2327C42.332 81.3099 42.2994 81.3872 42.2653 81.4637C42.2312 81.5403 42.1993 81.6055 42.1681 81.6671C42.1426 81.7172 42.114 81.7657 42.0825 81.8124C42.0571 81.85 42.039 81.867 42.0274 81.8642L42.0194 81.8684C42.0129 81.8681 42.0066 81.8664 42.0007 81.8636C41.9949 81.8608 41.9896 81.8569 41.9853 81.8521C41.9589 81.8355 41.9275 81.828 41.8961 81.8309C41.7362 81.8411 41.5786 81.874 41.4283 81.9287C41.1923 82.0122 40.974 82.1373 40.7843 82.298C40.5917 82.447 40.4185 82.6187 40.2687 82.809C40.1818 82.9028 40.1202 83.0164 40.0895 83.1393C40.0872 83.1531 40.086 83.1671 40.0859 83.1811C40.0862 83.217 40.0946 83.2523 40.1107 83.2846C40.1268 83.3169 40.15 83.3452 40.1787 83.3675C40.2908 83.4397 40.4129 83.4958 40.5414 83.5341C40.6547 83.5677 40.7631 83.6153 40.8641 83.6758C40.9396 83.7364 40.9983 83.8145 41.0347 83.9031C41.0711 83.9917 41.084 84.0879 41.0722 84.1826C41.0614 84.6162 40.9862 85.046 40.8489 85.4584C40.7162 85.9068 40.5073 86.3302 40.231 86.7108C40.1109 86.8852 39.9742 87.048 39.8226 87.1971C39.6663 87.3536 39.4892 87.489 39.2961 87.5997C38.9249 87.8478 38.4838 87.9769 38.0342 87.9689C37.8018 87.9803 37.5698 87.9394 37.3561 87.8494C37.1423 87.7595 36.9525 87.6229 36.8012 87.4501C36.6778 87.2865 36.5883 87.1009 36.538 86.9036C36.4915 86.7238 36.4671 86.5391 36.4655 86.3536C36.4749 86.0332 36.5177 85.7145 36.5931 85.4024C36.6694 85.0825 36.7662 84.7677 36.8832 84.4597C37.0026 84.15 37.1381 83.8465 37.2893 83.5504C37.4412 83.2541 37.5964 82.9706 37.755 82.6998C37.7803 82.658 37.7941 82.6346 37.797 82.629C37.8282 82.5879 37.8579 82.5666 37.8862 82.5666H37.8906C37.8936 82.57 37.896 82.5739 37.8975 82.5781C37.899 82.5824 37.8996 82.5869 37.8993 82.5914C37.8988 82.6 37.8973 82.6086 37.8949 82.6169C37.8891 82.6403 37.8724 82.6842 37.8471 82.748Z" fill="black"></path><path d="M42.5083 85.7049L42.7723 85.5057C43.017 85.3322 43.2452 85.1375 43.454 84.9238C43.5899 84.8073 43.6902 84.6565 43.7441 84.4879C43.7453 84.4728 43.7453 84.4577 43.7441 84.4426C43.7233 84.2868 43.6501 84.1422 43.536 84.0315C43.3692 83.841 43.1795 83.6708 42.971 83.5247C42.9578 83.5155 42.9481 83.5023 42.9434 83.4871C42.942 83.4756 42.9443 83.464 42.95 83.4538L43.1494 83.0051L43.4301 82.3906C43.4489 82.3479 43.4702 82.3062 43.4939 82.2659C43.5048 82.2467 43.5178 82.2368 43.5316 82.2368C43.541 82.2371 43.5501 82.24 43.5577 82.2453C43.6767 82.3424 43.7949 82.4466 43.9124 82.5593C44.0317 82.6733 44.134 82.8031 44.2163 82.9449C44.3082 83.12 44.3522 83.3153 44.3439 83.5119C44.3442 83.7773 44.2988 84.0409 44.2097 84.2916C44.112 84.5612 43.9907 84.822 43.8471 85.0712C43.793 85.165 43.7296 85.2533 43.6578 85.3349C43.5771 85.4227 43.4782 85.4928 43.3677 85.5405C43.1019 85.6478 42.8303 85.7408 42.554 85.819C42.5331 85.8241 42.5117 85.8269 42.4902 85.8275C42.4754 85.8279 42.4608 85.825 42.4474 85.819C42.4454 85.8137 42.4454 85.808 42.4474 85.8027C42.4463 85.7942 42.4463 85.7857 42.4474 85.7772C42.4616 85.7488 42.4825 85.724 42.5083 85.7049Z" fill="black"></path><path d="M45.6407 83.4867C45.6274 83.7333 45.5622 83.9746 45.4492 84.1955C45.3448 84.3897 45.2259 84.4861 45.0924 84.4861C45.0924 84.3812 45.127 84.0547 45.1961 83.5065C45.2653 82.9584 45.3177 82.5657 45.3535 82.3285C45.3888 82.0923 45.4292 81.8411 45.4746 81.5751C45.5203 81.3093 45.5638 81.0946 45.6066 80.9315C45.6545 80.7954 45.7067 80.6586 45.7618 80.5204C45.8169 80.3822 45.8742 80.2447 45.9337 80.1093C45.9511 80.0838 45.9649 80.0718 45.9765 80.0718C45.9881 80.0718 46.0048 80.0937 46.0106 80.1384C45.9395 80.5977 45.8742 81.0745 45.8148 81.5687C45.7553 82.063 45.7149 82.4174 45.6936 82.6319C45.6726 82.8445 45.6617 82.97 45.6617 83.0061C45.6482 83.2296 45.6412 83.3898 45.6407 83.4867Z" fill="black"></path><path d="M48.6744 84.7915C48.5729 84.8001 48.467 84.8036 48.3582 84.8022C48.2493 84.8007 48.1407 84.791 48.0333 84.7731C47.9249 84.7545 47.8187 84.7253 47.7163 84.6859C47.6108 84.6443 47.5116 84.589 47.4212 84.5215C47.4115 84.5186 47.4015 84.5171 47.3914 84.5172C47.369 84.5192 47.3474 84.5263 47.3283 84.5379C47.3091 84.5494 47.293 84.5652 47.2812 84.5839C47.2238 84.6527 47.1737 84.727 47.1318 84.8057C47.081 84.9002 47.0259 85.0021 46.9664 85.1112C46.908 85.223 46.8413 85.3306 46.767 85.433C46.6962 85.5311 46.6126 85.6198 46.5182 85.6967C46.4292 85.7701 46.3209 85.8178 46.2056 85.8342C46.1718 85.837 46.1392 85.8384 46.1077 85.8384C45.9547 85.8432 45.8029 85.8099 45.6666 85.7416C45.5303 85.6733 45.4141 85.5722 45.3288 85.4479C45.238 85.3133 45.1738 85.1633 45.1395 85.0056C45.1013 84.8344 45.0849 84.6591 45.0909 84.4839C45.1133 84.3633 45.1461 84.2448 45.1888 84.1295C45.2276 84.0226 45.2744 83.9186 45.3288 83.8184C45.3722 83.7367 45.425 83.6601 45.4862 83.5902C45.525 83.5404 45.5784 83.5034 45.6392 83.4838C45.6361 83.6423 45.6657 83.7997 45.7263 83.9467C45.7779 84.0724 45.8577 84.1853 45.9598 84.277C46.0579 84.3629 46.1751 84.4255 46.3021 84.4598C46.3919 84.485 46.485 84.4977 46.5784 84.4974C46.6223 84.4973 46.6662 84.4945 46.7097 84.4889C46.7688 84.4779 46.8262 84.459 46.8801 84.4329C46.9417 84.4014 46.9993 84.3631 47.052 84.3188C47.1233 84.2592 47.19 84.1946 47.2515 84.1253C47.324 84.0466 47.4096 83.946 47.5089 83.8248C47.5595 83.7528 47.6325 83.6989 47.7171 83.671C47.7431 83.6628 47.7702 83.6585 47.7976 83.6582C47.8341 83.6582 47.8703 83.6652 47.9042 83.6788C47.9616 83.7154 48.022 83.7474 48.0848 83.7744C48.1521 83.8034 48.2227 83.8244 48.2951 83.8368L48.4401 83.683C48.5308 83.5866 48.6577 83.4491 48.8144 83.2719C48.9841 83.0869 49.1516 82.9119 49.3155 82.7488C49.4415 82.6137 49.5914 82.5018 49.7579 82.4185C49.8617 82.3677 49.977 82.3433 50.093 82.3477C50.2122 82.3591 50.3228 82.4135 50.4032 82.5002C50.4836 82.5869 50.5282 82.6998 50.5281 82.8169C50.5281 82.8363 50.5267 82.8557 50.5238 82.875C50.4813 83.1339 50.3756 83.379 50.2156 83.5894C50.0549 83.8353 49.8692 84.0647 49.6615 84.2741C49.3916 84.5377 49.0483 84.7176 48.6744 84.7915ZM49.4055 83.7737C49.6891 83.6714 49.9449 83.5067 50.1532 83.2925C50.137 83.2692 50.1193 83.2469 50.1002 83.2258C50.0712 83.1937 50.0384 83.1652 50.0023 83.1408C49.957 83.109 49.9084 83.082 49.8573 83.06C49.7941 83.0332 49.7266 83.0176 49.6578 83.0139C49.6396 83.0112 49.6212 83.0098 49.6027 83.0097C49.4334 83.0191 49.2739 83.0904 49.156 83.2095C48.9339 83.4123 48.7253 83.6286 48.5315 83.8574C48.6203 83.868 48.7097 83.8734 48.7991 83.8737C49.0056 83.8745 49.2107 83.8407 49.4055 83.7737Z" fill="black"></path><path d="M50.1365 84.2509C49.8937 84.3944 49.6401 84.5195 49.3779 84.6252C49.1782 84.6993 49.0529 84.7449 49.0022 84.762C48.8728 84.8035 48.7407 84.8369 48.6069 84.8619C48.5982 84.8286 48.5852 84.7868 48.5685 84.7371C48.8109 84.5015 49.0924 84.3076 49.4011 84.1637C49.4576 84.1333 49.5149 84.1042 49.5715 84.0766C49.6281 84.0489 49.7166 83.9972 49.8391 83.9291C49.9526 83.8672 50.0606 83.7961 50.1619 83.7165C50.3786 83.552 50.5755 83.3639 50.7486 83.1559C50.7763 83.1484 50.8048 83.1444 50.8334 83.1438C50.8693 83.1436 50.9048 83.1513 50.9372 83.1664C50.9696 83.1815 50.9981 83.2036 51.0206 83.231C51.0592 83.2682 51.0857 83.3158 51.0967 83.3678C51.1085 83.4058 51.117 83.4446 51.1221 83.484C51.0632 83.4808 51.005 83.497 50.9567 83.5301C50.911 83.5634 50.8421 83.6215 50.7486 83.7045C50.6376 83.8235 50.5346 83.9284 50.4382 84.0199C50.3464 84.1072 50.2452 84.1847 50.1365 84.2509ZM50.3236 78.6863C50.3345 78.7241 50.3401 78.7632 50.3403 78.8025C50.34 78.8446 50.3344 78.8865 50.3236 78.9272C50.294 79.0186 50.251 79.1052 50.1959 79.1845C50.1481 79.2554 50.0988 79.3263 50.0509 79.3858C50.0009 79.4486 49.9461 79.5076 49.887 79.5623C49.8588 79.5944 49.8261 79.6223 49.7898 79.6452C49.7678 79.6594 49.7431 79.6692 49.7173 79.6743C49.7091 79.677 49.7005 79.6785 49.6919 79.6786C49.6832 79.6786 49.6746 79.6772 49.6665 79.6743C49.6528 79.6692 49.6399 79.6623 49.6281 79.6538C49.5287 79.5765 49.4323 79.4971 49.338 79.417C49.2383 79.337 49.1334 79.2634 49.0239 79.1966C49.0124 79.1839 49.0051 79.1681 49.0029 79.1512C49.0062 79.1345 49.0134 79.1187 49.0239 79.1052L49.6694 78.1334C49.6897 78.1086 49.7086 78.0973 49.7274 78.0987C49.7495 78.1013 49.7707 78.1091 49.7891 78.1214C49.8456 78.1547 49.9029 78.1922 49.961 78.227C50.0182 78.2641 50.0716 78.3066 50.1205 78.3538C50.168 78.4001 50.2105 78.4509 50.2474 78.5055C50.2845 78.5604 50.3103 78.6218 50.3236 78.6863ZM51.6196 78.6111C51.6308 78.6489 51.6364 78.688 51.6363 78.7274C51.6365 78.7695 51.6309 78.8115 51.6196 78.8521C51.59 78.9435 51.547 79.0301 51.492 79.1094C51.4441 79.1803 51.3948 79.2512 51.3469 79.3107C51.2968 79.3736 51.242 79.4328 51.183 79.4879C51.1545 79.5196 51.1218 79.5475 51.0858 79.5708C51.0637 79.5847 51.0391 79.5946 51.0133 79.5999C51.0051 79.6027 50.9966 79.6041 50.9879 79.6041C50.9793 79.6042 50.9707 79.6028 50.9625 79.5999C50.9488 79.5945 50.9359 79.5874 50.9241 79.5786C50.8245 79.5016 50.7278 79.4227 50.634 79.3419C50.5339 79.2623 50.4288 79.1889 50.3192 79.1222C50.3077 79.1092 50.3003 79.0932 50.2982 79.0761C50.3015 79.0596 50.3087 79.0441 50.3192 79.0307L50.9654 78.059C50.985 78.0342 51.0039 78.0221 51.0227 78.0235C51.0448 78.0264 51.0659 78.0342 51.0844 78.0462C51.1409 78.0798 51.1982 78.1152 51.2563 78.1526C51.3716 78.2246 51.4703 78.3192 51.5464 78.4304C51.5824 78.4855 51.6072 78.5469 51.6196 78.6111Z" fill="black"></path><path d="M50.7443 83.1546C50.877 82.9973 50.9655 82.8988 51.0075 82.8598C51.0689 82.7843 51.1568 82.7337 51.2541 82.718C51.3225 82.7243 51.3905 82.734 51.4579 82.7471C51.536 82.7653 51.6156 82.7764 51.6958 82.7804C51.7311 82.7841 51.7667 82.7783 51.7989 82.7637C51.8311 82.7491 51.8586 82.7262 51.8786 82.6975C51.9154 82.6282 51.9332 82.5508 51.93 82.4728C51.9232 82.363 51.8831 82.2576 51.8147 82.1701C51.7864 82.1368 51.7516 82.0993 51.7088 82.0575C51.6631 82.0871 51.613 82.1095 51.5602 82.1241C51.4902 82.1474 51.4165 82.1587 51.3426 82.1574C51.1555 82.1574 51.0346 82.1215 50.98 82.0497C50.9124 81.9689 50.8776 81.8668 50.8821 81.7626C50.9047 81.6504 50.942 81.5416 50.993 81.4387C51.0264 81.3529 51.0561 81.2792 51.0822 81.2168L51.1461 81.0609C51.2074 80.9278 51.2801 80.8 51.3636 80.6789C51.4059 80.6261 51.4602 80.5837 51.5221 80.5549C51.584 80.5261 51.6519 80.5118 51.7205 80.513C51.8183 80.5265 51.912 80.5606 51.995 80.613C52.078 80.6654 52.1484 80.7348 52.2013 80.8164C52.4044 81.0771 52.5094 81.3982 52.4986 81.7257C52.4957 81.8733 52.4728 82.0199 52.4305 82.1616C52.3877 82.3262 52.3321 82.4873 52.2644 82.6436C52.1631 82.898 52.0275 83.138 51.8612 83.3574C51.8202 83.4154 51.7662 83.4635 51.7034 83.4981C51.6406 83.5327 51.5705 83.553 51.4985 83.5572C51.4368 83.5536 51.3759 83.5409 51.3179 83.5197C51.2551 83.4973 51.189 83.4846 51.1221 83.4821C51.0401 83.452 50.9635 83.4095 50.8951 83.3559C50.8291 83.3016 50.7774 83.2326 50.7443 83.1546ZM52.1948 77.0414C52.2056 77.0792 52.2112 77.1183 52.2114 77.1576C52.2113 77.1997 52.2057 77.2417 52.1948 77.2824C52.1651 77.3737 52.1222 77.4604 52.0671 77.5397C52.0193 77.6105 51.9699 77.6814 51.9221 77.7417C51.8721 77.8045 51.8173 77.8635 51.7582 77.9182C51.7296 77.9498 51.697 77.9777 51.661 78.0011C51.6388 78.015 51.6142 78.0248 51.5885 78.0301C51.5803 78.0329 51.5717 78.0343 51.5631 78.0344C51.5544 78.0345 51.5458 78.033 51.5377 78.0301C51.524 78.0249 51.5111 78.018 51.4992 78.0096C51.3996 77.9316 51.3029 77.8527 51.2091 77.7729C51.1096 77.6926 51.0047 77.619 50.8951 77.5524C50.8837 77.5396 50.8764 77.5239 50.8741 77.5071C50.8772 77.4903 50.8844 77.4745 50.8951 77.461L51.5406 76.4892C51.5609 76.4644 51.5798 76.4524 51.5986 76.4538C51.6207 76.4566 51.6418 76.4644 51.6603 76.4765C51.7168 76.5096 51.7741 76.545 51.8321 76.5828C51.8896 76.6198 51.943 76.6623 51.9917 76.7097C52.0391 76.7557 52.0817 76.8062 52.1186 76.8607C52.1564 76.9155 52.1832 76.9768 52.1977 77.0414H52.1948ZM53.4908 76.9705C53.502 77.0083 53.5076 77.0474 53.5075 77.0868C53.5076 77.1289 53.502 77.1708 53.4908 77.2115C53.4612 77.3028 53.4182 77.3895 53.3631 77.4688C53.3153 77.5397 53.266 77.6105 53.2181 77.6701C53.1681 77.7329 53.1133 77.7919 53.0542 77.8466C53.026 77.8786 52.9933 77.9066 52.957 77.9295C52.9352 77.944 52.9105 77.9539 52.8845 77.9586C52.8763 77.9613 52.8677 77.9628 52.8591 77.9628C52.8504 77.9629 52.8418 77.9614 52.8337 77.9586C52.8199 77.9537 52.8069 77.9468 52.7953 77.938C52.6959 77.8607 52.5995 77.7814 52.5052 77.7013C52.4052 77.6214 52.3001 77.548 52.1904 77.4815C52.1789 77.4685 52.1716 77.4525 52.1694 77.4355C52.1726 77.4189 52.1798 77.4034 52.1904 77.3901L52.8366 76.4184C52.8562 76.3929 52.875 76.3815 52.8939 76.3829C52.916 76.3856 52.9372 76.3933 52.9556 76.4056C53.0121 76.4389 53.0694 76.4765 53.1274 76.5112C53.1847 76.5484 53.2381 76.5909 53.287 76.6381C53.3343 76.6845 53.3768 76.7353 53.4139 76.7898C53.4518 76.8433 53.4789 76.9035 53.4937 76.967L53.4908 76.9705Z" fill="black"></path><path d="M54.0463 80.646C54.0826 80.5631 54.1123 80.522 54.1355 80.522C54.1587 80.522 54.1732 80.5354 54.1732 80.5631C54.1742 80.5756 54.1742 80.5881 54.1732 80.6006C54.1475 80.6999 54.1277 80.8004 54.1138 80.9019C54.0905 81.0436 54.0739 81.1556 54.0623 81.2357C54.0456 81.3775 54.0282 81.5362 54.0115 81.7134C53.9948 81.8906 53.9789 82.0721 53.9644 82.2578C53.9499 82.4435 53.9361 82.6285 53.9223 82.8057C53.9085 82.9829 53.8926 83.1423 53.8752 83.2834C53.8441 83.6439 53.7743 84.0003 53.667 84.3466C53.579 84.6121 53.4697 84.8705 53.3399 85.1191C53.2152 85.3559 53.1151 85.4799 53.0382 85.4905C53.0295 85.4905 53.0259 85.4842 53.0259 85.47C53.0297 85.4259 53.0397 85.3825 53.0556 85.341C53.0985 85.2253 53.1332 85.1069 53.1593 84.9866C53.1917 84.8448 53.2207 84.6934 53.2464 84.5323C53.2717 84.37 53.2949 84.2041 53.3145 84.0361C53.3341 83.8681 53.3515 83.7044 53.3653 83.552C53.3791 83.3996 53.4023 83.192 53.4168 82.9042C53.4313 82.6164 53.4516 82.3769 53.4799 82.1777C53.5023 82.0031 53.5451 81.8317 53.6075 81.6667L54.0463 80.646Z" fill="black"></path><path d="M57.7821 82.4034C57.6602 83.1344 57.5502 83.6797 57.4521 84.0393C57.3813 84.3202 57.2926 84.5964 57.1866 84.8665C57.1266 85.0253 57.0382 85.1724 56.9255 85.3009C56.7746 85.4317 56.5961 85.5285 56.4026 85.5845C56.1953 85.661 55.9831 85.7242 55.7673 85.7737C55.662 85.7984 55.5555 85.8178 55.4482 85.8318C55.4192 85.8335 55.3905 85.8246 55.3677 85.807C55.3661 85.8053 55.3649 85.8033 55.3642 85.8011C55.3634 85.7989 55.3631 85.7966 55.3633 85.7943C55.3679 85.767 55.3797 85.7414 55.3974 85.7198C55.4962 85.6029 55.6106 85.4994 55.7376 85.4122C55.9078 85.2818 56.1096 85.1197 56.3432 84.926C56.5357 84.7732 56.7117 84.6015 56.8682 84.4135C57.0032 84.2285 57.1072 84.0237 57.1765 83.8068C57.2654 83.5507 57.3525 83.283 57.4376 83.0038C57.5227 82.7245 57.5843 82.5355 57.6225 82.4368C57.6609 82.3368 57.6994 82.2886 57.7393 82.295C57.7471 82.2959 57.7546 82.2984 57.7614 82.3023C57.7683 82.3061 57.7742 82.3113 57.7789 82.3174C57.7837 82.3236 57.7871 82.3306 57.789 82.3381C57.7909 82.3455 57.7913 82.3533 57.79 82.3609C57.7889 82.3753 57.7862 82.3896 57.7821 82.4034Z" fill="black"></path><path d="M59.9999 84.2428C59.8816 84.5414 59.7388 84.8301 59.5727 85.1061C59.4936 85.2384 59.3941 85.358 59.2775 85.4605C59.1707 85.5354 59.0525 85.5935 58.9272 85.6327C58.7691 85.6882 58.6081 85.7355 58.4449 85.7745C58.3212 85.8074 58.1944 85.8276 58.0664 85.8347C58.0323 85.8347 58.0156 85.8347 58.0156 85.8305L58.0112 85.822C58.0112 85.786 58.1302 85.696 58.3681 85.5519C58.5869 85.4192 58.7982 85.2751 59.0012 85.1203C59.1653 84.994 59.3155 84.8515 59.4494 84.695C59.5745 84.5522 59.6705 84.3874 59.7323 84.2095C59.6951 84.2252 59.6568 84.2382 59.6177 84.2485C59.5701 84.2617 59.5216 84.2714 59.4726 84.2775C59.4233 84.2846 59.3762 84.2896 59.3276 84.2924C59.2879 84.2955 59.248 84.294 59.2086 84.2881C59.0599 84.2819 58.9179 84.2256 58.8068 84.1287C58.7557 84.0847 58.7156 84.03 58.6894 83.9686C58.6633 83.9071 58.6518 83.8407 58.656 83.7743C58.668 83.6911 58.6879 83.6093 58.7154 83.5298C58.7717 83.3773 58.8371 83.2282 58.9113 83.0832C58.9962 82.9016 59.1054 82.7319 59.2362 82.5786C59.2736 82.5246 59.3223 82.4789 59.379 82.4446C59.4358 82.4103 59.4993 82.388 59.5654 82.3794C59.6505 82.3792 59.7343 82.3989 59.81 82.4367C59.8856 82.4746 59.951 82.5295 60.0006 82.597C60.1196 82.7492 60.1918 82.9314 60.2087 83.1222C60.2087 83.164 60.2131 83.2058 60.2131 83.2469C60.2131 83.3079 60.2102 83.3689 60.2044 83.4298C60.1958 83.5155 60.1822 83.6007 60.1638 83.685C60.1485 83.7559 60.1253 83.8402 60.0913 83.9472C60.0572 84.0542 60.0369 84.1514 59.9999 84.2428Z" fill="black"></path><path d="M59.6888 83.6119V83.5247C59.759 83.3186 59.8944 83.1397 60.0754 83.0136C60.2658 82.9158 60.4213 82.7638 60.5214 82.5777C60.5978 82.4313 60.7187 82.2153 60.884 81.9299C60.9515 81.8318 61.0241 81.7372 61.1016 81.6464C61.2051 81.5281 61.3187 81.4186 61.441 81.3189C61.4696 81.2887 61.5476 81.1819 61.6753 80.9986C61.7188 80.9276 61.7673 80.8596 61.8203 80.7951C61.8878 80.7895 61.9987 80.8908 62.1518 81.0985C62.2837 81.2674 62.3596 81.4717 62.3693 81.684C62.3698 81.8545 62.3245 82.0221 62.2381 82.1702C62.1621 82.3088 62.0525 82.427 61.919 82.5147C61.8452 82.5636 61.7579 82.5895 61.6687 82.5891C61.6044 82.5857 61.5404 82.5774 61.4773 82.5643C61.3924 82.5565 61.3322 82.5522 61.2945 82.5522C61.2272 82.5512 61.16 82.5595 61.0951 82.577C60.8215 82.7344 60.6102 82.9774 60.4953 83.2667C60.4445 83.3659 60.4017 83.4453 60.3684 83.5034C60.335 83.5615 60.3111 83.6012 60.3002 83.6232C60.2305 83.743 60.1509 83.857 60.0623 83.9641C60.0022 84.0542 59.9275 84.1342 59.8411 84.2009C59.7707 84.2489 59.6935 84.2866 59.6119 84.3128L59.6888 83.6119Z" fill="black"></path><path d="M63.914 80.646C63.9502 80.5631 63.98 80.522 64.0032 80.522C64.0264 80.522 64.0409 80.5354 64.0409 80.5631C64.0418 80.5756 64.0418 80.5881 64.0409 80.6006C64.0152 80.6999 63.9951 80.8005 63.9807 80.9019C63.9582 81.0436 63.9415 81.1556 63.9299 81.2357C63.9133 81.3775 63.8958 81.5362 63.8792 81.7134C63.8625 81.8906 63.8465 82.0721 63.832 82.2578C63.8175 82.4435 63.8037 82.6285 63.79 82.8057C63.7762 82.9829 63.7602 83.1423 63.7428 83.2834C63.7118 83.6439 63.642 84.0003 63.5347 84.3466C63.4467 84.6121 63.3373 84.8705 63.2076 85.1191C63.0828 85.3559 62.9828 85.4799 62.9059 85.4905C62.8972 85.4905 62.8928 85.4842 62.8928 85.47C62.8971 85.4259 62.907 85.3826 62.9226 85.341C62.9661 85.2255 63.001 85.107 63.027 84.9866C63.0599 84.8448 63.0889 84.6934 63.114 84.5323C63.1394 84.37 63.1626 84.2041 63.1822 84.0361C63.2018 83.8681 63.2192 83.7044 63.233 83.552C63.2467 83.3996 63.27 83.192 63.2845 82.9042C63.299 82.6164 63.3193 82.3769 63.3476 82.1777C63.3696 82.0031 63.4124 81.8316 63.4752 81.6667L63.914 80.646Z" fill="black"></path><path d="M73.3604 83.109C73.3638 83.1212 73.3653 83.1339 73.3648 83.1465C73.362 83.1958 73.3535 83.2445 73.3394 83.2918C73.2851 83.4557 73.2167 83.6148 73.1349 83.7674C73.0401 83.9519 72.9307 84.129 72.8078 84.2969C72.6855 84.4632 72.5363 84.609 72.3661 84.7285C72.1132 84.9007 71.8427 85.0468 71.5589 85.1644C71.2174 85.3025 70.8665 85.4171 70.5088 85.5075C70.0712 85.6193 69.6259 85.7003 69.1765 85.7499C68.7134 85.8048 68.2475 85.8327 67.7811 85.8335C67.3805 85.8402 66.9799 85.8194 66.5822 85.7712C66.2238 85.7431 65.8842 85.6032 65.6133 85.3721C65.5263 85.293 65.4581 85.1962 65.4134 85.0886C65.3686 84.981 65.3485 84.8651 65.3544 84.7491C65.3544 84.647 65.3643 84.5003 65.3841 84.3089C65.4037 84.1183 65.4305 83.9269 65.4646 83.7362C65.4791 83.6554 65.4915 83.5839 65.5031 83.5236C65.5092 83.4863 65.5207 83.45 65.5372 83.4159C65.5411 83.4051 65.5472 83.3953 65.5552 83.387C65.5632 83.3787 65.5728 83.3721 65.5836 83.3677C65.601 83.3634 65.6169 83.3748 65.6329 83.401C65.654 83.4439 65.6689 83.4894 65.6771 83.5364C65.6887 83.6072 65.704 83.6781 65.7243 83.749C65.7485 83.8401 65.7946 83.9242 65.8589 83.9944C65.9231 84.0645 66.0035 84.1186 66.0934 84.1523C66.8449 84.4031 67.6375 84.5156 68.4309 84.484C68.7964 84.484 69.2057 84.4675 69.6588 84.4344C70.1158 84.4004 70.5697 84.3346 71.0172 84.2374C71.4072 84.1576 71.789 84.0435 72.158 83.8964C72.3867 83.8076 72.6069 83.699 72.8158 83.5718C72.9475 83.4837 73.0649 83.3766 73.1639 83.2543C73.2042 83.1962 73.2498 83.1419 73.3002 83.092C73.3045 83.0891 73.3094 83.0871 73.3145 83.0861C73.3196 83.0852 73.3249 83.0852 73.33 83.0863C73.3368 83.0867 73.3433 83.089 73.3488 83.0931C73.3542 83.0971 73.3583 83.1026 73.3604 83.109ZM69.0046 81.0989C69.016 81.1366 69.0219 81.1757 69.022 81.2151C69.0219 81.2573 69.0161 81.2992 69.0046 81.3398C68.975 81.4312 68.932 81.5178 68.8769 81.5971C68.8291 81.668 68.7805 81.7389 68.7319 81.7984C68.6822 81.8612 68.6276 81.9202 68.5687 81.9749C68.5402 82.0069 68.5072 82.0348 68.4708 82.0578C68.449 82.0725 68.4243 82.0824 68.3983 82.0869C68.3901 82.0898 68.3815 82.0912 68.3729 82.0912C68.3642 82.0911 68.3557 82.0897 68.3475 82.0869C68.3337 82.0821 68.3207 82.0751 68.3091 82.0663C68.2097 81.9891 68.114 81.9097 68.019 81.8296C67.919 81.7498 67.8139 81.6764 67.7042 81.6099C67.693 81.5967 67.6858 81.5808 67.6832 81.5638C67.6867 81.5474 67.6939 81.5319 67.7042 81.5185L68.3504 80.5467C68.37 80.5219 68.3888 80.5099 68.4077 80.5113C68.4298 80.5141 68.4509 80.5219 68.4694 80.534C68.5259 80.5675 68.5832 80.6029 68.6412 80.6403C68.6986 80.677 68.7521 80.7192 68.8008 80.7664C68.8481 80.813 68.8908 80.8638 68.9284 80.9181C68.9655 80.973 68.9914 81.0344 69.0046 81.0989ZM70.3006 81.0237C70.3121 81.0617 70.3179 81.1011 70.318 81.1407C70.3179 81.1826 70.3121 81.2243 70.3006 81.2647C70.2711 81.3563 70.2281 81.4432 70.173 81.5227C70.1251 81.5936 70.0765 81.6645 70.0279 81.724C69.9782 81.7868 69.9236 81.8458 69.8647 81.9005C69.8362 81.9324 69.8032 81.9604 69.7668 81.9834C69.7447 81.9975 69.7201 82.0073 69.6943 82.0125C69.6862 82.0154 69.6776 82.0168 69.6689 82.0167C69.6603 82.0167 69.6517 82.0153 69.6435 82.0125C69.63 82.0071 69.6171 82.0002 69.6051 81.9919C69.5084 81.914 69.4117 81.835 69.315 81.7552C69.2152 81.675 69.11 81.6013 69.0002 81.5348C68.9891 81.5218 68.9818 81.5061 68.9792 81.4894C68.9828 81.4728 68.99 81.4571 69.0002 81.4433L69.6464 80.4716C69.666 80.4468 69.6856 80.4347 69.7037 80.4361C69.7259 80.439 69.7471 80.447 69.7654 80.4595C69.8219 80.4921 69.8792 80.5304 69.9373 80.5651C69.9948 80.6019 70.0483 80.6444 70.0968 80.692C70.1445 80.7383 70.1872 80.7891 70.2245 80.8437C70.2618 80.8982 70.2876 80.9594 70.3006 81.0237Z" fill="black"></path><path d="M75.3491 82.4029C75.2272 83.1338 75.1175 83.6791 75.0198 84.0387C74.9482 84.3184 74.8596 84.5937 74.7544 84.863C74.6939 85.0218 74.6052 85.1688 74.4926 85.2975C74.342 85.4284 74.1637 85.5252 73.9704 85.581C73.763 85.6574 73.5508 85.7206 73.3351 85.7703C73.2298 85.795 73.1233 85.8144 73.0159 85.8284C72.9869 85.83 72.9583 85.8212 72.9354 85.8036C72.9339 85.8019 72.9327 85.7998 72.9319 85.7977C72.9312 85.7955 72.9309 85.7931 72.9311 85.7908C72.9357 85.7636 72.9474 85.7379 72.9652 85.7164C73.0642 85.5996 73.1785 85.4962 73.3053 85.4088C73.475 85.2784 73.6769 85.1163 73.9109 84.9226C74.1032 84.7698 74.279 84.5981 74.4353 84.4101C74.5708 84.2254 74.6749 84.0206 74.7435 83.8034C74.8325 83.5473 74.9197 83.2796 75.0053 83.0004C75.0909 82.7211 75.1523 82.5321 75.1895 82.4333C75.228 82.3334 75.2671 82.2852 75.307 82.2916C75.3148 82.2926 75.3223 82.2952 75.329 82.299C75.3358 82.3029 75.3417 82.3081 75.3464 82.3142C75.3512 82.3203 75.3546 82.3273 75.3565 82.3347C75.3585 82.3422 75.3589 82.3499 75.3578 82.3575C75.3568 82.3729 75.3539 82.3881 75.3491 82.4029Z" fill="black"></path><path d="M77.2318 80.6257C77.2688 80.5428 77.2986 80.501 77.321 80.501C77.3435 80.501 77.3595 80.5152 77.3595 80.5428C77.3593 80.5554 77.3578 80.568 77.3551 80.5804C77.3097 80.8814 77.2785 81.094 77.2616 81.2183C77.242 81.36 77.226 81.4784 77.2144 81.5727C77.2028 81.6669 77.1934 81.7576 77.1847 81.8363C77.176 81.915 77.1695 81.9923 77.1637 82.0667C77.1579 82.1411 77.1513 82.2276 77.1426 82.324C77.111 82.6852 77.0381 83.0418 76.9251 83.3871C76.8321 83.6535 76.7154 83.9113 76.5762 84.1576C76.442 84.3943 76.3362 84.5184 76.26 84.5297C76.2513 84.5297 76.2469 84.5226 76.2469 84.5091C76.2511 84.4651 76.2611 84.4217 76.2767 84.3801C76.3201 84.2644 76.3558 84.146 76.3833 84.0258C76.4171 83.884 76.4476 83.7323 76.4747 83.5707C76.5015 83.4091 76.5254 83.2426 76.5472 83.0746C76.569 82.9066 76.5864 82.7429 76.6009 82.5905C76.6059 82.4997 76.6234 82.3537 76.6516 82.1546C76.6737 81.9802 76.7166 81.8089 76.7793 81.6442L77.2318 80.6257Z" fill="black"></path><path d="M79.3271 82.4034C79.2053 83.1344 79.0953 83.6797 78.9971 84.0392C78.9262 84.3191 78.8375 84.5944 78.7317 84.8636C78.6716 85.0224 78.5832 85.1695 78.4706 85.298C78.3196 85.4288 78.1411 85.5256 77.9477 85.5816C77.7403 85.6581 77.5281 85.7213 77.3124 85.7708C77.2073 85.7955 77.1011 85.8149 76.994 85.8289C76.9647 85.8306 76.9358 85.8218 76.9127 85.8041C76.9114 85.8 76.9114 85.7955 76.9127 85.7914C76.917 85.7641 76.9285 85.7385 76.9461 85.7169C77.0453 85.6003 77.1596 85.4969 77.2862 85.4093C77.4569 85.2789 77.6588 85.1168 77.8918 84.9231C78.0844 84.7703 78.2603 84.5986 78.4169 84.4106C78.5522 84.2258 78.6562 84.021 78.7251 83.8039C78.8146 83.5478 78.9016 83.2801 78.9862 83.0009C79.0709 82.7216 79.1325 82.5326 79.1712 82.4338C79.2096 82.3339 79.2481 82.2857 79.2879 82.2921C79.2958 82.293 79.3033 82.2955 79.3101 82.2994C79.3169 82.3032 79.3229 82.3084 79.3276 82.3145C79.3324 82.3207 79.3358 82.3277 79.3377 82.3352C79.3396 82.3426 79.3399 82.3504 79.3387 82.358C79.3366 82.3735 79.3327 82.3887 79.3271 82.4034ZM79.739 79.9652C79.7476 79.9964 79.7518 80.0285 79.7514 80.0608C79.7513 80.1072 79.7443 80.1533 79.7303 80.1976C79.7015 80.2908 79.6585 80.3792 79.6027 80.4599C79.5548 80.5308 79.507 80.6016 79.4576 80.6633C79.4074 80.7296 79.3506 80.7909 79.2879 80.8462C79.2154 80.9171 79.1574 80.9589 79.1175 80.9603C79.0842 80.9634 79.0509 80.9538 79.0247 80.9334L78.8992 80.8228C78.8463 80.7774 78.7919 80.7306 78.7353 80.681C78.6787 80.6314 78.6229 80.5896 78.5678 80.5485C78.5233 80.5143 78.4771 80.4824 78.4292 80.4528C78.4176 80.4444 78.4087 80.4328 78.4039 80.4195C78.4039 80.4081 78.4097 80.389 78.4292 80.3614L79.0754 79.3974C79.0979 79.3677 79.1153 79.3535 79.1262 79.3563C79.1542 79.3663 79.1812 79.3789 79.2067 79.3939C79.2611 79.4265 79.3162 79.4648 79.3728 79.4995C79.4289 79.5365 79.4815 79.5782 79.5302 79.6242C79.5787 79.6705 79.6215 79.7221 79.6578 79.778C79.6947 79.8359 79.7221 79.899 79.739 79.9652Z" fill="black"></path><path d="M81.4347 84.2428C81.3161 84.5412 81.1733 84.8299 81.0075 85.1061C80.9284 85.2384 80.8289 85.358 80.7123 85.4605C80.6051 85.5352 80.4867 85.5933 80.3613 85.6327C80.2032 85.6883 80.0423 85.7356 79.879 85.7745C79.7556 85.8074 79.6289 85.8276 79.5012 85.8347C79.4671 85.8347 79.4497 85.8347 79.4497 85.8305L79.446 85.822C79.446 85.786 79.565 85.696 79.8029 85.5519C80.0214 85.4189 80.2328 85.2748 80.436 85.1203C80.5997 84.9937 80.7499 84.8512 80.8842 84.695C81.0093 84.5522 81.1053 84.3874 81.1671 84.2095C81.1297 84.2253 81.0911 84.2383 81.0518 84.2485C81.0043 84.2618 80.9558 84.2715 80.9067 84.2775C80.8574 84.2846 80.8095 84.2896 80.7617 84.2924C80.722 84.2955 80.6821 84.294 80.6427 84.2881C80.494 84.2819 80.352 84.2256 80.2409 84.1287C80.1897 84.0848 80.1494 84.0301 80.1233 83.9686C80.0971 83.9072 80.0858 83.8407 80.0901 83.7743C80.1021 83.6911 80.122 83.6093 80.1495 83.5298C80.2058 83.3773 80.2712 83.2282 80.3454 83.0832C80.43 82.9015 80.5393 82.7318 80.6703 82.5786C80.7076 82.5245 80.7563 82.4788 80.813 82.4445C80.8698 82.4101 80.9334 82.388 80.9995 82.3794C81.0845 82.3793 81.1683 82.399 81.244 82.4368C81.3197 82.4747 81.385 82.5296 81.4347 82.597C81.5533 82.7494 81.6255 82.9315 81.6428 83.1222C81.6428 83.164 81.6428 83.2058 81.6428 83.2469C81.6428 83.3079 81.6428 83.3689 81.6349 83.4298C81.6263 83.5155 81.6127 83.6007 81.5942 83.685C81.579 83.7559 81.5551 83.8402 81.5217 83.9472C81.4884 84.0542 81.4717 84.1514 81.4347 84.2428Z" fill="black"></path></g><g clip-path="url(#clip1_9871_489)"><path fill-rule="evenodd" clip-rule="evenodd" d="M66.0516 63.5125C65.9731 64.0614 65.8553 64.6037 65.6991 65.1349C65.6019 65.48 65.4953 65.8244 65.3947 66.1326C65.2445 66.6843 65.01 67.2082 64.6998 67.6848C64.1832 68.2206 63.5461 68.6186 62.8445 68.8441C62.6196 68.9305 62.3892 69.0009 62.1549 69.0548C62.063 69.0739 61.9351 69.0746 61.8851 69.0044C61.6373 68.6538 63.0177 67.7339 63.2455 67.5654C63.6058 67.31 63.9433 67.0224 64.2541 66.7062C64.4959 66.4509 64.6962 66.1579 64.8477 65.838C65.0042 65.4976 65.1417 65.1483 65.2594 64.7919C65.4367 64.2674 65.486 63.9981 65.6592 63.462C65.6931 63.3597 65.7511 63.2254 65.8823 63.2261C66.0342 63.2268 66.0722 63.3775 66.0516 63.5125Z" fill="black"></path><path fill-rule="evenodd" clip-rule="evenodd" d="M43.963 60.0304C43.7387 59.9639 43.5194 59.8807 43.3068 59.7815C43.2322 59.7345 43.2295 59.6642 43.3008 59.4808L43.9137 57.9027C44.003 57.6742 44.2908 57.5822 44.6465 57.6436C45.0463 57.7117 45.9177 58.0527 45.9177 58.4742C45.8529 59.0648 45.6151 59.6216 45.2355 60.0714C45.015 60.2984 44.3627 60.7376 43.9151 61.1168C43.4548 61.4948 43.0248 61.9098 42.6293 62.358C42.4945 62.5132 42.3762 62.6826 42.2762 62.8633C42.0803 63.2405 42.1723 63.4014 42.538 63.5917C42.9417 63.8017 43.492 63.947 43.492 64.6726C43.4793 65.445 43.3549 66.2112 43.1229 66.9463C42.7665 68.0473 42.1567 69.0444 41.3448 69.8535C40.5349 70.6593 39.4587 71.1242 38.3296 71.156C37.9558 71.1688 37.5842 71.0929 37.2439 70.9342C36.9035 70.7756 36.6036 70.5385 36.3676 70.2415C36.0155 69.7131 35.7861 69.1093 35.6969 68.4762C35.6078 67.8431 35.6613 67.1976 35.8533 66.5889C36.1282 65.5173 36.5356 64.486 37.0658 63.5201C37.2697 63.1266 37.4802 62.7358 37.6867 62.3437C37.8033 62.1193 37.9312 61.9012 38.0698 61.6903C38.0886 61.6602 38.1174 61.638 38.151 61.6278C38.1845 61.6177 38.2205 61.6203 38.2523 61.6351C38.3269 61.6753 38.2803 61.8799 38.2477 61.9631C38.0605 62.4446 37.8373 62.9104 37.6114 63.37C37.297 63.9774 37.0245 64.6066 36.796 65.2529C36.4629 66.2616 36.2237 67.678 37.2224 68.3995C37.7091 68.7086 38.2785 68.8531 38.8499 68.8128C40.3156 68.7848 42.0477 68.1008 42.6846 66.6373C42.7379 66.5264 42.7683 66.4055 42.7738 66.282C42.7738 65.8913 41.9191 65.7999 41.4161 65.3757C40.9131 64.9515 41.1043 64.095 41.2929 63.5712C41.477 63.0751 41.716 62.6021 42.005 62.1616C42.5596 61.3631 43.2184 60.646 43.963 60.0304Z" fill="black"></path><path fill-rule="evenodd" clip-rule="evenodd" d="M74.3425 63.2705C73.9135 64.0022 73.5857 64.7537 73.1913 65.5421C73.0941 65.7365 72.8516 65.8094 72.8902 65.5312C72.9215 65.3007 73.1161 64.764 73.1827 64.4366C73.245 64.2219 73.2283 63.9913 73.1357 63.7883C73.0432 63.5854 72.8812 63.4242 72.6804 63.3353C72.4934 63.2556 72.2866 63.2383 72.0894 63.2856C71.8923 63.333 71.7147 63.4427 71.5818 63.5992C71.433 63.7518 71.3018 63.9214 71.1907 64.1045L71.1827 64.1161C70.7923 64.6992 70.2061 65.4432 70.0362 65.7487C69.8257 66.1265 69.5832 66.7321 69.378 67.1072C69.2398 67.3956 69.0419 67.6497 68.7982 67.8519C68.5544 68.0541 68.2705 68.1995 67.9663 68.2781C67.5246 68.452 66.5673 68.7999 66.0923 68.9171C66.0206 68.9381 65.9447 68.9381 65.8731 68.9171C65.852 68.9081 65.833 68.8945 65.8176 68.8771C65.8022 68.8598 65.7908 68.8392 65.784 68.8168C65.7773 68.7944 65.7754 68.7708 65.7786 68.7476C65.7818 68.7244 65.79 68.7022 65.8025 68.6826C65.8436 68.6204 65.8998 68.5703 65.9657 68.5373C66.6279 68.1424 67.3221 67.7714 67.883 67.4196C68.4238 67.1136 68.8745 66.6647 69.1881 66.1197C68.2901 66.1047 67.5533 65.6669 67.975 64.6821L68.3714 63.756C68.4361 63.6016 68.5213 63.457 68.6245 63.3264C69.1462 62.7085 70.1201 63.4369 70.2054 64.1557C70.2167 64.2491 70.2594 64.3036 70.3387 64.2457C70.7666 63.7633 71.1345 63.2284 71.4339 62.6533C71.6345 62.3281 71.8772 62.0321 72.1554 61.7736C72.3215 61.6401 72.5162 61.549 72.7235 61.5077C72.9307 61.4664 73.1446 61.4761 73.3475 61.5361C73.5504 61.596 73.7364 61.7045 73.8903 61.8525C74.0442 62.0005 74.1615 62.1838 74.2326 62.3873C74.3099 62.2445 74.3974 62.1077 74.4944 61.9781C74.7463 61.6208 75.1899 60.9791 75.635 60.93C75.7276 60.6897 75.843 60.4592 75.9794 60.2419C76.1355 59.9747 76.3315 59.7343 76.5603 59.5292C76.8339 59.3008 77.1279 59.0994 77.4384 58.9277C77.7919 58.7189 78.1572 58.5317 78.5323 58.3671C78.3179 58.3065 78.1001 58.2592 77.8801 58.2253C77.5886 58.1755 77.2945 58.1433 76.9994 58.1291C76.8394 58.115 76.6792 58.1545 76.543 58.2416C76.4412 58.3271 76.3503 58.4254 76.2725 58.5342C76.207 58.6235 76.1353 58.7078 76.058 58.7865C75.9528 58.8861 75.8089 58.8793 75.8202 58.6931C75.9042 58.3487 76.0707 58.0311 76.3045 57.769C76.4415 57.5879 76.5954 57.4209 76.7642 57.2705C76.8498 57.1964 76.9446 57.134 77.046 57.085C77.3671 56.973 77.7099 56.9417 78.0453 56.9936C78.3424 57.0196 78.7322 57.0653 79.1059 57.1246C79.407 57.1671 79.7052 57.2293 79.9986 57.3108C80.2138 57.379 80.3424 57.5372 80.2758 57.7459C80.2457 57.8345 80.2078 57.9201 80.1625 58.0016C80.1198 58.0919 80.0639 58.1749 79.9966 58.2478C79.9077 58.3342 79.8078 58.4078 79.6995 58.4667C79.3404 58.6808 78.7928 58.9441 78.3204 59.1718C77.797 59.4016 77.2945 59.6784 76.8188 59.9991C76.605 60.1682 76.4497 60.3496 76.6436 60.6081C76.7957 60.771 76.9596 60.9219 77.1339 61.0595C77.2912 61.2034 77.3518 61.3044 77.3578 61.4005C77.3367 61.6129 77.2541 61.8141 77.1206 61.9781C77.022 62.132 76.9072 62.2742 76.7782 62.4023C76.7332 62.4543 76.6737 62.491 76.6077 62.5075C76.5418 62.5239 76.4725 62.5194 76.4091 62.4944C76.2572 62.446 76.0454 62.3512 75.8681 62.283C75.7436 62.2352 75.6137 62.1677 75.4877 62.1343C75.0167 62.015 74.5431 62.9288 74.3425 63.2705Z" fill="black"></path><path fill-rule="evenodd" clip-rule="evenodd" d="M48.4138 66.5103C48.2804 66.9382 48.1017 67.3498 47.8809 67.7379C47.5478 68.3135 46.6684 69.2996 46.0401 69.3132C45.7197 69.3207 45.2134 68.8127 44.9442 68.4751C44.8801 68.4105 44.8428 68.3231 44.8402 68.2311C44.8376 68.1391 44.8699 68.0496 44.9302 67.9813C44.9662 67.9445 45.0295 67.9268 45.0808 67.8647C45.3472 67.4695 45.5219 67.0172 45.5918 66.5424C45.7292 65.7918 45.8056 65.0309 45.8203 64.2674C45.8477 63.3622 46.0259 62.4685 46.3473 61.6247C46.5425 61.1474 46.6391 60.8623 46.8489 60.3938C46.8774 60.302 46.9242 60.2173 46.9862 60.1449C47.0854 60.0521 47.162 60.166 47.1627 60.2738C47.1564 60.4076 47.1377 60.5405 47.1067 60.6707C47.0141 61.1201 46.8982 61.6854 46.8269 62.2487C46.7297 63.5481 46.5586 64.8406 46.3146 66.1196C46.1543 66.7837 45.8562 67.4047 45.4406 67.9404C45.7487 67.992 46.064 67.9747 46.365 67.8897C46.6659 67.8047 46.9453 67.654 47.184 67.448C47.5398 67.0849 47.7912 66.6286 47.9108 66.1291C47.9699 65.875 48.0065 65.6159 48.0201 65.3551C48.0607 64.6731 48.0634 63.9912 48.0974 63.3153C48.0996 62.3522 48.2472 61.3953 48.5351 60.4783C48.6683 60.1374 48.7776 59.7834 48.9042 59.4554C48.9375 59.3695 49.0014 59.229 49.116 59.2508C49.2106 59.2719 49.192 59.4452 49.188 59.5031C49.1753 59.7077 49.1506 59.8789 49.1213 60.1265C49.0634 60.6277 48.9701 61.266 48.9341 61.7823C48.8632 62.3463 48.8873 62.9186 49.0054 63.4742C49.0687 63.7748 49.2299 64.0444 49.4626 64.2388C49.6952 64.4332 49.9855 64.5409 50.2859 64.5442C50.5653 64.5814 50.8493 64.5352 51.1038 64.4114C51.3583 64.2875 51.5726 64.0912 51.7209 63.8459C51.8013 63.7379 51.8939 63.6399 51.9967 63.554C52.0522 63.5085 52.1215 63.4844 52.1925 63.4858C52.3194 63.5053 52.4426 63.5449 52.5576 63.6031C52.6273 63.6291 52.7018 63.6384 52.7755 63.6304C52.9328 63.597 53.0717 63.503 53.1632 63.3678C53.3545 63.1315 53.5089 62.8663 53.6209 62.5815C53.6455 62.5133 53.6795 62.4738 53.7181 62.4711C53.7568 62.4683 53.7594 62.4942 53.8181 62.5208C53.8782 62.55 53.9452 62.5611 54.0113 62.5529C54.4023 62.4908 54.4323 61.5981 54.6615 61.3322C54.7354 61.2435 54.834 61.2456 54.8727 61.3199C54.8943 61.3729 54.9032 61.4304 54.8987 61.4877C54.8505 62.0019 54.7115 62.5029 54.4883 62.9662C54.4022 63.1822 54.2699 63.3758 54.1011 63.5326C53.9323 63.6895 53.7313 63.8056 53.513 63.8725C53.2345 64.2933 52.8254 64.9077 52.2965 64.9766C51.936 65.023 51.7595 64.8832 51.479 65.1321C51.2565 65.3637 51.0736 65.6321 50.9381 65.9259C50.8409 66.1178 50.7059 66.2871 50.5418 66.4231C50.3776 66.5592 50.1877 66.659 49.9841 66.7163C49.7162 66.7804 49.4357 66.7592 49.18 66.6556C48.9192 66.5568 48.6892 66.3881 48.5138 66.1673C48.4822 66.2851 48.4489 66.3994 48.4138 66.5103Z" fill="black"></path><path fill-rule="evenodd" clip-rule="evenodd" d="M22.1488 61.5867C22.1355 61.6368 22.1197 61.6862 22.1015 61.7347C22.0282 61.9215 21.9516 62.1111 21.8723 62.3021C21.5828 62.9369 21.355 63.5993 21.1921 64.2798C21.1279 64.5861 21.1035 64.8998 21.1195 65.2127C21.1279 65.5012 21.2022 65.7837 21.3364 66.0376C21.4706 66.2915 21.661 66.5097 21.8923 66.6748C23.1441 67.5839 25.1307 67.2245 26.3339 66.4259C27.0371 65.9463 27.5942 65.2737 27.9414 64.485C28.1389 64.037 28.2433 63.5519 28.2479 63.0604C28.2712 62.3253 28.1706 61.691 28.2372 60.9354C28.2883 60.5608 28.385 60.1943 28.525 59.8443C28.6463 59.5237 28.7788 59.1623 28.9087 58.8261C28.9532 58.7052 29.0085 58.5887 29.074 58.4783C29.0818 58.4618 29.095 58.4485 29.1113 58.4407C29.1275 58.4329 29.1459 58.431 29.1634 58.4354C29.1808 58.4398 29.1962 58.4502 29.2071 58.4648C29.218 58.4794 29.2237 58.4974 29.2232 58.5158C29.2259 58.5635 29.2232 58.6113 29.2152 58.6583C29.1939 58.8145 29.1766 58.9748 29.1639 59.1357C29.1006 59.9404 29.1106 60.754 29.0606 61.5615C28.9139 63.9524 27.9802 66.2218 26.4118 67.9999C26.1163 68.323 25.7803 68.6046 25.4125 68.8374C24.2886 69.5323 22.5225 69.7689 21.4259 68.898C20.4619 68.1322 20.1642 66.6701 20.4933 65.1309C20.6423 64.4584 20.854 63.802 21.1255 63.1709C21.306 62.7419 21.4986 62.3014 21.7077 61.8711C21.7804 61.7224 21.8516 61.5669 21.9316 61.4278C21.9496 61.3945 21.972 61.364 21.9982 61.3371C22.0141 61.321 22.0352 61.3115 22.0575 61.3105C22.0734 61.3079 22.0896 61.31 22.1044 61.3165C22.1191 61.323 22.1317 61.3337 22.1408 61.3473C22.1575 61.3838 22.1669 61.4234 22.1684 61.4637C22.1699 61.504 22.1634 61.5442 22.1494 61.5819L22.1488 61.5867ZM25.9774 62.7719C26.0278 62.6239 26.0384 62.4649 26.0083 62.3112C25.9782 62.1576 25.9084 62.015 25.8062 61.8983C25.5675 61.6442 25.2915 61.4297 24.9881 61.2628C24.7976 61.1489 24.7883 61.2184 24.6783 61.4223C24.3886 61.9679 24.0788 62.461 23.8243 62.9288C23.743 63.0809 23.6864 63.1729 23.8569 63.2746C24.141 63.436 24.416 63.6138 24.6803 63.8072C24.7628 63.8876 24.8581 63.9529 24.9622 64.0002C25.0408 64.0186 25.122 63.9811 25.2626 63.8535C25.4484 63.7014 25.6063 63.5166 25.729 63.308C25.8286 63.1384 25.9118 62.9594 25.9774 62.7733V62.7719Z" fill="black"></path><path fill-rule="evenodd" clip-rule="evenodd" d="M64.0103 59.1875C63.9754 59.563 63.8707 59.9283 63.7019 60.2636C63.5486 60.5787 63.2975 60.9292 63.1622 60.9354C63.1183 60.9354 63.0903 60.889 63.0583 60.8467C62.9983 60.7683 62.9364 60.7846 62.8505 60.801C62.2217 61.0127 61.6525 61.3773 61.1916 61.8635C60.7612 62.2897 60.3775 62.8183 60.3922 63.1286C60.3975 63.2513 60.5787 63.3625 60.7919 63.4743C60.9821 63.5619 61.1666 63.6622 61.3442 63.7744C61.4958 63.8696 61.6219 64.0021 61.711 64.1597C61.8001 64.3174 61.8494 64.4953 61.8545 64.6773C61.8731 65.2222 61.82 65.7672 61.6966 66.2977C61.4706 67.3065 61.0547 68.2607 60.4721 69.1067C60.0406 69.7226 59.4829 70.2347 58.8379 70.607C58.4007 70.8862 57.9046 71.0544 57.391 71.0976C56.8774 71.1408 56.3612 71.0577 55.8853 70.8552C55.6104 70.7087 55.3698 70.503 55.1798 70.2524C54.7871 69.6675 54.5763 68.9748 54.5749 68.2651C54.549 67.2383 54.7168 66.216 55.0692 65.2543C55.357 64.4727 55.7082 63.7172 56.1191 62.9956C56.2717 62.7194 56.4296 62.4452 56.5855 62.1718C56.6554 62.0517 56.7514 61.8403 56.834 61.6787C56.8591 61.6242 56.8888 61.5719 56.9226 61.5225C56.9452 61.4918 56.9645 61.4796 56.9799 61.4796C57.0631 61.4796 57.0352 61.7639 57.0272 61.8062C56.9977 61.9456 56.9578 62.0823 56.9079 62.2154C56.8513 62.3743 56.7847 62.5271 56.7274 62.6532C56.6607 62.8046 56.5841 62.9574 56.5095 63.1136C56.235 63.6816 55.9319 64.264 55.6901 64.8662C55.4067 65.518 55.2533 66.2213 55.2391 66.9346C55.2284 67.1979 55.2701 67.4606 55.3617 67.7068C55.4534 67.953 55.593 68.1775 55.772 68.3668C56.0163 68.6023 56.3195 68.764 56.6481 68.8339C57.4641 69.0023 58.3107 68.9143 59.0771 68.5816C59.8986 68.2297 60.5765 67.5987 60.9964 66.7948C61.1386 66.563 61.2221 66.2987 61.2396 66.0256C61.2322 65.8578 60.6553 65.6846 60.3302 65.5414C60.1616 65.4921 60.0051 65.4069 59.8707 65.2916C59.7364 65.1762 59.6274 65.0331 59.5507 64.8717C59.4802 64.518 59.5077 64.1511 59.63 63.8126C59.8856 62.9705 60.2468 62.1659 60.7046 61.4189C61.5427 60.0324 62.7538 58.8431 63.7318 58.796C63.935 58.7899 64.001 59.0006 64.0103 59.1875Z" fill="black"></path><path fill-rule="evenodd" clip-rule="evenodd" d="M57.842 54.7134L58.2417 53.6072C58.279 53.5015 58.3503 53.2028 58.4842 53.2253C58.5322 53.2335 58.5648 53.299 58.5455 53.4511C58.5342 53.5459 58.5135 53.64 58.4942 53.7354C58.4596 53.9158 58.4343 54.0979 58.4183 54.281C58.285 55.6722 58.3363 57.0812 58.0978 58.4615C58.0021 58.9953 57.8525 59.5175 57.6515 60.0198C57.5715 60.2244 57.4856 60.4289 57.397 60.6206C57.3024 60.8306 57.0885 60.8824 57.1418 60.5524C57.2905 59.7886 57.3919 59.016 57.4456 58.2391C57.4763 57.4453 57.4789 56.5786 57.5442 55.9205C57.5904 55.5063 57.6905 55.1003 57.842 54.7134Z" fill="black"></path><path fill-rule="evenodd" clip-rule="evenodd" d="M39.2763 54.8503L39.676 53.7435C39.714 53.6378 39.7852 53.3391 39.9192 53.3616C39.9671 53.3697 39.9998 53.4352 39.9804 53.5866C39.9691 53.6821 39.9485 53.7762 39.9291 53.8717C39.8946 54.0521 39.8692 54.2342 39.8532 54.4172C39.72 55.8085 39.7706 57.2174 39.5321 58.5977C39.4368 59.1316 39.2874 59.6538 39.0864 60.156C39.0065 60.3606 38.9198 60.5652 38.8319 60.7568C38.7373 60.9668 38.5235 61.0187 38.5761 60.6886C38.725 59.9249 38.8265 59.1523 38.8799 58.3754C38.9112 57.5816 38.9139 56.7148 38.9785 56.0567C39.0246 55.6427 39.1247 55.237 39.2763 54.8503Z" fill="black"></path><path fill-rule="evenodd" clip-rule="evenodd" d="M35.9946 61.9959C35.9489 62.2709 35.8821 62.5418 35.7947 62.806C35.6788 63.2934 35.4591 63.7485 35.1512 64.1386C34.872 64.4123 34.5583 64.6465 34.2185 64.8349C33.9103 64.9804 33.6374 65.1937 33.419 65.4596C33.2577 65.7093 33.1177 65.9728 33.0006 66.2472C32.8201 66.6442 32.6995 67.0261 32.539 67.4332C32.4498 67.7445 32.2871 68.0286 32.0653 68.2604C31.8435 68.4922 31.5694 68.6646 31.2672 68.7623C30.6752 68.9817 30.0573 69.1193 29.4298 69.1715C28.9761 69.1715 29.0301 68.7848 29.2739 68.5578C29.7177 68.2164 30.1853 67.9087 30.6729 67.6371C31.1047 67.386 31.5168 67.101 31.9054 66.7846C32.2485 66.4462 32.5095 66.0302 32.6675 65.5701C32.8713 64.9886 33.1553 64.4399 33.511 63.9408C33.7963 63.6614 34.1202 63.4263 34.4723 63.2432C34.725 63.1177 34.9631 62.9633 35.1818 62.7829C35.3333 62.5789 35.4595 62.3565 35.5575 62.1207C35.6058 62.0112 35.682 61.9169 35.778 61.8479C35.8846 61.7913 36.0126 61.8131 35.9946 61.9959Z" fill="black"></path><path fill-rule="evenodd" clip-rule="evenodd" d="M31.6462 58.4626L32.0699 57.2842C32.1098 57.1717 32.1858 56.8539 32.3284 56.875C32.3797 56.8839 32.4143 56.9541 32.395 57.1158C32.3823 57.2167 32.361 57.3204 32.3404 57.4186C32.3036 57.6105 32.2765 57.8042 32.2591 57.9989C32.1165 59.4801 32.1718 60.9805 31.918 62.4501C31.8161 63.0185 31.6569 63.5745 31.443 64.1093C31.3577 64.3269 31.2658 64.5424 31.1718 64.7497C31.0712 64.9727 30.8434 65.0279 30.9 64.6774C31.0585 63.8644 31.1664 63.0419 31.2231 62.2148C31.2564 61.3692 31.2591 60.4465 31.3284 59.7441C31.3779 59.3043 31.4848 58.8733 31.6462 58.4626Z" fill="black"></path><path fill-rule="evenodd" clip-rule="evenodd" d="M31.952 73.5212C31.8047 73.6692 31.7168 73.6828 31.6269 73.6241C31.5436 73.5556 31.4663 73.4798 31.3957 73.3977C31.1918 73.1931 31.0586 73.1495 30.8661 72.9204C30.7481 72.784 30.7442 72.7321 30.8208 72.576C31.0559 72.0938 31.3437 71.5864 31.6155 71.0252C31.7161 70.8158 31.7288 70.7435 31.882 70.8635C32.1355 71.0475 32.3573 71.2733 32.5382 71.5319C32.9973 72.2418 32.399 73.067 31.95 73.5191L31.952 73.5212ZM33.876 73.2484C34.325 72.7962 34.9232 71.9711 34.4642 71.2611C34.2834 71.0023 34.0613 70.7764 33.8074 70.5928C33.6528 70.4728 33.6401 70.5444 33.5409 70.7544C33.2697 71.315 32.9826 71.8231 32.7468 72.3052C32.6701 72.4607 32.6741 72.5098 32.7921 72.6462C32.9846 72.874 33.1178 72.919 33.325 73.1236C33.3958 73.2059 33.4734 73.2819 33.5569 73.3507C33.6408 73.4114 33.7294 73.397 33.876 73.2484Z" fill="black"></path><path fill-rule="evenodd" clip-rule="evenodd" d="M76.5371 70.4729C76.3905 70.6093 76.3019 70.6215 76.2126 70.5683C76.1297 70.5052 76.0519 70.4351 75.9801 70.359C75.7769 70.1687 75.647 70.1298 75.4512 69.9198C75.3332 69.7909 75.3292 69.7459 75.4058 69.602C75.6417 69.1574 75.9288 68.6888 76.2 68.1699C76.3012 67.9762 76.3139 67.91 76.4664 68.0212C76.7171 68.1869 76.9389 68.3944 77.1227 68.635C77.5843 69.2924 76.9861 70.0548 76.5371 70.4729Z" fill="black"></path></g><defs><clipPath id="clip0_9871_489"><rect width="62.6552" height="13.6207" fill="white" transform="translate(19 76.3794)"></rect></clipPath><clipPath id="clip1_9871_489"><rect width="59.931" height="20.431" fill="white" transform="translate(20.3621 53.2241)"></rect></clipPath></defs></svg> 