<?xml version="1.0" encoding="UTF-8"?> <svg xmlns="http://www.w3.org/2000/svg" width="124" height="124" viewBox="0 0 124 124" fill="none"><mask id="a" fill="#fff"><path d="M83.963 101.2c2.523-1.237 13.941-18.007 13.941-20.48 0-2.473-11.418-19.243-13.941-20.48-2.523-1.236-41.42-1.236-43.923 0-2.523 1.237-13.942 18.007-13.942 20.48 0 2.473 11.419 19.243 13.941 20.48 2.523 1.236 41.4 1.22 43.924 0Z"></path></mask><path d="M83.963 101.2c2.523-1.237 13.941-18.007 13.941-20.48 0-2.473-11.418-19.243-13.941-20.48-2.523-1.236-41.42-1.236-43.923 0-2.523 1.237-13.942 18.007-13.942 20.48 0 2.473 11.419 19.243 13.941 20.48 2.523 1.236 41.4 1.22 43.924 0Z" fill="#262626"></path><path d="m83.963 101.2.87 1.8.01-.004-.88-1.796ZM40.04 60.24l.88 1.796.005-.002-.886-1.794Zm44.803 42.756c.676-.332 1.352-.984 1.892-1.551a37.194 37.194 0 0 0 2.033-2.371c1.466-1.835 3.16-4.168 4.765-6.525 1.604-2.356 3.14-4.768 4.284-6.766.57-.996 1.06-1.918 1.413-2.696.176-.388.332-.77.447-1.124.104-.318.227-.769.227-1.243h-4c0-.165.035-.195-.03.005a7.145 7.145 0 0 1-.286.707c-.28.617-.703 1.42-1.243 2.364-1.076 1.88-2.552 4.202-4.119 6.502-1.565 2.3-3.199 4.546-4.583 6.28a33.482 33.482 0 0 1-1.806 2.11c-.567.596-.8.738-.755.716l1.76 3.592ZM99.904 80.72c0-.474-.123-.925-.227-1.242a10.98 10.98 0 0 0-.448-1.125c-.353-.777-.843-1.7-1.412-2.696-1.144-1.997-2.68-4.41-4.284-6.766-1.605-2.356-3.299-4.69-4.765-6.525a37.36 37.36 0 0 0-2.033-2.37c-.54-.568-1.216-1.22-1.892-1.551l-1.76 3.591c-.046-.022.187.12.754.717.498.523 1.111 1.24 1.806 2.11 1.384 1.733 3.018 3.98 4.583 6.28 1.567 2.3 3.043 4.62 4.119 6.501.54.944.962 1.747 1.243 2.365.141.31.233.543.286.706.065.2.03.17.03.005h4ZM84.843 58.445c-.461-.226-1.042-.332-1.447-.397-.49-.078-1.09-.145-1.766-.205-1.358-.12-3.132-.219-5.166-.297-4.074-.155-9.278-.233-14.47-.233s-10.395.078-14.466.233c-2.033.078-3.806.176-5.162.297-.676.06-1.275.127-1.764.205-.403.065-.985.17-1.448.4l1.77 3.586c-.148.074-.134.035.31-.036.357-.057.853-.115 1.485-.171 1.26-.112 2.956-.207 4.962-.283 4.004-.154 9.153-.23 14.313-.23s10.31.076 14.317.23c2.006.076 3.705.171 4.966.283.633.056 1.13.114 1.49.171.443.07.461.11.316.038l1.76-3.591Zm-45.684 0c-.676.331-1.352.983-1.892 1.55a37.475 37.475 0 0 0-2.033 2.371c-1.466 1.836-3.16 4.169-4.765 6.525-1.604 2.356-3.14 4.769-4.284 6.766-.57.996-1.059 1.919-1.412 2.696-.177.388-.333.77-.448 1.125-.104.317-.227.768-.227 1.242h4c0 .165-.035.195.03-.005.053-.163.145-.397.286-.706.28-.618.703-1.421 1.243-2.365 1.076-1.88 2.553-4.202 4.119-6.502 1.565-2.3 3.199-4.546 4.583-6.28a33.455 33.455 0 0 1 1.806-2.11c.567-.596.8-.738.755-.716l-1.76-3.591ZM24.098 80.72c0 .474.123.925.227 1.243.115.355.271.736.448 1.124.353.778.843 1.7 1.413 2.696 1.143 1.998 2.68 4.41 4.283 6.766 1.605 2.357 3.299 4.69 4.765 6.525a37.262 37.262 0 0 0 2.033 2.371c.54.567 1.216 1.219 1.892 1.551l1.76-3.592c.046.022-.187-.12-.754-.717a33.449 33.449 0 0 1-1.806-2.11c-1.384-1.733-3.017-3.98-4.583-6.279-1.566-2.3-3.043-4.621-4.119-6.502-.54-.944-.962-1.747-1.243-2.364a7.113 7.113 0 0 1-.286-.707c-.065-.2-.03-.17-.03-.005h-4Zm15.061 22.276c.462.226 1.043.332 1.447.396.49.078 1.09.145 1.766.205 1.358.12 3.131.217 5.164.295 4.073.154 9.275.23 14.465.229 5.191-.001 10.393-.079 14.465-.234 2.033-.077 3.806-.175 5.163-.294a26.533 26.533 0 0 0 1.764-.203c.404-.064.982-.168 1.44-.39l-1.741-3.6c.143-.07.121-.031-.322.039-.36.057-.857.114-1.49.17-1.262.11-2.96.205-4.966.281-4.006.153-9.154.23-14.313.231-5.16.001-10.308-.075-14.313-.227-2.006-.076-3.703-.17-4.965-.282a22.566 22.566 0 0 1-1.488-.17c-.443-.07-.461-.11-.315-.038l-1.76 3.592Z" fill="#fff" mask="url(#a)"></path><mask id="b" fill="#fff"><path d="M83.855 82.504c2.523-1.236 13.942-18.006 13.942-20.48 0-2.472-11.419-19.242-13.942-20.479-2.523-1.236-41.419-1.236-43.923 0-2.523 1.237-13.942 18.007-13.942 20.48 0 2.473 11.42 19.243 13.942 20.48 2.523 1.236 41.4 1.22 43.923 0Z"></path></mask><path d="M83.855 82.504c2.523-1.236 13.942-18.006 13.942-20.48 0-2.472-11.419-19.242-13.942-20.479-2.523-1.236-41.419-1.236-43.923 0-2.523 1.237-13.942 18.007-13.942 20.48 0 2.473 11.42 19.243 13.942 20.48 2.523 1.236 41.4 1.22 43.923 0Z" fill="#262626"></path><path d="m83.855 82.504.871 1.8.01-.004-.88-1.796ZM39.932 41.545l.88 1.796.006-.002-.886-1.794ZM84.735 84.3c.677-.331 1.353-.983 1.892-1.55.61-.64 1.303-1.456 2.034-2.371 1.466-1.836 3.16-4.169 4.764-6.525 1.604-2.356 3.14-4.769 4.284-6.766.57-.996 1.06-1.919 1.413-2.696.176-.388.332-.77.448-1.124.103-.318.227-.77.227-1.243h-4c0-.165.034-.195-.03.005a7.155 7.155 0 0 1-.286.706c-.281.618-.703 1.42-1.243 2.365-1.077 1.88-2.553 4.201-4.119 6.502-1.566 2.3-3.2 4.546-4.584 6.28a33.485 33.485 0 0 1-1.805 2.109c-.568.596-.8.739-.755.716l1.76 3.592Zm15.062-22.275c0-.474-.124-.925-.227-1.243a10.98 10.98 0 0 0-.448-1.124c-.353-.778-.843-1.7-1.413-2.696-1.143-1.998-2.68-4.41-4.284-6.766-1.604-2.357-3.298-4.69-4.764-6.525a37.352 37.352 0 0 0-2.034-2.371c-.54-.567-1.215-1.22-1.892-1.55l-1.76 3.591c-.046-.022.187.12.755.717a33.51 33.51 0 0 1 1.805 2.11c1.385 1.733 3.018 3.98 4.584 6.279 1.566 2.3 3.042 4.621 4.119 6.502.54.944.962 1.746 1.243 2.364.14.31.232.544.285.707.065.2.031.17.031.005h4ZM84.735 39.749c-.46-.226-1.042-.332-1.447-.396a26.415 26.415 0 0 0-1.766-.206c-1.358-.12-3.132-.218-5.166-.296-4.074-.156-9.277-.233-14.47-.233-5.191 0-10.394.077-14.466.233-2.032.078-3.805.176-5.162.296a26.38 26.38 0 0 0-1.763.206c-.403.064-.986.17-1.448.399l1.77 3.587c-.149.073-.135.035.309-.036a22.61 22.61 0 0 1 1.485-.171c1.26-.112 2.957-.207 4.962-.284 4.005-.153 9.153-.23 14.314-.23 5.16 0 10.31.077 14.317.23 2.006.077 3.704.172 4.966.284.633.056 1.13.114 1.489.17.443.072.462.11.316.04l1.76-3.593Zm-45.683 0c-.676.332-1.352.984-1.892 1.55a37.193 37.193 0 0 0-2.033 2.372c-1.466 1.836-3.16 4.168-4.765 6.525-1.604 2.356-3.14 4.768-4.284 6.766-.57.996-1.06 1.918-1.413 2.696a11.21 11.21 0 0 0-.448 1.124c-.103.318-.227.769-.227 1.243h4c0 .165-.034.195.031-.005.053-.163.145-.397.285-.707.281-.618.703-1.42 1.244-2.364 1.076-1.88 2.552-4.202 4.118-6.502 1.566-2.3 3.2-4.546 4.584-6.28a33.491 33.491 0 0 1 1.805-2.11c.568-.596.8-.738.755-.716l-1.76-3.592ZM23.99 62.025c0 .474.124.925.227 1.242.116.356.272.737.448 1.125.354.777.843 1.7 1.413 2.696 1.143 1.997 2.68 4.41 4.284 6.766 1.604 2.356 3.299 4.69 4.765 6.525a37.294 37.294 0 0 0 2.033 2.37c.54.568 1.216 1.22 1.892 1.551l1.76-3.591c.046.022-.187-.12-.755-.717a33.485 33.485 0 0 1-1.805-2.11c-1.385-1.733-3.018-3.98-4.584-6.28-1.566-2.3-3.042-4.62-4.118-6.501-.54-.944-.963-1.747-1.244-2.365a7.113 7.113 0 0 1-.285-.706c-.065-.2-.03-.17-.03-.005h-4ZM39.052 84.3c.461.226 1.042.332 1.447.397.49.078 1.089.145 1.766.205 1.357.12 3.13.217 5.164.294 4.072.155 9.274.23 14.465.23 5.19-.001 10.393-.08 14.465-.234 2.033-.078 3.806-.175 5.163-.294.676-.06 1.275-.126 1.763-.203.405-.064.983-.168 1.441-.39l-1.742-3.601c.143-.07.122-.03-.322.04-.36.056-.857.114-1.49.17-1.262.11-2.96.204-4.965.28-4.006.153-9.154.23-14.314.232-5.16 0-10.307-.075-14.313-.227-2.005-.076-3.703-.17-4.964-.282a22.562 22.562 0 0 1-1.488-.17c-.443-.071-.462-.11-.316-.038l-1.76 3.591Z" fill="#fff" mask="url(#b)"></path><mask id="c" fill="#fff"><path d="M83.855 63.805c2.523-1.236 13.942-18.007 13.942-20.48 0-2.472-11.419-19.243-13.942-20.479-2.523-1.236-41.419-1.236-43.923 0-2.523 1.236-13.942 18.007-13.942 20.48 0 2.472 11.42 19.243 13.942 20.48 2.523 1.236 41.4 1.22 43.923 0Z"></path></mask><path d="M83.855 63.805c2.523-1.236 13.942-18.007 13.942-20.48 0-2.472-11.419-19.243-13.942-20.479-2.523-1.236-41.419-1.236-43.923 0-2.523 1.236-13.942 18.007-13.942 20.48 0 2.472 11.42 19.243 13.942 20.48 2.523 1.236 41.4 1.22 43.923 0Z" fill="#262626"></path><path d="m83.855 63.805.871 1.8.01-.004-.88-1.796ZM39.932 22.846l.88 1.796.006-.003-.886-1.793Zm44.803 42.755c.677-.331 1.353-.983 1.892-1.55.61-.64 1.303-1.456 2.034-2.372 1.466-1.835 3.16-4.168 4.764-6.524s3.14-4.769 4.284-6.767c.57-.995 1.06-1.918 1.413-2.695.176-.388.332-.77.448-1.125.103-.318.227-.768.227-1.242h-4c0-.165.034-.195-.03.005a7.155 7.155 0 0 1-.286.706c-.281.618-.703 1.42-1.243 2.364-1.077 1.881-2.553 4.202-4.119 6.502-1.566 2.3-3.2 4.546-4.584 6.28a33.491 33.491 0 0 1-1.805 2.11c-.568.596-.8.739-.755.716l1.76 3.592Zm15.062-22.275c0-.474-.124-.925-.227-1.243a10.997 10.997 0 0 0-.448-1.124c-.353-.778-.843-1.7-1.413-2.696-1.143-1.998-2.68-4.41-4.284-6.766-1.604-2.357-3.298-4.69-4.764-6.525a37.328 37.328 0 0 0-2.034-2.371c-.54-.567-1.215-1.22-1.892-1.551l-1.76 3.592c-.046-.022.187.12.755.716.498.524 1.11 1.24 1.805 2.11 1.385 1.734 3.018 3.98 4.584 6.28 1.566 2.3 3.042 4.621 4.119 6.502.54.944.962 1.746 1.243 2.364.14.31.232.544.285.706.065.2.031.17.031.006h4ZM84.735 21.05c-.46-.226-1.042-.332-1.447-.396a26.415 26.415 0 0 0-1.766-.206c-1.358-.12-3.132-.218-5.166-.296-4.074-.156-9.277-.233-14.47-.233-5.191 0-10.394.077-14.466.233-2.032.078-3.805.176-5.162.296a26.27 26.27 0 0 0-1.763.206c-.403.064-.986.17-1.448.399l1.77 3.586c-.149.074-.135.035.309-.035.358-.058.853-.116 1.485-.171 1.26-.112 2.957-.207 4.962-.284 4.005-.153 9.153-.23 14.314-.23 5.16 0 10.31.077 14.317.23 2.006.077 3.704.172 4.966.284.633.055 1.13.114 1.489.17.443.071.462.11.316.039l1.76-3.592Zm-45.683 0c-.676.331-1.352.984-1.892 1.55-.61.64-1.302 1.456-2.033 2.372-1.466 1.835-3.16 4.168-4.765 6.525-1.604 2.356-3.14 4.768-4.284 6.766-.57.995-1.06 1.918-1.413 2.696-.176.387-.332.769-.448 1.124-.103.318-.227.769-.227 1.243h4c0 .165-.034.194.031-.006.053-.162.145-.396.285-.706.281-.618.703-1.42 1.244-2.364 1.076-1.881 2.552-4.202 4.118-6.502 1.566-2.3 3.2-4.546 4.584-6.28a33.462 33.462 0 0 1 1.805-2.11c.568-.596.8-.738.755-.716l-1.76-3.592ZM23.99 43.326c0 .474.124.924.227 1.242.116.355.272.737.448 1.125.354.777.843 1.7 1.413 2.695 1.143 1.998 2.68 4.41 4.284 6.767 1.604 2.356 3.299 4.689 4.765 6.524.73.916 1.424 1.731 2.033 2.371.54.568 1.216 1.22 1.892 1.551l1.76-3.592c.046.023-.187-.12-.755-.716a33.491 33.491 0 0 1-1.805-2.11c-1.385-1.734-3.018-3.98-4.584-6.28-1.566-2.3-3.042-4.62-4.118-6.502-.54-.943-.963-1.746-1.244-2.364a7.123 7.123 0 0 1-.285-.706c-.065-.2-.03-.17-.03-.005h-4ZM39.052 65.6c.461.226 1.042.332 1.447.397.49.077 1.089.145 1.766.204 1.357.12 3.13.218 5.164.295 4.072.155 9.274.23 14.465.23 5.19-.001 10.393-.08 14.465-.234 2.033-.078 3.806-.175 5.163-.294.676-.06 1.275-.126 1.763-.203.405-.064.983-.169 1.441-.39l-1.742-3.601c.143-.07.122-.03-.322.04-.36.056-.857.113-1.49.169-1.262.11-2.96.205-4.965.281-4.006.153-9.154.23-14.314.232-5.16 0-10.307-.075-14.313-.227-2.005-.076-3.703-.17-4.964-.282a22.481 22.481 0 0 1-1.488-.17c-.443-.071-.462-.11-.316-.039l-1.76 3.592Z" fill="#fff" mask="url(#c)"></path><path d="M43.086 73.139c.116.198 1.683 1.096 1.914 1.096.23 0 1.798-.898 1.913-1.096.116-.199.116-1.994 0-2.191-.115-.199-1.682-1.096-1.913-1.096-.231 0-1.798.897-1.914 1.096-.115.198-.114 1.992 0 2.19Zm0 18.476c.116.199 1.683 1.097 1.914 1.097.23 0 1.798-.898 1.913-1.097.116-.198.116-1.994 0-2.19-.115-.199-1.682-1.097-1.913-1.097-.231 0-1.798.898-1.914 1.096-.115.199-.114 1.993 0 2.191Z" fill="#fff"></path></svg> 