<?xml version="1.0" encoding="UTF-8"?> <svg xmlns="http://www.w3.org/2000/svg" width="100" height="100" viewBox="0 0 100 100" fill="none"><path fill-rule="evenodd" clip-rule="evenodd" d="M49.6381 16.8577C46.6321 18.7575 44.0886 17.6738 44.3542 14.5825C44.45 13.9043 44.6373 13.8455 44.9161 14.406C46.0151 16.0393 47.5022 16.7406 49.3524 15.0956C49.7794 14.649 49.686 14.6131 50.0941 15.1032C51.6758 16.4735 53.7023 16.5206 54.7114 14.3171C54.9231 13.8959 55.1792 13.9053 55.223 14.2801C55.4283 17.7685 52.5613 18.8958 49.6363 16.8583L49.6381 16.8577ZM57.747 19.2506C65.9623 25.6561 67.6043 35.1452 62.1175 44.2149C61.4361 45.1121 61.6751 45.6646 63.0308 44.3572C72.3446 35.0758 68.0444 22.0106 57.8481 18.6216C56.7101 18.1686 56.8005 18.5687 57.747 19.2506ZM49.5251 50.4427C49.6848 50.688 49.7185 50.688 49.88 50.4427L51.1931 48.231C54.615 48.6394 57.857 48.607 60.3365 47.5838C60.6323 47.4185 60.6471 47.1802 60.1029 47.172C57.7294 47.1798 55.3744 46.7579 53.1528 45.927C63.3911 38.9514 64.0092 26.1615 55.653 19.3141C55.0479 18.7846 54.987 19.0146 55.5584 19.9613C60.488 27.287 58.9442 37.1539 51.7272 42.9146L52.1726 20.1384L49.7025 17.8191L47.233 20.1372L47.6784 42.9134C40.4621 37.1527 38.9171 27.2859 43.8467 19.9601C44.4181 19.0146 44.3577 18.7834 43.752 19.3129C35.4764 26.401 36.014 38.9514 46.2529 45.927C44.031 46.7564 41.676 47.1769 39.3028 47.1679C38.7586 47.179 38.7704 47.4173 39.0662 47.5797C41.5457 48.6041 44.7878 48.6388 48.2096 48.2269L49.5251 50.4427ZM41.9758 19.2506C33.6137 25.7997 32.1184 35.1452 37.6052 44.2149C38.2866 45.1121 38.0482 45.6646 36.6919 44.3572C27.3787 35.0758 31.6789 22.0106 41.8746 18.6216C43.0133 18.1686 42.9222 18.5681 41.9758 19.2506Z" fill="black"></path><g clip-path="url(#clip0_9871_494)"><path d="M1.50427 56.8442C1.51203 56.297 1.65493 55.7602 1.92026 55.2816C2.20286 54.7487 2.60097 54.2857 3.0855 53.9264C3.10449 53.9118 3.12791 53.904 3.15192 53.9043C3.17325 53.9046 3.19429 53.9094 3.21367 53.9183C3.22259 53.9313 3.22709 53.9468 3.22649 53.9626C3.22056 54.0102 3.20251 54.0556 3.17406 54.0942C2.60134 54.9131 2.27062 55.8765 2.21973 56.8745C2.28381 57.8645 2.61701 58.8181 3.18338 59.6326C3.211 59.6719 3.22788 59.7177 3.23232 59.7655C3.23284 59.7744 3.23157 59.7833 3.22856 59.7917C3.22556 59.8001 3.22089 59.8078 3.21484 59.8144C3.19522 59.8224 3.17428 59.8268 3.15308 59.8272C3.12908 59.8276 3.10566 59.8198 3.08666 59.8051C2.59648 59.4449 2.19184 58.981 1.90162 58.4464C1.64975 57.9653 1.51482 57.4315 1.50777 56.8885L1.50427 56.8442Z" fill="#1A1A18"></path><path d="M6.4461 57.0433C6.44241 57.2608 6.40748 57.4766 6.3424 57.6842C6.18994 58.1927 5.90902 58.6534 5.52673 59.0219C5.35539 59.174 5.13363 59.2571 4.9045 59.2549C4.54405 59.2549 4.36422 59.0556 4.36499 58.6571C4.36792 58.5059 4.39628 58.3562 4.44889 58.2143C4.50466 58.0558 4.57898 57.9045 4.67028 57.7634C4.76234 57.6212 4.84041 57.5012 4.90333 57.4045C4.83963 57.3874 4.80079 57.3758 4.78681 57.3696C4.77519 57.3683 4.76347 57.3683 4.75185 57.3696C4.91579 56.9625 5.10774 56.5673 5.32631 56.1868C5.38613 56.075 5.43507 56.019 5.47313 56.019C5.55222 56.0303 5.62783 56.059 5.69453 56.1029C5.80719 56.1673 5.91506 56.2398 6.0173 56.3197C6.12784 56.4034 6.2249 56.5037 6.30511 56.6168C6.38719 56.7449 6.43568 56.8915 6.4461 57.0433ZM5.81804 58.0745C5.81918 58.0099 5.80537 57.9459 5.77767 57.8874C5.74998 57.829 5.70916 57.7778 5.65841 57.7378C5.5884 57.6787 5.51268 57.6268 5.43235 57.5828C5.35807 57.5353 5.27541 57.5025 5.18882 57.4861C5.14221 57.4861 5.05831 57.57 4.93945 57.7378C4.83923 57.8571 4.77677 58.0035 4.76001 58.1584C4.76001 58.3759 4.90294 58.4851 5.18882 58.4858C5.33504 58.4812 5.4774 58.4378 5.60131 58.36C5.74696 58.2761 5.81571 58.1806 5.81571 58.0745H5.81804Z" fill="#1A1A18"></path><path d="M8.8651 55.6045C8.73809 56.384 8.6239 56.9643 8.52252 57.3523C8.44799 57.6506 8.35538 57.944 8.24519 58.2309C8.18345 58.4013 8.09147 58.5592 7.97369 58.697C7.81679 58.8368 7.63099 58.9402 7.42953 59C7.21343 59.0812 6.99236 59.1486 6.76767 59.2016C6.65819 59.2282 6.54733 59.2488 6.43558 59.2633C6.40519 59.2657 6.37507 59.2561 6.35168 59.2365V59.2237C6.35631 59.1947 6.36835 59.1674 6.38664 59.1445C6.48813 59.02 6.60567 58.9095 6.73621 58.8159C6.91333 58.6776 7.12346 58.5051 7.36661 58.2985C7.56723 58.1354 7.75073 57.9523 7.91427 57.752C8.0542 57.5545 8.16232 57.3363 8.23471 57.1053C8.32792 56.8326 8.41881 56.5472 8.50737 56.2489C8.59593 55.9506 8.66002 55.7486 8.69964 55.6429C8.73925 55.5357 8.78004 55.4845 8.81616 55.488C8.82436 55.4888 8.83231 55.4913 8.83951 55.4953C8.84671 55.4994 8.85301 55.5048 8.85803 55.5114C8.86304 55.5179 8.86667 55.5254 8.86869 55.5334C8.87071 55.5414 8.87107 55.5497 8.86976 55.5579C8.86997 55.5735 8.86841 55.5892 8.8651 55.6045Z" fill="#1A1A18"></path><path d="M11.2235 56.8884C11.2165 57.4314 11.0815 57.9652 10.8297 58.4463C10.5378 58.9815 10.1311 59.4455 9.63881 59.805C9.61982 59.8197 9.5964 59.8275 9.57239 59.8271C9.5512 59.8267 9.53026 59.8223 9.51064 59.8143C9.50458 59.8077 9.49991 59.8 9.49691 59.7916C9.49391 59.7832 9.49263 59.7743 9.49316 59.7654C9.4976 59.7176 9.51447 59.6718 9.5421 59.6325C10.1062 58.8186 10.4378 57.8662 10.5011 56.8779C10.4502 55.88 10.1195 54.9165 9.54676 54.0977C9.51831 54.059 9.50026 54.0136 9.49432 53.966C9.49373 53.9502 9.49822 53.9347 9.50714 53.9217C9.52652 53.9128 9.54756 53.908 9.5689 53.9077C9.5929 53.9074 9.61632 53.9152 9.63531 53.9299C10.1198 54.2891 10.518 54.7521 10.8006 55.285C11.0659 55.7636 11.2088 56.3004 11.2165 56.8476L11.2235 56.8884Z" fill="#1A1A18"></path><path d="M9.80303 65.1302C9.34931 65.2231 8.9073 65.3662 8.48515 65.5567C8.22792 65.6705 7.98112 65.8066 7.74756 65.9634C7.50422 66.1315 7.28098 66.327 7.08221 66.546C6.92615 66.7205 6.78796 66.9102 6.66971 67.1123C6.4806 67.4612 6.33801 67.8333 6.24557 68.2192C6.1212 68.7277 6.0432 69.2464 6.01252 69.769C5.89056 71.2162 5.81288 72.6145 5.77947 73.9639C5.74607 75.3132 5.72432 76.6727 5.71422 78.0422C5.7049 78.175 5.68159 78.2333 5.64314 78.2205C5.60469 78.2077 5.57556 78.1331 5.55691 78.0014C5.53827 77.8697 5.51846 77.6518 5.48234 77.3256C5.44621 76.9993 5.41009 76.5891 5.3763 76.1137C5.34251 75.6383 5.31338 75.1198 5.29124 74.5605C5.2691 74.0012 5.25745 73.4407 5.25745 72.8814C5.27128 71.8668 5.3374 70.8537 5.45554 69.8459C5.58809 68.7648 5.86598 67.7065 6.28169 66.6998C6.44915 66.3117 6.66193 65.9449 6.91558 65.6068C7.19274 65.2387 7.51802 64.9095 7.88272 64.628C8.2771 64.3205 8.70753 64.0622 9.16448 63.8589L9.76574 62.7461C9.83119 62.5753 9.93115 62.4198 10.0594 62.2894C10.1159 62.2592 10.1795 62.2451 10.2435 62.2486C10.2981 62.2485 10.3527 62.2528 10.4066 62.2614C10.7709 62.3256 11.1271 62.4287 11.4693 62.569C11.5709 62.6047 11.6619 62.6654 11.734 62.7454C11.8061 62.8254 11.8569 62.9222 11.8818 63.027C11.8829 63.1683 11.8608 63.3088 11.8166 63.4429C11.7573 63.613 11.6856 63.7786 11.6022 63.9382C11.5046 64.1296 11.3874 64.3104 11.2526 64.4777C11.1381 64.6253 10.997 64.7502 10.8366 64.8459C10.6542 64.9419 10.4574 65.0076 10.254 65.0405C10.1864 65.0498 10.1048 65.0638 10.0116 65.0813L9.80303 65.1302Z" fill="#1A1A18"></path><path d="M13.9176 64.3729C13.8956 64.7781 13.7914 65.1746 13.6111 65.5381C13.4426 65.8559 13.2515 66.0151 13.0378 66.0159C13.0378 65.8434 13.0934 65.3063 13.2045 64.4044C13.3156 63.5025 13.3998 62.8573 13.4573 62.4689C13.5148 62.0805 13.5797 61.6676 13.6519 61.2303C13.7242 60.7929 13.7949 60.4398 13.864 60.1711C13.9417 59.9489 14.0244 59.7236 14.1122 59.4952C14.2 59.2668 14.2924 59.0416 14.3895 58.8194C14.4163 58.7786 14.4396 58.7588 14.4571 58.7588C14.4746 58.7588 14.5025 58.7949 14.5119 58.8672C14.3984 59.6238 14.294 60.408 14.1984 61.2198C14.1029 62.0315 14.038 62.6142 14.0038 62.9676C13.9689 63.3172 13.9526 63.5234 13.9526 63.5817C13.9292 63.9476 13.9176 64.2191 13.9176 64.3729Z" fill="#1A1A18"></path><path d="M13.9175 64.7407C13.892 65.1004 13.9871 65.4584 14.1879 65.7579C14.2555 65.859 14.346 65.9426 14.4522 66.002C14.5583 66.0613 14.677 66.0947 14.7985 66.0994C14.8392 66.0865 14.915 65.9362 15.0105 65.6496C15.0813 65.4269 15.1634 65.2079 15.2564 64.9936C15.3455 65.0071 15.4306 65.0401 15.5055 65.0902C15.5805 65.1404 15.6434 65.2064 15.6899 65.2837C15.7737 65.4216 15.824 65.5773 15.8367 65.7381C15.8359 66.2598 15.7268 66.7756 15.5162 67.2529C15.2055 67.9086 14.7911 68.2364 14.2729 68.2364C14.1011 68.2229 13.9349 68.1684 13.7884 68.0776C13.6418 67.9868 13.5191 67.8623 13.4305 67.7144C13.125 67.2001 12.9877 66.6033 13.0378 66.0073C13.0832 65.8477 13.1322 65.6904 13.1846 65.5331C13.2347 65.3794 13.2938 65.2288 13.3617 65.0821C13.4262 64.9427 13.5042 64.81 13.5948 64.6859C13.6843 64.5649 13.7939 64.4601 13.9187 64.376L13.9175 64.7407Z" fill="#1A1A18"></path><path d="M17.5566 54.8753C17.616 54.739 17.6638 54.6714 17.7011 54.6714C17.7383 54.6714 17.7617 54.6935 17.7617 54.739C17.7614 54.7597 17.759 54.7804 17.7547 54.8007C17.7279 54.8963 17.6964 55.0617 17.6591 55.296C17.6218 55.5302 17.5962 55.7131 17.5775 55.8448C17.5507 56.0778 17.5228 56.3388 17.496 56.6301C17.4692 56.9215 17.4435 57.2198 17.4202 57.5251C17.3969 57.8303 17.3748 58.1345 17.3527 58.4258C17.3305 58.7171 17.3049 58.9793 17.2769 59.2111C17.2273 59.8039 17.1152 60.3898 16.9425 60.959C16.8011 61.3956 16.6254 61.8203 16.417 62.2291C16.2165 62.6175 16.055 62.8211 15.9322 62.8397C15.9182 62.8397 15.9113 62.8292 15.9113 62.8059C15.918 62.7338 15.934 62.6629 15.959 62.595C16.0287 62.405 16.0848 62.2103 16.1268 62.0124C16.1796 61.7793 16.2263 61.5304 16.2667 61.2655C16.307 61.0006 16.3436 60.7287 16.3762 60.4498C16.4076 60.1701 16.4356 59.9045 16.4577 59.6539C16.4799 59.4034 16.5172 59.062 16.5393 58.5889C16.5615 58.1158 16.5964 57.722 16.6419 57.3945C16.6772 57.1075 16.7461 56.8255 16.8469 56.5544L17.5566 54.8753Z" fill="#1A1A18"></path><path d="M31.389 63.7529C31.3915 63.773 31.3915 63.7933 31.389 63.8135C31.3848 63.8925 31.3711 63.9707 31.3482 64.0465C31.2623 64.3163 31.1528 64.5779 31.0208 64.8284C30.8686 65.1318 30.6929 65.4228 30.4953 65.6988C30.299 65.9732 30.0589 66.2133 29.7845 66.4096C29.3784 66.6931 28.9437 66.9333 28.4876 67.1262C27.9395 67.3534 27.3761 67.5414 26.8015 67.689C26.0985 67.8737 25.3832 68.0072 24.661 68.0887C23.9166 68.178 23.1676 68.2235 22.4179 68.2251C21.7746 68.2366 21.1313 68.2024 20.4929 68.1225C19.9172 68.0767 19.3715 67.8472 18.9362 67.4677C18.7964 67.3375 18.6868 67.1784 18.6149 67.0015C18.5431 66.8246 18.5107 66.6341 18.5202 66.4434C18.5202 66.2756 18.5353 66.0344 18.5679 65.7198C18.6006 65.4052 18.6425 65.0917 18.6973 64.7771C18.7194 64.6455 18.7404 64.5278 18.759 64.4276C18.7686 64.3659 18.7866 64.3059 18.8126 64.2493C18.8359 64.2038 18.8604 64.1782 18.8884 64.1712C18.9163 64.1642 18.942 64.1829 18.9664 64.226C19.001 64.2959 19.0253 64.3705 19.0387 64.4474C19.0562 64.5639 19.0818 64.6804 19.1133 64.7969C19.1527 64.9465 19.2271 65.0846 19.3304 65.1996C19.4338 65.3147 19.563 65.4036 19.7075 65.4588C20.9148 65.8718 22.1882 66.0571 23.4631 66.0053C24.0504 66.0053 24.708 65.9781 25.4358 65.9237C26.1698 65.8681 26.8988 65.7594 27.6172 65.5986C28.2439 65.4686 28.8575 65.2814 29.4501 65.0393C29.8181 64.8932 30.1725 64.7151 30.5093 64.5068C30.7201 64.3609 30.9086 64.1851 31.0686 63.9848C31.1333 63.8893 31.2066 63.8 31.2877 63.7179C31.2955 63.7125 31.3045 63.7089 31.3139 63.7074C31.3233 63.7059 31.3329 63.7065 31.3421 63.7091C31.3512 63.7118 31.3597 63.7165 31.3668 63.7229C31.3739 63.7292 31.3795 63.7371 31.3832 63.7459L31.389 63.7529ZM24.3906 60.4471C24.4082 60.5093 24.4172 60.5736 24.4174 60.6382C24.417 60.7074 24.408 60.7763 24.3906 60.8433C24.343 60.9934 24.274 61.1359 24.1855 61.2663C24.1086 61.3828 24.0294 61.4993 23.9525 61.5972C23.8727 61.7005 23.7854 61.7979 23.6915 61.8885C23.6456 61.941 23.5927 61.9869 23.5342 62.0248C23.4989 62.0483 23.4593 62.0646 23.4177 62.0726C23.4045 62.0771 23.3907 62.0795 23.3769 62.0796C23.363 62.0797 23.3491 62.0774 23.3361 62.0726C23.314 62.0644 23.2931 62.053 23.2743 62.0388C23.1147 61.9118 22.9597 61.7813 22.8082 61.6496C22.648 61.5181 22.4795 61.3971 22.3037 61.2872C22.2849 61.2664 22.2728 61.2404 22.2687 61.2127C22.2746 61.1851 22.2866 61.1593 22.3037 61.1369L23.3407 59.5394C23.3734 59.4986 23.4037 59.48 23.4328 59.4823C23.4684 59.4862 23.5025 59.4991 23.5318 59.5196C23.6239 59.5743 23.716 59.6361 23.8092 59.6932C23.901 59.754 23.9865 59.8239 24.0644 59.9018C24.141 59.9778 24.2097 60.0613 24.2694 60.1511C24.3284 60.2411 24.3695 60.3416 24.3906 60.4471ZM26.4729 60.3236C26.4903 60.3858 26.4993 60.4501 26.4997 60.5147C26.4994 60.5839 26.4904 60.6528 26.4729 60.7198C26.4253 60.8699 26.3562 61.0124 26.2678 61.1428C26.1909 61.2593 26.1117 61.3758 26.0348 61.4748C25.9539 61.5776 25.8659 61.6745 25.7714 61.765C25.7256 61.8171 25.6731 61.8629 25.6153 61.9013C25.5797 61.9242 25.5402 61.9404 25.4988 61.9491C25.4856 61.9536 25.4719 61.9559 25.458 61.9561C25.4441 61.9562 25.4303 61.9538 25.4172 61.9491C25.3951 61.9403 25.3744 61.9285 25.3554 61.9141C25.1954 61.7867 25.04 61.657 24.8893 61.5249C24.7291 61.3938 24.5606 61.2731 24.3848 61.1637C24.3662 61.1424 24.3544 61.116 24.351 61.088C24.3564 61.0609 24.3679 61.0353 24.3848 61.0134L25.4219 59.4159C25.4545 59.3751 25.4848 59.3553 25.5151 59.3576C25.5505 59.3623 25.5844 59.375 25.6141 59.3949C25.705 59.4493 25.7971 59.5075 25.8903 59.5697C26.0755 59.6881 26.2342 59.8436 26.3564 60.0265C26.4136 60.1173 26.4532 60.2181 26.4729 60.3236Z" fill="#1A1A18"></path><path d="M33.9888 64.4272C34.2043 64.1375 34.4379 63.8616 34.6879 63.6011C34.8996 63.3816 35.1254 63.1761 35.3638 62.9858C35.5669 62.8253 35.7828 62.6815 36.0093 62.5559C36.2025 62.4497 36.4035 62.3586 36.6106 62.2832C36.7316 62.4432 36.8174 62.6271 36.8622 62.8227C36.8937 62.9568 36.9097 63.094 36.91 63.2317C36.9104 63.2776 36.9084 63.3235 36.9042 63.3692C36.8914 63.5459 36.8558 63.7202 36.7982 63.8877C36.7447 64.0417 36.6821 64.1923 36.6106 64.3387C36.2172 64.4025 35.8346 64.5202 35.4733 64.6883C35.0515 64.8907 34.6663 65.1621 34.3337 65.4911C33.8939 65.9184 33.4912 66.3822 33.13 66.8777C32.7647 67.3791 32.3635 67.8534 31.9298 68.297C31.524 68.6964 31.0741 69.0482 30.5886 69.3457C30.1772 69.6111 29.749 69.8497 29.3069 70.06C28.9627 70.2154 28.7433 70.3086 28.6485 70.3396C28.5815 70.3701 28.5098 70.3886 28.4364 70.3944C28.4227 70.3961 28.4087 70.3944 28.3957 70.3896C28.3827 70.3847 28.3711 70.3768 28.3619 70.3664L28.3549 70.3536C28.3549 70.335 28.398 70.2989 28.4842 70.2441C28.6209 70.1532 28.8897 69.98 29.2905 69.7244C29.6618 69.4864 30.0193 69.2277 30.3614 68.9495C30.7398 68.6306 31.0927 68.2827 31.4171 67.909C31.9399 67.2989 32.4289 66.6605 32.8818 65.9968C33.4652 65.1641 33.8342 64.6409 33.9888 64.4272Z" fill="#1A1A18"></path><path d="M38.5424 55.2306C38.5562 55.2818 38.5628 55.3348 38.5622 55.3879C38.5621 55.4641 38.5507 55.5399 38.5284 55.6127C38.4819 55.7655 38.4128 55.9104 38.3234 56.0427C38.2464 56.1592 38.1695 56.2758 38.0903 56.3783C38.0093 56.4867 37.918 56.587 37.8176 56.6778C37.7011 56.8013 37.6079 56.8642 37.5438 56.8654C37.5173 56.8682 37.4904 56.8657 37.4648 56.8581C37.4392 56.8505 37.4154 56.8379 37.3947 56.8211L37.1931 56.6405C37.108 56.5659 37.0206 56.489 36.9297 56.4074C36.8388 56.3259 36.7491 56.2571 36.6606 56.1884C36.572 56.1196 36.4974 56.0719 36.438 56.0322C36.4192 56.0185 36.405 55.9994 36.3972 55.9775C36.3972 55.9588 36.4065 55.9274 36.438 55.8819L37.4762 54.2972C37.5123 54.2471 37.5403 54.225 37.5578 54.2296C37.6026 54.2459 37.6459 54.2662 37.6871 54.2902C37.7745 54.345 37.8631 54.4067 37.954 54.465C38.0441 54.5258 38.1287 54.5945 38.2068 54.6701C38.2847 54.7457 38.3536 54.8302 38.4119 54.9218C38.4714 55.0172 38.5154 55.1214 38.5424 55.2306ZM36.6105 64.3357C36.5202 63.9983 36.4629 63.6529 36.4392 63.3045C36.4345 63.254 36.4322 63.2062 36.4322 63.1611C36.4335 62.8587 36.494 62.5594 36.6105 62.2802L36.7398 62.2872C36.8392 62.1604 36.9303 62.0273 37.0125 61.8887C37.1127 61.7194 37.2265 61.5349 37.3539 61.3352C37.4813 61.1356 37.6192 60.9317 37.7675 60.7235C37.9095 60.5258 38.0682 60.3406 38.2418 60.17C38.4003 60.0141 38.5794 59.8808 38.7743 59.7738C38.9529 59.6765 39.1536 59.6271 39.3569 59.6305C39.5335 59.627 39.7071 59.6761 39.8556 59.7715C39.9656 59.8491 40.0473 59.9604 40.0887 60.0884C40.1209 60.1878 40.1371 60.2916 40.1365 60.396C40.1365 60.4323 40.1341 60.4685 40.1295 60.5044C40.1167 60.657 40.0894 60.808 40.0479 60.9554C39.9813 61.1253 39.9063 61.2917 39.823 61.4541C39.7356 61.6219 39.6354 61.7932 39.5224 61.9656C39.3585 62.2072 39.1705 62.4655 38.9584 62.7405C38.7488 63.014 38.5173 63.27 38.2663 63.5061C38.0252 63.7313 37.758 63.9269 37.4704 64.0887C37.2091 64.2421 36.9133 64.327 36.6105 64.3357ZM37.0952 62.3C37.2997 62.3091 37.5047 62.2942 37.7058 62.2558C37.9261 62.2147 38.1397 62.1437 38.3408 62.0449C38.5637 61.9352 38.7723 61.7986 38.9619 61.6382C39.1765 61.457 39.3661 61.2481 39.5259 61.0171C39.4557 60.9135 39.3569 60.8326 39.2416 60.7841C39.1218 60.7315 38.9935 60.701 38.8629 60.6943C38.7327 60.6878 38.6023 60.7032 38.4772 60.7398C38.3661 60.7685 38.2639 60.8246 38.18 60.9029C37.9651 61.1043 37.7729 61.3286 37.6067 61.5718C37.4413 61.8211 37.2676 62.0623 37.0917 62.3035L37.0952 62.3Z" fill="#1A1A18"></path><path d="M40.345 59.3949C40.3132 59.4283 40.2762 59.4562 40.2355 59.4776C40.2142 59.4891 40.1908 59.4958 40.1667 59.4975C40.1574 59.4972 40.1482 59.4948 40.1399 59.4905C40.1274 59.489 40.1157 59.4835 40.1065 59.4749C40.0973 59.4663 40.091 59.4551 40.0886 59.4427C40.0869 59.401 40.0983 59.3598 40.1213 59.325C40.2091 59.1696 40.3015 59.0143 40.3986 58.8589C40.4957 58.7035 40.5967 58.5524 40.7016 58.4056C40.8006 58.2421 40.9424 58.1087 41.1117 58.0199C41.2742 57.9352 41.4531 57.8863 41.6361 57.8766C41.8301 57.8655 42.0248 57.8847 42.2129 57.9337C42.4111 57.9841 42.6027 58.0577 42.7838 58.1528C42.9641 58.2485 43.1555 58.3217 43.3536 58.3707C43.5244 58.4118 43.7003 58.4279 43.8757 58.4184C44.1439 58.3946 44.4042 58.3152 44.6401 58.1854C44.6706 58.1737 44.7029 58.167 44.7356 58.1656C44.7547 58.1657 44.7735 58.1705 44.7904 58.1796C44.823 58.197 44.8335 58.2308 44.8253 58.2809C44.8057 58.3672 44.7792 58.4518 44.7461 58.5338C44.7073 58.634 44.6641 58.7342 44.6168 58.8344C44.5726 58.9278 44.5236 59.0189 44.4699 59.1071C44.4352 59.1704 44.3912 59.2281 44.3394 59.2784C44.2562 59.3753 44.1543 59.4545 44.04 59.5114C43.9258 59.5709 43.818 59.642 43.7184 59.7235C43.5186 59.8712 43.3316 60.0353 43.159 60.2141C42.9726 60.4063 42.7768 60.6266 42.5764 60.8771C42.376 61.1276 42.1896 61.3432 41.9938 61.5669C41.798 61.7906 41.5906 61.9899 41.3867 62.181C40.9685 62.5893 40.4893 62.9302 39.9663 63.1913C39.3144 63.4712 38.6348 63.6817 37.9388 63.8193C37.8776 63.8205 37.8165 63.8139 37.757 63.7995C37.7383 63.7959 37.7205 63.7886 37.7047 63.778C37.6889 63.7674 37.6754 63.7537 37.665 63.7377C37.6612 63.7313 37.6588 63.7242 37.658 63.7168C37.6606 63.6823 37.6727 63.6493 37.6929 63.6212C37.7438 63.5566 37.8034 63.4994 37.87 63.4511C37.9502 63.3831 38.0387 63.3256 38.1334 63.2798C38.2266 63.234 38.3175 63.1951 38.406 63.1633C38.4946 63.1283 38.5797 63.098 38.6624 63.0712C38.7451 63.0444 38.8139 63.0281 38.8733 63.0095C39.1865 62.9188 39.4872 62.7892 39.7682 62.6238C40.0505 62.4572 40.3186 62.2678 40.5699 62.0575C40.823 61.8453 41.0635 61.6185 41.29 61.3781C41.523 61.1369 41.734 60.8957 41.939 60.6569C42.1441 60.418 42.3375 60.1908 42.5217 59.9647C42.7058 59.7387 42.8712 59.5499 43.0344 59.3821C42.9039 59.3373 42.7763 59.2848 42.6522 59.2248C42.5065 59.1607 42.3527 59.0989 42.1861 59.0372C42.0244 58.9754 41.859 58.924 41.6908 58.8834C41.5761 58.8574 41.4589 58.8438 41.3413 58.8426C41.3 58.8426 41.2588 58.8449 41.2178 58.8496C41.1211 58.8593 41.0267 58.8845 40.9381 58.9242C40.8623 58.9597 40.7911 59.0043 40.726 59.057C40.6631 59.1087 40.6039 59.1648 40.5489 59.2248C40.4767 59.2772 40.4126 59.3366 40.345 59.3949Z" fill="#1A1A18"></path><path d="M49.4747 63.1165C49.4619 63.233 49.4502 63.3496 49.4409 63.4579C49.3364 64.7989 49.0422 66.1183 48.567 67.3766C48.2686 68.1366 47.8814 68.8586 47.4134 69.5276C46.9851 70.2009 46.3968 70.7577 45.7011 71.1485C45.0054 71.5392 44.2238 71.7518 43.4259 71.7672C42.7273 71.752 42.0588 71.4794 41.5488 71.0017C41.2811 70.7377 41.0705 70.4215 40.9302 70.0727C40.7899 69.7239 40.7228 69.35 40.7331 68.9742C40.7856 67.3661 41.2253 65.7943 42.0149 64.3924L42.2735 63.8879C42.3062 63.8786 42.3166 63.9333 42.3085 64.051C42.2837 64.2239 42.233 64.392 42.1582 64.5498C42.0533 64.8046 41.9496 65.0628 41.8471 65.3246C41.7445 65.5868 41.6548 65.8455 41.5779 66.103C41.5022 66.3506 41.4426 66.6028 41.3996 66.8581C41.3639 67.0424 41.3456 67.2297 41.3448 67.4174C41.3448 67.4671 41.3472 67.5195 41.3518 67.5747C41.3753 67.8755 41.4664 68.1671 41.6184 68.4278C41.7703 68.6885 41.9791 68.9115 42.2293 69.0802C42.7478 69.4085 43.3471 69.5868 43.9608 69.5952C44.8631 69.6007 45.7497 69.3589 46.5243 68.8961C47.1214 68.5045 47.6231 67.9841 47.9925 67.3731C48.5565 66.5366 48.8345 65.54 48.7849 64.5323C48.7849 64.3552 48.7779 64.1734 48.7639 63.9869C48.7571 63.7119 48.7892 63.4373 48.8594 63.1713C48.9278 62.9258 49.122 62.3863 49.4421 61.5528C49.4768 61.426 49.5323 61.3059 49.6064 61.1974C49.623 61.18 49.6445 61.1682 49.6681 61.1636C49.6785 61.1646 49.6881 61.1696 49.6949 61.1776C49.7055 61.1959 49.7104 61.217 49.7089 61.2382C49.7074 61.2866 49.7003 61.3346 49.6879 61.3815L49.5854 62.0923L49.4747 63.1165ZM46.3822 64.6849C46.3963 64.7409 46.4033 64.7985 46.4031 64.8562C46.4026 64.9347 46.3932 65.0129 46.3752 65.0893C46.3367 65.2536 46.2671 65.4091 46.1701 65.5472C46.1433 65.5926 46.1095 65.6439 46.0687 65.6998C46.0279 65.7558 45.9825 65.8164 45.9347 65.8746C45.8869 65.9329 45.838 65.9911 45.7879 66.0482C45.7378 66.1053 45.69 66.1566 45.6446 66.2021C45.5932 66.2569 45.5362 66.3061 45.4744 66.3489C45.4398 66.3743 45.4 66.3918 45.3579 66.4001C45.3424 66.4045 45.3263 66.4069 45.3101 66.4071C45.2962 66.4071 45.2825 66.4047 45.2694 66.4001C45.2478 66.3915 45.2274 66.3802 45.2088 66.3664C45.0445 66.23 44.8813 66.0902 44.717 65.9492C44.5474 65.809 44.3696 65.6791 44.1845 65.56C44.1751 65.5527 44.1673 65.5435 44.1615 65.5331C44.1557 65.5227 44.1521 65.5113 44.1507 65.4994C44.1551 65.4674 44.1667 65.4367 44.1845 65.4097L45.2763 63.7236C45.3125 63.6828 45.3463 63.6642 45.3789 63.6688C45.4154 63.6757 45.4502 63.6896 45.4814 63.7096C45.6826 63.823 45.8683 63.9621 46.0337 64.1233C46.1983 64.2757 46.3187 64.4698 46.3822 64.6849Z" fill="#1A1A18"></path><path d="M51.7737 64.3729C51.752 64.7783 51.6473 65.1749 51.4661 65.5381C51.2983 65.8559 51.1072 66.0151 50.8928 66.0159C50.8928 65.8434 50.9488 65.3063 51.0606 64.4044C51.1725 63.5025 51.2564 62.8573 51.3123 62.4689C51.3698 62.0805 51.4347 61.6676 51.5069 61.2303C51.5791 60.7929 51.6498 60.4398 51.719 60.1711C51.7967 59.9489 51.8798 59.7236 51.9683 59.4952C52.0569 59.2668 52.1489 59.0416 52.2445 58.8194C52.2725 58.7786 52.2946 58.7588 52.3132 58.7588C52.3319 58.7588 52.3587 58.7949 52.368 58.8672C52.2538 59.6238 52.1489 60.408 52.0534 61.2198C51.9579 62.0315 51.893 62.6142 51.8588 62.9676C51.825 63.3172 51.8075 63.5234 51.8075 63.5817C51.7877 63.9476 51.7737 64.2191 51.7737 64.3729Z" fill="#1A1A18"></path><path d="M51.7737 64.7407C51.7478 65.1003 51.8425 65.4582 52.0428 65.7579C52.1108 65.8589 52.2016 65.9424 52.3079 66.0017C52.4142 66.0611 52.533 66.0945 52.6546 66.0994C52.6954 66.0865 52.7711 65.9362 52.8667 65.6496C52.9622 65.3629 53.0438 65.1439 53.1114 64.9936C53.2006 65.0072 53.2858 65.0403 53.3609 65.0904C53.436 65.1405 53.4992 65.2065 53.546 65.2837C53.63 65.4214 53.68 65.5772 53.6916 65.7381C53.6915 66.2599 53.5823 66.7758 53.3712 67.2529C53.0605 67.9086 52.6464 68.2364 52.1291 68.2364C51.9575 68.2224 51.7917 68.1677 51.6454 68.077C51.4991 67.9862 51.3765 67.8619 51.2878 67.7144C50.9823 67.2001 50.845 66.6033 50.8951 66.0073C50.9405 65.8477 50.9895 65.6904 51.0419 65.5331C51.093 65.3797 51.1521 65.2292 51.219 65.0821C51.2835 64.9427 51.3615 64.81 51.4521 64.6859C51.5416 64.5649 51.6512 64.4601 51.776 64.376L51.7737 64.7407Z" fill="#1A1A18"></path><path d="M61.2785 61.6649C61.3601 61.6276 61.4381 61.5961 61.5115 61.5693C61.5981 61.7697 61.641 61.9862 61.6374 62.2044C61.6284 62.4167 61.5859 62.6264 61.5115 62.8255C61.2566 62.996 60.9799 63.1316 60.6889 63.2286L59.9897 63.4873C59.5274 63.751 59.1152 64.0942 58.7721 64.5011C58.3324 64.9858 57.944 65.4333 57.6068 65.8434C57.0556 66.4879 56.4271 67.062 55.7355 67.5528C55.2391 67.8698 54.8895 68.0783 54.6867 68.1786C54.491 68.2788 54.3034 68.3778 54.1263 68.478C54.0521 68.5248 53.9678 68.5531 53.8804 68.5607C53.8495 68.562 53.8189 68.5547 53.7918 68.5398C53.7858 68.5348 53.7808 68.5285 53.7772 68.5215C53.7736 68.5145 53.7714 68.5069 53.7709 68.499C53.7709 68.4722 53.7942 68.4419 53.8396 68.4104C53.8851 68.379 54.1717 68.1692 54.7135 67.7684C55.0627 67.5065 55.3976 67.226 55.7168 66.9283C55.9549 66.7156 56.1787 66.4875 56.3868 66.2454C56.5949 66.0497 56.7866 65.8373 56.9601 65.6104C57.1279 65.4065 57.4192 65.0278 57.8341 64.4917C58.2489 63.9557 58.567 63.5456 58.8035 63.2787C59.0383 63.0149 59.2952 62.7717 59.5714 62.5516C59.8162 62.3529 60.0819 62.1813 60.3638 62.0401C60.6617 61.8986 60.9671 61.7734 61.2785 61.6649Z" fill="#1A1A18"></path><path d="M62.9099 59.7667C62.9112 60.2047 62.8322 60.6391 62.6768 61.0485C62.5524 61.3992 62.3849 61.7331 62.1781 62.0424C61.9786 62.3193 61.7585 62.5806 61.5197 62.8243C61.4589 62.7775 61.4138 62.7133 61.3904 62.6402C61.3511 62.5373 61.3291 62.4287 61.3251 62.3186C61.3188 62.1904 61.3289 62.062 61.3554 61.9364C61.3838 61.8035 61.4398 61.6781 61.5197 61.5682C61.7924 61.4587 61.9287 61.3083 61.9287 61.1173C61.895 60.9947 61.8398 60.8791 61.7656 60.7758C61.6607 60.6255 61.5675 60.5509 61.4859 60.5509C61.4113 60.5862 61.3332 60.6135 61.2529 60.6325C61.1535 60.6555 61.0519 60.6669 60.9499 60.6663C60.7848 60.6658 60.6261 60.6025 60.506 60.4892C60.4399 60.4318 60.3859 60.3619 60.3471 60.2835C60.3083 60.2051 60.2855 60.1197 60.2799 60.0324C60.2891 59.8655 60.3311 59.7019 60.4034 59.5512C60.5521 59.1949 60.7314 58.8522 60.9394 58.5269C61.2004 58.0973 61.4016 57.8826 61.543 57.8826C61.7332 57.8827 61.9204 57.9294 62.0884 58.0186C62.2564 58.1077 62.4 58.2367 62.5067 58.3941C62.7928 58.7927 62.935 59.2767 62.9099 59.7667ZM62.4438 52.7893C62.4579 52.8401 62.4649 52.8927 62.4647 52.9454C62.4642 53.0221 62.4524 53.0983 62.4298 53.1715C62.3832 53.3243 62.3141 53.4692 62.2247 53.6015C62.1478 53.718 62.0709 53.8345 61.9916 53.9359C61.911 54.0449 61.8196 54.1456 61.719 54.2365C61.6025 54.3531 61.5092 54.4218 61.4451 54.4241C61.3916 54.4293 61.3381 54.4134 61.296 54.3799L61.0956 54.1981C61.0105 54.1223 60.9231 54.0466 60.8322 53.965C60.7413 53.8835 60.6516 53.8147 60.5631 53.7471C60.4918 53.6907 60.4175 53.6381 60.3405 53.5898C60.3217 53.576 60.3075 53.557 60.2997 53.5351C60.2997 53.5164 60.309 53.485 60.3405 53.4395L61.3787 51.856C61.4148 51.8058 61.4428 51.7825 61.4603 51.7872C61.5054 51.8043 61.549 51.8249 61.5908 51.849C61.677 51.9037 61.7656 51.9655 61.8565 52.0226C61.9463 52.0838 62.0309 52.1524 62.1093 52.2277C62.1873 52.3037 62.2561 52.3885 62.3144 52.4805C62.3723 52.5761 62.4144 52.6803 62.4391 52.7893H62.4438Z" fill="#1A1A18"></path><path d="M63.3306 62.9457C63.1302 63.3737 62.929 63.8072 62.727 64.2461C62.5358 64.6561 62.3682 65.0767 62.2248 65.5057C62.0013 66.1084 61.8724 66.742 61.8426 67.3841C61.8423 67.462 61.8469 67.5398 61.8566 67.6171C61.8668 67.8655 61.9295 68.1088 62.0406 68.3311C62.1516 68.5535 62.3085 68.7497 62.5009 68.907C62.9851 69.2556 63.5754 69.4249 64.1707 69.386C64.7719 69.3856 65.3659 69.2549 65.9116 69.0026C66.3132 68.8268 66.6879 68.5949 67.0244 68.3139C67.3178 68.0738 67.5705 67.7877 67.7725 67.4668C67.923 67.2482 68.0134 66.9938 68.0346 66.7292C68.0358 66.682 68.024 66.6353 68.0006 66.5942C67.9772 66.5532 67.9431 66.5193 67.9018 66.4962C67.7968 66.427 67.6832 66.3717 67.5639 66.3319C67.4322 66.2864 67.2959 66.2456 67.1537 66.2095C67.0374 66.1815 66.9233 66.1449 66.8123 66.1C66.6152 66.03 66.44 65.9095 66.3043 65.7504C66.1608 65.5519 66.0941 65.308 66.1167 65.0641C66.1399 64.6127 66.2633 64.172 66.4779 63.7742C66.5159 63.7213 66.5648 63.6772 66.6212 63.6448C66.6633 63.6194 66.712 63.6072 66.761 63.6099C66.8037 63.6141 66.8442 63.6307 66.8776 63.6577C66.9132 63.688 66.9384 63.7288 66.9498 63.7742C66.9358 63.8429 66.9801 63.9105 67.0826 63.9793C67.2674 64.0839 67.4627 64.1687 67.6653 64.2321C67.8472 64.2877 68.0215 64.366 68.1838 64.4652C68.3052 64.5647 68.3995 64.6932 68.4579 64.8388C68.5164 64.9845 68.5371 65.1425 68.5182 65.2983C68.5013 66.0111 68.3808 66.7176 68.1605 67.3957C67.9474 68.1331 67.6114 68.8292 67.1666 69.4547C66.9743 69.7415 66.755 70.0092 66.5117 70.2541C66.2601 70.5115 65.9752 70.7341 65.6646 70.9159C65.0681 71.3238 64.3595 71.536 63.637 71.523C63.2636 71.5416 62.8909 71.4744 62.5476 71.3265C62.2042 71.1787 61.8992 70.9541 61.6561 70.6701C61.4577 70.4015 61.3136 70.0967 61.232 69.7728C61.1573 69.4767 61.1182 69.1728 61.1155 68.8674C61.1302 68.3405 61.1989 67.8166 61.3206 67.3037C61.4425 66.7776 61.5982 66.26 61.7867 65.7539C61.9779 65.2445 62.1957 64.7455 62.4392 64.2589C62.6815 63.7718 62.9305 63.3058 63.1861 62.8606C63.2269 62.7919 63.2502 62.7534 63.2549 62.7441C63.3007 62.6719 63.3415 62.6357 63.3772 62.6357C63.3844 62.6366 63.3915 62.6386 63.3982 62.6416H63.4052C63.4144 62.6535 63.419 62.6684 63.418 62.6835C63.4171 62.6973 63.4148 62.711 63.411 62.7243C63.3993 62.7686 63.3714 62.8408 63.3306 62.9457Z" fill="#1A1A18"></path><path d="M67.537 73.4469C67.5548 73.5114 67.5638 73.578 67.5638 73.645C67.5632 73.7118 67.5542 73.7784 67.537 73.8431C67.4889 73.993 67.4199 74.1354 67.3319 74.266C67.2539 74.3826 67.1758 74.4991 67.0989 74.597C67.0183 74.6999 66.9302 74.7969 66.8355 74.8871C66.7897 74.9396 66.7367 74.9855 66.6782 75.0234C66.6427 75.0473 66.6033 75.0646 66.5617 75.0747C66.5348 75.0831 66.5059 75.0831 66.479 75.0747C66.4571 75.0667 66.4366 75.0553 66.4184 75.0409C66.2587 74.9139 66.1014 74.7857 65.9465 74.6587C65.7909 74.5226 65.6245 74.3995 65.4489 74.2905C65.4316 74.271 65.4195 74.2473 65.4139 74.2218C65.4184 74.192 65.4304 74.1639 65.4489 74.1402L66.486 72.5426C66.5186 72.5007 66.5489 72.4821 66.578 72.4844C66.6134 72.4891 66.6473 72.5018 66.6771 72.5217C66.7679 72.5764 66.86 72.6382 66.9544 72.6953C67.1365 72.8161 67.293 72.9717 67.4147 73.1532C67.4737 73.2424 67.5153 73.3421 67.537 73.4469ZM66.4778 63.7754C66.6922 63.2316 66.8313 62.8879 66.895 62.7442C67.1021 62.2777 67.2399 61.7835 67.304 61.2771C67.2864 61.1192 67.2452 60.9648 67.1816 60.8192C67.0861 60.5784 66.9948 60.369 66.9078 60.1911L66.7854 59.9861C66.7446 59.9185 66.7062 59.8497 66.6689 59.781C66.6008 59.7012 66.5647 59.5991 66.5675 59.4943C66.6305 59.3032 66.6841 59.1331 66.7307 58.9828C66.7773 58.8325 66.8262 58.7031 66.867 58.5936C66.9843 58.2172 67.1236 57.8479 67.2841 57.4878C67.5172 57.5655 67.7425 57.8249 67.96 58.2662C68.1606 58.6932 68.2652 59.1589 68.2664 59.6307C68.2372 60.2495 68.1037 60.8589 67.8714 61.4333C67.7114 61.8217 67.5541 62.2101 67.3995 62.5985C67.2449 62.9869 67.095 63.3773 66.9497 63.7696C66.9292 63.8168 66.893 63.8555 66.8472 63.8791C66.8026 63.9012 66.7536 63.9128 66.7039 63.9129C66.6548 63.913 66.6066 63.9001 66.564 63.8756C66.5242 63.8552 66.4935 63.8208 66.4778 63.7789V63.7754ZM69.6239 73.3199C69.6417 73.3844 69.6507 73.451 69.6507 73.518C69.6502 73.5848 69.6412 73.6514 69.6239 73.716C69.5761 73.8665 69.507 74.0093 69.4189 74.1402C69.3408 74.2567 69.2627 74.3732 69.1858 74.4711C69.1052 74.5741 69.0172 74.6711 68.9225 74.7613C68.8763 74.8135 68.8234 74.8593 68.7652 74.8976C68.7291 74.9205 68.6898 74.9377 68.6486 74.9489C68.6217 74.9572 68.5929 74.9572 68.5659 74.9489C68.5445 74.94 68.5241 74.9286 68.5053 74.9151C68.3453 74.7869 68.1899 74.6595 68.0392 74.5329C67.8804 74.3974 67.7117 74.274 67.5347 74.1635C67.5174 74.1443 67.5054 74.1211 67.4997 74.0959C67.5043 74.0658 67.5163 74.0374 67.5347 74.0132L68.5717 72.4156C68.6044 72.3748 68.6347 72.355 68.6638 72.3574C68.6995 72.3618 68.7335 72.375 68.7628 72.3958C68.8537 72.4494 68.9469 72.5124 69.0402 72.5694C69.1323 72.6299 69.2178 72.6998 69.2953 72.778C69.3722 72.8538 69.441 72.9373 69.5004 73.0274C69.5585 73.1176 69.5988 73.2181 69.6193 73.3234L69.6239 73.3199Z" fill="#1A1A18"></path><path d="M72.1316 59.6743C72.191 59.538 72.2388 59.4692 72.2749 59.4692C72.311 59.4692 72.3367 59.4914 72.3367 59.538C72.3364 59.5584 72.334 59.5787 72.3297 59.5986C72.2567 60.095 72.2065 60.4445 72.1794 60.6473C72.1479 60.8803 72.1223 61.0749 72.1036 61.2299C72.085 61.3849 72.0698 61.5329 72.0558 61.6634C72.0419 61.7939 72.0314 61.9186 72.0221 62.0421C72.0127 62.1656 72.0022 62.3054 71.9883 62.4651C71.9375 63.0589 71.8202 63.6452 71.6387 64.2129C71.4894 64.6507 71.3018 65.0746 71.0782 65.4795C70.8626 65.8687 70.6925 66.0726 70.5702 66.0913C70.5562 66.0913 70.5492 66.0796 70.5492 66.0563C70.556 65.9843 70.5721 65.9134 70.597 65.8454C70.6668 65.6552 70.724 65.4605 70.7683 65.2628C70.8234 65.0297 70.8723 64.7804 70.9151 64.5147C70.9578 64.249 70.9966 63.9772 71.0316 63.699C71.0666 63.4194 71.0945 63.1537 71.1178 62.9032C71.1272 62.7525 71.1543 62.5136 71.1994 62.1866C71.2349 61.8995 71.3038 61.6176 71.4045 61.3464L72.1316 59.6743Z" fill="#1A1A18"></path><path d="M76.4604 63.2934C76.5866 63.233 76.7074 63.1621 76.8216 63.0813C76.8943 63.0732 76.9675 63.069 77.0407 63.0685C77.1489 63.0668 77.2568 63.0806 77.3611 63.1093C77.4701 63.1305 77.5686 63.188 77.6408 63.2724L77.4811 63.3959C77.4182 63.4479 77.3618 63.5074 77.3133 63.573C77.2224 63.7284 77.135 63.8752 77.0511 64.0135C76.9826 64.1281 76.9046 64.2369 76.8181 64.3386C76.7033 64.4677 76.5712 64.5803 76.4254 64.673C76.276 64.7675 76.1203 64.8516 75.9593 64.9247C75.7997 65.0074 75.6564 65.089 75.5294 65.1706C75.41 65.2465 75.298 65.3335 75.1949 65.4304C75.067 65.5712 74.9577 65.7278 74.8698 65.8965C74.7603 66.1019 74.6656 66.3149 74.5867 66.5339C74.5115 66.7692 74.4074 66.9943 74.2767 67.2039C74.1584 67.3871 74.017 67.5543 73.8561 67.7015C73.7418 67.8134 73.6074 67.9028 73.4599 67.9648C73.2601 68.0516 73.0484 68.1078 72.8318 68.1314L71.5687 68.2759C71.5058 68.2759 71.4522 68.2818 71.4196 68.2818C71.3919 68.2827 71.3641 68.2808 71.3368 68.2759C71.3141 68.2755 71.2919 68.2688 71.2726 68.2567C71.2533 68.2446 71.2376 68.2275 71.2273 68.2072C71.2187 68.1927 71.2143 68.1762 71.2145 68.1594C71.2155 68.133 71.2223 68.1072 71.2343 68.0837C71.262 68.0221 71.3016 67.9667 71.3508 67.9205C71.4138 67.8559 71.4838 67.7985 71.5594 67.7492C71.8227 67.5721 72.0418 67.4323 72.2143 67.3298C72.3867 67.2272 72.5417 67.1375 72.6803 67.0606C72.819 66.9837 72.9507 66.9138 73.0824 66.838C73.214 66.7623 73.3737 66.6621 73.5613 66.5339C73.7233 66.4339 73.8741 66.3167 74.011 66.1843C74.1272 66.0704 74.2283 65.9419 74.3117 65.8021C74.3932 65.6693 74.4713 65.5306 74.5447 65.385C74.6181 65.2393 74.6927 65.0937 74.7708 64.948C74.8489 64.8024 74.9351 64.6637 75.033 64.518C75.1354 64.3666 75.2459 64.2207 75.3639 64.0811C75.4998 63.9337 75.6496 63.7999 75.8113 63.6814C76.0139 63.5303 76.2314 63.4003 76.4604 63.2934Z" fill="#1A1A18"></path><path d="M77.8867 62.9184C77.8129 63.0669 77.7296 63.2106 77.6373 63.3483C77.5441 63.4893 77.4497 63.6222 77.3542 63.748C77.2586 63.8739 77.1642 63.9881 77.071 64.0976C76.9778 64.2071 76.895 64.291 76.8216 64.3633C76.7675 64.3012 76.7277 64.228 76.7051 64.1489C76.6692 64.044 76.6484 63.9345 76.6434 63.8238C76.6369 63.7015 76.6459 63.579 76.6702 63.459C76.6949 63.3326 76.7474 63.2132 76.824 63.1095C76.9069 63.0625 76.9849 63.0075 77.057 62.9452C77.395 62.554 77.7009 62.1363 77.9717 61.696C77.8277 61.5939 77.6684 61.5153 77.4998 61.463C77.2642 61.3703 77.0159 61.3138 76.7634 61.2952C76.5787 61.2749 76.3924 61.3159 76.2332 61.4117C76.0823 61.515 75.9536 61.6473 75.8545 61.8009C75.738 61.9687 75.6436 62.0468 75.5609 62.034C75.5434 62.0246 75.5341 62.0025 75.5341 61.9652C75.5351 61.9306 75.5398 61.8963 75.548 61.8627C75.5705 61.762 75.6025 61.6637 75.6436 61.569C75.7741 61.2355 75.9753 60.9342 76.2332 60.6858C76.4527 60.4926 76.7368 60.3891 77.0291 60.3956C77.3157 60.4076 77.5989 60.4626 77.8692 60.5588C78.0417 60.6249 78.224 60.6619 78.4087 60.6683C78.7471 60.6589 79.0737 60.5417 79.3409 60.3339C79.352 60.3321 79.3635 60.333 79.3742 60.3365C79.385 60.3399 79.3948 60.3459 79.4028 60.3538C79.4109 60.3617 79.4169 60.3715 79.4205 60.3822C79.4242 60.3929 79.4252 60.4043 79.4236 60.4154C79.4233 60.4316 79.421 60.4477 79.4166 60.4632C79.3933 60.5541 79.363 60.659 79.3246 60.7778C79.2861 60.8967 79.2593 60.9759 79.2453 61.0167C79.2157 61.1501 79.1603 61.2763 79.0822 61.3884C79.0414 61.4234 78.9226 61.5108 78.7326 61.6518C78.6248 61.7316 78.5294 61.8271 78.4495 61.9349C78.3608 62.056 78.2799 62.1824 78.2071 62.3136C78.1217 62.462 78.0148 62.6636 77.8867 62.9184ZM79.4842 68.6537C79.4982 68.7045 79.5053 68.7571 79.5052 68.8098C79.5042 68.8886 79.4928 68.967 79.4714 69.0429C79.4238 69.193 79.3547 69.3355 79.2663 69.4658C79.1894 69.5824 79.1113 69.6989 79.0333 69.8003C78.9518 69.909 78.8601 70.0097 78.7594 70.1009C78.6429 70.2232 78.5509 70.2862 78.4868 70.2885C78.4328 70.2937 78.379 70.2778 78.3364 70.2442L78.1349 70.0636C78.051 69.9879 77.9636 69.9121 77.8727 69.8306C77.7818 69.749 77.6909 69.6802 77.6023 69.6127C77.5315 69.5562 77.4576 69.5037 77.381 69.4554C77.3616 69.4422 77.3473 69.4229 77.3402 69.4006C77.3402 69.3831 77.3483 69.3505 77.381 69.305L78.418 67.7215C78.4553 67.6714 78.4821 67.6481 78.5007 67.6527C78.5453 67.6701 78.5885 67.6908 78.6301 67.7145C78.7163 67.7693 78.8049 67.831 78.8969 67.8881C78.9866 67.9491 79.0708 68.0177 79.1486 68.0932C79.2266 68.1692 79.2955 68.254 79.3537 68.346C79.414 68.4406 79.4581 68.5446 79.4842 68.6537Z" fill="#1A1A18"></path><path d="M81.9148 59.7026C81.9743 59.5663 82.0221 59.4976 82.0582 59.4976C82.0943 59.4976 82.1199 59.5209 82.1199 59.5663C82.1196 59.5871 82.1172 59.6078 82.1129 59.6281C82.0861 59.7236 82.0547 59.8879 82.0174 60.1221C81.9801 60.3563 81.9545 60.5404 81.9358 60.6721C81.909 60.9052 81.8811 61.1662 81.8543 61.4575C81.8275 61.7488 81.8018 62.0471 81.7785 62.3512C81.7552 62.6553 81.7331 62.9618 81.7109 63.2531C81.6888 63.5444 81.6632 63.8066 81.6352 64.0385C81.5853 64.6312 81.4732 65.2171 81.3008 65.7863C81.1592 66.2228 80.9835 66.6475 80.7752 67.0564C80.5748 67.4456 80.4129 67.6484 80.2905 67.667C80.2765 67.667 80.2695 67.6554 80.2695 67.6332C80.2763 67.5608 80.2924 67.4895 80.3173 67.4212C80.3869 67.2311 80.4429 67.0365 80.4851 66.8385C80.5371 66.6055 80.5838 66.3561 80.6249 66.0905C80.6661 65.8248 80.7026 65.5529 80.7345 65.2748C80.7663 64.9951 80.7935 64.7302 80.816 64.4801C80.8475 64.2471 80.8755 63.8882 80.8976 63.4151C80.9197 62.942 80.9547 62.5481 81.0001 62.2195C81.0356 61.9329 81.1045 61.6513 81.2052 61.3806L81.9148 59.7026Z" fill="#1A1A18"></path><path d="M84.6532 68.0194C84.7721 67.9285 84.9131 67.8189 85.0762 67.6908C85.4699 67.4062 85.8369 67.0864 86.1727 66.7353C86.3912 66.544 86.5525 66.296 86.6388 66.0187C86.6436 65.9937 86.646 65.9683 86.6458 65.9429C86.6116 65.687 86.4941 65.4495 86.3113 65.2671C86.0427 64.9549 85.738 64.6756 85.4036 64.4351C85.3819 64.4202 85.3659 64.3985 85.3582 64.3733C85.3559 64.3544 85.3596 64.3353 85.3687 64.3186L85.6903 63.581L86.1401 62.5707C86.1773 62.4892 86.2111 62.4204 86.2426 62.3656C86.2612 62.3342 86.281 62.3179 86.3043 62.3179C86.319 62.3183 86.3333 62.3232 86.3451 62.3319C86.5362 62.4919 86.7262 62.6636 86.9149 62.8469C87.1066 63.0347 87.2709 63.2485 87.4032 63.4819C87.5516 63.7695 87.6223 64.0908 87.6083 64.4141C87.6093 64.8504 87.5368 65.2837 87.3938 65.6959C87.2361 66.1388 87.0412 66.5676 86.8112 66.9776C86.7238 67.1315 86.622 67.2766 86.5071 67.4111C86.3769 67.5549 86.2181 67.6699 86.041 67.749C85.6134 67.9251 85.1766 68.078 84.7324 68.207C84.6993 68.2153 84.6653 68.22 84.6311 68.221C84.6074 68.2218 84.5838 68.217 84.5623 68.207C84.5567 68.1988 84.5542 68.1889 84.5553 68.179C84.5562 68.1652 84.5585 68.1515 84.5623 68.1382C84.5828 68.092 84.614 68.0513 84.6532 68.0194Z" fill="#1A1A18"></path><path d="M89.6846 64.3729C89.6627 64.7781 89.5584 65.1746 89.3782 65.5381C89.2096 65.8559 89.0181 66.0151 88.8037 66.0159C88.8037 65.8434 88.8596 65.3063 88.9715 64.4044C89.0834 63.5025 89.1677 62.8573 89.2244 62.4689C89.2811 62.0805 89.3459 61.6676 89.419 61.2303C89.4912 60.7933 89.5623 60.4402 89.6299 60.1711C89.7076 59.9489 89.7907 59.7236 89.8792 59.4952C89.9678 59.2668 90.0602 59.0416 90.1566 58.8194C90.1834 58.7786 90.2067 58.7588 90.2241 58.7588C90.2416 58.7588 90.2696 58.7949 90.2789 58.8672C90.1647 59.6238 90.0602 60.408 89.9655 61.2198C89.8707 62.0315 89.8058 62.6142 89.7709 62.9676C89.7359 63.3172 89.7196 63.5234 89.7196 63.5817C89.6963 63.9476 89.6846 64.2191 89.6846 64.3729Z" fill="#1A1A18"></path><path d="M93.1127 66.2784C93.0248 66.261 92.9355 66.2516 92.8459 66.2505C92.7788 66.249 92.7119 66.2584 92.6478 66.2784C92.2485 66.5059 91.922 66.8421 91.7063 67.2479C91.2697 67.9028 90.8145 68.2302 90.3406 68.2302C90.1077 68.2366 89.8775 68.1789 89.6751 68.0634C89.4727 67.948 89.3059 67.7791 89.1929 67.5753C88.9237 67.0991 88.7891 66.5585 88.8037 66.0116C88.9059 65.6584 89.0352 65.3136 89.1905 64.9803C89.2902 64.7346 89.4626 64.5252 89.6846 64.3803C89.6675 65.481 90.1161 66.0318 91.0305 66.0326C91.3873 66.0433 91.735 65.9184 92.0034 65.683C92.2784 65.4445 92.482 65.2612 92.614 65.133C92.7555 65.0176 92.9303 64.9506 93.1127 64.9419C93.2359 65.1256 93.2915 65.3463 93.27 65.5665C93.2888 65.8141 93.2341 66.0617 93.1127 66.2784ZM92.9356 56.7526C92.9543 56.8178 92.9641 56.8852 92.9647 56.953C92.9642 57.0255 92.9544 57.0975 92.9356 57.1674C92.8859 57.3246 92.8137 57.4737 92.7212 57.6102C92.6396 57.7349 92.5581 57.8503 92.4753 57.9598C92.3909 58.0674 92.299 58.1691 92.2003 58.2639C92.1515 58.3185 92.0959 58.3667 92.0349 58.4073C91.9995 58.4308 91.9599 58.4474 91.9184 58.4562C91.9047 58.4618 91.89 58.4646 91.8752 58.4643C91.8605 58.4644 91.8459 58.4616 91.8321 58.4562C91.8096 58.4476 91.7884 58.4358 91.7692 58.4212C91.6014 58.2872 91.4395 58.1521 91.2833 58.0134C91.1148 57.8764 90.9377 57.7503 90.7531 57.6359C90.7344 57.6131 90.7224 57.5857 90.7182 57.5566C90.724 57.528 90.7359 57.501 90.7531 57.4774L91.8403 55.8064C91.8729 55.7633 91.9055 55.7435 91.9358 55.7459C91.9732 55.7501 92.0089 55.7637 92.0395 55.7855C92.1351 55.8422 92.2318 55.9028 92.3297 55.9672C92.4259 56.0305 92.5153 56.1035 92.5965 56.1851C92.6769 56.2648 92.7491 56.3522 92.8121 56.4462C92.8727 56.5394 92.9146 56.6434 92.9356 56.7526ZM95.1158 56.6244C95.1346 56.6896 95.1444 56.757 95.1449 56.8249C95.1443 56.8973 95.1345 56.9693 95.1158 57.0393C95.0658 57.1963 94.9936 57.3454 94.9014 57.4821C94.821 57.6056 94.7382 57.7151 94.6543 57.8316C94.5709 57.9394 94.4793 58.0407 94.3805 58.1346C94.3323 58.1898 94.2766 58.2381 94.215 58.2779C94.1798 58.302 94.1402 58.319 94.0985 58.328C94.0705 58.3373 94.0403 58.3373 94.0123 58.328C93.9895 58.3192 93.968 58.3074 93.9482 58.2931C93.7816 58.1591 93.6184 58.0239 93.4623 57.8852C93.2946 57.7479 93.1183 57.6214 92.9345 57.5065C92.9148 57.4846 92.9018 57.4575 92.8972 57.4285C92.9035 57.3996 92.9162 57.3725 92.9345 57.3492L94.0193 55.6783C94.0289 55.6607 94.0428 55.6459 94.0597 55.6353C94.0767 55.6247 94.096 55.6186 94.116 55.6177C94.1532 55.622 94.1887 55.6352 94.2197 55.6561C94.3153 55.7132 94.412 55.7727 94.5087 55.8391C94.6057 55.9022 94.6959 55.9753 94.7779 56.057C94.8572 56.1365 94.9286 56.2235 94.9911 56.3168C95.0535 56.4101 95.0974 56.5146 95.1204 56.6244H95.1158Z" fill="#1A1A18"></path><path d="M94.1883 65.0627C94.2969 64.9765 94.3951 64.878 94.4808 64.7691C94.5884 64.6355 94.6888 64.4962 94.7814 64.3519C94.7999 64.3409 94.8194 64.332 94.8397 64.3251C94.8682 64.3212 94.8973 64.3235 94.9248 64.3321C94.9713 64.3557 95.0229 64.3673 95.0751 64.3659C95.1028 64.3659 95.1305 64.3635 95.1578 64.3589C95.2472 64.346 95.3329 64.3147 95.4095 64.2669C95.4706 64.2266 95.5238 64.1757 95.5668 64.1165C95.6102 64.0558 95.647 63.9906 95.6763 63.9219C95.7031 63.8497 95.7358 63.7716 95.7719 63.6889C95.7914 63.6447 95.8165 63.6032 95.8465 63.5654C95.8561 63.5569 95.8686 63.5523 95.8814 63.5526C95.8908 63.5528 95.8999 63.5552 95.9082 63.5596C95.9221 63.5786 95.941 63.5935 95.9628 63.6026C95.9846 63.6116 96.0084 63.6145 96.0317 63.6108C96.0767 63.6054 96.1204 63.5924 96.1611 63.5724C96.2372 63.5376 96.3022 63.4823 96.3487 63.4127C96.4034 63.3332 96.4502 63.2485 96.4885 63.1599C96.5302 63.0652 96.5668 62.9684 96.598 62.8697C96.6272 62.7812 96.6614 62.6945 96.7006 62.6099C96.7227 62.5551 96.7553 62.5283 96.7961 62.5283C96.8055 62.5284 96.8147 62.5308 96.8229 62.5353C96.8488 62.5417 96.8717 62.5567 96.8878 62.5779C96.9039 62.5991 96.9123 62.6252 96.9115 62.6518C96.8614 62.8849 96.8078 63.1109 96.7484 63.3452C96.6916 63.5748 96.6136 63.7988 96.5153 64.014C96.4204 64.2239 96.2973 64.4199 96.1494 64.5966C95.9995 64.7735 95.8131 64.9158 95.6029 65.0138C95.5413 65.0899 95.4743 65.1616 95.4025 65.2282C95.3221 65.3037 95.2364 65.3734 95.1462 65.4367C95.0565 65.5002 94.9604 65.5541 94.8595 65.5976C94.7712 65.6375 94.6765 65.6616 94.5798 65.6686L94.2583 65.9145C94.1424 66.0083 94.0192 66.0929 93.89 66.1673C93.768 66.2372 93.6371 66.2901 93.5008 66.3247C93.4579 66.3334 93.4142 66.3377 93.3703 66.3375C93.2814 66.3371 93.1934 66.3189 93.1117 66.2839C93.0661 66.063 93.0365 65.839 93.0231 65.6139C93.0095 65.3873 93.0395 65.1602 93.1117 64.945C93.1519 64.9573 93.1909 64.9733 93.2282 64.9928L93.3692 65.0685C93.4193 65.0953 93.4717 65.1221 93.5288 65.1466C93.5869 65.1716 93.648 65.1888 93.7106 65.1979C93.7399 65.2024 93.7695 65.2047 93.7991 65.2049C93.85 65.2048 93.9005 65.1977 93.9495 65.1839C94.0349 65.1562 94.1155 65.1153 94.1883 65.0627Z" fill="#1A1A18"></path></g><defs><clipPath id="clip0_9871_494"><rect width="95.4119" height="26.4299" fill="white" transform="translate(1.50427 51.792)"></rect></clipPath></defs></svg> 