<?xml version="1.0" encoding="UTF-8"?> <svg xmlns="http://www.w3.org/2000/svg" width="100" height="100" viewBox="0 0 100 100" fill="none"><g clip-path="url(#clip0_9871_1071)"><path d="M49.6275 26.2531C49.6275 26.2531 29.2868 29.7634 29.2868 43.4729C29.2868 57.1824 49.6487 61.1892 49.6487 61.1892C49.6487 61.1892 13 62.246 13 43.4729C13 22.5533 49.6275 26.2531 49.6275 26.2531Z" fill="black"></path><path d="M51.1554 26.2526C51.1554 26.2526 71.4944 29.7629 71.4944 43.4724C71.4944 57.1819 51.1326 61.1887 51.1326 61.1887C51.1326 61.1887 87.7812 62.2455 87.7812 43.4724C87.7829 22.5528 51.1554 26.2526 51.1554 26.2526Z" fill="black"></path><path d="M50.7216 51.7448C55.2118 51.7448 58.8519 48.0984 58.8519 43.6004C58.8519 39.1024 55.2118 35.4561 50.7216 35.4561C46.2313 35.4561 42.5912 39.1024 42.5912 43.6004C42.5912 48.0984 46.2313 51.7448 50.7216 51.7448Z" fill="black"></path><path d="M17.1956 71.0127C17.8413 71.6759 18.1658 72.1921 18.1658 72.5629C18.1658 72.9337 17.8641 73.1787 17.2608 73.3453C17.0521 73.3976 16.8254 73.44 16.5825 73.4694C16.3395 73.5005 16.0737 73.5152 15.7883 73.5152C15.3024 73.5152 14.9176 73.4253 14.6338 73.2473C14.3175 73.0595 14.1577 72.7736 14.1577 72.3914C14.1577 72.2966 14.1724 72.1839 14.2034 72.0532C14.2343 71.9242 14.28 71.7756 14.342 71.609L14.5262 71.1042C14.5262 71.0029 14.474 70.9523 14.3697 70.9523C14.2588 70.9523 14.1235 71.1091 13.9637 71.4244C13.7044 71.9422 13.5756 72.3914 13.5756 72.7703C13.5756 73.409 13.7615 73.8925 14.1349 74.2225C14.4789 74.5181 14.9583 74.6668 15.5715 74.6668C17.5853 74.6668 18.5914 73.9873 18.5914 72.6266C18.5914 71.5632 18.2914 70.6714 17.6913 69.9526L17.1972 71.0127H17.1956Z" fill="black"></path><path d="M16.7015 69.1338L16.0933 68.5327L15.4834 69.1338L16.0933 69.7496L16.7015 69.1338Z" fill="black"></path><path d="M20.2531 66.2104C20.2434 66.2104 20.0526 66.3656 19.6808 66.6776L19.3351 66.9684L19.6123 70.5113C19.6465 70.9621 19.6743 71.3231 19.6971 71.5943C19.7199 71.8654 19.7379 72.05 19.7509 72.1497C19.7786 72.3228 19.8063 72.4094 19.8341 72.4094C19.9172 72.4094 20.0232 72.2166 20.152 71.8311C20.2841 71.4456 20.351 71.1435 20.351 70.9246L20.3281 67.1497C20.3184 66.5241 20.2939 66.2104 20.2548 66.2104H20.2531Z" fill="black"></path><path d="M23.7867 73.5344L24.3363 74.0849L24.8858 73.5344L24.3363 72.9741L23.7867 73.5344Z" fill="black"></path><path d="M25.0422 73.5344L25.5918 74.0849L26.1413 73.5344L25.5918 72.9741L25.0422 73.5344Z" fill="black"></path><path d="M25.0373 69.8559C25.3977 70.3002 25.5771 70.5795 25.5771 70.6938C25.5771 70.8948 25.1156 70.996 24.1943 70.9993C24.0117 71.0009 23.8453 70.983 23.6937 70.9438C23.5404 70.9029 23.4051 70.8408 23.2877 70.7543C23.198 70.6922 23.0969 70.5942 22.986 70.4603C22.8735 70.3263 22.7463 70.1581 22.6044 69.9539L22.1283 71.032C22.6729 71.5955 22.9452 71.9941 22.9452 72.226C22.9452 72.458 22.7186 72.7879 22.2669 73.1881C22.0272 73.4005 21.7826 73.5834 21.5347 73.7369C21.2869 73.8905 21.0308 74.0114 20.765 74.0996C20.4911 74.1927 20.3541 74.2695 20.3541 74.3315C20.3541 74.3903 20.615 74.4491 21.1352 74.5079C21.3684 74.5357 21.5787 74.5569 21.763 74.5733C21.9473 74.5896 22.1087 74.5961 22.2473 74.5961C22.4201 74.5961 22.6745 74.3283 23.0137 73.7909C23.0838 73.683 23.1474 73.5622 23.2029 73.4299C23.2583 73.2976 23.3072 73.1571 23.3512 73.0084C23.3888 72.8696 23.4148 72.7487 23.4328 72.6474C23.4491 72.5462 23.4589 72.4547 23.4589 72.3747C23.4589 72.3012 23.4589 72.2358 23.454 72.1786C23.4507 72.1215 23.4409 72.0725 23.4263 72.0333C23.5681 72.1084 23.8095 72.1492 24.1454 72.1525C24.1486 72.1525 24.1503 72.1525 24.1519 72.1525H24.553C25.6244 72.1525 26.1608 71.5579 26.1608 70.3672C26.1608 69.7873 25.988 69.3054 25.6439 68.9199L25.039 69.8592L25.0373 69.8559Z" fill="black"></path><path d="M27.661 66.2104C27.6512 66.2104 27.4604 66.3656 27.0886 66.6776L26.7429 66.9684L27.0201 70.5113C27.0544 70.9621 27.0821 71.3231 27.1049 71.5943C27.1278 71.8654 27.1457 72.05 27.1587 72.1497C27.1865 72.3228 27.2142 72.4094 27.2419 72.4094C27.3251 72.4094 27.4311 72.2166 27.5599 71.8311C27.692 71.4456 27.7588 71.1435 27.7588 70.9246L27.736 67.1497C27.7262 66.5241 27.7017 66.2104 27.6626 66.2104H27.661Z" fill="black"></path><path d="M42.5031 67.7487L41.9536 67.1885L41.4041 67.7487L41.9536 68.2992L42.5031 67.7487Z" fill="black"></path><path d="M41.3895 69.8559C41.7499 70.3002 41.9292 70.5795 41.9292 70.6939C41.9292 70.898 41.4531 70.9993 40.5024 70.9993H40.3035C39.9333 70.9993 39.6594 70.7445 39.4816 70.2365C39.2501 69.5946 38.8457 69.2744 38.2668 69.2744C38.0728 69.2744 37.9032 69.3169 37.7564 69.4018C37.6097 69.4867 37.4808 69.6158 37.3716 69.7873C37.2917 69.9229 37.2313 70.0633 37.189 70.2104C37.1482 70.3574 37.127 70.5109 37.127 70.671C37.127 70.8899 36.9085 70.9993 36.4715 70.9993H36.2497C36.1388 70.9993 36.023 70.9977 35.9007 70.9928C35.7784 70.9879 35.6529 70.9797 35.5241 70.9666C35.4001 70.9601 35.299 70.9552 35.2175 70.9503C35.136 70.9454 35.0789 70.9438 35.0447 70.9438C34.4315 70.9438 33.9244 71.1512 33.52 71.5678C33.3537 71.7409 33.2281 71.9157 33.1417 72.0954C33.0553 72.2734 33.0129 72.4596 33.0129 72.6507C33.0129 72.8729 33.1988 73.0199 33.5722 73.0901L34.6859 73.2894C34.8637 73.3106 34.9533 73.3613 34.9533 73.4413C34.9533 73.6569 34.2636 73.7647 32.8841 73.7647C32.4226 73.7647 32.0247 73.7059 31.6921 73.5883C31.1311 73.3907 30.8523 73.0509 30.8523 72.5707C30.8523 72.3828 30.8996 72.1558 30.9958 71.8912C31.0887 71.6233 31.1344 71.4959 31.1344 71.5122C31.1344 71.3913 31.074 71.3325 30.955 71.3325C30.836 71.3325 30.7235 71.442 30.6224 71.6609C30.474 71.9696 30.3647 72.2456 30.293 72.4906C30.2212 72.7357 30.1837 72.9578 30.1837 73.1538C30.1935 74.2172 30.9175 74.7497 32.359 74.7497C32.8417 74.7497 33.2591 74.7317 33.6097 74.6942C33.9603 74.6566 34.2505 74.5978 34.4772 74.5178C35.1604 74.2956 35.5127 73.8791 35.5355 73.2682C35.5453 73.1048 35.4947 72.9676 35.3838 72.8565C35.2941 72.7553 35.1849 72.6981 35.0561 72.685L33.7907 72.4857C33.6586 72.4678 33.5918 72.4073 33.5918 72.3061C33.5918 72.2293 33.6456 72.1558 33.7532 72.0888C33.8152 72.048 33.8853 72.0202 33.9635 72.0039C34.0418 71.9875 34.1299 71.9777 34.2293 71.9777C34.3125 71.9777 34.4218 71.9843 34.5587 71.9957C34.6957 72.0088 34.8653 72.0317 35.0691 72.0643C35.2729 72.0954 35.4719 72.1166 35.6676 72.1297C35.8437 72.1411 36.0182 72.146 36.1926 72.1476C36.1959 72.1476 36.1975 72.1476 36.2008 72.1476H36.5008C36.6639 72.1476 36.8351 72.0954 37.0128 71.9908C37.2183 71.8732 37.3814 71.7197 37.4971 71.5286C37.7613 71.9826 38.1119 72.2081 38.5456 72.2081C38.9794 72.2081 39.3006 71.9957 39.4686 71.5694C39.5142 71.6494 39.5697 71.7213 39.6333 71.785C39.6969 71.8487 39.7654 71.9091 39.8387 71.9679C39.9985 72.0888 40.1535 72.1476 40.3051 72.1476H40.9052C41.9765 72.1476 42.513 71.553 42.513 70.3623C42.513 69.7824 42.3401 69.3005 41.9961 68.915L41.3911 69.8543L41.3895 69.8559ZM38.743 71.3913C38.562 71.3913 38.3989 71.246 38.2538 70.9568C38.1885 70.8343 38.1412 70.7151 38.1103 70.6008C38.0793 70.4864 38.0646 70.3802 38.0646 70.2822C38.0646 69.9833 38.1755 69.833 38.3973 69.833C38.606 69.833 38.7853 69.98 38.9337 70.2724C39.0544 70.5125 39.1131 70.7527 39.1131 70.9895C39.1131 71.2574 38.9892 71.3913 38.743 71.3913Z" fill="black"></path><path d="M41.2476 67.7487L40.6981 67.1885L40.1486 67.7487L40.6981 68.2992L41.2476 67.7487Z" fill="black"></path><path d="M44.0131 66.2104C44.0034 66.2104 43.8126 66.3656 43.4408 66.6776L43.0951 66.9684L43.3723 70.5113C43.4065 70.9621 43.4343 71.3231 43.4571 71.5943C43.4799 71.8654 43.4979 72.05 43.5109 72.1497C43.5386 72.3228 43.5663 72.4094 43.5941 72.4094C43.6772 72.4094 43.7832 72.2166 43.912 71.8311C44.0441 71.4456 44.111 71.1435 44.111 70.9246L44.0882 67.1497C44.0784 66.5241 44.0539 66.2104 44.0148 66.2104H44.0131Z" fill="black"></path><path d="M52.0115 69.4168C51.8109 69.0836 51.537 68.917 51.1897 68.917C50.6727 68.917 50.2162 69.2306 49.8232 69.8562C49.6438 70.1339 49.5134 70.4083 49.4286 70.6778C49.3438 70.9474 49.3014 71.2136 49.3014 71.475C49.3014 71.7363 49.4416 71.9438 49.7221 72.0761C49.8998 72.1594 50.2064 72.2329 50.6418 72.2982C50.8016 72.3195 50.932 72.3407 51.0347 72.3603C51.1358 72.3799 51.2092 72.3979 51.2516 72.4142C51.356 72.4599 51.4082 72.5367 51.4082 72.6412C51.4082 72.8536 51.1473 73.03 50.6238 73.1688C50.3923 73.2244 50.1542 73.2669 49.908 73.2979C49.6617 73.3289 49.3992 73.3436 49.1236 73.3436C48.8073 73.3436 48.5301 73.324 48.2953 73.2832C48.0605 73.2424 47.8648 73.1852 47.7115 73.1068C47.3479 72.9189 47.1669 72.6135 47.1669 72.1904C47.1669 71.965 47.2256 71.6938 47.343 71.377C47.4473 71.065 47.4995 70.918 47.4995 70.9327C47.4995 70.8118 47.4392 70.753 47.3201 70.753C47.1946 70.753 47.0804 70.8624 46.9777 71.0813C46.7135 71.6236 46.5798 72.1529 46.5798 72.6674C46.5798 73.8859 47.3348 74.4952 48.8432 74.4952C49.215 74.4952 49.559 74.4658 49.8737 74.4054C50.1884 74.3449 50.4771 74.2567 50.7412 74.1391C51.5321 73.7879 51.9283 73.2048 51.9283 72.3897C51.9283 72.0287 51.8696 71.7723 51.7522 71.622C51.6413 71.4864 51.4408 71.3982 51.1522 71.359C50.8961 71.3182 50.6858 71.2822 50.5195 71.2479C50.3531 71.2136 50.2308 71.1793 50.1493 71.1466C49.9732 71.0911 49.8868 70.9931 49.8868 70.851C49.8868 70.6844 50.0221 70.4916 50.2928 70.2728C50.5977 70.0326 50.9336 69.9118 51.2989 69.9118C51.462 69.9118 51.6511 69.9461 51.8664 70.013C51.974 70.0408 52.0539 70.0637 52.1061 70.0816C52.1583 70.0996 52.1811 70.1094 52.1746 70.1094C52.2088 70.1094 52.2251 70.0882 52.2251 70.0441C52.2251 69.9542 52.2072 69.8562 52.1713 69.7501C52.1354 69.6439 52.0833 69.5312 52.0115 69.4152V69.4168Z" fill="black"></path><path d="M54.764 69.9546L54.2878 71.0327C54.8324 71.5962 55.1048 71.9948 55.1048 72.2267C55.1048 72.4587 54.8781 72.7886 54.4264 73.1888C54.1867 73.4012 53.9421 73.5841 53.6943 73.7376C53.4464 73.8912 53.1904 74.0121 52.9246 74.1003C52.6506 74.1934 52.5137 74.2702 52.5137 74.3322C52.5137 74.391 52.7746 74.4498 53.2947 74.5086C53.5279 74.5364 53.7383 74.5576 53.9225 74.574C54.1068 74.5887 54.2682 74.5968 54.4068 74.5968C54.5797 74.5968 54.8341 74.329 55.1732 73.7916C55.3265 73.5514 55.439 73.2852 55.5108 72.9961C55.5809 72.7069 55.6168 72.3852 55.6168 72.034C55.6168 71.6485 55.5467 71.2842 55.4064 70.9396C55.2662 70.5949 55.0509 70.2682 54.7623 69.9562L54.764 69.9546Z" fill="black"></path><path d="M55.0362 67.8057L54.4867 67.2471L53.9371 67.8057L54.4867 68.3611L55.0362 67.8057Z" fill="black"></path><path d="M54.4084 68.9073L53.8589 68.3438L53.3044 68.9073L53.8589 69.4594L54.4084 68.9073Z" fill="black"></path><path d="M54.5601 68.9073L55.1145 69.4594L55.664 68.9073L55.1145 68.3438L54.5601 68.9073Z" fill="black"></path><path d="M60.4858 69.8559C60.8462 70.3002 61.0256 70.5795 61.0256 70.6938C61.0256 70.8948 60.5641 70.996 59.6428 70.9993C59.4601 71.0009 59.2938 70.983 59.1422 70.9438C58.9889 70.9029 58.8535 70.8408 58.7361 70.7543C58.6465 70.6922 58.5454 70.5942 58.4345 70.4603C58.322 70.3263 58.1948 70.1581 58.0529 69.9539L57.5768 71.032C58.1214 71.5955 58.3937 71.9941 58.3937 72.226C58.3937 72.458 58.167 72.7879 57.7154 73.1881C57.4757 73.4005 57.2311 73.5834 56.9832 73.7369C56.7353 73.8905 56.4793 74.0114 56.2135 74.0996C55.9396 74.1927 55.8026 74.2695 55.8026 74.3315C55.8026 74.3903 56.0635 74.4491 56.5837 74.5079C56.8169 74.5357 57.0272 74.5569 57.2115 74.5733C57.3958 74.5896 57.5572 74.5961 57.6958 74.5961C57.8686 74.5961 58.123 74.3283 58.4622 73.7909C58.5323 73.683 58.5959 73.5622 58.6513 73.4299C58.7068 73.2976 58.7557 73.1571 58.7997 73.0084C58.8372 72.8696 58.8633 72.7487 58.8813 72.6474C58.8976 72.5462 58.9074 72.4547 58.9074 72.3747C58.9074 72.3012 58.9074 72.2358 58.9025 72.1786C58.8992 72.1215 58.8894 72.0725 58.8747 72.0333C59.0166 72.1084 59.2579 72.1492 59.5939 72.1525C59.5971 72.1525 59.5987 72.1525 59.6004 72.1525H60.0015C61.0728 72.1525 61.6093 71.5579 61.6093 70.3672C61.6093 69.7873 61.4365 69.3054 61.0924 68.9199L60.4874 69.8592L60.4858 69.8559Z" fill="black"></path><path d="M61.2067 67.7432L60.5968 67.1421L59.9869 67.7432L60.5968 68.3574L61.2067 67.7432Z" fill="black"></path><path d="M63.0346 66.2104C63.0248 66.2104 62.8341 66.3656 62.4623 66.6776L62.1166 66.9684L62.3938 70.5113C62.428 70.9621 62.4558 71.3231 62.4786 71.5943C62.5014 71.8654 62.5193 72.05 62.5324 72.1497C62.5601 72.3228 62.5878 72.4094 62.6156 72.4094C62.6987 72.4094 62.8047 72.2166 62.9335 71.8311C63.0656 71.4456 63.1325 71.1435 63.1325 70.9246L63.1096 67.1497C63.0999 66.5241 63.0754 66.2104 63.0363 66.2104H63.0346Z" fill="black"></path><path d="M68.683 69.1338L68.0731 68.5327L67.4633 69.1338L68.0731 69.7496L68.683 69.1338Z" fill="black"></path><path d="M69.1772 71.0127C69.8229 71.6759 70.1474 72.1921 70.1474 72.5629C70.1474 72.9337 69.8457 73.1787 69.2424 73.3453C69.0337 73.3976 68.807 73.44 68.564 73.4694C68.3211 73.5005 68.0553 73.5152 67.7699 73.5152C67.284 73.5152 66.8991 73.4253 66.6154 73.2473C66.2991 73.0595 66.1393 72.7736 66.1393 72.3914C66.1393 72.2966 66.1539 72.1839 66.1849 72.0532C66.2159 71.9242 66.2616 71.7756 66.3235 71.609L66.5078 71.1042C66.5078 71.0029 66.4556 70.9523 66.3513 70.9523C66.2404 70.9523 66.105 71.1091 65.9452 71.4244C65.686 71.9422 65.5571 72.3914 65.5571 72.7703C65.5571 73.409 65.743 73.8925 66.1164 74.2225C66.4605 74.5181 66.9399 74.6668 67.553 74.6668C69.5669 74.6668 70.573 73.9873 70.573 72.6266C70.573 71.5632 70.2729 70.6714 69.6729 69.9526L69.1788 71.0127H69.1772Z" fill="black"></path><path d="M76.2329 70.0231C75.9997 69.5232 75.6573 69.2733 75.2072 69.2733C75.0132 69.2733 74.8436 69.3044 74.6968 69.3681C74.5501 69.4318 74.4245 69.5249 74.3201 69.6474C74.1505 69.863 74.0658 70.126 74.0658 70.4331L74.0886 70.701C74.0886 70.8986 73.8293 70.9966 73.3124 70.9966H73.0401C73.0401 70.9966 73.0287 70.9982 73.0221 70.9982C73.0124 70.9982 73.0042 70.9966 72.9944 70.9966C72.7661 70.9966 72.6031 70.9558 72.5052 70.8725C72.4465 70.8235 72.4041 70.7581 72.378 70.6781C72.352 70.598 72.3356 70.5 72.3291 70.3824L72.2329 67.1482C72.2117 66.5226 72.184 66.209 72.1498 66.209C72.1122 66.209 71.91 66.3887 71.5399 66.7497L71.3132 66.9669C71.354 67.1989 71.3915 67.4929 71.4257 67.8506C71.4616 68.2083 71.4959 68.6346 71.5301 69.1312C71.5546 69.569 71.5741 69.9479 71.5872 70.2665C71.6019 70.585 71.6084 70.8463 71.6084 71.0505C71.6084 71.2972 71.7013 71.5307 71.8856 71.7496C72.003 71.8852 72.1416 71.9848 72.3014 72.0502C72.4612 72.1155 72.6438 72.1466 72.846 72.1466H73.3401C73.5032 72.1466 73.6744 72.0943 73.8521 71.9897C74.0576 71.8721 74.2207 71.7186 74.3364 71.5275C74.5452 71.9816 74.9072 72.207 75.4225 72.207C75.5855 72.207 75.7323 72.1792 75.8611 72.1253C75.9899 72.0714 76.1008 71.9946 76.1921 71.8934C76.2834 71.7937 76.3519 71.6729 76.3992 71.5324C76.4465 71.3919 76.471 71.2335 76.471 71.0587C76.471 70.8839 76.4514 70.7091 76.4139 70.536C76.3747 70.3628 76.3144 70.1913 76.2312 70.0182L76.2329 70.0231ZM75.5953 71.3919C75.411 71.3919 75.2463 71.2498 75.1012 70.9656C74.9757 70.7189 74.9121 70.4968 74.9121 70.2991C74.9121 69.9871 75.0344 69.832 75.2822 69.832C75.4632 69.832 75.6263 69.9659 75.7665 70.2338C75.8921 70.4657 75.9557 70.6977 75.9557 70.9329C75.9557 71.2384 75.835 71.3903 75.5953 71.3903V71.3919Z" fill="black"></path><path d="M79.2529 68.7735L78.643 68.1724L78.0348 68.7735L78.643 69.3893L79.2529 68.7735Z" fill="black"></path><path d="M78.9121 69.9546L78.436 71.0327C78.9806 71.5962 79.253 71.9948 79.253 72.2267C79.253 72.4587 79.0263 72.7886 78.5746 73.1888C78.3349 73.4012 78.0903 73.5841 77.8424 73.7376C77.5946 73.8912 77.3386 74.0121 77.0728 74.1003C76.7988 74.1934 76.6619 74.2702 76.6619 74.3322C76.6619 74.391 76.9228 74.4498 77.4429 74.5086C77.6761 74.5364 77.8865 74.5576 78.0707 74.574C78.255 74.5887 78.4164 74.5968 78.555 74.5968C78.7279 74.5968 78.9823 74.329 79.3214 73.7916C79.4747 73.5514 79.5872 73.2852 79.659 72.9961C79.7291 72.7069 79.765 72.3852 79.765 72.034C79.765 71.6485 79.6949 71.2842 79.5546 70.9396C79.4144 70.5949 79.1991 70.2682 78.9105 69.9562L78.9121 69.9546Z" fill="black"></path><path d="M87.4926 69.0236L86.9838 69.8746C87.2822 70.2323 87.4323 70.4675 87.4323 70.5819C87.4323 70.8596 87.1795 70.9984 86.6756 70.9984C86.4262 70.9984 86.2272 70.8922 86.0805 70.6799C85.9663 70.51 85.9092 70.3385 85.9092 70.167C85.9092 69.9612 85.8408 69.8566 85.7021 69.8566C85.5635 69.8566 85.4983 69.9595 85.4983 70.167C85.4983 70.3401 85.4429 70.5116 85.332 70.6799C85.1836 70.8922 84.9977 70.9984 84.7727 70.9984C84.5477 70.9984 84.3715 70.8922 84.2232 70.6799C84.1645 70.59 84.1237 70.5035 84.0992 70.4185C84.0748 70.3336 84.0617 70.2503 84.0617 70.167C84.0617 69.9612 83.9932 69.8566 83.8546 69.8566C83.716 69.8566 83.6426 69.9595 83.6426 70.167C83.6426 70.4038 83.5579 70.5966 83.3883 70.7452C83.2904 70.8285 83.1698 70.8922 83.0295 70.9347C82.8893 70.9772 82.7279 71 82.542 71H82.0984C82.0984 71 82.087 71.0017 82.0805 71.0017C82.0707 71.0017 82.0626 71 82.0528 71C81.8245 71 81.6614 70.9592 81.5636 70.8759C81.5049 70.8269 81.4625 70.7615 81.4364 70.6815C81.4103 70.6015 81.394 70.5035 81.3875 70.3859L81.2913 67.1516C81.2701 66.526 81.2423 66.2124 81.2081 66.2124C81.1706 66.2124 80.9684 66.3921 80.5982 66.7531L80.3716 66.9703C80.4123 67.2023 80.4499 67.4963 80.4841 67.854C80.52 68.2117 80.5542 68.6381 80.5885 69.1346C80.6129 69.5724 80.6325 69.9514 80.6455 70.2699C80.6602 70.5884 80.6667 70.8498 80.6667 71.0539C80.6667 71.3006 80.7597 71.5342 80.9439 71.753C81.0613 71.8886 81.1999 71.9883 81.3598 72.0536C81.5196 72.1189 81.7022 72.15 81.9044 72.15H82.361C82.5452 72.15 82.7148 72.1369 82.8697 72.1108C83.023 72.0846 83.16 72.0438 83.2806 71.9883C83.3817 71.9393 83.4828 71.8756 83.5807 71.7988C83.6785 71.722 83.7764 71.6256 83.8709 71.5113C83.9296 71.6191 83.9883 71.7106 84.0487 71.7841C84.109 71.8576 84.1726 71.9197 84.2395 71.9687C84.3993 72.0895 84.6129 72.1483 84.8819 72.1483C85.2325 72.1483 85.5277 71.936 85.769 71.5097C85.8342 71.6175 85.8978 71.7089 85.9614 71.7825C86.025 71.856 86.087 71.918 86.1489 71.967C86.3185 72.0879 86.537 72.1467 86.8045 72.1467C86.9806 72.1467 87.1404 72.1026 87.2855 72.0128C87.4306 71.9229 87.5562 71.789 87.6638 71.6109C87.8513 71.2941 87.9459 70.9118 87.9459 70.4675C87.9459 69.9056 87.7959 69.4238 87.4926 69.0203V69.0236Z" fill="black"></path></g><defs><clipPath id="clip0_9871_1071"><rect width="74.9443" height="48.7502" fill="white" transform="translate(13 26)"></rect></clipPath></defs></svg> 