<?xml version="1.0" encoding="UTF-8"?> <svg xmlns="http://www.w3.org/2000/svg" width="124" height="124" viewBox="0 0 124 124" fill="none"><g filter="url(#a)"><path d="M106.625 87.841c-1.222 2.131-9.427 7.64-18.524 13.041-10.94 6.488-23.173 12.785-26.111 12.785-5.378 0-41.947-21.165-44.635-25.836-.83-1.439-1.403-6.446-1.722-12.828-.701-14.335-.127-35.6 1.722-38.834 1.594-2.748 14.878-11.186 26.68-17.707 8.257-4.544 15.755-8.129 17.955-8.129 5.393 0 41.978 21.165 44.635 25.836.473.82.866 2.808 1.174 5.551 1.451 12.828 1.063 42.27-1.174 46.121Z" fill="#262626"></path><path d="m105.76 87.339-.003.005c-.205.357-.812.999-1.902 1.905-1.052.875-2.45 1.913-4.11 3.065-3.314 2.3-7.618 5.014-12.154 7.708-5.455 3.235-11.226 6.418-15.992 8.79-2.384 1.187-4.504 2.163-6.2 2.841-.848.339-1.576.597-2.171.77-.613.178-1.016.244-1.238.244-.2 0-.555-.054-1.091-.203a20.832 20.832 0 0 1-1.9-.649c-1.483-.573-3.336-1.405-5.436-2.427-4.2-2.044-9.337-4.823-14.398-7.753-5.062-2.93-10.031-6-13.896-8.624-1.934-1.313-3.579-2.505-4.816-3.506a20.779 20.779 0 0 1-1.51-1.326c-.397-.392-.621-.673-.722-.847-.128-.224-.294-.683-.465-1.437a30.28 30.28 0 0 1-.462-2.752c-.282-2.193-.503-5.011-.662-8.19-.35-7.136-.381-16.006-.095-23.492.143-3.743.365-7.125.664-9.763.15-1.32.316-2.438.5-3.316.187-.905.373-1.455.52-1.714.125-.212.418-.563.939-1.053a27.928 27.928 0 0 1 1.988-1.664c1.625-1.257 3.78-2.757 6.266-4.384 4.971-3.252 11.22-6.979 17.103-10.229 4.117-2.265 8.033-4.285 11.185-5.736 1.577-.726 2.949-1.302 4.051-1.696 1.144-.407 1.878-.573 2.237-.573.2 0 .557.054 1.094.203.522.144 1.16.362 1.903.649 1.485.573 3.339 1.405 5.441 2.428 4.202 2.043 9.342 4.822 14.405 7.752 5.062 2.93 10.031 6 13.893 8.624 1.933 1.312 3.575 2.505 4.809 3.506.618.5 1.122.944 1.506 1.324.395.392.616.672.714.845l.003.005c.151.261.343.826.537 1.758.187.9.358 2.05.51 3.405.718 6.35.985 16.867.79 26.294-.097 4.71-.309 9.125-.635 12.595-.162 1.736-.352 3.22-.566 4.377-.222 1.2-.45 1.925-.634 2.241Z" stroke="#fff" stroke-width="2"></path></g><path d="M62.001 112.727c-2.635 0-20.555-20.78-21.873-25.366-.406-1.412-.687-6.328-.844-12.594-.343-14.074-.062-34.953.844-38.128.781-2.699 7.291-10.983 13.074-17.385 4.047-4.461 7.721-7.981 8.8-7.981" stroke="#fff" stroke-width="2" stroke-miterlimit="10"></path><path d="M62 113.04c2.636 0 20.556-20.843 21.874-25.444.406-1.417.687-6.348.844-12.633.343-14.118.062-35.061-.844-38.246-.781-2.707-7.291-11.017-13.075-17.438-4.046-4.476-7.72-8.006-8.798-8.006" stroke="#fff" stroke-width="2" stroke-miterlimit="10"></path><path d="M62 11.116v102.081M16.283 62.313h92.061M18.162 36.95h87.677m-87.677 50.1h87.677" stroke="#fff" stroke-width="2"></path><defs><filter id="a" x="15.344" y="10.333" width="95.818" height="105.838" filterUnits="userSpaceOnUse" color-interpolation-filters="sRGB"><feFlood flood-opacity="0" result="BackgroundImageFix"></feFlood><feColorMatrix in="SourceAlpha" values="0 0 0 0 0 0 0 0 0 0 0 0 0 0 0 0 0 0 127 0" result="hardAlpha"></feColorMatrix><feOffset dx="2.505" dy="2.505"></feOffset><feComposite in2="hardAlpha" operator="out"></feComposite><feColorMatrix values="0 0 0 0 0 0 0 0 0 0 0 0 0 0 0 0 0 0 0.05 0"></feColorMatrix><feBlend in2="BackgroundImageFix" result="effect1_dropShadow_7752_25409"></feBlend><feBlend in="SourceGraphic" in2="effect1_dropShadow_7752_25409" result="shape"></feBlend></filter></defs></svg> 