<?xml version="1.0" encoding="UTF-8"?> <svg xmlns="http://www.w3.org/2000/svg" width="100" height="100" viewBox="0 0 100 100" fill="none"><g clip-path="url(#clip0_9871_1124)"><path d="M76.2463 38.0483C74.1635 36.0041 72.0738 33.9652 69.977 31.9316C62.3772 25.757 55.0824 29.8646 49.1288 35.9077H49.2129C56.9653 30.6693 64.7229 37.8221 70.3925 43.923L76.2463 38.0483Z" fill="black"></path><path d="M50.1882 34.865L40.8945 44.1587L50.1882 53.4524L59.4819 44.1587L50.1882 34.865Z" fill="black"></path><path d="M50.2381 53.1953L45.1283 58.3052L50.2381 63.415L55.348 58.3052L50.2381 53.1953Z" fill="black"></path><path d="M23.0001 30.3679C25.0828 32.4155 27.1726 34.4544 29.2693 36.4846C36.8692 42.6591 44.1902 38.5462 50.1176 32.5084H50.0334C42.2811 37.7678 34.5235 30.5888 28.8538 24.5142L23.0001 30.3679Z" fill="black"></path><path d="M49.0573 14.968L39.7637 24.2617L49.0573 33.5554L58.351 24.2617L49.0573 14.968Z" fill="black"></path><path d="M49.004 5.00636L43.8942 10.1162L49.004 15.2261L54.1139 10.1162L49.004 5.00636Z" fill="black"></path><path d="M65.4484 78.4818C65.9217 78.4818 66.2478 80.0017 64.6595 79.8229H60.1311C58.8741 79.8229 58.911 79.4968 58.8689 78.8289V77.351L57.6014 78.5975C57.6645 79.7756 56.9492 79.8334 56.3602 79.8439H54.9874C53.741 79.8439 54.0302 78.7395 53.9829 78.5133V67.1372L51.4321 69.8195V79.8913C51.5478 81.3797 52.4314 82.7997 53.7199 83.1942C54.1232 83.3386 54.5486 83.4116 54.9769 83.4098H57.6066C57.8151 83.2892 57.9842 83.1108 58.0934 82.8961C58.2026 82.6814 58.2472 82.4397 58.222 82.2002C58.1959 82.4441 58.2442 82.6901 58.3606 82.9061C58.477 83.122 58.656 83.2976 58.8741 83.4098H64.0231C65.075 83.4098 63.9705 83.5255 64.9172 83.3046C65.5281 83.1538 66.0864 82.8392 66.5318 82.3948C67.7783 81.0536 67.5837 79.6441 67.5837 77.1879C67.5837 75.1736 67.0946 72.2704 64.5964 72.2862C62.1192 72.9015 61.6196 75.384 61.5407 77.1616C61.5091 77.9137 61.7353 78.2766 62.6346 78.487C63.5738 78.5687 64.5175 78.5845 65.4589 78.5344L65.4484 78.4818ZM65.1171 66.1327L67.5942 68.6099L65.1171 71.087L62.6399 68.6099L65.1171 66.1327ZM58.9057 66.0117L61.3934 68.4942L58.9162 70.9766L56.439 68.4942L58.9057 66.0117ZM40.2559 78.4765L42.7383 80.9537L40.2559 83.4309L37.7787 80.9537L35.3015 83.4309L32.8243 80.9537L35.3015 78.4765L37.7787 80.9537L40.2559 78.4765ZM45.2207 78.4765L47.719 80.9589L45.2418 83.4361L42.7646 80.9589L45.2418 78.4818L45.2207 78.4765ZM48.9339 72.5754C48.8971 73.5537 48.0661 73.4906 47.6348 73.4801H35.2752L31.6515 77.0985H46.6671C47.5968 77.0718 48.4808 76.6891 49.1365 76.0295C49.7923 75.3698 50.1697 74.4836 50.1909 73.5537V71.0292L48.9812 72.2599L48.9339 72.5754Z" fill="black"></path><path d="M36.9005 89.7857H32.8087V91.1689H35.0176V92.1261H32.8087V94.1142H31.5885V88.8548H36.9005V89.7699V89.7857ZM43.6168 94.1142L40.6084 88.8548H39.4303L36.4587 94.1142H37.6789L38.289 92.9676H41.6182L42.244 94.1142H43.6168ZM41.108 92.0104H38.8097L39.9772 89.8751L41.108 92.0104ZM51.469 94.1142H50.6328L46.7829 90.8744C46.626 90.7445 46.48 90.602 46.3464 90.4484C46.3779 90.785 46.3937 91.0532 46.3937 91.2478V94.1142H45.2945V88.8548H46.1413L49.8228 91.9473C50.0367 92.1212 50.2372 92.3111 50.4224 92.5153C50.3856 92.0262 50.3698 91.7264 50.3698 91.6107V88.8548H51.469V94.1142ZM60.2943 94.1142H58.9216L58.2905 92.9676H54.9665L54.3564 94.1142H53.1363L56.1026 88.8548H57.2859L60.2943 94.1142ZM57.7803 92.0104L56.6601 89.8856L55.4925 92.0209L57.7803 92.0104ZM67.6575 91.0479C67.6575 91.7211 67.263 92.063 66.4741 92.063H63.1817V94.1036H61.9826V88.8442H66.4741C67.263 88.8442 67.6575 89.1808 67.6575 89.8593V91.0322V91.0479ZM66.4741 90.7324V90.2064C66.4741 90.0329 66.4268 89.9172 66.3216 89.8646C66.1989 89.8057 66.0628 89.7803 65.9271 89.7909H63.1817V91.1847H65.9271C66.0628 91.1953 66.1989 91.1699 66.3216 91.111C66.4268 91.0427 66.4741 90.927 66.4741 90.7324Z" fill="black"></path></g><defs><clipPath id="clip0_9871_1124"><rect width="53.2462" height="89.11" fill="white" transform="translate(23 5)"></rect></clipPath></defs></svg> 