<?xml version="1.0" encoding="UTF-8"?> <svg xmlns="http://www.w3.org/2000/svg" width="100" height="100" viewBox="0 0 100 100" fill="none"><path d="M27.8993 27.6954V37.3903H35.4419H42.9576L43.0384 34.5853L43.1192 31.8075L47.7525 31.8348C56.2649 31.9165 59.0126 33.1964 60.6558 37.826C61.3831 39.8957 61.3293 44.9338 60.5481 46.949C59.7399 48.9914 58.4469 50.462 56.4804 51.5241C54.3523 52.6679 52.0626 53.1308 47.3754 53.3487L43.5233 53.5393V59.939V66.3115L48.857 66.1754C54.514 66.0392 56.0494 65.7669 59.6322 64.2691C63.4843 62.6623 68.1715 58.4957 70.4074 54.6559C72.6971 50.7343 73.9362 45.0427 73.586 39.8412C72.8856 28.8119 66.2858 21.3774 54.945 18.8447C52.4667 18.3001 51.4161 18.2456 40.1022 18.1367L27.8993 18.0005V27.6954Z" fill="black"></path><path d="M27.63 39.7051V40.6582H35.442H43.254V39.7051V38.7519H35.442H27.63V39.7051Z" fill="black"></path><path d="M27.63 43.5178V45.0156H35.442H43.254V43.5178V42.02H35.442H27.63V43.5178Z" fill="black"></path><path d="M27.63 48.828V51.5513H35.442H43.254V48.828V46.1047H35.442H27.63V48.828Z" fill="black"></path><path d="M32.9637 52.4503C27.8994 53.8936 26.2562 60.484 30.0006 64.2966C31.3744 65.6582 32.8291 66.2573 34.9302 66.2573C39.1595 66.2573 42.2035 62.8805 41.8263 58.6049C41.6647 56.7531 40.9104 55.1736 39.5905 54.0026C37.7587 52.3958 35.2804 51.8239 32.9637 52.4503Z" fill="black"></path><path d="M14.1092 75.0615C14.0143 75.0615 13.9299 75.0501 13.8561 75.0272C13.7822 75.0044 13.7216 74.978 13.6742 74.9482C13.6355 75.2013 13.5538 75.4333 13.429 75.6442C13.3059 75.8569 13.1363 76.0353 12.9201 76.1794C12.7039 76.3253 12.4377 76.429 12.1213 76.4905L11.8998 75.8946C12.1652 75.8366 12.3876 75.7558 12.5668 75.6521C12.7461 75.5501 12.8815 75.4183 12.9729 75.2566C13.0643 75.0967 13.1099 74.9025 13.1099 74.674C13.1099 74.5175 13.088 74.3462 13.044 74.1599C13.0001 73.9735 12.9491 73.7951 12.8911 73.6247L13.4975 73.4243L13.6452 74.0043C13.6785 74.1309 13.7286 74.2293 13.7954 74.2996C13.864 74.3699 13.9589 74.405 14.0802 74.405H14.1804V75.0615H14.1092ZM14.0775 75.0615V74.405H14.5574V74.3523C14.5574 74.1748 14.5749 73.9911 14.6101 73.8013C14.6452 73.6097 14.7024 73.4313 14.7815 73.2661C14.8606 73.1009 14.9643 72.9673 15.0926 72.8654C15.2226 72.7634 15.3808 72.7124 15.5671 72.7124C15.7288 72.7124 15.8668 72.7511 15.9811 72.8284C16.0971 72.9058 16.1858 73.0121 16.2473 73.1475C16.3089 73.281 16.3396 73.4339 16.3396 73.6062C16.3396 73.7697 16.308 73.9314 16.2447 74.0913C16.1832 74.2495 16.0979 74.3963 15.989 74.5316C15.8817 74.6652 15.7587 74.7785 15.6199 74.8717C15.4828 74.9649 15.3378 75.0255 15.1848 75.0536C15.2059 75.1239 15.2367 75.1951 15.2771 75.2672C15.3175 75.341 15.3668 75.4122 15.4248 75.4807C15.4828 75.5493 15.5452 75.609 15.6119 75.66C15.6366 75.4842 15.6823 75.3199 15.749 75.167C15.8176 75.0158 15.9037 74.8831 16.0074 74.7689C16.1111 74.6546 16.2289 74.5659 16.3607 74.5026C16.4925 74.4376 16.634 74.405 16.7852 74.405H16.8722V75.0615H16.7799C16.6639 75.0615 16.5655 75.0765 16.4846 75.1063C16.4038 75.1362 16.3379 75.1819 16.2869 75.2434C16.2377 75.305 16.2008 75.3832 16.1762 75.4781C16.1533 75.5748 16.1419 75.6881 16.1419 75.8182C16.1419 75.8604 16.1428 75.9043 16.1445 75.95C16.148 75.9957 16.1515 76.0423 16.1551 76.0897L15.7438 76.4773C15.561 76.3877 15.3905 76.269 15.2323 76.1214C15.0759 75.9737 14.9423 75.8085 14.8316 75.6257C14.7226 75.4429 14.647 75.2549 14.6048 75.0615H14.0775ZM15.546 73.3452C15.4757 73.3452 15.4142 73.3751 15.3615 73.4348C15.3088 73.4946 15.2648 73.5737 15.2297 73.6721C15.1963 73.7705 15.1708 73.8795 15.1532 73.999C15.1374 74.1168 15.1295 74.2337 15.1295 74.3497V74.4077C15.2525 74.4007 15.365 74.362 15.4669 74.2917C15.5689 74.2196 15.6506 74.1265 15.7121 74.0122C15.7737 73.898 15.8044 73.7749 15.8044 73.6431C15.8044 73.5482 15.7807 73.4753 15.7332 73.4243C15.6858 73.3716 15.6234 73.3452 15.546 73.3452ZM16.9935 71.8899V71.5313L19.0842 70.6824V71.0409L16.9935 71.8899ZM17.5998 72.5806C17.7352 72.665 17.8652 72.7502 17.99 72.8364C18.1166 72.9207 18.2343 73.0086 18.3433 73.1C18.4523 73.1896 18.5472 73.2846 18.6281 73.3847C18.7107 73.4832 18.7748 73.5877 18.8205 73.6985C18.8662 73.8092 18.8891 73.9287 18.8891 74.057C18.8891 74.3119 18.8311 74.5123 18.7151 74.6581C18.5991 74.804 18.4303 74.9077 18.2089 74.9692C17.9892 75.0308 17.7229 75.0615 17.41 75.0615H16.7667V74.405H17.4074C17.6095 74.405 17.7756 74.3954 17.9057 74.376C18.0375 74.355 18.135 74.3189 18.1983 74.2679C18.2616 74.2152 18.2932 74.1414 18.2932 74.0465C18.2932 73.9815 18.2651 73.9138 18.2089 73.8435C18.1544 73.7732 18.0814 73.7011 17.99 73.6273C17.8986 73.5535 17.7985 73.4796 17.6895 73.4058C17.5805 73.332 17.4715 73.2591 17.3626 73.187C17.2536 73.1149 17.1552 73.0455 17.0673 72.9787C17.0005 72.9277 16.9495 72.8636 16.9144 72.7863C16.8792 72.7089 16.8616 72.6307 16.8616 72.5516C16.8616 72.462 16.8836 72.3785 16.9275 72.3012C16.9715 72.2221 17.0392 72.1641 17.1305 72.1271L19.1132 71.3204V71.9663L17.5998 72.5806ZM22.3718 76.3692C22.0344 76.3692 21.7549 76.3086 21.5334 76.1873C21.312 76.066 21.1468 75.8929 21.0378 75.6679C20.9306 75.4447 20.877 75.1775 20.877 74.8664C20.877 74.6678 20.8989 74.463 20.9429 74.2521C20.9868 74.0412 21.0466 73.8382 21.1221 73.6431L21.6784 73.8593C21.624 74.0192 21.5747 74.1889 21.5308 74.3681C21.4886 74.5474 21.4675 74.7161 21.4675 74.8743C21.4675 75.0536 21.4992 75.2065 21.5624 75.3331C21.6257 75.4596 21.7241 75.5554 21.8577 75.6205C21.9913 75.6872 22.1627 75.7206 22.3718 75.7206C22.5757 75.7206 22.7383 75.6828 22.8596 75.6073C22.9826 75.5317 23.0714 75.4192 23.1259 75.2698C23.1803 75.1204 23.2076 74.9376 23.2076 74.7214V71.3889H23.8192V73.8171C23.8192 73.9982 23.8491 74.1414 23.9089 74.2469C23.9686 74.3523 24.0908 74.405 24.2754 74.405H24.3544V75.0615H24.2806C24.1611 75.0615 24.068 75.0492 24.0012 75.0246C23.9361 74.9982 23.8711 74.9587 23.8061 74.906C23.7955 75.1397 23.7586 75.3471 23.6953 75.5282C23.6338 75.7092 23.5442 75.8621 23.4264 75.9869C23.3104 76.1135 23.1645 76.2084 22.9888 76.2717C22.813 76.3367 22.6074 76.3692 22.3718 76.3692ZM24.4757 71.8899V71.5313L26.5664 70.6824V71.0409L24.4757 71.8899ZM25.0821 72.5806C25.2174 72.665 25.3475 72.7502 25.4723 72.8364C25.5989 72.9207 25.7166 73.0086 25.8256 73.1C25.9346 73.1896 26.0295 73.2846 26.1103 73.3847C26.1929 73.4832 26.2571 73.5877 26.3028 73.6985C26.3485 73.8092 26.3713 73.9287 26.3713 74.057C26.3713 74.3119 26.3133 74.5123 26.1973 74.6581C26.0813 74.804 25.9126 74.9077 25.6911 74.9692C25.4714 75.0308 25.2051 75.0615 24.8923 75.0615H24.249V74.405H24.8896C25.0918 74.405 25.2579 74.3954 25.3879 74.376C25.5198 74.355 25.6173 74.3189 25.6806 74.2679C25.7439 74.2152 25.7755 74.1414 25.7755 74.0465C25.7755 73.9815 25.7474 73.9138 25.6911 73.8435C25.6366 73.7732 25.5637 73.7011 25.4723 73.6273C25.3809 73.5535 25.2807 73.4796 25.1717 73.4058C25.0628 73.332 24.9538 73.2591 24.8448 73.187C24.7359 73.1149 24.6374 73.0455 24.5495 72.9787C24.4828 72.9277 24.4318 72.8636 24.3966 72.7863C24.3615 72.7089 24.3439 72.6307 24.3439 72.5516C24.3439 72.462 24.3659 72.3785 24.4098 72.3012C24.4538 72.2221 24.5214 72.1641 24.6128 72.1271L26.5954 71.3204V71.9663L25.0821 72.5806ZM29.0263 74.413C29.202 74.413 29.3611 74.3989 29.5035 74.3708C29.6458 74.3426 29.7592 74.297 29.8436 74.2337C29.9279 74.1686 29.9701 74.0816 29.9701 73.9727C29.9701 73.8619 29.9226 73.7451 29.8277 73.622C29.7328 73.499 29.601 73.3759 29.4323 73.2529C29.2635 73.1281 29.0658 73.0086 28.8391 72.8944L29.1212 72.3117C29.3215 72.4119 29.5087 72.52 29.6827 72.636C29.8567 72.752 30.0088 72.8777 30.1388 73.013C30.2707 73.1483 30.3735 73.2933 30.4473 73.448C30.5211 73.6027 30.558 73.7697 30.558 73.9489C30.558 74.2073 30.4992 74.4182 30.3814 74.5817C30.2636 74.7451 30.094 74.8655 29.8726 74.9429C29.6511 75.0185 29.3822 75.0563 29.0658 75.0563C28.934 75.0563 28.8101 75.0519 28.6941 75.0431C28.5781 75.0325 28.4664 75.0149 28.3592 74.9903V74.3365C28.4735 74.3593 28.5895 74.3778 28.7072 74.3919C28.8268 74.4059 28.9331 74.413 29.0263 74.413ZM31.5704 75.0615C31.4843 75.0615 31.3982 75.0589 31.3121 75.0536C31.2259 75.0466 31.1389 75.0396 31.0511 75.0325V74.405C31.16 74.4138 31.2628 74.4209 31.3595 74.4261C31.4562 74.4314 31.5441 74.434 31.6232 74.434C31.6706 74.434 31.7128 74.434 31.7497 74.434C31.7866 74.4323 31.8191 74.4305 31.8473 74.4288C31.8473 74.4288 31.8367 74.3752 31.8156 74.2679C31.7945 74.159 31.7629 74.0122 31.7207 73.8277C31.6785 73.6414 31.6258 73.4313 31.5625 73.1975C31.4992 72.9638 31.4246 72.7203 31.3384 72.4672C31.2523 72.2141 31.1556 71.9663 31.0484 71.7238L31.6073 71.4786C31.7146 71.7317 31.8112 71.9909 31.8974 72.2563C31.9852 72.5217 32.0626 72.7766 32.1294 73.0209C32.1962 73.2652 32.2515 73.4849 32.2955 73.68C32.3412 73.8734 32.3754 74.0272 32.3983 74.1414C32.4211 74.2556 32.4326 74.3128 32.4326 74.3128C32.5468 74.2706 32.6444 74.2082 32.7252 74.1256C32.8061 74.0412 32.8676 73.9305 32.9098 73.7934C32.9537 73.6563 32.9757 73.4849 32.9757 73.2793V71.3889H33.5821V73.3004C33.5821 73.5939 33.546 73.8444 33.474 74.0518C33.4019 74.2574 33.3017 74.4261 33.1734 74.558C33.0451 74.6898 32.8957 74.7926 32.7252 74.8664C32.5565 74.9402 32.3737 74.9912 32.1768 75.0193C31.98 75.0475 31.7778 75.0615 31.5704 75.0615ZM35.1534 72.9761C35.3098 72.9761 35.4495 73.0112 35.5726 73.0815C35.6974 73.1518 35.8046 73.252 35.8942 73.3821C35.9856 73.5104 36.0568 73.6616 36.1078 73.8356C36.1605 74.0096 36.1921 74.1994 36.2027 74.405H36.4452V75.0615H36.1552C36.099 75.3041 36.0014 75.5203 35.8626 75.7101C35.7237 75.8999 35.5357 76.0599 35.2984 76.1899C35.0629 76.3218 34.7693 76.4219 34.4178 76.4905L34.1963 75.892C34.4336 75.8463 34.6472 75.7848 34.837 75.7075C35.0268 75.6301 35.1841 75.537 35.3089 75.428C35.4355 75.3208 35.5199 75.1986 35.562 75.0615H35.2509C34.9047 75.0615 34.6419 74.9903 34.4626 74.848C34.2851 74.7038 34.1963 74.4771 34.1963 74.1678C34.1963 74.0377 34.2157 73.9032 34.2544 73.7644C34.2948 73.6255 34.3545 73.4963 34.4336 73.3768C34.5145 73.2573 34.6147 73.1606 34.7342 73.0868C34.8555 73.013 34.9952 72.9761 35.1534 72.9761ZM35.2404 74.405H35.6253C35.6165 74.2961 35.6007 74.1941 35.5779 74.0992C35.5568 74.0043 35.5269 73.9208 35.4882 73.8488C35.4513 73.7767 35.4047 73.7213 35.3485 73.6827C35.2922 73.6422 35.2254 73.622 35.1481 73.622C35.055 73.622 34.9811 73.6519 34.9266 73.7117C34.8722 73.7714 34.8335 73.8417 34.8106 73.9226C34.7878 74.0034 34.7764 74.0772 34.7764 74.144C34.7764 74.2495 34.8168 74.3198 34.8976 74.355C34.9785 74.3883 35.0927 74.405 35.2404 74.405ZM37.542 70.888L37.9823 71.3283L37.542 71.7659L37.1044 71.3283L37.542 70.888ZM37.6369 73.4849C37.709 73.4849 37.7811 73.4796 37.8531 73.4691C37.9252 73.4586 37.9972 73.4445 38.0693 73.4269C38.0588 73.3531 38.0421 73.2766 38.0192 73.1975C37.9981 73.1167 37.9691 73.0429 37.9322 72.9761C37.8953 72.9075 37.8505 72.8522 37.7978 72.81C37.745 72.7678 37.6817 72.7467 37.6079 72.7467C37.5218 72.7467 37.4506 72.7731 37.3944 72.8258C37.3381 72.8768 37.2959 72.9401 37.2678 73.0156C37.2415 73.0912 37.2283 73.1659 37.2283 73.2397C37.2283 73.3434 37.2652 73.4102 37.339 73.4401C37.4146 73.47 37.5139 73.4849 37.6369 73.4849ZM37.3416 74.405C37.5104 74.405 37.6492 74.3963 37.7582 74.3787C37.8689 74.3611 37.9515 74.3242 38.006 74.2679C38.0623 74.2099 38.0904 74.1221 38.0904 74.0043C38.0183 74.0201 37.9436 74.0333 37.8663 74.0439C37.7907 74.0526 37.7116 74.057 37.629 74.057C37.3232 74.057 37.085 73.9938 36.9145 73.8672C36.7458 73.7389 36.6614 73.5385 36.6614 73.2661C36.6614 73.0833 36.6992 72.904 36.7748 72.7283C36.8521 72.5507 36.962 72.404 37.1044 72.288C37.2467 72.1702 37.4163 72.1113 37.6132 72.1113C37.7995 72.1113 37.9595 72.1588 38.093 72.2537C38.2266 72.3468 38.3356 72.4725 38.42 72.6307C38.5061 72.7871 38.5694 72.9638 38.6098 73.1606C38.6502 73.3557 38.6704 73.5561 38.6704 73.7617C38.6704 74.0307 38.6441 74.2504 38.5913 74.4209C38.5386 74.5914 38.4569 74.7232 38.3461 74.8163C38.2372 74.9095 38.0974 74.9736 37.9269 75.0088C37.7564 75.0439 37.5508 75.0615 37.31 75.0615H36.3398V74.405H37.3416ZM42.5328 74.5263C42.5328 74.9112 42.4616 75.2355 42.3193 75.4992C42.1787 75.7646 41.9739 75.9781 41.705 76.1398C41.4378 76.3015 41.1162 76.4184 40.74 76.4905L40.5186 75.892C40.7699 75.8428 40.9914 75.7778 41.183 75.6969C41.3745 75.6178 41.531 75.5211 41.6523 75.4069C41.7735 75.2927 41.8535 75.1626 41.8922 75.0167C41.8394 75.0308 41.7814 75.0431 41.7182 75.0536C41.6549 75.0624 41.5986 75.0668 41.5494 75.0668C41.2225 75.0668 40.9685 74.9956 40.7875 74.8532C40.6082 74.7109 40.5186 74.4824 40.5186 74.1678C40.5186 74.0307 40.5388 73.8927 40.5792 73.7538C40.6214 73.6132 40.6829 73.484 40.7638 73.3663C40.8446 73.2468 40.9448 73.151 41.0643 73.0789C41.1838 73.0051 41.3218 72.9682 41.4782 72.9682C41.6593 72.9682 41.8157 73.0121 41.9475 73.1C42.0794 73.1879 42.1883 73.3065 42.2745 73.4559C42.3623 73.6036 42.4274 73.7705 42.4696 73.9568C42.5117 74.1414 42.5328 74.3312 42.5328 74.5263ZM41.5468 74.4156C41.6224 74.4156 41.6944 74.4112 41.763 74.4024C41.8315 74.3919 41.8931 74.3787 41.9475 74.3629C41.9387 74.2662 41.9229 74.173 41.9001 74.0834C41.879 73.9938 41.85 73.9129 41.8131 73.8408C41.7762 73.7688 41.7296 73.7125 41.6733 73.6721C41.6171 73.6299 41.5503 73.6088 41.473 73.6088C41.3763 73.6088 41.3007 73.6405 41.2462 73.7037C41.1918 73.7653 41.1531 73.8382 41.1302 73.9226C41.1091 74.0052 41.0986 74.079 41.0986 74.144C41.0986 74.2513 41.139 74.3233 41.2199 74.3602C41.3007 74.3971 41.4097 74.4156 41.5468 74.4156ZM45.976 72.868L46.4163 73.3083L45.976 73.7459L45.5384 73.3083L45.976 72.868ZM46.005 75.7707C46.274 75.7707 46.484 75.7268 46.6352 75.6389C46.7881 75.5528 46.8962 75.4368 46.9594 75.2909C47.0227 75.1468 47.0544 74.9859 47.0544 74.8084C47.0544 74.6116 47.0245 74.4121 46.9647 74.2099C46.905 74.0078 46.8426 73.825 46.7775 73.6616L47.3866 73.4296L47.5922 74.0623C47.6238 74.1607 47.6739 74.2425 47.7425 74.3075C47.811 74.3725 47.9086 74.405 48.0351 74.405H48.1379V75.0615H48.0457C47.9525 75.0615 47.8761 75.0536 47.8163 75.0378C47.7565 75.0202 47.7003 74.9912 47.6476 74.9508C47.6247 75.2443 47.5483 75.5009 47.4182 75.7206C47.2899 75.9421 47.108 76.1135 46.8724 76.2347C46.6387 76.356 46.3495 76.4167 46.005 76.4167C45.6272 76.4167 45.3187 76.3455 45.0796 76.2031C44.8406 76.0607 44.6648 75.8683 44.5524 75.6257C44.4416 75.3849 44.3863 75.1143 44.3863 74.8137C44.3863 74.6133 44.4074 74.4068 44.4495 74.1941C44.4935 73.9797 44.555 73.7679 44.6341 73.5587L45.1904 73.7776C45.1324 73.9533 45.0823 74.1291 45.0401 74.3049C44.9997 74.4789 44.9795 74.6441 44.9795 74.8005C44.9795 74.978 45.0111 75.1397 45.0744 75.2856C45.1377 75.4333 45.2431 75.551 45.3908 75.6389C45.5402 75.7268 45.7449 75.7707 46.005 75.7707ZM49.0264 73.7459C49.0264 73.8127 49.0466 73.8778 49.0871 73.941C49.1275 74.0043 49.182 74.0614 49.2505 74.1124C49.3191 74.1634 49.3947 74.2038 49.4773 74.2337C49.5493 74.2091 49.617 74.1748 49.6803 74.1309C49.7453 74.0869 49.7989 74.0351 49.8411 73.9753C49.8833 73.9138 49.9044 73.8488 49.9044 73.7802C49.9044 73.6976 49.885 73.6238 49.8464 73.5587C49.8077 73.4937 49.7567 73.4427 49.6935 73.4058C49.6302 73.3672 49.5599 73.3478 49.4825 73.3478C49.356 73.3478 49.2479 73.3856 49.1583 73.4612C49.0704 73.5368 49.0264 73.6317 49.0264 73.7459ZM49.3929 72.8812L49.6724 72.3407C49.9958 72.4954 50.2805 72.6386 50.5266 72.7704C50.7726 72.9005 50.9792 73.0279 51.1461 73.1527C51.3131 73.2775 51.4388 73.4076 51.5232 73.5429C51.6075 73.6783 51.6497 73.8294 51.6497 73.9964C51.6497 74.3356 51.5469 74.594 51.3412 74.7715C51.1356 74.9473 50.8614 75.0352 50.5187 75.0352C50.3956 75.0352 50.2664 75.0246 50.1311 75.0035C49.9975 74.9824 49.8692 74.9569 49.7462 74.9271C49.6249 74.8954 49.5203 74.8655 49.4324 74.8374C49.2743 74.8937 49.0932 74.9455 48.8893 74.993C48.6872 75.0387 48.4895 75.0615 48.2961 75.0615H48.0351V74.405H48.2619C48.3427 74.405 48.4157 74.4042 48.4807 74.4024C48.5475 74.3989 48.6169 74.3936 48.689 74.3866C48.6362 74.3321 48.5923 74.2697 48.5571 74.1994C48.522 74.1291 48.4947 74.0553 48.4754 73.9779C48.4561 73.8988 48.4464 73.8233 48.4464 73.7512C48.4464 73.586 48.4868 73.4331 48.5677 73.2925C48.6485 73.1518 48.7637 73.0385 48.9131 72.9524C49.0625 72.8645 49.2409 72.8205 49.4483 72.8205C49.6082 72.8205 49.762 72.8592 49.9096 72.9365C50.059 73.0139 50.1803 73.1185 50.2735 73.2503C50.3684 73.3821 50.4158 73.5306 50.4158 73.6958C50.4158 73.7943 50.4044 73.8857 50.3816 73.97C50.3587 74.0526 50.3253 74.1291 50.2814 74.1994C50.2374 74.2697 50.1856 74.3356 50.1258 74.3971C50.2067 74.4094 50.2884 74.4191 50.371 74.4261C50.4536 74.4332 50.5187 74.4367 50.5661 74.4367C50.7103 74.4367 50.8298 74.405 50.9247 74.3418C51.0214 74.2785 51.0697 74.1686 51.0697 74.0122C51.0697 73.9683 51.0512 73.9191 51.0143 73.8646C50.9792 73.8101 50.922 73.7494 50.843 73.6827C50.7656 73.6159 50.6619 73.5429 50.5318 73.4638C50.4035 73.3847 50.2454 73.2969 50.0573 73.2002C49.8692 73.1035 49.6478 72.9972 49.3929 72.8812ZM52.8229 71.0146C52.8458 71.0251 52.8677 71.0304 52.8888 71.0304C52.9258 71.0304 52.9618 71.0172 52.9969 70.9908C53.0321 70.9645 53.076 70.9276 53.1288 70.8801L53.2738 70.743L53.5585 71.0014L53.395 71.1569C53.3054 71.2431 53.2245 71.3081 53.1525 71.352C53.0804 71.396 53.0057 71.4179 52.9284 71.4179C52.8581 71.4179 52.7764 71.3968 52.6832 71.3547L52.3431 71.2017C52.3185 71.1912 52.2965 71.1833 52.2772 71.178C52.2578 71.171 52.2385 71.1675 52.2192 71.1675C52.1735 71.1675 52.1278 71.185 52.0821 71.2202C52.0364 71.2536 51.9775 71.3063 51.9054 71.3784L51.742 71.5419L51.4572 71.2861L51.626 71.1121C51.7367 70.9961 51.8343 70.9109 51.9186 70.8564C52.0047 70.8001 52.0891 70.772 52.1717 70.772C52.2192 70.772 52.2675 70.7799 52.3167 70.7957C52.3677 70.8098 52.4231 70.8309 52.4828 70.859L52.8229 71.0146ZM52.873 71.7369V75.0589H52.2614V71.7369H52.873ZM57.4473 75.0615C57.2803 75.0615 57.1344 75.0387 57.0096 74.993C56.8866 74.9455 56.7847 74.8752 56.7038 74.7821C56.6229 74.6871 56.5632 74.5694 56.5245 74.4288C56.4208 74.5167 56.3127 74.5834 56.2002 74.6291C56.0895 74.6731 55.9682 74.6951 55.8364 74.6951C55.5587 74.6951 55.3276 74.6204 55.143 74.471C54.9585 74.3198 54.8662 74.1027 54.8662 73.8198C54.8662 73.6616 54.8996 73.5192 54.9664 73.3926C55.0349 73.2661 55.1307 73.1518 55.2537 73.0499C55.3768 72.948 55.5209 72.8583 55.6861 72.781C55.8531 72.7019 56.0341 72.6325 56.2292 72.5727L56.2108 72.4462L56.7697 72.3328L57.0123 73.999C57.0298 74.1221 57.0747 74.2205 57.1467 74.2943C57.2188 74.3681 57.3225 74.405 57.4578 74.405H57.5396V75.0615H57.4473ZM56.3953 73.68C56.3953 73.6537 56.3936 73.6264 56.3901 73.5983C56.3865 73.5702 56.3822 73.5403 56.3769 73.5086L56.3241 73.1712C56.2011 73.2151 56.0877 73.2608 55.984 73.3083C55.8803 73.354 55.7898 73.4023 55.7125 73.4533C55.6352 73.5043 55.5745 73.5587 55.5306 73.6167C55.4884 73.673 55.4673 73.7319 55.4673 73.7934C55.4673 73.883 55.5007 73.9533 55.5675 74.0043C55.6343 74.0535 55.723 74.0781 55.8338 74.0781C55.9234 74.0781 56.0113 74.0632 56.0974 74.0333C56.1835 74.0034 56.2547 73.9586 56.311 73.8988C56.3672 73.8391 56.3953 73.7661 56.3953 73.68ZM59.132 73.4375C59.0476 73.4375 58.9474 73.4427 58.8314 73.4533C58.7172 73.4638 58.6038 73.484 58.4913 73.5139C58.5792 73.6176 58.6724 73.7178 58.7708 73.8145C58.871 73.9094 58.9553 73.9885 59.0239 74.0518C59.0942 74.115 59.1293 74.1467 59.1293 74.1467C59.1293 74.1467 59.1496 74.1282 59.19 74.0913C59.2322 74.0544 59.2858 74.0061 59.3508 73.9463C59.4176 73.8848 59.4879 73.8171 59.5617 73.7433C59.6373 73.6677 59.7076 73.5913 59.7726 73.5139C59.6601 73.484 59.5459 73.4638 59.4299 73.4533C59.3157 73.4427 59.2163 73.4375 59.132 73.4375ZM59.1293 72.8364C59.2682 72.8364 59.4132 72.8469 59.5644 72.868C59.7155 72.8891 59.857 72.9216 59.9888 72.9655C60.1206 73.0077 60.2279 73.0622 60.3105 73.129C60.3948 73.194 60.437 73.2722 60.437 73.3636C60.437 73.4076 60.4212 73.4621 60.3896 73.5271C60.3579 73.5921 60.3157 73.6624 60.263 73.738C60.2103 73.8118 60.1523 73.8865 60.089 73.9621C60.0275 74.0377 59.9651 74.1098 59.9018 74.1783C59.8385 74.2451 59.7814 74.3022 59.7305 74.3497C59.8201 74.3743 59.9062 74.3901 59.9888 74.3971C60.0732 74.4024 60.1505 74.405 60.2208 74.405H60.6321V75.0615H60.2235C60.0266 75.0615 59.8368 75.0387 59.654 74.993C59.4712 74.9455 59.2963 74.877 59.1293 74.7873C59.0169 74.8488 58.8859 74.8998 58.7365 74.9402C58.5889 74.9807 58.4377 75.0114 58.283 75.0325C58.1301 75.0519 57.9869 75.0615 57.8533 75.0615H57.4367V74.405H57.8559C57.9034 74.405 57.9675 74.4042 58.0484 74.4024C58.131 74.4007 58.2162 74.3963 58.3041 74.3892C58.392 74.3804 58.4676 74.3673 58.5309 74.3497C58.4799 74.3005 58.4228 74.2425 58.3595 74.1757C58.298 74.1089 58.2356 74.0377 58.1723 73.9621C58.109 73.8848 58.051 73.8092 57.9983 73.7354C57.9473 73.6598 57.9051 73.5895 57.8718 73.5245C57.8401 73.4594 57.8243 73.4058 57.8243 73.3636C57.8243 73.2722 57.8647 73.194 57.9456 73.129C58.0282 73.0622 58.1354 73.0077 58.2672 72.9655C58.4008 72.9216 58.5432 72.8891 58.6943 72.868C58.8455 72.8469 58.9905 72.8364 59.1293 72.8364ZM60.5267 74.405H62.1217V75.0615H60.5267V74.405ZM63.8565 75.0615C63.6684 75.0615 63.5164 75.0299 63.4004 74.9666C63.2844 74.9016 63.1904 74.8137 63.1183 74.703C63.0269 74.8155 62.9153 74.9033 62.7835 74.9666C62.6534 75.0299 62.4794 75.0615 62.2615 75.0615H62.0189V74.405H62.2667C62.4038 74.405 62.5146 74.3927 62.5989 74.3681C62.6833 74.3435 62.7448 74.297 62.7835 74.2284C62.8239 74.1599 62.8441 74.0597 62.8441 73.9278C62.8441 73.8997 62.8424 73.8584 62.8388 73.8039C62.8371 73.7494 62.8336 73.6879 62.8283 73.6194C62.8248 73.5508 62.8195 73.4823 62.8125 73.4137L63.3925 73.3426L63.4426 73.9938C63.4514 74.1221 63.49 74.2231 63.5586 74.297C63.6271 74.369 63.7282 74.405 63.8618 74.405C64.0235 74.405 64.1316 74.3673 64.1861 74.2917C64.2423 74.2161 64.2704 74.0948 64.2704 73.9278C64.2704 73.8997 64.2687 73.8584 64.2652 73.8039C64.2634 73.7494 64.2599 73.6879 64.2546 73.6194C64.2511 73.5508 64.2458 73.4823 64.2388 73.4137L64.8188 73.3426L64.8689 73.9938C64.8759 74.115 64.9067 74.2143 64.9612 74.2917C65.0157 74.3673 65.1062 74.405 65.2327 74.405C65.3136 74.405 65.3769 74.384 65.4226 74.3418C65.4683 74.2978 65.5008 74.2407 65.5201 74.1704C65.5395 74.0983 65.5491 74.0201 65.5491 73.9358C65.5491 73.8408 65.5412 73.7433 65.5254 73.6431C65.5096 73.5429 65.492 73.4506 65.4727 73.3663C65.4533 73.2802 65.4375 73.2151 65.4252 73.1712L66.0184 73.0104C66.0518 73.1404 66.079 73.2793 66.1001 73.4269C66.123 73.5746 66.1344 73.7213 66.1344 73.8672C66.1344 74.0746 66.1063 74.2697 66.05 74.4525C65.9938 74.6335 65.9006 74.7803 65.7706 74.8928C65.6405 75.0053 65.4621 75.0615 65.2354 75.0615C65.0737 75.0615 64.9392 75.0281 64.832 74.9613C64.7265 74.8945 64.6387 74.8075 64.5684 74.7003C64.4752 74.8128 64.3706 74.9016 64.2546 74.9666C64.1386 75.0299 64.0059 75.0615 63.8565 75.0615ZM67.566 72.9761C67.7224 72.9761 67.8622 73.0112 67.9852 73.0815C68.11 73.1518 68.2172 73.252 68.3069 73.3821C68.3983 73.5104 68.4694 73.6616 68.5204 73.8356C68.5731 74.0096 68.6048 74.1994 68.6153 74.405H68.8579V75.0615H68.5679C68.5116 75.3041 68.4141 75.5203 68.2752 75.7101C68.1364 75.8999 67.9483 76.0599 67.711 76.1899C67.4755 76.3218 67.182 76.4219 66.8304 76.4905L66.609 75.892C66.8463 75.8463 67.0598 75.7848 67.2496 75.7075C67.4395 75.6301 67.5968 75.537 67.7216 75.428C67.8481 75.3208 67.9325 75.1986 67.9747 75.0615H67.6636C67.3173 75.0615 67.0545 74.9903 66.8753 74.848C66.6977 74.7038 66.609 74.4771 66.609 74.1678C66.609 74.0377 66.6283 73.9032 66.667 73.7644C66.7074 73.6255 66.7672 73.4963 66.8463 73.3768C66.9271 73.2573 67.0273 73.1606 67.1468 73.0868C67.2681 73.013 67.4078 72.9761 67.566 72.9761ZM67.653 74.405H68.0379C68.0291 74.2961 68.0133 74.1941 67.9905 74.0992C67.9694 74.0043 67.9395 73.9208 67.9008 73.8488C67.8639 73.7767 67.8174 73.7213 67.7611 73.6827C67.7049 73.6422 67.6381 73.622 67.5607 73.622C67.4676 73.622 67.3938 73.6519 67.3393 73.7117C67.2848 73.7714 67.2461 73.8417 67.2233 73.9226C67.2004 74.0034 67.189 74.0772 67.189 74.144C67.189 74.2495 67.2294 74.3198 67.3103 74.355C67.3911 74.3883 67.5054 74.405 67.653 74.405ZM68.7524 74.405H68.9396V75.0615H68.7524V74.405ZM69.9177 71.7686L70.3369 72.1878L69.9177 72.6096L69.4985 72.1878L69.9177 71.7686ZM69.0319 71.7686L69.4537 72.1878L69.0319 72.6096L68.6153 72.1878L69.0319 71.7686ZM69.2903 75.0615H68.8684V74.405H69.2903C69.4397 74.405 69.5416 74.3602 69.5961 74.2706C69.6506 74.1809 69.6778 74.0667 69.6778 73.9278C69.6778 73.8101 69.6646 73.6827 69.6383 73.5456C69.6137 73.4085 69.5873 73.2722 69.5592 73.1369L70.1629 72.984C70.1963 73.1387 70.2218 73.2925 70.2394 73.4454C70.2587 73.5965 70.2684 73.7415 70.2684 73.8804C70.2684 74.1054 70.2376 74.3075 70.1761 74.4868C70.1163 74.6643 70.0153 74.8049 69.8729 74.9086C69.7305 75.0106 69.5363 75.0615 69.2903 75.0615ZM74.782 72.288L75.2012 72.7045L74.782 73.1264L74.3628 72.7045L74.782 72.288ZM73.8961 72.288L74.318 72.7045L73.8961 73.1264L73.4796 72.7045L73.8961 72.288ZM75.8498 73.3452L76.4245 73.2766L76.4746 73.9779C76.4851 74.1238 76.5256 74.2319 76.5959 74.3022C76.6679 74.3708 76.7804 74.405 76.9333 74.405H76.9966V75.0615H76.9333C76.733 75.0615 76.5669 75.0246 76.4351 74.9508C76.3032 74.877 76.1951 74.768 76.1108 74.6239C75.9561 74.7803 75.7645 74.8928 75.536 74.9613C75.3075 75.0281 75.0026 75.0615 74.6212 75.0615H74.1809C73.8663 75.0615 73.5815 75.0422 73.3267 75.0035C73.0736 74.9631 72.8565 74.8954 72.6755 74.8005C72.4962 74.7056 72.3582 74.5764 72.2615 74.413C72.1666 74.2495 72.1192 74.0421 72.1192 73.7908C72.1192 73.6466 72.135 73.506 72.1666 73.3689C72.1983 73.2318 72.2387 73.1026 72.2879 72.9814L72.8389 73.1896C72.809 73.2705 72.7809 73.3619 72.7546 73.4638C72.7282 73.564 72.715 73.6598 72.715 73.7512C72.715 73.8901 72.751 74.0034 72.8231 74.0913C72.8952 74.1774 72.9954 74.2433 73.1237 74.289C73.2537 74.333 73.4084 74.3637 73.5877 74.3813C73.767 74.3971 73.9647 74.405 74.1809 74.405H74.6212C74.8848 74.405 75.1098 74.3919 75.2961 74.3655C75.4842 74.3391 75.6274 74.289 75.7258 74.2152C75.826 74.1396 75.8761 74.0298 75.8761 73.8857C75.8761 73.8013 75.8735 73.7108 75.8682 73.6141C75.8629 73.5157 75.8568 73.426 75.8498 73.3452ZM77.7269 72.5806C77.8623 72.665 77.9923 72.7502 78.1171 72.8364C78.2437 72.9207 78.3614 73.0086 78.4704 73.1C78.5794 73.1896 78.6743 73.2846 78.7551 73.3847C78.8378 73.4832 78.9019 73.5877 78.9476 73.6985C78.9933 73.8092 79.0162 73.9287 79.0162 74.057C79.0162 74.3119 78.9582 74.5123 78.8421 74.6581C78.7261 74.804 78.5574 74.9077 78.3359 74.9692C78.1162 75.0308 77.85 75.0615 77.5371 75.0615H76.8938V74.405H77.5345C77.7366 74.405 77.9027 74.3954 78.0328 74.376C78.1646 74.355 78.2621 74.3189 78.3254 74.2679C78.3887 74.2152 78.4203 74.1414 78.4203 74.0465C78.4203 73.9815 78.3922 73.9138 78.3359 73.8435C78.2815 73.7732 78.2085 73.7011 78.1171 73.6273C78.0257 73.5535 77.9255 73.4796 77.8166 73.4058C77.7076 73.332 77.5986 73.2591 77.4896 73.187C77.3807 73.1149 77.2822 73.0455 77.1944 72.9787C77.1276 72.9277 77.0766 72.8636 77.0414 72.7863C77.0063 72.7089 76.9887 72.6307 76.9887 72.5516C76.9887 72.462 77.0107 72.3785 77.0546 72.3012C77.0986 72.2221 77.1662 72.1641 77.2576 72.1271L79.2403 71.3204V71.9663L77.7269 72.5806ZM80.9961 75.0615C80.9012 75.0615 80.8169 75.0501 80.743 75.0272C80.6692 75.0044 80.6086 74.978 80.5611 74.9482C80.5224 75.2013 80.4407 75.4333 80.3159 75.6442C80.1929 75.8569 80.0233 76.0353 79.8071 76.1794C79.5909 76.3253 79.3246 76.429 79.0082 76.4905L78.7868 75.8946C79.0522 75.8366 79.2745 75.7558 79.4538 75.6521C79.6331 75.5501 79.7684 75.4183 79.8598 75.2566C79.9512 75.0967 79.9969 74.9025 79.9969 74.674C79.9969 74.5175 79.9749 74.3462 79.931 74.1599C79.8871 73.9735 79.8361 73.7951 79.7781 73.6247L80.3845 73.4243L80.5321 74.0043C80.5655 74.1309 80.6156 74.2293 80.6824 74.2996C80.7509 74.3699 80.8459 74.405 80.9671 74.405H81.0673V75.0615H80.9961ZM83.3663 71.4074L83.7644 71.8055L83.3663 72.2062L82.9682 71.8055L83.3663 71.4074ZM83.825 72.0797L84.2232 72.4778L83.825 72.8759L83.4243 72.4778L83.825 72.0797ZM82.9102 72.0797L83.3083 72.4778L82.9102 72.8759L82.5121 72.4778L82.9102 72.0797ZM82.8021 75.0615C82.614 75.0615 82.462 75.0299 82.346 74.9666C82.23 74.9016 82.136 74.8137 82.0639 74.703C81.9725 74.8155 81.8609 74.9033 81.7291 74.9666C81.599 75.0299 81.425 75.0615 81.207 75.0615H80.9645V74.405H81.2123C81.3494 74.405 81.4601 74.3927 81.5445 74.3681C81.6289 74.3435 81.6904 74.297 81.7291 74.2284C81.7695 74.1599 81.7897 74.0597 81.7897 73.9278C81.7897 73.8997 81.7879 73.8584 81.7844 73.8039C81.7827 73.7494 81.7792 73.6879 81.7739 73.6194C81.7704 73.5508 81.7651 73.4823 81.7581 73.4137L82.3381 73.3426L82.3882 73.9938C82.397 74.1221 82.4356 74.2231 82.5042 74.297C82.5727 74.369 82.6738 74.405 82.8074 74.405C82.9691 74.405 83.0772 74.3673 83.1317 74.2917C83.1879 74.2161 83.216 74.0948 83.216 73.9278C83.216 73.8997 83.2143 73.8584 83.2108 73.8039C83.209 73.7494 83.2055 73.6879 83.2002 73.6194C83.1967 73.5508 83.1914 73.4823 83.1844 73.4137L83.7644 73.3426L83.8145 73.9938C83.8215 74.115 83.8523 74.2143 83.9068 74.2917C83.9613 74.3673 84.0518 74.405 84.1783 74.405C84.2592 74.405 84.3225 74.384 84.3682 74.3418C84.4139 74.2978 84.4464 74.2407 84.4657 74.1704C84.485 74.0983 84.4947 74.0201 84.4947 73.9358C84.4947 73.8408 84.4868 73.7433 84.471 73.6431C84.4552 73.5429 84.4376 73.4506 84.4183 73.3663C84.3989 73.2802 84.3831 73.2151 84.3708 73.1712L84.964 73.0104C84.9974 73.1404 85.0246 73.2793 85.0457 73.4269C85.0686 73.5746 85.08 73.7213 85.08 73.8672C85.08 74.0746 85.0519 74.2697 84.9956 74.4525C84.9394 74.6335 84.8462 74.7803 84.7162 74.8928C84.5861 75.0053 84.4077 75.0615 84.181 75.0615C84.0193 75.0615 83.8848 75.0281 83.7776 74.9613C83.6721 74.8945 83.5843 74.8075 83.5139 74.7003C83.4208 74.8128 83.3162 74.9016 83.2002 74.9666C83.0842 75.0299 82.9515 75.0615 82.8021 75.0615Z" fill="black"></path><path d="M14.2115 79.15V80.1334C14.1745 80.1808 14.1161 80.2323 14.0363 80.2878C13.9577 80.3433 13.8548 80.3913 13.7276 80.4318C13.6004 80.4711 13.4443 80.4907 13.2593 80.4907C13.0453 80.4907 12.8568 80.4433 12.6938 80.3485C12.5308 80.2525 12.4036 80.1144 12.3122 79.934C12.2209 79.7524 12.1752 79.5333 12.1752 79.2766V79.1101C12.1752 78.8534 12.218 78.6348 12.3035 78.4544C12.3903 78.2729 12.5123 78.1341 12.6695 78.0381C12.8268 77.9422 13.0118 77.8942 13.2246 77.8942C13.4385 77.8942 13.6143 77.9294 13.7519 78C13.8906 78.0705 13.997 78.1677 14.071 78.2914C14.145 78.414 14.1913 78.555 14.2098 78.7146H13.7449C13.7322 78.6267 13.7068 78.5498 13.6686 78.4839C13.6304 78.4168 13.5761 78.3648 13.5056 78.3278C13.4362 78.2896 13.346 78.2706 13.235 78.2706C13.1101 78.2706 13.0049 78.3029 12.9193 78.3677C12.8337 78.4325 12.769 78.5273 12.725 78.6522C12.6811 78.7759 12.6591 78.9274 12.6591 79.1066V79.2766C12.6591 79.457 12.6834 79.6096 12.732 79.7345C12.7805 79.8594 12.8511 79.9542 12.9436 80.019C13.0372 80.0837 13.1506 80.1161 13.2835 80.1161C13.3737 80.1161 13.4483 80.1086 13.5073 80.0935C13.5674 80.0774 13.6154 80.0583 13.6513 80.0363C13.6871 80.0143 13.7149 79.9929 13.7345 79.9721V79.4986H13.2332V79.15H14.2115ZM16.7075 79.1292V79.2592C16.7075 79.5136 16.6629 79.7328 16.5739 79.9166C16.4849 80.1005 16.3606 80.2421 16.201 80.3416C16.0426 80.441 15.8581 80.4907 15.6477 80.4907C15.4395 80.4907 15.2551 80.441 15.0944 80.3416C14.9348 80.2421 14.8093 80.1005 14.718 79.9166C14.6278 79.7328 14.5827 79.5136 14.5827 79.2592V79.1292C14.5827 78.8736 14.6278 78.6539 14.718 78.47C14.8082 78.2862 14.9331 78.1445 15.0926 78.0451C15.2522 77.9456 15.4361 77.8959 15.6442 77.8959C15.8547 77.8959 16.0397 77.9456 16.1993 78.0451C16.3588 78.1445 16.4831 78.2862 16.5722 78.47C16.6624 78.6539 16.7075 78.8736 16.7075 79.1292ZM16.2253 79.2592V79.1257C16.2253 78.943 16.2021 78.7892 16.1559 78.6643C16.1108 78.5383 16.0449 78.4429 15.9582 78.3781C15.8726 78.3134 15.7679 78.281 15.6442 78.281C15.5228 78.281 15.4187 78.3134 15.332 78.3781C15.2453 78.4429 15.1788 78.5383 15.1325 78.6643C15.0874 78.7892 15.0649 78.943 15.0649 79.1257V79.2592C15.0649 79.4408 15.088 79.5952 15.1343 79.7224C15.1805 79.8484 15.247 79.9444 15.3337 80.0103C15.4216 80.075 15.5263 80.1074 15.6477 80.1074C15.7714 80.1074 15.8761 80.075 15.9616 80.0103C16.0484 79.9444 16.1137 79.8484 16.1576 79.7224C16.2027 79.5952 16.2253 79.4408 16.2253 79.2592ZM18.7143 80.0814V80.4561H17.4446V80.0814H18.7143ZM17.5886 77.9306V80.4561H17.1116V77.9306H17.5886ZM20.8894 79.15V80.1334C20.8524 80.1808 20.794 80.2323 20.7142 80.2878C20.6356 80.3433 20.5326 80.3913 20.4054 80.4318C20.2783 80.4711 20.1221 80.4907 19.9371 80.4907C19.7232 80.4907 19.5347 80.4433 19.3717 80.3485C19.2086 80.2525 19.0814 80.1144 18.9901 79.934C18.8987 79.7524 18.8531 79.5333 18.8531 79.2766V79.1101C18.8531 78.8534 18.8958 78.6348 18.9814 78.4544C19.0681 78.2729 19.1901 78.1341 19.3474 78.0381C19.5047 77.9422 19.6897 77.8942 19.9024 77.8942C20.1164 77.8942 20.2921 77.9294 20.4297 78C20.5685 78.0705 20.6749 78.1677 20.7489 78.2914C20.8229 78.414 20.8691 78.555 20.8876 78.7146H20.4228C20.4101 78.6267 20.3846 78.5498 20.3465 78.4839C20.3083 78.4168 20.254 78.3648 20.1834 78.3278C20.1141 78.2896 20.0239 78.2706 19.9128 78.2706C19.788 78.2706 19.6827 78.3029 19.5972 78.3677C19.5116 78.4325 19.4468 78.5273 19.4029 78.6522C19.359 78.7759 19.337 78.9274 19.337 79.1066V79.2766C19.337 79.457 19.3613 79.6096 19.4098 79.7345C19.4584 79.8594 19.5289 79.9542 19.6214 80.019C19.7151 80.0837 19.8284 80.1161 19.9614 80.1161C20.0516 80.1161 20.1262 80.1086 20.1852 80.0935C20.2453 80.0774 20.2933 80.0583 20.3291 80.0363C20.365 80.0143 20.3927 79.9929 20.4124 79.9721V79.4986H19.9111V79.15H20.8894ZM23.3853 79.1292V79.2592C23.3853 79.5136 23.3408 79.7328 23.2518 79.9166C23.1627 80.1005 23.0384 80.2421 22.8789 80.3416C22.7204 80.441 22.536 80.4907 22.3256 80.4907C22.1174 80.4907 21.933 80.441 21.7722 80.3416C21.6127 80.2421 21.4872 80.1005 21.3959 79.9166C21.3057 79.7328 21.2606 79.5136 21.2606 79.2592V79.1292C21.2606 78.8736 21.3057 78.6539 21.3959 78.47C21.486 78.2862 21.6109 78.1445 21.7705 78.0451C21.9301 77.9456 22.1139 77.8959 22.3221 77.8959C22.5325 77.8959 22.7176 77.9456 22.8771 78.0451C23.0367 78.1445 23.161 78.2862 23.25 78.47C23.3402 78.6539 23.3853 78.8736 23.3853 79.1292ZM22.9031 79.2592V79.1257C22.9031 78.943 22.88 78.7892 22.8338 78.6643C22.7887 78.5383 22.7228 78.4429 22.636 78.3781C22.5505 78.3134 22.4458 78.281 22.3221 78.281C22.2007 78.281 22.0966 78.3134 22.0099 78.3781C21.9231 78.4429 21.8567 78.5383 21.8104 78.6643C21.7653 78.7892 21.7428 78.943 21.7428 79.1257V79.2592C21.7428 79.4408 21.7659 79.5952 21.8121 79.7224C21.8584 79.8484 21.9249 79.9444 22.0116 80.0103C22.0995 80.075 22.2041 80.1074 22.3256 80.1074C22.4493 80.1074 22.5539 80.075 22.6395 80.0103C22.7262 79.9444 22.7916 79.8484 22.8355 79.7224C22.8806 79.5952 22.9031 79.4408 22.9031 79.2592ZM25.465 78.973V79.3477H24.1364V78.973H25.465ZM24.2665 77.9306V80.4561H23.7895V77.9306H24.2665ZM25.8189 77.9306V80.4561H25.3419V77.9306H25.8189ZM27.34 78.3139L26.6202 80.4561H26.1155L27.059 77.9306H27.3817L27.34 78.3139ZM27.9419 80.4561L27.2186 78.3139L27.1753 77.9306H27.4996L28.4484 80.4561H27.9419ZM27.9089 79.5177V79.8941H26.5543V79.5177H27.9089ZM28.7086 77.9306H29.6261C29.8181 77.9306 29.9828 77.9595 30.1205 78.0173C30.2581 78.0751 30.3639 78.1607 30.4379 78.274C30.5119 78.3874 30.5489 78.5267 30.5489 78.6921C30.5489 78.8227 30.5258 78.936 30.4795 79.032C30.4332 79.128 30.3679 79.2084 30.2835 79.2731C30.2002 79.3379 30.102 79.3888 29.9886 79.4258L29.8395 79.5021H29.0294L29.026 79.1257H29.6313C29.7296 79.1257 29.8111 79.1083 29.8759 79.0736C29.9406 79.039 29.9892 78.991 30.0216 78.9297C30.0551 78.8684 30.0719 78.7984 30.0719 78.7198C30.0719 78.5938 30.0355 78.4937 29.9626 78.4197C29.8898 78.3446 29.7776 78.307 29.6261 78.307H29.1856V80.4561H28.7086V77.9306ZM30.1343 80.4561L29.5498 79.3252L30.0545 79.3234L30.646 80.4318V80.4561H30.1343ZM32.384 77.9306V80.4561H31.907V77.9306H32.384ZM32.8991 77.9306H33.8167C34.0087 77.9306 34.1734 77.9595 34.311 78.0173C34.4486 78.0751 34.5544 78.1607 34.6285 78.274C34.7025 78.3874 34.7395 78.5267 34.7395 78.6921C34.7395 78.8227 34.7163 78.936 34.6701 79.032C34.6238 79.128 34.5585 79.2084 34.4741 79.2731C34.3908 79.3379 34.2925 79.3888 34.1792 79.4258L34.03 79.5021H33.22L33.2166 79.1257H33.8219C33.9202 79.1257 34.0017 79.1083 34.0665 79.0736C34.1312 79.039 34.1798 78.991 34.2122 78.9297C34.2457 78.8684 34.2625 78.7984 34.2625 78.7198C34.2625 78.5938 34.226 78.4937 34.1532 78.4197C34.0803 78.3446 33.9682 78.307 33.8167 78.307H33.3761V80.4561H32.8991V77.9306ZM34.3249 80.4561L33.7404 79.3252L34.2451 79.3234L34.8366 80.4318V80.4561H34.3249ZM37.2025 79.1292V79.2592C37.2025 79.5136 37.1579 79.7328 37.0689 79.9166C36.9799 80.1005 36.8556 80.2421 36.696 80.3416C36.5376 80.441 36.3531 80.4907 36.1427 80.4907C35.9345 80.4907 35.7501 80.441 35.5894 80.3416C35.4298 80.2421 35.3043 80.1005 35.213 79.9166C35.1228 79.7328 35.0777 79.5136 35.0777 79.2592V79.1292C35.0777 78.8736 35.1228 78.6539 35.213 78.47C35.3032 78.2862 35.4281 78.1445 35.5876 78.0451C35.7472 77.9456 35.9311 77.8959 36.1392 77.8959C36.3497 77.8959 36.5347 77.9456 36.6943 78.0451C36.8538 78.1445 36.9781 78.2862 37.0672 78.47C37.1574 78.6539 37.2025 78.8736 37.2025 79.1292ZM36.7203 79.2592V79.1257C36.7203 78.943 36.6971 78.7892 36.6509 78.6643C36.6058 78.5383 36.5399 78.4429 36.4532 78.3781C36.3676 78.3134 36.2629 78.281 36.1392 78.281C36.0178 78.281 35.9137 78.3134 35.827 78.3781C35.7403 78.4429 35.6738 78.5383 35.6275 78.6643C35.5824 78.7892 35.5599 78.943 35.5599 79.1257V79.2592C35.5599 79.4408 35.583 79.5952 35.6293 79.7224C35.6755 79.8484 35.742 79.9444 35.8287 80.0103C35.9166 80.075 36.0213 80.1074 36.1427 80.1074C36.2664 80.1074 36.3711 80.075 36.4566 80.0103C36.5434 79.9444 36.6087 79.8484 36.6526 79.7224C36.6977 79.5952 36.7203 79.4408 36.7203 79.2592ZM39.636 77.9306V80.4561H39.1573L38.0836 78.7042V80.4561H37.6066V77.9306H38.0836L39.1607 79.6842V77.9306H39.636ZM41.4087 79.0927L41.8683 78.7909C41.9412 78.7424 41.9915 78.6955 42.0192 78.6504C42.047 78.6053 42.0608 78.551 42.0608 78.4874C42.0608 78.4307 42.0389 78.3781 41.9949 78.3295C41.9521 78.2798 41.8914 78.255 41.8128 78.255C41.7284 78.255 41.6648 78.2827 41.622 78.3382C41.5792 78.3937 41.5578 78.4591 41.5578 78.5342C41.5578 78.6128 41.5873 78.6944 41.6463 78.7788C41.7053 78.862 41.7787 78.9551 41.8666 79.058L43.0582 80.4561H42.5344L41.5596 79.3217C41.4358 79.169 41.3347 79.0338 41.256 78.9158C41.1785 78.7967 41.1398 78.6724 41.1398 78.5429C41.1398 78.4111 41.1676 78.2966 41.2231 78.1995C41.2786 78.1023 41.3566 78.0272 41.4572 77.974C41.559 77.9208 41.6781 77.8942 41.8145 77.8942C41.944 77.8942 42.0556 77.9208 42.1493 77.974C42.2441 78.026 42.3175 78.0954 42.3696 78.1821C42.4216 78.2688 42.4476 78.3637 42.4476 78.4666C42.4476 78.5452 42.4332 78.618 42.4043 78.6851C42.3754 78.751 42.3355 78.8117 42.2846 78.8672C42.2337 78.9216 42.1747 78.973 42.1077 79.0216L41.5665 79.4101C41.5145 79.4541 41.4752 79.4974 41.4486 79.5402C41.4231 79.5819 41.4058 79.6206 41.3965 79.6564C41.3884 79.6923 41.3844 79.7258 41.3844 79.757C41.3844 79.8276 41.3994 79.8912 41.4295 79.9478C41.4607 80.0033 41.5046 80.0479 41.5613 80.0814C41.6191 80.1138 41.6873 80.13 41.766 80.13C41.8619 80.13 41.9545 80.1086 42.0435 80.0658C42.1325 80.023 42.2123 79.9623 42.2829 79.8837C42.3545 79.805 42.4112 79.7114 42.4528 79.6027C42.4956 79.4928 42.517 79.372 42.517 79.2402H42.909C42.909 79.4286 42.8807 79.6027 42.824 79.7622C42.7674 79.9207 42.6731 80.056 42.5413 80.1681C42.5332 80.1751 42.5234 80.1843 42.5118 80.1959C42.5014 80.2074 42.4922 80.2167 42.4841 80.2236C42.3788 80.3138 42.2649 80.3815 42.1424 80.4266C42.0209 80.4705 41.8885 80.4925 41.7452 80.4925C41.5763 80.4925 41.4306 80.4618 41.3081 80.4006C41.1855 80.3393 41.0907 80.2549 41.0236 80.1473C40.9577 80.0398 40.9247 79.9166 40.9247 79.7779C40.9247 79.6749 40.945 79.5853 40.9854 79.509C41.0271 79.4315 41.0843 79.3598 41.1572 79.2939C41.23 79.2269 41.3138 79.1598 41.4087 79.0927ZM45.568 79.8004C45.568 79.7357 45.5541 79.6796 45.5264 79.6322C45.4998 79.5848 45.4489 79.5408 45.3738 79.5003C45.2986 79.4599 45.1905 79.4177 45.0494 79.3737C44.8921 79.3252 44.7499 79.2673 44.6227 79.2003C44.4955 79.1332 44.3943 79.0511 44.3192 78.954C44.2452 78.8557 44.2082 78.736 44.2082 78.5949C44.2082 78.4573 44.2469 78.3359 44.3244 78.2307C44.403 78.1254 44.5111 78.0433 44.6487 77.9844C44.7875 77.9254 44.9465 77.8959 45.1257 77.8959C45.313 77.8959 45.4749 77.93 45.6114 77.9983C45.749 78.0665 45.8554 78.159 45.9305 78.2758C46.0057 78.3926 46.0433 78.5238 46.0433 78.6695H45.568C45.568 78.5909 45.5513 78.5215 45.5177 78.4614C45.4853 78.4012 45.4356 78.3538 45.3686 78.3191C45.3026 78.2844 45.2194 78.2671 45.1188 78.2671C45.0217 78.2671 44.9407 78.2816 44.876 78.3105C44.8124 78.3394 44.7644 78.3787 44.732 78.4284C44.7008 78.4781 44.6852 78.5336 44.6852 78.5949C44.6852 78.6551 44.7042 78.7082 44.7424 78.7545C44.7817 78.8008 44.8401 78.843 44.9176 78.8811C44.9962 78.9193 45.0933 78.9557 45.209 78.9904C45.394 79.0459 45.5484 79.1101 45.6721 79.1829C45.797 79.2558 45.8906 79.3425 45.9531 79.4431C46.0155 79.5425 46.0467 79.6605 46.0467 79.7969C46.0467 79.9415 46.0092 80.0658 45.934 80.1699C45.8588 80.2739 45.753 80.3537 45.6166 80.4092C45.4813 80.4636 45.3217 80.4907 45.1379 80.4907C45.0153 80.4907 44.8939 80.4746 44.7736 80.4422C44.6545 80.4086 44.5464 80.3589 44.4493 80.293C44.3521 80.2259 44.2747 80.1415 44.2168 80.0398C44.159 79.9369 44.1301 79.8166 44.1301 79.679H44.6088C44.6088 79.7588 44.6216 79.827 44.647 79.8837C44.6736 79.9392 44.7106 79.9848 44.758 80.0207C44.8066 80.0554 44.8632 80.0808 44.928 80.097C44.9927 80.1132 45.0627 80.1213 45.1379 80.1213C45.235 80.1213 45.3148 80.108 45.3772 80.0814C45.4408 80.0536 45.4882 80.0155 45.5195 79.9669C45.5518 79.9184 45.568 79.8629 45.568 79.8004ZM47.4985 77.9306V80.4561H47.0233V77.9306H47.4985ZM48.2825 77.9306V78.307H46.248V77.9306H48.2825ZM50.2738 80.0814V80.4561H48.9312V80.0814H50.2738ZM49.0769 77.9306V80.4561H48.5999V77.9306H49.0769ZM50.0986 78.973V79.339H48.9312V78.973H50.0986ZM50.2686 77.9306V78.307H48.9312V77.9306H50.2686ZM52.2789 80.0814V80.4561H50.9363V80.0814H52.2789ZM51.082 77.9306V80.4561H50.605V77.9306H51.082ZM52.1037 78.973V79.339H50.9363V78.973H52.1037ZM52.2736 77.9306V78.307H50.9363V77.9306H52.2736ZM54.2128 80.0814V80.4561H52.9432V80.0814H54.2128ZM53.0871 77.9306V80.4561H52.6101V77.9306H53.0871ZM56.1954 80.4561H55.6507L55.6542 80.0814H56.1954C56.3422 80.0814 56.4654 80.049 56.5648 79.9843C56.6643 79.9184 56.7394 79.8241 56.7903 79.7015C56.8412 79.5778 56.8666 79.4298 56.8666 79.2575V79.1274C56.8666 78.9505 56.8406 78.8013 56.7886 78.6799C56.7377 78.5573 56.6631 78.4648 56.5648 78.4024C56.4677 78.3388 56.348 78.307 56.2058 78.307H55.6403V77.9306H56.2058C56.4313 77.9306 56.6296 77.9803 56.8007 78.0798C56.9719 78.1792 57.106 78.3191 57.2031 78.4995C57.3003 78.6788 57.3488 78.8892 57.3488 79.1309V79.2575C57.3488 79.4992 57.3003 79.7096 57.2031 79.8889C57.1072 80.0681 56.9724 80.2074 56.799 80.3069C56.6255 80.4063 56.4243 80.4561 56.1954 80.4561ZM55.9179 77.9306V80.4561H55.4409V77.9306H55.9179ZM59.4285 80.0814V80.4561H58.086V80.0814H59.4285ZM58.2317 77.9306V80.4561H57.7547V77.9306H58.2317ZM59.2533 78.973V79.339H58.086V78.973H59.2533ZM59.4233 77.9306V78.307H58.086V77.9306H59.4233ZM60.6479 79.9617L61.2775 77.9306H61.8065L60.915 80.4561H60.5629L60.6479 79.9617ZM60.0668 77.9306L60.693 79.9617L60.7832 80.4561H60.4276L59.5395 77.9306H60.0668ZM63.7405 80.0814V80.4561H62.398V80.0814H63.7405ZM62.5437 77.9306V80.4561H62.0667V77.9306H62.5437ZM63.5653 78.973V79.339H62.398V78.973H63.5653ZM63.7353 77.9306V78.307H62.398V77.9306H63.7353ZM65.6745 80.0814V80.4561H64.4048V80.0814H65.6745ZM64.5488 77.9306V80.4561H64.0718V77.9306H64.5488ZM67.9242 79.1292V79.2592C67.9242 79.5136 67.8796 79.7328 67.7906 79.9166C67.7016 80.1005 67.5773 80.2421 67.4177 80.3416C67.2593 80.441 67.0748 80.4907 66.8644 80.4907C66.6562 80.4907 66.4718 80.441 66.3111 80.3416C66.1515 80.2421 66.026 80.1005 65.9347 79.9166C65.8445 79.7328 65.7994 79.5136 65.7994 79.2592V79.1292C65.7994 78.8736 65.8445 78.6539 65.9347 78.47C66.0249 78.2862 66.1498 78.1445 66.3093 78.0451C66.4689 77.9456 66.6528 77.8959 66.8609 77.8959C67.0714 77.8959 67.2564 77.9456 67.4159 78.0451C67.5755 78.1445 67.6998 78.2862 67.7889 78.47C67.8791 78.6539 67.9242 78.8736 67.9242 79.1292ZM67.442 79.2592V79.1257C67.442 78.943 67.4188 78.7892 67.3726 78.6643C67.3275 78.5383 67.2616 78.4429 67.1748 78.3781C67.0893 78.3134 66.9846 78.281 66.8609 78.281C66.7395 78.281 66.6354 78.3134 66.5487 78.3781C66.462 78.4429 66.3955 78.5383 66.3492 78.6643C66.3041 78.7892 66.2816 78.943 66.2816 79.1257V79.2592C66.2816 79.4408 66.3047 79.5952 66.351 79.7224C66.3972 79.8484 66.4637 79.9444 66.5504 80.0103C66.6383 80.075 66.743 80.1074 66.8644 80.1074C66.9881 80.1074 67.0927 80.075 67.1783 80.0103C67.265 79.9444 67.3304 79.8484 67.3743 79.7224C67.4194 79.5952 67.442 79.4408 67.442 79.2592ZM69.2996 79.535H68.6492V79.1604H69.2996C69.406 79.1604 69.4922 79.143 69.5581 79.1083C69.6251 79.0725 69.6743 79.0239 69.7055 78.9626C69.7367 78.9002 69.7523 78.8291 69.7523 78.7493C69.7523 78.6718 69.7367 78.5995 69.7055 78.5325C69.6743 78.4654 69.6251 78.4111 69.5581 78.3694C69.4922 78.3278 69.406 78.307 69.2996 78.307H68.8053V80.4561H68.3283V77.9306H69.2996C69.4962 77.9306 69.6639 77.9659 69.8026 78.0364C69.9426 78.1058 70.0489 78.2023 70.1218 78.3261C70.1958 78.4486 70.2328 78.5886 70.2328 78.7458C70.2328 78.9089 70.1958 79.0494 70.1218 79.1673C70.0489 79.2853 69.9426 79.376 69.8026 79.4396C69.6639 79.5032 69.4962 79.535 69.2996 79.535ZM70.8156 77.9306H71.2284L71.9187 79.8316L72.6073 77.9306H73.0219L72.0835 80.4561H71.7522L70.8156 77.9306ZM70.6074 77.9306H71.0116L71.0844 79.6773V80.4561H70.6074V77.9306ZM72.8242 77.9306H73.23V80.4561H72.753V79.6773L72.8242 77.9306ZM75.3895 80.0814V80.4561H74.047V80.0814H75.3895ZM74.1927 77.9306V80.4561H73.7157V77.9306H74.1927ZM75.2143 78.973V79.339H74.047V78.973H75.2143ZM75.3843 77.9306V78.307H74.047V77.9306H75.3843ZM77.7502 77.9306V80.4561H77.2714L76.1978 78.7042V80.4561H75.7208V77.9306H76.1978L77.2749 79.6842V77.9306H77.7502ZM79.2679 77.9306V80.4561H78.7926V77.9306H79.2679ZM80.0519 77.9306V78.307H78.0173V77.9306H80.0519ZM82.6866 79.6252H83.1636C83.1509 79.794 83.104 79.9438 83.0231 80.0745C82.9421 80.204 82.8294 80.3057 82.6849 80.3797C82.5403 80.4537 82.3651 80.4907 82.1593 80.4907C81.9477 80.4907 81.765 80.4416 81.6112 80.3433C81.4574 80.245 81.3389 80.1063 81.2556 79.927C81.1724 79.7478 81.1307 79.5356 81.1307 79.2905V79.0979C81.1307 78.8528 81.1729 78.6406 81.2574 78.4614C81.3429 78.281 81.4638 78.1416 81.6199 78.0433C81.776 77.9439 81.9593 77.8942 82.1697 77.8942C82.3755 77.8942 82.5496 77.9323 82.6918 78.0087C82.834 78.0838 82.9445 78.1873 83.0231 78.3191C83.1017 78.451 83.1491 78.6024 83.1653 78.7736H82.6883C82.6744 78.6152 82.6288 78.4926 82.5513 78.4059C82.475 78.3191 82.3478 78.2758 82.1697 78.2758C82.046 78.2758 81.9425 78.307 81.8592 78.3694C81.7771 78.4307 81.7153 78.5221 81.6736 78.6435C81.6332 78.7649 81.6129 78.9152 81.6129 79.0945V79.2905C81.6129 79.4628 81.6314 79.6102 81.6684 79.7328C81.7054 79.8553 81.7644 79.949 81.8454 80.0138C81.9263 80.0785 82.0309 80.1109 82.1593 80.1109C82.2761 80.1109 82.3709 80.0924 82.4438 80.0554C82.5178 80.0184 82.5738 79.964 82.612 79.8923C82.6513 79.8206 82.6762 79.7316 82.6866 79.6252ZM85.578 79.1292V79.2592C85.578 79.5136 85.5335 79.7328 85.4445 79.9166C85.3554 80.1005 85.2311 80.2421 85.0715 80.3416C84.9131 80.441 84.7287 80.4907 84.5182 80.4907C84.3101 80.4907 84.1257 80.441 83.9649 80.3416C83.8054 80.2421 83.6799 80.1005 83.5885 79.9166C83.4983 79.7328 83.4532 79.5136 83.4532 79.2592V79.1292C83.4532 78.8736 83.4983 78.6539 83.5885 78.47C83.6787 78.2862 83.8036 78.1445 83.9632 78.0451C84.1228 77.9456 84.3066 77.8959 84.5148 77.8959C84.7252 77.8959 84.9102 77.9456 85.0698 78.0451C85.2294 78.1445 85.3537 78.2862 85.4427 78.47C85.5329 78.6539 85.578 78.8736 85.578 79.1292ZM85.0958 79.2592V79.1257C85.0958 78.943 85.0727 78.7892 85.0265 78.6643C84.9814 78.5383 84.9154 78.4429 84.8287 78.3781C84.7431 78.3134 84.6385 78.281 84.5148 78.281C84.3934 78.281 84.2893 78.3134 84.2026 78.3781C84.1158 78.4429 84.0493 78.5383 84.0031 78.6643C83.958 78.7892 83.9354 78.943 83.9354 79.1257V79.2592C83.9354 79.4408 83.9586 79.5952 84.0048 79.7224C84.0511 79.8484 84.1176 79.9444 84.2043 80.0103C84.2922 80.075 84.3968 80.1074 84.5182 80.1074C84.642 80.1074 84.7466 80.075 84.8322 80.0103C84.9189 79.9444 84.9842 79.8484 85.0282 79.7224C85.0733 79.5952 85.0958 79.4408 85.0958 79.2592ZM85.7983 80.1785C85.7983 80.0999 85.8261 80.034 85.8816 79.9808C85.9371 79.9276 86.0041 79.901 86.0828 79.901C86.1614 79.901 86.2285 79.9276 86.284 79.9808C86.3406 80.034 86.369 80.0999 86.369 80.1785C86.369 80.2572 86.3406 80.3231 86.284 80.3763C86.2285 80.4295 86.1614 80.4561 86.0828 80.4561C86.003 80.4561 85.9353 80.43 85.8798 80.378C85.8255 80.3248 85.7983 80.2583 85.7983 80.1785Z" fill="black"></path></svg> 