<?xml version="1.0" encoding="UTF-8"?> <svg xmlns="http://www.w3.org/2000/svg" width="100" height="100" viewBox="0 0 100 100" fill="none"><g clip-path="url(#clip0_9871_1161)"><path d="M58.4067 17.6652H55.2745C55.2745 16.1944 54.6877 14.7837 53.6433 13.7436C52.5989 12.7036 51.1824 12.1193 49.7054 12.1193C48.2284 12.1193 46.8119 12.7036 45.7675 13.7436C44.7231 14.7837 44.1363 16.1944 44.1363 17.6652H41.0041C41.0041 12.9108 44.9311 9 49.7054 9C54.4797 9 58.4067 12.9108 58.4067 17.6652ZM70.7095 17.6652C69.0725 16.0511 66.8618 15.1456 64.5581 15.1456C62.2544 15.1456 60.0438 16.0511 58.4067 17.6652L60.62 19.8694C61.6699 18.8572 63.0771 18.2965 64.5383 18.3082C65.9994 18.3198 67.3974 18.9029 68.4309 19.9317C69.4643 20.9605 70.0503 22.3525 70.0625 23.8076C70.0747 25.2627 69.5122 26.6643 68.4962 27.7101L70.7095 29.917C72.3304 28.2867 73.2396 26.0853 73.2396 23.7911C73.2396 21.4969 72.3304 19.2955 70.7095 17.6652ZM70.7095 29.917V33.0362C71.4511 33.0198 72.1885 33.1511 72.8784 33.4223C73.5684 33.6936 74.197 34.0993 74.7273 34.6158C75.2576 35.1323 75.679 35.7491 75.9667 36.43C76.2543 37.1109 76.4025 37.8421 76.4025 38.5808C76.4025 39.3195 76.2543 40.0508 75.9667 40.7317C75.679 41.4126 75.2576 42.0294 74.7273 42.5459C74.197 43.0623 73.5684 43.4681 72.8784 43.7394C72.1885 44.0106 71.4511 44.1419 70.7095 44.1255V47.2447C75.4838 47.2447 79.4108 43.334 79.4108 38.5822C79.4108 33.8305 75.4838 29.9142 70.7095 29.9142V29.917ZM70.7095 47.2447L68.4962 49.4516C69.0272 49.9635 69.4505 50.5755 69.7416 51.252C70.0326 51.9284 70.1856 52.6558 70.1915 53.3918C70.1974 54.1277 70.0562 54.8574 69.7761 55.5385C69.4959 56.2195 69.0825 56.8382 68.5598 57.3585C68.0372 57.8788 67.4158 58.2903 66.7318 58.569C66.0478 58.8478 65.315 58.9882 64.576 58.982C63.837 58.9758 63.1067 58.8233 62.4275 58.5332C61.7483 58.2431 61.1339 57.8213 60.62 57.2923L58.4067 59.4992C60.0438 61.1134 62.2544 62.0189 64.5581 62.0189C66.8618 62.0189 69.0725 61.1134 70.7095 59.4992C72.3312 57.8688 73.241 55.6668 73.241 53.372C73.241 51.0771 72.3312 48.8751 70.7095 47.2447ZM55.2745 59.4992C55.2745 60.9701 54.6877 62.3807 53.6433 63.4208C52.5989 64.4609 51.1824 65.0452 49.7054 65.0452C48.2284 65.0452 46.8119 64.4609 45.7675 63.4208C44.7231 62.3807 44.1363 60.9701 44.1363 59.4992H41.0041C41.0041 64.2509 44.9311 68.1617 49.7054 68.1617C54.4797 68.1617 58.4067 64.2509 58.4067 59.4992H55.2745ZM38.7908 57.2923C37.741 58.3045 36.3337 58.8652 34.8726 58.8535C33.4114 58.8418 32.0134 58.2588 30.98 57.23C29.9465 56.2012 29.3605 54.8092 29.3483 53.3541C29.3361 51.899 29.8986 50.4974 30.9146 49.4516L28.7013 47.2447C27.0796 48.8751 26.1698 51.0771 26.1698 53.372C26.1698 55.6668 27.0796 57.8688 28.7013 59.4992C30.3384 61.1134 32.549 62.0189 34.8527 62.0189C37.1564 62.0189 39.3671 61.1134 41.0041 59.4992L38.7908 57.2923ZM23.1323 38.5822C23.1323 37.1113 23.719 35.7007 24.7634 34.6606C25.8078 33.6205 27.2243 33.0362 28.7013 33.0362V29.9142C23.9271 29.917 20 33.8277 20 38.5822C20 43.3367 23.9271 47.2447 28.7013 47.2447V44.1255C27.2248 44.1255 25.8087 43.5415 24.7644 42.502C23.7201 41.4626 23.133 40.0526 23.1323 38.5822ZM30.9146 27.7101C30.3976 27.1949 29.9876 26.5834 29.708 25.9104C29.4283 25.2374 29.2845 24.5161 29.2848 23.7878C29.2853 22.3168 29.8726 20.9064 30.9174 19.8666C31.9622 18.8269 33.379 18.243 34.856 18.2435C36.3331 18.244 37.7495 18.8289 38.7936 19.8694L41.0068 17.6652C39.3698 16.0511 37.1592 15.1456 34.8555 15.1456C32.5517 15.1456 30.3411 16.0511 28.7041 17.6652C27.0832 19.2955 26.1739 21.4969 26.1739 23.7911C26.1739 26.0853 27.0832 28.2867 28.7041 29.917L30.9174 27.7101H30.9146ZM70.5577 38.7086L64.4505 44.7905V53.3926H57.0766V51.0016H42.3315V53.3926H34.9603V44.7905L28.8531 38.7086L34.9576 32.6268V24.0247H43.5954L49.7026 17.9428L55.8099 24.0247H64.4477V32.6268L70.5549 38.7086H70.5577ZM57.0766 47.5855V46.6511C57.3581 46.39 57.5595 46.2031 57.8079 45.9366C58.8483 44.8427 59.897 43.268 59.897 41.3827C59.897 37.9666 56.704 35.2596 53.006 32.1266C51.8857 31.1896 50.7853 30.2293 49.7054 29.2464C48.6015 30.2633 47.4866 31.2114 46.402 32.1266C42.7041 35.2596 39.5138 37.9666 39.5138 41.3827C39.5138 43.268 40.5625 44.8427 41.6002 45.9393C41.8458 46.1976 42.0362 46.3735 42.3315 46.6538V47.5883H57.0766V47.5855ZM67.4061 38.7086L62.2206 33.5474V26.2453H54.8881L49.7054 21.0813L44.5199 26.2453H37.1929V33.5474L32.0047 38.7086L37.1902 43.8726V51.172H41.1338V46.8078C39.4559 45.1286 38.57 43.2598 38.57 41.3827C38.57 37.5351 41.9175 34.6962 45.7922 31.412C48.1462 29.4195 48.7506 28.8561 49.7054 27.9602C50.663 28.8589 51.2646 29.4168 53.6187 31.412C57.4933 34.6962 60.8408 37.5324 60.8408 41.3827C60.8408 43.2598 59.9577 45.1286 58.277 46.8078V51.172H62.2234V43.8754L67.4061 38.7114V38.7086ZM26.2176 73.5565C27.0096 73.3724 27.6113 73.4274 28.2267 72.6633C28.5572 72.2353 28.8171 71.7575 28.9966 71.248C29.0546 71.0693 29.0849 70.8797 29.0849 70.6791C29.0353 70.4318 28.8642 70.2311 28.5799 70.0827C28.1696 69.9084 27.7424 69.7767 27.3049 69.6897L27.4705 69.4094L27.4677 69.4012H27.4733C27.8431 69.0329 28.3564 68.5052 28.8228 68.1672C29.4204 67.7872 29.906 67.2561 30.2302 66.6282C30.5064 66.0597 30.6534 65.4376 30.6607 64.8061C30.6607 64.0036 30.5007 63.377 30.1833 62.929C29.881 62.5262 29.4341 62.2554 28.9359 62.1732C28.6351 62.1732 28.2598 62.5717 27.81 63.3687C27.5561 63.8332 27.0704 64.7758 27.0704 65.3008C27.0704 65.7295 27.3932 66.1142 28.0169 66.1142C28.2874 66.1142 28.5137 65.9961 28.7952 65.8696C28.9331 65.9246 29.0546 66.128 29.1594 66.477C29.1594 66.6529 29.038 66.8508 28.7952 67.0761C27.6637 68.2332 27.4871 68.4722 26.7226 69.4012H26.7281C26.4439 69.7502 25.7733 71.0446 25.3538 71.8196C23.4082 72.6936 22.1084 74.0594 21.4074 75.6947C20.8381 77.0705 20.4566 78.5161 20.2732 79.9929C20.1076 81.3918 20.0193 82.7742 20 84.1428C20 86.5118 20.138 88.7928 20.414 91.1454C20.4388 91.3267 20.4774 91.4257 20.5299 91.4477C20.5851 91.4641 20.6154 91.3817 20.6292 91.2003C20.6844 85.8412 20.7396 83.3128 21.0321 79.894C21.0763 79.1657 21.1812 78.4594 21.3495 77.7778C21.4764 77.2529 21.6696 76.7472 21.929 76.2635C22.0916 75.9867 22.2821 75.727 22.4975 75.4885C23.0291 74.8971 23.6887 74.4338 24.4266 74.1337C24.9702 73.8781 25.6712 73.6665 26.2148 73.5565H26.2176ZM20.4967 62.5855C20.4664 62.5415 20.4498 62.5085 20.4498 62.4838C20.4498 62.4371 20.436 62.4728 21.9208 60.1945C21.9925 60.1038 22.056 60.0873 22.1857 60.167C22.6107 60.4226 22.9198 60.6205 23.1957 61.03C23.2785 61.1536 23.3337 61.2883 23.3668 61.4367C23.48 61.8407 23.3144 62.2062 23.0853 62.558C22.8916 62.8678 22.6619 63.1537 22.4009 63.41C22.3043 63.5089 22.1636 63.6408 22.0256 63.6573C21.9539 63.6848 21.8876 63.6573 21.8269 63.6133C21.2143 63.1241 21.1039 62.962 20.4967 62.5855ZM24.7826 60.0296C24.8543 59.9362 24.915 59.9197 25.0447 60.0021C25.4697 60.255 25.7816 60.4501 26.0575 60.8623C26.1403 60.9833 26.1955 61.1207 26.2231 61.2691C26.339 61.6731 26.1762 62.0386 25.9444 62.3904C25.7505 62.6992 25.5208 62.9842 25.26 63.2396C25.1662 63.3413 25.0227 63.4732 24.8847 63.4924C24.8129 63.5144 24.7467 63.4924 24.6887 63.4457C24.0733 62.9565 23.9629 62.7971 23.3558 62.4178C23.3254 62.3739 23.3089 62.3409 23.3089 62.3162C23.3089 62.2694 23.2951 62.3052 24.7826 60.0269V60.0296ZM34.1462 81.5759C33.8537 82.5844 33.3928 83.5367 32.7829 84.3929C32.2511 85.2022 31.5462 85.8845 30.7187 86.3909C29.8994 86.9483 28.9263 87.2384 27.9341 87.2208C26.7392 87.2016 25.834 86.8141 25.2158 86.0528C24.9441 85.6859 24.7472 85.2695 24.6363 84.8271C24.5324 84.4229 24.4777 84.0077 24.4735 83.5904C24.5287 81.4852 25.3538 79.1657 26.2976 77.2859C26.9517 75.9832 27.4015 75.2439 27.4181 75.2137C27.5202 75.0763 27.5892 75.0736 27.6251 75.0736C27.7051 75.156 27.545 75.4198 26.6923 77.2639C26.1541 78.4264 25.3373 80.6058 25.4973 81.87C25.5115 82.2094 25.5975 82.542 25.7497 82.8461C25.9019 83.1501 26.1168 83.4188 26.3804 83.6344C26.9158 84.0714 27.6802 84.2885 28.6737 84.2885C29.5016 84.2885 30.2964 84.1153 31.0664 83.7663C32.3027 83.2166 33.1803 82.3922 33.6219 81.6666C33.862 81.2681 33.9806 80.9301 33.9806 80.658C33.9889 80.5316 33.9254 80.4272 33.7985 80.3392C33.5225 80.1523 33.0975 80.0314 32.7719 79.9462C31.6073 79.6494 31.3368 79.1547 31.3479 78.388C31.3479 77.0193 32.4876 75.2357 33.3349 74.1584C33.8868 73.529 34.356 73.0481 34.7423 72.7156C35.4047 72.121 36.1346 71.6054 36.917 71.1793C37.1101 71.0721 37.4551 70.9127 37.6759 70.9649C37.7504 70.9924 37.7945 71.0556 37.8083 71.16C37.5876 71.9405 36.9032 73.5345 36.7486 73.4961C36.721 73.5208 36.6796 73.4933 36.6548 73.4686C36.4726 73.3174 35.653 73.5675 35.4267 73.639C34.9053 73.8266 34.4234 74.1089 34.0055 74.4717C33.5798 74.8067 33.197 75.1925 32.8657 75.6205C32.6035 75.9777 32.4711 76.2251 32.4711 76.3625C32.438 76.5384 32.4932 76.7253 32.6698 76.8764C33.0341 77.1595 33.9144 77.3574 34.1793 77.5662C34.4829 77.7723 34.6374 78.1516 34.6374 78.7067C34.6374 79.5395 34.4719 80.4959 34.1462 81.5759ZM38.3354 79.9902C38.0954 81.4578 37.4523 85.418 36.4451 86.4981C36.2353 86.7234 35.8517 86.9378 35.2915 87.1384C34.834 87.3107 34.3657 87.453 33.8896 87.5644C33.5143 87.6468 33.2824 87.688 33.1886 87.6935C33.0948 87.688 33.0341 87.6688 33.0092 87.6386C33.0037 87.6331 33.0009 87.6221 33.0009 87.6111C33.0009 87.3912 33.6495 86.8856 33.8261 86.7509C34.2783 86.3958 34.7236 86.032 35.1618 85.6598C36.3043 84.6925 36.6493 84.1675 36.9998 83.1424C37.8001 80.7954 37.9601 79.7099 38.2416 79.7291C38.3658 79.7511 38.3686 79.872 38.3354 79.9902ZM40.3169 83.9202C40.7005 82.9226 40.9323 80.9631 41.0289 79.8967C41.0427 79.6934 41.0786 79.3663 41.1421 78.9184C41.2055 78.4704 41.2994 78.0856 41.4235 77.7696L42.417 75.4803C42.4998 75.2934 42.5633 75.2 42.613 75.2C42.7096 75.2 42.7068 75.2879 42.6903 75.3786C42.5633 76.2361 42.3425 77.6954 42.268 78.7205C42.1963 79.6714 42.0666 80.7652 41.7464 81.6886C41.5419 82.2869 41.2852 82.8662 40.9792 83.42C40.6812 83.9559 40.4494 84.2335 40.2783 84.2582C40.2093 84.2582 40.2948 83.9944 40.3169 83.9229V83.9202ZM44.5779 80.3557C44.5696 80.3502 44.5668 80.3365 44.5668 80.32C44.5668 80.232 44.6386 80.1578 44.7076 80.0946C45.5079 79.4818 46.1537 79.0228 46.7939 78.3385C47.1968 77.9098 47.4121 77.5827 47.4369 77.3601C47.5694 76.6813 46.3027 75.6012 45.7397 75.1917C45.6845 75.1478 45.6569 75.1038 45.6928 75.0351C45.8115 74.7658 46.7415 72.6166 46.8933 72.3638C46.9291 72.3033 46.9761 72.2786 47.0313 72.3171C47.2962 72.5369 47.5556 72.7705 47.815 73.0206C48.0782 73.2775 48.3039 73.5698 48.4856 73.8891C48.9437 74.6861 48.7781 76.0519 48.4718 76.9259C48.2562 77.5313 47.9884 78.117 47.6715 78.6765C47.5446 78.8936 47.4066 79.0888 47.2548 79.2674C47.0737 79.4658 46.8528 79.6241 46.6063 79.7318C46.3303 79.861 45.7287 80.0699 44.8125 80.3557C44.7407 80.3722 44.6414 80.3887 44.5779 80.3557ZM73.6513 66.903C73.6182 66.859 73.6044 66.826 73.6044 66.8013C73.6044 66.7546 73.5906 66.7903 75.0753 64.512C75.1471 64.4213 75.2106 64.4048 75.3375 64.4845C75.7653 64.7401 76.0743 64.9352 76.3503 65.3475C76.4331 65.4712 76.4883 65.6058 76.5187 65.7542C76.6346 66.1582 76.469 66.5237 76.2372 66.8755C76.0432 67.1843 75.8135 67.4693 75.5528 67.7247C75.4589 67.8264 75.3154 67.9583 75.1802 67.9776C75.1057 68.0023 75.0422 67.9776 74.9815 67.9308C74.3688 67.4417 74.2585 67.2823 73.6513 66.903ZM75.2161 63.4017C75.1857 63.3577 75.1692 63.3248 75.1692 63.3C75.1692 63.2533 75.1554 63.289 76.6428 61.0107C76.7118 60.92 76.7753 60.9035 76.905 60.9832C77.33 61.2388 77.6418 61.434 77.9178 61.8462C77.9978 61.9671 78.0558 62.1045 78.0834 62.2529C78.1993 62.6569 78.0365 63.0225 77.8047 63.3742C77.6107 63.683 77.381 63.9681 77.1203 64.2234C77.0264 64.3251 76.8829 64.457 76.7449 64.4763C76.6732 64.4983 76.607 64.4763 76.549 64.4296C75.9336 63.9404 75.8232 63.781 75.2161 63.4017ZM79.0879 66.6996C78.8938 67.0075 78.6641 67.2916 78.4035 67.5461C78.3097 67.6478 78.1662 67.7797 78.0282 67.7989C77.9565 67.8237 77.893 67.7989 77.8323 67.7522C77.2169 67.263 77.1092 67.1036 76.5021 66.7244C76.469 66.6831 76.4552 66.6474 76.4552 66.6227C76.4552 66.5787 76.4414 66.6117 77.9261 64.3361C77.9978 64.2427 78.0613 64.2262 78.1883 64.3086C78.6022 64.556 78.9196 64.7511 79.2011 65.1716C79.2839 65.2925 79.3391 65.4272 79.3694 65.5783C79.4853 65.9796 79.3197 66.3478 79.0879 66.6969V66.6996ZM78.7292 70.5142C78.72 70.5084 78.7096 70.5046 78.6988 70.5032C78.6436 70.5032 78.5802 70.5582 78.5112 70.6708C78.1855 71.2205 78.1634 71.2947 77.9951 71.4953C77.9399 71.586 77.8295 71.6327 77.7246 71.6327C77.617 71.6327 77.5591 71.586 77.5094 71.586C77.3466 71.586 77.3052 71.7866 76.7946 72.2593C76.6208 72.4215 76.4524 72.5479 76.2896 72.6441C76.0937 72.7348 75.9032 72.7485 75.7183 72.6441C75.0063 72.2016 73.8914 72.754 73.1987 73.2157C72.3416 73.7873 71.6125 74.5293 71.0572 75.3951C70.7343 74.8537 69.7298 74.5981 68.7887 75.2577C68.0795 75.8018 67.4668 77.0111 66.7245 78.2808L66.0042 79.5037C61.8978 81.9387 57.4657 83.3101 51.6952 83.4915C50.7955 83.4915 49.882 83.4502 48.9575 83.3705C48.033 83.2881 47.1361 83.115 46.2668 82.8484C46.0348 82.7514 45.787 82.6974 45.5355 82.689C44.9063 82.689 44.4233 83.1507 44.1281 83.6976C43.6506 84.588 43.4243 85.4152 42.6351 86.6657C41.3049 88.7681 39.8064 89.6585 39.8064 90.0735C39.8064 90.2109 39.9609 90.2659 40.0989 90.2797C40.5018 90.3209 40.9461 90.2247 41.327 90.0928C42.4998 89.6393 43.601 86.4486 43.9708 85.8247C44.0259 85.7258 44.1005 85.6653 44.1943 85.6378C44.2329 85.6269 44.2716 85.6214 44.3074 85.6214C44.5806 85.6214 46.2779 86.4458 50.4588 86.4981C55.5477 86.3909 60.9291 84.61 64.7375 82.0734C65.6206 81.5622 66.7686 80.7597 68.0767 79.916C69.2303 79.3141 70.1824 79.064 71.3387 78.8442C71.5011 78.8278 71.6563 78.769 71.7885 78.6738C72.2798 78.3467 72.6164 77.995 72.9835 77.4453C73.2263 77.0825 73.5575 76.4065 73.5133 75.9695C73.4747 75.582 73.2677 75.3511 72.9504 75.2604C72.6946 75.1926 72.4251 75.1953 72.1709 75.2684C71.9166 75.3415 71.6871 75.4822 71.507 75.6754H71.4988C71.9789 74.8647 73.2732 74.0704 74.3578 73.9578C74.472 73.9449 74.5877 73.9558 74.6975 73.9899C74.8072 74.0239 74.9087 74.0804 74.9953 74.1556C75.2023 74.3453 75.55 74.2353 75.8011 74.1172C76.331 73.7544 76.7422 73.4219 76.9078 73.3614C77.8405 73.0866 78.4698 72.1851 78.8009 70.6544C78.8092 70.5857 78.7844 70.5389 78.7264 70.5142H78.7292ZM66.7714 79.0805C67.0832 78.5116 67.4172 77.9372 67.7566 77.3821C68.1623 76.6923 68.5569 76.2965 68.9378 76.1976C69.1008 76.1276 69.2802 76.1045 69.4558 76.1307C69.6313 76.1569 69.796 76.2315 69.9312 76.346C70.2707 76.6208 70.1244 77.0056 69.8567 77.3464C69.3655 77.8603 68.2285 78.2533 66.7714 79.0805ZM72.4729 76.4312C73.0056 76.6318 72.8041 76.9918 72.3625 77.3546C71.8768 77.7449 69.8512 78.6078 69.2579 78.8304C69.8567 78.1351 70.37 77.099 71.1345 76.6346C71.554 76.3487 72.001 76.2416 72.4729 76.4312Z" fill="black"></path></g><defs><clipPath id="clip0_9871_1161"><rect width="59.4108" height="82.4477" fill="white" transform="translate(20 9)"></rect></clipPath></defs></svg> 