<?xml version="1.0" encoding="UTF-8"?> <svg xmlns="http://www.w3.org/2000/svg" width="100" height="100" viewBox="0 0 100 100" fill="none"><path fill-rule="evenodd" clip-rule="evenodd" d="M40.4212 67.0392C41.0016 66.7956 41.582 66.5519 42.1624 66.3218C42.2164 69.3676 42.2029 72.4269 42.2164 75.4727C42.1894 76.9753 41.7305 78.6945 40.2727 79.5202C38.9229 80.17 37.5056 80.725 36.1018 81.3071C34.59 82.0922 32.5383 83.1887 30.9455 81.7403C30.0006 79.9263 30.5406 77.219 32.4708 76.1631C34.374 75.2426 36.3313 74.4033 38.3425 73.7129C38.383 74.3627 38.3695 75.0395 38.3155 75.7028C36.5742 76.664 34.752 77.422 32.9972 78.329C32.3898 78.5997 31.9309 79.1412 31.8094 79.7774C31.8364 81.4154 34.0096 80.549 34.7925 80.1835C36.3313 79.3578 37.9375 78.6674 39.4763 77.8552C40.1917 77.5574 40.3807 76.7993 40.4077 76.1631C40.4347 73.1173 40.3942 70.085 40.4212 67.0392Z" fill="black"></path><path fill-rule="evenodd" clip-rule="evenodd" d="M50.6753 67.0272C51.2423 66.743 51.8092 66.4858 52.4031 66.2827C52.4706 69.9512 52.4166 73.6197 52.4301 77.2882C51.8632 77.586 51.2828 77.8432 50.6888 78.0869C50.6349 74.4048 50.6753 70.7093 50.6753 67.0272Z" fill="black"></path><path fill-rule="evenodd" clip-rule="evenodd" d="M61.4644 67.0392C62.0313 66.782 62.6117 66.5384 63.2056 66.3218C63.2461 69.8955 63.1921 73.4557 63.2326 77.0295C62.6522 77.3408 62.0583 77.5845 61.4374 77.7875C61.4239 74.2002 61.3564 70.613 61.4644 67.0392Z" fill="black"></path><path fill-rule="evenodd" clip-rule="evenodd" d="M66.0236 73.6871C66.2126 72.6041 66.9954 71.7784 67.7243 71.0068C67.7918 71.7784 67.7648 72.55 67.7513 73.3216C67.2114 73.5382 66.6445 73.7142 66.0236 73.6871ZM68.8717 70.2893C69.5466 70.5465 70.208 70.8308 70.8289 71.1828C70.2215 71.7919 69.5871 72.3605 68.9392 72.9155C68.8717 72.0356 68.8717 71.1557 68.8717 70.2893ZM67.9808 66.3501C69.3981 67.1758 70.451 68.4754 71.6388 69.5854C72.4487 70.2623 72.3407 71.4806 72.0437 72.3875C71.3418 73.7412 69.6141 73.8495 68.6422 74.9054C68.9662 75.0408 69.3171 75.0543 69.6141 74.8648C70.6534 74.4045 71.6388 73.8089 72.6647 73.3216C72.7052 74.188 72.7321 75.0678 72.6512 75.9342C67.6029 78.249 62.6086 80.6857 57.5603 83.0005C57.5468 82.3507 57.5468 81.7145 57.5738 81.0647C60.9483 79.4403 64.3498 77.8429 67.7513 76.232C67.7378 75.853 67.7243 75.4604 67.7378 75.0678C66.8335 75.3521 65.8211 75.4469 65.0112 75.0543C64.3633 74.5534 64.4038 73.6465 64.5658 72.929C65.0382 71.1286 66.28 69.6396 67.6164 68.3942C67.6839 67.7038 67.7918 67.0134 67.9808 66.3501Z" fill="black"></path><path fill-rule="evenodd" clip-rule="evenodd" d="M44.928 71.3176C46.2913 70.8438 47.6682 71.7237 48.613 72.6442C49.8144 73.7542 50.3408 75.5546 49.7739 77.0978C49.4634 77.8694 48.613 78.1537 47.9246 78.4921C46.0619 79.3043 44.2396 80.2384 42.3499 81.0235C42.3094 80.3602 42.3094 79.7104 42.3229 79.0471C44.1721 78.1266 46.0619 77.2738 47.9516 76.4074C48.3296 76.245 48.667 76.0013 48.991 75.7576C48.883 75.5411 48.775 75.3245 48.6535 75.1079C47.2902 75.4598 46.1159 76.2991 44.7526 76.6105C44.1451 76.7729 43.5512 76.4074 43.3757 75.8118C42.8628 74.228 43.2948 72.0756 44.928 71.3176ZM44.3746 74.7153C44.5366 74.0926 44.847 73.4293 45.5219 73.2263C46.0754 72.9284 46.6423 73.2804 47.1552 73.4699C46.2508 73.9302 45.3465 74.3904 44.3746 74.7153Z" fill="black"></path><path fill-rule="evenodd" clip-rule="evenodd" d="M53.5293 79.2385C54.2851 77.6412 55.7834 76.5988 56.9848 75.3534C57.6192 75.9491 58.2536 76.5312 58.8475 77.1674C57.4977 78.0067 56.0804 78.7918 54.5281 79.2521C54.2042 79.3874 53.8532 79.3198 53.5293 79.2385ZM55.9724 72.2129C57.3897 73.0522 58.4966 74.3246 59.6844 75.4347C60.3998 76.0032 60.2513 76.9779 60.1703 77.763C59.9814 78.6158 59.131 79.049 58.4291 79.4145C57.1872 80.0372 55.9589 80.6734 54.6361 81.066C53.5832 81.3503 52.3279 80.511 52.4629 79.401C52.5979 77.2621 54.1907 75.6242 55.635 74.1622C55.7294 73.5124 55.7834 72.8491 55.9724 72.2129Z" fill="black"></path><path fill-rule="evenodd" clip-rule="evenodd" d="M48.9297 47.6495C46.2031 48.6648 43.7735 50.0591 40.7499 50.6683C34.1763 52.4416 32.3675 49.8425 38.5092 42.7086C47.4719 33.4629 58.5269 26.9516 68.2186 22.7417C73.9553 20.7111 77.2623 21.4015 75.3321 25.8145C73.0509 30.4036 68.7585 33.6389 65.5189 37.0772C65.6134 37.1314 65.7079 37.172 65.8024 37.2261C69.4604 33.8555 74.1577 30.2953 77.2893 25.5438C81.2578 19.7771 80.0159 15.7025 68.988 19.4387C62.4414 21.591 56.1377 25.1648 49.4292 29.835C44.5563 33.2057 39.751 37.0095 35.3101 42.2348C26.8873 52.1032 31.0582 55.0271 38.1852 52.9019C42.3157 51.5888 46.2166 50.0862 48.9297 47.6495Z" fill="black"></path><path fill-rule="evenodd" clip-rule="evenodd" d="M32.5413 45.8882L32.3253 46.2131C31.259 47.0389 30.3411 47.7157 29.0723 48.7445C24.9149 52.0475 26.1027 54.9444 35.5379 54.9444C46.9708 54.1593 58.2822 50.2877 67.3935 45.7935C73.2786 42.4093 74.9254 39.9726 72.4823 38.3482C70.363 37.157 67.9874 37.3329 65.8007 37.2246C65.9762 37.0622 66.1516 36.8998 66.3271 36.7373C68.6488 36.6832 77.733 36.6426 78.1515 39.6884C78.3944 41.4346 76.5857 44.2638 69.3102 47.9052C63.9784 50.5449 58.3227 52.765 52.6535 54.4029C45.5805 56.4335 38.494 57.557 32.0419 57.5977C18.7597 57.2322 21.7023 52.5484 26.6696 48.9611C28.9103 47.4315 30.8405 46.4568 32.5413 45.8882Z" fill="black"></path></svg> 