<?xml version="1.0" encoding="UTF-8"?> <svg xmlns="http://www.w3.org/2000/svg" width="100" height="100" viewBox="0 0 100 100" fill="none"><g clip-path="url(#clip0_9871_1005)"><path d="M50.7622 16C51.8723 16.2496 53.0139 16.2851 54.1293 16.5189C63.1071 18.4001 70.05 25.791 71.3388 34.8674C73.0229 46.7315 65.0238 57.6549 53.165 59.6859C41.5387 61.6775 30.1463 53.7046 28.0483 42.1086C25.9306 30.3956 33.1192 19.3565 44.6496 16.6201C45.6086 16.3928 46.582 16.2443 47.562 16.1511C47.8445 16.1248 48.1322 16.1235 48.3976 16H50.7622Z" fill="black"></path><path d="M82.6852 75.773C82.4803 75.9044 82.4868 76.1501 82.3857 76.3366C81.9679 77.1065 81.3636 77.6359 80.5031 77.8513C79.1973 78.1797 77.8967 78.1009 76.6093 77.7672C76.2599 77.6766 75.9406 77.6424 75.5872 77.7265C74.5599 77.9722 73.5103 78.0221 72.458 78.0247C71.8235 78.0274 71.2402 77.9012 70.7568 77.3705C69.5836 78.4385 68.4079 77.9669 67.236 77.385C66.926 77.2313 66.6265 77.0565 66.3007 76.8792C65.2786 77.9735 64.0687 78.3124 62.6683 77.829C62.6197 77.8645 62.5619 77.8842 62.5553 77.9157C62.0745 80.082 60.6097 81.4719 58.852 82.6411C58.4763 82.8907 58.0243 83.0286 57.7248 83.3925H57.5934C57.3438 82.8841 57.0942 82.3744 56.8459 81.8673C56.9747 81.6151 57.2269 81.5612 57.4279 81.4456C58.4355 80.8597 59.3853 80.2029 60.1328 79.2898C60.8488 78.4149 61.1076 77.4467 60.745 76.3498C60.5125 75.6469 60.2721 74.9467 60.0238 74.2137C60.5178 73.9115 61.0367 73.7184 61.6199 73.5332C61.8104 73.9956 61.976 74.4423 62.1783 74.8718C62.4883 75.5326 62.8194 76.2131 63.672 76.2749C64.5679 76.3406 65.142 75.8033 65.5808 75.1044C65.8474 74.68 66.0603 74.2216 66.2994 73.7801C66.4452 73.5108 66.5897 73.2415 66.7486 72.9801C67.8876 71.1054 70.2536 71.7137 70.9985 73.2823C71.2284 73.7657 71.3085 74.2794 71.3558 74.8048C71.4662 76.024 71.8734 76.3708 73.103 76.2683C73.3802 76.2447 73.6706 76.2722 73.9714 76.133C73.0597 74.4344 73.1464 72.8684 74.5954 71.4969C74.6506 71.2867 74.3944 71.2946 74.3327 71.0805C74.6256 70.6351 74.9449 70.1504 75.272 69.6538C75.7567 69.7642 76.1561 69.9927 76.5699 70.1767C77.6682 70.664 78.7598 71.1698 79.8581 71.6598C81.1547 72.2379 82.2661 72.9972 82.6878 74.458V75.7717L82.6852 75.773Z" fill="black"></path><path d="M17 73.8021C17.1931 73.32 17.3744 72.8326 17.5846 72.3584C17.6792 72.1429 17.7698 71.9117 17.9971 71.7435C18.428 72.026 18.8129 72.3689 19.1978 72.7433C19.0126 73.1505 18.7774 73.5197 18.6526 73.9401C18.3991 74.7966 18.5567 75.1881 19.3607 75.5861C19.9966 75.9001 20.6836 76.0354 21.3799 76.1221C23.5488 76.3927 25.7007 76.3126 27.8249 75.774C28.1823 75.6833 28.5435 75.5822 28.9311 75.3076C28.7406 74.2514 28.1468 73.3358 27.6266 72.3715C28.0483 71.9708 28.5304 71.7238 29.0191 71.4243C29.4119 71.871 29.5774 72.4162 29.7929 72.9298C30.0464 73.5341 30.2789 74.1489 30.3866 74.8005C30.5469 75.7766 30.3223 76.2693 29.4592 76.7566C28.4949 77.3005 27.4348 77.5698 26.3575 77.7721C24.3778 78.1439 22.3993 78.1216 20.4275 77.7156C19.5604 77.537 18.7643 77.198 18.0733 76.6226C17.5071 76.1523 17.2969 75.4797 17.0013 74.8531C17.0013 74.5023 17.0013 74.1529 17.0013 73.8021H17Z" fill="black"></path><path d="M45.6703 66.2327C45.8687 66.7004 46.071 67.1799 46.3101 67.7422C44.7639 68.3925 43.2452 69.0309 41.7253 69.6681C41.8015 69.9886 42.0353 70.0963 42.2021 70.2553C43.0823 71.0895 43.8587 71.9999 44.3593 73.1205C44.7192 73.9245 44.8506 74.76 44.6483 75.6178C44.329 76.9696 43.3135 77.8669 41.9223 77.993C40.7439 78.1007 39.5563 78.0876 38.3806 77.9707C36.9578 77.8288 36.1105 76.8645 36.0895 75.4037C36.0658 73.7839 36.075 72.1641 36.0869 70.5443C36.0947 69.4947 35.9594 68.4542 35.8911 67.3901C36.4376 67.1747 36.967 66.9999 37.5569 66.9001C37.7789 68.0522 37.8157 69.1886 37.842 70.321C37.8774 71.9184 37.8564 73.5172 37.8617 75.1147C37.8643 75.9962 38.0285 76.2024 38.9087 76.2668C39.7823 76.3312 40.6585 76.3233 41.5295 76.1893C42.8235 75.9909 43.3543 75.0687 42.8643 73.8483C42.6751 73.378 42.3756 72.9694 42.0642 72.574C41.5072 71.8672 40.8845 71.2222 40.2119 70.6258C39.5918 70.0753 39.777 68.7169 40.5206 68.3846C42.0576 67.6949 43.5973 67.0131 45.137 66.3313C45.2736 66.2708 45.4036 66.1736 45.6716 66.2327H45.6703Z" fill="black"></path><path d="M51.0446 70.0786C52.311 71.1296 53.3935 72.2291 54.1462 73.6177C54.3774 74.0434 54.5311 74.4966 54.6113 74.9761C54.8123 76.1742 54.1712 77.3289 53.0296 77.7651C52.1165 78.1132 51.1838 78.1251 50.2655 77.8006C48.781 77.2764 48.161 75.9732 48.6326 74.4243C48.8677 73.6545 49.3105 73.0082 49.832 72.4104C49.9883 72.2318 50.1486 72.0544 50.2852 71.902C50.2931 71.6551 50.0501 71.6091 50.0028 71.3621C50.3128 70.9798 50.6518 70.5621 51.0432 70.0786H51.0446Z" fill="black"></path><path d="M55.5322 67.3228C56.1273 67.131 56.6594 66.8945 57.29 66.7881C57.8207 70.4323 57.7051 74.0542 57.5501 77.6997C56.9747 77.8692 56.4203 77.9336 55.7529 77.9822C55.8948 76.1732 55.9513 74.4076 55.8909 72.6433C55.8318 70.8947 55.7188 69.1488 55.5322 67.3241V67.3228Z" fill="black"></path><path d="M29.8178 83.1511C29.5682 82.6624 29.3317 82.1986 29.1018 81.7467C29.2227 81.4682 29.4802 81.4209 29.6785 81.3053C30.627 80.747 31.5111 80.1098 32.214 79.2507C32.9181 78.3902 33.2084 77.4364 32.9483 76.3172C32.7657 75.5329 32.4793 74.7801 32.2678 73.9748C32.8012 73.7134 33.3398 73.565 33.9336 73.4165C34.3382 74.3348 34.5287 75.2885 34.7166 76.2449C35.0279 77.8292 34.5182 79.1745 33.5342 80.3831C32.6238 81.501 31.0645 82.6689 29.8178 83.1511Z" fill="black"></path><path d="M23.6447 70.7985C23.2428 71.1808 22.8815 71.5237 22.4782 71.9073C22.0867 71.6038 21.7267 71.2123 21.376 70.8169C21.7543 70.4438 22.1077 70.0944 22.4966 69.7095C22.9196 69.9762 23.2375 70.4097 23.6447 70.7985Z" fill="black"></path><path d="M24.0717 70.8087C24.4842 70.4251 24.8467 70.0888 25.2409 69.7236C25.5561 70.0678 25.903 70.4475 26.255 70.8324C25.9095 71.1556 25.5338 71.5076 25.1344 71.882C24.785 71.6062 24.429 71.2344 24.0717 70.8087Z" fill="black"></path><path d="M49.8571 23.914C49.8571 23.3058 49.8558 22.7199 49.8571 22.1326C49.8571 21.9579 49.8506 21.7793 49.8847 21.6098C49.9636 21.2236 50.2013 20.974 50.6086 20.9832C51.0447 20.9924 51.3035 21.2512 51.3232 21.6834C51.3469 22.2259 51.3285 22.7711 51.3285 23.4293C52.3926 23.1035 53.3936 22.9458 54.2922 23.6723C55.2 24.408 55.2171 25.4445 55.1947 26.4442C55.4338 26.5874 55.5915 26.4784 55.7504 26.4311C56.3166 26.2616 56.8723 26.0501 57.4477 25.924C58.9335 25.6008 60.2288 26.5979 60.3313 28.1113C60.3444 28.3071 60.3392 28.5054 60.3392 28.7025C60.3392 34.4355 60.3392 40.1685 60.3392 45.9015C60.3392 47.8458 59.4459 49.078 57.6041 49.6666C54.2699 50.732 50.9357 51.7921 47.6002 52.851C45.5009 53.517 44.1255 52.541 44.0808 50.3576C44.0768 50.1855 44.1058 50.0068 43.9967 49.8045C43.445 49.8387 42.9326 50.083 42.4006 50.2393C41.9999 50.3576 41.6045 50.4692 41.1814 50.4587C40.0674 50.4325 39.1741 49.7191 38.9048 48.634C38.8194 48.2898 38.8115 47.9417 38.8115 47.5922C38.8115 41.8592 38.8115 36.1262 38.8115 30.3932C38.8115 28.4108 39.7337 27.1497 41.6347 26.5428C44.153 25.7375 46.6754 24.94 49.195 24.1387C49.4 24.073 49.6023 24.002 49.8558 23.9153L49.8571 23.914Z" fill="white"></path><path d="M76.3098 72.3457C77.1046 72.3628 77.8626 73.2929 77.7273 74.0233C77.5762 74.8352 77.0219 75.2897 76.3177 75.6142C76.1627 75.6851 76.03 75.651 75.8842 75.5814C75.3587 75.3331 74.9409 74.6237 74.9804 74.0259C75.025 73.3415 75.5676 72.5467 76.1062 72.3838C76.189 72.3588 76.2757 72.351 76.3098 72.3457Z" fill="white"></path><path d="M67.2623 75.4118C67.4765 74.8469 67.7405 74.3517 68.0361 73.8695C68.2936 73.4518 68.647 73.4242 69.0555 73.6107C69.8096 73.9536 70.2747 75.0545 69.9975 75.8388C69.8372 76.292 69.5442 76.4707 69.0858 76.3288C68.4407 76.1278 67.8548 75.7994 67.2623 75.4105V75.4118Z" fill="white"></path><path d="M78.5996 76.2746C79.2276 75.3498 79.5153 74.4079 79.397 73.2124C80.2076 73.6052 80.8355 73.9862 81.1245 74.7402C81.2927 75.179 81.1062 75.5587 80.7357 75.8267C80.1274 76.2681 79.4469 76.3824 78.5996 76.2746Z" fill="white"></path><path d="M51.4298 72.8149C52.1142 73.477 52.666 74.1431 53.0009 74.9602C53.2361 75.5369 53.043 75.9468 52.4492 76.1307C51.8764 76.3081 51.2879 76.3186 50.7151 76.1084C50.1187 75.889 49.9334 75.5396 50.1226 74.9326C50.367 74.1523 50.8097 73.4849 51.4298 72.8149Z" fill="white"></path><path d="M52.8693 49.6795C52.1928 50.0027 51.5083 50.1551 50.8475 50.3718C49.6008 50.7817 48.3502 51.1798 47.0969 51.5673C45.9855 51.9115 45.4692 51.5292 45.4679 50.36C45.464 44.5403 45.464 38.7219 45.4679 32.9022C45.4679 31.7856 45.9671 31.0079 46.959 30.6794C48.8271 30.0594 50.707 29.4761 52.5829 28.881C52.6841 28.8494 52.7931 28.8468 53.0007 28.814C52.9915 35.7976 52.9626 42.7379 52.8693 49.6782V49.6795Z" fill="black"></path><path d="M40.2946 37.3835C40.2946 34.8442 40.2788 32.4177 40.3025 29.9913C40.3117 29.0244 40.9462 28.3137 41.9906 27.98C44.4669 27.1892 46.9445 26.4023 49.4209 25.6154C50.3155 25.3303 51.2088 25.04 52.1074 24.7654C53.2385 24.4186 53.7101 24.772 53.7167 25.9688C53.718 26.3156 53.7679 26.6663 53.6694 27.0079C53.4684 27.2115 53.1978 27.2404 52.9534 27.3193C50.9132 27.9735 48.8718 28.6211 46.8303 29.2727C44.9845 29.8613 44.0859 31.087 44.0833 33.026C44.0807 34.8625 44.0846 36.7004 44.0807 38.537C44.0807 38.7734 44.128 39.0178 43.9756 39.3528C42.7473 38.6959 41.5268 38.043 40.2959 37.3835H40.2946Z" fill="black"></path><path d="M56.4426 27.7063C56.8735 27.4882 57.3083 27.3371 57.7629 27.2715C58.4788 27.169 58.8953 27.5184 58.9478 28.2397C58.9649 28.4787 58.9557 28.7205 58.9557 28.9622C58.9557 34.5231 58.9163 40.084 58.9794 45.6436C59.0004 47.4762 58.0821 48.3104 56.3953 48.5351C56.2285 48.0004 56.2653 29.2473 56.4439 27.7063H56.4426Z" fill="black"></path><path d="M43.9953 48.1771C43.211 48.424 42.3913 48.7222 41.5505 48.9338C40.8253 49.1177 40.309 48.7301 40.3051 47.9931C40.2906 45.0439 40.3117 42.0946 40.3209 39.1453C40.3209 39.1283 40.3419 39.1112 40.4036 39.0166C40.8661 39.2636 41.339 39.5145 41.8093 39.7707C42.4425 40.1149 43.0704 40.4682 43.7063 40.8098C43.9336 40.932 44.0859 41.0725 44.0846 41.3602C44.0728 43.5673 44.0702 45.7743 44.0636 47.9813C44.0636 48.022 44.0373 48.0628 43.9966 48.1757L43.9953 48.1771Z" fill="black"></path></g><defs><clipPath id="clip0_9871_1005"><rect width="65.6852" height="67.393" fill="white" transform="translate(17 16)"></rect></clipPath></defs></svg> 