<?xml version="1.0" encoding="UTF-8"?> <svg xmlns="http://www.w3.org/2000/svg" width="100" height="100" viewBox="0 0 100 100" fill="none"><ellipse opacity="0.08" cx="49.6921" cy="74.106" rx="17.7548" ry="3.89359" fill="black"></ellipse><rect x="49.6921" y="22" width="38.1775" height="38.1775" rx="2.4919" transform="rotate(45 49.6921 22)" fill="black"></rect><rect x="11.4153" y="37.7146" width="76.4182" height="23.2577" rx="2.07658" fill="black" stroke="white" stroke-width="0.830632"></rect><path fill-rule="evenodd" clip-rule="evenodd" d="M81.9639 48.3485H80.9171V41.4458H81.9639V48.3485ZM57.003 48.3485C56.9473 48.3485 56.8926 48.3478 56.8389 48.3465C56.724 48.3478 56.6013 48.3485 56.4706 48.3485V48.3257C55.8392 48.2679 55.3766 48.1001 55.0829 47.8221C54.8357 47.5948 54.712 47.222 54.712 46.7036V41.6133H55.7887V46.231C55.7887 46.7295 55.8725 47.0345 56.0399 47.1462C56.1436 47.214 56.4646 47.2559 57.003 47.2718H57.3738C57.7686 47.2718 58.0438 47.222 58.1993 47.1223C58.4026 46.9907 58.5043 46.7295 58.5043 46.3387V44.9689H59.5571V46.566C59.5571 46.8172 59.6488 47.0246 59.8322 47.1881C60.0157 47.3476 60.233 47.4273 60.4842 47.4273C60.9747 47.4273 61.2199 47.204 61.2199 46.7574V44.9689H62.2787V46.554C62.2787 46.8053 62.3724 47.0146 62.5598 47.1821C62.7353 47.3456 62.9506 47.4273 63.2058 47.4273C63.7043 47.4273 63.9535 47.204 63.9535 46.7574V44.9689H65.0182V46.6198C65.0182 46.8711 65.1478 47.0565 65.407 47.1761C65.4828 47.212 65.7719 47.2439 66.2743 47.2718H67.8654C68.1645 47.2718 68.3719 47.212 68.4875 47.0924C68.6032 46.9688 68.661 46.7534 68.661 46.4464V44.9689H69.7377V46.5959C69.7377 47.0625 69.6001 47.4652 69.3249 47.8042C69.0298 48.1671 68.655 48.3485 68.2004 48.3485H66.2743H65.8975V48.3342C65.6828 48.3209 65.5293 48.2998 65.4369 48.2707C65.1578 48.195 64.9464 48.0295 64.8029 47.7743C64.4719 48.2368 64.0572 48.4681 63.5587 48.4681C63.0563 48.4681 62.5638 48.2309 62.0813 47.7563C61.6626 48.2309 61.1402 48.4681 60.5141 48.4681C59.9319 48.4681 59.4514 48.2169 59.0726 47.7145C58.8373 48.0215 58.4365 48.2149 57.8703 48.2947C57.6909 48.3203 57.4018 48.3368 57.003 48.3441V48.3485ZM75.444 48.3134C75.1052 48.2478 74.852 48.09 74.6844 47.8401C74.6844 48.7413 74.4611 49.489 74.0145 50.0831C73.524 50.7411 72.8401 51.0701 71.9628 51.0701H70.5691L70.3956 49.9934H71.879C72.3416 49.9934 72.7384 49.8479 73.0694 49.5568C73.4163 49.2537 73.5898 48.8729 73.5898 48.4143V44.9689H74.6664V46.5181C74.6664 47.0046 75.0572 47.2559 75.8388 47.2718H77.412C77.711 47.2718 77.9184 47.212 78.034 47.0924C78.1497 46.9688 78.2075 46.7534 78.2075 46.4464V44.9689H79.2842V46.5959C79.2842 47.0625 79.1466 47.4652 78.8715 47.8042C78.5764 48.1671 78.2015 48.3485 77.7469 48.3485H75.8388H75.444V48.3134ZM76.8749 49.3366L77.7411 50.2028L76.8749 51.069L76.0087 50.2028L76.8749 49.3366ZM79.4737 50.2028L78.6074 49.3366L77.7412 50.2028L78.6074 51.069L79.4737 50.2028ZM66.9643 49.3366L67.8305 50.2028L66.9643 51.069L66.0981 50.2028L66.9643 49.3366ZM69.563 50.2028L68.6968 49.3366L67.8306 50.2028L68.6968 51.069L69.563 50.2028Z" fill="white"></path><path d="M18.1048 56.9765H16.8688V50.3581H18.1048V56.9765Z" fill="white"></path><path d="M21.608 53.5078C22.0731 53.5078 22.4153 53.3982 22.6346 53.1789C22.8606 52.9596 22.9735 52.6772 22.9735 52.3316C22.9735 51.6273 22.525 51.2751 21.6279 51.2751H20.8106V53.5078H21.608ZM24.7677 56.9765H23.6613C23.4487 56.9765 23.2991 56.8968 23.2128 56.7373L21.7974 54.5843C21.7442 54.5112 21.6877 54.4581 21.6279 54.4248C21.5681 54.385 21.4751 54.365 21.3488 54.365H20.8106V56.9765H19.5846V50.3581H21.6279C22.0731 50.3581 22.4552 50.4046 22.7742 50.4976C23.0998 50.584 23.3656 50.7102 23.5716 50.8764C23.7776 51.0425 23.9271 51.2419 24.0201 51.4744C24.1198 51.707 24.1696 51.9628 24.1696 52.2419C24.1696 52.7004 24.0367 53.0958 23.7709 53.4281C23.5118 53.7537 23.143 53.9829 22.6645 54.1158C22.7509 54.1624 22.8307 54.2188 22.9038 54.2853C22.9835 54.3451 23.05 54.4215 23.1031 54.5145L24.7677 56.9765Z" fill="white"></path><path d="M26.7485 56.9765H25.5125V50.3581H26.7485V56.9765Z" fill="white"></path><path d="M31.7768 51.5542C31.697 51.6671 31.6073 51.7236 31.5077 51.7236C31.4412 51.7236 31.3681 51.7004 31.2884 51.6538C31.2153 51.6073 31.1256 51.5542 31.0192 51.4944C30.9129 51.4346 30.79 51.3814 30.6504 51.3349C30.5109 51.2884 30.3448 51.2651 30.1521 51.2651C29.8065 51.2651 29.5474 51.3449 29.3746 51.5043C29.2085 51.6638 29.1254 51.8698 29.1254 52.1223C29.1254 52.335 29.2018 52.5011 29.3547 52.6207C29.5075 52.7403 29.6969 52.8433 29.9228 52.9297C30.1487 53.0161 30.3946 53.0991 30.6604 53.1789C30.9329 53.252 31.182 53.3583 31.408 53.4979C31.6339 53.6308 31.8233 53.8102 31.9761 54.0361C32.129 54.2554 32.2054 54.5478 32.2054 54.9132C32.2054 55.2123 32.1522 55.4947 32.0459 55.7605C31.9462 56.0197 31.7967 56.2456 31.5974 56.4383C31.398 56.6244 31.1555 56.7739 30.8697 56.8868C30.584 56.9932 30.2584 57.0463 29.8929 57.0463C29.4676 57.0463 29.059 56.9666 28.6669 56.8071C28.2748 56.6476 27.9525 56.4383 27.7 56.1791L28.0688 55.611C28.1021 55.5711 28.1419 55.5379 28.1884 55.5113C28.235 55.4781 28.2848 55.4615 28.338 55.4615C28.4111 55.4615 28.4908 55.4947 28.5772 55.5611C28.6702 55.6209 28.7765 55.6907 28.8961 55.7705C29.0158 55.8436 29.1586 55.9133 29.3248 55.9798C29.4975 56.0396 29.7002 56.0695 29.9328 56.0695C30.2783 56.0695 30.5474 55.9864 30.7402 55.8203C30.9395 55.6475 31.0392 55.405 31.0392 55.0927C31.0392 54.8534 30.9628 54.6707 30.8099 54.5444C30.6637 54.4182 30.4743 54.3152 30.2418 54.2355C30.0158 54.1491 29.77 54.0693 29.5042 53.9962C29.245 53.9231 28.9991 53.8201 28.7666 53.6872C28.5406 53.5477 28.3513 53.3616 28.1984 53.1291C28.0522 52.8965 27.9791 52.5775 27.9791 52.1722C27.9791 51.9329 28.0256 51.7004 28.1187 51.4744C28.2184 51.2419 28.3612 51.0392 28.5473 50.8664C28.7333 50.687 28.9593 50.5441 29.2251 50.4378C29.4975 50.3315 29.8065 50.2783 30.1521 50.2783C30.5441 50.2783 30.903 50.3381 31.2286 50.4577C31.5608 50.5773 31.8466 50.7501 32.0858 50.9761L31.7768 51.5542Z" fill="white"></path><path d="M36.7993 54.4846L36.1015 52.5509C36.0351 52.3981 35.9653 52.2286 35.8922 52.0426C35.8258 51.8499 35.766 51.6572 35.7128 51.4645C35.6596 51.6638 35.5998 51.8565 35.5334 52.0426C35.4669 52.2286 35.4005 52.3981 35.334 52.5509L34.6363 54.4846H36.7993ZM38.9622 56.9765H38.0054C37.8924 56.9765 37.7927 56.9234 37.7063 56.8171C37.6199 56.7107 37.5601 56.6044 37.5269 56.4981L37.0983 55.3219H34.3472L33.9286 56.4981C33.8821 56.5978 33.8156 56.7041 33.7293 56.8171C33.6429 56.9234 33.5432 56.9765 33.4302 56.9765H32.4733L35.0948 50.3581H36.3408L38.9622 56.9765Z" fill="white"></path></svg> 