<?xml version="1.0" encoding="UTF-8"?> <svg xmlns="http://www.w3.org/2000/svg" width="100" height="100" viewBox="0 0 100 100" fill="none"><path d="M86.1027 36C86.5575 36.4654 87.0255 36.9166 87.5777 37.2649C88.0295 37.5562 88.5023 37.9412 89.0262 38.0939H88.7503C88.0152 38.2312 87.464 38.6225 86.8854 39.0095C86.5331 39.1817 86.2428 39.4587 85.8895 39.6237C86.1291 39.2611 86.4123 38.8547 86.4214 38.4148C85.7068 38.3435 84.9839 38.4097 84.2652 38.3862L83.2541 38.4911C81.6846 38.6887 80.1111 39.1083 78.702 39.8599C76.8321 40.8295 75.2413 42.4295 74.488 44.4236C74.2068 45.0775 74.0769 45.7802 73.9703 46.4738C73.9551 47.1225 73.9632 47.7703 73.9713 48.419C74.1327 49.2878 74.3084 50.1738 74.6911 50.9794C75.2261 52.3126 76.1062 53.4716 77.0636 54.5226C79.3294 56.7469 82.2633 58.2278 85.3403 58.9549C85.0581 60.4093 84.6662 61.8759 84.4297 63.3475C84.317 63.3547 84.2063 63.3506 84.0957 63.3363C80.7111 62.3006 77.4148 60.7393 74.7753 58.3459C74.3216 57.854 73.7866 57.4303 73.3896 56.8895C72.1927 55.5156 71.2649 53.8851 70.741 52.1303C70.5908 51.5111 70.3918 50.8929 70.3959 50.2512C70.205 49.6228 70.3471 48.9527 70.3015 48.307C70.4294 46.9474 70.7593 45.5765 71.407 44.3574C72.5369 42.073 74.5124 40.2969 76.7742 39.1776C78.4137 38.3689 80.2004 37.8556 82.0014 37.6112C82.0014 37.6112 82.5957 37.5141 82.979 37.4706C84.3176 37.3187 85.2804 37.4849 86.4285 37.4401C86.5382 36.9339 86.259 36.4634 86.1027 36Z" fill="black"></path><path d="M98.3182 38.0633C98.6014 38.0531 98.8857 38.0623 99.171 38.0552C97.8989 44.8279 96.6584 51.6067 95.3986 58.3805C95.1021 60.0945 94.4528 63.5573 94.4528 63.5573H93.6301C93.6301 63.5573 96.7559 46.5664 98.3182 38.0633Z" fill="black"></path><path d="M90.1115 38.1696C90.2354 38.0606 90.409 38.0922 90.5602 38.083C92.6606 38.0861 94.76 38.0871 96.8604 38.083C97.0208 38.0912 97.1893 38.0626 97.3436 38.1217C96.6574 41.5763 96.0584 45.0503 95.4026 48.512C94.6291 52.7223 93.8494 56.9326 93.0697 61.1408C92.95 61.9474 92.7185 62.7439 92.6637 63.5566C90.4729 63.5495 88.2822 63.5576 86.0924 63.5515C85.9331 63.5505 85.8276 63.5321 85.6703 63.5515C85.784 62.7742 85.9026 62.3833 86.0478 61.7865C86.8112 58.3085 87.5736 54.8284 88.337 51.3494C88.7217 49.4877 89.1806 47.6402 89.5329 45.7734C89.3623 45.8609 89.276 46.0432 89.143 46.1736C88.0385 47.3051 86.9107 48.4152 85.8031 49.5447C84.6854 50.8279 83.4327 51.988 82.247 53.2081C81.5211 53.9067 80.8917 54.693 80.1709 55.3978C80.1395 55.3947 80.0775 55.3896 80.0471 55.3876C78.6715 54.4628 77.4178 53.3374 76.4483 51.988C76.366 51.9034 76.3386 51.7456 76.4422 51.6672C77.6482 50.4654 78.8461 49.2555 80.0562 48.0588C80.4156 47.7054 80.7597 47.3357 81.1556 47.023C82.8845 45.3273 84.5758 43.5949 86.3016 41.8961C87.6335 40.7208 88.8334 39.4029 90.1115 38.1696Z" fill="black"></path><path d="M71.3136 56.8134C71.5014 56.7187 71.546 57.0048 71.6445 57.1047C71.9227 57.4071 72.1308 57.7656 72.4475 58.0345C72.8038 58.4867 73.1845 58.9267 73.6617 59.2566C73.9885 59.6172 74.3845 59.8942 74.753 60.2069C74.8657 60.3026 75.0667 60.3525 75.0931 60.5165C74.756 60.8159 74.4444 61.1438 74.1652 61.4972C73.4941 62.1837 72.9407 62.9007 72.2616 63.5779C69.7439 63.6095 64.588 63.5779 64.588 63.5779C66.8133 61.3109 69.072 59.0672 71.3136 56.8134Z" fill="black"></path><path d="M62.4577 44.9449C63.0034 44.816 63.4944 44.5102 64.0306 44.3662C64.0264 44.5143 64.0182 44.6624 64.0045 44.8119C63.4711 44.9764 62.9842 45.2918 62.4344 45.3906C62.4316 45.2397 62.4398 45.0916 62.4577 44.9449Z" fill="black"></path><path d="M9.12063 45.3512C9.40449 45.3745 9.68835 45.3731 9.97084 45.3457C9.98455 45.5857 9.98592 45.827 9.98181 46.0698C9.69246 46.0656 9.40312 46.0656 9.11377 46.0615C9.122 45.8243 9.12337 45.5871 9.12063 45.3512Z" fill="black"></path><path d="M17.7448 46.2929C18.0356 46.308 18.3263 46.3066 18.6184 46.2915C18.6088 47.8754 18.6184 49.4579 18.6129 51.0417C18.5909 51.6177 18.0452 51.9769 17.5337 52.0935C16.9467 52.1388 16.3502 52.0359 15.7702 52.1388C15.7866 52.6722 15.4904 53.1933 14.9885 53.3976C14.0231 53.7459 12.985 53.5402 11.9826 53.6115C11.9771 53.3633 11.9771 53.1165 11.9799 52.8697C12.7409 52.8752 13.5034 52.893 14.2645 52.871C14.5895 52.7846 14.9981 52.5255 14.85 52.1305C13.9655 51.9495 12.9316 52.3911 12.165 51.7822C11.5479 51.1377 11.7413 50.2025 11.7111 49.3975C11.6535 48.7146 12.1211 47.9892 12.7931 47.8109C13.6748 47.8013 14.5607 47.7903 15.4438 47.8164C16.0252 48.1962 15.8236 48.9601 15.8538 49.5415C15.8881 50.1819 15.7825 50.8415 15.9059 51.4723C16.4078 51.5793 16.9125 51.4394 17.3979 51.3228C17.6447 51.1404 17.7668 50.8058 17.7503 50.5069C17.7448 49.1013 17.7517 47.6971 17.7448 46.2929ZM12.6998 49.0903C12.4927 49.7623 12.4818 50.5933 12.9 51.1871C13.4499 51.5601 14.1945 51.5422 14.8363 51.4682C14.9625 50.5727 14.8747 49.6375 14.8816 48.7269C14.802 48.3005 14.3111 48.4019 13.9957 48.3896C13.4897 48.3457 12.8315 48.5295 12.6998 49.0903Z" fill="black"></path><path d="M25.5654 46.2988C25.8959 46.3071 26.2277 46.3071 26.5582 46.3043C26.5418 46.5429 26.5431 46.7815 26.5623 47.0215C26.2291 47.0311 25.8945 47.0311 25.5613 47.027C25.5695 46.7843 25.5695 46.5415 25.5654 46.2988Z" fill="black"></path><path d="M29.3488 46.9587C30.258 46.7256 31.1946 46.583 32.0859 46.2964C32.0544 46.5323 32.0476 46.7709 32.0407 47.0095C31.1493 47.2577 30.2457 47.4675 29.357 47.7239C29.0019 47.8281 28.7784 48.2107 28.8839 48.57C28.9457 48.858 29.2707 48.9375 29.5106 49.0212C30.6241 49.0719 31.7445 48.9965 32.8594 49.0555C33.7247 49.5834 33.305 50.664 33.4641 51.4744C34.099 51.5444 34.7504 51.5156 35.362 51.3181C35.5554 51.2016 35.639 50.9684 35.7048 50.7641C35.7213 49.774 35.7131 48.7839 35.7035 47.7939C35.9983 47.7966 36.2931 47.7966 36.588 47.7939C36.5688 48.8744 36.5825 49.9564 36.5797 51.0384C36.5441 51.6417 35.9572 52.0792 35.3798 52.0984C33.0061 52.0984 30.6324 52.0984 28.26 52.0984C27.5195 52.0778 26.7433 52.2177 26.0673 51.8351C25.4858 52.2081 24.8002 52.0614 24.1529 52.1203C23.8828 52.3192 24.0199 52.7607 23.7498 52.9843C23.4275 53.4354 22.857 53.5149 22.3497 53.5959C21.6366 53.6096 20.9221 53.5849 20.2091 53.6123C20.2063 53.3641 20.2049 53.1173 20.2063 52.8704C20.9262 52.8773 21.6448 52.8828 22.3647 52.8773C22.7419 52.8649 23.2561 52.5687 23.0861 52.1203C22.4004 52.0573 21.7093 52.1313 21.0222 52.0888C20.2516 51.9256 19.9389 51.0699 19.9375 50.3651C19.9746 49.7905 19.8333 49.1775 20.1062 48.6427C20.2913 48.1833 20.7411 47.7705 21.2622 47.8007C22.0658 47.8144 22.8708 47.7843 23.673 47.8144C23.8869 47.968 24.0665 48.2011 24.094 48.4713C24.1433 49.4696 24.024 50.4857 24.1474 51.4731C24.6274 51.5279 25.2239 51.4292 25.5366 51.0205C25.6394 49.9537 25.5997 48.8731 25.5654 47.8035C25.9014 47.7966 26.236 47.798 26.5719 47.7993C26.5363 48.8319 26.5349 49.8686 26.5705 50.9012C26.6885 51.3922 27.3015 51.4072 27.7087 51.4978C28.9909 51.5074 30.2717 51.4978 31.5539 51.5032C31.9118 51.4868 32.3506 51.3647 32.4685 50.9808C32.6688 50.5461 32.57 49.8467 32.0928 49.6424C31.1356 49.6108 30.1771 49.6355 29.2185 49.6341C28.6988 49.6725 28.2298 49.2598 28.068 48.7894C27.8472 47.9584 28.4643 46.9958 29.3488 46.9587ZM21.1278 48.714C20.8261 49.1857 20.7397 49.7973 20.8371 50.3459C20.9468 50.6887 20.9166 51.1453 21.3034 51.3181C21.9026 51.4978 22.5595 51.591 23.1697 51.4443C23.3123 50.9204 23.1944 50.3541 23.2314 49.8138C23.1985 49.3421 23.3919 48.7126 22.8872 48.4233C22.2962 48.3547 21.6201 48.3232 21.1278 48.714Z" fill="black"></path><path d="M34.4733 46.2914C34.7654 46.2914 35.0575 46.2914 35.351 46.29C35.3537 46.5369 35.3537 46.7837 35.3524 47.0319C35.0575 47.0319 34.7627 47.0319 34.4692 47.0305C34.4651 46.7837 34.4665 46.5369 34.4733 46.2914Z" fill="black"></path><path d="M35.7061 46.2914C35.9982 46.2928 36.2917 46.2914 36.5838 46.29C36.5879 46.5369 36.5892 46.7837 36.5851 47.0319C36.2917 47.0319 35.9982 47.0319 35.7047 47.0305C35.702 46.7837 35.7034 46.5369 35.7061 46.2914Z" fill="black"></path><path d="M43.6954 47.1581C44.7774 46.7645 45.9581 46.6905 47.0373 46.29C47.0085 46.53 47.0044 46.7727 46.9975 47.0168C46.0842 47.3199 45.1174 47.457 44.2083 47.7793C43.8572 47.9205 43.753 48.358 43.886 48.6871C44.0341 48.9202 44.3372 48.9545 44.5813 49.0272C45.6207 49.0546 46.6615 49.0148 47.701 49.0436C48.1563 49.0697 48.3565 49.5359 48.4141 49.9281C48.569 50.3957 48.5032 50.8894 48.3976 51.3598C48.9406 51.4516 49.5084 51.3886 50.0596 51.379C50.589 51.3872 50.7041 50.766 50.7878 50.3615C50.8097 49.5058 50.7947 48.6487 50.7851 47.7944C51.0799 47.7971 51.3747 47.7985 51.6709 47.7957C51.649 48.7844 51.6723 49.7745 51.6572 50.7632C51.638 51.4612 51.036 52.0975 50.3284 52.1003C47.2718 52.0975 44.2151 52.0989 41.1585 52.0989C40.5044 52.0317 40.0066 51.4009 39.9641 50.7632C39.9545 50.2312 39.9668 49.6977 39.9545 49.1657C40.2479 49.1684 40.5428 49.1684 40.8376 49.1657C40.9116 49.8541 40.6045 50.6741 41.0913 51.2542C41.3971 51.4228 41.7742 51.4009 42.1088 51.4914C43.5733 51.5092 45.0393 51.4887 46.5038 51.501C46.7795 51.5092 47.0482 51.4201 47.3019 51.32C47.5954 51.091 47.4939 50.681 47.5131 50.3601C47.5735 50.0063 47.2786 49.6086 46.9111 49.6292C46.0417 49.6278 45.1737 49.6292 44.3043 49.6347C43.8312 49.6511 43.2799 49.4262 43.1386 48.9339C43.055 48.3031 43.0413 47.4968 43.6954 47.1581Z" fill="black"></path><path d="M49.4192 46.29C49.7113 46.29 50.0048 46.29 50.2982 46.29C50.301 46.5355 50.3023 46.7837 50.2982 47.0319C50.0034 47.0305 49.7099 47.0319 49.4165 47.0319C49.4137 46.7837 49.4137 46.5369 49.4192 46.29Z" fill="black"></path><path d="M50.7906 46.2897C51.0826 46.2883 51.3761 46.2897 51.6696 46.2897C51.6737 46.5365 51.6737 46.7833 51.6696 47.0315C51.3761 47.0315 51.0826 47.0316 50.7892 47.0302C50.7851 46.7833 50.7851 46.5365 50.7906 46.2897Z" fill="black"></path><path d="M57.0849 47.1066C58.1518 46.7775 59.279 46.6473 60.3376 46.2935C60.3116 46.5321 60.3061 46.7734 60.2951 47.0134C59.4079 47.2849 58.496 47.4673 57.606 47.7292C57.0849 47.8362 56.9148 48.6987 57.4428 48.9003C57.8309 49.1101 58.282 49.0224 58.7044 49.0374C59.5052 49.047 60.3088 49.0182 61.111 49.0498C61.3839 49.2802 61.6884 49.5764 61.6733 49.9644C61.6678 50.4444 61.6966 50.9257 61.6555 51.4043C61.5224 51.7746 61.1632 52.1174 60.749 52.1009C58.6153 52.0955 56.4801 52.1051 54.3464 52.0955C54.0886 52.02 53.8349 51.9048 53.6223 51.743C53.0203 51.0121 53.3522 50.0262 53.2535 49.1663C53.5483 49.1691 53.8431 49.1691 54.1379 49.1677C54.1311 49.745 54.1105 50.3237 54.1379 50.9011C54.2614 51.3988 54.862 51.4043 55.272 51.4976C56.8285 51.5085 58.3863 51.5017 59.9427 51.5017C60.3925 51.5044 60.8738 51.1191 60.8135 50.6391C60.8409 50.273 60.7394 49.7574 60.3431 49.6381C59.3434 49.6175 58.3424 49.6394 57.3413 49.6326C56.9985 49.6271 56.7064 49.394 56.5021 49.1389C56.0811 48.4601 56.3567 47.4508 57.0849 47.1066Z" fill="black"></path><path d="M62.8594 46.2935C63.1501 46.3044 63.4408 46.3031 63.7329 46.2935C63.7261 48.2311 63.7165 50.1701 63.737 52.1078C63.4422 52.1051 63.1474 52.1051 62.8525 52.1078C62.8731 50.1701 62.8567 48.2311 62.8594 46.2935Z" fill="black"></path><path d="M8.42676 46.4373C8.71748 46.4236 9.00682 46.4236 9.29754 46.4277C9.30302 46.6279 9.30302 46.8281 9.29617 47.0297C9.00682 47.0338 8.71747 47.0338 8.42813 47.0215C8.42676 46.8254 8.42676 46.6306 8.42676 46.4373Z" fill="black"></path><path d="M9.78706 46.4275C10.0353 46.4206 10.2821 46.4206 10.5289 46.4275C10.5385 46.6277 10.5385 46.8279 10.5289 47.0295C10.2821 47.0364 10.0353 47.0364 9.7898 47.0295C9.77883 46.8293 9.77746 46.6277 9.78706 46.4275Z" fill="black"></path><path d="M3.90006 48.4718C3.90691 48.0796 4.31145 47.7834 4.68444 47.8026C5.4894 47.8026 6.29573 47.804 7.10206 47.8013C7.1048 48.0001 7.1048 48.1989 7.09932 48.3992C6.43149 48.406 5.76229 48.3772 5.09446 48.4019C4.70776 48.4417 4.66662 48.9573 4.80923 49.2384C5.49626 49.6676 6.48771 49.5168 7.01155 50.2148C7.27622 50.5165 7.2529 50.9361 7.23508 51.3104C7.23782 51.7301 6.87168 52.1181 6.4452 52.1003C5.25902 52.1003 4.07421 52.0948 2.88803 52.1017C2.39984 52.1346 1.9816 51.7753 1.7375 51.3859C1.44404 50.585 1.61957 49.7238 1.55786 48.8928C1.85406 48.8942 2.14889 48.8942 2.4451 48.8928C2.4643 49.5319 2.34911 50.1887 2.5548 50.8085C2.58908 51.0252 2.73307 51.2158 2.92506 51.3173C3.75744 51.6039 4.6433 51.4681 5.50311 51.5038C5.86102 51.534 6.39309 51.353 6.37115 50.9196C5.92136 49.9062 4.47326 50.3807 3.922 49.4743C3.86852 49.1424 3.8932 48.8051 3.90006 48.4718Z" fill="black"></path><path d="M9.64721 47.7959C9.94204 47.7973 10.2369 47.7973 10.5317 47.7959C10.507 49.3263 10.5399 50.858 10.5153 52.3898C10.4001 52.7902 10.204 53.2496 9.77474 53.3949C9.30576 53.6185 8.78466 53.6336 8.2759 53.6144C8.27453 53.3675 8.27591 53.1207 8.28002 52.8752C8.84226 52.9781 9.54162 52.7779 9.64173 52.1333C9.67738 50.6894 9.65681 49.2413 9.64721 47.7959Z" fill="black"></path><path d="M49.5402 53.8774C50.1162 53.7376 50.6318 53.3577 51.216 53.2905C51.227 53.4427 51.2626 53.6841 51.0638 53.7348C50.7196 53.9008 50.3534 54.0187 50.0065 54.1778C49.8556 54.2312 49.6952 54.3601 49.5293 54.2875C49.5252 54.1503 49.5293 54.0132 49.5402 53.8774Z" fill="black"></path><rect x="1" y="54.9648" width="62.4724" height="0.780905" fill="black"></rect><path d="M3.3718 56.9613L1.7571 61.4067H1.09715L2.9564 56.5291H3.38185L3.3718 56.9613ZM4.72521 61.4067L3.10715 56.9613L3.0971 56.5291H3.52255L5.38851 61.4067H4.72521ZM4.64146 59.6011V60.1304H1.90115V59.6011H4.64146ZM7.39851 60.9645C7.54591 60.9645 7.68214 60.9344 7.80721 60.8741C7.93228 60.8138 8.03501 60.7312 8.11541 60.6262C8.19581 60.519 8.2416 60.3973 8.25276 60.261H8.84236C8.8312 60.4754 8.75861 60.6753 8.62461 60.8607C8.49285 61.0438 8.31976 61.1923 8.10536 61.3062C7.89096 61.4179 7.65534 61.4737 7.39851 61.4737C7.03448 61.4737 6.73298 61.3911 6.49401 61.2258C6.25728 61.0583 6.07973 60.8372 5.96136 60.5625C5.84522 60.2878 5.78716 59.9886 5.78716 59.6647V59.524C5.78716 59.2002 5.84522 58.9009 5.96136 58.6262C6.07973 58.3515 6.25839 58.1315 6.49736 57.9663C6.73633 57.7988 7.03671 57.715 7.39851 57.715C7.68214 57.715 7.93004 57.7731 8.14221 57.8892C8.35438 58.0031 8.52076 58.1595 8.64136 58.3582C8.7642 58.5548 8.8312 58.7781 8.84236 59.0282H8.25276C8.2416 58.8786 8.19916 58.7435 8.12546 58.6229C8.05399 58.5023 7.95573 58.4063 7.83066 58.3348C7.70783 58.2611 7.56378 58.2242 7.39851 58.2242C7.14391 58.2242 6.94403 58.289 6.79886 58.4185C6.65593 58.5481 6.55431 58.7122 6.49401 58.911C6.43594 59.1098 6.40691 59.3141 6.40691 59.524V59.6647C6.40691 59.8769 6.43594 60.0824 6.49401 60.2811C6.55208 60.4799 6.65258 60.6441 6.79551 60.7736C6.94068 60.9009 7.14168 60.9645 7.39851 60.9645ZM10.9897 60.9645C11.1371 60.9645 11.2734 60.9344 11.3984 60.8741C11.5235 60.8138 11.6262 60.7312 11.7066 60.6262C11.787 60.519 11.8328 60.3973 11.844 60.261H12.4336C12.4224 60.4754 12.3498 60.6753 12.2158 60.8607C12.0841 61.0438 11.911 61.1923 11.6966 61.3062C11.4822 61.4179 11.2466 61.4737 10.9897 61.4737C10.6257 61.4737 10.3242 61.3911 10.0852 61.2258C9.84848 61.0583 9.67093 60.8372 9.55256 60.5625C9.43643 60.2878 9.37836 59.9886 9.37836 59.6647V59.524C9.37836 59.2002 9.43643 58.9009 9.55256 58.6262C9.67093 58.3515 9.8496 58.1315 10.0886 57.9663C10.3275 57.7988 10.6279 57.715 10.9897 57.715C11.2734 57.715 11.5213 57.7731 11.7334 57.8892C11.9456 58.0031 12.112 58.1595 12.2326 58.3582C12.3554 58.5548 12.4224 58.7781 12.4336 59.0282H11.844C11.8328 58.8786 11.7904 58.7435 11.7167 58.6229C11.6452 58.5023 11.5469 58.4063 11.4219 58.3348C11.299 58.2611 11.155 58.2242 10.9897 58.2242C10.7351 58.2242 10.5352 58.289 10.3901 58.4185C10.2471 58.5481 10.1455 58.7122 10.0852 58.911C10.0271 59.1098 9.99811 59.3141 9.99811 59.524V59.6647C9.99811 59.8769 10.0271 60.0824 10.0852 60.2811C10.1433 60.4799 10.2438 60.6441 10.3867 60.7736C10.5319 60.9009 10.7329 60.9645 10.9897 60.9645ZM14.6479 57.782V58.2577H12.6882V57.782H14.6479ZM13.3515 56.901H13.9712V60.5089C13.9712 60.6318 13.9902 60.7245 14.0282 60.787C14.0661 60.8495 14.1153 60.8908 14.1756 60.9109C14.2359 60.931 14.3006 60.9411 14.3699 60.9411C14.4212 60.9411 14.4748 60.9366 14.5307 60.9277C14.5887 60.9165 14.6323 60.9076 14.6613 60.9009L14.6647 61.4067C14.6155 61.4224 14.5508 61.4369 14.4704 61.4503C14.3922 61.4659 14.2973 61.4737 14.1856 61.4737C14.0338 61.4737 13.8942 61.4436 13.7669 61.3833C13.6396 61.323 13.538 61.2225 13.462 61.0818C13.3883 60.9389 13.3515 60.7468 13.3515 60.5056V56.901ZM16.879 61.4737C16.5418 61.4737 16.2481 61.3989 15.998 61.2493C15.7501 61.0997 15.5569 60.8931 15.4184 60.6295C15.2822 60.3638 15.2141 60.0612 15.2141 59.7217V59.581C15.2141 59.1857 15.2889 58.8496 15.4385 58.5726C15.5904 58.2935 15.7869 58.0813 16.0281 57.9361C16.2716 57.7887 16.5284 57.715 16.7986 57.715C17.1448 57.715 17.4273 57.7932 17.6462 57.9495C17.8673 58.1036 18.0292 58.3147 18.1319 58.5827C18.2369 58.8485 18.2894 59.1511 18.2894 59.4905V59.7686H15.5826V59.2627H17.6696V59.2158C17.6607 59.055 17.6272 58.8987 17.5691 58.7468C17.5133 58.595 17.424 58.4699 17.3011 58.3716C17.1783 58.2734 17.0108 58.2242 16.7986 58.2242C16.611 58.2242 16.4446 58.2767 16.2995 58.3817C16.1543 58.4867 16.0404 58.6408 15.9578 58.844C15.8774 59.045 15.8372 59.2907 15.8372 59.581V59.7217C15.8372 59.9495 15.8796 60.1583 15.9645 60.3481C16.0493 60.5357 16.1722 60.6865 16.333 60.8004C16.4938 60.9121 16.687 60.9679 16.9125 60.9679C17.1314 60.9679 17.3168 60.9232 17.4686 60.8339C17.6205 60.7446 17.7534 60.6251 17.8673 60.4754L18.2425 60.7736C18.1263 60.9523 17.96 61.1142 17.7433 61.2593C17.5267 61.4023 17.2386 61.4737 16.879 61.4737ZM20.4635 60.9645C20.6109 60.9645 20.7472 60.9344 20.8722 60.8741C20.9973 60.8138 21.1 60.7312 21.1804 60.6262C21.2608 60.519 21.3066 60.3973 21.3178 60.261H21.9074C21.8962 60.4754 21.8236 60.6753 21.6896 60.8607C21.5579 61.0438 21.3848 61.1923 21.1704 61.3062C20.956 61.4179 20.7204 61.4737 20.4635 61.4737C20.0995 61.4737 19.798 61.3911 19.559 61.2258C19.3223 61.0583 19.1447 60.8372 19.0264 60.5625C18.9102 60.2878 18.8522 59.9886 18.8522 59.6647V59.524C18.8522 59.2002 18.9102 58.9009 19.0264 58.6262C19.1447 58.3515 19.3234 58.1315 19.5624 57.9663C19.8013 57.7988 20.1017 57.715 20.4635 57.715C20.7472 57.715 20.9951 57.7731 21.2072 57.8892C21.4194 58.0031 21.5858 58.1595 21.7064 58.3582C21.8292 58.5548 21.8962 58.7781 21.9074 59.0282H21.3178C21.3066 58.8786 21.2642 58.7435 21.1905 58.6229C21.119 58.5023 21.0207 58.4063 20.8957 58.3348C20.7728 58.2611 20.6288 58.2242 20.4635 58.2242C20.2089 58.2242 20.009 58.289 19.8639 58.4185C19.7209 58.5481 19.6193 58.7122 19.559 58.911C19.501 59.1098 19.4719 59.3141 19.4719 59.524V59.6647C19.4719 59.8769 19.501 60.0824 19.559 60.2811C19.6171 60.4799 19.7176 60.6441 19.8605 60.7736C20.0057 60.9009 20.2067 60.9645 20.4635 60.9645ZM23.2239 56.2611V61.4067H22.6042V56.2611H23.2239ZM23.0765 59.457L22.8186 59.447C22.8231 59.1142 22.8867 58.8183 23.0095 58.5592C23.1324 58.2979 23.3032 58.0925 23.5221 57.9428C23.7432 57.791 24 57.715 24.2926 57.715C24.5316 57.715 24.737 57.7586 24.909 57.8457C25.0832 57.9328 25.2172 58.0735 25.311 58.2678C25.407 58.4599 25.455 58.7145 25.455 59.0316V61.4067H24.8319V59.0249C24.8319 58.8351 24.804 58.6832 24.7482 58.5693C24.6924 58.4532 24.6108 58.3694 24.5036 58.318C24.3964 58.2644 24.2647 58.2376 24.1083 58.2376C23.9542 58.2376 23.8135 58.27 23.6862 58.3348C23.5612 58.3996 23.4529 58.4889 23.3613 58.6028C23.272 58.7167 23.2016 58.8473 23.1502 58.9947C23.1011 59.1399 23.0765 59.294 23.0765 59.457ZM31.0653 56.5291V61.4067H30.4288V56.5291H31.0653ZM32.6331 56.5291V57.0584H28.8644V56.5291H32.6331ZM34.4321 61.4737C34.0948 61.4737 33.8012 61.3989 33.551 61.2493C33.3031 61.0997 33.1099 60.8931 32.9715 60.6295C32.8352 60.3638 32.7671 60.0612 32.7671 59.7217V59.581C32.7671 59.1857 32.8419 58.8496 32.9916 58.5726C33.1434 58.2935 33.34 58.0813 33.5812 57.9361C33.8246 57.7887 34.0814 57.715 34.3517 57.715C34.6978 57.715 34.9804 57.7932 35.1992 57.9495C35.4203 58.1036 35.5822 58.3147 35.685 58.5827C35.7899 58.8485 35.8424 59.1511 35.8424 59.4905V59.7686H33.1356V59.2627H35.2227V59.2158C35.2137 59.055 35.1802 58.8987 35.1222 58.7468C35.0663 58.595 34.977 58.4699 34.8542 58.3716C34.7313 58.2734 34.5638 58.2242 34.3517 58.2242C34.1641 58.2242 33.9977 58.2767 33.8525 58.3817C33.7074 58.4867 33.5935 58.6408 33.5108 58.844C33.4304 59.045 33.3902 59.2907 33.3902 59.581V59.7217C33.3902 59.9495 33.4327 60.1583 33.5175 60.3481C33.6024 60.5357 33.7252 60.6865 33.886 60.8004C34.0468 60.9121 34.24 60.9679 34.4656 60.9679C34.6844 60.9679 34.8698 60.9232 35.0217 60.8339C35.1735 60.7446 35.3064 60.6251 35.4203 60.4754L35.7955 60.7736C35.6794 60.9523 35.513 61.1142 35.2964 61.2593C35.0797 61.4023 34.7916 61.4737 34.4321 61.4737ZM38.0166 60.9645C38.164 60.9645 38.3002 60.9344 38.4253 60.8741C38.5503 60.8138 38.6531 60.7312 38.7335 60.6262C38.8139 60.519 38.8597 60.3973 38.8708 60.261H39.4604C39.4493 60.4754 39.3767 60.6753 39.2427 60.8607C39.1109 61.0438 38.9378 61.1923 38.7234 61.3062C38.509 61.4179 38.2734 61.4737 38.0166 61.4737C37.6525 61.4737 37.351 61.3911 37.1121 61.2258C36.8753 61.0583 36.6978 60.8372 36.5794 60.5625C36.4633 60.2878 36.4052 59.9886 36.4052 59.6647V59.524C36.4052 59.2002 36.4633 58.9009 36.5794 58.6262C36.6978 58.3515 36.8765 58.1315 37.1154 57.9663C37.3544 57.7988 37.6548 57.715 38.0166 57.715C38.3002 57.715 38.5481 57.7731 38.7603 57.8892C38.9724 58.0031 39.1388 58.1595 39.2594 58.3582C39.3823 58.5548 39.4493 58.7781 39.4604 59.0282H38.8708C38.8597 58.8786 38.8172 58.7435 38.7435 58.6229C38.6721 58.5023 38.5738 58.4063 38.4487 58.3348C38.3259 58.2611 38.1818 58.2242 38.0166 58.2242C37.762 58.2242 37.5621 58.289 37.4169 58.4185C37.274 58.5481 37.1724 58.7122 37.1121 58.911C37.054 59.1098 37.025 59.3141 37.025 59.524V59.6647C37.025 59.8769 37.054 60.0824 37.1121 60.2811C37.1701 60.4799 37.2706 60.6441 37.4136 60.7736C37.5587 60.9009 37.7597 60.9645 38.0166 60.9645ZM40.777 56.2611V61.4067H40.1572V56.2611H40.777ZM40.6296 59.457L40.3716 59.447C40.3761 59.1142 40.4398 58.8183 40.5626 58.5592C40.6854 58.2979 40.8563 58.0925 41.0751 57.9428C41.2962 57.791 41.5531 57.715 41.8456 57.715C42.0846 57.715 42.2901 57.7586 42.462 57.8457C42.6362 57.9328 42.7702 58.0735 42.864 58.2678C42.9601 58.4599 43.0081 58.7145 43.0081 59.0316V61.4067H42.385V59.0249C42.385 58.8351 42.3571 58.6832 42.3012 58.5693C42.2454 58.4532 42.1639 58.3694 42.0567 58.318C41.9495 58.2644 41.8177 58.2376 41.6614 58.2376C41.5073 58.2376 41.3666 58.27 41.2393 58.3348C41.1142 58.3996 41.0059 58.4889 40.9143 58.6028C40.825 58.7167 40.7547 58.8473 40.7033 58.9947C40.6542 59.1399 40.6296 59.294 40.6296 59.457ZM44.5558 58.5559V61.4067H43.936V57.782H44.5223L44.5558 58.5559ZM44.4084 59.457L44.1504 59.447C44.1549 59.1142 44.2186 58.8183 44.3414 58.5592C44.4642 58.2979 44.6351 58.0925 44.8539 57.9428C45.075 57.791 45.3319 57.715 45.6244 57.715C45.8634 57.715 46.0689 57.7586 46.2408 57.8457C46.415 57.9328 46.549 58.0735 46.6428 58.2678C46.7389 58.4599 46.7869 58.7145 46.7869 59.0316V61.4067H46.1638V59.0249C46.1638 58.8351 46.1359 58.6832 46.08 58.5693C46.0242 58.4532 45.9427 58.3694 45.8355 58.318C45.7283 58.2644 45.5965 58.2376 45.4402 58.2376C45.2861 58.2376 45.1454 58.27 45.0181 58.3348C44.893 58.3996 44.7847 58.4889 44.6931 58.6028C44.6038 58.7167 44.5335 58.8473 44.4821 58.9947C44.433 59.1399 44.4084 59.294 44.4084 59.457ZM47.5641 59.6346V59.5575C47.5641 59.2069 47.6311 58.8931 47.7651 58.6162C47.8991 58.3392 48.0889 58.1204 48.3346 57.9596C48.5803 57.7965 48.8717 57.715 49.2089 57.715C49.5506 57.715 49.8443 57.7965 50.09 57.9596C50.3379 58.1204 50.5288 58.3392 50.6628 58.6162C50.7968 58.8931 50.8638 59.2069 50.8638 59.5575V59.6346C50.8638 59.983 50.7968 60.2968 50.6628 60.5759C50.5288 60.8529 50.339 61.0717 50.0933 61.2325C49.8477 61.3933 49.5551 61.4737 49.2156 61.4737C48.8762 61.4737 48.5825 61.3933 48.3346 61.2325C48.0889 61.0717 47.8991 60.8529 47.7651 60.5759C47.6311 60.2968 47.5641 59.983 47.5641 59.6346ZM48.1838 59.5575V59.6346C48.1838 59.8736 48.2218 60.0947 48.2977 60.2979C48.3737 60.4989 48.4876 60.6608 48.6394 60.7836C48.7935 60.9042 48.9856 60.9645 49.2156 60.9645C49.4434 60.9645 49.6333 60.9042 49.7851 60.7836C49.937 60.6608 50.0509 60.4989 50.1268 60.2979C50.2028 60.0947 50.2407 59.8736 50.2407 59.6346V59.5575C50.2407 59.3208 50.2017 59.1019 50.1235 58.9009C50.0476 58.6977 49.9337 58.5347 49.7818 58.4118C49.6299 58.2868 49.439 58.2242 49.2089 58.2242C48.9811 58.2242 48.7913 58.2868 48.6394 58.4118C48.4876 58.5347 48.3737 58.6977 48.2977 58.9009C48.2218 59.1019 48.1838 59.3208 48.1838 59.5575ZM52.3144 56.2611V61.4067H51.6913V56.2611H52.3144ZM53.1452 59.6346V59.5575C53.1452 59.2069 53.2122 58.8931 53.3462 58.6162C53.4802 58.3392 53.67 58.1204 53.9157 57.9596C54.1614 57.7965 54.4528 57.715 54.7901 57.715C55.1318 57.715 55.4254 57.7965 55.6711 57.9596C55.919 58.1204 56.11 58.3392 56.244 58.6162C56.378 58.8931 56.445 59.2069 56.445 59.5575V59.6346C56.445 59.983 56.378 60.2968 56.244 60.5759C56.11 60.8529 55.9201 61.0717 55.6745 61.2325C55.4288 61.3933 55.1362 61.4737 54.7968 61.4737C54.4573 61.4737 54.1636 61.3933 53.9157 61.2325C53.67 61.0717 53.4802 60.8529 53.3462 60.5759C53.2122 60.2968 53.1452 59.983 53.1452 59.6346ZM53.765 59.5575V59.6346C53.765 59.8736 53.8029 60.0947 53.8789 60.2979C53.9548 60.4989 54.0687 60.6608 54.2206 60.7836C54.3747 60.9042 54.5667 60.9645 54.7968 60.9645C55.0246 60.9645 55.2144 60.9042 55.3663 60.7836C55.5181 60.6608 55.632 60.4989 55.708 60.2979C55.7839 60.0947 55.8219 59.8736 55.8219 59.6346V59.5575C55.8219 59.3208 55.7828 59.1019 55.7046 58.9009C55.6287 58.6977 55.5148 58.5347 55.3629 58.4118C55.211 58.2868 55.0201 58.2242 54.7901 58.2242C54.5623 58.2242 54.3724 58.2868 54.2206 58.4118C54.0687 58.5347 53.9548 58.6977 53.8789 58.9009C53.8029 59.1019 53.765 59.3208 53.765 59.5575ZM59.5705 57.782H60.1333V61.3297C60.1333 61.6491 60.0685 61.9215 59.939 62.1471C59.8095 62.3727 59.6286 62.5435 59.3963 62.6596C59.1663 62.778 58.9005 62.8372 58.599 62.8372C58.4739 62.8372 58.3265 62.8171 58.1568 62.7769C57.9893 62.7389 57.824 62.673 57.661 62.5792C57.5002 62.4877 57.3651 62.3637 57.2557 62.2074L57.5806 61.8389C57.7325 62.022 57.891 62.1493 58.0563 62.2208C58.2238 62.2923 58.3891 62.328 58.5521 62.328C58.8447 62.328 59.0781 62.2454 59.2523 62.0801C59.4265 61.9171 59.5136 61.677 59.5136 61.3598V58.5793L59.5705 57.782ZM57.0748 59.6346V59.5642C57.0748 59.1957 57.1328 58.873 57.249 58.5961C57.3651 58.3169 57.5292 58.1003 57.7414 57.9462C57.9558 57.7921 58.2104 57.715 58.5052 57.715C58.733 57.715 58.9318 57.7552 59.1015 57.8356C59.2735 57.9138 59.4186 58.0288 59.537 58.1807C59.6576 58.3303 59.7525 58.5112 59.8218 58.7234C59.891 58.9356 59.939 59.1756 59.9658 59.4436V59.7518C59.9323 60.1047 59.8586 60.4107 59.7447 60.6697C59.6308 60.9266 59.4711 61.1253 59.2657 61.266C59.0602 61.4045 58.8045 61.4737 58.4985 61.4737C58.2082 61.4737 57.9558 61.3945 57.7414 61.2359C57.5292 61.0751 57.3651 60.8562 57.249 60.5793C57.1328 60.3024 57.0748 59.9875 57.0748 59.6346ZM57.6945 59.5642V59.6346C57.6945 59.8736 57.7269 60.0935 57.7917 60.2945C57.8587 60.4933 57.9625 60.6519 58.1032 60.7702C58.2439 60.8886 58.4259 60.9478 58.6493 60.9478C58.8547 60.9478 59.0245 60.9042 59.1585 60.8171C59.2925 60.73 59.3985 60.615 59.4767 60.4721C59.5571 60.3292 59.6196 60.1739 59.6643 60.0064V59.1991C59.6397 59.0763 59.6018 58.9579 59.5504 58.844C59.5013 58.7279 59.4365 58.6251 59.3561 58.5358C59.2779 58.4442 59.1808 58.3716 59.0647 58.318C58.9485 58.2644 58.8123 58.2376 58.656 58.2376C58.4304 58.2376 58.2461 58.2979 58.1032 58.4185C57.9625 58.5391 57.8587 58.6999 57.7917 58.9009C57.7269 59.1019 57.6945 59.323 57.6945 59.5642ZM62.0931 61.0315L63.1014 57.782H63.7647L62.3108 61.9662C62.2773 62.0555 62.2327 62.1516 62.1768 62.2543C62.1232 62.3593 62.054 62.4586 61.9691 62.5524C61.8843 62.6462 61.7815 62.7222 61.6609 62.7802C61.5426 62.8405 61.4007 62.8707 61.2355 62.8707C61.1863 62.8707 61.1238 62.864 61.0479 62.8506C60.9719 62.8372 60.9183 62.826 60.8871 62.8171L60.8837 62.3146C60.9016 62.3168 60.9295 62.3191 60.9675 62.3213C61.0077 62.3258 61.0356 62.328 61.0512 62.328C61.2634 62.328 61.4275 62.2844 61.5437 62.1973C61.662 62.1125 61.7592 61.9584 61.8351 61.735L62.0931 61.0315ZM61.3527 57.782L62.2941 60.596L62.4549 61.2493L62.0093 61.4771L60.676 57.782H61.3527Z" fill="black"></path></svg> 