<?xml version="1.0" encoding="UTF-8"?> <svg xmlns="http://www.w3.org/2000/svg" width="100" height="100" viewBox="0 0 100 100" fill="none"><g clip-path="url(#clip0_9871_1749)"><path d="M95.5404 68.6133H6.61367V66.5106H4V31H93.424V33.5412H95.5577L95.5404 68.6133ZM93.1478 66.1964V31.2417H4.24515V66.2103L93.1478 66.1964Z" fill="black"></path><path d="M75.0417 54.3341V62.762H68.7337V54.0302C68.2434 56.4219 66.9225 58.5628 65.0049 60.0738C63.0873 61.5849 60.6968 62.3684 58.2568 62.2857C55.8168 62.203 53.4849 61.2593 51.674 59.6219C49.8631 57.9846 48.6902 55.7591 48.363 53.3397V62.762H42.0515V54.4135C41.1953 54.6103 40.3977 54.852 39.5829 54.9694C37.6069 55.2518 35.5914 54.95 33.7848 54.1011C31.9782 53.2522 30.4594 51.8934 29.4155 50.192C28.3716 48.4905 27.8483 46.5209 27.91 44.5258C27.9718 42.5306 28.6158 40.5971 29.7628 38.9635C30.9098 37.3298 32.5097 36.0674 34.3653 35.3318C36.2209 34.5962 38.2512 34.4195 40.206 34.8236C42.1608 35.2276 43.9547 36.1946 45.3666 37.6056C46.7786 39.0165 47.747 40.8097 48.1524 42.7642C48.2822 43.4474 48.3526 44.1405 48.363 44.8358C48.3906 46.8245 48.363 48.8167 48.4044 50.8193C48.7431 48.3369 49.9608 46.0583 51.8364 44.3973C53.7003 42.7102 56.1383 41.7987 58.6519 41.8493C63.5443 41.9114 67.6012 45.226 68.7234 50.0977V49.6074C68.7234 48.0019 68.7234 46.393 68.7234 44.7737C68.7375 42.8621 69.2866 40.9927 70.3087 39.3774C71.3308 37.762 72.7849 36.4651 74.5063 35.6338C76.2276 34.8025 78.1474 34.4699 80.0481 34.6738C81.9488 34.8776 83.7544 35.6098 85.2603 36.7872C86.7662 37.9647 87.9122 39.5404 88.5685 41.3358C89.2247 43.1312 89.365 45.0745 88.9734 46.9456C88.5818 48.8166 87.674 50.5406 86.3528 51.9221C85.0316 53.3036 83.3499 54.2875 81.4982 54.7622C79.4988 55.2869 77.3866 55.1869 75.4457 54.4756L75.0417 54.3341ZM34.3832 44.86C34.3825 45.6062 34.6038 46.3358 35.0187 46.956C35.4337 47.5762 36.0237 48.059 36.7137 48.3432C37.4038 48.6273 38.1627 48.6998 38.894 48.5516C39.6254 48.4034 40.2962 48.0411 40.8212 47.5108C41.3462 46.9804 41.7016 46.306 41.8424 45.5732C41.9832 44.8403 41.9029 44.0822 41.6118 43.3951C41.3207 42.708 40.8319 42.1229 40.2075 41.7143C39.5831 41.3056 38.8513 41.0918 38.1052 41.1C37.1196 41.1257 36.1821 41.5313 35.4885 42.2319C34.7949 42.9326 34.3989 43.8742 34.3832 44.86ZM82.6859 44.86C82.6825 44.1236 82.4613 43.4046 82.0502 42.7937C81.6391 42.1827 81.0564 41.707 80.3755 41.4264C79.6946 41.1459 78.946 41.073 78.2238 41.2171C77.5016 41.3611 76.8381 41.7155 76.3169 42.2357C75.7957 42.756 75.44 43.4188 75.2947 44.1407C75.1494 44.8627 75.2208 45.6114 75.5001 46.2928C75.7794 46.9742 76.2541 47.5578 76.8643 47.97C77.4745 48.3823 78.193 48.6048 78.9294 48.6096C79.9221 48.6096 80.8742 48.2159 81.5771 47.515C82.28 46.8141 82.6763 45.863 82.679 44.8703L82.6859 44.86ZM54.8609 52.076C54.863 52.8164 55.0843 53.5395 55.497 54.1541C55.9098 54.7687 56.4953 55.2472 57.1798 55.5293C57.8643 55.8113 58.617 55.8843 59.3429 55.7388C60.0688 55.5934 60.7354 55.2361 61.2584 54.7122C61.7814 54.1882 62.1374 53.521 62.2815 52.7948C62.4256 52.0687 62.3513 51.3161 62.068 50.6321C61.7847 49.9481 61.3051 49.3634 60.6897 48.9518C60.0744 48.5403 59.3508 48.3202 58.6105 48.3195C58.1159 48.3168 57.6256 48.4124 57.1683 48.601C56.711 48.7895 56.2958 49.0671 55.9468 49.4177C55.5979 49.7683 55.3221 50.1848 55.1357 50.6429C54.9493 51.1011 54.8559 51.5918 54.8609 52.0864V52.076Z" fill="black"></path><path d="M58.6313 41.5379C58.1835 41.5457 57.7387 41.4648 57.3224 41.2999C56.9061 41.135 56.5265 40.8893 56.2056 40.577C55.8846 40.2647 55.6287 39.892 55.4524 39.4804C55.2761 39.0687 55.1831 38.6263 55.1786 38.1785C55.1879 37.2871 55.5446 36.4345 56.173 35.8022C56.8014 35.1699 57.6517 34.8078 58.543 34.793C59.4343 34.7781 60.2962 35.1117 60.9453 35.7227C61.5944 36.3338 61.9794 37.174 62.0183 38.0646C62.0318 38.5171 61.954 38.9676 61.7896 39.3894C61.6253 39.8113 61.3777 40.1957 61.0616 40.5198C60.7456 40.8439 60.3675 41.1011 59.95 41.276C59.5324 41.4509 59.0839 41.54 58.6313 41.5379Z" fill="black"></path><path d="M11.8995 41.4026C10.9396 42.2209 10.0074 42.7008 8.84043 42.4384C8.50945 42.3675 8.20961 42.1931 7.9843 41.9405C7.75899 41.6879 7.61989 41.3701 7.58711 41.0332C7.3765 39.8075 7.83915 38.8097 8.67814 37.95C8.77137 37.8533 8.86804 37.7635 8.96126 37.6669C8.96126 37.6461 8.96127 37.6047 8.99235 37.5218L8.32942 37.3009C8.3136 37.0849 8.37404 36.8702 8.50022 36.6942C8.6264 36.5181 8.81032 36.392 9.01995 36.3376C9.38939 36.1822 10.1248 36.3376 10.2664 36.6138C10.3358 36.805 10.3272 37.0159 10.2422 37.2008C10.1801 37.3492 9.98325 37.4424 9.84169 37.5633C9.99218 37.6993 10.1692 37.8026 10.3615 37.8669C10.5539 37.9312 10.7575 37.9551 10.9595 37.9369C11.1615 37.9187 11.3575 37.859 11.5354 37.7614C11.7132 37.6639 11.8689 37.5306 11.9927 37.3699C12.521 36.6794 12.7247 36.6794 13.2875 37.3699C13.9469 38.1779 14.8584 38.164 15.5628 37.2767C15.5869 37.9672 16.0496 37.9189 16.4984 37.9293C17.3095 37.9372 18.1067 37.7196 18.8014 37.3009C18.1833 37.0903 17.693 36.6449 17.0543 37.1317C17.2994 36.1926 17.6447 36.0338 18.4354 36.3479C19.0465 36.5931 19.6852 36.7623 20.3481 36.9763C20.3481 37.3596 20.141 37.622 19.5989 37.5805C19.6611 37.691 19.6783 37.7635 19.7232 37.7912C20.0602 37.9655 20.4484 38.014 20.8179 37.9279C21.1875 37.8419 21.5143 37.6269 21.7396 37.3216C21.8513 37.1168 21.9746 36.9185 22.109 36.7277C22.3921 36.3618 22.7305 36.3272 22.9653 36.7036C23.1812 37.0333 23.3106 37.4121 23.3416 37.805C23.3658 38.4092 22.9273 38.6232 22.3956 38.3332C22.2091 38.2296 22.0503 38.1019 21.819 37.9603C21.4116 38.8718 20.6244 38.6509 19.9511 38.5266C19.6576 38.4679 19.447 38.0121 19.1224 37.6496C18.8366 37.7855 18.5588 37.9377 18.2904 38.1053C17.6218 38.5363 16.8184 38.7071 16.0323 38.5853C15.7903 38.5195 15.5582 38.422 15.3418 38.2952C14.7824 38.7717 14.0954 38.6647 13.391 38.4403C13.1148 39.1308 12.8697 39.1308 11.8891 38.3298C11.5025 38.5791 11.0369 38.6756 10.583 38.6003C10.1291 38.5249 9.71961 38.2833 9.43428 37.9224C8.64362 38.4264 8.05321 39.079 7.92547 40.0388C7.77355 41.2266 8.8784 42.0345 10.2974 41.7893C10.7636 41.6823 11.2573 41.5476 11.8995 41.4026ZM12.9042 38.3539L13.0699 38.2158C12.9252 37.9688 12.7649 37.7312 12.59 37.5046C12.4126 37.5874 12.2428 37.6856 12.0825 37.7981L12.9042 38.3539ZM22.7063 37.9085L22.9307 37.6703L22.4094 37.0868L22.1263 37.3906L22.7063 37.9085Z" fill="black"></path><path d="M18.3283 50.1586C18.1315 50.1207 17.9831 50.0827 17.807 50.0585C17.4272 49.9964 17.3374 49.7132 17.3409 49.399C17.3507 49.2997 17.374 49.2021 17.4099 49.109C17.5135 48.7327 17.6309 48.2735 18.0694 48.27C18.5079 48.2666 18.5286 48.7499 18.6391 49.0952C18.6805 49.2264 18.8497 49.4198 18.9567 49.4198C20.0581 49.4198 21.1595 49.3818 22.2609 49.3334C22.3522 49.3415 22.4442 49.3312 22.5315 49.3034C22.6188 49.2755 22.6996 49.2305 22.7694 49.1711C22.8391 49.1116 22.8963 49.0389 22.9376 48.9571C22.979 48.8753 23.0036 48.7861 23.0101 48.6947C22.9653 48.674 22.9273 48.6429 22.91 48.6533C22.5648 48.8328 22.1608 49.0262 21.9191 48.6705C21.8328 48.5138 21.7789 48.3414 21.7605 48.1635C21.7421 47.9856 21.7597 47.8058 21.8121 47.6347C21.8551 47.466 21.9337 47.3084 22.0427 47.1726C22.1517 47.0369 22.2885 46.926 22.4439 46.8475C22.8755 46.744 22.9687 47.2584 23.1344 47.5691C23.2097 47.738 23.2642 47.9154 23.2967 48.0974C23.5591 49.2955 23.0585 49.9825 21.8397 50.0378C20.9731 50.0758 20.1134 50.0585 19.2329 50.0689H18.7116C18.2282 51.9057 17.3305 52.7032 15.877 51.5742C17.8035 51.2773 18.0141 51.1703 18.3283 50.1586ZM22.8513 47.942L22.3645 47.5174C22.2713 47.652 22.1263 47.7832 22.1055 47.9282C22.1055 48.0076 22.292 48.1803 22.4059 48.1941C22.5199 48.2079 22.6442 48.0629 22.8513 47.942ZM18.2765 49.475L18.3732 49.2126C18.199 49.1143 18.0179 49.0289 17.8312 48.9571C17.807 48.9571 17.7138 49.1505 17.6516 49.254L18.2765 49.475Z" fill="black"></path><path d="M13.3912 56.1254C13.3767 56.3079 13.3141 56.4833 13.2098 56.6337C13.1055 56.7841 12.9632 56.9042 12.7974 56.9817C12.0136 57.327 11.261 57.7655 10.4841 58.166C10.9364 58.5112 11.3404 58.8047 11.7271 59.1189C11.9742 59.2965 12.1544 59.5522 12.2383 59.8448C12.3222 60.1373 12.3051 60.4497 12.1897 60.7313C11.9618 61.3735 11.4163 61.5116 10.8363 61.5737C10.5566 61.6048 10.2666 61.5737 9.98692 61.5737C9.42414 61.629 9.04435 61.4218 8.90624 60.9177C8.63861 60.9546 8.3683 60.9685 8.09831 60.9592C7.52171 60.8901 7.32147 60.4827 7.71852 60.058C8.11558 59.6333 8.7992 59.2984 8.94421 58.5458L9.05816 58.6252C9.09614 59.1154 9.1272 59.6092 9.17208 60.0995C9.23423 60.7451 9.38269 60.897 10.0145 60.8763C10.5453 60.8762 11.0748 60.8254 11.5959 60.7244C12.0827 60.6139 12.1552 60.3066 11.7823 59.9717C11.3369 59.5712 10.8363 59.2363 10.3564 58.8738C9.96621 58.5803 9.9006 58.0935 10.2977 57.838C11.2748 57.1889 12.2899 56.5985 13.2877 55.9839L13.3912 56.1254ZM8.7405 59.7369L7.91533 60.3515H8.7923L8.7405 59.7369Z" fill="black"></path><path d="M19.8718 60.3749C20.0721 60.5613 20.2171 60.8168 20.4173 60.8583C20.8144 60.9377 21.2667 61.0033 21.5498 60.5648C21.7293 60.2851 21.8951 59.9847 22.0781 59.7154C22.3508 59.3391 22.7444 59.3218 22.9723 59.7154C23.1797 60.0508 23.2985 60.4333 23.3176 60.8272C23.3176 61.4107 22.9032 61.5971 22.3888 61.314C22.2024 61.2104 22.0435 61.0827 21.8536 60.9687C21.1286 61.7421 20.4208 61.8215 19.7579 61.2104C19.3366 61.7145 18.7532 61.6455 18.2283 61.5315C18.0872 61.4754 17.961 61.3872 17.8597 61.274C17.7585 61.1607 17.6849 61.0255 17.6448 60.879C17.4826 60.0158 17.417 59.1319 17.2996 58.2549C17.2685 57.9718 17.2547 57.6887 17.2098 57.4125C17.1558 57.1965 17.1623 56.9697 17.2287 56.7571C17.2951 56.5446 17.4187 56.3544 17.5861 56.2075C17.6552 57.0258 17.7139 57.7923 17.7795 58.5588C17.8175 59.0214 17.8624 59.4875 17.8934 59.9398C17.921 60.3127 17.9176 60.7478 18.3561 60.8375C18.8567 60.9411 19.3919 60.986 19.7717 60.4923C19.8407 60.4301 19.8787 60.3714 19.8718 60.3749ZM22.6581 60.9342L22.9136 60.7374L22.4544 60.0814L22.1299 60.3473L22.6581 60.9342Z" fill="black"></path><path d="M13.9713 48.2595C14.3455 47.3727 14.4535 46.3962 14.2821 45.449C14.213 44.9588 14.1819 44.9657 14.61 44.5444C14.7585 44.9208 15.0382 45.0934 14.8069 45.67C14.4236 46.6333 14.3684 47.7416 14.213 48.7774C14.1785 49.026 14.3408 49.2953 14.3442 49.5577C14.3442 49.9202 14.2061 50.2275 13.7814 50.2482C13.3567 50.2689 12.8975 50.2482 12.4556 50.2482L12.3589 50.1101C12.5557 49.9306 12.7456 49.7476 12.9424 49.5715C13.1798 49.3914 13.4005 49.1903 13.6019 48.9707C13.6409 48.8962 13.6613 48.8132 13.6613 48.7291C13.6613 48.6449 13.6409 48.562 13.6019 48.4874C13.122 47.7968 12.611 47.1063 12.1 46.4158C12.0224 46.3412 11.9256 46.2897 11.8203 46.2673C10.8881 45.9635 10.6119 45.4283 11.2368 44.6204C11.7478 45.1866 12.2726 45.7114 12.7284 46.3018C13.1841 46.8922 13.5259 47.5724 13.9713 48.2595ZM14.0991 49.5784L13.923 49.0605L13.4707 49.644L14.0991 49.5784Z" fill="black"></path><path d="M8.2327 47.9899L8.37771 47.4375C9.22361 47.6239 9.84855 48.7806 9.54817 49.5574C9.34446 50.0822 8.06007 50.431 7.66646 50.0546C7.62641 49.9974 7.6013 49.9312 7.59346 49.8618C7.58562 49.7924 7.59529 49.7222 7.62158 49.6576C7.66299 49.5987 7.71774 49.5505 7.78135 49.5169C7.84496 49.4833 7.91562 49.4653 7.98756 49.4642C8.24617 49.5173 8.51278 49.5185 8.77182 49.4675C9.03087 49.4165 9.27717 49.3145 9.49637 49.1673L8.2327 47.9899Z" fill="black"></path><path d="M15.4867 59.7783C16.3982 60.4136 16.1358 62.5922 14.8928 63.0929C14.337 63.3208 13.8156 63.0929 13.2148 62.7476C13.7258 62.6786 14.116 62.6475 14.4958 62.5681C14.7413 62.5162 14.9723 62.4107 15.1723 62.2591C15.3722 62.1074 15.5362 61.9135 15.6524 61.6911C15.8182 61.3942 15.8596 61.1111 15.5868 60.8866C15.1794 60.5552 15.2381 60.1961 15.4867 59.7783Z" fill="black"></path><path d="M14.9207 35.3691L15.4179 35.818L15.6907 35.4071C16.3639 35.704 16.3812 35.8249 15.815 36.2634C15.7459 36.215 15.67 36.1632 15.594 36.1045L15.3799 35.9216L14.9207 36.291L14.4512 35.8594L14.9207 35.3691Z" fill="black"></path><path d="M22.696 35.213L21.2597 35.831L21.1941 35.6929L22.1816 35.1577C22.1077 35.103 22.048 35.0315 22.0074 34.949C21.9668 34.8666 21.9465 34.7756 21.9481 34.6837C21.9498 34.5918 21.9735 34.5017 22.0171 34.4208C22.0607 34.3398 22.123 34.2705 22.1988 34.2186C22.2518 34.1711 22.3143 34.1357 22.3823 34.1149C22.4503 34.094 22.522 34.0882 22.5924 34.0978C22.6787 34.1323 22.7409 34.3325 22.7478 34.4637C22.7459 34.7143 22.7286 34.9645 22.696 35.213ZM22.6062 34.405L22.3887 34.2946L22.1436 34.6916L22.4198 34.8366L22.6062 34.405Z" fill="black"></path><path d="M22.7236 57.8724L21.2839 58.5007L21.2183 58.3661L22.078 57.8931C22.009 57.6768 21.9786 57.4501 21.9882 57.2233C22.0642 56.9539 22.2506 56.6605 22.5855 56.7848C22.6891 56.8227 22.696 57.1715 22.7202 57.3786C22.7316 57.543 22.7327 57.7079 22.7236 57.8724ZM22.6166 57.092L22.3818 56.9678C22.2993 57.1034 22.2255 57.244 22.1608 57.389C22.2306 57.4437 22.3058 57.4911 22.3853 57.5305L22.6166 57.092Z" fill="black"></path><path d="M19.7544 63.4228L19.278 62.9084L19.713 62.4043L20.2689 62.8773L19.7544 63.4228Z" fill="black"></path><path d="M18.8532 40.3801L18.3837 39.9071L18.8221 39.4307C19.4954 39.7966 19.4954 39.9382 18.8532 40.3801Z" fill="black"></path><path d="M21.8121 45.5598L22.2472 45.1006C22.8893 45.4459 22.9032 45.5494 22.3197 46.0432L21.8121 45.5598Z" fill="black"></path></g><defs><clipPath id="clip0_9871_1749"><rect width="91.5405" height="37.6099" fill="white" transform="translate(4 31)"></rect></clipPath></defs></svg> 