<?xml version="1.0" encoding="UTF-8"?> <svg xmlns="http://www.w3.org/2000/svg" width="100" height="100" viewBox="0 0 100 100" fill="none"><g clip-path="url(#clip0_9871_652)"><path d="M50 81C67.1208 81 81 67.1208 81 50C81 32.8792 67.1208 19 50 19C32.8792 19 19 32.8792 19 50C19 67.1208 32.8792 81 50 81Z" fill="black"></path><path d="M50 80.7299C66.9719 80.7299 80.7304 66.9714 80.7304 49.9995C80.7304 33.0275 66.9719 19.269 50 19.269C33.028 19.269 19.2695 33.0275 19.2695 49.9995C19.2695 66.9714 33.028 80.7299 50 80.7299Z" fill="white"></path><path d="M49.9999 79.3824C66.2275 79.3824 79.3825 66.2274 79.3825 49.9998C79.3825 33.7722 66.2275 20.6172 49.9999 20.6172C33.7724 20.6172 20.6173 33.7722 20.6173 49.9998C20.6173 66.2274 33.7724 79.3824 49.9999 79.3824Z" fill="black"></path><path d="M50.0001 66.9823C59.3793 66.9823 66.9827 59.3789 66.9827 49.9997C66.9827 40.6205 59.3793 33.0171 50.0001 33.0171C40.6208 33.0171 33.0175 40.6205 33.0175 49.9997C33.0175 59.3789 40.6208 66.9823 50.0001 66.9823Z" fill="white"></path><path d="M50 65.6108C58.6217 65.6108 65.6111 58.6215 65.6111 49.9997C65.6111 41.378 58.6217 34.3887 50 34.3887C41.3782 34.3887 34.3889 41.378 34.3889 49.9997C34.3889 58.6215 41.3782 65.6108 50 65.6108Z" fill="black"></path><path d="M19.5094 46.3604C19.4788 46.5503 19.4499 46.7406 19.4229 46.9311C19.3207 47.9506 19.2695 48.9747 19.2697 49.9994C19.2697 50.7245 19.2954 51.4495 19.3468 52.1728C19.3943 52.6627 19.4535 53.1514 19.5245 53.6384H34.8375C34.5455 52.4473 34.3948 51.2258 34.3887 49.9994C34.3947 48.773 34.5451 47.5515 34.8369 46.3604H19.5094ZM65.1626 46.3604C65.4545 47.5515 65.6049 48.773 65.6109 49.9994C65.6049 51.2258 65.4545 52.4472 65.1626 53.6384H80.4902C80.5208 53.4483 80.5496 53.2579 80.5767 53.0672C80.679 52.0478 80.7304 51.0239 80.7304 49.9994C80.7304 49.274 80.7047 48.549 80.6533 47.8255C80.6058 47.3357 80.5465 46.8472 80.4756 46.3604H65.1626Z" fill="white"></path><path d="M54.899 41.2148C54.899 41.2148 63.6003 48.0197 57.2045 57.7991C63.2285 54.1178 63.7489 43.9942 54.899 41.2148Z" fill="white"></path><path d="M50.0002 40.2476C48.615 41.8094 46.2352 40.2569 47.0533 38.5557C48.4849 41.1214 50.0002 39.0484 50.0002 39.0484C50.0002 39.0484 51.5154 41.1214 52.9471 38.5557C53.7652 40.2569 51.3854 41.8094 50.0002 40.2476Z" fill="white"></path><path d="M50.0001 61.4437L49.0054 60.1422C49.0054 60.1422 46.6628 60.9231 43.5764 59.8447C46.105 59.8447 47.518 59.3985 48.0386 59.1382C48.0386 59.1382 42.3119 56.0519 42.4235 49.7676C42.7581 43.409 46.142 41.4752 46.142 41.4752C46.142 41.4752 40.118 50.2506 48.968 57.5854L48.5776 48.5121V41.8467C49.0796 41.7258 49.9999 40.666 49.9999 40.666C49.9999 40.666 50.9202 41.7258 51.4222 41.8467V48.5121L51.0318 57.5854C59.8814 50.2506 53.8575 41.4746 53.8575 41.4746C53.8575 41.4746 57.2413 43.4083 57.576 49.7671C57.6875 56.0515 51.9609 59.1377 51.9609 59.1377C52.4814 59.3979 53.8945 59.8442 56.4231 59.8442C53.3367 60.9225 50.9941 60.1417 50.9941 60.1417L49.9994 61.4432L50.0001 61.4437Z" fill="white"></path><path d="M45.1012 41.2148C45.1012 41.2148 36.4 48.0197 42.7958 57.7991C36.7718 54.1178 36.2509 43.9942 45.1012 41.2148Z" fill="white"></path><path d="M75.6747 41.889C75.5918 41.9547 75.419 42.052 75.1561 42.1809C74.8953 42.308 74.5981 42.4337 74.2644 42.558C73.9325 42.6842 73.6707 42.7683 73.479 42.8101C73.2893 42.8501 73.1233 42.8571 72.9809 42.831C72.8403 42.8069 72.6585 42.724 72.4357 42.5822C72.2167 42.4408 72.0467 42.3212 71.9258 42.2235C71.8067 42.1278 71.734 42.0651 71.7079 42.0353C71.6859 42.0019 71.6821 41.9736 71.6966 41.9504C71.7132 41.9253 71.7478 41.9107 71.8004 41.9067C71.8799 41.8931 72.0187 41.917 72.2168 41.9786C72.4148 42.0401 72.652 42.1041 72.9284 42.1707C73.2084 42.2376 73.4263 42.2676 73.5821 42.2609C73.7415 42.2542 73.9545 42.2166 74.2209 42.148C74.4873 42.0793 74.7469 42.0007 74.9996 41.9123C75.256 41.8242 75.4319 41.7664 75.5273 41.739C75.6263 41.7117 75.6904 41.7186 75.7196 41.7596C75.7432 41.7986 75.7282 41.842 75.6747 41.889Z" fill="white"></path><path d="M71.7546 39.2947C71.9154 39.2294 72.0602 39.1803 72.1889 39.1473C72.3199 39.1129 72.4325 39.0914 72.5267 39.0829C72.6232 39.0729 72.7008 39.0729 72.7597 39.083C72.8208 39.0915 72.8637 39.1064 72.8884 39.1278L72.675 39.2788C72.4035 39.471 72.265 39.6775 72.2594 39.8982C72.2638 40.0277 72.3062 40.1287 72.3866 40.2012C72.4685 40.2759 72.5611 40.3106 72.6642 40.3055C72.7689 40.3026 72.8801 40.2837 72.9978 40.2489C73.1177 40.2126 73.1883 40.2095 73.2097 40.2397C73.2341 40.2742 73.2095 40.3126 73.136 40.355C73.0181 40.4352 72.8025 40.5328 72.4892 40.6478C72.1796 40.7635 71.898 40.8205 71.6445 40.8188C71.3925 40.8192 71.2019 40.7374 71.0728 40.5733C70.9557 40.3941 70.9576 40.1889 71.0786 39.9577C71.2035 39.7366 71.417 39.524 71.719 39.3199L71.7546 39.2947ZM67.9388 42.0688C67.9819 42.0383 68.1706 42.0034 68.5051 41.9639C68.8395 41.9245 69.0257 41.9156 69.0637 41.9373C69.1234 41.9759 69.14 42.0839 69.1135 42.2612C69.0869 42.4385 69.0539 42.5816 69.0145 42.6904C69.1659 42.6803 69.3348 42.6675 69.5211 42.652C69.7091 42.6386 69.814 42.6452 69.836 42.6717C69.8924 42.7515 69.9021 42.8886 69.8651 43.083C69.8259 43.279 69.7569 43.4168 69.658 43.4965C69.5352 43.5835 69.347 43.6261 69.0934 43.6245C68.8451 43.6256 68.7019 43.5992 68.6637 43.5453C68.6378 43.5087 68.6387 43.4094 68.6664 43.2474C68.6934 43.0891 68.7077 42.9561 68.709 42.8484C68.2342 42.9225 67.9601 42.9078 67.8869 42.8044C67.8686 42.7785 67.8631 42.7274 67.8705 42.651C67.8773 42.5782 67.8859 42.467 67.8963 42.3173C67.9053 42.1654 67.9194 42.0826 67.9388 42.0688Z" fill="white"></path><path d="M72.8261 39.176C72.7008 39.2549 72.5806 39.3206 72.4656 39.3729C72.3528 39.4237 72.2496 39.4562 72.1563 39.4706C72.0644 39.4871 71.9837 39.4827 71.9141 39.4576C71.8445 39.4324 71.79 39.3805 71.7504 39.3017C72.0056 39.1275 72.376 38.9058 72.8615 38.6365C73.3492 38.3656 73.9015 38.0879 74.5184 37.8032C74.7145 37.742 75.0687 37.6482 75.5809 37.5217C75.6319 37.5115 75.6603 37.5173 75.666 37.5391C75.6718 37.5609 75.6617 37.581 75.6358 37.5993C75.4315 37.731 75.0261 37.9582 74.4197 38.2807C73.8133 38.6032 73.4006 38.8291 73.1815 38.9583C72.9639 39.0897 72.8454 39.1622 72.8261 39.176Z" fill="white"></path><path d="M73.757 37.1713C73.8458 37.1424 73.9083 37.1413 73.9446 37.1683C73.9828 37.1933 73.9498 37.242 73.8456 37.3144C73.5437 37.5127 73.2107 37.642 72.8465 37.7022C72.7722 37.7158 72.6854 37.7195 72.5862 37.7133C72.4889 37.7092 72.4126 37.6883 72.3572 37.6506C72.2182 37.683 72.0768 37.7025 71.9332 37.7089C71.7933 37.715 71.6618 37.6622 71.5386 37.5506C71.4693 37.4856 71.3843 37.4547 71.2835 37.4579C71.1845 37.4593 71.1127 37.4627 71.068 37.468C70.7798 37.509 70.5117 37.5381 70.2638 37.5554C70.0584 37.5581 69.9165 37.5009 69.838 37.384C69.7615 37.2688 69.6952 37.1542 69.6393 37.0401C69.6557 36.9686 69.6872 36.9022 69.7338 36.841C69.7804 36.7797 69.8654 36.7219 69.9888 36.6675C70.2829 36.8673 70.5863 36.98 70.8991 37.0054C71.2119 37.0309 71.5378 37.0289 71.8769 36.9994C72.0558 36.9862 72.2147 37.0484 72.3536 37.1859C72.4975 37.3027 72.68 37.3165 72.9013 37.2273C72.9732 37.1969 73.0289 37.1858 73.0684 37.1939C73.093 37.2024 73.1151 37.2194 73.1347 37.2447C73.1562 37.2682 73.1743 37.2835 73.1893 37.2908C73.2329 37.31 73.3084 37.3066 73.4159 37.2807C73.5234 37.2549 73.6371 37.2182 73.757 37.1713Z" fill="white"></path><path d="M69.4343 36.679C69.089 36.7461 68.7916 36.7622 68.542 36.7272C68.1428 36.6857 67.7909 36.6073 67.4865 36.4919C67.1839 36.3783 66.8607 36.2289 66.5166 36.0437C66.1744 35.8566 65.8118 35.616 65.4287 35.3219C65.0476 35.0296 64.7021 34.738 64.392 34.4472C64.1994 34.2665 63.9897 34.0481 63.763 33.792C63.54 33.5357 63.409 33.3242 63.37 33.1573C63.2956 32.8738 63.3993 32.5819 63.6811 32.2815C63.8346 32.1178 64.0343 31.9358 64.2801 31.7355C64.5113 31.5469 64.6471 31.4716 64.6876 31.5095C64.7203 31.5403 64.6802 31.6275 64.5671 31.7712C64.4082 32.0023 64.3792 32.2339 64.48 32.4661C64.5845 32.6981 64.7994 32.992 65.1246 33.3478C65.4536 33.7034 65.7374 33.9932 65.9762 34.2172C66.1708 34.3997 66.4003 34.5988 66.665 34.8145C66.9258 35.0266 67.1984 35.2243 67.4826 35.4076C67.7423 35.5824 68.0305 35.746 68.3473 35.8984C68.6642 36.0508 68.9815 36.1602 69.2993 36.2266C69.619 36.2911 69.8375 36.3187 69.9549 36.3093C70.0307 36.3443 69.994 36.4239 69.8448 36.5482C69.876 36.5884 69.923 36.6271 69.9858 36.6642C70.0023 36.7122 69.9964 36.761 69.9681 36.8105C69.9416 36.858 69.9056 36.9003 69.8601 36.9372C69.8183 36.974 69.7753 37.0025 69.7311 37.0227C69.6869 37.0428 69.6553 37.0475 69.6363 37.0369L69.4343 36.679ZM67.1505 31.9408C67.1866 31.9023 67.3645 31.8303 67.6844 31.7248C68.0042 31.6193 68.1848 31.5734 68.2264 31.587C68.2926 31.6129 68.3304 31.7153 68.3399 31.8944C68.3493 32.0734 68.3456 32.2202 68.3287 32.3347C68.475 32.2945 68.6379 32.2482 68.8175 32.1957C68.9989 32.1451 69.1031 32.1306 69.1299 32.1522C69.2012 32.219 69.2372 32.3524 69.238 32.5522C69.2406 32.7502 69.2014 32.8981 69.1205 32.9959C69.0175 33.1057 68.8416 33.1851 68.5929 33.2341C68.3498 33.2849 68.2041 33.2876 68.156 33.2422C68.1233 33.2115 68.1034 33.115 68.0963 32.9527C68.093 32.7903 68.0812 32.6561 68.061 32.5503C67.6106 32.7179 67.3391 32.7583 67.2467 32.6716C67.2236 32.65 67.208 32.601 67.1999 32.5246C67.192 32.452 67.1772 32.3404 67.1556 32.1898C67.1359 32.041 67.1342 31.9581 67.1505 31.9408Z" fill="white"></path><path d="M62.3745 27.056C62.2999 27.077 62.2371 27.0748 62.186 27.0496C62.135 27.0244 62.1006 26.9939 62.0828 26.9582C62.1372 26.917 62.2252 26.864 62.347 26.7994C62.4687 26.7347 62.6289 26.6722 62.8276 26.6117C63.0328 26.5561 63.2327 26.5164 63.4273 26.4924C63.8083 26.4444 64.0001 26.4167 64.0026 26.4094C64.0123 26.3803 63.9318 26.3141 63.7609 26.2108C63.5901 26.1076 63.4281 26.0303 63.2749 25.9789C63.1291 25.93 63.0193 25.9149 62.9455 25.9334C62.922 25.9391 62.8453 25.9783 62.7155 26.051C62.6043 26.1327 62.5305 26.1552 62.494 26.1187C62.4746 26.104 62.484 26.068 62.5222 26.0105C62.5839 25.9393 62.6858 25.845 62.8279 25.7277C62.9707 25.608 63.105 25.53 63.2307 25.4937C63.3532 25.4591 63.4829 25.4593 63.6199 25.4944C63.7592 25.5303 63.9253 25.6035 64.118 25.7141C64.314 25.8231 64.4618 25.9105 64.5614 25.9763C64.661 26.0421 64.7452 26.1095 64.814 26.1786C64.8771 26.2484 64.8952 26.3234 64.8683 26.4036C64.8064 26.5883 64.5946 26.7242 64.2329 26.8111C64.1202 26.8328 63.9402 26.8495 63.6929 26.8612C63.4465 26.8706 63.1939 26.894 62.9353 26.9317C62.6766 26.9694 62.4897 27.0108 62.3745 27.056ZM60.7287 33.8407C60.7149 33.8821 60.7261 33.9332 60.7625 33.994C60.807 34.063 60.8761 34.1592 60.9699 34.2826C61.063 34.4084 61.1204 34.4749 61.1423 34.4823C61.1957 34.5002 61.3199 34.4202 61.5148 34.2421C61.7088 34.0666 61.825 33.9217 61.8633 33.8074C61.8829 33.7167 61.8458 33.5691 61.7522 33.3646C61.6601 33.1634 61.5695 33.0668 61.4803 33.0747C61.4349 33.0811 61.305 33.1904 61.0906 33.4024C60.8762 33.6144 60.7556 33.7605 60.7287 33.8407Z" fill="white"></path><path d="M62.0756 26.9566C62.1324 26.9405 62.1891 26.9446 62.2458 26.9691C62.3024 26.9937 62.3417 27.0218 62.3636 27.0532C62.4735 27.2738 62.5543 27.4523 62.6059 27.5886C62.66 27.7257 62.6728 27.8368 62.6443 27.9218C62.6214 27.9899 62.5893 28.0494 62.5479 28.1004C62.5065 28.1514 62.4508 28.2044 62.381 28.2594C62.2244 28.3718 62.0804 28.4061 61.9492 28.3621C61.9468 28.3612 61.8852 28.3271 61.7645 28.2596C61.6714 28.1987 61.603 28.1609 61.5592 28.1462C61.4182 28.0989 61.2472 28.1132 61.046 28.1891C60.8311 28.2657 60.6468 28.3878 60.4933 28.5554C60.4787 28.5586 60.4589 28.5614 60.4338 28.5638C60.4054 28.5678 60.3758 28.5673 60.345 28.5624C60.3117 28.5569 60.2805 28.5452 60.2513 28.5273C60.2214 28.5116 60.1976 28.486 60.1797 28.4505C60.4574 28.1786 60.662 27.9958 60.7935 27.9019C60.925 27.8081 61.0552 27.722 61.1843 27.6436C61.3133 27.5652 61.4277 27.4941 61.5275 27.4302C61.5843 27.3898 61.6233 27.3582 61.6444 27.3355C61.7289 27.2206 61.8101 27.1356 61.888 27.0806C61.9676 27.0289 62.0302 26.9873 62.0756 26.9566Z" fill="white"></path><path d="M60.4861 28.5516L60.2498 28.809L59.8586 29.2984C59.805 29.3615 59.7636 29.4085 59.7344 29.4392C59.6881 29.4886 59.6414 29.4987 59.5945 29.4694C59.5677 29.4524 59.5763 29.4025 59.6202 29.3199C59.6576 29.2568 59.6914 29.1964 59.7215 29.1389C59.754 29.0822 59.7853 29.0292 59.8154 28.9798C59.8691 28.8761 59.9008 28.8097 59.9106 28.7805C59.957 28.642 59.9584 28.5127 59.9149 28.3926C59.8664 28.271 59.7669 28.1849 59.6162 28.1343C59.4922 28.109 59.3373 28.1598 59.1514 28.2868C58.9282 28.4607 58.6815 28.6037 58.4114 28.716L58.1145 28.8273C58.1415 28.6823 58.1851 28.5441 58.2453 28.4129C58.3031 28.2809 58.3852 28.157 58.4916 28.0412C58.5304 28.0624 58.5811 28.0806 58.6435 28.096C58.7084 28.112 58.7871 28.1033 58.8795 28.0696C58.9784 28.0406 59.0758 27.9962 59.1715 27.9363C59.2543 27.883 59.3363 27.828 59.4174 27.7714C59.501 27.7156 59.5822 27.659 59.6609 27.6016C59.8597 27.4844 60.0393 27.4526 60.1998 27.5064C60.3407 27.5537 60.4407 27.6548 60.4996 27.8097C60.5278 27.9192 60.5479 28.0043 60.56 28.0652C60.5728 28.1235 60.5837 28.1758 60.5925 28.2221C60.5973 28.2642 60.5952 28.2987 60.5863 28.3254C60.5667 28.3837 60.5521 28.4235 60.5423 28.4445C60.535 28.4664 60.5256 28.4862 60.5142 28.5041C60.5061 28.5202 60.4967 28.5362 60.4861 28.5516Z" fill="white"></path><path d="M58.1382 29.1076C57.8937 29.4177 57.6886 29.6382 57.523 29.7693C57.3574 29.9003 57.2361 29.9759 57.1591 29.996C57.0853 30.0146 56.9787 30.0261 56.8392 30.0307C56.6998 30.0354 56.4886 30.0363 56.2057 30.0333C55.926 30.0288 55.7631 30.0188 55.7169 30.0033C55.6878 29.9935 55.6756 29.9814 55.6805 29.9668C55.6644 29.9181 55.8586 29.8386 56.2633 29.7283C56.6713 29.6163 56.9341 29.5421 57.0517 29.5059C57.1725 29.468 57.3052 29.3989 57.4496 29.2986C57.5965 29.1991 57.7212 29.0733 57.8236 28.9211C57.7976 28.9098 57.77 28.9034 57.7408 28.9018C57.7141 28.901 57.6857 28.9009 57.6557 28.9016C57.6281 28.9032 57.5994 28.9044 57.5694 28.9051C57.5402 28.9035 57.5135 28.8985 57.4891 28.8904C57.3547 28.8397 57.2552 28.7576 57.1904 28.6443C57.129 28.529 57.1227 28.4228 57.1715 28.3256C57.2065 28.2698 57.2512 28.205 57.3056 28.1313C57.3625 28.0585 57.4644 27.948 57.6114 27.7999C57.7592 27.6493 57.8964 27.5304 58.023 27.4431C58.152 27.3566 58.2603 27.328 58.3478 27.3573C58.4985 27.4078 58.6021 27.5142 58.6585 27.6764C58.7158 27.8362 58.7143 28.006 58.654 28.1859C58.6239 28.2758 58.5877 28.3637 58.5454 28.4496C58.5055 28.5362 58.4693 28.6079 58.4368 28.6646C58.4051 28.7189 58.3612 28.7893 58.3051 28.876C58.2498 28.9602 58.1943 29.0372 58.1382 29.1076Z" fill="white"></path><path d="M56.5949 27.1415C56.5575 27.2371 56.4599 27.4031 56.3022 27.6396C56.1454 27.8736 55.9573 28.1241 55.738 28.3913C55.5211 28.6592 55.3424 28.8575 55.2019 28.9862C55.0623 29.1124 54.9264 29.1993 54.7941 29.2469C54.6644 29.2954 54.4714 29.3145 54.2153 29.3043C53.9624 29.2925 53.7613 29.2752 53.6122 29.2522C53.4655 29.2301 53.374 29.2129 53.3375 29.2007C53.3028 29.1833 53.2858 29.1614 53.2865 29.1349C53.2882 29.1057 53.3101 29.0766 53.3524 29.0475C53.4124 28.9973 53.5406 28.9497 53.7368 28.9046C53.9331 28.8596 54.1634 28.7976 54.4278 28.7186C54.6955 28.638 54.893 28.5568 55.0204 28.4752C55.1511 28.3919 55.3114 28.2564 55.5014 28.0686C55.6914 27.8809 55.8709 27.6882 56.0399 27.4907C56.2121 27.2916 56.3314 27.1572 56.398 27.0876C56.4679 27.0164 56.5251 26.991 56.5696 27.0113C56.6085 27.0325 56.6169 27.0759 56.5949 27.1415Z" fill="white"></path><path d="M53.8109 24.7428C53.7916 24.8395 53.7635 24.932 53.7266 25.0203C53.6922 25.1087 53.6334 25.2321 53.55 25.3903C53.4692 25.5487 53.4207 25.6391 53.4044 25.6615C53.339 25.7564 53.2833 25.8029 53.2371 25.801C53.2048 25.7767 53.1749 25.7536 53.1476 25.732C53.1229 25.7079 53.099 25.6954 53.076 25.6945C52.9786 25.6906 52.849 25.7251 52.687 25.7981C52.5275 25.8712 52.3495 25.991 52.1529 26.1575C51.959 26.3216 51.8065 26.4771 51.6954 26.624C51.5844 26.7683 51.5278 26.8686 51.5255 26.925C51.5221 27.0095 51.5463 27.0759 51.5983 27.1242C51.6429 27.1619 51.7232 27.2062 51.8392 27.257C51.9577 27.308 52.0356 27.3496 52.0728 27.3819C52.1948 27.4741 52.2505 27.6495 52.2401 27.9082C52.2258 28.2642 52.1414 28.67 51.9871 29.1256C51.8354 29.5787 51.6439 29.9699 51.4125 30.2992C51.2935 30.451 51.1553 30.6019 50.9979 30.752C50.8429 30.9049 50.6773 31.0341 50.5012 31.1399C50.162 31.3443 49.7772 31.4378 49.3469 31.4205C48.858 31.3931 48.4932 31.2129 48.2527 30.8799C48.144 30.7113 48.0716 30.534 48.0355 30.3478C47.9994 30.1616 47.9847 29.9853 47.9914 29.8188C47.9999 29.6087 48.0236 29.4032 48.0625 29.2021C48.1014 29.0009 48.1569 28.8005 48.2291 28.6007C48.3423 28.2743 48.4756 27.9603 48.6289 27.6586C48.7847 27.357 48.9113 27.1133 49.0086 26.9274L49.3008 26.3619C49.3341 26.2991 49.3686 26.2376 49.4044 26.1775C49.4428 26.1175 49.476 26.088 49.5042 26.0892C49.5426 26.0907 49.5606 26.1222 49.5581 26.1837C49.5582 26.2453 49.5499 26.2911 49.5333 26.3212C49.4879 26.4297 49.4483 26.5218 49.4144 26.5974C49.3807 26.6704 49.3302 26.7774 49.2629 26.9184C49.1958 27.0568 49.123 27.2077 49.0446 27.3713C48.9662 27.5324 48.9018 27.6658 48.8514 27.7715C48.6018 28.3618 48.471 28.8067 48.4589 29.1064C48.4462 29.4215 48.5475 29.6757 48.7629 29.8691C48.9809 30.0626 49.2935 30.1676 49.7008 30.184C50.0389 30.1977 50.3687 30.1314 50.6901 29.9853C50.9305 29.877 51.1323 29.7415 51.2953 29.5787C51.461 29.4161 51.5877 29.2621 51.6757 29.1169C51.7637 28.9716 51.81 28.8401 51.8148 28.7222C51.8178 28.648 51.7649 28.592 51.6561 28.5542C51.5499 28.5142 51.4727 28.488 51.4245 28.4756C51.3764 28.4608 51.3222 28.4368 51.2619 28.4037C51.1463 28.3426 51.0596 28.2672 51.0016 28.1777C50.9437 28.0881 50.9177 27.969 50.9237 27.8205C50.9329 27.5925 51.0175 27.3073 51.1775 26.9648C51.3403 26.6199 51.5629 26.2838 51.8455 25.9566C52.0769 25.6888 52.2858 25.4727 52.472 25.3083C52.5729 25.2226 52.6999 25.1264 52.8531 25.0197C53.0087 24.9131 53.1586 24.8217 53.3028 24.7454C53.481 24.6525 53.6204 24.6004 53.7209 24.589C53.7619 24.5907 53.7894 24.6098 53.8033 24.6462C53.8173 24.6802 53.8198 24.7124 53.8109 24.7428Z" fill="white"></path><path d="M46.9013 25.8324C46.9054 26.1225 46.9107 26.3834 46.9172 26.6148C46.9262 26.8434 46.9255 27.038 46.915 27.1983C46.9006 27.5427 46.8497 27.8504 46.7623 28.1212C46.6774 28.3893 46.608 28.5687 46.554 28.6593C46.5026 28.7499 46.4594 28.816 46.4242 28.8578C46.3838 28.8998 46.3513 28.9149 46.3267 28.9029C46.3048 28.8907 46.2957 28.8685 46.2994 28.8364C46.299 28.8284 46.3167 28.7063 46.3526 28.47C46.3885 28.2338 46.4062 28.0064 46.4057 27.788C46.4078 27.5668 46.3946 27.2571 46.3663 26.8589C46.3379 26.4581 46.3315 26.1507 46.3473 25.9368C46.357 25.8138 46.377 25.6849 46.4075 25.5501C46.4379 25.4154 46.4738 25.2843 46.5153 25.157C46.5593 25.0269 46.6049 24.9033 46.6522 24.7864C46.6995 24.6694 46.7435 24.5659 46.7842 24.4759C46.8186 24.4183 46.8494 24.3954 46.8767 24.4073C46.9038 24.4166 46.9168 24.4373 46.9158 24.4693C46.9114 24.4881 46.9069 24.5296 46.9022 24.5938C46.9 24.6552 46.8971 24.73 46.8936 24.8181C46.8926 24.9034 46.892 24.9953 46.8917 25.0939C46.8914 25.1925 46.891 25.2897 46.8906 25.3857C46.8927 25.4788 46.8944 25.5653 46.8958 25.6451C46.8972 25.725 46.899 25.7872 46.9013 25.8324Z" fill="white"></path><path d="M42.3742 27.0595C42.4231 27.1946 42.4606 27.2942 42.4866 27.3583C42.5201 27.4509 42.5848 27.5633 42.6808 27.6955C42.7674 27.7943 42.8769 27.8622 43.0091 27.8993C43.1363 27.9381 43.285 27.9268 43.4552 27.8652C43.6878 27.7811 43.8486 27.6507 43.9376 27.4742C44.0571 27.2415 44.1431 27.1 44.1957 27.0498C44.2319 27.0169 44.2785 26.9971 44.3355 26.9904C44.3941 26.9805 44.4526 26.9623 44.5109 26.9358C44.5785 26.9114 44.6147 26.812 44.6195 26.6376C44.6234 26.4608 44.6344 26.362 44.6524 26.3414C44.6704 26.3207 44.6957 26.3086 44.7284 26.305C44.8268 26.3033 44.8923 26.2966 44.9248 26.2849C44.9898 26.2613 45.0303 26.1972 45.0461 26.0924C45.0553 26.0551 45.0593 25.9646 45.0582 25.8207C45.0568 25.6995 45.0674 25.6349 45.0899 25.6267C45.1199 25.6159 45.1471 25.6442 45.1716 25.7118C45.2639 25.967 45.2797 26.2413 45.219 26.5349C45.1532 26.8303 45.0416 27.0065 44.884 27.0636C44.8339 27.2458 44.8041 27.3471 44.7945 27.3675C44.7369 27.5213 44.6669 27.6132 44.5843 27.643C44.4963 27.6579 44.4248 27.6752 44.3697 27.6951C44.3147 27.7151 44.2613 27.7513 44.2097 27.804C44.1455 27.8612 44.0585 28.0666 43.9488 28.4204C43.8373 28.7691 43.659 28.9878 43.4138 29.0765C43.1486 29.1725 42.9109 29.1255 42.7007 28.9356C42.5015 28.7445 42.3398 28.4776 42.2158 28.1349C42.1779 27.8345 42.1653 27.5845 42.1779 27.3847C42.1852 27.1783 42.224 27.0624 42.294 27.0371C42.309 27.0317 42.3359 27.0394 42.3742 27.0595Z" fill="white"></path><path d="M42.283 26.7477C42.3314 26.8971 42.3878 27.0804 42.4523 27.2976C42.5183 27.5114 42.5659 27.6625 42.5951 27.751C42.6894 28.0508 42.7477 28.3098 42.7701 28.528C42.794 28.7429 42.8073 28.9163 42.8098 29.0484C42.8155 29.1736 42.8147 29.3239 42.8073 29.4991C42.8016 29.671 42.7732 29.8623 42.7222 30.0732C42.6727 30.2806 42.6107 30.4573 42.5362 30.6031C42.4153 30.8165 42.2569 30.9573 42.0608 31.0254C41.9564 31.0573 41.8543 31.0645 41.7546 31.0471C41.6581 31.0227 41.5624 30.9851 41.4677 30.9345C41.3896 30.9062 41.3403 30.8872 41.3198 30.8776C41.2501 30.8491 41.2057 30.8086 41.1867 30.756C41.1731 30.7185 41.1761 30.6679 41.1955 30.6043C41.2158 30.5432 41.2389 30.474 41.2647 30.3968C41.2764 30.3586 41.2901 30.3027 41.3059 30.2291C41.3217 30.1555 41.3253 30.0636 41.3166 29.9536C41.3104 29.8427 41.2871 29.704 41.2467 29.5375C41.2029 29.3695 41.1626 29.227 41.126 29.1101L41.011 28.757C40.9701 28.636 40.9244 28.5097 40.8739 28.378C40.7565 28.03 40.6807 27.633 40.6467 27.1869C40.6256 26.8862 40.6172 26.4719 40.6215 25.9441C40.6231 25.9095 40.6271 25.8854 40.6335 25.8718C40.6415 25.8547 40.6492 25.8449 40.6567 25.8421C40.6826 25.8354 40.7197 25.9027 40.7679 26.0438C40.7873 26.1132 40.8192 26.2248 40.8635 26.3785C40.9062 26.5356 40.934 26.6359 40.9469 26.6793L41.3525 28.1878C41.4084 28.3656 41.4595 28.5734 41.506 28.8113C41.5472 29.0425 41.5703 29.2747 41.5754 29.5077C41.5874 29.8457 41.5551 30.1516 41.4788 30.4254C41.4917 30.4377 41.5244 30.4343 41.577 30.4153L41.7224 30.3715C41.9303 30.3048 42.1074 30.1531 42.2537 29.9162C42.4016 29.676 42.4705 29.4558 42.4604 29.2558C42.4519 29.0523 42.4166 28.8571 42.3546 28.6701C42.2267 28.2383 42.1137 27.8633 42.0155 27.5451C41.9165 27.2244 41.8479 26.9606 41.8099 26.7537C41.7718 26.5468 41.7466 26.3168 41.7343 26.0638C41.7236 25.8074 41.7289 25.4702 41.7503 25.0522C41.7592 25.0065 41.775 24.9838 41.7978 24.9841C41.818 24.9853 41.8627 25.136 41.9317 25.4364C41.9999 25.7343 42.1169 26.1712 42.283 26.7477Z" fill="white"></path><path d="M37.5442 29.8973C37.5596 29.8069 37.5904 29.6769 37.6366 29.5074C37.6828 29.3379 37.74 29.1715 37.8082 29.0082C37.8755 28.8423 37.9499 28.6881 38.0313 28.5455C38.1186 28.4036 38.1715 28.2996 38.19 28.2334C38.2121 28.1773 38.2173 28.133 38.2056 28.1005C38.1956 28.073 38.151 28.0552 38.0716 28.0471C37.9905 28.034 37.947 27.9959 37.9412 27.933L37.9831 27.3449C38.0065 27.2063 38.0255 27.0749 38.04 26.9508C38.075 26.8052 38.1314 26.7225 38.2092 26.7029C38.4732 26.6583 38.6938 26.662 38.871 26.7139C39.0498 26.7623 39.1582 26.8391 39.1962 26.9442C39.2524 27.0993 39.2444 27.2847 39.1725 27.5003C39.1076 27.7275 39.0174 27.9044 38.9019 28.0311C38.8013 28.1439 38.7166 28.2424 38.6481 28.3266C38.5811 28.4074 38.5255 28.4728 38.4814 28.5227C38.3199 28.7254 38.2053 28.8857 38.1376 29.0036C38.0699 29.1215 38.0033 29.2658 37.9377 29.4366C37.8713 29.605 37.8402 29.7223 37.8444 29.7887C37.7629 29.8918 37.6628 29.928 37.5442 29.8973Z" fill="white"></path><path d="M38.6586 31.3827C38.636 31.3202 38.4669 31.2752 38.1515 31.2479C37.8301 31.2198 37.6364 31.1145 37.5703 30.9319C37.5223 30.7993 37.4973 30.64 37.4951 30.454C37.4945 30.2647 37.5083 30.08 37.5365 29.9C37.545 29.8687 37.562 29.8413 37.5875 29.8179C37.6155 29.7936 37.6445 29.7761 37.6745 29.7652C37.707 29.7534 37.7381 29.7493 37.7676 29.7528C37.7972 29.7563 37.819 29.7696 37.833 29.7928C37.852 29.8453 37.9136 29.8824 38.0176 29.9042C38.1217 29.926 38.2276 29.9527 38.3353 29.9845C38.4446 30.0129 38.5325 30.0603 38.599 30.1268C38.6673 30.1983 38.7322 30.3191 38.7937 30.4892C38.8833 30.7369 38.9422 31.0014 38.9704 31.2826C38.9993 31.5579 38.9944 31.912 38.9557 32.3447C38.8887 33.0197 38.6828 33.612 38.338 34.1215C38.2052 34.294 38.0662 34.4377 37.921 34.5525C37.7626 34.6777 37.5796 34.7778 37.3719 34.853C36.889 35.0277 36.4523 34.9819 36.0618 34.7158C35.7303 34.4877 35.4777 34.1335 35.3039 33.6531C35.2269 33.4405 35.1711 33.1452 35.1362 32.7674C35.105 32.3995 35.0943 32.0766 35.1041 31.7986C35.1177 31.5079 35.1308 31.2627 35.1434 31.0629C35.1515 31.0147 35.1601 30.9408 35.1694 30.8413C35.1811 30.7408 35.1951 30.6113 35.2113 30.4527C35.2228 30.3438 35.231 30.2531 35.2359 30.1806C35.2433 30.1072 35.2525 30.0388 35.2635 29.9754C35.2874 29.8536 35.3148 29.7885 35.3457 29.7802C35.391 29.7723 35.4181 29.812 35.427 29.8993C35.4405 29.9991 35.4444 30.0882 35.4388 30.1666C35.3963 30.8781 35.3693 31.3745 35.358 31.6558C35.3414 32.1654 35.3775 32.5428 35.4662 32.788C35.6328 33.2484 35.8949 33.527 36.2525 33.624C36.5124 33.6856 36.81 33.6557 37.1453 33.5344C37.7457 33.3172 38.1875 32.9664 38.4706 32.482C38.7118 32.0694 38.7745 31.7029 38.6586 31.3827Z" fill="white"></path><path d="M32.177 31.5976C32.3747 31.8204 32.5537 32.0196 32.7139 32.1952C32.8742 32.3669 33.004 32.5186 33.1034 32.6503C33.3231 32.9277 33.4898 33.201 33.6034 33.4702C33.7171 33.7355 33.7834 33.9215 33.8022 34.0282C33.823 34.133 33.8337 34.2134 33.8344 34.2694C33.8311 34.3292 33.8159 34.3627 33.7886 34.3698C33.7634 34.375 33.7414 34.3639 33.7227 34.3364C33.7171 34.3304 33.649 34.2236 33.5185 34.0159C33.388 33.8081 33.2494 33.6195 33.1025 33.45C32.9558 33.2767 32.738 33.0447 32.449 32.7542C32.1582 32.4616 31.9472 32.2269 31.816 32.0501C31.7411 31.9479 31.6702 31.8342 31.6036 31.7091C31.5369 31.5839 31.477 31.458 31.4238 31.3312C31.3708 31.2006 31.3234 31.0739 31.2818 30.9512C31.2402 30.8286 31.205 30.7186 31.1763 30.6214C31.1643 30.5535 31.173 30.5151 31.2021 30.5061C31.2294 30.4951 31.2534 30.5024 31.2741 30.528C31.2833 30.5456 31.3076 30.5809 31.347 30.634C31.3864 30.6832 31.4343 30.7432 31.4907 30.814C31.5471 30.881 31.6082 30.9529 31.6741 31.0297C31.74 31.1066 31.8049 31.1824 31.8689 31.2573C31.9329 31.3283 31.9923 31.3944 32.0469 31.4555C32.1015 31.5167 32.1449 31.564 32.177 31.5976Z" fill="white"></path><path d="M31.1277 32.112C31.4834 32.7808 31.6137 33.2493 31.5187 33.5176C31.3809 33.8873 31.3031 34.1203 31.2855 34.2165C31.2717 34.3127 31.2672 34.3812 31.2721 34.4219C31.2921 34.5614 31.3357 34.7237 31.403 34.9088C31.5439 35.2501 31.6489 35.5162 31.718 35.7071C31.8136 36.0048 31.8071 36.2886 31.6986 36.5585C31.6398 36.6828 31.5475 36.8294 31.422 36.9985C31.2961 37.183 31.1887 37.3177 31.0998 37.4026C31.0304 37.4841 30.965 37.5126 30.9037 37.488C30.8714 37.466 30.8651 37.4001 30.885 37.2905C30.8918 37.2501 30.9063 37.1645 30.9286 37.0336C30.9509 36.9027 31.0013 36.6808 31.0799 36.3677C31.134 36.1158 31.1599 35.9967 31.1576 36.0101C31.2106 35.7216 31.2272 35.5017 31.2074 35.3506C31.2027 35.306 31.1303 35.0919 30.9903 34.7081C30.8561 34.3226 30.781 34.0601 30.7648 33.9206C30.7488 33.7773 30.7663 33.6 30.8175 33.3886C30.8424 33.3119 30.886 33.1816 30.9481 32.9975C31.0058 32.8404 31.0394 32.7214 31.049 32.6405C31.0565 32.5653 31.0362 32.4373 30.9882 32.2566C30.942 32.0778 30.9337 31.9782 30.9631 31.9576C30.9983 31.9391 31.0532 31.9906 31.1277 32.112ZM34.5623 38.8145C34.5792 38.8323 34.6651 38.8352 34.82 38.8233C34.9767 38.8095 35.0929 38.8005 35.1683 38.7964C35.2476 38.7924 35.299 38.7791 35.3227 38.7565C35.4175 38.6659 35.3911 38.3832 35.2436 37.9085C35.354 37.8936 35.4923 37.8881 35.6583 37.8919C35.8282 37.8958 35.93 37.8817 35.9635 37.8496C36.0129 37.8024 36.0183 37.6519 35.9796 37.3979C35.9431 37.1382 35.871 36.9521 35.7634 36.8395C35.6669 36.7504 35.5155 36.7006 35.309 36.6901C35.1044 36.6815 34.9656 36.7122 34.8925 36.782C34.8686 36.8084 34.8777 36.9168 34.9199 37.1072C34.9639 37.2956 35.0025 37.4664 35.0357 37.6198C34.9184 37.5959 34.767 37.5837 34.5816 37.5834C34.3962 37.583 34.2882 37.6163 34.2577 37.6832C34.2412 37.7253 34.2785 37.9145 34.3693 38.2508C34.4602 38.5871 34.5245 38.775 34.5623 38.8145Z" fill="white"></path><path d="M28.5156 35.0952C28.7133 35.318 28.8923 35.5172 29.0525 35.6927C29.2128 35.8645 29.3427 36.0162 29.442 36.1479C29.6617 36.4253 29.8284 36.6986 29.942 36.9677C30.0558 37.2331 30.122 37.4191 30.1408 37.5257C30.1616 37.6305 30.1724 37.7109 30.173 37.767C30.1697 37.8268 30.1545 37.8603 30.1273 37.8673C30.102 37.8725 30.08 37.8614 30.0613 37.8339C30.0557 37.828 29.9876 37.7212 29.8571 37.5134C29.7266 37.3057 29.588 37.1171 29.4412 36.9476C29.2944 36.7742 29.0766 36.5423 28.7877 36.2517C28.4968 35.9592 28.2858 35.7245 28.1546 35.5476C28.0797 35.4455 28.0089 35.3318 27.9422 35.2066C27.8755 35.0815 27.8156 34.9555 27.7624 34.8288C27.7094 34.6981 27.6621 34.5715 27.6204 34.4488C27.5788 34.3262 27.5436 34.2162 27.5149 34.119C27.503 34.0511 27.5116 34.0126 27.5407 34.0036C27.568 33.9927 27.592 34 27.6127 34.0256C27.6219 34.0431 27.6462 34.0785 27.6856 34.1316C27.725 34.1807 27.7729 34.2407 27.8293 34.3116C27.8857 34.3786 27.9469 34.4505 28.0127 34.5273C28.0786 34.6042 28.1435 34.68 28.2075 34.7549C28.2715 34.8259 28.3309 34.892 28.3855 34.9531C28.4401 35.0142 28.4835 35.0616 28.5156 35.0952Z" fill="white"></path><path d="M27.0885 38.4577C27.157 38.5057 27.2143 38.5756 27.2605 38.6674C27.3087 38.7574 27.3515 38.8694 27.389 39.0036C27.4266 39.1339 27.4418 39.2723 27.4346 39.419C27.4305 39.5135 27.4137 39.575 27.3841 39.6033C27.3663 39.6203 27.3003 39.6342 27.1861 39.6451C27.0738 39.6542 26.9713 39.6615 26.8784 39.6671C26.7856 39.6727 26.7034 39.6757 26.6319 39.676C26.5604 39.6762 26.5133 39.6645 26.4907 39.6409C26.4547 39.5241 26.4258 39.4365 26.404 39.3781C26.3349 39.1872 26.2843 39.0334 26.2522 38.9168C26.2221 38.7983 26.1817 38.6196 26.1311 38.3809C26.226 38.3733 26.3411 38.3634 26.4766 38.3511C26.6141 38.3368 26.7301 38.3356 26.8245 38.3474C26.9188 38.3592 27.0069 38.396 27.0885 38.4577ZM28.0144 36.7402C28.8497 37.7213 29.3443 38.7787 29.4981 39.9123C29.639 41.0205 29.3756 41.8992 28.7078 42.5486C28.3432 42.8667 27.9554 43.0163 27.5443 42.9973C27.1371 42.9783 26.7446 42.783 26.3667 42.4112C25.7874 41.8087 25.3594 40.9635 25.0829 39.8754C25.024 39.6596 25.0261 39.5708 25.0889 39.6089C25.1538 39.6452 25.2028 39.6984 25.236 39.7687C25.4714 40.541 25.7673 41.1196 26.1237 41.5044C26.4072 41.7775 26.7145 41.8975 27.0456 41.8645C27.3787 41.8296 27.7079 41.668 28.0332 41.3799C28.4183 41.012 28.6914 40.5565 28.8525 40.0135C28.9815 39.4407 28.9283 38.8928 28.693 38.3697C28.6161 38.1825 28.4701 37.9763 28.255 37.7512C28.1739 37.6663 28.0691 37.5586 27.9407 37.4282C27.8143 37.2959 27.7247 37.2021 27.6719 37.1468C27.5271 36.9716 27.3939 36.7551 27.2723 36.4973C27.1488 36.2375 27.0653 36.0434 27.0219 35.9149C26.9804 35.7846 26.9745 35.7052 27.0041 35.6769C27.0259 35.6562 27.0564 35.6704 27.0959 35.7196C27.1373 35.7669 27.2173 35.8585 27.3359 35.9945C27.4545 36.1305 27.6807 36.3791 28.0144 36.7402Z" fill="white"></path><path d="M29.6811 57.8627C29.9124 57.7452 30.1241 57.6811 30.3162 57.6705C30.458 57.6634 30.5975 57.6808 30.7345 57.7228C30.8721 57.7659 30.9901 57.8294 31.0885 57.9132C31.2203 58.0242 31.3332 58.1721 31.4272 58.3569C31.5972 58.6914 31.6294 59.0116 31.5237 59.3174C31.4185 59.6242 31.1811 59.8716 30.8115 60.0595C30.445 60.2458 30.1073 60.2921 29.7984 60.1983C29.4907 60.104 29.252 59.8901 29.0825 59.5566C28.9108 59.219 28.8771 58.8984 28.9813 58.5946C29.0864 58.2904 29.3197 58.0465 29.6811 57.8627ZM29.9367 58.3272C29.6796 58.4579 29.5147 58.6165 29.4418 58.8029C29.37 58.9889 29.3806 59.1732 29.4735 59.3559C29.5664 59.5387 29.7081 59.6551 29.8985 59.7051C30.0905 59.7556 30.3181 59.7139 30.5814 59.5801C30.8416 59.4478 31.0066 59.2918 31.0763 59.1122C31.1466 58.9335 31.1337 58.7497 31.0377 58.5608C30.9416 58.3718 30.7992 58.2526 30.6103 58.2031C30.4225 58.1531 30.1979 58.1944 29.9367 58.3272Z" fill="white" stroke="white" stroke-width="0.0992704" stroke-linecap="round" stroke-linejoin="round"></path><path d="M29.9009 60.9755L32.0369 59.5884L32.9879 61.0527L32.6265 61.2874L31.9557 60.2543L31.4501 60.5827L32.0291 61.4744L31.6678 61.7091L31.0887 60.8173L30.181 61.4068L29.9009 60.9755Z" fill="white" stroke="white" stroke-width="0.0992704" stroke-linecap="round" stroke-linejoin="round"></path><path d="M31.1062 62.7868L33.1048 61.208L34.1871 62.5781L33.849 62.8452L33.0855 61.8786L32.6124 62.2523L33.2715 63.0866L32.9334 63.3537L32.2743 62.5194L31.425 63.1903L31.1062 62.7868Z" fill="white" stroke="white" stroke-width="0.0992704" stroke-linecap="round" stroke-linejoin="round"></path><path d="M32.4708 64.4545L34.3589 62.7451L34.7041 63.1263L32.816 64.8357L32.4708 64.4545Z" fill="white" stroke="white" stroke-width="0.0992704" stroke-linecap="round" stroke-linejoin="round"></path><path d="M34.9633 65.6492L35.216 66.1072C34.9692 66.2561 34.7344 66.3183 34.5118 66.2938C34.2908 66.2692 34.0811 66.1628 33.8829 65.9746C33.6377 65.7417 33.5154 65.4667 33.5162 65.1496C33.5179 64.8317 33.6566 64.5274 33.9325 64.2368C34.2244 63.9294 34.5303 63.7663 34.8501 63.7473C35.1708 63.7276 35.4605 63.8405 35.7192 64.0861C35.9451 64.3007 36.0652 64.5417 36.0795 64.8092C36.0885 64.9679 36.0439 65.1411 35.9455 65.3288L35.4926 65.0665C35.5617 64.95 35.5877 64.831 35.5706 64.7093C35.5544 64.5885 35.4967 64.481 35.3976 64.3869C35.2607 64.2569 35.1027 64.2004 34.9238 64.2173C34.7456 64.2351 34.5521 64.354 34.3431 64.574C34.1214 64.8075 34.0055 65.0137 33.9954 65.1925C33.9853 65.3714 34.0474 65.5246 34.1818 65.6522C34.2809 65.7463 34.3961 65.7958 34.5273 65.8006C34.6585 65.8053 34.8038 65.7548 34.9633 65.6492Z" fill="white" stroke="white" stroke-width="0.0992704" stroke-linecap="round" stroke-linejoin="round"></path><path d="M35.0242 66.9534L36.5744 64.9326L38.0728 66.0821L37.8105 66.4239L36.7202 65.5875L36.3765 66.0355L37.391 66.8138L37.1298 67.1543L36.1153 66.3759L35.6934 66.9259L36.8223 67.792L36.5611 68.1325L35.0242 66.9534Z" fill="white" stroke="white" stroke-width="0.0992704" stroke-linecap="round" stroke-linejoin="round"></path><path d="M38.2672 67.7689C38.3922 67.5415 38.5311 67.3694 38.6839 67.2525C38.7971 67.1667 38.9222 67.1027 39.0592 67.0603C39.1971 67.0185 39.3304 67.0045 39.4589 67.0184C39.6303 67.0359 39.8069 67.0946 39.9885 67.1945C40.3174 67.3753 40.5242 67.6218 40.609 67.934C40.6948 68.2468 40.6378 68.5849 40.438 68.9483C40.24 69.3086 39.9869 69.5369 39.6789 69.6333C39.3714 69.7286 39.0538 69.6862 38.7259 69.506C38.394 69.3235 38.1856 69.0775 38.1008 68.7678C38.0164 68.4571 38.0719 68.1241 38.2672 67.7689ZM38.7399 68.0089C38.601 68.2617 38.5539 68.4856 38.5987 68.6807C38.644 68.8748 38.7565 69.0212 38.9361 69.1199C39.1158 69.2187 39.2984 69.2351 39.4839 69.1692C39.6711 69.1029 39.8358 68.9404 39.978 68.6815C40.1186 68.4257 40.1672 68.204 40.1237 68.0162C40.0812 67.8289 39.9671 67.6843 39.7814 67.5822C39.5956 67.4801 39.4108 67.4617 39.2268 67.5271C39.0434 67.5915 38.8811 67.7522 38.7399 68.0089Z" fill="white" stroke="white" stroke-width="0.0992704" stroke-linecap="round" stroke-linejoin="round"></path><path d="M40.2006 70.2179L41.1845 67.8687L42.795 68.5432L42.6285 68.9406L41.4924 68.4647L41.2595 69.0208L42.2402 69.4315L42.0737 69.829L41.093 69.4182L40.6749 70.4165L40.2006 70.2179Z" fill="white" stroke="white" stroke-width="0.0992704" stroke-linecap="round" stroke-linejoin="round"></path><path d="M43.7053 71.4911L44.2505 69.4465L43.5203 69.2518L43.6313 68.8354L45.5869 69.3569L45.4759 69.7732L44.7474 69.579L44.2022 71.6236L43.7053 71.4911Z" fill="white" stroke="white" stroke-width="0.0992704" stroke-linecap="round" stroke-linejoin="round"></path><path d="M45.2603 71.8885L45.6627 69.3735L46.1705 69.4548L46.0121 70.4447L47.0071 70.6039L47.1655 69.6141L47.6733 69.6954L47.2708 72.2103L46.763 72.129L46.939 71.0294L45.944 70.8701L45.768 71.9698L45.2603 71.8885Z" fill="white" stroke="white" stroke-width="0.0992704" stroke-linecap="round" stroke-linejoin="round"></path><path d="M47.8033 72.2616L47.9393 69.7183L49.8251 69.8191L49.8021 70.2494L48.4298 70.176L48.3997 70.7399L49.6766 70.8082L49.6536 71.2367L48.3768 71.1684L48.3398 71.8606L49.7606 71.9365L49.7377 72.3651L47.8033 72.2616Z" fill="white" stroke="white" stroke-width="0.0992704" stroke-linecap="round" stroke-linejoin="round"></path><path d="M51.1665 72.3347L50.9417 69.7977L51.7637 69.7249C52.0752 69.6972 52.2793 69.6919 52.3762 69.7089C52.5249 69.7342 52.654 69.8064 52.7634 69.9258C52.8727 70.044 52.9363 70.2041 52.9542 70.406C52.968 70.5617 52.9514 70.6951 52.9043 70.8063C52.8571 70.9175 52.7924 71.0075 52.7102 71.0764C52.629 71.1441 52.5442 71.1917 52.456 71.2193C52.3358 71.2544 52.1598 71.2822 51.9279 71.3027L51.5939 71.3323L51.6787 72.2893L51.1665 72.3347ZM51.4919 70.1815L51.5557 70.9014L51.8361 70.8766C52.038 70.8587 52.1718 70.8334 52.2375 70.8008C52.3032 70.7683 52.3526 70.7221 52.3857 70.6621C52.4199 70.6022 52.4337 70.5346 52.427 70.4596C52.4188 70.3673 52.385 70.2936 52.3254 70.2384C52.2659 70.1832 52.1939 70.1518 52.1095 70.1442C52.0474 70.1382 51.924 70.1433 51.7394 70.1595L51.4919 70.1815Z" fill="white" stroke="white" stroke-width="0.0992704" stroke-linecap="round" stroke-linejoin="round"></path><path d="M53.5348 72.1034L53.0436 69.6043L54.1056 69.3955C54.3727 69.343 54.5709 69.3276 54.7003 69.3494C54.8307 69.3699 54.9435 69.4303 55.0388 69.5308C55.1341 69.6313 55.1962 69.7554 55.2253 69.9031C55.2621 70.0907 55.2375 70.2566 55.1514 70.401C55.065 70.5443 54.9153 70.6534 54.7022 70.7283C54.8238 70.7706 54.9274 70.8228 55.0128 70.8851C55.0994 70.9471 55.222 71.0635 55.3806 71.2342L55.7816 71.6618L55.1781 71.7804L54.7064 71.3083C54.5387 71.1394 54.426 71.0346 54.3685 70.994C54.3107 70.9523 54.2533 70.9275 54.1963 70.9199C54.1391 70.9111 54.0525 70.9181 53.9366 70.9409L53.8343 70.9609L54.0394 72.0042L53.5348 72.1034ZM53.7559 70.562L54.1293 70.4886C54.3713 70.441 54.5205 70.4011 54.5767 70.3688C54.6329 70.3365 54.6731 70.292 54.6974 70.2353C54.7217 70.1786 54.7264 70.1127 54.7117 70.0377C54.6952 69.9536 54.6591 69.8905 54.6036 69.8483C54.549 69.8047 54.4795 69.7841 54.395 69.7865C54.3529 69.7892 54.2296 69.8105 54.0251 69.8504L53.6313 69.9277L53.7559 70.562Z" fill="white" stroke="white" stroke-width="0.0992704" stroke-linecap="round" stroke-linejoin="round"></path><path d="M56.0502 71.5743L55.2964 69.1414L57.1003 68.5825L57.2278 68.9941L55.9151 69.4008L56.0822 69.9401L57.3036 69.5617L57.4306 69.9716L56.2092 70.35L56.4144 71.0122L57.7735 70.5911L57.9005 71.001L56.0502 71.5743Z" fill="white" stroke="white" stroke-width="0.0992704" stroke-linecap="round" stroke-linejoin="round"></path><path d="M57.8685 70.1347L58.3098 69.8939C58.4033 70.0366 58.5076 70.1262 58.6227 70.1628C58.7388 70.199 58.8687 70.1864 59.0126 70.1251C59.165 70.0602 59.2659 69.9794 59.3154 69.8828C59.3655 69.7847 59.3722 69.6925 59.3354 69.6061C59.3118 69.5507 59.2753 69.5109 59.2259 69.4866C59.1772 69.4608 59.1062 69.4507 59.0129 69.4564C58.9493 69.4611 58.8086 69.4809 58.5905 69.5155C58.3102 69.5607 58.0993 69.5594 57.958 69.5115C57.7592 69.4438 57.6203 69.3173 57.5413 69.1319C57.4905 69.0126 57.4766 68.8869 57.4997 68.7549C57.5234 68.6215 57.5871 68.5006 57.6908 68.3922C57.7955 68.2834 57.9379 68.1906 58.118 68.1139C58.4121 67.9886 58.6606 67.9589 58.8637 68.0247C59.0678 68.0902 59.2194 68.2289 59.3186 68.4409L58.8543 68.6632C58.7828 68.5515 58.7023 68.4838 58.6129 68.4601C58.5242 68.435 58.4132 68.4508 58.28 68.5075C58.1425 68.5661 58.0469 68.6402 57.9932 68.7298C57.9586 68.7874 57.9542 68.8465 57.98 68.9072C58.0036 68.9627 58.0473 69.0001 58.111 69.0195C58.192 69.0442 58.3591 69.0347 58.6125 68.991C58.8658 68.9473 59.0598 68.9314 59.1945 68.9432C59.3298 68.9536 59.45 68.9962 59.5549 69.0711C59.6604 69.1444 59.7447 69.2552 59.8078 69.4033C59.865 69.5376 59.8813 69.6792 59.8566 69.8282C59.832 69.9772 59.7637 70.1095 59.6518 70.2251C59.5395 70.3397 59.3815 70.4403 59.178 70.527C58.8818 70.6532 58.6252 70.6819 58.4084 70.6132C58.191 70.5433 58.0111 70.3837 57.8685 70.1347Z" fill="white" stroke="white" stroke-width="0.0992704" stroke-linecap="round" stroke-linejoin="round"></path><path d="M60.468 69.8816L59.3035 67.6165L59.7608 67.3813L60.9254 69.6465L60.468 69.8816Z" fill="white" stroke="white" stroke-width="0.0992704" stroke-linecap="round" stroke-linejoin="round"></path><path d="M60.0305 67.263L60.8313 66.771C61.0119 66.66 61.1581 66.5892 61.2698 66.5586C61.4201 66.5179 61.5701 66.5176 61.7197 66.5576C61.8693 66.5976 62.0105 66.6726 62.1434 66.7826C62.2757 66.8917 62.4042 67.0478 62.5292 67.2511C62.6389 67.4297 62.7113 67.5973 62.7463 67.7539C62.7891 67.9451 62.7901 68.1205 62.7495 68.2801C62.719 68.4008 62.6518 68.5216 62.548 68.6424C62.4701 68.7324 62.3502 68.8272 62.1884 68.9266L61.3639 69.4332L60.0305 67.263ZM60.6942 67.3609L61.5774 68.7982L61.9045 68.5972C62.0269 68.522 62.111 68.4608 62.1567 68.4136C62.2169 68.3522 62.2571 68.286 62.2774 68.2151C62.2987 68.1436 62.2944 68.0504 62.2646 67.9354C62.2342 67.8196 62.1675 67.6777 62.0644 67.51C61.9613 67.3422 61.8674 67.2225 61.7826 67.1509C61.6978 67.0793 61.6133 67.0347 61.5291 67.0171C61.4449 66.9995 61.3564 67.007 61.2635 67.0396C61.1939 67.0634 61.0697 67.1302 60.8911 67.2399L60.6942 67.3609Z" fill="white" stroke="white" stroke-width="0.0992704" stroke-linecap="round" stroke-linejoin="round"></path><path d="M63.5396 68.0579L61.9852 66.0402L63.4813 64.8877L63.7442 65.229L62.6556 66.0677L63.0001 66.515L64.0131 65.7346L64.275 66.0746L63.262 66.8549L63.6851 67.4041L64.8123 66.5357L65.0741 66.8757L63.5396 68.0579Z" fill="white" stroke="white" stroke-width="0.0992704" stroke-linecap="round" stroke-linejoin="round"></path><path d="M65.4136 66.5853L63.6561 64.7419L64.0183 64.3966L65.9464 64.9084L64.7728 63.6773L65.1186 63.3477L66.876 65.1911L66.5025 65.5472L64.6133 65.0535L65.7594 66.2556L65.4136 66.5853Z" fill="white" stroke="white" stroke-width="0.0992704" stroke-linecap="round" stroke-linejoin="round"></path><path d="M67.6192 64.3528L66.0124 62.9758L65.5206 63.5497L65.1935 63.2693L66.5105 61.7324L66.8377 62.0128L66.347 62.5853L67.9538 63.9623L67.6192 64.3528Z" fill="white" stroke="white" stroke-width="0.0992704" stroke-linecap="round" stroke-linejoin="round"></path><path d="M68.1157 61.7486C67.8961 61.6105 67.7324 61.4617 67.6247 61.3023C67.5457 61.1843 67.489 61.0556 67.4548 60.9164C67.4212 60.7762 67.415 60.6424 67.4364 60.5149C67.464 60.3448 67.533 60.172 67.6433 59.9965C67.8431 59.6788 68.1013 59.4868 68.418 59.4205C68.7353 59.3533 69.0695 59.43 69.4205 59.6507C69.7685 59.8696 69.9816 60.1356 70.0597 60.4488C70.1368 60.7613 70.0758 61.0759 69.8767 61.3926C69.6751 61.7133 69.4172 61.9068 69.1031 61.9734C68.788 62.0393 68.4589 61.9644 68.1157 61.7486ZM68.383 61.2908C68.6272 61.4443 68.848 61.5044 69.0453 61.4712C69.2417 61.4374 69.3945 61.3337 69.5036 61.1601C69.6128 60.9866 69.6399 60.8053 69.5851 60.6162C69.5298 60.4255 69.3772 60.2515 69.1272 60.0943C68.8801 59.9389 68.6615 59.8774 68.4715 59.9098C68.2821 59.9412 68.131 60.0466 68.0182 60.2261C67.9054 60.4055 67.8762 60.589 67.9307 60.7765C67.9842 60.9634 68.135 61.1348 68.383 61.2908Z" fill="white" stroke="white" stroke-width="0.0992704" stroke-linecap="round" stroke-linejoin="round"></path><path d="M70.6736 59.9626L68.3865 58.8418L69.1548 57.2739L69.5417 57.4635L68.9997 58.5696L69.541 58.8349L70.0089 57.8801L70.3958 58.0697L69.9279 59.0245L70.8999 59.5008L70.6736 59.9626Z" fill="white" stroke="white" stroke-width="0.0992704" stroke-linecap="round" stroke-linejoin="round"></path><path d="M26.3291 63.4483L28.1217 62.3237L27.7201 61.6835L28.0851 61.4546L29.1606 63.1692L28.7956 63.3981L28.395 62.7594L26.6024 63.8839L26.3291 63.4483Z" fill="white" stroke="white" stroke-width="0.0992704" stroke-linecap="round" stroke-linejoin="round"></path><path d="M27.1935 64.8004L29.2279 63.2681L29.5373 63.6788L28.7366 64.2819L29.3428 65.0868L30.1435 64.4837L30.4529 64.8945L28.4185 66.4268L28.1091 66.0161L28.9987 65.3461L28.3924 64.5412L27.5029 65.2112L27.1935 64.8004Z" fill="white" stroke="white" stroke-width="0.0992704" stroke-linecap="round" stroke-linejoin="round"></path><path d="M28.7615 66.8378L30.6522 65.1313L31.9175 66.5333L31.5977 66.822L30.6769 65.8018L30.2578 66.1801L31.1145 67.1293L30.7959 67.4168L29.9392 66.4676L29.4246 66.9321L30.3779 67.9884L30.0594 68.2759L28.7615 66.8378Z" fill="white" stroke="white" stroke-width="0.0992704" stroke-linecap="round" stroke-linejoin="round"></path><path d="M31.0795 69.2516L32.7988 67.3726L33.1782 67.7197L31.4589 69.5987L31.0795 69.2516Z" fill="white" stroke="white" stroke-width="0.0992704" stroke-linecap="round" stroke-linejoin="round"></path><path d="M32.2363 69.2061L32.6557 69.4833C32.5734 69.6327 32.543 69.7669 32.5646 69.8857C32.587 70.0052 32.659 70.1141 32.7805 70.2125C32.9092 70.3168 33.0278 70.3682 33.1363 70.3667C33.2465 70.3653 33.3311 70.328 33.3902 70.2548C33.4281 70.208 33.4462 70.1571 33.4445 70.1021C33.4445 70.0469 33.4201 69.9794 33.3714 69.8998C33.3377 69.8456 33.2544 69.7304 33.1214 69.5542C32.9502 69.3276 32.8528 69.1406 32.8291 68.9932C32.7958 68.7859 32.8426 68.6039 32.9694 68.4473C33.0511 68.3465 33.1556 68.2754 33.283 68.2341C33.412 68.1925 33.5487 68.1922 33.693 68.233C33.8382 68.2746 33.9868 68.357 34.1389 68.4802C34.3873 68.6814 34.53 68.8871 34.5669 69.0974C34.6047 69.3083 34.5531 69.5073 34.4121 69.6942L33.9983 69.3881C34.0636 69.2725 34.0857 69.1697 34.0648 69.0797C34.0454 68.9895 33.9795 68.8988 33.867 68.8077C33.7509 68.7136 33.6406 68.6639 33.5363 68.6584C33.4692 68.655 33.4149 68.6788 33.3733 68.7298C33.3354 68.7766 33.3228 68.8327 33.3354 68.898C33.3516 68.9812 33.4382 69.1244 33.5955 69.3278C33.7527 69.5311 33.8576 69.6951 33.9102 69.8197C33.9645 69.9441 33.983 70.0702 33.966 70.198C33.9506 70.3256 33.8922 70.452 33.7909 70.5771C33.699 70.6905 33.5815 70.7712 33.4383 70.8192C33.2951 70.8671 33.1462 70.8688 32.9917 70.8242C32.8378 70.7786 32.6749 70.6862 32.503 70.5469C32.2528 70.3443 32.1073 70.131 32.0665 69.9072C32.0265 69.6825 32.0831 69.4487 32.2363 69.2061Z" fill="white" stroke="white" stroke-width="0.0992704" stroke-linecap="round" stroke-linejoin="round"></path><path d="M33.6903 71.4162L35.1148 69.3301L35.5395 69.6201L34.357 71.3518L35.413 72.0729L35.171 72.4273L33.6903 71.4162Z" fill="white" stroke="white" stroke-width="0.0992704" stroke-linecap="round" stroke-linejoin="round"></path><path d="M37.484 73.7537L36.9968 73.4788L37.0874 72.8656L36.2007 72.3654L35.7333 72.766L35.2582 72.4979L37.3737 70.7671L37.8473 71.0343L37.484 73.7537ZM37.1545 72.4108L37.3132 71.4152L36.5492 72.0693L37.1545 72.4108Z" fill="white" stroke="white" stroke-width="0.0992704" stroke-linecap="round" stroke-linejoin="round"></path><path d="M37.726 73.8718L38.7494 71.5396L39.4542 71.8488L39.1792 73.6254L40.2958 72.2181L41.0021 72.5281L39.9787 74.8604L39.5412 74.6684L40.3468 72.8325L39.0782 74.4652L38.6248 74.2662L38.9691 72.2279L38.1634 74.0638L37.726 73.8718Z" fill="white" stroke="white" stroke-width="0.0992704" stroke-linecap="round" stroke-linejoin="round"></path><path d="M40.4554 75.0114L41.3092 72.6118L41.7937 72.7842L40.9399 75.1838L40.4554 75.0114Z" fill="white" stroke="white" stroke-width="0.0992704" stroke-linecap="round" stroke-linejoin="round"></path><path d="M43.2218 74.9016L43.6581 75.1902C43.5085 75.4366 43.3294 75.6006 43.1207 75.6821C42.9135 75.7628 42.6784 75.7658 42.4155 75.6912C42.0902 75.5986 41.8544 75.4117 41.7081 75.1304C41.5621 74.848 41.5439 74.514 41.6536 74.1286C41.7696 73.7209 41.9649 73.4345 42.2395 73.2694C42.5144 73.1031 42.8234 73.0689 43.1665 73.1665C43.4662 73.2518 43.6844 73.4096 43.8212 73.64C43.9028 73.7764 43.9435 73.9506 43.9434 74.1625L43.4205 74.1401C43.4277 74.0049 43.3955 73.8873 43.324 73.7875C43.2535 73.688 43.1526 73.6195 43.0212 73.5821C42.8396 73.5304 42.6734 73.5536 42.5227 73.6516C42.3731 73.7499 42.2568 73.945 42.1737 74.2369C42.0856 74.5466 42.0785 74.783 42.1525 74.9461C42.2265 75.1093 42.3526 75.2162 42.5308 75.267C42.6623 75.3044 42.7872 75.2948 42.9057 75.2382C43.0242 75.1816 43.1295 75.0692 43.2218 74.9016Z" fill="white" stroke="white" stroke-width="0.0992704" stroke-linecap="round" stroke-linejoin="round"></path><path d="M44.8472 76.2372L45.2238 73.7183L46.2942 73.8783C46.5634 73.9186 46.7553 73.9707 46.8699 74.0346C46.9858 74.0976 47.0717 74.1925 47.1277 74.3191C47.1838 74.4458 47.2006 74.5836 47.1784 74.7325C47.1501 74.9215 47.0712 75.0695 46.9416 75.1766C46.8121 75.2826 46.6345 75.3351 46.4086 75.3341C46.509 75.4147 46.5889 75.4987 46.6485 75.586C46.7092 75.6736 46.7856 75.8244 46.8777 76.0384L47.1118 76.5758L46.5036 76.4848L46.2178 75.8817C46.1165 75.6663 46.0456 75.5298 46.005 75.4722C45.9646 75.4135 45.9188 75.3709 45.8677 75.3446C45.8168 75.3171 45.7329 75.2946 45.6161 75.2771L45.513 75.2616L45.3558 76.3132L44.8472 76.2372ZM45.5731 74.8596L45.9494 74.9159C46.1934 74.9524 46.3473 74.9649 46.4111 74.9533C46.4749 74.9417 46.5277 74.9133 46.5696 74.8681C46.6115 74.8228 46.6381 74.7624 46.6494 74.6868C46.6621 74.602 46.6494 74.5304 46.6113 74.472C46.5745 74.4127 46.5159 74.37 46.4354 74.3439C46.3951 74.332 46.2718 74.3106 46.0656 74.2798L45.6687 74.2205L45.5731 74.8596Z" fill="white" stroke="white" stroke-width="0.0992704" stroke-linecap="round" stroke-linejoin="round"></path><path d="M47.3927 76.5903L47.5445 74.0479L49.4296 74.1604L49.404 74.5905L48.0322 74.5086L47.9985 75.0722L49.2749 75.1485L49.2494 75.5769L47.9729 75.5006L47.9316 76.1926L49.352 76.2774L49.3264 76.7058L47.3927 76.5903Z" fill="white" stroke="white" stroke-width="0.0992704" stroke-linecap="round" stroke-linejoin="round"></path><path d="M49.7676 76.7086L49.7047 74.1624L50.5297 74.1421C50.8423 74.1343 51.0464 74.142 51.142 74.1652C51.2888 74.1998 51.413 74.2801 51.5146 74.4062C51.6162 74.5311 51.6695 74.6949 51.6745 74.8976C51.6783 75.0539 51.6532 75.186 51.5991 75.2939C51.545 75.4018 51.4747 75.4876 51.3882 75.5511C51.3029 75.6134 51.2153 75.6556 51.1255 75.6775C51.0033 75.7049 50.8259 75.7214 50.5932 75.7271L50.258 75.7352L50.2817 76.6957L49.7676 76.7086ZM50.2294 74.5805L50.2473 75.303L50.5286 75.2959C50.7313 75.2912 50.8664 75.2745 50.9341 75.2459C51.0017 75.2176 51.054 75.1746 51.0908 75.1169C51.1287 75.0592 51.1468 74.9927 51.1449 74.9175C51.1426 74.8248 51.1135 74.7491 51.0576 74.6902C51.0017 74.6313 50.9319 74.5954 50.8482 74.5824C50.7865 74.5723 50.6631 74.5696 50.4778 74.5743L50.2294 74.5805Z" fill="white" stroke="white" stroke-width="0.0992704" stroke-linecap="round" stroke-linejoin="round"></path><path d="M51.8536 74.1026L52.3646 74.0446L52.5202 75.4153C52.5449 75.6328 52.5672 75.7731 52.5872 75.8361C52.6208 75.9372 52.6821 76.0147 52.771 76.0687C52.8609 76.1214 52.9772 76.1397 53.1199 76.1235C53.2649 76.107 53.3709 76.0653 53.4379 75.9982C53.5047 75.93 53.5408 75.8519 53.5459 75.7639C53.5511 75.6759 53.5423 75.5318 53.5196 75.3315L53.3607 73.9315L53.8716 73.8735L54.0225 75.2028C54.057 75.5066 54.0675 75.7228 54.0542 75.8513C54.0408 75.9799 54.0016 76.0916 53.9366 76.1864C53.8727 76.2811 53.7816 76.3614 53.6632 76.4273C53.5446 76.492 53.3852 76.5358 53.185 76.5585C52.9433 76.5859 52.7566 76.5791 52.6249 76.5381C52.4942 76.4958 52.3876 76.4345 52.305 76.3541C52.2223 76.2726 52.1639 76.1842 52.1298 76.089C52.08 75.9478 52.039 75.7356 52.0069 75.4525L51.8536 74.1026Z" fill="white" stroke="white" stroke-width="0.0992704" stroke-linecap="round" stroke-linejoin="round"></path><path d="M54.1782 73.8242L55.1748 73.6161C55.3721 73.5749 55.5207 73.5527 55.6206 73.5496C55.7214 73.5449 55.8153 73.5608 55.9021 73.5973C55.9901 73.6334 56.0687 73.6897 56.138 73.7664C56.207 73.8419 56.2527 73.9335 56.2752 74.0412C56.2996 74.158 56.2902 74.2718 56.2471 74.3826C56.2051 74.4931 56.1353 74.584 56.0378 74.6552C56.1989 74.6677 56.3315 74.7187 56.4354 74.8082C56.5392 74.8978 56.6062 75.0145 56.6363 75.1585C56.6599 75.2719 56.6564 75.388 56.6256 75.5069C56.5957 75.6243 56.5416 75.7249 56.4632 75.8087C56.3858 75.8912 56.2817 75.9537 56.151 75.9964C56.069 76.0229 55.8678 76.0709 55.5474 76.1402L54.6987 76.3173L54.1782 73.8242ZM54.7683 74.134L54.8886 74.7106L55.2186 74.6417C55.4147 74.6007 55.536 74.5725 55.5824 74.5569C55.6665 74.5287 55.7278 74.4851 55.7663 74.4262C55.8058 74.3659 55.8171 74.2955 55.8003 74.215C55.7842 74.1379 55.7497 74.08 55.6967 74.0414C55.6445 74.0014 55.5754 73.985 55.4894 73.9924C55.4383 73.9971 55.2943 74.0242 55.0574 74.0737L54.7683 74.134ZM54.9753 75.1255L55.1144 75.7922L55.5804 75.6949C55.7618 75.657 55.8758 75.6279 55.9225 75.6075C55.9945 75.5783 56.0482 75.5327 56.0838 75.4709C56.1203 75.4077 56.1294 75.3318 56.1109 75.2434C56.0953 75.1685 56.0639 75.1089 56.0167 75.0643C55.9695 75.0197 55.9089 74.9927 55.8348 74.9834C55.7618 74.9738 55.6107 74.9929 55.3817 75.0407L54.9753 75.1255Z" fill="white" stroke="white" stroke-width="0.0992704" stroke-linecap="round" stroke-linejoin="round"></path><path d="M57.2214 75.7596L56.4945 73.3404L56.987 73.1924L57.5904 75.2007L58.815 74.8327L58.9385 75.2437L57.2214 75.7596Z" fill="white" stroke="white" stroke-width="0.0992704" stroke-linecap="round" stroke-linejoin="round"></path><path d="M59.2667 75.1121L58.395 72.719L58.8782 72.543L59.7499 74.9361L59.2667 75.1121Z" fill="white" stroke="white" stroke-width="0.0992704" stroke-linecap="round" stroke-linejoin="round"></path><path d="M61.3282 73.2637L61.8483 73.208C61.89 73.4932 61.8565 73.7338 61.7477 73.9295C61.6395 74.1238 61.4602 74.2759 61.2099 74.3858C60.9003 74.5218 60.5994 74.528 60.3074 74.4046C60.0149 74.28 59.7881 74.0343 59.6269 73.6674C59.4565 73.2792 59.4244 72.934 59.5308 72.6318C59.6367 72.3285 59.8529 72.1051 60.1796 71.9617C60.4648 71.8364 60.7336 71.819 60.9858 71.9094C61.1356 71.9625 61.278 72.0707 61.413 72.2341L60.9958 72.5501C60.9151 72.4413 60.8154 72.3712 60.6967 72.3399C60.579 72.3081 60.4576 72.3197 60.3324 72.3746C60.1596 72.4505 60.0463 72.5743 59.9926 72.7458C59.94 72.9169 59.9747 73.1414 60.0967 73.4193C60.2262 73.7141 60.3714 73.9008 60.5324 73.9793C60.6934 74.0579 60.8588 74.0599 61.0284 73.9854C61.1536 73.9305 61.2437 73.8434 61.299 73.7243C61.3542 73.6052 61.3639 73.4517 61.3282 73.2637Z" fill="white" stroke="white" stroke-width="0.0992704" stroke-linecap="round" stroke-linejoin="round"></path><path d="M62.69 72.2406C62.5553 72.0189 62.4754 71.8126 62.4503 71.6219C62.4325 71.4809 62.4394 71.3406 62.471 71.2008C62.5036 71.0603 62.558 70.9379 62.6341 70.8334C62.7348 70.6936 62.8738 70.5699 63.051 70.4623C63.3717 70.2674 63.6885 70.2112 64.0014 70.2935C64.3153 70.3752 64.5799 70.5933 64.7952 70.9477C65.0086 71.2991 65.0803 71.6324 65.0101 71.9474C64.9393 72.2614 64.744 72.5155 64.4242 72.7097C64.1005 72.9064 63.7833 72.9642 63.4726 72.8832C63.1613 72.8013 62.9004 72.5871 62.69 72.2406ZM63.1338 71.9507C63.2836 72.1972 63.4541 72.3497 63.6455 72.4083C63.8363 72.4658 64.0193 72.4414 64.1946 72.3349C64.3698 72.2285 64.4751 72.0785 64.5106 71.8848C64.5465 71.6895 64.4878 71.4657 64.3345 71.2133C64.183 70.9638 64.015 70.8111 63.8305 70.7551C63.6471 70.6984 63.4648 70.7251 63.2836 70.8352C63.1025 70.9452 62.9943 71.0962 62.9592 71.2883C62.9235 71.4794 62.9817 71.7002 63.1338 71.9507Z" fill="white" stroke="white" stroke-width="0.0992704" stroke-linecap="round" stroke-linejoin="round"></path><path d="M65.7802 71.7923L64.27 69.7413L65.676 68.7061L65.9315 69.053L64.9396 69.7834L65.297 70.2688L66.1532 69.6384L66.4087 69.9854L65.5525 70.6158L66.1943 71.4874L65.7802 71.7923Z" fill="white" stroke="white" stroke-width="0.0992704" stroke-linecap="round" stroke-linejoin="round"></path><path d="M68.2525 69.853L66.5602 67.9496L66.9445 67.6079L68.6368 69.5114L68.2525 69.853Z" fill="white" stroke="white" stroke-width="0.0992704" stroke-linecap="round" stroke-linejoin="round"></path><path d="M69.0092 69.1926L67.1992 67.4007L67.9607 66.6315C68.1522 66.4381 68.3076 66.3141 68.4269 66.2594C68.5462 66.2032 68.6735 66.1898 68.8088 66.2194C68.944 66.249 69.0652 66.3168 69.1722 66.4227C69.308 66.5572 69.3808 66.7083 69.3907 66.8762C69.3997 67.0432 69.3371 67.2175 69.2029 67.3992C69.3272 67.3658 69.4422 67.3509 69.5479 67.3545C69.6544 67.3571 69.8212 67.3845 70.0483 67.4367L70.6202 67.5652L70.1875 68.0023L69.5321 67.8766C69.2984 67.8311 69.1464 67.8077 69.076 67.8064C69.0047 67.8044 68.9433 67.8161 68.8919 67.8417C68.8396 67.8665 68.7719 67.9209 68.6887 68.0049L68.6154 68.0789L69.371 68.8269L69.0092 69.1926ZM68.3265 67.7931L68.5942 67.5227C68.7677 67.3474 68.8687 67.2306 68.8971 67.1723C68.9255 67.114 68.9338 67.0546 68.922 66.994C68.9102 66.9335 68.8772 66.8764 68.8228 66.8226C68.7619 66.7622 68.6967 66.7302 68.627 66.7265C68.5574 66.7212 68.4883 66.7432 68.4197 66.7927C68.3863 66.8182 68.2962 66.9051 68.1496 67.0533L67.8672 67.3385L68.3265 67.7931Z" fill="white" stroke="white" stroke-width="0.0992704" stroke-linecap="round" stroke-linejoin="round"></path><path d="M72.2596 65.5748L71.9043 66.0069L71.3162 65.8112L70.6695 66.5975L70.9828 67.1273L70.6363 67.5486L69.2993 65.1646L69.6447 64.7446L72.2596 65.5748ZM70.8799 65.666L69.9271 65.3367L70.4385 66.2027L70.8799 65.666Z" fill="white" stroke="white" stroke-width="0.0992704" stroke-linecap="round" stroke-linejoin="round"></path><path d="M72.419 65.3426L70.3112 63.9129L70.592 63.4988L72.5848 63.5909L71.1772 62.6361L71.4454 62.2407L73.5532 63.6704L73.2635 64.0974L71.3126 64.0148L72.6872 64.9472L72.419 65.3426Z" fill="white" stroke="white" stroke-width="0.0992704" stroke-linecap="round" stroke-linejoin="round"></path></g><defs><clipPath id="clip0_9871_652"><rect width="62" height="62" fill="white" transform="translate(19 19)"></rect></clipPath></defs></svg> 