<?xml version="1.0" encoding="UTF-8"?> <svg xmlns="http://www.w3.org/2000/svg" width="32" height="32" viewBox="0 0 32 32" fill="none"><path d="M22.7872 3.75993C21.561 2.75138 20.125 2.0293 18.5841 1.64639C17.0432 1.26347 15.4363 1.22938 13.8806 1.54659C11.8091 1.96502 9.90856 2.98936 8.42015 4.48964C6.93174 5.98991 5.92254 7.89851 5.52057 9.97326C5.22704 11.5289 5.28038 13.1301 5.67679 14.6628C6.0732 16.1954 6.80292 17.6217 7.81391 18.8399C8.75215 19.8987 9.28995 21.2526 9.33391 22.6666V26.6666C9.33391 27.7275 9.75533 28.7449 10.5055 29.495C11.2556 30.2452 12.273 30.6666 13.3339 30.6666H18.6672C19.7281 30.6666 20.7455 30.2452 21.4957 29.495C22.2458 28.7449 22.6672 27.7275 22.6672 26.6666V22.9199C22.712 21.3588 23.2855 19.8592 24.2939 18.6666C26.0607 16.481 26.8936 13.6864 26.6115 10.8901C26.3293 8.09384 24.955 5.52191 22.7872 3.73326V3.75993ZM20.0006 26.6666C20.0006 27.0202 19.8601 27.3594 19.61 27.6094C19.36 27.8595 19.0209 27.9999 18.6672 27.9999H13.3339C12.9803 27.9999 12.6411 27.8595 12.3911 27.6094C12.141 27.3594 12.0006 27.0202 12.0006 26.6666V25.3333H20.0006V26.6666ZM22.2272 17.0133C20.8866 18.6034 20.1044 20.5893 20.0006 22.6666H17.3339V18.6666C17.3339 18.313 17.1934 17.9738 16.9434 17.7238C16.6933 17.4737 16.3542 17.3333 16.0006 17.3333C15.647 17.3333 15.3078 17.4737 15.0578 17.7238C14.8077 17.9738 14.6672 18.313 14.6672 18.6666V22.6666H12.0006C11.9654 20.6241 11.2098 18.6596 9.86724 17.1199C8.98143 16.0586 8.38576 14.7858 8.13832 13.4257C7.89088 12.0656 8.00011 10.6646 8.45536 9.3593C8.91061 8.05399 9.69634 6.88892 10.7359 5.9777C11.7755 5.06647 13.0335 4.44019 14.3872 4.15993C15.5506 3.92039 16.7528 3.94292 17.9064 4.22589C19.06 4.50886 20.1361 5.04516 21.0566 5.79587C21.9771 6.54657 22.7189 7.49283 23.2281 8.56595C23.7374 9.63907 24.0012 10.8121 24.0006 11.9999C24.0104 13.8264 23.3834 15.5992 22.2272 17.0133Z" fill="#262626"></path></svg> 