<svg width="61" height="8" viewBox="0 0 61 8" fill="none" xmlns="http://www.w3.org/2000/svg">
<path id="Line 30" d="M0.646447 3.64645C0.451184 3.84171 0.451184 4.15829 0.646447 4.35355L3.82843 7.53553C4.02369 7.7308 4.34027 7.7308 4.53553 7.53553C4.7308 7.34027 4.7308 7.02369 4.53553 6.82843L1.70711 4L4.53553 1.17157C4.7308 0.976311 4.7308 0.659728 4.53553 0.464466C4.34027 0.269204 4.02369 0.269204 3.82843 0.464466L0.646447 3.64645ZM1 4.5H2.875V3.5L1 3.5L1 4.5ZM6.625 4.5L10.375 4.5V3.5L6.625 3.5V4.5ZM14.125 4.5L17.875 4.5V3.5L14.125 3.5V4.5ZM21.625 4.5L25.375 4.5V3.5L21.625 3.5V4.5ZM29.125 4.5L32.875 4.5V3.5L29.125 3.5V4.5ZM36.625 4.5L40.375 4.5V3.5L36.625 3.5V4.5ZM44.125 4.5L47.875 4.5V3.5L44.125 3.5V4.5ZM51.625 4.5L55.375 4.5V3.5L51.625 3.5V4.5ZM59.125 4.5L61 4.5V3.5L59.125 3.5V4.5Z" fill="#A3A3A3"/>
</svg>
