<?xml version="1.0" encoding="UTF-8"?> <svg xmlns="http://www.w3.org/2000/svg" width="100" height="100" viewBox="0 0 100 100" fill="none"><g clip-path="url(#clip0_9871_3342)"><g clip-path="url(#clip1_9871_3342)"><mask id="mask0_9871_3342" style="mask-type:luminance" maskUnits="userSpaceOnUse" x="25" y="4" width="79" height="91"><path d="M25.0225 4.93451H103.991V94.355H25.0225V4.93451Z" fill="white"></path></mask><g mask="url(#mask0_9871_3342)"><path fill-rule="evenodd" clip-rule="evenodd" d="M92.0376 56.4517L91.4108 57.9773H93.883L94.5103 56.4517H92.0376ZM91.1088 58.7205L88.9682 63.9268H91.4403L93.1263 59.8208L93.5804 58.7205H91.1088ZM99.4686 58.5968C99.4257 58.5893 99.3683 58.5893 99.2964 58.5893C98.8765 58.5852 98.4592 58.6653 98.0639 58.8258C97.6566 59.004 97.2768 59.2544 96.939 59.5678C97.0042 59.4126 97.0622 59.2587 97.1051 59.1199C97.1485 58.9811 97.1775 58.8505 97.1842 58.7274H94.7271C94.7063 58.8521 94.6773 58.9749 94.6402 59.0946C94.5866 59.2675 94.5241 59.4367 94.4529 59.6012L93.1269 62.8334L92.6722 63.935H95.1371L95.9662 61.9192C96.2114 61.3154 96.5067 60.8984 96.8521 60.6618C97.1992 60.4252 97.6739 60.3034 98.2868 60.3034C98.3732 60.3034 98.4668 60.3034 98.5682 60.3123C98.6685 60.3186 98.7699 60.3281 98.8774 60.3356L99.5839 58.6057C99.5488 58.5968 99.5115 58.5968 99.4686 58.5968ZM83.4188 60.9482L84.6869 59.5287L85.8402 58.229L85.9489 60.9482H83.4188ZM88.1319 56.4593H85.2847L84.6869 57.0889L78.2365 63.9268H80.809L81.9846 62.5798H85.97L85.999 63.9268H88.8601L88.1319 56.4593ZM75.2384 59.2019C74.986 58.7943 74.4595 58.5968 73.6594 58.5968C73.2208 58.5951 72.785 58.6755 72.3695 58.8347C71.9517 58.9886 71.5199 59.2341 71.0724 59.5602C71.1666 59.3482 71.2246 59.176 71.2669 59.0467C71.3098 58.9079 71.3315 58.8012 71.3315 58.7199H68.8672C68.8416 58.8494 68.8104 58.9774 68.7736 59.1035C68.7246 59.2703 68.6667 59.4335 68.6003 59.5924L66.9784 63.5432L66.8201 63.9261H69.2784L70.3364 61.3558C70.5387 60.8669 70.7916 60.4997 71.0864 60.2542C71.3822 60.0088 71.7355 59.8959 72.1322 59.8959C72.4709 59.8959 72.6793 59.9842 72.7662 60.164C72.8454 60.3445 72.8097 60.6372 72.6437 61.0378L71.4541 63.9261H73.9196L75.137 60.9552C75.4546 60.1886 75.4908 59.6012 75.2384 59.2019ZM64.1179 61.7564C63.9596 62.1394 63.7356 62.4246 63.4476 62.6126C63.2956 62.7143 63.1305 62.7888 62.9584 62.8334C62.7738 62.8821 62.5846 62.9041 62.3951 62.899C62.1433 62.899 61.9633 62.8492 61.8619 62.7596C61.7616 62.6624 61.7471 62.523 61.8117 62.3514C61.9204 62.099 62.136 61.9274 62.4675 61.8208C62.5973 61.781 62.7628 61.7476 62.9584 61.7318C63.2682 61.6908 63.6721 61.6738 64.1541 61.6738L64.1179 61.7564ZM66.9784 59.299C66.9282 59.2183 66.8642 59.1514 66.7845 59.0877C66.3878 58.7609 65.6529 58.5968 64.5647 58.5968C64.0276 58.5942 63.4909 58.6326 62.9584 58.7117C62.5466 58.7855 62.1862 58.8826 61.8769 59.0221C61.2061 59.299 60.7448 59.7318 60.4996 60.3034H62.7773C62.8358 60.2139 62.886 60.1394 62.9584 60.0656C63.0375 59.9842 63.1311 59.9281 63.2386 59.8713C63.4331 59.7811 63.6861 59.7318 63.9814 59.7318C64.3134 59.7318 64.5363 59.7975 64.6438 59.9281C64.7525 60.0587 64.7525 60.2618 64.6438 60.523C64.6377 60.54 64.6299 60.5646 64.6154 60.588C64.6004 60.6214 64.5864 60.6378 64.5864 60.646C64.0432 60.6511 63.5002 60.6757 62.9584 60.7198C62.0926 60.7855 61.3866 60.9161 60.854 61.1022C60.0316 61.3968 59.4839 61.87 59.2103 62.5318C59.2103 62.5388 59.2103 62.5388 59.2031 62.5476C59.0588 62.9148 59.0588 63.2252 59.2031 63.4706C59.246 63.5356 59.3039 63.5924 59.3691 63.6492C59.6644 63.9192 60.1976 64.0498 60.9543 64.0498C61.4953 64.0498 61.9778 63.976 62.4101 63.829C62.6046 63.7627 62.7846 63.6814 62.9584 63.5924C63.1807 63.4704 63.3928 63.3258 63.5919 63.1602C63.5339 63.299 63.4988 63.4284 63.4621 63.552C63.4331 63.6814 63.4119 63.8044 63.4119 63.9261H65.6958C65.6958 63.8454 65.7103 63.7463 65.732 63.6492C65.7604 63.5432 65.8044 63.4126 65.8763 63.2416L66.9639 60.588C66.9717 60.581 66.9717 60.5722 66.9784 60.5646C67.1879 60.034 67.1879 59.6101 66.9784 59.299ZM59.2031 59.2833C59.1883 59.2406 59.1663 59.2016 59.1384 59.1684C58.8788 58.7855 58.3456 58.5968 57.5383 58.5968C57.0969 58.5984 56.6588 58.6815 56.2412 58.8429C55.8155 58.9975 55.3904 59.2429 54.9652 59.5602L56.2412 56.4587H53.7684L50.8572 63.552L50.6984 63.935H50.8572L53.1706 63.9261L54.2292 61.3558C54.432 60.8669 54.6839 60.4997 54.9725 60.2542C55.2678 60.0176 55.6143 59.8959 56.0105 59.8959C56.3415 59.8959 56.5504 59.9842 56.6373 60.1571C56.7309 60.3356 56.7019 60.6057 56.5582 60.9646L55.3324 63.9261H57.8118L59.0805 60.8422C59.1318 60.7198 59.1741 60.5968 59.2031 60.4826C59.3613 59.993 59.3613 59.5924 59.2031 59.2833ZM40.6661 56.4587L36.8461 61.0864L36.7737 56.4593H32.5002L29.4302 63.9356H31.9023L34.3739 57.9123L34.5611 63.935H36.5224L41.5737 57.9117L39.1015 63.935H41.5664L43.8012 58.4908L44.637 56.4593L40.6661 56.4587ZM48.0023 61.7564C47.8441 62.1394 47.6206 62.4246 47.3326 62.6126C47.1775 62.7146 47.0095 62.789 46.8345 62.8334C46.6481 62.8817 46.4573 62.9037 46.2662 62.899C46.0138 62.899 45.8332 62.8567 45.7324 62.7596C45.6321 62.6624 45.6176 62.523 45.69 62.3602C45.7903 62.1066 46.006 61.9274 46.338 61.8208C46.4679 61.7886 46.6333 61.7564 46.8345 61.7318C47.1526 61.6908 47.5488 61.6738 48.0324 61.6738L48.0023 61.7564ZM50.8567 59.299C50.8021 59.22 50.739 59.149 50.6689 59.0877C50.2733 58.7609 49.5306 58.5968 48.4419 58.5968C47.9041 58.5928 47.3669 58.6339 46.8345 58.7199C46.4633 58.7765 46.0985 58.8778 45.7463 59.0221C45.0766 59.299 44.6231 59.7318 44.3701 60.3123H46.6551C46.7052 60.2208 46.7637 60.1394 46.8345 60.0656C46.9219 59.993 47.0083 59.9281 47.1164 59.8713C47.3181 59.7811 47.5638 59.7318 47.8664 59.7318C48.1901 59.7318 48.4129 59.7975 48.5221 59.9281C48.6302 60.0587 48.6364 60.2618 48.5221 60.5318C48.5149 60.5522 48.505 60.5711 48.4926 60.588C48.4781 60.6214 48.472 60.6378 48.4636 60.646C47.92 60.6512 47.3767 60.6758 46.8345 60.7198C45.9631 60.793 45.2566 60.9236 44.7312 61.1123C44.3634 61.234 44.0536 61.3968 43.8012 61.6C43.4764 61.8536 43.2313 62.164 43.0803 62.5318C42.8858 63.012 42.936 63.388 43.2385 63.6492C43.3761 63.7722 43.5633 63.87 43.8012 63.935C44.0748 64.0088 44.4203 64.0498 44.832 64.0498C45.3652 64.0498 45.8483 63.976 46.2806 63.829C46.4745 63.7627 46.6623 63.6814 46.8345 63.5924C47.0596 63.4706 47.2746 63.3312 47.4774 63.1602C47.4232 63.2859 47.3793 63.4171 47.3465 63.552C47.3134 63.6765 47.2939 63.8051 47.2886 63.935H49.5813C49.5767 63.8385 49.5865 63.7419 49.6103 63.6492C49.6393 63.5432 49.6889 63.4126 49.7552 63.2485L50.8422 60.5968C50.8494 60.581 50.8494 60.5722 50.8567 60.5646C51.0662 60.034 51.0662 59.6101 50.8567 59.299Z" fill="black"></path></g><path fill-rule="evenodd" clip-rule="evenodd" d="M99.3199 41.0811C99.3926 40.9427 99.4779 40.8182 99.5591 40.8387C99.8067 40.8387 99.9332 41.2434 99.9011 41.704C99.8294 42.1469 99.593 42.5708 99.2858 42.6929C99.0339 42.7928 98.7861 42.7928 98.5674 42.6905C97.7723 42.0639 97.5841 43.6862 96.8246 44.6292C96.5218 45.3125 96.1962 46.0335 95.7894 46.6069C95.5975 46.8734 95.3852 47.0784 95.1505 47.1114C94.6228 47.3238 93.9676 47.5693 93.2889 47.7192C93.1003 47.7754 93.0809 47.4874 93.229 47.4304C93.3846 47.3742 93.4731 47.3408 93.5896 47.2643C94.3744 46.7509 95.2077 46.1911 95.8348 45.4595C95.9069 45.3756 95.9478 45.2891 95.9506 45.1729C95.9537 45.0396 95.9048 45.0505 95.8479 45.0621C95.7029 45.0916 94.5724 45.0955 94.5977 44.3821C94.738 43.6497 95.3045 42.1797 96.005 42.2162C96.2513 42.229 96.453 42.389 96.6293 42.6516C96.9614 43.1461 96.7366 43.3416 96.9319 43.3416C97.1273 43.3416 97.4985 42.2601 97.7622 41.704C97.9763 41.2517 98.3441 40.9296 98.757 41.1604C99.0704 41.3356 99.038 41.6162 99.3199 41.0811ZM98.2121 48.1932C98.1339 48.4746 98.0362 48.7562 98.0362 49.0377C97.9831 49.4921 98.6261 49.2059 98.6192 50.0231C98.6122 50.7828 97.7373 50.9915 97.6305 50.1304C97.5485 49.4694 97.9558 48.458 98.2121 48.1932ZM92.6524 40.3176C92.5309 41.7746 92.3465 43.2374 92.1169 44.4645C91.8252 45.5574 91.445 46.3213 91.0231 46.9466C90.8793 47.1643 90.5894 47.2781 90.8277 46.6069C91.2261 45.6439 91.3486 44.4263 91.5114 43.1874C91.5237 42.6641 91.5272 42.309 91.7454 41.8261L92.3815 40.1559C92.5239 39.8282 92.6793 39.9973 92.6524 40.3176ZM90.6914 40.3445C90.7956 40.1763 90.942 40.221 90.9551 40.3856C90.8345 40.9384 90.5286 41.4256 90.0956 41.8687C90.0556 41.9179 90.0119 41.9639 89.9649 42.0064C89.8078 42.144 89.6317 42.1032 89.4634 42.0042C89.0741 41.7748 88.8851 41.8936 88.2108 42.4661C87.8334 42.7545 87.7292 43.055 87.8201 43.3984L88.3474 44.1298C88.5357 44.322 88.4844 44.5143 88.2694 44.7066L87.6833 45.3297C87.5306 45.5107 87.4485 45.4711 87.1655 45.2937C86.8828 45.1161 86.5015 44.7579 86.1108 44.8403C85.8484 44.8486 84.0617 46.4187 81.5374 47.5075C77.1102 49.4167 71.6071 50.1977 69.1252 48.898C67.9443 48.2797 67.3692 47.0705 67.5507 45.1237L67.9576 40.766C68.0054 40.2529 68.1005 39.8371 68.2613 39.3512C68.4461 38.7932 68.7158 38.2863 68.7944 38.1403C68.8611 38.0164 67.9768 44.6292 68.5016 45.3708C69.1951 47.61 74.0777 47.697 78.3823 46.8946C81.2962 46.3517 84.0633 44.9139 85.5829 44.0384C86.3016 43.6246 86.6732 43.4469 86.7847 43.3521C87.2675 42.9413 87.875 41.7521 88.556 41.1735C88.9415 40.8457 89.4567 40.7131 89.6658 40.8079C90.3702 41.1269 90.5612 40.6541 90.6914 40.3445ZM64.4087 39.1393C64.5267 38.8847 64.5894 38.6774 64.9069 39.1495C65.2078 39.4851 65.4658 40.225 65.4108 41.0865C65.3572 41.929 65.0601 42.817 64.721 43.5894C64.1293 44.9367 64.2324 45.1152 64.3982 45.1971C65.0793 45.5336 65.3057 45.9647 65.267 46.8182C65.2538 47.1218 65.2117 47.4236 65.1411 47.7192C64.2829 51.1977 62.4829 52.5338 60.6875 52.5397C56.5863 51.8071 59.2072 45.834 60.3591 43.7332C60.5872 43.3174 60.7546 43.6414 60.5118 44.1761C58.9976 47.3498 58.4695 49.691 60.5704 50.3045C62.0664 50.5202 63.205 50.0677 64.2818 48.914C64.5951 48.3059 64.804 47.7494 64.2818 47.5545C63.5079 47.2324 62.9953 46.75 63.344 45.824C63.6929 44.898 64.5682 43.0432 64.5455 42.5487C64.5455 42.0542 63.9691 41.0861 63.9691 41.0861C63.8896 40.8903 63.8669 40.6775 63.9691 40.4269C64.1125 40.001 64.2654 39.5651 64.4087 39.1393ZM63.8343 36.3899C63.8343 36.3899 63.2485 36.3178 63.3071 36.6781C63.3656 37.0384 63.7758 36.8979 63.9903 36.8223C64.2051 36.7469 64.2652 36.8568 64.1417 37.1107C64.0458 37.2514 63.944 37.3297 63.7799 37.4123C63.6776 37.4828 63.4207 37.6336 63.2153 37.8431C63.0077 38.0546 62.8439 38.2812 62.7451 38.4023C62.6728 38.491 62.6562 38.494 62.5498 38.4897C62.3142 38.4801 62.4112 38.1503 62.6074 37.8746C62.7862 37.6235 63.0084 37.4916 63.0141 37.466C63.0525 37.2932 62.7228 37.2582 62.8578 36.9047C62.9929 36.5514 63.1865 36.1316 63.5219 36.0604C63.857 35.9892 63.9824 36.3565 63.8343 36.3899ZM55.2908 39.1482C55.172 40.0408 54.8204 42.7534 54.7542 43.577C54.674 44.5711 54.8237 45.5745 55.3009 45.6774C55.7783 45.7803 55.6913 45.4989 55.8476 44.9566C56.004 44.4142 56.4725 44.737 56.5118 45.6774C56.1633 48.5943 53.7546 48.437 53.9635 45.5537L54.4125 41.0439C54.5018 40.3856 54.8722 39.781 55.0754 39.0894C55.1103 38.9708 55.3586 38.64 55.2908 39.1482ZM52.026 37.1026C51.8351 37.7363 51.2987 39.3549 51.6281 40.2272C51.752 40.5547 52.0287 40.7223 52.4945 40.8051C52.7102 40.8433 52.8056 40.6285 52.8157 40.9449C52.8211 41.1033 52.7681 41.2974 52.7239 41.4147C52.2952 42.5491 50.8538 44.0928 51.1617 45.2142C51.2943 45.6966 51.5523 45.6828 51.728 45.0802C51.9037 44.4774 52.496 45.5332 52.2358 46.2951C51.9753 47.0572 51.4728 47.9141 50.6735 47.7573C49.8743 47.6006 49.7842 46.3558 50.2147 45.3376C50.5265 44.6004 51.1374 43.6058 51.3906 43.1848C51.4584 43.0722 51.4636 42.9582 51.4352 42.9488C49.3722 42.3787 51.3496 37.6882 51.8591 36.8599C52.0363 36.5715 52.1884 36.5638 52.026 37.1026ZM48.2325 42.7943C48.4147 42.2658 48.5187 42.3481 48.4864 42.918C48.34 44.5552 48.1534 45.9158 47.8615 47.4691C47.5696 49.0221 45.3931 52.6811 42.687 52.5349C39.9807 52.3885 39.7738 49.3809 40.7537 47.0364C41.2132 45.9376 41.5329 45.3488 41.7073 45.0116C41.9614 44.52 42.2806 44.6135 42.0912 44.9541C41.132 46.6805 39.9335 50.2103 42.9018 50.3932C45.0474 50.5254 46.8627 48.9806 47.2757 47.4894C47.6886 45.9986 47.3637 44.7863 47.5099 44.7302C47.3467 44.9024 48.0758 42.8358 48.2325 42.7943ZM83.9597 50.1684C84.0257 49.9964 84.1714 49.8415 84.4308 50.0552C84.9097 50.5464 85.3485 50.8877 85.0063 51.6924C84.7092 52.3903 84.4937 52.6778 84.2571 52.6711C84.0279 52.6645 83.779 52.3798 83.417 52.0014C83.2096 51.8178 83.2494 51.6238 83.3457 51.3837L83.9597 50.1684ZM88.1459 49.1779C88.2263 49.013 88.3664 48.8607 88.6061 49.0982L89.0833 49.6612C89.0833 49.6612 89.3389 49.899 89.2806 50.3469C89.2522 50.4275 89.3039 50.4236 89.3671 50.4079L90.0595 49.1779C90.1399 49.013 90.28 48.8607 90.5197 49.0982L90.9969 49.6612C90.9969 49.6612 91.1791 49.8601 91.2027 50.2346C91.2462 50.9231 90.4119 52.0276 90.0366 51.5331C89.6485 51.163 89.2854 50.5173 89.1683 50.8031C89.1023 50.9644 88.5331 52.0217 88.123 51.5331L87.5542 50.9272C87.3785 50.7874 87.3394 50.5892 87.417 50.4727L88.1459 49.1779ZM85.9402 50.0451C86.0061 49.873 86.1519 49.7181 86.4112 49.9317C86.8902 50.4229 87.3289 50.7642 86.9865 51.569C86.6896 52.2666 86.4742 52.5544 86.2375 52.5476C86.0083 52.541 85.7593 52.2563 85.3974 51.8779C85.1901 51.6944 85.2298 51.5003 85.3262 51.26L85.9402 50.0451Z" fill="black"></path><path fill-rule="evenodd" clip-rule="evenodd" d="M89.0037 51.7318C89.0697 51.5594 89.2152 51.4047 89.4746 51.6184C89.9538 52.1096 90.3927 52.4509 90.0503 53.2556C89.7532 53.9532 89.5377 54.241 89.3011 54.2342C89.0717 54.2277 88.8228 53.943 88.461 53.5645C88.2536 53.381 88.2934 53.187 88.3895 52.9466L89.0037 51.7318ZM44.3502 44.6039C44.4162 44.4318 44.5619 44.2771 44.8213 44.4908C45.3002 44.9817 45.7392 45.3232 45.3968 46.1277C45.0996 46.8256 44.8842 47.1132 44.6478 47.1066C44.4184 47.0998 44.1693 46.8154 43.8075 46.4367C43.6003 46.2532 43.6399 46.0594 43.7362 45.819L44.3502 44.6039Z" fill="black"></path><mask id="mask1_9871_3342" style="mask-type:luminance" maskUnits="userSpaceOnUse" x="-110" y="-71" width="268" height="268"><path d="M-109.876 -70.105H157.224V196.995H-109.876V-70.105Z" fill="white"></path></mask><g mask="url(#mask1_9871_3342)"><path fill-rule="evenodd" clip-rule="evenodd" d="M7.84363 45.5572L8.69921 41.9238C8.95363 41.1568 9.58496 40.6612 10.5461 40.6913L13.4916 40.7648C14.5583 40.795 15.1877 42.0124 14.9352 43.2147L14.7222 44.6244C14.5149 46.1282 13.599 47.2062 12.065 47.8846C5.78572 50.05 1.46069 52.9163 2.12216 57.7558C2.78175 62.6048 10.1277 63.1758 14.2586 57.3789L23.8396 43.9327C27.4146 38.918 32.8214 36.6358 39.1459 35.9008L47.6452 35.1168C46.2355 39.7754 43.2297 43.0036 38.605 43.8611C30.5693 45.3311 24.6707 46.9555 21.4368 50.6492L18.3575 54.211L13.7159 60.0079C11.6316 62.6048 8.60687 63.5508 5.21658 62.9346C2.22769 62.2599 0.484493 60.2924 0.693678 56.1351C0.900977 51.9703 3.86536 47.3758 7.84363 45.5572Z" fill="black"></path><path fill-rule="evenodd" clip-rule="evenodd" d="M11.8331 62.875C13.5179 61.4955 14.072 61.405 16.1902 58.2051C18.3065 55.007 22.7974 50.2731 25.5752 48.6203C28.3568 46.9694 30.9971 46.4154 34.0312 45.8142L38.4919 44.9115C37.8172 49.2969 34.4533 51.5338 29.7778 52.0747C25.1229 52.6306 21.5216 53.6389 19.2243 56.2979L15.2724 60.834C14.3896 61.8836 13.1773 62.603 11.8331 62.875Z" fill="black"></path><path fill-rule="evenodd" clip-rule="evenodd" d="M19.1377 63.4392C16.4616 62.7475 16.3109 59.3554 19.7671 57.0845C23.2045 54.8042 27.8782 54.8325 29.6308 58.3641C27.4259 57.55 26.0879 57.1184 24.9044 59.3836C23.7171 61.6526 21.793 64.1289 19.1377 63.4392Z" fill="black"></path></g></g></g><defs><clipPath id="clip0_9871_3342"><rect width="100" height="100" fill="white"></rect></clipPath><clipPath id="clip1_9871_3342"><rect width="100.343" height="29.3037" fill="white" transform="translate(0 35)"></rect></clipPath></defs></svg> 