<?xml version="1.0" encoding="UTF-8"?> <svg xmlns="http://www.w3.org/2000/svg" width="100" height="100" viewBox="0 0 100 100" fill="none"><g clip-path="url(#clip0_9871_620)"><path fill-rule="evenodd" clip-rule="evenodd" d="M49.0293 17.7493H51.5861V13H69.452V22.8406H79.4684V40.9206H74.5944V43.4774H79.4684V61.4647H69.6086V71.4651H51.4199V66.4825H48.8823V71.4492H30.9844V61.6117H21V43.3112H25.858V40.7544H21V23.0068H30.8406V13H49.0293V17.7493ZM31.4958 13.6552V23.6588H21.6552V40.1152H26.51V43.9504H21.6552V60.947H31.6524V70.7812H48.2271V65.8305H52.0623V70.794H68.9406V60.7968H78.8004V44.1166H73.9424V40.2814H78.8132V23.4958H68.7968V13.6552H52.2221V18.4013H48.3869V13.6552H31.4958ZM50.2246 40.7544C49.9338 40.7544 49.6496 40.8406 49.4078 41.0022C49.166 41.1637 48.9776 41.3933 48.8663 41.662C48.7551 41.9306 48.7259 42.2262 48.7827 42.5114C48.8394 42.7966 48.9794 43.0585 49.185 43.2641C49.3906 43.4698 49.6526 43.6098 49.9378 43.6665C50.223 43.7232 50.5186 43.6941 50.7872 43.5828C51.0559 43.4716 51.2855 43.2831 51.447 43.0414C51.6086 42.7996 51.6948 42.5154 51.6948 42.2246C51.6948 41.8347 51.5399 41.4607 51.2642 41.185C50.9885 40.9093 50.6145 40.7544 50.2246 40.7544ZM50.2246 39.4121C49.6683 39.4121 49.1246 39.577 48.6621 39.8861C48.1995 40.1951 47.839 40.6344 47.6262 41.1483C47.4133 41.6622 47.3576 42.2277 47.4661 42.7733C47.5746 43.3188 47.8425 43.82 48.2359 44.2133C48.6292 44.6067 49.1303 44.8745 49.6759 44.983C50.2215 45.0916 50.787 45.0359 51.3009 44.823C51.8148 44.6101 52.2541 44.2496 52.5631 43.7871C52.8722 43.3246 53.0371 42.7808 53.0371 42.2246C53.0371 41.4787 52.7408 40.7633 52.2134 40.2358C51.6859 39.7084 50.9705 39.4121 50.2246 39.4121ZM50.2246 38.3765C49.4661 38.3765 48.7246 38.6015 48.0939 39.0229C47.4631 39.4443 46.9716 40.0433 46.6813 40.7441C46.391 41.4449 46.3151 42.216 46.463 42.96C46.611 43.704 46.9763 44.3874 47.5127 44.9237C48.049 45.4601 48.7324 45.8254 49.4764 45.9733C50.2203 46.1213 50.9915 46.0454 51.6923 45.7551C52.3931 45.4648 52.9921 44.9732 53.4135 44.3425C53.8349 43.7118 54.0599 42.9703 54.0599 42.2118C54.0599 41.1946 53.6558 40.2191 52.9365 39.4999C52.2173 38.7806 51.2418 38.3765 50.2246 38.3765ZM60.1323 39.5591C61.2829 37.6191 59.7424 34.9088 57.4732 34.9504C57.4988 32.694 54.8077 31.1151 52.8645 32.2945C51.7587 30.3289 48.6458 30.3097 47.5463 32.2945C45.6095 31.1215 42.928 32.6972 42.9536 34.9536C40.6844 34.912 39.1439 37.6191 40.2945 39.5591C38.3034 40.6553 38.3225 43.7747 40.2945 44.8805C39.1216 46.8237 40.7004 49.5115 42.9568 49.486C42.9121 51.7552 45.6191 53.2957 47.5591 52.1451C48.6585 54.1362 51.7779 54.117 52.8837 52.1451C54.8237 53.2957 57.5339 51.7552 57.4892 49.486C59.7456 49.5147 61.3245 46.8237 60.1515 44.8805C62.1139 43.7747 62.1331 40.6617 60.1515 39.5623L60.1323 39.5591ZM50.2246 30.1404C47.8346 30.1404 45.4982 30.8491 43.511 32.1769C41.5237 33.5047 39.9749 35.392 39.0602 37.6001C38.1456 39.8082 37.9063 42.238 38.3726 44.5821C38.8388 46.9262 39.9897 49.0794 41.6798 50.7694C43.3698 52.4594 45.523 53.6103 47.8671 54.0766C50.2112 54.5429 52.6409 54.3036 54.849 53.3889C57.0571 52.4743 58.9444 50.9255 60.2723 48.9382C61.6001 46.951 62.3088 44.6146 62.3088 42.2246C62.3088 39.0196 61.0357 35.946 58.7694 33.6797C56.5032 31.4135 53.4295 30.1404 50.2246 30.1404ZM56.0478 49.1472C55.7697 48.0733 54.3219 47.0921 53.3375 46.1557C52.9511 46.4649 52.5201 46.7138 52.0591 46.894C52.334 48.0158 52.4459 49.7992 53.2257 50.6493C54.3283 51.851 56.4441 50.6749 56.051 49.1472H56.0478ZM48.6362 33.3108C48.3389 34.3783 49.106 35.9571 49.4895 37.2611C49.9783 37.1929 50.4741 37.1929 50.9629 37.2611C51.2825 36.1553 52.0847 34.5477 51.8322 33.4259C51.4806 31.8279 49.058 31.7959 48.6362 33.3172V33.3108ZM48.6362 51.1351C49.058 52.6533 51.4806 52.6181 51.8322 51.0265C52.0847 49.8983 51.2889 48.2939 50.9629 47.1912C50.7184 47.2273 50.4717 47.2454 50.2246 47.2456C49.9775 47.2452 49.7308 47.227 49.4863 47.1912C49.106 48.4952 48.3389 50.0677 48.6362 51.1415V51.1351ZM53.3056 33.7103C52.513 34.487 52.3883 36.2384 52.0687 37.5456C52.5295 37.726 52.9605 37.9749 53.3471 38.2839C54.1813 37.4849 55.6739 36.4941 56.0222 35.3883C56.5112 33.835 54.4242 32.5917 53.3088 33.6975L53.3056 33.7103ZM44.3918 49.1472C43.9987 50.6717 46.1145 51.851 47.2171 50.6493C47.997 49.7992 48.112 48.0126 48.3837 46.8908C47.9236 46.7089 47.4928 46.4601 47.1053 46.1525C46.1241 47.0889 44.6699 48.0701 44.3918 49.1472ZM57.144 36.3918C56.0702 36.6699 55.089 38.1209 54.1525 39.102C54.4599 39.4897 54.7086 39.9205 54.8908 40.3805C56.0126 40.1056 57.7992 39.9937 58.6494 39.2139C59.8511 38.1113 58.6717 35.9955 57.144 36.3886V36.3918ZM41.7072 45.3056C40.6045 46.4306 41.8446 48.5016 43.4011 48.019C44.5069 47.6706 45.4977 46.1781 46.2967 45.3407C45.9888 44.9533 45.7401 44.5225 45.5584 44.0623C44.2384 44.3819 42.487 44.5097 41.7231 45.3024L41.7072 45.3056ZM59.1288 40.6361C58.0741 40.3389 56.4761 41.106 55.1976 41.4863C55.2334 41.7308 55.2516 41.9775 55.252 42.2246C55.2523 42.4729 55.233 42.7208 55.1944 42.9661C56.3035 43.2857 57.9047 44.0847 59.0297 43.8354C60.6277 43.4806 60.6565 41.0612 59.1384 40.6393L59.1288 40.6361ZM41.3044 40.6361C39.7863 41.0612 39.8215 43.4806 41.4131 43.8322C42.5445 44.0815 44.1521 43.2857 45.2484 42.9597V42.9309C45.1802 42.4603 45.1802 41.9824 45.2484 41.5119V41.4863C43.9412 41.106 42.3719 40.3357 41.2917 40.6329L41.3044 40.6361ZM58.7293 45.3056C57.9558 44.5161 56.2076 44.3915 54.894 44.0719C54.7099 44.5323 54.4589 44.963 54.1493 45.3503C54.9484 46.1845 55.9391 47.6738 57.0258 48.0222C58.5822 48.5112 59.8255 46.4242 58.7197 45.3056H58.7293ZM43.2924 36.395C41.7743 36.0115 40.5885 38.1145 41.7902 39.2075C42.6436 39.9905 44.4334 40.1024 45.5552 40.3773C45.7332 39.9173 45.9788 39.4864 46.2839 39.0989C45.3474 38.1145 44.3663 36.6571 43.286 36.3822L43.2924 36.395ZM47.1276 33.7103C46.0026 32.6077 43.9316 33.8478 44.4142 35.4042C44.7626 36.5069 46.2551 37.5008 47.0925 38.2966H47.1149C47.4959 37.9973 47.9178 37.7541 48.3677 37.5743C48.0481 36.2544 47.9203 34.4998 47.1276 33.7391V33.7103ZM77.49 51.8638V50.5151H67.5056V45.3695H63.6703V54.3599H73.6676V59.5056H77.5028V51.8638H77.49ZM40.5853 69.5028H41.9373V59.5056H47.0829V55.6703H38.0892V65.6675H32.9436V69.5028H40.5853ZM59.8639 14.9432H58.5151V24.9436H53.3695V28.7788H62.36V18.7912H67.5056V14.956H59.8639V14.9432ZM41.7743 28.7916V14.9432H32.787V24.9436H27.9003V28.7788H36.635V18.7912H37.939V28.7916H41.7743ZM46.9199 28.7916V14.9432H43.0846V28.7916H46.9199ZM57.2111 23.7579V14.9432H53.3759V19.9098H48.2239V28.7916H52.0591V23.7579H57.2048H57.2111ZM58.6653 55.6575V69.5028H67.6622V59.5056H72.5489V55.6703H63.827V65.6675H62.5294V55.6575H58.6653ZM53.5197 55.6575V69.5028H57.355V55.6575H53.5197ZM43.2285 60.6913V69.5028H47.0637V64.5361H52.2093V55.6575H48.3741V60.6913H43.2349H43.2285ZM22.9432 32.5821V33.9341H32.9436V39.0797H36.7789V30.086H26.7912V24.9404H22.956V32.5821H22.9432ZM36.7916 50.6685H22.9432V59.6622H32.9436V64.5489H36.7789V55.8269H26.7912V54.5165H36.7916V50.6813V50.6685ZM36.7916 45.5229H22.9432V49.3581H36.7916V45.5229ZM31.7579 35.2316H22.9432V39.0669H27.9098V44.2253H36.7916V40.39H31.7579V35.2316ZM63.6608 33.7743H77.506V24.787H67.5056V19.9002H63.6703V28.635H73.6676V29.939H63.6608V33.7743ZM63.6608 38.9199H77.506V35.0846H63.6608V38.9199ZM68.6913 49.2079H77.506V45.3727H72.5394V40.2239H63.6608V44.0591H68.6913V49.2015V49.2079Z" fill="black"></path><path fill-rule="evenodd" clip-rule="evenodd" d="M35.2256 81.7941C35.2084 81.9479 35.1773 82.0998 35.1329 82.248C35.0721 82.4685 34.9922 82.7082 34.8964 82.9703C34.8226 83.1726 34.7361 83.3701 34.6375 83.5615C34.575 83.6771 34.4915 83.7801 34.3914 83.8651C34.2624 83.9535 34.1183 84.0174 33.9663 84.0537C33.7682 84.1112 33.6116 84.1496 33.4933 84.172C33.4182 84.1856 33.3425 84.1952 33.2664 84.2007C33.2344 84.2007 33.2152 84.1848 33.212 84.1656C33.2103 84.1502 33.2117 84.1347 33.216 84.1198C33.2204 84.105 33.2278 84.0912 33.2376 84.0793C33.3112 83.9955 33.3988 83.9252 33.4965 83.8715C33.6339 83.7884 33.7937 83.6798 33.9759 83.5519C34.1201 83.4578 34.2513 83.345 34.3658 83.2164C34.4687 83.0819 34.5576 82.9374 34.6311 82.7849C34.727 82.5899 34.8165 82.3982 34.8964 82.2032C34.9763 82.0083 35.0306 81.8836 35.0658 81.8037C35.1009 81.7238 35.1329 81.6982 35.1744 81.7014C35.216 81.7046 35.2256 81.7398 35.2256 81.7941ZM64.8656 82.4525C64.8656 82.5676 64.8656 82.6475 64.8656 82.7018C64.8705 82.8015 64.8876 82.9003 64.9168 82.9958C64.954 83.092 65.0184 83.1753 65.1022 83.2355C65.2014 83.3011 65.3189 83.3336 65.4377 83.3282C65.6036 83.337 65.7664 83.2808 65.8916 83.1716C65.982 83.078 66.084 82.9964 66.1952 82.9287C66.2335 82.9156 66.2751 82.9156 66.3134 82.9287C66.3612 82.9353 66.4096 82.9353 66.4573 82.9287C66.5116 82.9287 66.5627 82.8648 66.6139 82.7369C66.6333 82.6624 66.6682 82.5927 66.7161 82.5324C66.7261 82.5276 66.737 82.5251 66.7481 82.5251C66.7592 82.5251 66.7701 82.5276 66.7801 82.5324C66.8281 82.5522 66.8787 82.5651 66.9303 82.5708C66.9814 82.5708 67.0294 82.5356 67.0677 82.4621C67.1005 82.3998 67.1272 82.3345 67.1476 82.2671C67.1796 82.1776 67.2051 82.1329 67.2211 82.1329C67.2371 82.1329 67.2595 82.1617 67.2595 82.216C67.2575 82.4336 67.1944 82.6462 67.0773 82.8296C66.9495 83.0278 66.8216 83.1269 66.6906 83.1269C66.6107 83.2483 66.5595 83.3154 66.55 83.3282C66.5234 83.3666 66.4893 83.3992 66.4498 83.4239C66.4102 83.4487 66.366 83.465 66.3198 83.472C66.2641 83.4606 66.2074 83.4542 66.1505 83.4529C66.1002 83.4541 66.0509 83.4673 66.0066 83.4912C65.8642 83.593 65.7435 83.7223 65.6519 83.8715C65.5917 83.9686 65.5094 84.05 65.4115 84.1089C65.3137 84.1678 65.2033 84.2026 65.0894 84.2103C64.9889 84.2146 64.8893 84.1889 64.8034 84.1366C64.7175 84.0842 64.6491 84.0076 64.6068 83.9163C64.5044 83.6941 64.4552 83.4512 64.4629 83.2068C64.4629 82.9639 64.4917 82.6251 64.5396 82.1936C64.5876 81.7622 64.6611 81.2859 64.757 80.7618C64.8081 80.6084 64.9072 80.3431 65.0574 79.9564C65.0574 79.9212 65.0894 79.9053 65.1085 79.9117C65.1169 79.9156 65.1238 79.922 65.1284 79.93C65.133 79.938 65.135 79.9472 65.1341 79.9564C65.1341 80.145 65.0862 80.5093 65.0191 81.0399C64.9519 81.5704 64.9072 81.9379 64.8912 82.1361C64.8752 82.3342 64.8688 82.4557 64.8688 82.4557L64.8656 82.4525ZM63.8493 81.7941C63.8322 81.9482 63.8001 82.1002 63.7534 82.248C63.6927 82.4685 63.6128 82.7082 63.5169 82.9703C63.4445 83.1731 63.358 83.3707 63.258 83.5615C63.1976 83.6776 63.1151 83.7807 63.0151 83.8651C62.885 83.9534 62.7399 84.0173 62.5869 84.0537C62.3919 84.1112 62.2321 84.1496 62.1139 84.172C62.0399 84.1857 61.9652 84.1953 61.8901 84.2007C61.8582 84.2007 61.839 84.1848 61.8326 84.1656C61.8307 84.15 61.8322 84.1341 61.8372 84.1192C61.8422 84.1042 61.8504 84.0906 61.8614 84.0793C61.9342 83.9947 62.0219 83.9243 62.1202 83.8715C62.2577 83.7884 62.4175 83.6798 62.5997 83.5519C62.7439 83.4578 62.875 83.345 62.9896 83.2164C63.0912 83.0817 63.1791 82.9372 63.2516 82.7849C63.3507 82.5899 63.437 82.3982 63.5169 82.2032C63.5968 82.0083 63.6511 81.8836 63.6863 81.8037C63.7215 81.7238 63.7566 81.6982 63.7982 81.7014C63.8397 81.7046 63.8493 81.7398 63.8493 81.7941ZM63.4658 79.819C63.4981 79.6623 63.5565 79.5121 63.6384 79.3747C63.7566 79.1478 63.8301 79.0359 63.8653 79.0359C63.9004 79.0359 64.0315 79.0583 64.1625 79.1893C64.2609 79.2738 64.333 79.3847 64.3703 79.509C64.3508 79.6617 64.2949 79.8075 64.2073 79.934C64.0986 80.1226 64.0187 80.2153 63.9708 80.2153L63.779 80.0906L63.5361 79.9276C63.4881 79.8957 63.4658 79.8637 63.4658 79.8286V79.819ZM60.9505 82.6091V82.4493C60.9505 82.4301 60.9505 82.3215 60.9729 82.1297C60.9952 81.9379 61.0304 81.5672 61.1007 81.0335C61.171 80.4997 61.2062 80.1386 61.2158 79.95C61.2166 79.9408 61.2146 79.9316 61.2101 79.9236C61.2055 79.9156 61.1986 79.9092 61.1902 79.9053C61.171 79.9053 61.155 79.9053 61.1391 79.95C60.9888 80.3367 60.8898 80.5892 60.8386 80.7554C60.7428 81.2796 60.6724 81.7558 60.6213 82.1872C60.5702 82.6187 60.5478 82.9575 60.5446 83.2004C60.5419 83.3674 60.5548 83.5343 60.5829 83.699C60.607 83.8302 60.6693 83.9514 60.7619 84.0473C60.8039 84.098 60.8567 84.1387 60.9164 84.1663C60.9761 84.194 61.0413 84.2079 61.1071 84.2071C61.3404 84.2071 61.529 84.0569 61.6696 83.7597C61.7658 83.5433 61.8159 83.3093 61.8166 83.0725C61.8039 82.9876 61.7769 82.9055 61.7367 82.8296C61.6888 82.7369 61.6281 82.705 61.5513 82.7306C61.4995 82.8136 61.4607 82.9042 61.4363 82.999C61.3915 83.1524 61.3628 83.2291 61.3436 83.2323C61.2881 83.2323 61.2336 83.2179 61.1854 83.1904C61.1372 83.163 61.097 83.1234 61.0687 83.0757C60.9761 82.941 60.9321 82.7786 60.9441 82.6155L60.9505 82.6091ZM58.6877 82.7433C58.7046 82.8105 58.7046 82.8808 58.6877 82.9479C58.6627 83.0344 58.6284 83.118 58.5854 83.1972C58.5358 83.2912 58.4697 83.3756 58.3905 83.4465C58.3594 83.4861 58.3152 83.5133 58.2658 83.5232C58.2181 83.5042 58.1747 83.476 58.138 83.4401C58.0709 83.3889 58.0133 83.3378 57.959 83.2931C57.9047 83.2483 57.8567 83.2068 57.8184 83.1716C57.788 83.1478 57.7676 83.1137 57.7608 83.0757L57.8503 82.8872C57.8971 82.7775 57.9504 82.6707 58.0101 82.5676C58.0549 82.4845 58.1252 82.3662 58.2211 82.2064C58.2754 82.2543 58.3457 82.3087 58.4256 82.3726C58.4959 82.425 58.5603 82.485 58.6174 82.5516C58.6638 82.6097 58.6936 82.6793 58.7037 82.7529L58.6877 82.7433ZM60.0908 82.2863C60.0908 81.9156 60.0908 81.6471 60.1067 81.5257C60.1227 81.4042 60.1067 81.2955 60.1067 81.2476C60.1067 81.1997 60.1067 81.1773 60.078 81.1773C60.0492 81.1773 60.0109 81.222 59.9661 81.3179C59.8986 81.4615 59.842 81.61 59.7967 81.7622C59.7312 81.9445 59.6904 82.1347 59.6753 82.3279V82.6219C59.6753 82.7625 59.6753 82.8744 59.6753 82.9671C59.6828 83.1591 59.6546 83.351 59.5922 83.5328C59.4513 83.9353 59.1803 84.2795 58.8219 84.5107C58.4693 84.7184 58.0678 84.8287 57.6586 84.8304C57.3743 84.832 57.0969 84.7436 56.866 84.5779C56.7648 84.4965 56.6835 84.3933 56.6281 84.2759C56.5728 84.1585 56.5448 84.0301 56.5463 83.9003C56.5814 83.4041 56.7254 82.9218 56.9682 82.4877C56.9858 82.4347 56.9858 82.3776 56.9682 82.3247C56.9682 82.2703 56.9043 82.3247 56.8244 82.4653C56.435 83.0836 56.2146 83.7933 56.1852 84.5235C56.1757 84.8663 56.2968 85.1999 56.524 85.4568C56.6369 85.5727 56.7722 85.6645 56.9216 85.7265C57.071 85.7886 57.2315 85.8197 57.3933 85.8179C57.7552 85.8073 58.1089 85.7082 58.4237 85.5294C58.7384 85.3505 59.0046 85.0974 59.1991 84.792C59.719 84.0557 60.0133 83.1839 60.046 82.2831L60.0908 82.2863ZM55.4853 81.5864C55.4853 81.8069 55.4853 82.0083 55.4693 82.1872C55.4679 82.34 55.4583 82.4925 55.4405 82.6443C55.4229 82.8865 55.3724 83.1252 55.2903 83.3538C55.2397 83.496 55.1777 83.6338 55.1049 83.7661C55.0721 83.8175 55.0358 83.8666 54.9963 83.9131C54.9643 83.9451 54.9355 83.9546 54.9164 83.9419C54.9081 83.9366 54.902 83.9286 54.899 83.9192C54.8961 83.9098 54.8966 83.8998 54.9004 83.8907C54.9004 83.8907 54.9164 83.7916 54.9547 83.6063C54.9901 83.4334 55.0136 83.2582 55.025 83.0821C55.025 82.9127 55.025 82.6698 55.025 82.3598C55.017 82.122 55.0244 81.8839 55.0474 81.6471C55.0617 81.5466 55.0831 81.4473 55.1113 81.3499C55.1401 81.2476 55.1752 81.1453 55.2104 81.0303C55.2456 80.9152 55.2871 80.8385 55.3287 80.749C55.3702 80.6595 55.4086 80.5828 55.4437 80.5157C55.4789 80.4486 55.4949 80.455 55.5172 80.4646C55.5274 80.4682 55.5359 80.4754 55.5412 80.4848C55.5464 80.4942 55.5482 80.5051 55.546 80.5157C55.5356 80.5727 55.5292 80.6304 55.5268 80.6883C55.5268 80.781 55.5108 80.8832 55.5044 81.0079C55.498 81.1325 55.5044 81.2316 55.5044 81.3275C55.5044 81.4234 55.5044 81.5161 55.5044 81.5704L55.4853 81.5864ZM52.8325 81.8612C52.9331 81.7867 53.0169 81.692 53.0786 81.5832C53.133 81.4745 53.2225 81.3147 53.3439 81.1006C53.3928 81.0262 53.4473 80.9557 53.5069 80.8896C53.5815 80.8005 53.6639 80.7182 53.753 80.6435C53.7722 80.6212 53.8297 80.5445 53.9224 80.407C53.955 80.3534 53.9913 80.3022 54.0311 80.2536C54.079 80.2536 54.1621 80.3271 54.2708 80.4805C54.3688 80.6063 54.4257 80.7592 54.4338 80.9184C54.4337 81.0451 54.4007 81.1696 54.3379 81.2796C54.2825 81.3828 54.2023 81.4707 54.1046 81.5352C54.0508 81.5714 53.9872 81.5904 53.9224 81.5896C53.8751 81.5883 53.8281 81.583 53.7818 81.5736H53.6507C53.6021 81.5728 53.5536 81.5793 53.5069 81.5928C53.3062 81.7089 53.1516 81.8906 53.0691 82.1073C53.0307 82.184 52.9987 82.2416 52.9764 82.2831C52.954 82.3247 52.9316 82.3566 52.9252 82.3726C52.8867 82.4402 52.844 82.5053 52.7974 82.5676C52.7974 82.6027 52.7782 82.6411 52.7686 82.6858C52.7501 82.7604 52.7277 82.834 52.7015 82.9063C52.6204 83.1393 52.5132 83.3623 52.3819 83.5711C52.3274 83.6719 52.2535 83.761 52.1646 83.8332C52.0894 83.8778 52.0102 83.9153 51.9281 83.945L51.4487 84.1049C51.3242 84.1512 51.1958 84.1865 51.0651 84.2103C51.0396 84.2103 51.0268 84.2039 51.0268 84.1911C51.0012 84.1592 51.1291 84.0441 51.4135 83.8556C51.698 83.667 51.8769 83.536 51.9568 83.4848C52.1666 83.3226 52.3207 83.0993 52.3979 82.8456C52.3526 82.8384 52.3062 82.8475 52.2668 82.8712C52.2252 82.8926 52.1794 82.9046 52.1326 82.9063C52.0262 82.9061 51.9236 82.8662 51.845 82.7945C51.8096 82.7668 51.7819 82.7306 51.7645 82.6892C51.7472 82.6478 51.7408 82.6026 51.7459 82.558C51.7459 82.5036 51.7779 82.4429 51.8002 82.3726C51.8428 82.2632 51.8919 82.1565 51.9472 82.053C52.0103 81.9218 52.0852 81.7967 52.171 81.6791C52.1943 81.6379 52.227 81.6029 52.2664 81.5768C52.3059 81.5507 52.3509 81.5343 52.3979 81.5288C52.4602 81.529 52.5217 81.5438 52.5772 81.5721C52.6327 81.6004 52.6808 81.6415 52.7175 81.6918C52.7617 81.7493 52.7953 81.8143 52.8166 81.8836L52.8325 81.8612ZM51.1003 81.7941C51.1003 81.7398 51.0811 81.7078 51.0492 81.7014C51.0172 81.695 50.9693 81.7334 50.9373 81.8037C50.9053 81.874 50.8446 82.0083 50.7679 82.2032C50.6912 82.3982 50.5985 82.5899 50.5026 82.7849C50.4288 82.9365 50.3411 83.081 50.2406 83.2164C50.1252 83.3442 49.9942 83.457 49.8506 83.5519C49.6653 83.6798 49.5055 83.7884 49.368 83.8715C49.2703 83.9252 49.1827 83.9955 49.1092 84.0793C49.0993 84.0912 49.092 84.105 49.0876 84.1198C49.0832 84.1347 49.0818 84.1502 49.0836 84.1656C49.0836 84.1848 49.106 84.1975 49.1379 84.2007C49.2141 84.1956 49.2898 84.186 49.3648 84.172C49.4831 84.1496 49.6429 84.1112 49.8379 84.0537C49.9909 84.0173 50.136 83.9534 50.2661 83.8651C50.3652 83.7799 50.4476 83.6769 50.509 83.5615C50.6077 83.3701 50.6941 83.1726 50.7679 82.9703C50.8638 82.7082 50.9437 82.4685 51.0044 82.248C51.051 82.1002 51.0832 81.9482 51.1003 81.7941ZM47.8883 82.6091C47.8763 82.7722 47.9202 82.9346 48.0129 83.0693C48.0412 83.117 48.0814 83.1566 48.1296 83.184C48.1778 83.2115 48.2323 83.2259 48.2878 83.2259C48.307 83.2259 48.3357 83.146 48.3805 82.9926C48.4032 82.8972 48.4421 82.8064 48.4955 82.7242C48.5722 82.6986 48.6329 82.7242 48.6809 82.8232C48.7211 82.8991 48.7481 82.9812 48.7608 83.0661C48.7601 83.3029 48.71 83.5369 48.6138 83.7533C48.4731 84.0505 48.2942 84.2007 48.0513 84.2007C47.9855 84.2015 47.9203 84.1876 47.8606 84.16C47.8008 84.1323 47.7481 84.0916 47.7061 84.0409C47.6134 83.945 47.5512 83.8238 47.5271 83.6926C47.4989 83.5279 47.4861 83.361 47.4888 83.194C47.4888 82.9511 47.5175 82.6123 47.5655 82.1808C47.6134 81.7494 47.6869 81.2732 47.7828 80.749C47.8307 80.5956 47.933 80.3303 48.0832 79.9436C48.0832 79.9085 48.1152 79.8925 48.1344 79.8989C48.1427 79.9028 48.1497 79.9092 48.1542 79.9172C48.1588 79.9252 48.1608 79.9344 48.1599 79.9436C48.1599 80.1322 48.112 80.4965 48.0449 81.0271C47.9778 81.5576 47.933 81.9252 47.917 82.1233C47.9011 82.3215 47.8947 82.4429 47.8947 82.4429V82.6027L47.8883 82.6091ZM46.14 83.2291C46.0707 83.2127 45.9984 83.2127 45.9291 83.2291C45.7075 83.3428 45.5316 83.5289 45.4305 83.7565C45.3762 83.8773 45.2914 83.9818 45.1843 84.0597C45.0772 84.1376 44.9517 84.1862 44.8201 84.2007C44.7135 84.1952 44.6099 84.1631 44.5189 84.1072C44.4279 84.0514 44.3524 83.9737 44.2991 83.8811C44.175 83.6703 44.1119 83.429 44.1169 83.1844C44.1169 82.9415 44.1457 82.6027 44.1936 82.1712C44.2416 81.7398 44.3151 81.2636 44.411 80.7394C44.4589 80.586 44.558 80.3207 44.7114 79.934C44.7114 79.8989 44.7434 79.8829 44.7593 79.8893C44.7753 79.8957 44.7849 79.9116 44.7849 79.934C44.7849 80.1226 44.7402 80.4869 44.6699 81.0175C44.5995 81.548 44.558 81.9156 44.5452 82.1137C44.5324 82.3119 44.5228 82.4333 44.5228 82.4333C44.5105 82.5554 44.5244 82.6787 44.5636 82.795C44.6027 82.9113 44.6662 83.0179 44.7498 83.1077C44.8584 83.208 45.0014 83.2629 45.1493 83.2611C45.2521 83.2601 45.3531 83.2342 45.4438 83.1858C45.5345 83.1374 45.6121 83.0679 45.6702 82.983C45.745 82.8755 45.8331 82.7778 45.9323 82.6922C45.9883 82.638 46.0622 82.6062 46.14 82.6027C46.2167 82.6027 46.2998 82.6251 46.3893 82.6443C46.4788 82.6634 46.5523 82.6027 46.613 82.4685C46.6407 82.3867 46.659 82.302 46.6674 82.216C46.6808 82.1272 46.6872 82.0374 46.6866 81.9475V81.4042C46.6866 81.3531 46.6866 81.2796 46.6866 81.1805C46.6992 81.1002 46.7184 81.0211 46.7441 80.944C46.7794 80.8351 46.821 80.7284 46.8687 80.6244L46.9486 80.4582C46.9742 80.4038 46.9966 80.3559 47.0158 80.308L47.0957 80.145C47.134 80.0874 47.166 80.0651 47.1947 80.081C47.2235 80.097 47.2139 80.1354 47.1947 80.1961C47.1756 80.2568 47.166 80.3335 47.1532 80.4198C47.1243 80.5837 47.1051 80.7491 47.0957 80.9152C47.0509 81.4937 47.0285 81.7717 47.0285 81.7526C47.0117 81.9192 46.9796 82.084 46.9327 82.2448C46.8801 82.396 46.8149 82.5424 46.7377 82.6826C46.6637 82.8199 46.5676 82.9441 46.4532 83.0502C46.3681 83.1364 46.2545 83.1886 46.1336 83.1972L46.14 83.2291ZM43.9412 86.243C43.9876 86.0961 44.052 85.9554 44.1329 85.8243C44.2576 85.5878 44.3375 85.4664 44.3662 85.4664C44.395 85.4664 44.4941 85.4664 44.5963 85.5814C44.6807 85.6606 44.7577 85.7472 44.8265 85.8403L45.031 85.4951C45.1077 85.3673 45.1589 85.3034 45.1812 85.3034C45.2922 85.322 45.3918 85.3826 45.4593 85.4728C45.5519 85.5558 45.6119 85.6691 45.6287 85.7924C45.6166 85.9466 45.5562 86.0931 45.4561 86.211C45.3442 86.3677 45.2643 86.4475 45.21 86.4475C45.1557 86.4475 45.1141 86.4028 45.0246 86.3133C44.9513 86.237 44.8722 86.1665 44.7881 86.1024C44.6219 86.4412 44.4877 86.6105 44.3886 86.6105C44.3468 86.6025 44.3087 86.5812 44.2799 86.5498C44.2384 86.5115 44.1713 86.4571 44.0786 86.3836C43.9859 86.3101 43.9412 86.2622 43.9412 86.243ZM42.618 82.1808L42.8193 81.711C42.9235 81.5019 42.9937 81.2775 43.0271 81.0462C43.0187 80.9745 42.9993 80.9044 42.9696 80.8385C42.9334 80.7414 42.8917 80.6465 42.8449 80.5541L42.7906 80.4614L42.7394 80.3687C42.7079 80.3326 42.6918 80.2855 42.6947 80.2376C42.7203 80.1514 42.7458 80.0746 42.7682 80.0075C42.785 79.9478 42.8052 79.8891 42.8289 79.8317C42.8804 79.6594 42.9434 79.4907 43.0175 79.3268C43.1219 79.3609 43.2284 79.4791 43.3371 79.6815C43.4282 79.8745 43.4762 80.085 43.4777 80.2984C43.4641 80.5795 43.4025 80.8562 43.2956 81.1166C43.2252 81.2923 43.1517 81.4713 43.0846 81.6503C43.0175 81.8293 42.944 82.0051 42.8769 82.1808C42.8769 82.2224 42.912 82.2671 42.9823 82.3119C43.0527 82.3566 43.123 82.4014 43.1933 82.4525C43.2576 82.4968 43.3103 82.556 43.3467 82.6251C43.3811 82.728 43.3962 82.8363 43.3914 82.9447C43.3913 83.1601 43.3656 83.3746 43.3147 83.5839C43.2383 83.8484 43.14 84.106 43.0207 84.3541C42.8117 84.8005 42.4928 85.1865 42.0938 85.476C41.9648 85.5619 41.8252 85.6307 41.6784 85.6805C41.5239 85.7323 41.3619 85.7583 41.199 85.7572C41.0203 85.7657 40.8424 85.7292 40.6816 85.651C40.5208 85.5728 40.3822 85.4555 40.2785 85.3098C40.0857 85.0223 39.9894 84.6808 40.0036 84.335C40.0133 84.1002 40.0508 83.8674 40.1155 83.6414C40.1779 83.3991 40.2559 83.161 40.3488 82.9287L40.5693 82.4014C40.5987 82.3506 40.6254 82.2983 40.6492 82.2448C40.6844 82.1776 40.7259 82.085 40.7803 81.9731C40.8346 81.8612 40.8506 81.8453 40.8794 81.7877C40.9081 81.7302 40.9337 81.6823 40.9529 81.6407C40.972 81.5992 41.0328 81.5161 41.0583 81.5193C41.0839 81.5225 41.0999 81.5608 41.0871 81.6247C41.0743 81.6939 41.0539 81.7614 41.0264 81.8261C40.8058 82.3342 40.6556 82.689 40.5693 82.8904C40.4484 83.1602 40.3749 83.4489 40.352 83.7437C40.3372 83.8986 40.3616 84.0548 40.4231 84.1978C40.4845 84.3408 40.581 84.466 40.7036 84.5619C40.9066 84.6843 41.1411 84.7444 41.3779 84.7345C41.8302 84.7493 42.2727 84.6006 42.6244 84.3158C42.7472 84.2304 42.8495 84.1187 42.9236 83.9887C42.9977 83.8588 43.0418 83.7139 43.0527 83.5647C43.0527 83.5104 42.9408 83.4337 42.7331 83.3314C42.5253 83.2291 42.3943 83.0981 42.3943 82.9447C42.3966 82.8188 42.4215 82.6943 42.4678 82.5771C42.5135 82.4412 42.5712 82.3097 42.6404 82.184L42.618 82.1808ZM41.8573 78.2657C41.9025 78.1183 41.9669 77.9775 42.0491 77.847C42.1737 77.6105 42.2536 77.4891 42.2824 77.4891C42.3112 77.4891 42.4103 77.505 42.5093 77.6041C42.5945 77.6813 42.6716 77.767 42.7394 77.8598L42.9472 77.5178C43.0239 77.39 43.075 77.3261 43.1006 77.3261C43.2101 77.3463 43.3081 77.4067 43.3755 77.4954C43.4681 77.5785 43.5281 77.6918 43.5449 77.8151C43.5322 77.9691 43.4719 78.1155 43.3723 78.2337C43.2604 78.3903 43.1773 78.4702 43.1262 78.4702C43.075 78.4702 43.0303 78.4255 42.9408 78.336C42.8667 78.2606 42.7877 78.1901 42.7043 78.1251C42.5349 78.4638 42.4039 78.6332 42.3016 78.6332C42.2616 78.6228 42.2252 78.6019 42.1961 78.5725C42.1546 78.5342 42.0875 78.4798 41.9948 78.4063C41.9021 78.3328 41.8573 78.2817 41.8573 78.2657ZM39.8023 77.6265C39.7178 77.7138 39.6448 77.8116 39.585 77.9173C39.5175 78.0405 39.4598 78.1687 39.4124 78.3008C39.4124 78.32 39.4731 78.3008 39.5594 78.2305L39.831 78.0164L40.4958 77.5146L40.873 77.2302C41.0008 77.1343 41.1254 77.0352 41.2533 76.9329C41.4355 76.7923 41.6528 76.6133 41.8925 76.412L42.3399 76.0285L42.6595 75.7472C42.9024 75.5341 43.0654 75.3839 43.1485 75.2966C43.2316 75.2092 43.3243 75.1101 43.4266 74.9993C43.563 74.8459 43.6695 74.7149 43.7462 74.6062C43.8421 74.4796 43.9286 74.346 44.0051 74.2067C44.0791 74.08 44.1401 73.9462 44.1873 73.8072C44.199 73.781 44.2055 73.7528 44.2064 73.7241C44.2064 73.7401 43.9859 73.9574 43.5449 74.3825C43.1038 74.8076 42.8353 75.0633 42.7426 75.1496C42.4934 75.3797 42.2121 75.6194 41.9053 75.8783L41.2948 76.3736L40.6876 76.8562C40.3737 77.0989 40.0749 77.3604 39.7927 77.6393L39.8023 77.6265ZM38.6613 81.3626C38.6237 81.3799 38.5839 81.3917 38.543 81.3978L38.4727 81.3626H38.428C38.3731 81.4605 38.3005 81.5472 38.2139 81.6183C38.1659 81.6503 38.0892 81.6183 37.9901 81.5544C37.9901 81.5544 37.9422 81.6055 37.8942 81.7078C37.8756 81.7548 37.8421 81.7943 37.7987 81.8203C37.7554 81.8463 37.7047 81.8573 37.6545 81.8516C37.6405 81.8492 37.6272 81.8436 37.6156 81.8353C37.604 81.827 37.5943 81.8162 37.5874 81.8037C37.5619 81.7717 37.5395 81.7654 37.5203 81.7749C37.4991 81.7974 37.4818 81.8234 37.4692 81.8516C37.4475 81.8931 37.4195 81.9308 37.3861 81.9635C37.3442 81.9939 37.2978 82.0177 37.2486 82.0338C37.1835 82.0541 37.1155 82.0638 37.0473 82.0626H36.9802C36.9839 81.9227 36.9387 81.786 36.8523 81.6759C36.8162 81.6249 36.7682 81.5834 36.7126 81.5551C36.6569 81.5267 36.5952 81.5122 36.5327 81.5129C36.4858 81.5183 36.4407 81.5347 36.4013 81.5608C36.3619 81.5869 36.3291 81.6219 36.3058 81.6631C36.2189 81.7799 36.144 81.9052 36.0821 82.037C36.0255 82.1399 35.9763 82.2467 35.9351 82.3566C35.9127 82.4269 35.8935 82.4877 35.8807 82.542C35.8758 82.5863 35.882 82.6311 35.8988 82.6724C35.9155 82.7137 35.9423 82.7501 35.9766 82.7785C36.0569 82.8497 36.1602 82.8894 36.2675 82.8904C36.3133 82.8889 36.3581 82.8769 36.3985 82.8552C36.439 82.8315 36.4864 82.8225 36.5327 82.8296C36.4925 82.969 36.4275 83.1 36.341 83.2164C36.271 83.3154 36.1858 83.4028 36.0885 83.4752C36.0086 83.536 35.8264 83.6574 35.542 83.846C35.2575 84.0345 35.1329 84.1656 35.1584 84.1816C35.184 84.1975 35.1584 84.2007 35.1936 84.2007C35.3245 84.1778 35.4529 84.1424 35.5771 84.0953C35.7944 84.025 35.9543 83.9738 36.0597 83.9355C36.1419 83.9057 36.2211 83.8682 36.2962 83.8236C36.3843 83.7505 36.458 83.6616 36.5136 83.5615C36.6435 83.352 36.7507 83.1291 36.8332 82.8967C36.8555 82.8264 36.8811 82.7529 36.9003 82.6762V82.6091C36.9341 82.5971 36.9663 82.581 36.9962 82.5612L37.0537 82.5228L37.303 82.4014C37.3551 82.3792 37.4085 82.36 37.4628 82.3438L37.5619 82.3151L37.7089 82.2256L37.8048 82.2064L37.9646 82.1681C38.0993 82.1128 38.2236 82.035 38.3321 81.9379C38.3988 81.9247 38.4626 81.8998 38.5207 81.8644C38.5667 81.83 38.6104 81.7926 38.6517 81.7526C38.7859 81.6119 38.8626 81.5257 38.8818 81.5001C38.9827 81.3795 39.0636 81.2435 39.1215 81.0974C39.1991 80.8905 39.2558 80.6763 39.2909 80.4582C39.3308 80.2559 39.3543 80.0506 39.3612 79.8445V79.3044C39.3627 79.1131 39.3755 78.9221 39.3996 78.7323C39.3996 78.4926 39.3996 78.3807 39.3996 78.4127C39.4037 78.3862 39.4037 78.3593 39.3996 78.3328C39.3772 78.3104 39.3612 78.3328 39.3484 78.3552L39.0256 79.1893C38.9911 79.2678 38.9747 79.353 38.9777 79.4386C38.9777 79.5121 38.9777 79.6432 38.9777 79.8254V80.4646C38.9932 80.6714 38.966 80.8792 38.8978 81.075C38.8669 81.1397 38.8305 81.2017 38.7891 81.2604C38.7589 81.3032 38.721 81.3401 38.6773 81.369L38.6613 81.3626ZM36.6062 79.2373C36.6555 79.0884 36.722 78.9457 36.8044 78.8122C36.9354 78.5693 37.0153 78.4479 37.0473 78.4479C37.1375 78.4687 37.2197 78.5153 37.2838 78.5821C37.3727 78.651 37.4458 78.7382 37.4979 78.8378C37.5683 78.7227 37.6322 78.6173 37.6929 78.5182C37.7536 78.4191 37.8399 78.2945 37.8591 78.2945C37.9701 78.3115 38.0712 78.3683 38.1435 78.4543C38.2378 78.5356 38.2973 78.65 38.3097 78.7739C38.2957 78.9294 38.2381 79.0778 38.1435 79.2021C38.0285 79.3651 37.9486 79.4482 37.8974 79.4482C37.8463 79.4482 37.7984 79.4099 37.7249 79.33C37.647 79.2445 37.5614 79.1664 37.4692 79.0967C37.2998 79.4418 37.1687 79.6144 37.0697 79.6144C36.9798 79.5686 36.8961 79.5116 36.8204 79.445C36.6798 79.3268 36.6062 79.2597 36.6062 79.2405V79.2373ZM37.0281 78.0867C37.0726 77.9447 37.1315 77.8076 37.2039 77.6776C37.319 77.4347 37.3925 77.3101 37.4276 77.3101C37.5405 77.3242 37.6436 77.3815 37.7153 77.4699C37.8084 77.5593 37.8654 77.6799 37.8751 77.8087C37.8585 77.9586 37.8082 78.1028 37.7281 78.2305C37.629 78.4127 37.5587 78.499 37.5139 78.499C37.4692 78.499 37.4212 78.4575 37.3254 78.3744C37.2295 78.2913 37.156 78.2273 37.1048 78.189C37.0537 78.1506 37.0281 78.1187 37.0281 78.0867Z" fill="black"></path></g><defs><clipPath id="clip0_9871_620"><rect width="58.4684" height="73.6106" fill="white" transform="translate(21 13)"></rect></clipPath></defs></svg> 