<?xml version="1.0" encoding="UTF-8"?> <svg xmlns="http://www.w3.org/2000/svg" width="100" height="100" viewBox="0 0 100 100" fill="none"><g clip-path="url(#clip0_9871_1141)"><path d="M41.0167 19.0861C41.4549 17.653 42.5394 16.2296 44.322 14.745C45.8512 13.4739 47.6335 12.3809 48.9347 11.583C49.2005 11.4199 49.4501 11.2672 49.6777 11.1248L50.114 11L50.5522 11.1237C50.7657 11.2564 50.998 11.3988 51.2454 11.5497C53.872 13.1563 58.1871 15.795 59.2049 19.0854M51.4008 26.5081L55.6885 22.2635L56.2602 22.4985V20.52C56.2602 20.3447 56.2299 20.1594 56.1707 19.9695C55.5544 17.9974 52.1174 15.7832 50.1184 14.5529C47.9812 15.8726 43.9675 18.471 43.9675 20.5124V20.9702L43.4482 21.1834M59.4281 22.2753L59.4285 29.8053M56.2602 27.3947V26.1394L55.3647 27.026L55.7362 27.3947H56.2602Z" stroke="black" stroke-width="0.0665628" stroke-miterlimit="10" stroke-linecap="round" stroke-linejoin="round"></path><path d="M58.5275 19.7299C57.817 16.2643 52.6421 13.3816 50.1176 11.8115C50.1176 11.8115 50.1176 11.8115 50.114 11.8115C48.7579 12.6592 46.6337 13.8823 44.8482 15.3666C43.3623 16.604 42.1109 18.0239 41.7322 19.5654L43.1495 20.971V20.5132C43.1495 17.888 47.6504 15.1126 50.1172 13.5998C52.3637 14.9732 56.2085 17.3515 56.9515 19.7299C57.0341 19.9946 57.0777 20.2592 57.0777 20.5203V28.2062H55.3971L54.2073 27.026L56.2662 24.9874V22.8379C54.041 25.041 52.0395 27.0224 52.0395 27.0224L53.2332 28.2062L54.7623 29.7263H58.6104C58.6104 29.7263 58.6104 28.3493 58.6104 26.4502V20.5167C58.6104 20.2521 58.5816 19.9874 58.5275 19.7299Z" fill="black"></path><path d="M61.2564 31.6167L67.3142 31.6217L67.5501 32.1886L68.9606 30.7898C69.0857 30.6657 69.1964 30.5137 69.2902 30.3377C70.2603 28.5112 69.4085 24.5348 68.8722 22.2634C67.2439 21.8868 65.0216 21.409 63.126 21.409C61.7581 21.409 60.7724 21.67 60.2737 22.1643L59.9476 22.488L59.428 22.2745M69.9477 34.2551L64.5805 39.5776M59.2051 19.0864C60.2423 18.5356 61.5424 18.2681 63.1668 18.2681C63.628 18.2681 64.1221 18.2906 64.6368 18.3353C66.6247 18.5088 68.6638 18.9855 70.1529 19.3339C70.4576 19.405 70.7429 19.4719 71.0051 19.5309L71.4025 19.7484L71.6243 20.1436C71.6802 20.3875 71.744 20.6515 71.8111 20.9322C72.5234 23.9104 73.6923 28.802 72.0654 31.8416M64.059 35.6506L64.9538 34.7629L63.6879 34.7619V35.2833L64.059 35.6506Z" stroke="black" stroke-width="0.0665628" stroke-miterlimit="10" stroke-linecap="round" stroke-linejoin="round"></path><path d="M71.1281 31.8196C73.0976 28.8711 71.4931 23.2034 70.8281 20.3229C70.8281 20.3229 70.8281 20.3229 70.8252 20.32C69.2618 19.9688 66.8873 19.344 64.5665 19.1416C62.6335 18.9746 60.7365 19.1012 59.3693 19.9252V21.9134L59.6956 21.5897C61.567 19.7335 66.729 20.927 69.5521 21.5872C70.1609 24.1337 71.1837 28.5113 70.0134 30.7145C69.8832 30.9598 69.7249 31.1773 69.5388 31.3622L64.0591 36.7967L62.8708 35.6182V33.9491L65.7801 33.9516L67.3129 32.4315C64.1684 32.4294 61.3402 32.4265 61.3402 32.4265V34.1011L61.3373 36.248L64.0584 38.9465C64.0584 38.9465 65.0404 37.9726 66.395 36.6296L70.625 32.4344C70.8144 32.2474 70.9828 32.0399 71.1281 31.8196Z" fill="black"></path><path d="M68.85 50.0994H61.2566M72.0652 31.8398C73.5096 32.2744 74.9449 33.3498 76.4434 35.1181C77.7255 36.6356 78.8277 38.4038 79.633 39.6946C79.7971 39.9574 79.9507 40.2042 80.0935 40.4295L80.2576 40.8412L80.0946 41.2965C79.9608 41.5082 79.8165 41.7393 79.6647 41.985C78.0447 44.5901 75.3835 48.8687 72.0659 49.8776M64.9532 46.957L64.0592 46.069L63.6877 46.4377V46.957H64.9532Z" stroke="black" stroke-width="0.0665628" stroke-miterlimit="10" stroke-linecap="round"></path><path d="M71.4166 49.2078C74.9109 48.5036 77.8181 43.3713 79.4017 40.8677C79.4017 40.8677 79.4017 40.8677 79.4017 40.8638C78.5473 39.5194 77.3132 37.4128 75.8172 35.6417C74.569 34.1686 73.1376 32.9272 71.5832 32.5513L70.1652 33.9576H70.6272C73.2743 33.9576 76.0729 38.4207 77.5985 40.8674C76.2136 43.0952 73.8153 46.9081 71.4166 47.6449C71.1497 47.7268 70.8829 47.7697 70.6192 47.7697H62.8697V46.1037L64.0598 44.9231L66.1155 46.9653L68.283 46.965C66.0614 44.759 64.0638 42.7736 64.0638 42.7736L62.8697 43.9578L61.3369 45.4736L61.3365 49.2901C61.3365 49.2901 62.7254 49.2901 64.6404 49.2901H70.6232C70.8897 49.2901 71.157 49.2611 71.4166 49.2078Z" fill="black"></path><path d="M56.7705 60.5329L51.4026 55.2104M72.0648 49.8774C72.7767 51.1972 73.0241 52.9643 72.8232 55.2655C72.6483 57.2361 72.1672 59.2583 71.8159 60.735C71.7445 61.0372 71.6767 61.3205 71.6172 61.5809L71.3979 61.975L70.9998 62.1949C70.7534 62.2507 70.4876 62.3137 70.2045 62.3802C68.2776 62.8337 65.6384 63.4539 63.1813 63.4539C61.5497 63.4539 60.242 63.1846 59.203 62.6331M59.4295 51.9128L59.4245 57.9196L58.8525 58.1542L60.2633 59.5526C60.3895 59.6778 60.5425 59.788 60.7195 59.8802C61.2756 60.171 62.0875 60.3183 63.133 60.3183C65.0307 60.3183 67.3039 59.828 68.8604 59.4661C69.4309 57.034 70.4159 52.3821 68.9603 50.9386L68.6343 50.6149L68.85 50.1003M56.2569 55.5791L56.2583 54.3252H55.7322L55.3625 54.6918L56.2569 55.5791Z" stroke="black" stroke-width="0.0665628" stroke-miterlimit="10" stroke-linecap="round"></path><path d="M59.2235 61.7026C62.1966 63.655 67.9118 62.0645 70.8168 61.4043C70.8168 61.4043 70.8168 61.4043 70.8197 61.4014C71.1739 59.8514 71.8039 57.4966 72.0088 55.1948C72.1765 53.2781 72.0495 51.3969 71.2186 50.041H69.213L69.539 50.3643C71.4108 52.2205 70.2077 57.3392 69.5419 60.1389C66.9745 60.743 62.5598 61.7573 60.3382 60.5971C60.0905 60.468 59.8719 60.3102 59.6847 60.1257L54.2058 54.6919L55.3934 53.5138L57.0769 53.5134L57.0737 56.399L58.6064 57.9183C58.6089 54.8006 58.6118 51.9956 58.6118 51.9956H56.9229L54.7583 51.9927L52.0369 54.6912C52.0369 54.6912 53.0189 55.6654 54.3735 57.0084L58.6035 61.2033C58.7925 61.3914 59.002 61.5577 59.2235 61.7026Z" fill="black"></path><path d="M40.791 59.4439V51.9136M59.2031 62.6338C58.7653 64.0655 57.6805 65.4882 55.8985 66.9746C54.3697 68.2443 52.5885 69.3365 51.2884 70.1341C51.0215 70.2979 50.7705 70.4517 50.5425 70.5944L50.1065 70.7199L49.668 70.5955C49.4545 70.4628 49.2219 70.3201 48.9744 70.1695C46.3468 68.5622 42.0306 65.9231 41.0143 62.6309M48.8186 55.2108L44.5313 59.455L43.96 59.2204V61.1986C43.96 61.3752 43.99 61.5605 44.0491 61.749C44.6651 63.7218 48.1024 65.936 50.1015 67.166C52.2387 65.8466 56.2523 63.2486 56.2523 61.2064V60.7486L56.7713 60.5351M43.96 55.5799L44.8551 54.6932L44.483 54.3245H43.9597L43.96 55.5799Z" stroke="black" stroke-width="0.0665628" stroke-miterlimit="10" stroke-linecap="round"></path><path d="M41.6918 61.9892C42.4019 65.4544 47.5772 68.3375 50.1018 69.9083C50.1018 69.9083 50.1018 69.9083 50.1057 69.9083C51.4614 69.0606 53.5856 67.8371 55.3722 66.3539C56.857 65.1161 58.1088 63.6962 58.4879 62.1551L57.0698 60.7488V61.2066C57.0698 63.8321 52.5693 66.6075 50.1021 68.12C47.8556 66.7466 44.0108 64.3686 43.2679 61.9892C43.1853 61.7248 43.142 61.4602 43.1424 61.1984V53.5135H44.8222L46.0131 54.6938L43.9538 56.7324L43.9542 58.8812C46.1786 56.6791 48.1802 54.6974 48.1802 54.6974L46.9861 53.5132L45.4577 51.9935L41.6092 51.9932C41.6092 51.9932 41.6092 53.3708 41.6089 55.2692L41.6092 61.2027C41.6089 61.4673 41.6381 61.7316 41.6918 61.9892Z" fill="black"></path><path d="M30.2691 47.4647L35.6377 42.1411M41.0149 62.6309C39.9777 63.1814 38.6768 63.4496 37.051 63.4496C36.5908 63.4496 36.0964 63.4271 35.5825 63.3827C33.595 63.2093 31.5562 62.7322 30.0675 62.3842C29.7624 62.313 29.4764 62.2457 29.2135 62.1867L28.798 61.9507L28.5946 61.5737C28.5383 61.3298 28.4749 61.0659 28.4078 60.7847C27.6959 57.8066 26.5266 52.9146 28.1542 49.8753M38.9635 50.101L32.9061 50.0956L32.6695 49.5291L31.259 50.9279C31.1328 51.0534 31.0217 51.2047 30.9291 51.38C29.9582 53.2065 30.81 57.1832 31.3463 59.4543C32.9743 59.8316 35.1962 60.3091 37.0921 60.3091C38.4601 60.3091 39.4464 60.0483 39.9449 59.5537L40.2716 59.2304L40.7891 59.4432M36.5303 46.9558V46.4344L36.1602 46.0674L35.2658 46.9544L36.5303 46.9558Z" stroke="black" stroke-width="0.0665628" stroke-miterlimit="10" stroke-linecap="round"></path><path d="M29.0912 49.8974C27.1224 52.8459 28.7262 58.5132 29.3916 61.3941C29.3916 61.3941 29.3916 61.3941 29.3941 61.3973C30.9572 61.7482 33.3317 62.3734 35.6528 62.5765C37.5851 62.7428 39.4825 62.6166 40.8497 61.7925V59.804L40.5229 60.1277C38.6512 61.9835 33.49 60.7908 30.6665 60.1302C30.0573 57.5841 29.0345 53.206 30.2052 51.0026C30.3354 50.7572 30.4937 50.5401 30.6805 50.3549L36.1598 44.9211L37.3475 46.0988L37.3478 47.7683L34.4381 47.7655L32.9061 49.2851C36.0495 49.2876 38.8777 49.2905 38.8777 49.2905V47.616L38.8802 45.4693L36.1591 42.7705C36.1591 42.7705 35.1771 43.7444 33.8229 45.0874L29.5925 49.2826C29.4046 49.47 29.2369 49.6775 29.0912 49.8974Z" fill="black"></path><path d="M31.3705 31.6177H38.9635M28.1564 49.8775C26.7113 49.4437 25.2752 48.3683 23.7763 46.5997C22.4953 45.0829 21.3935 43.3164 20.5893 42.0264C20.4241 41.7617 20.2698 41.5139 20.1259 41.2875L20 40.8547L20.1251 40.4202C20.2593 40.2081 20.4032 39.9767 20.5561 39.7306C22.1761 37.1259 24.8374 32.8473 28.1549 31.8391M35.6355 39.5758L31.3586 35.3269L31.5955 34.7604H29.6004C29.4219 34.7607 29.2347 34.7904 29.0457 34.8487C27.0557 35.4599 24.8229 38.8687 23.5827 40.8508C24.9131 42.9702 27.5325 46.9505 29.5921 46.9505H30.0541L30.2694 47.4659M36.1599 35.648L36.5317 35.279V34.76H35.2665L36.1599 35.648Z" stroke="black" stroke-width="0.0665628" stroke-miterlimit="10"></path><path d="M64.5861 42.1491L68.8626 46.3976L68.6257 46.9645L70.6208 46.9648C70.7989 46.9641 70.9865 46.9348 71.1751 46.8761C73.1655 46.2649 75.3979 42.8565 76.6378 40.8744C75.3077 38.7549 72.688 34.7747 70.6283 34.7747H70.1671L69.9514 34.2593" stroke="black" stroke-width="0.0665628" stroke-miterlimit="10"></path><path d="M28.8026 32.5116C25.3083 33.2158 22.4015 38.3477 20.8179 40.8513C20.8179 40.8513 20.8179 40.8513 20.8179 40.8548C21.6726 42.1996 22.9064 44.3062 24.4023 46.078C25.6502 47.5504 27.0816 48.7918 28.6367 49.1674L30.054 47.7614H29.592C26.9453 47.7614 24.1463 43.2983 22.6207 40.8516C24.0053 38.6238 26.4039 34.8109 28.8026 34.0745C29.0695 33.9922 29.3363 33.9497 29.6003 33.9493L37.3495 33.9497V35.6152L36.1594 36.7962L34.1041 34.7537H31.9373C34.1585 36.9597 36.1562 38.945 36.1562 38.945L37.3503 37.7608L38.883 36.2451V32.4286C38.883 32.4286 37.4945 32.4282 35.5791 32.4282L29.5964 32.4286C29.3291 32.4289 29.0626 32.4579 28.8026 32.5116Z" fill="black"></path><path d="M28.1553 31.8401C27.4434 30.5207 27.1949 28.7532 27.3958 26.4521C27.5714 24.4818 28.0522 22.4607 28.4031 20.9847C28.4752 20.6814 28.543 20.3971 28.6025 20.136L28.8214 19.7422L29.22 19.5222C29.4659 19.4665 29.7324 19.4035 30.0155 19.337C31.9425 18.8842 34.5817 18.2637 37.0388 18.2637C38.6696 18.2637 39.977 18.5323 41.0163 19.0838M40.7902 29.8047L40.7953 23.798L41.3665 23.5633L39.956 22.1646C39.8295 22.0394 39.6769 21.9296 39.5016 21.8388C38.9433 21.5469 38.1308 21.3996 37.0849 21.3996C35.1872 21.3996 32.9144 21.8895 31.3582 22.2515C30.788 24.6828 29.8024 29.3344 31.2587 30.7782L31.5854 31.1026L31.3701 31.6173M43.4482 21.1832L48.8182 26.5082M43.961 27.392H44.4868L44.8569 27.025L43.9621 26.1377L43.961 27.392Z" stroke="black" stroke-width="0.0665628" stroke-miterlimit="10" stroke-linecap="round"></path><path d="M40.9954 20.0152C38.0222 18.0628 32.3078 19.6532 29.4024 20.3131C29.4024 20.3131 29.4024 20.3131 29.3999 20.3156C29.0457 21.8657 28.4157 24.2204 28.2105 26.5223C28.0431 28.4389 28.1701 30.3202 29.0017 31.676H31.0065L30.6802 31.352C28.8084 29.4962 30.0115 24.3778 30.6776 21.5778C33.2451 20.9737 37.6598 19.9594 39.8813 21.1207C40.1287 21.2491 40.3477 21.4064 40.5345 21.5913L46.0138 27.0251L44.8262 28.2032L43.1427 28.2036L43.1456 25.3181L41.6132 23.7988C41.611 26.9164 41.6078 29.7211 41.6078 29.7211H43.2963L45.4609 29.724L48.1823 27.0255C48.1823 27.0255 47.201 26.0516 45.8464 24.7083L41.6153 20.513C41.4267 20.326 41.2175 20.1593 40.9954 20.0152Z" fill="black"></path><path d="M48.8179 26.5075L50.1101 25.2261L51.4012 26.5061M38.9636 31.6162V29.8037H40.7899M35.6374 42.1401L34.3434 40.8579L35.6367 39.5765M40.791 51.9122H38.9636V50.1003M51.4016 55.2083L50.1098 56.4894L48.8187 55.209M61.2566 50.0993V51.9118H59.4296M64.5807 39.5768L65.8726 40.8579L64.5814 42.1387M59.4285 29.8037H61.2566V31.6152" stroke="black" stroke-width="0.0665628" stroke-miterlimit="10" stroke-linecap="round" stroke-linejoin="round"></path><path d="M60.439 36.6162V30.6148H54.3877L50.11 26.373L45.8328 30.6148H39.7811V36.6162L35.5002 40.8579L39.7811 45.0997V51.101H45.8328L50.11 55.3424L54.3877 51.101H60.439V45.0997L64.7159 40.8579L60.439 36.6162ZM58.9062 44.4702V49.581H53.7526L50.1097 53.194L46.4671 49.581H41.3135V44.4702L37.671 40.8579L41.3135 37.2456V32.1348H46.4671L50.1097 28.5225L53.7526 32.1348H58.9062V37.2456L62.5487 40.8579L58.9062 44.4702Z" fill="black"></path><path d="M56.5392 48.7709H58.0882V44.135L61.3917 40.8586L58.0882 37.5822V32.9466H55.9968V32.9463C56.2082 33.2181 56.3622 33.5125 56.4127 33.8061C56.4848 34.222 56.3701 34.6069 56.0989 34.9023V36.6036H58.0832V37.8322L57.654 38.1791V41.6851L57.3788 41.9577C56.5392 42.7899 56.5392 42.7899 56.5392 43.7488V48.7709Z" stroke="black" stroke-width="0.0665628" stroke-miterlimit="10" stroke-linejoin="round"></path><path d="M41.8645 43.87C42.249 41.1532 44.4312 39.1386 46.457 38.3979L46.4732 38.3818L47.2504 36.3779H48.7164V38.2327C49.261 38.3743 49.8262 38.6143 50.37 38.9326V38.1222L49.9964 37.7752V36.6029H51.9864V34.8979C51.7174 34.6032 51.6031 34.2198 51.6748 33.8057C51.7708 33.2513 52.2356 32.693 52.7571 32.2924L52.7575 32.2942L50.11 29.6694L46.8065 32.9459H42.1318V37.5817L38.8279 40.8582L41.8652 43.8703L41.8645 43.87Z" stroke="black" stroke-width="0.0665628" stroke-miterlimit="10" stroke-linejoin="round"></path><path d="M57.2378 37.4151V37.5796L56.836 37.9266H56.7206C56.6816 37.9266 56.6452 37.9838 56.6452 38.0517V39.1569C56.6452 39.2248 56.6816 39.2785 56.7206 39.2785H56.836V41.3493C55.736 42.4401 55.7216 42.4401 55.7216 43.7491V48.7205H53.3958L50.1099 51.9783L46.8281 48.7205H42.6229V44.7184C42.6229 41.267 45.8363 39.1032 47.7694 38.9137C47.7838 38.9101 47.7982 38.9101 47.8126 38.9101V38.4702H47.5421L47.8343 38.1805V37.8872H47.5421L47.8126 37.1898H47.8992V38.9101C48.8585 38.9924 50.1388 39.5682 51.1883 40.5517C51.4447 40.7914 51.6899 41.0596 51.9135 41.3493C52.1948 41.7141 52.4401 42.1218 52.6309 42.5617C52.8152 42.9838 52.9522 43.438 53.024 43.9244C53.0424 44.0496 53.0568 44.1747 53.064 44.3035C53.0781 44.4394 53.0817 44.5789 53.0817 44.7184V46.85H53.8466V44.1568C53.7705 43.1018 53.4319 42.1576 52.9374 41.3493C52.8436 41.1883 52.7427 41.0381 52.6309 40.8915C52.2161 40.3121 51.7184 39.8078 51.1883 39.3929V39.2785H51.3033C51.3426 39.2785 51.3791 39.2248 51.3791 39.1569V38.0517C51.3791 37.9838 51.3426 37.9266 51.3033 37.9266H51.1883L50.8078 37.5796V37.4151H52.8036V34.511C51.7606 33.9745 53.4528 32.6047 54.0435 32.5225C54.6353 32.6047 56.3228 33.9745 55.2841 34.511H55.2802V37.4151H57.2378Z" fill="black"></path><path d="M48.9218 75.1387C49.4992 75.4745 49.7311 76.3769 49.3715 76.8146C49.1825 77.0457 48.9456 77.1744 48.6441 77.0997C48.2968 77.0142 48.0627 77.1465 47.9091 77.4405C47.503 78.2195 46.6984 78.526 46.0373 79.0024C46.0204 79.0145 45.9944 79.0153 45.9796 79.0285C45.4852 79.4816 44.9327 79.531 44.2651 79.4655C43.657 79.4047 43.1377 79.8039 42.8041 80.296C43.0382 80.296 43.2791 80.2695 43.511 80.3024C43.8027 80.3443 43.9084 80.5553 43.8778 80.8361C43.8125 81.4383 43.0584 82.3017 42.4673 82.4512C42.4157 82.4644 42.3641 82.4777 42.3115 82.4852C41.1055 82.6479 40.1707 83.36 39.1958 83.9927C37.0868 85.3593 34.7952 86.2856 32.3035 86.6536C31.3868 86.7895 30.4386 86.7931 29.5107 86.7423C29.0007 86.7148 28.4857 86.4902 28.0046 86.282C27.4774 86.0535 27.1405 85.6132 26.9591 85.0671C26.9169 84.9422 26.879 84.816 26.8203 84.6297C26.4614 85.2749 26.2825 86.0009 25.5425 86.263C25.1112 86.4154 24.6676 86.5349 24.2297 86.6697C24.1847 86.6068 24.1396 86.5438 24.0952 86.4812C24.2052 86.4233 24.3293 86.3829 24.4238 86.3053C24.8338 85.9705 25.2525 85.6429 25.6366 85.2806C26.4668 84.4963 26.9577 83.5149 27.2621 82.4287C27.3699 82.0449 27.5156 81.6697 27.6595 81.2971C27.7038 81.1837 27.8005 81.0893 27.8733 80.9859C27.9011 80.9984 27.9292 81.0117 27.957 81.0249C27.8925 81.3375 27.825 81.6497 27.7652 81.9634C27.7114 82.2423 27.6562 82.522 27.6184 82.8042C27.5077 83.6322 27.9033 84.287 28.6798 84.6196C29.3437 84.9036 30.0401 85.0188 30.7542 85.0649C32.8586 85.2005 34.8501 84.7091 36.7856 83.9601C37.644 83.6275 38.4774 83.2284 39.3058 82.8282C39.4992 82.7334 39.6589 82.5295 39.779 82.3418C40.0221 81.9605 40.2107 81.5435 40.4552 81.1622C40.642 80.8718 40.8548 80.5886 41.1015 80.3475C41.4924 79.9662 41.8542 79.9716 42.2664 80.2874C42.6591 79.8718 43.0302 79.4366 43.4479 79.0524C43.7075 78.8128 44.0199 78.6068 44.3448 78.4691C44.5698 78.3736 44.8872 78.3407 45.1079 78.4237C45.4819 78.565 45.7131 78.458 45.9374 78.1905C46.0427 78.0653 46.13 77.9566 46.3532 77.9849C46.4726 77.9995 46.6389 77.8014 46.7536 77.6733C46.8643 77.5492 46.9497 77.4634 47.1445 77.4795C47.4384 77.5038 47.5787 77.2789 47.7172 77.0528C48.1117 76.4087 48.5204 75.7749 48.9218 75.1387ZM40.0293 82.3861C40.0484 82.4058 40.0675 82.4262 40.087 82.4469C40.664 82.1862 41.258 81.9537 41.7128 81.4809C41.7561 81.4355 41.7921 81.3811 41.821 81.3257C41.9487 81.0818 41.8718 80.9176 41.6032 80.8625C41.2587 80.7921 40.9879 80.9437 40.8007 81.1991C40.523 81.5807 40.2843 81.9891 40.0293 82.3861ZM41.4708 82.2599C41.4975 82.2903 41.5245 82.3203 41.5512 82.3507C41.8159 82.2273 42.0893 82.1197 42.3428 81.977C42.6465 81.8067 42.9408 81.6168 43.2225 81.4133C43.3 81.3572 43.3822 81.183 43.3505 81.1297C43.2978 81.0424 43.1438 80.9491 43.0497 80.9641C42.8276 81.0002 42.561 81.0417 42.411 81.183C42.0666 81.5099 41.7806 81.8968 41.4708 82.2599Z" fill="black"></path><path d="M71.6474 78.9821C72.0265 78.6434 72.3868 78.2882 72.782 77.9763C73.0897 77.736 73.4211 77.5078 73.7774 77.3565C73.9859 77.2668 74.2783 77.2861 74.5063 77.3487C74.7605 77.4177 74.943 77.3887 75.1425 77.2321C75.379 77.0457 75.5276 76.7328 75.9052 76.7285C75.9828 76.7271 76.0574 76.5322 76.1335 76.4266C76.2165 76.3129 76.3005 76.1977 76.4264 76.1108C76.3293 76.7339 76.1479 77.3075 75.59 77.6791C75.4079 77.8 75.1976 77.8834 75.0263 78.0164C74.6844 78.2818 74.357 78.3977 73.9069 78.2274C73.5048 78.0751 73.103 78.2517 72.7665 78.5064C72.5775 78.6498 72.4156 78.8301 72.2129 79.0214C72.4758 78.9978 72.6868 78.9542 72.896 78.9649C73.2487 78.9831 73.4153 79.1741 73.3879 79.5243C73.3749 79.6934 73.3306 79.8751 73.2476 80.0218C72.8938 80.6433 72.4657 81.1534 71.6795 81.2964C70.8421 81.4495 70.0833 81.8182 69.3671 82.2953C65.7289 84.7159 61.7048 85.8654 57.3308 85.8118C56.0938 85.7964 54.8709 85.6551 53.6937 85.2342C53.6046 85.202 53.4128 85.2739 53.359 85.3565C53.183 85.6304 53.0611 85.9391 52.8938 86.2198C52.6435 86.6415 52.4087 87.0811 52.0957 87.4534C51.9046 87.6805 51.5966 87.8418 51.3091 87.9509C51.0318 88.0553 50.8612 87.8278 50.986 87.556C51.0487 87.4194 51.1382 87.2853 51.2471 87.1816C52.1628 86.3143 52.7694 85.2374 53.3482 84.1451C53.7146 83.457 53.9801 83.3154 54.7277 83.5414C56.4765 84.0707 58.262 84.1004 60.0627 83.9881C62.9439 83.8068 65.6903 83.1312 68.2729 81.8329C68.5199 81.7095 68.6793 81.5436 68.8214 81.3057C69.2149 80.6505 69.6476 80.0178 70.0743 79.3833C70.1655 79.2482 70.2896 79.133 70.4122 79.0243C70.8811 78.6087 71.2453 78.6151 71.6474 78.9821ZM71.2525 80.2413C71.1707 79.6198 70.9121 79.4452 70.4494 79.6544C70.3325 79.7067 70.2077 79.7821 70.1345 79.883C69.7685 80.3762 69.4197 80.8819 69.0645 81.3826C69.0764 81.3923 69.0886 81.4037 69.1005 81.4134C69.7894 81.0153 70.4771 80.6162 71.1663 80.2188C71.1898 80.2478 71.2143 80.2753 71.2381 80.3047C71.0855 80.5672 70.9333 80.8322 70.7289 81.1863C71.3373 80.9366 71.8602 80.7406 72.3619 80.5021C72.526 80.4241 72.6641 80.2496 72.7622 80.0879C72.8776 79.8991 72.7997 79.7528 72.562 79.721C72.2162 79.6748 71.9085 79.7671 71.6316 79.9695C71.5201 80.0511 71.4072 80.1308 71.2525 80.2413Z" fill="black"></path><path d="M44.7963 80.9183C44.7602 81.0614 44.7389 81.2109 44.6848 81.3478C44.2964 82.3403 43.8961 83.3296 43.5131 84.3235C43.4395 84.5134 43.4085 84.7244 43.3858 84.929C43.2715 85.953 43.7197 86.5288 44.7411 86.6815C46.1368 86.8918 47.5029 86.1304 48.0508 84.8378C48.2177 84.4455 48.1802 84.3653 47.7619 84.2269C47.6681 84.1958 47.5715 84.174 47.478 84.1425C46.9897 83.9769 46.7899 83.6897 46.8188 83.1819C46.853 82.5717 47.042 82.0034 47.3623 81.4866C47.9296 80.5696 48.6188 79.7495 49.4854 79.0961C49.7956 78.8629 50.1598 78.6923 50.5147 78.526C50.7271 78.4269 50.8872 78.5217 50.7931 78.7699C50.6236 79.2162 50.4267 79.6533 50.2218 80.085C50.1919 80.1479 50.0578 80.1823 49.968 80.193C49.77 80.2155 49.5446 80.1558 49.3761 80.2305C48.6523 80.551 48.1333 81.1132 47.6872 81.7456C47.5365 81.9605 47.6118 82.1361 47.8192 82.2709C47.874 82.306 47.9314 82.3464 47.9927 82.3629C48.5805 82.5217 48.7656 82.9619 48.7219 83.5549C48.6354 84.7545 48.2368 85.8553 47.5909 86.8596C47.0925 87.6364 46.4192 88.2323 45.4743 88.4047C45.0711 88.4783 44.6394 88.4934 44.2337 88.4419C43.3743 88.3299 42.8286 87.6761 42.7319 86.7437C42.6194 85.6611 42.8809 84.6375 43.2823 83.6525C43.6191 82.8271 44.0245 82.0292 44.4071 81.2223C44.4692 81.0918 44.5738 80.9805 44.6585 80.8604C44.7054 80.8808 44.7508 80.8986 44.7963 80.9183Z" fill="black"></path><path d="M52.9845 82.6403C53.2373 82.4136 53.4732 82.2047 53.708 81.9933C54.0012 81.7294 54.2944 81.4644 54.5829 81.1961C54.831 80.9651 54.862 80.684 54.6767 80.4193C54.4888 80.1525 54.2464 79.925 54.0383 79.6711C53.9806 79.6006 53.9074 79.4765 53.9334 79.4161C54.1541 78.9032 54.3961 78.4 54.6363 77.8843C55.8909 78.8521 56.0092 79.8492 55.1047 81.5209C54.7874 82.1078 53.5067 82.8084 52.9845 82.6403Z" fill="black"></path><path d="M51.3896 83.3952C51.4102 83.304 51.4239 83.2103 51.451 83.1216C51.7831 82.0511 51.9613 80.956 52.0713 79.8412C52.1492 79.0594 52.5845 78.3881 52.922 77.6191C52.9657 77.7254 52.9877 77.7518 52.9844 77.7758C52.8434 78.9324 52.7753 80.1055 52.5304 81.24C52.3796 81.9378 51.9616 82.579 51.6565 83.2425C51.6219 83.3179 51.5393 83.3705 51.4791 83.4342C51.4488 83.4213 51.4199 83.4084 51.3896 83.3952Z" fill="black"></path><path d="M47.2974 88.0955C47.4034 87.9495 47.4532 87.8462 47.5332 87.7782C47.763 87.5826 47.9988 87.3927 48.2426 87.216C49.0281 86.6488 49.5907 85.9238 49.8825 84.9989C49.9979 84.6305 50.1133 84.2618 50.2363 83.8966C50.2893 83.7421 50.3636 83.5941 50.4278 83.4438C50.4642 83.451 50.4992 83.4567 50.5352 83.4642C50.5352 83.633 50.5648 83.8079 50.5302 83.9699C50.3773 84.6817 50.1919 85.3873 50.0419 86.1005C49.7696 87.4095 48.7883 87.8587 47.6234 88.094C47.5455 88.1101 47.4607 88.0955 47.2974 88.0955Z" fill="black"></path><path d="M72.0215 73.3821C72.3955 73.7845 72.7078 74.12 73.0183 74.454C73.2293 74.072 73.4724 73.6296 73.7147 73.1904C75.0311 73.8646 74.858 74.5931 74.1915 75.4923C74.0213 75.7222 73.8402 75.7276 73.6224 75.528C73.4125 75.3345 73.1709 75.1754 72.9328 74.993C72.7659 75.2691 72.6202 75.5413 72.4442 75.7934C72.2963 76.0037 72.1286 76.0688 71.8794 75.8667C70.8855 75.0634 70.9778 75.39 71.5202 74.2716C71.65 74.0005 71.8138 73.7469 72.0215 73.3821Z" fill="black"></path><path d="M72.7623 71.3877C72.9084 71.4968 72.9953 71.5569 73.0768 71.623C73.8691 72.2632 73.9063 73.0433 73.1857 73.7836C73.0245 73.9499 72.881 73.9882 72.6815 73.8244C71.6822 73.0032 71.7532 73.314 72.2855 72.2357C72.424 71.9556 72.5924 71.6892 72.7623 71.3877Z" fill="black"></path><path d="M44.4658 73.5058C44.8398 73.9082 45.1522 74.244 45.4627 74.578C45.6737 74.1961 45.9164 73.7533 46.1587 73.3145C47.4754 73.9886 47.302 74.7172 46.6359 75.6159C46.4656 75.8463 46.2846 75.8509 46.0668 75.6521C45.8565 75.4586 45.6152 75.2987 45.3772 75.1163C45.2102 75.3928 45.0645 75.6649 44.8882 75.9171C44.7403 76.1277 44.5726 76.1921 44.3234 75.9904C43.3294 75.1871 43.4214 75.5137 43.9642 74.3953C44.0947 74.1245 44.2585 73.8706 44.4658 73.5058Z" fill="black"></path><path d="M45.2069 71.5103C45.353 71.6201 45.4403 71.6798 45.5214 71.7463C46.3138 72.3861 46.3505 73.1665 45.6303 73.9069C45.4691 74.0725 45.3256 74.1111 45.1258 73.9473C44.1264 73.1261 44.1975 73.4373 44.7302 72.359C44.8686 72.0786 45.0367 71.8118 45.2069 71.5103Z" fill="black"></path><path d="M43.548 46.9738C43.6569 46.9738 43.7453 46.8862 43.7453 46.7782C43.7453 46.6701 43.6569 46.5825 43.548 46.5825C43.439 46.5825 43.3507 46.6701 43.3507 46.7782C43.3507 46.8862 43.439 46.9738 43.548 46.9738Z" fill="white"></path><path d="M47.2044 46.9738C47.3133 46.9738 47.4016 46.8862 47.4016 46.7782C47.4016 46.6701 47.3133 46.5825 47.2044 46.5825C47.0954 46.5825 47.0071 46.6701 47.0071 46.7782C47.0071 46.8862 47.0954 46.9738 47.2044 46.9738Z" fill="white"></path><path d="M48.4236 46.9738C48.5325 46.9738 48.6209 46.8862 48.6209 46.7782C48.6209 46.6701 48.5325 46.5825 48.4236 46.5825C48.3146 46.5825 48.2263 46.6701 48.2263 46.7782C48.2263 46.8862 48.3146 46.9738 48.4236 46.9738Z" fill="white"></path><path d="M49.6433 46.9738C49.7523 46.9738 49.8406 46.8862 49.8406 46.7782C49.8406 46.6701 49.7523 46.5825 49.6433 46.5825C49.5344 46.5825 49.446 46.6701 49.446 46.7782C49.446 46.8862 49.5344 46.9738 49.6433 46.9738Z" fill="white"></path><path d="M50.8619 46.9738C50.9709 46.9738 51.0592 46.8862 51.0592 46.7782C51.0592 46.6701 50.9709 46.5825 50.8619 46.5825C50.753 46.5825 50.6647 46.6701 50.6647 46.7782C50.6647 46.8862 50.753 46.9738 50.8619 46.9738Z" fill="white"></path><path d="M52.082 46.9738C52.191 46.9738 52.2793 46.8862 52.2793 46.7782C52.2793 46.6701 52.191 46.5825 52.082 46.5825C51.9731 46.5825 51.8848 46.6701 51.8848 46.7782C51.8848 46.8862 51.9731 46.9738 52.082 46.9738Z" fill="white"></path><path d="M44.766 46.9738C44.8749 46.9738 44.9633 46.8862 44.9633 46.7782C44.9633 46.6701 44.8749 46.5825 44.766 46.5825C44.657 46.5825 44.5687 46.6701 44.5687 46.7782C44.5687 46.8862 44.657 46.9738 44.766 46.9738Z" fill="white"></path><path d="M45.9857 46.9738C46.0947 46.9738 46.183 46.8862 46.183 46.7782C46.183 46.6701 46.0947 46.5825 45.9857 46.5825C45.8768 46.5825 45.7885 46.6701 45.7885 46.7782C45.7885 46.8862 45.8768 46.9738 45.9857 46.9738Z" fill="white"></path><path d="M53.8221 39.156C53.8221 39.2243 53.8564 39.2801 53.8986 39.2801H54.1262C54.1684 39.2801 54.2023 39.2243 54.2023 39.156V38.0505C54.2023 37.9826 54.1684 37.9268 54.1262 37.9268H53.8986C53.8564 37.9268 53.8221 37.9822 53.8221 38.0505V39.156Z" fill="white"></path><path d="M54.5283 39.156C54.5283 39.2243 54.5626 39.2801 54.6048 39.2801H54.8323C54.8745 39.2801 54.9084 39.2243 54.9084 39.156V38.0505C54.9084 37.9826 54.8745 37.9268 54.8323 37.9268H54.6048C54.5626 37.9268 54.5283 37.9822 54.5283 38.0505V39.156Z" fill="white"></path><path d="M55.2341 39.156C55.2341 39.2243 55.2684 39.2801 55.3106 39.2801H55.5382C55.5804 39.2801 55.6143 39.2243 55.6143 39.156V38.0505C55.6143 37.9826 55.5804 37.9268 55.5382 37.9268H55.3106C55.2684 37.9268 55.2341 37.9822 55.2341 38.0505V39.156Z" fill="white"></path><path d="M55.9399 39.156C55.9399 39.2243 55.9742 39.2801 56.0164 39.2801H56.244C56.2858 39.2801 56.3201 39.2243 56.3201 39.156V38.0505C56.3201 37.9826 56.2858 37.9268 56.244 37.9268H56.0164C55.9742 37.9268 55.9399 37.9822 55.9399 38.0505V39.156Z" fill="white"></path><path d="M53.4955 38.0509C53.4955 37.9826 53.4612 37.9268 53.419 37.9268H53.1915C53.1493 37.9268 53.1154 37.9826 53.1154 38.0509V39.1564C53.1154 39.2243 53.1493 39.2801 53.1915 39.2801H53.419C53.4612 39.2801 53.4955 39.2247 53.4955 39.1564V38.0509Z" fill="white"></path><path d="M52.7897 38.0509C52.7897 37.9826 52.7554 37.9268 52.7132 37.9268H52.4856C52.4434 37.9268 52.4095 37.9826 52.4095 38.0509V39.1564C52.4095 39.2243 52.4434 39.2801 52.4856 39.2801H52.7132C52.7554 39.2801 52.7897 39.2247 52.7897 39.1564V38.0509Z" fill="white"></path><path d="M52.0839 38.0509C52.0839 37.9826 52.0496 37.9268 52.0074 37.9268H51.7802C51.738 37.9268 51.7041 37.9826 51.7041 38.0509V39.1564C51.7041 39.2243 51.738 39.2801 51.7802 39.2801H52.0078C52.05 39.2801 52.0842 39.2247 52.0842 39.1564L52.0839 38.0509Z" fill="white"></path></g><defs><clipPath id="clip0_9871_1141"><rect width="60.2576" height="77.474" fill="white" transform="translate(20 11)"></rect></clipPath></defs></svg> 