<?xml version="1.0" encoding="UTF-8"?> <svg xmlns="http://www.w3.org/2000/svg" width="100" height="100" viewBox="0 0 100 100" fill="none"><g clip-path="url(#clip0_9871_1837)"><path d="M60.1899 14C60.3543 14.0711 60.5186 14.1466 60.6852 14.2132C63.7013 15.4059 66.4532 17.0539 69.0006 19.0505C69.0584 19.0972 69.1117 19.1505 69.1783 19.2105C68.9518 19.5614 68.7319 19.9034 68.5031 20.2588C70.3799 22.1733 72.0501 24.2321 73.376 26.5775C73.9224 26.3243 74.4554 26.0778 75.0195 25.8179C77.1295 29.0761 78.5398 32.5986 79.2772 36.4343C79.0173 36.5009 78.7641 36.5653 78.5087 36.6275C77.9535 36.763 77.4004 36.9051 76.843 37.0229C76.6142 37.0717 76.5476 37.1517 76.5565 37.3982C76.6697 40.2611 76.5809 43.1128 75.9102 45.918C75.8502 46.1667 75.6836 46.4665 75.768 46.6487C75.8613 46.8485 76.1856 46.9463 76.4143 47.0795C77.2228 47.5459 78.0312 48.0123 78.8441 48.4699C78.9862 48.5498 79.0462 48.6187 79.0018 48.8008C78.0956 52.5987 76.5054 56.0835 74.2355 59.2595C74.2133 59.2906 74.1844 59.315 74.1356 59.3683C72.7786 58.6509 71.4193 57.9313 70.0667 57.2139C70.0378 57.2273 70.0134 57.2317 70.0045 57.245C68.5253 59.2151 66.6064 60.6831 64.5364 61.9558C63.1683 62.7975 61.7291 63.526 60.3232 64.3034C60.2899 64.3211 60.2588 64.3433 60.1922 64.3811C60.8429 65.938 61.4959 67.4972 62.1733 69.1207C54.251 72.4544 46.3442 72.5033 38.3553 69.2695C38.9572 67.606 39.5458 65.9824 40.1454 64.3256C36.0655 62.7331 32.7162 60.1434 29.8467 56.8475C28.825 58.0002 27.8078 59.144 26.7639 60.3233C23.9433 56.7187 22.0532 52.7098 21.0693 48.2278C22.2487 47.8458 23.4102 47.4682 24.5163 47.1084C24.3364 46.3266 24.0943 45.5781 24.0055 44.8119C23.8256 43.2905 23.7056 41.7602 23.6057 40.2322C23.5435 39.2727 23.5502 38.3088 23.5457 37.3471C23.5457 37.1383 23.4769 37.0673 23.2836 37.0317C22.5818 36.9051 21.8822 36.7586 21.1804 36.632C20.9982 36.5986 20.9449 36.5342 20.9738 36.3499C21.5846 32.4409 23.086 28.894 25.2936 25.6314C25.3092 25.6069 25.3247 25.5825 25.3447 25.5514C25.8955 25.8113 26.4264 26.0622 26.986 26.3265C28.2942 24.1122 29.7912 22.0556 31.6679 20.2743C31.4391 19.9234 31.217 19.5836 30.9794 19.2216C33.7268 17.0539 36.6807 15.2771 39.9922 14.0289C40.081 14.2421 40.1632 14.4375 40.2498 14.6463C39.9456 14.7951 39.6613 14.9262 39.3859 15.0727C32.4786 18.7374 28.2054 24.3987 26.7395 32.0745C24.8983 41.718 29.2226 51.486 37.5269 56.6831C40.7651 58.7109 44.2965 59.868 48.1122 60.1568C60.03 61.0585 70.3243 52.9163 72.8363 41.7536C75.1928 31.2882 70.4798 20.6785 61.2005 15.5036C60.8274 15.2948 60.4431 15.1016 60.0589 14.9128C59.919 14.844 59.8812 14.7729 59.9367 14.6241C60.0145 14.4198 60.0678 14.2088 60.1322 14C60.1522 14 60.17 14 60.1899 14Z" fill="black"></path><path d="M63.6682 32.2112C64.35 31.1917 64.9075 30.1656 65.3272 29.0707C65.707 28.0779 65.9713 27.0562 65.9691 25.9835C65.9669 23.818 64.9763 22.2611 63.0463 21.2972C62.2756 20.9107 61.4472 20.6997 60.6054 20.5376C62.531 20.5642 64.4055 20.813 66.0313 21.9524C67.7637 23.1673 68.4033 24.8952 68.2168 26.9541C68.0369 28.9507 67.2018 30.7075 66.1579 32.3777C65.3339 33.6992 64.3744 34.923 63.295 36.0424C61.1562 38.2634 58.8708 40.3178 56.3411 42.0924C56.1945 42.1945 56.0635 42.2812 55.8702 42.2056C55.8058 42.1812 55.6992 42.2056 55.6326 42.2456C55.3505 42.4033 55.0751 42.5743 54.7997 42.7453C54.7531 42.7742 54.6931 42.8408 54.6975 42.8853C54.7286 43.1607 54.5576 43.2828 54.3533 43.4094C50.8041 45.5993 47.0551 47.3206 42.9751 48.2667C42.2533 48.4355 41.5181 48.5488 40.7852 48.6687C40.6764 48.6865 40.5187 48.6332 40.4387 48.5555C40.11 48.2379 39.8102 47.8914 39.4815 47.5738C39.3838 47.4805 39.2327 47.4161 39.0973 47.3939C38.8263 47.3495 38.5487 47.3428 38.2733 47.2806C38.5487 47.2517 38.8219 47.2229 39.1617 47.1873C37.1406 44.6265 36.09 41.7548 35.9479 38.5232C35.9035 38.5499 35.8679 38.5588 35.8524 38.5832C34.7152 40.2445 33.7669 41.9969 33.3449 43.9891C33.0695 45.2928 33.0695 46.5877 33.6203 47.8292C34.2932 49.3439 35.5326 50.2101 37.0628 50.7054C37.5936 50.8764 38.1445 50.983 38.6842 51.1674C37.9646 51.1074 37.2405 51.0696 36.5231 50.9786C35.5437 50.852 34.602 50.581 33.7313 50.1057C31.7147 49.0086 30.7818 47.2851 30.8463 45.013C30.8996 43.0652 31.6214 41.3217 32.5564 39.6515C33.5403 37.8969 34.7796 36.3311 36.1411 34.8564C36.2766 34.7098 36.3854 34.5166 36.4432 34.3255C38.1822 28.6376 41.9468 25.1284 47.7569 23.8624C49.7447 23.4293 51.7525 23.5293 53.7403 23.9824C53.9513 24.0312 54.1934 24.0268 54.4044 23.9757C56.4055 23.4937 58.4244 23.205 60.4877 23.3183C60.6498 23.3272 60.8097 23.3449 60.9719 23.3605C61.0052 23.3649 61.0385 23.3805 61.114 23.4049C59.235 23.5781 57.4494 23.9757 55.6193 24.5509C59.3261 26.0634 61.9802 28.5998 63.6704 32.2067L63.6682 32.2112ZM59.3794 31.3605C59.4149 31.3716 59.4483 31.3805 59.4838 31.3916C59.4505 31.5182 59.446 31.6603 59.3816 31.767C59.2373 32.0002 59.0463 32.2067 58.9086 32.4421C58.8441 32.5532 58.8153 32.7198 58.8441 32.8464C58.8908 33.0574 58.9863 33.2572 59.0751 33.4549C59.1462 33.617 59.2617 33.6704 59.3528 33.4771C59.4993 33.164 59.6259 32.8419 59.7525 32.5199C59.7703 32.4732 59.7725 32.3933 59.7459 32.3555C59.5082 32.0468 59.7659 31.9713 59.9702 31.9113C60.3877 31.7892 60.7231 31.5382 61.054 31.2761C61.114 31.2295 61.1651 31.1206 61.1584 31.0474C61.1296 30.8075 61.2206 30.7098 61.4472 30.7919C61.596 30.8452 61.7314 30.9385 61.8691 31.0207C62.0157 31.1073 62.1445 31.1362 62.24 30.9896C62.1979 30.8586 62.1445 30.7542 62.1357 30.6454C62.1112 30.3522 61.9691 30.2545 61.667 30.3078C61.5382 30.33 61.3628 30.3255 61.2717 30.2522C60.8675 29.9324 60.4521 29.6925 59.9102 29.6859C59.737 29.6859 59.5971 29.6215 59.5726 29.828C59.2373 29.828 58.9263 29.8414 58.6176 29.8214C58.5221 29.8147 58.3955 29.7392 58.3466 29.657C58.2023 29.4171 57.8891 29.2417 57.627 29.3327C57.4271 29.4038 57.3117 29.3372 57.1762 29.2084C57.0296 29.0707 56.8941 28.8397 56.6276 29.0285C56.6054 29.044 56.5388 29.0329 56.5232 29.0129C56.3344 28.7597 56.0968 28.8974 55.8747 28.9063C55.8547 29.3105 55.8547 29.3083 55.506 29.1906C55.3572 29.1395 55.2039 29.0995 55.0551 29.0529C54.9929 29.124 54.9352 29.1906 54.8552 29.2794C54.7531 29.0951 54.6953 28.9041 54.5687 28.793C54.431 28.6709 54.2311 28.6065 54.049 28.5487C54.0179 28.5398 53.9357 28.6909 53.8669 28.7842C53.1739 28.722 52.5121 28.1734 51.7325 28.5643C51.8724 28.4133 52.0257 28.3289 52.1656 28.2245C52.23 28.1778 52.3011 28.1001 52.3122 28.029C52.35 27.7847 52.2056 27.6892 51.9213 27.6759C51.7569 27.6692 51.5926 27.5848 51.4349 27.5249C51.3127 27.4782 51.1684 27.3427 51.0862 27.376C50.9729 27.4227 50.873 27.5804 50.833 27.7092C50.7597 27.9468 50.6842 27.9868 50.4599 27.8913C50.3422 27.8402 50.1889 27.8314 50.0623 27.8558C49.918 27.8824 49.7803 27.9557 49.6514 28.0312C49.5737 28.0757 49.4804 28.1512 49.4627 28.2289C49.4182 28.431 49.2872 28.4466 49.1228 28.4488C49.0495 28.4488 48.9763 28.4888 48.903 28.511C48.9496 28.5754 48.9874 28.6487 49.0429 28.702C49.0895 28.7464 49.1784 28.7486 49.2139 28.7975C49.265 28.8619 49.285 28.9507 49.3205 29.0285C49.2894 29.0396 49.2605 29.0507 49.2294 29.0618C49.1717 28.9996 49.1251 28.913 49.054 28.8819C48.9207 28.8241 48.7519 28.7309 48.6364 28.7708C48.1389 28.9352 48.1456 28.9507 48.2478 29.5149C48.2655 29.6081 48.29 29.7037 48.2855 29.7969C48.2833 29.8569 48.2322 29.9124 48.2011 29.9702C48.1678 29.9657 48.1345 29.9613 48.1012 29.9568C48.0701 29.6126 48.0412 29.2706 48.0057 28.9285C47.9924 28.7997 47.9813 28.6598 47.9257 28.5465C47.9035 28.5021 47.7347 28.471 47.6836 28.5065C47.4149 28.6953 47.3172 29.1773 47.4615 29.4593C47.4949 29.5237 47.4926 29.6059 47.5126 29.7192C47.0655 29.4349 46.7693 29.3105 46.6242 29.3461C46.6931 29.4327 46.7597 29.5149 46.8752 29.6548C46.7286 29.6548 46.6353 29.6814 46.5731 29.6503C46.1001 29.406 45.7003 29.5237 45.3227 29.8569C45.2516 29.9191 45.1162 29.9902 45.0518 29.9635C44.6875 29.808 44.5609 30.1301 44.3544 30.2878C44.2788 30.3433 44.23 30.4477 44.15 30.4788C44.0656 30.5121 43.9301 30.521 43.868 30.4743C43.748 30.3833 43.6636 30.2434 43.5215 30.0723C43.7236 30.0612 43.8569 30.0746 43.9768 30.039C44.0945 30.0035 44.1967 29.9146 44.3455 29.828C44.21 29.7259 44.13 29.6415 44.0301 29.5948C43.7414 29.4593 43.4238 29.3727 43.1572 29.2039C42.7308 28.933 42.4288 28.8597 42.0356 29.1728C41.6625 29.4704 41.3427 29.8458 41.0473 30.2234C40.8319 30.4965 40.6453 30.7675 40.3033 30.9008C40.21 30.9363 40.11 31.0918 40.1078 31.1962C40.1034 31.4405 40.1545 31.687 40.19 31.9979C40.3144 31.9491 40.4654 31.9158 40.5875 31.8358C40.7808 31.707 40.9229 31.7314 41.0384 31.9246C41.0762 31.9891 41.0895 32.069 41.1295 32.1334C41.1761 32.2067 41.2516 32.3266 41.2983 32.32C41.3849 32.3067 41.4893 32.2334 41.5381 32.1556C41.6114 32.0379 41.627 31.8802 41.7025 31.7625C41.798 31.6115 41.8446 31.496 41.7558 31.305C41.7025 31.1873 41.7558 30.9718 41.8358 30.8519C41.969 30.6565 42.1556 30.4921 42.3377 30.3389C42.4021 30.2856 42.522 30.2989 42.6153 30.2811C42.6153 30.3766 42.6486 30.4988 42.6042 30.5654C42.5287 30.6809 42.3643 30.7431 42.3044 30.863C42.2311 31.0096 42.1778 31.1984 42.2111 31.3494C42.2266 31.4183 42.4621 31.456 42.602 31.476C42.6908 31.4871 42.7841 31.4271 42.8774 31.4205C42.964 31.416 43.0595 31.4227 43.135 31.4605C43.1639 31.4738 43.1706 31.6248 43.1461 31.6381C43.0728 31.6803 42.9773 31.7048 42.8929 31.7003C42.4376 31.6737 42.4221 31.6803 42.4043 32.0313C42.2977 32.0912 42.1778 32.1223 42.1733 32.1667C42.1089 32.6354 41.667 32.6132 41.3804 32.7309C41.0917 32.8486 40.8963 32.6309 40.8563 32.3133C40.8452 32.2178 40.7408 32.1356 40.6786 32.0468C40.6098 32.1423 40.512 32.2267 40.4787 32.3333C40.4543 32.411 40.5365 32.5177 40.5231 32.6043C40.5098 32.6887 40.441 32.833 40.3899 32.8353C40.1567 32.8486 40.0301 32.9663 39.9301 33.1617C39.8902 33.2395 39.788 33.2861 39.7103 33.3527C39.6325 33.1084 39.5859 32.8952 39.497 32.7042C39.3882 32.471 39.1439 32.2933 39.2239 31.9846C39.2305 31.958 39.195 31.9158 39.1728 31.8891C39.0462 31.7359 38.8774 31.6826 38.7175 31.7914C38.5087 31.9335 38.5842 32.1645 38.7041 32.2933C38.9707 32.5798 39.0106 32.8552 38.8396 33.2017C38.7552 33.3705 38.8307 33.4927 39.0484 33.4904C39.1439 33.4904 39.2394 33.5193 39.3349 33.5326C39.3438 33.5615 39.3505 33.5926 39.3593 33.6215C39.2305 33.7125 39.0995 33.8014 38.964 33.8969C38.9818 33.9369 38.9862 33.9791 39.0106 34.0013C39.1683 34.1545 39.3393 34.2878 39.2305 34.5565C39.1172 34.8408 38.8863 34.7342 38.693 34.7431C38.3399 34.7609 38.2844 34.8208 38.331 35.1828C38.3421 35.2672 38.351 35.3539 38.3377 35.436C38.3044 35.6715 38.14 35.8958 38.5731 36.0046C38.9262 36.0935 39.3416 35.9558 39.4171 35.5782C39.4415 35.4605 39.5304 35.3516 39.6081 35.2517C39.7302 35.0962 39.8657 34.9496 39.9968 34.7964C40.1744 34.7453 40.381 34.6765 40.5898 34.6298C40.6409 34.6187 40.7208 34.6654 40.7675 34.7053C40.9118 34.8342 41.0451 34.9741 41.1806 35.1096C41.3116 35.2406 41.4404 35.3716 41.5759 35.5071C41.7203 35.3716 41.6314 35.2339 41.507 35.0985C41.3716 34.9519 41.2228 34.8142 41.1095 34.652C41.0628 34.5832 41.0895 34.4632 41.0806 34.3677C41.2894 34.5254 41.4226 34.6809 41.5559 34.8408C41.6536 34.9563 41.7758 35.0629 41.838 35.1962C41.9335 35.4005 41.9712 35.6315 42.069 35.8358C42.1134 35.9313 42.2289 36.0179 42.331 36.0513C42.3843 36.069 42.522 35.9735 42.5398 35.9069C42.5598 35.8358 42.4843 35.7381 42.4465 35.6537C42.431 35.6204 42.3777 35.5893 42.3821 35.5649C42.3954 35.4871 42.4199 35.3583 42.4599 35.3516C42.5554 35.3339 42.7153 35.3383 42.7508 35.3961C42.8507 35.5493 42.8774 35.7492 42.9729 35.9047C43.0306 35.9957 43.1639 36.089 43.2683 36.0935C43.517 36.1046 43.768 36.0646 44.0545 36.0402C44.0146 36.2112 43.9723 36.3711 43.9413 36.5332C43.8946 36.782 43.7569 36.8908 43.5015 36.9374C43.0684 37.0174 42.7019 36.853 42.3266 36.6953C42.1422 36.6176 42.0068 36.6132 41.9535 36.8686C41.9068 37.0929 41.778 37.1196 41.6159 36.953C41.4049 36.7309 41.1695 36.571 40.8474 36.5754C40.7897 36.5754 40.7341 36.5288 40.6631 36.4999C40.7319 36.3933 40.7963 36.3111 40.8407 36.2201C40.9118 36.069 40.8541 35.918 40.6986 35.918C40.3255 35.918 39.9435 35.8269 39.5837 36.0379C39.3793 36.1579 39.135 36.2112 38.9107 36.3C38.8241 36.3333 38.733 36.3666 38.6619 36.4244C38.5309 36.5288 38.4088 36.6443 38.291 36.7642C38.2266 36.8286 38.1267 36.9152 38.1333 36.9841C38.16 37.2995 37.9201 37.4416 37.758 37.6415C37.5825 37.8592 37.4137 38.0879 37.276 38.3322C37.2205 38.4322 37.2561 38.5832 37.245 38.7098C37.2272 38.9008 37.2405 39.1051 37.1739 39.2784C37.0539 39.6026 37.1184 39.9424 37.3493 40.1912C37.4915 40.3467 37.5781 40.5532 37.6869 40.7398C37.7247 40.8042 37.7313 40.8886 37.778 40.9397C38.1978 41.3883 38.9551 41.4794 39.4793 41.1507C39.7369 40.9885 39.9301 41.0596 39.9834 41.2861C40.2033 41.355 40.512 41.3728 40.5565 41.4883C40.6209 41.6593 40.5231 41.9125 40.4387 42.1079C40.361 42.2878 40.3743 42.3833 40.5143 42.5277C40.6586 42.6765 40.7963 42.8742 40.8385 43.0718C40.9407 43.5338 40.9896 44.0024 40.7874 44.4688C40.7208 44.6221 40.7452 44.8375 40.7874 45.0085C40.8363 45.2106 40.9696 45.3905 41.0273 45.5904C41.0806 45.7792 41.0851 45.9836 41.105 46.1812C41.1472 46.621 41.3871 46.8098 41.8002 46.7098C42.2444 46.6032 42.6886 46.4899 43.1284 46.3745C43.5193 46.2701 43.8258 45.8658 43.7791 45.4661C43.7503 45.2129 43.8346 45.0618 44.0234 44.9086C44.5232 44.5066 44.5631 44.2267 44.4143 43.616C44.3344 43.2873 44.2722 42.8719 44.4077 42.5943C44.6076 42.1834 44.9651 41.837 45.3005 41.5082C45.6603 41.1551 45.7025 40.722 45.7869 40.2534C45.5493 40.2978 45.356 40.34 45.1606 40.3689C45.0895 40.38 44.974 40.3889 44.9451 40.3489C44.7364 40.069 44.5009 39.7981 44.3588 39.4849C44.1745 39.0785 44.0679 38.6365 43.9257 38.2123C43.828 37.9191 43.728 37.6282 43.6281 37.335L43.7525 37.2906C43.7947 37.3839 43.8324 37.4794 43.8813 37.5704C44.0301 37.8414 44.1811 38.1101 44.3322 38.3811C44.3832 38.4699 44.4521 38.5521 44.4898 38.6454C44.5765 38.8542 44.652 39.0674 44.7253 39.2828C44.7586 39.3805 44.7919 39.4805 44.7963 39.5826C44.8163 40.0024 44.883 40.0602 45.2494 39.878C45.5626 39.7226 45.8358 39.4649 46.1623 39.365C46.5531 39.2451 46.6931 38.9297 46.8907 38.6543C46.9396 38.5876 46.8952 38.3922 46.8286 38.3211C46.7264 38.2145 46.6176 38.0257 46.4021 38.1768C46.2267 38.2989 46.0756 38.2256 45.9624 38.0679C45.8402 37.8991 45.7292 37.7237 45.6048 37.5549C45.5071 37.4238 45.4116 37.2839 45.5959 37.1684C45.7691 37.0596 45.8624 37.2151 45.9202 37.3417C46.0401 37.606 46.2422 37.7681 46.5132 37.8325C46.8263 37.9058 47.1417 37.9724 47.4615 38.0124C47.7725 38.0502 48.0279 38.1923 48.1523 38.4522C48.25 38.6565 48.3166 38.8386 48.5587 38.8986C48.5942 38.9075 48.6187 39.003 48.632 39.0629C48.6742 39.2562 48.6942 39.4538 48.7453 39.6448C48.8608 40.0602 48.9918 40.4688 49.1251 40.9108C49.3783 40.6665 49.6137 40.4555 49.5471 40.0913C49.496 39.807 49.6292 39.6404 49.8624 39.4894C50.0712 39.3517 50.3311 39.1762 50.3999 38.963C50.4954 38.6698 50.642 38.6187 50.8996 38.5876C51.0684 38.5676 51.104 38.6121 51.1528 38.7564C51.2572 39.0585 51.2683 39.4383 51.6992 39.5205C51.7436 39.5293 51.788 39.6182 51.8036 39.6781C51.8391 39.8158 51.8613 39.9558 51.8791 40.0979C51.9657 40.7553 52.0812 41.4016 52.5587 41.948C52.6105 41.5364 52.535 41.1832 52.3322 40.8886C52.2722 40.802 52.2167 40.7131 52.1723 40.6176C52.0768 40.4089 52.0968 40.209 52.2322 39.9824C52.401 40.2201 52.5609 40.4133 52.6875 40.6287C52.7786 40.7864 52.883 40.7531 52.9985 40.6976C53.2361 40.5799 53.436 40.1845 53.3494 39.9291C53.2717 39.7026 53.134 39.496 53.0118 39.2873C52.8652 39.0341 52.9252 38.883 53.1984 38.8564C53.3494 38.8408 53.5026 38.8342 53.6537 38.812C54.3555 38.7053 55.1528 37.868 54.7753 36.9819C54.6509 36.6909 54.4777 36.3755 54.7109 36.0357C54.5887 35.9868 54.4866 35.958 54.3977 35.9047C54.2445 35.8114 54.2511 35.6359 54.4088 35.576C54.5865 35.5093 54.8086 35.2362 54.913 35.6604C54.9219 35.6915 55.0107 35.7159 55.064 35.7226C55.3638 35.7625 55.4816 35.9513 55.4993 36.2312C55.5082 36.3755 55.526 36.5199 55.5415 36.6976C56.3055 36.32 55.6193 35.9846 55.5415 35.7048C55.657 35.5804 55.7348 35.4827 55.828 35.4049C55.9502 35.305 56.0812 35.2162 56.2145 35.1295C56.3211 35.0607 56.4455 35.0163 56.541 34.9363C56.8763 34.6587 57.0052 34.2678 57.0629 33.8614C57.0918 33.6548 57.0585 33.4194 56.9785 33.2284C56.9408 33.1395 56.732 33.1151 56.5943 33.0751C56.3477 33.0041 56.3078 32.9085 56.4499 32.6931C56.5765 32.5043 56.7009 32.3111 56.843 32.1356C56.903 32.0601 57.0074 31.9757 57.094 31.9757C57.5071 31.9735 57.9335 31.8691 58.3311 32.0801C58.3689 32.1001 58.4555 32.0801 58.4843 32.0512C58.5643 31.9624 58.6132 31.8469 58.6931 31.7625C58.7953 31.6559 58.9174 31.5715 59.044 31.4649C59.0951 31.5937 59.1218 31.6581 59.1706 31.7869C59.255 31.6026 59.3128 31.476 59.3683 31.3494L59.3794 31.3605ZM42.8929 47.2073C42.411 47.2651 41.9823 47.3139 41.507 47.3717C41.5559 47.5494 41.5959 47.6915 41.6314 47.8203C41.8313 47.7648 41.9757 47.6937 42.12 47.6893C42.4465 47.6782 42.6731 47.5249 42.8907 47.2095L42.8929 47.2073Z" fill="black"></path><path d="M57.687 43.5118C57.9135 43.6428 58.1201 43.7628 58.3511 43.896C58.4399 43.5029 58.2489 43.2764 57.9535 43.0676C60.4788 41.3774 62.7864 39.4651 64.8608 37.1753C64.9963 39.4207 64.6631 41.524 63.8347 43.5407C62.5932 46.5546 60.5676 48.9088 57.7603 50.5679C52.1789 53.8616 45.3271 52.8977 40.9518 49.011C45.4782 48.9621 49.6048 47.5451 53.5293 45.6417C53.6581 46.3169 53.7825 46.9788 53.918 47.6939C54.22 47.9072 54.6775 47.8938 54.9996 47.6162C55.3305 47.3319 56.0035 47.2697 56.2433 47.6073C56.4455 47.896 56.8563 48.0204 56.8941 48.438C56.9008 48.509 57.0007 48.6045 57.0762 48.629C57.3205 48.7089 57.3783 48.8777 57.3894 49.1109C57.396 49.2575 57.4693 49.4019 57.5115 49.5485C57.5537 49.5529 57.5982 49.5574 57.6404 49.5618C57.7203 49.3419 57.8025 49.1243 57.8802 48.9044C57.918 48.8022 57.938 48.6889 57.9913 48.5957C58.3355 47.9982 58.7131 47.4119 58.7908 46.7034C58.8019 46.5945 58.7975 46.4657 58.7486 46.3747C58.5399 45.9727 58.3178 45.5795 58.0779 45.1953C57.8136 44.7733 57.5426 44.2736 57.6204 43.7117C57.627 43.6584 57.6559 43.6073 57.6892 43.5162L57.687 43.5118Z" fill="black"></path><path d="M26.8795 81.7651C27.3104 80.7257 27.7168 79.7418 28.1233 78.7579C28.4609 77.9405 28.7984 77.121 29.1449 76.3081C29.1827 76.2215 29.2871 76.106 29.3604 76.1038C30.4553 76.0904 31.5503 76.0949 32.6452 76.0949L32.6963 76.1682C32.643 76.2126 32.5919 76.2881 32.5342 76.297C31.5836 76.4169 31.4881 76.5146 31.4859 77.4719C31.4814 79.4242 31.4859 81.3786 31.4859 83.3309C31.4859 83.3886 31.4859 83.4442 31.4859 83.5019C31.4992 84.2282 31.7146 84.4458 32.4453 84.4836C32.5297 84.488 32.6119 84.528 32.6963 84.5524C32.6896 84.5858 32.683 84.6168 32.6741 84.6502C32.6008 84.659 32.5275 84.6724 32.4564 84.6724C31.1327 84.6724 29.809 84.6724 28.4831 84.6724C28.4364 84.6724 28.3853 84.679 28.3409 84.6657C28.3032 84.6546 28.2743 84.6168 28.241 84.5902C28.2743 84.5547 28.3032 84.4947 28.3431 84.488C28.4831 84.4658 28.6274 84.4725 28.7696 84.4503C29.1893 84.3859 29.3915 84.1726 29.427 83.7507C29.4425 83.5796 29.4403 83.4086 29.4403 83.2376C29.4403 81.2365 29.4403 79.2376 29.4403 77.2365C29.4403 77.1565 29.4314 77.0766 29.3781 76.9877C29.3359 77.0788 29.2937 77.1676 29.2537 77.2587C28.2543 79.6263 27.2571 81.9938 26.2554 84.3592C26.2088 84.4703 26.1155 84.5635 26.0444 84.6657C25.98 84.568 25.8978 84.4769 25.8512 84.3703C24.8295 82.0027 23.8123 79.6329 22.7929 77.2653C22.7618 77.1898 22.7196 77.1188 22.6485 76.9811C22.633 77.0943 22.6219 77.1343 22.6219 77.1743C22.6219 79.2309 22.6219 81.2898 22.6263 83.3464C22.6263 84.066 22.9017 84.3636 23.6124 84.4614C23.7079 84.4747 23.799 84.5191 23.8923 84.5502C23.8834 84.5813 23.8745 84.6124 23.8678 84.6457C23.8056 84.6546 23.7412 84.6724 23.679 84.6724C22.8506 84.6724 22.0222 84.6768 21.1915 84.6701C21.116 84.6701 21.0405 84.608 20.9672 84.5746C21.0361 84.5413 21.1005 84.488 21.1715 84.4747C21.8911 84.357 22.1599 84.0549 22.1621 83.322C22.1665 81.3498 22.1621 79.3775 22.1621 77.4053C22.1621 77.3187 22.1577 77.2343 22.151 77.1476C22.0999 76.5302 21.8712 76.3192 21.2426 76.2992C21.1849 76.2992 21.1227 76.3103 21.0716 76.2925C21.0294 76.277 20.9983 76.2281 20.9628 76.1926C20.9983 76.1593 21.0294 76.1082 21.0716 76.0971C21.1338 76.0793 21.2049 76.0904 21.2715 76.0904C22.2243 76.0904 23.1771 76.0971 24.1299 76.086C24.3587 76.0838 24.4764 76.1437 24.5697 76.3681C25.2804 78.0605 26.0089 79.7484 26.7307 81.4364C26.7707 81.5297 26.8151 81.6207 26.8817 81.7606L26.8795 81.7651Z" fill="black"></path><path d="M49.3649 76.0937H49.6447C50.9218 76.0937 52.1989 76.0937 53.4759 76.0937C53.5226 76.0937 53.5759 76.0826 53.6181 76.0959C53.678 76.1159 53.7313 76.1581 53.7869 76.1892C53.7336 76.227 53.6847 76.2847 53.6269 76.2958C53.4493 76.3269 53.2649 76.3202 53.0939 76.3669C52.8185 76.4379 52.6386 76.6334 52.6342 76.9199C52.6208 77.9282 52.6297 78.9343 52.6297 79.9693H55.6303C55.6392 79.9493 55.6614 79.9249 55.6614 79.9005C55.6614 78.9854 55.6791 78.0704 55.6525 77.1576C55.6347 76.5246 55.386 76.3225 54.7286 76.3002C54.6175 76.2958 54.4332 76.3647 54.4865 76.1092H58.9507C58.8863 76.1981 58.8574 76.278 58.8085 76.2936C58.7308 76.3202 58.6397 76.3002 58.5531 76.3047C57.9868 76.3291 57.7269 76.569 57.7247 77.1353C57.7158 79.2697 57.7136 81.4041 57.7202 83.5363C57.7202 84.2425 57.9468 84.4469 58.6753 84.4846C58.7597 84.4891 58.8441 84.529 58.9285 84.5535C58.9218 84.589 58.9129 84.6245 58.9063 84.6601C58.8152 84.6645 58.7219 84.6756 58.6309 84.6756C57.336 84.6756 56.039 84.6756 54.7441 84.6756C54.6864 84.6756 54.6264 84.6823 54.5731 84.6667C54.5353 84.6556 54.5087 84.6157 54.4754 84.5868C54.5109 84.5535 54.5442 84.4957 54.5842 84.4891C54.7352 84.4669 54.8885 84.4713 55.0373 84.4446C55.4015 84.3802 55.6214 84.1803 55.6281 83.8183C55.6458 82.7434 55.6347 81.6684 55.6347 80.569H52.6253C52.6164 80.5957 52.5942 80.6312 52.5942 80.6645C52.5942 81.6373 52.5809 82.6079 52.6031 83.5785C52.6186 84.2314 52.8651 84.4446 53.5226 84.4824C53.6158 84.4868 53.7069 84.5268 53.798 84.549C53.7913 84.5846 53.7824 84.6179 53.7758 84.6534C53.6936 84.6601 53.6114 84.6712 53.527 84.6712C52.2211 84.6712 50.9173 84.6712 49.6114 84.6712C49.5736 84.6712 49.5314 84.6801 49.4981 84.669C49.4448 84.649 49.396 84.6112 49.3471 84.5823C49.3937 84.549 49.4381 84.4935 49.4892 84.4846C49.6203 84.4624 49.7558 84.4691 49.8868 84.4491C50.3088 84.3825 50.5153 84.167 50.5309 83.745C50.5486 83.1831 50.5486 82.6212 50.5486 82.0593C50.5486 80.4779 50.5509 78.8966 50.5442 77.3152C50.5398 76.509 50.3621 76.3402 49.5514 76.2958C49.4759 76.2914 49.4048 76.2292 49.3315 76.1936C49.3426 76.1603 49.356 76.127 49.3671 76.0937H49.3649Z" fill="black"></path><path d="M41.7492 84.6734C41.0052 84.6734 40.2634 84.6756 39.5194 84.669C39.4461 84.669 39.375 84.6023 39.3017 84.5646C39.3728 84.5357 39.4416 84.4957 39.5149 84.4824C39.6371 84.4602 39.7615 84.4669 39.8836 84.4446C40.2479 84.378 40.45 84.1493 40.4788 83.785C40.4811 83.7561 40.4833 83.7273 40.4833 83.6984C40.4833 81.5085 40.4922 79.3164 40.4788 77.1265C40.4744 76.5423 40.2123 76.3158 39.6238 76.298C39.566 76.298 39.5038 76.3114 39.4527 76.2936C39.395 76.2714 39.3461 76.2225 39.295 76.1848C39.3439 76.1537 39.3861 76.1115 39.4394 76.0937C39.4816 76.0782 39.5327 76.0893 39.5816 76.0893C40.772 76.0893 41.9625 76.0693 43.1529 76.0981C43.7481 76.1137 44.3567 76.1581 44.9364 76.2914C46.5888 76.6734 47.7148 78.0304 47.8903 79.7428C47.9658 80.4824 47.9281 81.2087 47.6949 81.9149C47.2062 83.3963 46.1402 84.2225 44.6476 84.529C44.1946 84.6223 43.7237 84.6423 43.2595 84.6645C42.7554 84.6867 42.249 84.669 41.7448 84.669L41.7492 84.6734ZM42.571 76.5734C42.5621 76.6334 42.5488 76.68 42.5488 76.7267C42.5488 79.021 42.5488 81.313 42.5599 83.6073C42.5599 84.0582 42.7198 84.1937 43.1685 84.2159C44.2146 84.267 44.9608 83.7784 45.3228 82.7056C45.8159 81.2398 45.8337 79.7406 45.3339 78.2769C44.8342 76.8177 43.9836 76.5068 42.5732 76.5757L42.571 76.5734Z" fill="black"></path><path d="M74.7419 84.888C72.4698 84.8791 70.7907 83.6176 70.2865 81.5299C69.7402 79.2645 70.8485 76.9968 72.9184 76.2595C74.5287 75.6842 77.0095 75.8219 78.3177 77.5432C79.4148 78.9824 79.5814 80.566 78.9085 82.2051C78.2577 83.7864 77.0362 84.6837 75.3104 84.8436C75.1217 84.8614 74.9307 84.8747 74.7419 84.888ZM76.9984 80.4172C76.9984 80.1973 77.0095 79.9774 76.9984 79.7597C76.9495 78.9291 76.8651 78.1073 76.4343 77.3655C75.6969 76.0951 73.9934 76.0107 73.1561 77.2211C72.9651 77.4988 72.814 77.8186 72.7141 78.1406C72.4032 79.1379 72.3832 80.164 72.4542 81.1967C72.5098 81.9807 72.6453 82.7492 73.0517 83.4399C73.5336 84.2573 74.3643 84.5904 75.2816 84.3417C76.0345 84.1373 76.4054 83.5621 76.6608 82.8913C76.9651 82.0962 77.0117 81.2589 77.0006 80.4172H76.9984Z" fill="black"></path><path d="M68.1656 82.74C68.2544 83.1975 68.1878 83.4796 67.888 83.7794C66.0379 85.6406 61.3249 85.2919 60.3832 81.705C59.6014 78.7333 61.9624 75.7816 65.0806 75.9215C65.6581 75.9482 66.2311 76.1503 66.8019 76.2836C66.9863 76.3258 67.1573 76.4191 67.3394 76.4746C67.7147 76.5878 67.9368 76.4679 68.0857 76.1059C68.1212 76.0215 68.2056 75.9571 68.2678 75.8838L68.3566 75.9349C68.3566 76.3036 68.3566 76.6745 68.3566 77.0431C68.3566 77.5873 68.3611 78.1292 68.3522 78.6734C68.3522 78.74 68.2878 78.8044 68.2522 78.8688C68.1967 78.8177 68.119 78.7755 68.0901 78.7133C67.9813 78.4601 67.9146 78.187 67.7836 77.9471C67.2395 76.9499 66.3955 76.3946 65.2517 76.4501C64.0945 76.5079 63.2816 77.1387 62.8752 78.2158C62.3066 79.7239 62.3621 81.2542 62.9396 82.74C63.5348 84.2681 65.3605 84.7878 66.8796 83.8883C67.2683 83.6595 67.5926 83.3219 67.9413 83.0287C68.0168 82.9643 68.0679 82.871 68.1656 82.7422V82.74Z" fill="black"></path><path d="M33.7935 76.1072H38.1866C38.2044 76.1272 38.2222 76.1472 38.2377 76.1672C38.1822 76.2116 38.1311 76.2871 38.0689 76.2938C37.1072 76.4093 37.0206 76.5025 37.0184 77.4642C37.0184 79.4076 37.0184 81.351 37.0184 83.2943C37.0184 83.381 37.0184 83.4654 37.0228 83.552C37.0428 84.2161 37.276 84.4493 37.9445 84.4781C38.0023 84.4804 38.0645 84.4693 38.1133 84.487C38.1555 84.5026 38.1822 84.5536 38.2177 84.5892C38.1844 84.6158 38.1555 84.6536 38.1178 84.6647C38.0734 84.678 38.0245 84.6714 37.9756 84.6714C36.6608 84.6714 35.346 84.6714 34.0311 84.6714C33.9845 84.6714 33.9312 84.6825 33.889 84.6647C33.8468 84.6469 33.8135 84.6025 33.778 84.5692C33.8179 84.5403 33.8557 84.4915 33.9001 84.4848C34.0511 84.4626 34.2044 84.467 34.3532 84.4404C34.7086 84.376 34.8885 84.1916 34.9351 83.8363C34.9595 83.6475 34.9706 83.4565 34.9706 83.2677C34.9728 81.3443 34.9706 79.4187 34.9706 77.4953C34.9706 77.3998 34.9706 77.3043 34.9662 77.2088C34.9373 76.5403 34.7086 76.3182 34.0311 76.296C33.9201 76.2915 33.7313 76.3648 33.7891 76.105L33.7935 76.1072Z" fill="black"></path><path d="M56.9029 44.3457C56.7585 44.2258 56.6342 44.1214 56.4854 43.9992C56.643 43.9015 56.8229 43.7905 57.0006 43.6816C57.2627 43.9126 57.4271 44.4901 57.2916 44.7921C57.2472 44.8921 57.1028 45.0165 57.0095 45.012C56.8918 45.0054 56.7385 44.9054 56.6764 44.7988C56.6386 44.7322 56.7408 44.5834 56.7874 44.4745C56.8007 44.4412 56.8363 44.419 56.9029 44.3457Z" fill="black"></path><path d="M54.1978 45.2925C54.4931 45.1304 54.7308 45.0038 54.9662 44.875C54.7863 45.1015 54.6308 45.3658 54.1978 45.2925Z" fill="black"></path></g><defs><clipPath id="clip0_9871_1837"><rect width="72.3756" height="72.7199" fill="white" transform="translate(14 14)"></rect></clipPath></defs></svg> 