<?xml version="1.0" encoding="UTF-8"?> <svg xmlns="http://www.w3.org/2000/svg" width="100" height="100" viewBox="0 0 100 100" fill="none"><g clip-path="url(#clip0_9871_1814)"><path d="M34.2696 25.0762C36.803 25.0762 39.3364 25.0762 41.8698 25.0762C41.9453 25.0762 42.0208 25.0816 42.0963 25.0762C42.5278 25.0425 42.8095 25.2556 43.0118 25.6142C43.2841 26.0955 43.3853 26.6227 43.4136 27.1647C43.4688 28.2366 43.3408 29.2936 43.1291 30.3426C43.001 30.9762 42.8608 31.6072 42.6801 32.2288C42.637 32.3757 42.6343 32.5254 42.6302 32.6764C42.6114 33.3977 42.6046 34.1204 42.5574 34.8404C42.5332 35.2165 42.5439 35.5968 42.4981 35.9689C42.4307 36.5163 42.4846 37.0691 42.3943 37.6124C42.3889 37.6448 42.3902 37.6771 42.3889 37.7095C42.3633 38.2582 42.3606 38.8097 42.3039 39.3544C42.2527 39.8586 42.2797 40.3669 42.2001 40.8685C42.1813 40.9885 42.1475 41.095 42.0869 41.2001C41.4815 42.2437 40.8788 43.29 40.2748 44.3349C39.6492 45.4175 39.025 46.5002 38.398 47.5815C37.8304 48.5603 37.2614 49.5378 36.6938 50.518C36.083 51.5723 35.475 52.6267 34.8656 53.681C34.4557 54.3902 34.0458 55.0994 33.6359 55.8086C33.0252 56.8629 32.4131 57.9146 31.8037 58.9689C31.4477 59.5851 31.0999 60.2053 30.7412 60.8187C30.4554 61.3068 30.0954 61.7356 29.6235 62.0565C29.3053 62.2735 28.9507 62.3719 28.5638 62.4097C27.9611 62.469 27.3584 62.4515 26.7558 62.4771C24.2129 62.5823 21.6687 62.5054 19.1259 62.5243C18.7915 62.527 18.4572 62.5135 18.1228 62.523C17.7655 62.5324 17.4096 62.5135 17.059 62.4663C16.211 62.3544 15.2294 61.7464 15.0407 60.6812C14.9665 60.2619 14.9989 59.8426 15.1108 59.4327C15.2106 59.0687 15.3252 58.7087 15.5004 58.3716C15.909 57.5883 16.3202 56.8063 16.7314 56.023C16.9714 55.5646 17.2154 55.1088 17.4541 54.6491C17.8275 53.9318 18.1983 53.2132 18.5731 52.4973C19.3174 51.0735 20.0616 49.6511 20.8072 48.2286C21.267 47.3496 21.7267 46.4719 22.1865 45.5928C22.715 44.5802 23.2435 43.5677 23.772 42.5538C24.2803 41.579 24.7886 40.6042 25.2983 39.6294C25.5423 39.1616 25.7702 38.6829 26.0371 38.2286C26.2475 37.8686 26.3054 37.4843 26.3243 37.0852C26.3337 36.8803 26.3284 36.6754 26.3337 36.4704C26.3499 35.954 26.3836 35.4377 26.3809 34.9213C26.3769 34.2647 26.3661 33.6067 26.3176 32.9515C26.2704 32.3191 26.2245 31.6841 26.0762 31.0625C26.0007 30.747 25.9077 30.4383 25.7607 30.1484C25.2996 29.2356 24.9976 28.273 24.8682 27.2591C24.8062 26.7737 24.8277 26.291 25.0286 25.8313C25.2079 25.42 25.5261 25.1949 25.9616 25.1234C26.1854 25.0857 26.4106 25.0735 26.6371 25.0735C29.1813 25.0762 31.7255 25.0735 34.2696 25.0735V25.0762Z" fill="black"></path><path d="M76.4594 62.2191C74.8536 62.2191 73.2465 62.1908 71.6407 62.2272C70.0457 62.2636 68.4507 62.2447 66.8557 62.2622C66.5308 62.2663 66.2085 62.2272 65.8984 62.1342C65.4427 61.998 65.0504 61.7674 64.7996 61.34C64.6486 61.0825 64.5758 60.8034 64.5556 60.5108C64.5299 60.1212 64.5771 59.7369 64.6769 59.3581C64.8346 58.7608 65.0692 58.1932 65.3551 57.6485C65.8 56.7991 66.2571 55.9551 66.7236 55.1178C67.2952 54.0918 67.8804 53.0725 68.4655 52.0545C69.1275 50.9058 69.7963 49.7611 70.4623 48.6151C70.6147 48.3535 70.7603 48.092 70.8048 47.7846C70.8371 47.5608 70.794 47.3518 70.6834 47.163C70.4664 46.7882 69.9837 46.683 69.6129 46.9217C69.3702 47.0767 69.2057 47.3032 69.0601 47.5446C68.7756 48.0151 68.4911 48.4857 68.2121 48.9589C67.3087 50.4905 66.4054 52.0222 65.5088 53.5592C64.5906 55.1326 63.6819 56.7114 62.7691 58.2876C62.3754 58.9684 61.9804 59.6493 61.5867 60.3302C61.5327 60.4232 61.4856 60.5203 61.4384 60.6174C60.891 61.731 59.9903 62.3741 58.7688 62.5184C57.8789 62.6236 57.0579 62.3768 56.3541 61.8025C55.5033 61.1095 55.0988 60.2048 55.1177 59.114C55.1271 58.5774 55.2768 58.0718 55.5478 57.6067C56.6884 55.6517 57.8331 53.6994 58.9737 51.7444C60.1683 49.6964 61.3561 47.6443 62.5507 45.595C63.4028 44.1335 64.2589 42.6733 65.1124 41.2118C65.4063 40.7089 65.6935 40.2033 65.9847 39.699C66.4782 38.8442 67.1874 38.2577 68.1595 38.0514C69.5172 37.7629 70.643 38.1836 71.5247 39.2541C71.669 39.4294 71.7944 39.6195 71.8834 39.8284C71.998 40.0981 72.1544 40.3435 72.3121 40.5875C72.9997 41.658 73.6914 42.7245 74.379 43.795C75.6262 45.7352 76.8706 47.6781 78.1178 49.6182C78.8 50.6793 79.4849 51.7377 80.1671 52.7988C81.328 54.6027 82.4848 56.4094 83.6497 58.2107C83.7737 58.4022 83.8155 58.6125 83.8331 58.8228C83.8762 59.3271 83.9045 59.8354 83.7899 60.3356C83.5513 61.3818 82.927 61.936 81.9536 62.1449C81.6893 62.2016 81.421 62.2164 81.1514 62.215C79.5887 62.2124 78.0247 62.215 76.4621 62.215V62.2218L76.4594 62.2191Z" fill="black"></path><path d="M51.7832 41.2933C51.7913 41.9067 51.6079 42.4636 51.3032 42.984C50.5482 44.277 49.7878 45.5686 49.0327 46.8602C48.0916 48.4687 47.1519 50.0786 46.2108 51.6884C45.4598 52.9719 44.7075 54.2541 43.9565 55.5363C43.041 57.0976 42.1256 58.6589 41.2128 60.2215C41.1319 60.3604 41.0591 60.506 40.9876 60.6503C40.4416 61.7357 39.5531 62.3639 38.3612 62.5123C37.4242 62.6282 36.568 62.3653 35.844 61.7316C35.3546 61.3029 35.0027 60.7851 34.8193 60.1555C34.5564 59.2589 34.6589 58.3973 35.12 57.5965C36.2552 55.6267 37.4107 53.669 38.5567 51.7059C39.6043 49.91 40.6533 48.1141 41.6995 46.3169C42.7458 44.5197 43.7893 42.7211 44.8356 40.9238C45.0958 40.4762 45.356 40.0299 45.6216 39.5864C46.1259 38.745 46.8647 38.2071 47.822 38.0251C49.0044 37.8012 50.0372 38.1302 50.8826 39.0039C51.3464 39.4839 51.6174 40.0623 51.7387 40.7122C51.7738 40.9009 51.7711 41.0978 51.7859 41.2906L51.7832 41.2933Z" fill="black"></path><path d="M62.0072 41.2657C62.0288 41.8671 61.8643 42.4171 61.5636 42.9308C60.9987 43.8989 60.4351 44.8669 59.8689 45.8337C58.917 47.461 57.9651 49.0897 57.0132 50.7171C56.2623 52.0006 55.5099 53.2828 54.7589 54.5664C53.8071 56.1937 52.8552 57.8211 51.9033 59.4498C51.631 59.9149 51.3694 60.3855 51.1038 60.8533C50.5982 61.7459 49.8324 62.3095 48.8104 62.4739C47.4082 62.6991 46.2918 62.2029 45.4748 61.0542C45.166 60.6201 44.9988 60.1212 44.9422 59.5819C44.8613 58.8094 45.0433 58.111 45.4316 57.4503C46.1745 56.187 46.912 54.921 47.6509 53.6563C48.1888 52.7354 48.7268 51.8146 49.2648 50.8923C50.0899 49.478 50.9137 48.0623 51.7388 46.6467C52.4278 45.4642 53.1194 44.2845 53.8098 43.1021C54.4772 41.9574 55.1418 40.81 55.8092 39.6667C56.3728 38.7013 57.202 38.127 58.317 37.9894C60.0981 37.7697 61.6567 38.9912 61.9668 40.6873C62.0018 40.8761 61.9951 41.0729 62.0072 41.2671V41.2657Z" fill="black"></path><path d="M72.2863 71.7491C72.3632 71.8368 72.3713 71.9487 72.409 72.0471C72.5573 72.4435 72.8486 72.6457 73.2665 72.6727C73.342 72.6781 73.4175 72.6754 73.493 72.6754C75.897 72.6754 78.3009 72.6754 80.7062 72.6754C80.868 72.6754 81.0285 72.6794 81.1862 72.6269C81.5678 72.5001 81.8267 72.1887 81.8334 71.7896C81.8442 71.1209 81.8469 70.4521 81.8334 69.7847C81.824 69.3519 81.5449 69.0378 81.1269 68.9272C80.9462 68.88 80.7656 68.8773 80.5822 68.8773C78.2969 68.8773 76.0102 68.8773 73.7249 68.8773C73.6103 68.8773 73.4917 68.9003 73.3798 68.8504C73.3919 68.7479 73.4742 68.7263 73.5335 68.6859C75.2822 67.5183 77.0309 66.3534 78.7796 65.1858C78.8969 65.1076 79.0142 65.0402 79.1652 65.0415C79.6721 65.0469 80.1791 65.0442 80.6847 65.0442C80.7265 65.0442 80.771 65.0442 80.8087 65.0928C80.8006 65.1858 80.7103 65.2154 80.6429 65.2599C79.935 65.7332 79.2258 66.2051 78.518 66.6797C78.4331 66.7363 78.3293 66.7767 78.2699 66.8859C78.3859 66.9507 78.4937 66.9264 78.5976 66.9264C79.2771 66.9291 79.9566 66.9237 80.6348 66.9291C80.9584 66.9318 81.2833 66.9507 81.5948 67.037C82.7475 67.3565 83.4634 68.098 83.7277 69.2697C83.7682 69.4503 83.7843 69.631 83.783 69.8144C83.7803 70.4723 83.787 71.1303 83.7803 71.7869C83.7736 72.519 83.512 73.15 83.0104 73.6879C82.4158 74.3257 81.681 74.6183 80.8182 74.6183C78.3171 74.6169 75.8161 74.6169 73.3137 74.6209C73.0737 74.6209 72.8432 74.5751 72.6099 74.532C72.5371 74.5185 72.4643 74.4848 72.3834 74.5306C72.3079 74.6304 72.3376 74.7531 72.3376 74.869C72.3349 75.6025 72.3376 76.3359 72.3349 77.0681C72.3349 77.184 72.351 77.304 72.289 77.4307C72.0962 77.5008 71.8899 77.4617 71.689 77.4685C71.4733 77.4752 71.2576 77.4739 71.0419 77.4685C70.841 77.4631 70.6361 77.4981 70.4554 77.4415C70.3704 77.3364 70.388 77.2352 70.388 77.1409C70.388 75.4488 70.388 73.7554 70.388 72.0633C70.388 72.0201 70.388 71.977 70.392 71.9339C70.4068 71.7707 70.45 71.7154 70.6104 71.7141C71.139 71.71 71.6661 71.7141 72.1946 71.7168C72.2243 71.7168 72.2553 71.737 72.2836 71.7464L72.2863 71.7491Z" fill="black"></path><path d="M32.2806 72.7411C32.4478 72.6576 32.5799 72.6778 32.7067 72.6778C34.0752 72.6764 35.4437 72.6778 36.8121 72.6778C36.92 72.6778 37.0279 72.6818 37.1357 72.671C37.6224 72.6198 37.9649 72.2571 37.9797 71.7677C37.9905 71.3915 37.9838 71.014 37.9838 70.6365C37.9838 70.1727 37.9838 69.7102 37.9838 69.2464C37.9838 69.1399 37.9703 69.0307 38.0107 68.9431C38.0633 68.8703 38.128 68.8662 38.1941 68.8635C38.2588 68.8622 38.3235 68.8608 38.3883 68.8608C40.4781 68.8608 42.5692 68.8608 44.659 68.8608C45.3399 68.8608 45.9466 69.0752 46.4846 69.4945C46.9605 69.8666 47.2774 70.348 47.4446 70.9183C47.694 71.7704 47.5848 72.5901 47.0805 73.3276C46.5075 74.1663 45.7013 74.6125 44.6793 74.6206C43.4186 74.6314 42.158 74.622 40.8974 74.6247C40.3217 74.6247 39.7945 74.4629 39.3091 74.1582C39.1999 74.0894 39.0948 74.0139 39.0004 73.9492C38.9249 73.9357 38.8844 73.9708 38.8413 74.0045C38.3033 74.4224 37.6912 74.6247 37.0117 74.6247C35.5785 74.6247 34.1453 74.6247 32.7121 74.6233C32.5853 74.6233 32.4545 74.6422 32.3184 74.5775C32.2388 74.2728 32.2914 73.96 32.282 73.6526C32.2739 73.3519 32.282 73.0512 32.282 72.7425L32.2806 72.7411Z" fill="black"></path><path d="M69.4497 77.4237C69.4106 77.4412 69.3809 77.4628 69.3526 77.4641C68.8564 77.4695 68.3616 77.4722 67.8655 77.4749C67.7792 77.4749 67.6929 77.483 67.6052 77.4426C67.5082 77.3495 67.5405 77.2241 67.5405 77.1109C67.5378 76.3667 67.5405 75.6238 67.5378 74.8795C67.5378 74.7636 67.5661 74.6409 67.4866 74.5303C67.3464 74.4966 67.2129 74.5627 67.0781 74.5842C66.9284 74.6085 66.7801 74.6274 66.6291 74.6274C65.3577 74.6274 64.0849 74.6274 62.8135 74.626C61.3345 74.626 60.1588 73.5259 59.9579 72.2073C59.8177 71.281 60.0684 70.4801 60.69 69.7925C61.2657 69.1548 61.9978 68.8649 62.8499 68.8649C64.9303 68.8649 67.0107 68.8649 69.0924 68.8649C69.2083 68.8649 69.3297 68.8406 69.4402 68.9107C69.5117 69.0186 69.4874 69.1413 69.4874 69.2559C69.4901 69.806 69.4874 70.3561 69.4874 70.9048C69.4874 72.9421 69.4874 74.9793 69.4874 77.0179C69.4874 77.1554 69.509 77.297 69.4497 77.4264V77.4237Z" fill="black"></path><path d="M15.1658 65.1028C15.2642 65.0421 15.3411 65.0475 15.4152 65.0475C15.8575 65.0475 16.2997 65.0475 16.7406 65.0475C16.7945 65.0475 16.8485 65.0502 16.9024 65.0542C17.0035 65.0637 17.0574 65.1257 17.0655 65.2228C17.0736 65.3306 17.075 65.4385 17.075 65.545C17.075 67.5067 17.075 69.4684 17.075 71.4302C17.075 71.538 17.0831 71.6459 17.075 71.7538C17.0386 72.2486 17.4983 72.6396 17.9379 72.6706C17.981 72.6733 18.0241 72.6746 18.0673 72.6746C19.2956 72.6746 20.5252 72.6719 21.7534 72.676C22.0676 72.676 22.3143 72.5546 22.5193 72.3254C22.6393 72.1919 22.7107 72.0396 22.7134 71.8589C22.7161 71.6971 22.7175 71.5353 22.7175 71.3735C22.7175 70.6725 22.7175 69.9727 22.7175 69.2716C22.7175 69.1556 22.7377 69.0343 22.6824 68.9386C22.5961 68.8644 22.5058 68.8793 22.4222 68.8779C22.2065 68.8752 21.9907 68.8806 21.775 68.8752C21.2829 68.8617 20.904 68.5395 20.8474 68.0528C20.8083 67.7224 20.8191 67.3854 20.8501 67.0524C20.8515 67.0335 20.8703 67.016 20.8811 66.9971C20.9499 66.9324 21.0375 66.931 21.1238 66.931C21.5768 66.931 22.0298 66.931 22.4815 66.931C22.5246 66.931 22.5678 66.9351 22.6096 66.9418C22.708 66.9553 22.7646 67.0119 22.7714 67.1117C22.7768 67.1872 22.7768 67.2627 22.7768 67.3382C22.7768 67.7157 22.7768 68.0932 22.7768 68.4694C22.7768 68.5759 22.7633 68.6851 22.8037 68.7903C22.8765 68.8793 22.9804 68.8563 23.0734 68.8577C23.4617 68.8604 23.85 68.8577 24.2369 68.8604C24.3542 68.8604 24.4742 68.8442 24.5929 68.8914C24.6927 68.9844 24.6616 69.1098 24.6616 69.2231C24.6643 70.0967 24.6616 70.9691 24.6616 71.8427C24.6616 71.8535 24.6616 71.8643 24.6616 71.8751C24.6185 72.9187 24.1277 73.6966 23.2419 74.2278C22.7687 74.5123 22.2483 74.6256 21.6968 74.6242C20.4793 74.6188 19.2605 74.6215 18.043 74.6229C17.3136 74.6229 16.6597 74.3964 16.1096 73.9218C15.5042 73.3986 15.1658 72.7286 15.1281 71.9196C15.1227 71.8117 15.124 71.7039 15.124 71.596C15.124 69.5588 15.124 67.5216 15.124 65.4843C15.124 65.3576 15.1038 65.2268 15.1618 65.1028H15.1658Z" fill="black"></path><path d="M49.4898 68.8935C49.5991 68.8463 49.7083 68.8611 49.8148 68.8611C51.9154 68.8611 54.016 68.8624 56.1179 68.8597C57.5673 68.8584 58.7565 69.9505 58.9601 71.2529C59.107 72.1994 58.863 73.0205 58.2064 73.7189C57.6266 74.3351 56.908 74.6209 56.0694 74.6209C54.8411 74.6209 53.6128 74.6236 52.3846 74.6209C51.2143 74.6168 50.346 74.0856 49.7635 73.0812C49.537 72.6915 49.4386 72.2574 49.4319 71.8111C49.4184 70.9172 49.4265 70.0233 49.4278 69.1281C49.4278 69.0539 49.4211 68.9757 49.4898 68.8921V68.8935Z" fill="black"></path><path d="M24.6822 74.5715C24.635 74.2776 24.635 73.0183 24.6781 72.7473C24.7307 72.6786 24.8075 72.6799 24.883 72.6772C24.9693 72.6745 25.0556 72.6759 25.1419 72.6759C26.5104 72.6759 27.8775 72.6759 29.246 72.6759C29.4078 72.6759 29.5669 72.6745 29.7247 72.6192C30.1008 72.4871 30.3246 72.1999 30.3489 71.8008C30.3557 71.6822 30.353 71.5636 30.353 71.4449C30.353 70.7236 30.353 70.0009 30.353 69.2796C30.353 69.1529 30.3273 69.0194 30.4271 68.8953C30.4568 68.8859 30.4972 68.8643 30.5377 68.8643C31.0648 68.8616 31.5934 68.8616 32.1205 68.8643C32.161 68.8643 32.2014 68.8846 32.2257 68.8899C32.3079 68.9735 32.2945 69.0639 32.2945 69.1475C32.2945 70.0737 32.2985 71 32.2931 71.9262C32.2904 72.3671 32.161 72.781 31.9385 73.1545C31.3696 74.1104 30.5134 74.6025 29.4051 74.6147C27.9625 74.6309 26.5185 74.6187 25.0758 74.6174C24.9491 74.6174 24.8183 74.6389 24.6822 74.5688V74.5715Z" fill="black"></path><path d="M70.5241 68.8316C70.5537 68.7399 70.6427 68.7102 70.7101 68.6657C72.448 67.5049 74.1873 66.3467 75.9252 65.1859C76.0641 65.0928 76.2043 65.0389 76.3755 65.0416C76.838 65.0497 77.3018 65.0443 77.7656 65.0443C77.829 65.0443 77.895 65.0322 77.953 65.078C77.9692 65.1778 77.8829 65.2007 77.8249 65.2398C77.3517 65.558 76.8757 65.8735 76.3998 66.1903C75.154 67.0209 73.9069 67.8487 72.6638 68.686C72.4683 68.8181 72.2728 68.8896 72.0328 68.8815C71.6135 68.8666 71.1928 68.8788 70.7721 68.8761C70.6912 68.8761 70.6009 68.903 70.5227 68.8329L70.5241 68.8316Z" fill="black"></path><path d="M26.5574 77.4582C26.1745 77.4824 25.8185 77.4973 25.468 77.4582C25.0554 77.411 24.744 77.0914 24.6644 76.6802C24.6321 76.5117 24.6482 75.785 24.6914 75.576C24.8788 75.4843 25.0864 75.5355 25.286 75.5288C25.5017 75.5207 25.7174 75.5234 25.9318 75.5288C26.134 75.5342 26.339 75.5005 26.5506 75.5638C26.6329 75.762 26.5897 75.9683 26.5951 76.1679C26.6019 76.3836 26.6005 76.5993 26.5951 76.815C26.5911 77.0173 26.6194 77.2222 26.5574 77.4595V77.4582Z" fill="black"></path><path d="M29.4035 77.4583C29.0314 77.4853 28.6862 77.4934 28.3451 77.461C27.9069 77.4206 27.5699 77.0714 27.5146 76.6022C27.4768 76.2827 27.4849 75.9577 27.5173 75.6368C27.5186 75.618 27.5362 75.6004 27.5604 75.5573C27.7398 75.4953 27.9447 75.5317 28.1456 75.5263C28.3613 75.5209 28.5757 75.5209 28.7914 75.5263C28.9923 75.5303 29.1972 75.5007 29.4076 75.56C29.4777 75.7676 29.4413 75.9726 29.4467 76.1734C29.4521 76.3892 29.4521 76.6035 29.4467 76.8193C29.4413 77.0202 29.475 77.2251 29.4035 77.457V77.4583Z" fill="black"></path><path d="M32.2511 75.5755C32.3105 75.8412 32.3131 77.1328 32.2552 77.424C32.2228 77.4362 32.1851 77.4631 32.146 77.4645C31.8453 77.4699 31.5433 77.4833 31.2426 77.4672C30.8624 77.4456 30.5024 77.1328 30.4081 76.762C30.3177 76.4128 30.3514 76.0555 30.3663 75.7023C30.3716 75.5823 30.4269 75.5418 30.5604 75.5324C30.6669 75.5243 30.7761 75.527 30.8826 75.527C31.2264 75.527 31.5716 75.5257 31.9154 75.527C32.0219 75.527 32.1311 75.5095 32.2525 75.5755H32.2511Z" fill="black"></path><path d="M39.9443 70.8603C40.0737 70.8023 40.1613 70.8104 40.2463 70.8104C41.7105 70.8104 43.1747 70.8131 44.6389 70.8091C44.9922 70.8091 45.2672 70.9453 45.46 71.2351C45.847 71.8149 45.4802 72.5847 44.7805 72.6724C44.7279 72.6791 44.6726 72.6791 44.6187 72.6791C43.3918 72.6791 42.1635 72.6791 40.9366 72.6791C40.7842 72.6791 40.6359 72.6589 40.4957 72.5982C40.195 72.4674 40.0184 72.2275 39.9591 71.916C39.8917 71.5668 39.9186 71.2136 39.9429 70.8617L39.9443 70.8603Z" fill="white"></path><path d="M67.4785 70.8411C67.5325 70.9058 67.5365 70.9597 67.5365 71.0136C67.5379 71.2617 67.546 71.5098 67.5365 71.7565C67.5163 72.2797 67.1563 72.6423 66.6359 72.6747C66.6143 72.676 66.5927 72.676 66.5712 72.676C65.3213 72.676 64.0701 72.6801 62.8203 72.6734C62.3511 72.6707 62.0262 72.4091 61.89 71.9642C61.7363 71.4572 62.1381 70.8788 62.6922 70.8154C62.7556 70.8087 62.8216 70.81 62.8864 70.8087C64.3196 70.8087 65.7528 70.8087 67.186 70.8087C67.2817 70.8087 67.3801 70.7966 67.4785 70.8397V70.8411Z" fill="white"></path><path d="M51.4355 70.8388C51.5474 70.7956 51.6566 70.8091 51.7631 70.8091C53.1734 70.8091 54.5823 70.8091 55.9926 70.8091C56.0991 70.8091 56.2097 70.8091 56.3135 70.8307C56.7732 70.9264 57.0793 71.3269 57.055 71.7907C57.0308 72.2531 56.6856 72.6171 56.2178 72.6697C56.1328 72.6792 56.0452 72.6765 55.9602 72.6765C54.798 72.6765 53.6358 72.6765 52.4736 72.6765C52.4521 72.6765 52.4305 72.6765 52.4089 72.6765C51.7968 72.7129 51.3438 72.2208 51.3748 71.6545C51.3856 71.4617 51.3748 71.2675 51.3775 71.0734C51.3775 70.9992 51.368 70.9224 51.4368 70.8388H51.4355Z" fill="white"></path></g><defs><clipPath id="clip0_9871_1814"><rect width="69.3478" height="55" fill="white" transform="translate(15 23)"></rect></clipPath></defs></svg> 