<?xml version="1.0" encoding="UTF-8"?> <svg xmlns="http://www.w3.org/2000/svg" width="100" height="100" viewBox="0 0 100 100" fill="none"><path d="M25.5252 17.036C41.568 16.9612 57.6137 17.0332 73.6593 17C73.651 32.8574 73.6565 48.7121 73.6565 64.5695C58.5575 64.5695 43.4585 64.5695 28.3595 64.5695C27.4074 64.5695 26.4496 64.6165 25.5085 64.4643C25.5528 48.6567 25.5224 32.8463 25.5252 17.036ZM27.4073 18.7825C27.4046 23.953 27.3658 29.1235 27.4295 34.2912C28.7055 31.5869 30.6209 29.0571 33.3251 27.6537C33.7763 27.4876 34.2303 27.3105 34.6759 27.1112C35.0496 27.0337 35.4232 26.9534 35.7997 26.84C36.5553 26.7652 37.3193 26.7569 38.0832 26.8289C38.6119 26.9867 39.1627 27.0808 39.7052 27.2136C40.245 27.3714 40.6934 27.7312 40.7819 28.3208C40.8844 28.7637 40.9895 29.2093 41.1417 29.6411C41.2109 29.9262 41.2968 30.2085 41.3992 30.4853C41.5071 30.9392 41.64 31.3876 41.7977 31.8305C42.2489 33.1619 42.725 34.4877 43.2315 35.7997C43.4585 36.3311 43.7021 36.8571 43.9318 37.3885C45.0113 39.8215 46.3205 42.2296 48.2775 44.0758C49.6946 45.4708 51.6128 46.3925 53.6112 46.4839C53.6334 48.0533 53.6362 49.6227 53.6112 51.1921C52.1083 50.9292 50.6607 50.4337 49.3348 49.6836C49.0968 49.5341 48.8643 49.3847 48.6373 49.238C46.6998 47.8789 45.1303 46.0548 43.9152 44.037C43.0461 42.6392 42.332 41.1556 41.6898 39.6443C41.4988 39.1766 41.3244 38.7005 41.175 38.2189C41.0255 37.8673 40.9037 37.5075 40.7875 37.1477C40.6906 36.8792 40.5965 36.6135 40.5024 36.3478C40.0152 34.7673 39.5558 33.1785 39.1655 31.5703C39.0548 31.1247 38.9745 30.668 38.897 30.2196C38.7447 29.8238 38.6894 29.4003 38.6617 28.9823L38.5039 28.9546C38.4929 28.7554 38.4707 28.3568 38.4597 28.1602C34.9195 28.6806 31.8305 30.6597 29.2535 33.0539C28.6252 33.6075 28.0163 34.1805 27.3907 34.7341C27.4046 44.0841 27.4046 53.4341 27.3907 62.7841C34.2441 62.8035 41.0975 62.7814 47.9509 62.7952C47.9453 58.4025 47.937 54.0098 47.9564 49.6199C48.1723 49.7666 48.3965 49.9161 48.6234 50.0656C49.9161 50.9734 51.4052 51.5768 52.9525 51.8896C53.1296 51.8979 53.4867 51.9145 53.6638 51.9201C53.7247 54.2091 53.5725 56.4982 53.6306 58.7873C52.4985 60.4037 51.0371 61.7628 49.3486 62.7758C50.5167 63.1191 51.3249 62.1918 52.0917 61.4805C54.198 59.4793 55.7896 56.9771 56.9411 54.3226C57.3009 53.4895 57.6275 52.6425 57.8987 51.7734C58.7623 49.1577 59.4183 46.4728 59.8944 43.7602C60.0383 43.3146 60.0826 42.8468 60.1601 42.3874C60.3622 41.914 60.3511 41.3937 60.376 40.8899L60.5394 40.8539C60.5449 40.436 60.6113 40.0236 60.7802 39.636C60.8494 39.088 60.9102 38.5372 61.0542 38.0002C61.4887 36.0156 61.9593 34.031 62.6291 32.1101C62.7094 31.836 62.7952 31.562 62.8838 31.2908C63.0969 30.8479 63.2796 30.3884 63.4097 29.9123C64.8933 26.339 67.2599 23.0867 70.4734 20.8862C70.8305 20.626 71.1875 20.3215 71.6719 20.3436C71.8186 19.9395 71.8906 19.5133 71.9487 19.087C71.8657 19.0067 71.7024 18.8434 71.6193 18.7604C65.6296 18.8047 59.637 18.7742 53.65 18.777C53.578 20.6703 53.6804 22.5691 53.5974 24.4623C53.3898 25.0519 52.6563 25.0574 52.1802 25.3121C51.0454 25.4145 49.9188 25.2512 48.8449 24.8913C48.5377 24.7612 48.2387 24.6228 47.9509 24.4761C47.9315 22.5746 47.9674 20.673 47.9287 18.7742C41.0864 18.7908 34.2469 18.7742 27.4073 18.7825ZM71.2429 20.7699C69.1725 22.7683 67.4287 25.1017 66.1942 27.7035C65.7956 28.6114 65.4635 29.5442 65.1313 30.4742C63.7972 35.1603 63.9162 40.0678 63.9079 44.8923C63.9411 46.2957 63.5896 47.6602 63.5564 49.0608C63.3626 49.595 63.3488 50.1652 63.2962 50.7271C63.1412 51.1672 63.0332 51.6184 62.9031 52.064C61.8458 56.2353 59.2883 59.8972 56.1467 62.7841C61.3946 62.7869 66.6426 62.8146 71.8906 62.7703C71.9017 48.6179 71.8795 34.4656 71.9016 20.3132C71.7356 20.4267 71.4062 20.6564 71.2429 20.7699Z" fill="#171717"></path><path d="M47.9563 25.5674C49.7112 26.4005 51.8979 26.5804 53.6306 25.5923C53.6084 32.3765 53.6555 39.1634 53.6084 45.9476C51.3221 45.6625 49.1078 44.4861 47.9342 42.4572C47.9702 36.8273 47.9259 31.1973 47.9563 25.5674Z" fill="#171717"></path><path d="M49.3258 72.0065C49.3726 71.8728 49.4441 71.7496 49.494 71.6172C49.6196 71.6732 49.7428 71.7342 49.8654 71.797C49.9331 71.8248 50.0021 71.85 50.0724 71.8734C50.1124 72.0367 50.0009 72.1685 49.9313 72.304C49.9159 72.3453 49.8851 72.4272 49.8703 72.4678C49.8217 72.4654 49.7742 72.4623 49.7274 72.4592C49.558 72.36 49.3708 72.296 49.2057 72.1888C49.2543 72.134 49.2932 72.0718 49.3258 72.0065Z" fill="#171717"></path><path d="M85.3542 72.1921C85.4842 72.0171 85.5501 71.8058 85.645 71.6118C85.8446 71.7252 86.0608 71.8058 86.2573 71.9253C86.187 72.1114 86.0712 72.2771 86.0183 72.4699C85.7731 72.4551 85.5668 72.2986 85.3542 72.1921Z" fill="#171717"></path><path d="M46.2786 71.8C46.432 71.7637 46.5842 71.715 46.7431 71.707C46.6716 72.0692 46.7191 72.4406 46.6895 72.8071C46.4684 72.8595 46.2497 72.9199 46.0298 72.9747C45.9189 73.0098 45.8031 73.0264 45.6885 73.0375C45.6984 73.0967 45.6793 73.1693 45.7372 73.2118C46.0735 73.6165 46.355 74.1352 46.8946 74.2941C47.2488 74.2935 47.6036 74.2892 47.9578 74.2966C48.0366 74.2454 48.1007 74.1777 48.1512 74.0982C48.1598 73.9941 48.1764 73.8906 48.2085 73.7908C48.2202 73.6966 48.2319 73.6024 48.2423 73.5081C48.5343 73.4656 48.8115 73.6202 49.101 73.6479C49.0665 73.8481 49.0295 74.0471 49.0031 74.2485C49.2248 74.32 49.4656 74.3076 49.688 74.2448C49.8395 74.1007 49.7699 73.8802 49.7847 73.6966C50.044 73.6911 50.3046 73.6935 50.5645 73.6935C50.5639 73.8826 50.5633 74.0711 50.5664 74.2602C50.5953 74.2577 50.6526 74.2528 50.6816 74.2504L50.6902 74.2966C50.798 74.2941 50.9058 74.2929 51.0142 74.2929C51.008 74.0372 50.9304 73.7915 50.9089 73.5377C51.1897 73.4176 51.4109 73.1576 51.7195 73.1188C51.7675 73.3166 51.7872 73.5198 51.8402 73.7157C51.8525 73.8025 51.8648 73.8894 51.8759 73.9769C51.9283 74.0853 51.9295 74.2621 52.0773 74.2848C52.3847 74.2984 52.6945 74.3033 53.0019 74.2781C53.2785 74.1265 53.1947 73.7434 53.2988 73.4872C53.5889 73.5408 53.8914 73.5759 54.1605 73.7034C54.0478 73.8586 54.0478 74.0939 54.1143 74.2695C54.3928 74.307 54.6878 74.3144 54.965 74.2621C55.0666 74.2528 55.1683 74.2442 55.2705 74.235C55.273 74.0009 55.2145 73.773 55.1849 73.542C55.4325 73.4176 55.6604 73.2593 55.8982 73.1176C55.9727 73.0615 56.0534 72.9993 56.155 73.0116C56.245 73.1687 56.2302 73.3578 56.2702 73.5303C56.3669 74.1019 56.447 74.7345 56.1513 75.2642C56.1095 75.3067 56.0688 75.3499 56.0294 75.393C55.9284 75.4786 55.8156 75.5488 55.6992 75.6104C55.621 75.6412 55.544 75.6714 55.4676 75.7034C55.0026 75.8346 54.5172 75.8303 54.0386 75.8248C53.7934 75.7736 53.5698 75.6092 53.4953 75.3628C53.47 75.4047 53.4454 75.4466 53.4201 75.4884C53.2563 75.7164 52.9717 75.8118 52.7019 75.8229C52.4284 75.8291 52.1531 75.8352 51.8845 75.778C51.7681 75.725 51.6511 75.6609 51.587 75.5451C51.5673 75.5439 51.5285 75.5408 51.5088 75.539C51.4035 75.7336 51.1688 75.765 50.9778 75.8241C50.6951 75.8297 50.3668 75.8088 50.1666 75.5821C49.7964 75.8993 49.231 75.8691 48.7949 75.7127C48.6852 75.6443 48.5756 75.571 48.5078 75.4589C48.4339 75.6849 48.182 75.7847 47.9645 75.8069C47.6295 75.8439 47.2907 75.8155 46.9544 75.8229C46.8299 75.7915 46.7061 75.7601 46.5854 75.7194C46.4449 75.6277 46.299 75.5359 46.2047 75.3936C46.1727 75.3505 46.1413 75.3074 46.1099 75.2642C45.8924 75.6585 45.4224 75.7958 45.0024 75.8223C44.6057 75.8266 44.2078 75.842 43.816 75.7699C43.699 76.3865 43.2345 77.0062 42.5816 77.1004C42.2816 77.1577 42.002 77.008 41.7303 76.9064C41.572 76.6268 41.58 76.2793 41.4495 75.9861C41.4753 75.94 41.5012 75.8931 41.5277 75.8469C42.0574 75.94 42.637 75.8851 43.0571 75.5192C42.95 74.9957 42.8348 74.4727 42.7375 73.9473C42.8108 73.8678 42.9155 73.8272 43.0035 73.765C43.0534 73.7354 43.1039 73.7065 43.1551 73.6775C43.2992 73.5944 43.4279 73.4779 43.5862 73.4231C43.7446 73.4478 43.7002 73.6781 43.7519 73.7896C43.7827 73.8869 43.8006 73.9886 43.8215 74.089C43.8751 74.1592 43.8961 74.2941 44.01 74.2873C44.3611 74.2984 44.7129 74.2947 45.064 74.2898C45.0923 74.275 45.1502 74.246 45.1785 74.2313C44.8976 73.9664 44.679 73.6449 44.4178 73.3615C44.2496 73.2051 44.3722 72.963 44.3611 72.7671L44.3956 72.7622C44.4018 72.6402 44.411 72.5183 44.4178 72.3963L44.4492 72.3883C44.4535 72.3575 44.4609 72.2953 44.4652 72.2645C44.7997 72.1579 45.1465 72.0883 45.4865 71.9978C45.5678 71.9744 45.651 71.9583 45.7347 71.9411C45.8154 71.9146 45.8986 71.8974 45.983 71.8807C46.0803 71.8512 46.1801 71.8278 46.2786 71.8Z" fill="#171717"></path><path d="M80.113 71.8256C80.1918 71.7992 80.2737 71.7782 80.3563 71.7597C80.4462 71.7369 80.5368 71.716 80.6291 71.6963C80.6181 72.0258 80.6113 72.3554 80.6088 72.6849C80.6273 72.7675 80.5515 72.8315 80.4776 72.8377C80.1629 72.9177 79.8481 72.9954 79.5352 73.0797C79.5869 73.1444 79.6387 73.2097 79.6892 73.2762C80.0206 73.7 80.4308 74.1836 80.2922 74.765C80.2171 75.1315 79.9547 75.4303 79.6257 75.596C79.5561 75.6225 79.4878 75.6496 79.4206 75.6748C79.3196 75.7056 79.2192 75.7327 79.1194 75.7623C78.7505 75.8146 78.3796 75.838 78.0076 75.8257C77.7341 75.8362 77.4218 75.7007 77.3368 75.4217C77.3208 75.4229 77.2875 75.4253 77.2709 75.4266C77.1933 75.5424 77.0886 75.6348 76.9734 75.7105C76.5391 75.8769 76.0655 75.8713 75.6072 75.8818C75.1661 75.8898 74.7134 75.8769 74.2964 75.7173C74.0716 75.6212 73.9034 75.4284 73.8221 75.2005C73.7531 74.858 73.771 74.4983 73.8289 74.1558C73.8461 73.9298 73.8979 73.7087 73.9213 73.4832C74.1892 73.458 74.4529 73.3927 74.7226 73.3883C74.7676 73.6889 74.5009 74.1158 74.8495 74.3043C74.9253 74.3092 75.0023 74.3141 75.0799 74.3197V74.3573C75.524 74.3449 75.9687 74.3603 76.4129 74.3493C76.5755 74.2932 76.7541 74.3074 76.9118 74.2279C77.0504 74.0019 77.0313 73.7265 77.1237 73.4838C77.298 73.5122 77.4699 73.5547 77.6423 73.5953C77.7372 73.62 77.832 73.6341 77.93 73.6489C77.9183 73.798 77.9214 73.952 77.8622 74.0924C77.8752 74.1287 77.901 74.202 77.9133 74.2384C78.0341 74.3178 78.1819 74.2901 78.3187 74.2951C78.5657 74.2926 78.8133 74.2963 79.0615 74.2914C79.0042 74.1324 78.873 74.0209 78.772 73.8916C78.5841 73.6698 78.403 73.4432 78.2127 73.2245C78.2534 72.9017 78.3168 72.5827 78.3599 72.2605C78.6969 72.1755 79.0326 72.0862 79.3707 72.0055C79.4508 71.9833 79.5321 71.9636 79.6146 71.9439C79.6947 71.9156 79.7773 71.9014 79.8629 71.8866C79.9436 71.8614 80.028 71.8429 80.113 71.8256Z" fill="#171717"></path><path d="M16.4227 72.6177C16.4831 72.3349 16.6432 72.0867 16.7671 71.8286C16.825 71.8779 16.8909 71.9173 16.958 71.953C17.1496 72.0202 17.3264 72.123 17.5124 72.2037C17.4951 72.277 17.4754 72.3497 17.4477 72.4199C17.359 72.5961 17.2721 72.7735 17.2038 72.9583C16.9377 72.8573 16.6814 72.7341 16.4227 72.6177Z" fill="#171717"></path><path d="M30.2685 71.8574C30.295 71.8543 30.3479 71.8488 30.3744 71.8457C30.372 72.5966 30.375 73.3474 30.3732 74.0977C30.4188 74.1814 30.4767 74.2591 30.566 74.3003C30.7569 74.2905 30.9485 74.2923 31.1394 74.2979C31.4579 74.1648 31.371 73.7595 31.4795 73.4928C31.6581 73.5082 31.8324 73.5532 32.0061 73.5957C32.0991 73.6185 32.1934 73.6339 32.2882 73.6499C32.2568 73.7922 32.319 73.9905 32.1946 74.0909C32.2143 74.1272 32.2531 74.1993 32.2728 74.235C32.5925 74.3669 32.9615 74.256 33.3009 74.2985C33.3803 74.248 33.4444 74.179 33.4931 74.0983C33.538 73.9055 33.5183 73.6757 33.6458 73.5144C33.777 73.5304 33.9039 73.5667 34.0333 73.595C34.1688 73.6277 34.3049 73.6579 34.4404 73.6905C34.409 73.8759 34.3733 74.0607 34.3437 74.2467C34.4275 74.2794 34.5149 74.2985 34.6055 74.3028C34.6227 74.2067 34.6233 74.0983 34.6979 74.025C35.025 73.6579 35.3169 73.2476 35.7253 72.9637C36.1978 72.681 36.8562 72.7647 37.2449 73.1559C37.4371 73.3634 37.5603 73.6295 37.5985 73.9098C37.6286 74.0706 37.6293 74.2363 37.5997 74.3977C37.5664 74.9471 37.1876 75.4325 36.677 75.6277C36.5359 75.6826 36.3899 75.722 36.2446 75.7608C35.9791 75.7934 35.713 75.8372 35.445 75.8261C35.0502 75.8125 34.6492 75.8649 34.2624 75.7645C34.2316 75.7515 34.17 75.7251 34.1398 75.7121C34.0271 75.6468 33.9076 75.5803 33.8454 75.4596C33.7487 75.7626 33.3742 75.8193 33.1007 75.8261C32.7835 75.8144 32.4625 75.8513 32.1484 75.8021C31.9328 75.7632 31.7474 75.5976 31.6889 75.3863C31.5755 75.5027 31.4641 75.6222 31.3279 75.7127C30.9195 75.8643 30.4453 75.8766 30.0418 75.7041C29.6414 75.5255 29.5028 75.0537 29.4924 74.6496C29.4776 73.794 29.4782 72.939 29.4609 72.0841C29.5687 72.0557 29.6765 72.028 29.7843 71.9985C29.865 71.9763 29.9476 71.9603 30.0307 71.9449C30.1102 71.9165 30.189 71.8876 30.2685 71.8574ZM35.4814 74.365C35.8756 74.3502 36.2994 74.4358 36.6634 74.2369C36.6536 74.1839 36.6449 74.1309 36.6369 74.078C36.4965 73.8254 36.183 73.8433 35.9378 73.8901C35.7894 74.0527 35.6268 74.2012 35.4814 74.365Z" fill="#171717"></path><path d="M54.8566 72.4298C54.9447 72.2259 55.0481 72.0294 55.143 71.8286C55.2015 71.8767 55.2668 71.9161 55.3346 71.9512C55.5274 72.0189 55.706 72.1193 55.8914 72.2044C55.8427 72.4754 55.6684 72.7008 55.5822 72.9595C55.3179 72.8542 55.0617 72.7329 54.803 72.6177C54.8165 72.5702 54.843 72.4766 54.8566 72.4298Z" fill="#171717"></path><path d="M18.8754 71.9397C18.9888 71.904 19.1027 71.8695 19.2154 71.8301C19.3066 72.042 19.2099 72.268 19.2524 72.4873C19.2197 72.7565 19.2659 73.0257 19.2351 73.2955C19.2629 73.4143 19.261 73.5369 19.2376 73.6564C19.2351 73.7624 19.2345 73.8683 19.2321 73.9743C19.2623 74.0987 19.282 74.2459 19.4187 74.2989C19.6189 74.289 19.8203 74.2933 20.0211 74.2989L20.023 74.2551C20.0655 74.2521 20.1505 74.2471 20.193 74.2447L20.1936 74.3069C20.2872 74.2983 20.3802 74.2847 20.472 74.2668C20.5545 74.2496 20.6377 74.233 20.7202 74.2145C20.8539 74.1603 20.9808 74.0925 21.1077 74.026C20.8958 73.9804 20.6944 73.8856 20.4776 73.8652C20.2595 73.8726 20.2829 74.2539 20.0439 74.2034C19.9078 74.0069 19.7396 73.8332 19.5801 73.6552C19.6762 73.439 19.8006 73.2369 19.9029 73.0244C20.063 72.8027 20.3494 72.661 20.6235 72.7251C20.9463 72.7959 21.2629 72.8939 21.5764 72.9986C21.6115 73.0066 21.6811 73.0232 21.7163 73.0312C21.7963 73.0602 21.877 73.0873 21.9571 73.1168C22.0027 73.1255 22.0926 73.1415 22.1382 73.1495C22.2177 73.1852 22.3027 73.2074 22.387 73.2314C22.6476 73.2825 22.9051 73.3521 23.1662 73.4033C23.1527 73.5154 23.1164 73.6232 23.0825 73.7303C23.0504 73.8067 23.0221 73.8843 22.9925 73.9619C22.9316 74.1412 22.8601 74.3173 22.8102 74.5009C22.6291 74.5151 22.4474 74.4171 22.2719 74.4627C22.0323 74.6795 21.7625 74.8606 21.5173 75.0719C21.2611 75.2659 21.019 75.4871 20.7233 75.6213C20.2792 75.8326 19.7815 75.8431 19.3004 75.8228C19.0584 75.771 18.7941 75.707 18.6327 75.5031C18.4184 75.2259 18.35 74.8656 18.35 74.5225C18.3445 73.7094 18.3383 72.8963 18.3334 72.0832C18.512 72.0272 18.6913 71.9754 18.8754 71.9397Z" fill="#171717"></path><path d="M70.921 72.6269C70.9777 72.3688 71.1243 72.1452 71.2253 71.9037C71.3873 72.0146 71.5715 72.0935 71.7538 72.1661C71.914 72.208 71.9207 71.9863 71.9632 71.8853C72.0113 71.9025 72.1068 71.9364 72.1548 71.9536C72.3267 72.0442 72.5059 72.1181 72.679 72.2074C72.6759 72.2339 72.6691 72.2875 72.6654 72.314C72.6199 72.3934 72.5811 72.476 72.5459 72.5597C72.4924 72.6669 72.4425 72.7759 72.4074 72.8899C72.1881 72.8197 71.9836 72.715 71.7741 72.6219C71.7205 72.7297 71.6688 72.8394 71.6208 72.9496C71.3953 72.8258 71.1532 72.7353 70.921 72.6269Z" fill="#171717"></path><path d="M31.1771 72.1289C31.3896 72.225 31.6008 72.3254 31.814 72.4203C31.8472 72.4363 31.9131 72.4683 31.9464 72.4843C31.8965 72.764 31.7049 72.9894 31.6329 73.2617C31.5885 73.2333 31.5442 73.2068 31.4992 73.1804C31.3785 73.1342 31.2614 73.08 31.1438 73.027C31.0434 72.9857 30.9455 72.9383 30.85 72.8865C30.8666 72.8367 30.8839 72.7861 30.9023 72.7362C30.9886 72.5311 31.0896 72.3328 31.1771 72.1289Z" fill="#171717"></path><path d="M50.0226 72.3774C50.2197 72.439 50.3958 72.5499 50.5868 72.6269C50.641 72.6589 50.6958 72.6916 50.7506 72.7248C50.6428 72.9466 50.5486 73.1757 50.4365 73.3956C50.2708 73.2854 50.0614 73.2589 49.9105 73.1265C49.8932 73.1499 49.8581 73.1961 49.8408 73.2195C49.8107 73.2922 49.7799 73.3636 49.7497 73.4363C49.5144 73.3211 49.2668 73.233 49.0345 73.1123C49.0857 72.9571 49.1516 72.8074 49.2304 72.6639C49.2563 72.593 49.2803 72.521 49.3025 72.4483C49.4146 72.4433 49.5168 72.4889 49.6154 72.5382C49.7078 72.5986 49.8107 72.6429 49.9222 72.6534C49.9511 72.5598 49.9874 72.4686 50.0226 72.3774Z" fill="#171717"></path><path d="M59.4616 72.4135C59.5355 72.3969 59.6119 72.3821 59.687 72.3667C59.6802 72.9463 59.6864 73.5259 59.6839 74.105C59.7308 74.1887 59.7954 74.2608 59.8854 74.3008C60.2007 74.2861 60.5167 74.2984 60.8327 74.2941C60.8038 74.1382 60.5814 74.0976 60.6227 73.9226C60.473 73.9485 60.3227 73.9694 60.1724 73.9842C60.1773 73.8949 60.1915 73.8068 60.2155 73.72C60.234 73.6183 60.2519 73.5167 60.2827 73.4182C60.2987 73.3338 60.3159 73.25 60.3443 73.1693C60.3529 73.0935 60.3603 73.0184 60.3677 72.9426C60.8617 72.8256 61.3631 72.7295 61.8694 72.6888C62.21 72.6753 62.5759 72.7049 62.8654 72.9038C63.1297 73.0991 63.1857 73.473 63.1112 73.7754C63.0687 73.9701 62.9079 74.1062 62.8488 74.2941C63.2738 74.2897 63.7 74.3021 64.1251 74.2891C64.4201 74.137 64.3351 73.744 64.4429 73.4798C64.6351 73.5032 64.8236 73.5518 65.0121 73.5962C65.0909 73.6171 65.1728 73.6325 65.2547 73.6448C65.2369 73.7828 65.2233 73.9208 65.2147 74.0594L65.179 74.06C65.1771 74.105 65.1747 74.1949 65.1728 74.2405C65.2085 74.2534 65.2794 74.2793 65.3145 74.2922C65.4414 74.2947 65.5689 74.2947 65.6976 74.2934C65.7568 74.27 65.8165 74.2466 65.8775 74.2245C65.8984 74.1949 65.9391 74.1358 65.96 74.1062C65.9631 73.9688 65.9637 73.8321 65.9649 73.6953C66.22 73.6941 66.4762 73.6941 66.7318 73.6947C66.7318 73.8777 66.7324 74.0606 66.7281 74.2442C66.8772 74.3076 67.0392 74.2965 67.1981 74.2953C67.1673 74.1241 67.1371 73.9528 67.1137 73.781C67.094 73.7021 67.0792 73.622 67.0688 73.5413C67.4051 73.3775 67.6946 73.1225 68.0457 72.9894C68.1473 73.2716 68.1738 73.5771 68.1972 73.8746L68.2323 73.8789C68.2471 74.1431 68.2527 74.4074 68.236 74.6716L68.2034 74.679C68.1861 74.7967 68.1529 74.9106 68.1122 75.0221C67.9699 75.3196 67.7679 75.6165 67.45 75.7434C67.1439 75.8802 66.786 75.8358 66.4885 75.7003C66.3943 75.6276 66.2772 75.6245 66.1812 75.6948C65.8763 75.8401 65.5184 75.8586 65.1919 75.7841C64.9967 75.7434 64.7971 75.651 64.6967 75.4699C64.6412 75.5691 64.5599 75.648 64.4706 75.7157C64.3474 75.757 64.2224 75.7927 64.0973 75.8241C63.4918 75.8063 62.8796 75.8777 62.2809 75.7619C62.2519 75.749 62.194 75.7243 62.1651 75.7114C62.1336 75.6978 62.072 75.6701 62.0412 75.656C61.9593 75.5925 61.8823 75.5254 61.8072 75.4552C61.3261 75.9085 60.6295 75.8217 60.024 75.8247C59.6692 75.8266 59.3113 75.6769 59.1056 75.3794C59.0871 75.3486 59.0501 75.287 59.0323 75.2562C59.0236 75.2901 59.0058 75.3578 58.9971 75.3917C58.9651 75.4638 58.9349 75.5365 58.9072 75.6098L58.8549 75.6079C58.6066 75.6874 58.3177 75.6763 58.0658 75.6215C57.9568 75.6085 57.8484 75.5956 57.7437 75.5673C57.5478 75.4878 57.387 75.3443 57.2915 75.1558C57.2731 75.0893 57.2533 75.0234 57.2318 74.9587C57.2115 74.7714 57.2152 74.5829 57.2355 74.3963C57.2663 74.3156 57.2946 74.2337 57.3229 74.1524C57.4911 73.7138 57.8558 73.3793 58.29 73.2106C58.3578 73.1835 58.4255 73.1539 58.4951 73.1262C58.5863 73.0812 58.6787 73.0387 58.7735 72.9993C58.776 72.8607 58.7766 72.7209 58.8136 72.586C58.8875 72.5811 58.9602 72.5657 59.031 72.5404C59.0957 72.5213 59.161 72.5028 59.2269 72.4831C59.3051 72.4628 59.384 72.4406 59.4616 72.4135ZM61.5639 73.8272C61.5719 73.861 61.5885 73.9294 61.5965 73.9633C61.7246 74.036 61.7782 74.2238 61.9205 74.2559C62.064 74.1579 62.2685 74.0193 62.2199 73.8179C62.0012 73.7994 61.7819 73.8081 61.5639 73.8272ZM58.0732 74.2177C58.1009 74.2836 58.1299 74.3483 58.1607 74.4129C58.3645 74.4246 58.5684 74.4253 58.7735 74.424C58.7729 74.2713 58.7729 74.1185 58.7711 73.9657C58.5364 74.0446 58.306 74.1364 58.0732 74.2177Z" fill="#171717"></path><path d="M86.1722 72.376C86.2467 72.4068 86.3207 72.4388 86.397 72.4696C86.4278 72.485 86.4888 72.5158 86.519 72.5306C86.6299 72.6008 86.8091 72.6131 86.8676 72.7382C86.8177 72.9722 86.6717 73.1737 86.5837 73.3942C86.4974 73.3529 86.4149 73.3122 86.3311 73.2728C86.2221 73.226 86.089 73.2075 86.0114 73.1121C85.9856 73.2229 85.9412 73.3283 85.8999 73.4336C85.7071 73.356 85.5205 73.266 85.3289 73.1866C85.2932 73.1693 85.2212 73.1355 85.1854 73.1188C85.2347 72.8743 85.3924 72.6723 85.4608 72.4339C85.632 72.4684 85.7872 72.554 85.9406 72.6359C85.9683 72.6415 86.0225 72.6519 86.0496 72.6569C86.0909 72.5638 86.1309 72.4696 86.1722 72.376Z" fill="#171717"></path><path d="M24.2096 72.9155C24.9254 72.817 25.6602 72.5619 26.3821 72.7597C26.6852 72.8305 26.9297 73.0904 26.9476 73.4077C27.0197 73.7458 26.8047 74.0273 26.6378 74.294C27.1053 74.2984 27.5722 74.3033 28.0354 74.2392C28.0274 74.0027 27.9504 73.7754 27.9467 73.5383C28.1198 73.4539 28.2781 73.3436 28.4432 73.2457C28.4943 73.213 28.5466 73.1804 28.599 73.1483C28.6674 73.1126 28.732 73.0689 28.7912 73.0184C28.8368 73.0171 28.883 73.0159 28.9292 73.0147C28.976 73.2093 29.0105 73.4064 29.0314 73.6054C29.0745 73.7736 29.0813 73.9473 29.0856 74.1197L29.1207 74.1222C29.1189 74.2645 29.1176 74.4074 29.1195 74.5503L29.0862 74.5534C29.085 74.687 29.0745 74.8207 29.0419 74.9507C28.9624 75.2901 28.6828 75.5223 28.3729 75.6492C28.2479 75.688 28.1229 75.7243 27.9984 75.7625C27.4231 75.8364 26.8176 75.8912 26.2559 75.7114C26.2251 75.696 26.1629 75.6646 26.1314 75.6486C25.9257 75.5414 25.7649 75.3738 25.5906 75.2242C25.372 75.3412 25.1502 75.4601 24.9648 75.627C24.9315 75.6695 24.8983 75.712 24.8644 75.7545C24.9648 75.9356 25.1601 76.0415 25.3658 76.0422C25.9239 76.0662 26.4764 75.9621 27.032 75.9313C27.0486 75.9479 27.0825 75.9812 27.0991 75.9978C27.0307 76.4056 26.9174 76.8047 26.8466 77.2125C26.6575 77.2722 26.4561 77.2648 26.2608 77.287C25.7736 77.3548 25.2475 77.3874 24.7905 77.1712C24.5657 77.077 24.4117 76.878 24.2768 76.684C24.2441 76.5774 24.201 76.4746 24.1579 76.3717C24.1117 75.9972 24.1129 75.6036 24.2811 75.2568C24.4622 74.9772 24.6654 74.6901 24.9549 74.5152C24.934 74.4973 24.8921 74.461 24.8712 74.4425C24.7295 74.2706 24.4468 74.1684 24.4332 73.9238C24.2952 73.9442 24.1579 73.9725 24.0181 73.9793C23.9725 73.8703 24.0193 73.7557 24.0402 73.6473C24.1012 73.4046 24.156 73.1601 24.2096 72.9155ZM25.6596 74.2331C25.6855 74.2398 25.7385 74.254 25.7649 74.2614C25.8598 74.1579 25.9602 74.0594 26.06 73.9602C26.0563 73.9263 26.0483 73.8573 26.0446 73.8228C25.8124 73.7933 25.5795 73.8148 25.3473 73.8265C25.3972 73.9978 25.5635 74.0902 25.6596 74.2331Z" fill="#171717"></path><path d="M75.1811 72.7025C75.3874 72.8011 75.5944 72.9002 75.8075 72.984C75.8525 72.8817 75.8981 72.7801 75.9436 72.6772C76.1882 72.7493 76.4068 72.8854 76.6434 72.9785C76.6194 73.2433 76.4333 73.4546 76.3563 73.7034C76.1648 73.5735 75.9406 73.4835 75.7188 73.4238C75.6843 73.5187 75.6474 73.6123 75.6153 73.7078C75.55 73.693 75.486 73.677 75.4244 73.656C75.2495 73.571 75.0751 73.4848 74.894 73.4164C74.9027 73.353 74.9144 73.2895 74.9421 73.2316C75.0234 73.0561 75.1053 72.8805 75.1811 72.7025Z" fill="#171717"></path><path d="M16.8077 73.5408C17.1508 73.3911 17.4268 73.101 17.7896 73.0024C17.9091 73.6572 18.0871 74.3459 17.8863 75.0031C17.8272 75.2292 17.6633 75.4078 17.4699 75.5304C17.4397 75.5458 17.3793 75.5772 17.3492 75.5932C16.8472 75.8396 16.27 75.8347 15.7242 75.8223C15.4655 75.8174 15.2179 75.6505 15.1323 75.4035C15.1144 75.4121 15.0781 75.4281 15.0602 75.4361C14.8557 75.8186 14.3771 75.8371 13.9965 75.834C13.9903 75.879 13.9792 75.9689 13.9731 76.0139C13.8499 76.3397 13.5807 76.5843 13.269 76.7278C13.2062 76.75 13.1433 76.7722 13.0805 76.7943C12.9727 76.8362 12.8569 76.8411 12.743 76.8455L12.7442 76.8824C12.5107 76.8781 12.2699 76.92 12.0414 76.8553C11.9385 76.8424 11.8338 76.8325 11.7346 76.8005C11.6749 76.7746 11.6151 76.7494 11.5554 76.7247C11.208 76.5362 10.9986 76.1463 11.0041 75.7552C10.9727 75.1959 11.1279 74.6514 11.2665 74.1155C11.5141 74.1204 11.7617 74.1118 12.0094 74.126C12.0254 74.2775 12.0174 74.4321 11.9656 74.5769C11.9502 74.7013 11.9385 74.8275 11.9065 74.9495C11.8997 75.0567 11.896 75.1639 11.8923 75.2717C11.9324 75.3721 11.9976 75.4601 12.0981 75.5057C12.4621 75.5852 12.8391 75.5279 13.2074 75.5205C13.1464 75.5008 13.0232 75.4608 12.9616 75.4404C12.7226 75.3517 12.4756 75.2877 12.2336 75.2088C12.2908 74.8922 12.4467 74.6058 12.5292 74.296C13.229 74.2843 13.9293 74.3108 14.6284 74.2824C14.8902 74.1161 14.82 73.757 14.9112 73.4958C15.1902 73.5057 15.4508 73.6172 15.7267 73.6486C15.7107 73.8426 15.6934 74.0373 15.6934 74.2325C16.076 74.3742 16.501 74.2658 16.897 74.2338C16.8921 73.9997 16.8256 73.7736 16.8077 73.5408Z" fill="#171717"></path><path d="M39.5708 72.9663C39.6755 72.9657 39.7808 72.9657 39.8868 72.9663C40.0094 73.0063 40.1326 73.0457 40.2551 73.0889C40.5021 73.2552 40.6906 73.5046 40.7892 73.7861C40.8551 73.9629 40.8933 74.1477 40.937 74.3306C40.9801 74.7021 40.9949 75.0797 40.9376 75.4505C40.9142 75.5312 40.8957 75.6137 40.8791 75.6962C40.8483 75.7757 40.8187 75.8552 40.7873 75.9334C40.7621 76.0018 40.7337 76.0683 40.7066 76.1354C40.5551 76.4249 40.3475 76.6861 40.0845 76.882C39.6995 77.1493 39.1944 77.1783 38.778 76.967C38.7023 76.9417 38.6271 76.9152 38.5526 76.8888C38.4978 76.7151 38.4547 76.5383 38.4122 76.3615C38.374 76.2149 38.345 76.0658 38.2994 75.9211C38.4306 75.8022 38.6087 75.8687 38.7651 75.8755C39.1581 75.9118 39.5887 75.8465 39.8979 75.5841C39.6767 75.5952 39.455 75.6069 39.2332 75.5921L39.2345 75.5595C38.8877 75.5527 38.6111 75.2306 38.5988 74.8949C38.5668 74.4249 38.6924 73.9574 38.8741 73.5274C39.0127 73.2472 39.2628 73.0365 39.5708 72.9663ZM39.5043 74.0713C39.3848 74.1711 39.4143 74.3411 39.4094 74.4785C39.5893 74.4674 39.7833 74.5191 39.9508 74.4329L40.0137 74.4526C39.9878 74.3226 39.9681 74.1921 39.9428 74.0621C39.7981 74.0411 39.6429 74.0042 39.5043 74.0713Z" fill="#171717"></path><path d="M71.7543 73.5383C72.0968 73.3905 72.3715 73.0998 72.7337 73.0024C72.8538 73.6714 73.0405 74.3791 72.815 75.0474C72.751 75.2556 72.5921 75.4152 72.4128 75.5298C72.3826 75.5458 72.3217 75.5784 72.2915 75.595C72.2243 75.6246 72.1584 75.6523 72.0913 75.6782C71.994 75.709 71.8966 75.7349 71.8005 75.7644C71.5197 75.8014 71.2376 75.8402 70.9536 75.8254C70.7466 76.394 70.3327 76.9625 69.705 77.0857C69.4469 77.1577 69.1839 77.0844 68.9425 76.9927C68.8815 76.9717 68.8217 76.9508 68.762 76.9317C68.7318 76.9175 68.6708 76.8892 68.64 76.8744C68.571 76.5627 68.483 76.2547 68.4115 75.9437C68.4306 75.919 68.4682 75.871 68.4866 75.847C68.9967 75.9234 69.5535 75.9166 69.9933 75.6092C69.7679 75.5944 69.5418 75.6067 69.3176 75.5858C69.2166 75.5458 69.1137 75.5119 69.0145 75.4694C68.9425 75.4047 68.8735 75.3388 68.8076 75.2704C68.7657 75.1669 68.7275 75.0628 68.6918 74.9575C68.6899 74.83 68.6899 74.7025 68.6955 74.575C68.725 74.4555 68.7417 74.3323 68.7571 74.2104C68.7872 74.1124 68.8131 74.0126 68.8433 73.9147C68.871 73.8266 68.9037 73.7391 68.9332 73.6517C69.1131 73.2199 69.5886 72.9113 70.0592 73.0468C70.645 73.1589 70.9185 73.7699 71.0294 74.2954C71.1963 74.2898 71.3688 74.3138 71.532 74.2633C71.633 74.2541 71.7365 74.2448 71.8394 74.2344C71.8276 74.0847 71.824 73.9319 71.7765 73.7884C71.7648 73.7053 71.758 73.6221 71.7543 73.5383ZM69.5603 74.1358C69.5486 74.1715 69.5252 74.243 69.5128 74.2787C69.4907 74.352 69.4999 74.4222 69.5399 74.4882C69.7291 74.4678 69.9286 74.5097 70.1103 74.4346C70.0925 74.3249 70.0678 74.2171 70.0309 74.113C69.8732 74.0798 69.7118 74.0792 69.5603 74.1358Z" fill="#171717"></path><path d="M87.8539 73.0078C87.9013 73.0127 87.9494 73.0183 87.9993 73.0238C88.0621 73.524 88.2001 74.0211 88.1551 74.5292C88.1379 74.7707 88.0375 74.9943 87.9371 75.2117C87.8089 75.4101 87.6482 75.5881 87.448 75.7156C87.3402 75.755 87.2324 75.7901 87.1252 75.8252C86.8302 75.8222 86.4772 75.8209 86.2616 75.5881C86.184 75.6478 86.1027 75.7008 86.0159 75.7445C85.6635 75.8425 85.2779 75.8684 84.9336 75.7292C84.8055 75.6676 84.6638 75.5967 84.6028 75.4612C84.5117 75.6854 84.2708 75.7889 84.0441 75.8105C83.653 75.8431 83.2576 75.8357 82.8707 75.771C82.8516 75.8936 82.8147 76.0113 82.7691 76.1252C82.564 76.5798 82.1907 77.0122 81.6751 77.0954C81.3628 77.1687 81.0653 77.0171 80.7832 76.9056C80.665 76.7313 80.6662 76.5016 80.5978 76.3051C80.5726 76.1985 80.5547 76.0889 80.4993 75.9934C80.5258 75.9447 80.5522 75.8967 80.5812 75.848C80.8276 75.8825 81.0777 75.8948 81.3259 75.8733C81.6172 75.8406 81.879 75.6928 82.1094 75.5191C81.9979 74.9931 81.8957 74.4652 81.7823 73.9398C81.8747 73.8831 81.9677 73.8258 82.0589 73.7655C82.2424 73.6626 82.4125 73.5382 82.5966 73.4359C82.6767 73.3891 82.7334 73.4716 82.7556 73.5382C82.7685 73.6219 82.7833 73.7057 82.8024 73.7889C82.8313 73.8683 82.8455 73.9527 82.8566 74.0371C82.896 74.14 82.9496 74.2416 83.05 74.2989C83.3789 74.2829 83.7091 74.3081 84.038 74.2866C84.1575 74.2668 84.2 74.1412 84.248 74.0469C84.269 73.8634 84.3176 73.6841 84.3386 73.5006C84.5369 73.4753 84.7248 73.5591 84.9176 73.5924C85.0075 73.6152 85.0993 73.6336 85.1929 73.6509C85.1529 73.8492 85.1221 74.0488 85.0876 74.2471C85.3075 74.305 85.5588 74.3358 85.7713 74.2342C85.9438 74.1141 85.852 73.8726 85.8748 73.6971C86.1341 73.6928 86.3934 73.6946 86.6528 73.6946C86.6528 73.8788 86.6534 74.063 86.6515 74.2471C86.7969 74.3013 86.9515 74.2958 87.1055 74.297C87.0938 74.0408 87.0187 73.7926 87.0033 73.5369C87.1856 73.4347 87.3642 73.325 87.5391 73.2092C87.6488 73.1501 87.7572 73.0879 87.8539 73.0078Z" fill="#171717"></path><path d="M20.551 76.3705C20.6415 76.1679 20.7382 75.967 20.8325 75.7656C21.0776 75.8931 21.3332 75.9997 21.5839 76.1149C21.5655 76.4044 21.3449 76.6261 21.284 76.9039C21.1712 76.8245 21.0407 76.7801 20.9162 76.7235C20.7776 76.6643 20.6409 76.6009 20.5035 76.538C20.5183 76.482 20.5343 76.4266 20.551 76.3705Z" fill="#171717"></path><path d="M28.1312 76.4442C28.1891 76.3297 28.2433 76.2139 28.2895 76.0938C28.3813 76.1683 28.4879 76.22 28.5969 76.2638C28.7213 76.3204 28.8439 76.3808 28.9714 76.4313C28.9418 76.6672 28.8143 76.8883 28.7004 77.0898C28.4657 77.1193 28.2877 76.8742 28.0505 76.8816C28.0173 76.9783 27.9766 77.0725 27.9378 77.1674C27.7389 77.1119 27.5621 77.0041 27.3699 76.9321C27.3323 76.9167 27.2584 76.8859 27.2208 76.8705C27.2418 76.7608 27.283 76.6574 27.3348 76.5588C27.3958 76.4418 27.4235 76.3013 27.5122 76.2028C27.7364 76.2015 27.9218 76.3746 28.1312 76.4442Z" fill="#171717"></path><path d="M14.5471 76.189C14.5989 76.1988 14.6512 76.2087 14.703 76.2191C14.8151 76.2783 14.9297 76.3337 15.0448 76.3855C15.1415 76.4298 15.2493 76.46 15.3276 76.5358C15.2586 76.7945 15.1107 77.0285 15.0079 77.2768C14.8015 77.1757 14.5866 77.0932 14.3796 76.9928C14.3322 76.9719 14.2847 76.9515 14.2373 76.9318C14.2934 76.6657 14.4572 76.4427 14.5471 76.189Z" fill="#171717"></path><path d="M52.7511 76.1459C52.9495 76.2654 53.1657 76.3504 53.3764 76.4434C53.4182 76.3417 53.4595 76.2395 53.494 76.1348C53.7465 76.1865 53.9578 76.3467 54.1999 76.4292C54.1999 76.4748 54.1999 76.5197 54.2011 76.5647C54.0946 76.747 54.0182 76.9435 53.9276 77.1332C53.7798 77.068 53.6326 77.0033 53.4878 76.9343C53.425 76.9097 53.3616 76.8875 53.2987 76.8659C53.2581 76.9632 53.2168 77.0593 53.1799 77.1579C53.0068 77.132 52.8546 77.0402 52.6969 76.97C52.6187 76.938 52.5417 76.9047 52.4647 76.8733C52.469 76.8259 52.474 76.7785 52.4795 76.731C52.5787 76.5401 52.6729 76.3467 52.7511 76.1459Z" fill="#171717"></path><path d="M11.6669 78.8435C11.7464 78.8133 11.8271 78.7838 11.9059 78.7511C12.2453 78.7037 12.6161 78.7474 12.8902 78.9679C13.0639 79.1281 13.0861 79.3806 13.1163 79.6005C12.995 79.6024 12.8742 79.6036 12.7535 79.6055C12.7165 79.4829 12.6771 79.3603 12.6057 79.2525C12.5749 79.2365 12.5127 79.2032 12.4812 79.1866C12.2613 79.0961 12.0205 79.1201 11.7981 79.1878C11.7402 79.2679 11.686 79.3504 11.6331 79.4342C11.7045 79.7779 12.1406 79.7274 12.3969 79.8371C12.464 79.8475 12.5318 79.8574 12.5989 79.8666C12.857 79.9405 13.0861 80.1032 13.1693 80.368C13.2001 80.6612 13.1576 81.0068 12.8866 81.1792C12.4812 81.4263 11.9417 81.438 11.5302 81.1971C11.2801 81.024 11.192 80.7074 11.1939 80.4167C11.3158 80.4167 11.4384 80.4161 11.5604 80.4161C11.5745 80.5048 11.5887 80.5935 11.6029 80.6822C11.824 81.069 12.4042 81.0542 12.7282 80.8121C12.7547 80.7468 12.7831 80.6822 12.812 80.6175C12.7627 80.5165 12.711 80.4105 12.6038 80.36C12.2718 80.251 11.9158 80.2233 11.5949 80.0816C11.4341 80.0145 11.3448 79.858 11.2826 79.7046C11.2358 79.3732 11.3614 79.0092 11.6669 78.8435Z" fill="#171717"></path><path d="M29.3613 79.1536C29.4506 78.9127 29.7142 78.7661 29.9661 78.7926C30.191 78.7859 30.3678 78.9534 30.4774 79.1333C30.4959 79.3248 30.5027 79.5238 30.4109 79.6987C30.3172 79.8077 30.2156 79.9094 30.1017 79.9981C30.2236 80.128 30.3314 80.2716 30.4682 80.3874C30.4922 80.2722 30.5199 80.1582 30.5501 80.0449C30.6573 80.0461 30.7644 80.0461 30.8722 80.0461C30.8765 80.2882 30.7854 80.5124 30.7121 80.7378C30.8827 80.9214 31.0256 81.1284 31.1962 81.3125C31.0268 81.3138 30.8581 81.3132 30.6893 81.3162C30.6289 81.2399 30.5698 81.1629 30.5156 81.0822C30.4774 81.084 30.4392 81.0865 30.4016 81.0889C30.3524 81.1542 30.2914 81.2097 30.2285 81.2608C30.1201 81.2965 30.013 81.3341 29.9058 81.3717C29.62 81.3939 29.3028 81.3125 29.1401 81.0582C29.0249 80.8395 29.0428 80.5863 29.0748 80.3498C29.166 80.1471 29.3483 80.0209 29.522 79.8952C29.365 79.6882 29.243 79.4074 29.3613 79.1536ZM29.6927 79.2626C29.6403 79.4529 29.7573 79.6106 29.8873 79.7357C30.0431 79.6193 30.1965 79.4579 30.1257 79.246C30.0302 79.209 29.9317 79.1819 29.8294 79.1739C29.7949 79.1961 29.7265 79.2404 29.6927 79.2626ZM29.3951 80.667C29.4161 80.8777 29.6428 80.9984 29.838 80.9762C30 80.9885 30.1281 80.8801 30.2526 80.7945C30.1041 80.5869 29.928 80.4003 29.7795 80.1927C29.5941 80.2857 29.3908 80.4366 29.3951 80.667Z" fill="#171717"></path><path d="M32.2125 78.792C32.5957 78.7957 32.9782 78.7889 33.3613 78.7945C33.6206 78.7957 33.8707 78.9626 33.9699 79.2022C34.0506 79.4585 34.0118 79.7738 33.7863 79.9469C33.8892 80.0067 33.9779 80.0868 34.0493 80.1822C34.1393 80.3763 34.1448 80.6023 34.0863 80.8062C33.9785 81.0883 33.7093 81.2645 33.4186 81.3125C33.0164 81.3156 32.6148 81.3131 32.2125 81.3138C32.2125 80.4736 32.2125 79.6328 32.2125 78.792ZM32.5957 79.1831C32.5957 79.3882 32.5957 79.5934 32.5957 79.7991C32.8716 79.7954 33.1488 79.8133 33.4235 79.7788C33.4987 79.7209 33.5658 79.6531 33.6243 79.578C33.6157 79.4696 33.5898 79.3642 33.5461 79.2644C33.4814 79.241 33.4174 79.2152 33.3545 79.1881C33.1014 79.1788 32.8482 79.1844 32.5957 79.1831ZM32.5957 80.9195C32.8507 80.9146 33.1063 80.9263 33.3619 80.9146C33.5276 80.9078 33.7044 80.797 33.7229 80.6196C33.7795 80.4231 33.6163 80.2346 33.4247 80.2124C33.1506 80.1711 32.8716 80.205 32.5957 80.1939C32.5957 80.4354 32.5957 80.6775 32.5957 80.9195Z" fill="#171717"></path><path d="M43.7198 78.792C43.8313 78.792 43.9434 78.792 44.0555 78.792C44.0555 79.6328 44.0555 80.473 44.0561 81.3131C43.9477 81.3131 43.8393 81.3131 43.7321 81.3144C43.7284 81.2614 43.7216 81.1567 43.7179 81.1037C43.5418 81.3994 43.0977 81.448 42.8291 81.2515C42.6092 81.1166 42.5137 80.8629 42.4521 80.6251C42.4275 80.2678 42.4731 79.8619 42.7416 79.5989C42.996 79.3322 43.4832 79.3365 43.7222 79.6229C43.7167 79.3457 43.721 79.0692 43.7198 78.792ZM42.9301 79.9716C42.7737 80.2309 42.7804 80.5801 42.9443 80.8345C43.1087 81.039 43.4925 81.0304 43.6243 80.792C43.7444 80.5918 43.7407 80.3473 43.7025 80.1249C43.6545 80.0245 43.5917 79.9334 43.5171 79.8515C43.3225 79.7535 43.0595 79.7849 42.9301 79.9716Z" fill="#171717"></path><path d="M51.813 78.7994C52.1696 78.7877 52.5269 78.7932 52.8841 78.7938C53.266 78.7914 53.6184 79.0562 53.7545 79.4086C53.9411 79.8829 53.8918 80.4434 53.6393 80.885C53.5487 81.0064 53.4391 81.1111 53.3153 81.198C52.9685 81.3741 52.5749 81.2984 52.2022 81.3144C52.0686 81.3057 51.9226 81.3439 51.8031 81.27C51.8277 80.4471 51.8086 79.6229 51.813 78.7994ZM52.2189 80.9189C52.4911 80.9066 52.7708 80.9503 53.0387 80.8844C53.2654 80.8124 53.3732 80.582 53.436 80.3701C53.4804 80.149 53.4742 79.9217 53.4366 79.7005C53.3738 79.5466 53.311 79.3839 53.1773 79.2768C53.0972 79.2484 53.0178 79.2201 52.9408 79.1868C52.6999 79.1801 52.4597 79.1837 52.2195 79.1831C52.2189 79.7615 52.2195 80.3399 52.2189 80.9189Z" fill="#171717"></path><path d="M59.9456 78.7951C60.0663 78.7932 60.1864 78.7926 60.3077 78.792C60.3077 79.6328 60.3077 80.4736 60.3077 81.3144C60.187 81.3138 60.0669 81.3138 59.9474 81.3131C59.9462 80.4736 59.9493 79.6346 59.9456 78.7951Z" fill="#171717"></path><path d="M73.8843 78.8396C73.9625 78.8132 74.0408 78.7848 74.1184 78.7522C74.3081 78.7306 74.5003 78.7319 74.6906 78.7553C75.0965 78.8538 75.3916 79.2135 75.4137 79.6305C75.285 79.6305 75.1569 79.6299 75.0294 79.6262C75.0004 79.5449 74.9709 79.4655 74.9438 79.3848C74.7922 79.1563 74.5027 79.1057 74.2483 79.1255C74.0309 79.1747 73.8486 79.3127 73.7346 79.503C73.6201 79.8178 73.6182 80.1751 73.7118 80.4954C73.8708 81.0011 74.7042 81.0935 74.9395 80.6087C74.998 80.5089 75.0232 80.3956 75.0411 80.2822C75.1828 80.2785 75.325 80.281 75.4673 80.289C75.3712 80.4904 75.3626 80.7282 75.2203 80.9111C74.9684 81.3158 74.4288 81.4612 73.9872 81.3171C73.6194 81.1945 73.3626 80.8612 73.2868 80.4874C73.1316 79.8917 73.2893 79.1316 73.8843 78.8396Z" fill="#171717"></path><path d="M48.3057 78.967C48.4258 78.9639 48.5472 78.9627 48.6685 78.9614C48.6685 79.1099 48.6685 79.2583 48.6685 79.4074C48.764 79.4086 48.8607 79.4098 48.9574 79.4111C48.9568 79.5398 48.9568 79.6692 48.9574 79.7991C48.8607 79.7998 48.764 79.801 48.6685 79.8022C48.6691 80.1693 48.6685 80.5365 48.6685 80.9036C48.764 80.9128 48.8594 80.919 48.9562 80.9251C48.9562 81.0378 48.958 81.1506 48.9623 81.2639C48.7942 81.3495 48.6014 81.32 48.4344 81.2504C48.3654 81.1352 48.3051 81.0101 48.3082 80.8728C48.3032 80.5155 48.3082 80.1576 48.3069 79.8004C48.2336 79.7998 48.1609 79.7998 48.0883 79.7998C48.0883 79.6698 48.0883 79.5398 48.0883 79.4098C48.1609 79.4092 48.2336 79.4098 48.3069 79.4098C48.3063 79.262 48.3063 79.1148 48.3057 78.967Z" fill="#171717"></path><path d="M71.5849 78.9635C71.705 78.9629 71.8257 78.9629 71.9471 78.9629C71.9465 79.1107 71.9465 79.2592 71.9465 79.4076C72.0407 79.4089 72.1368 79.4107 72.2323 79.4125C72.2323 79.5401 72.2335 79.6676 72.2378 79.7957C72.1399 79.7988 72.0419 79.8012 71.9465 79.8031C71.9477 80.1708 71.9458 80.5385 71.9477 80.9063C72.0419 80.9137 72.1362 80.9192 72.2323 80.9247C72.2323 81.0375 72.2329 81.1508 72.2366 81.2635C71.9982 81.3916 71.6212 81.3054 71.5966 80.9962C71.5701 80.5995 71.591 80.201 71.5867 79.8037C71.503 79.8 71.421 79.7957 71.3397 79.7914C71.3397 79.6669 71.3397 79.5425 71.3397 79.4181C71.421 79.4138 71.503 79.4101 71.5855 79.407C71.5849 79.2592 71.5849 79.1113 71.5849 78.9635Z" fill="#171717"></path><path d="M13.5832 79.4082C13.7107 79.4094 13.8376 79.4119 13.9644 79.4174C13.9589 79.641 13.9712 79.8646 13.9583 80.0882L13.8905 80.1277C14.0377 80.2083 13.9404 80.4375 13.9571 80.5804L13.8948 80.6186C13.9977 80.6629 13.9607 80.7929 13.9854 80.8797C14.1197 80.9955 14.2964 80.9857 14.4603 80.9543C14.5287 80.8945 14.5915 80.8292 14.6457 80.7566C14.7387 80.3137 14.6857 79.8591 14.6999 79.4101C14.8059 79.4101 14.9118 79.4094 15.0184 79.4088C15.0387 79.4341 15.08 79.4846 15.1009 79.5098C14.9765 79.6651 15.0756 79.9071 15.0405 80.0969H15.0744C15.0701 80.2404 15.0701 80.3839 15.0744 80.528H15.0412C15.043 80.6506 15.043 80.7732 15.0412 80.8958L15.0744 80.8995C15.0744 80.9444 15.0744 81.035 15.0744 81.0799L15.0208 81.0966C15.0399 81.1366 15.0781 81.2173 15.0978 81.2573C14.9839 81.3312 14.8471 81.3152 14.719 81.3171C14.7122 81.2475 14.7067 81.1785 14.7018 81.1089C14.5077 81.4458 13.9484 81.4551 13.7076 81.1594C13.5807 80.9875 13.5893 80.7633 13.5832 80.5607C13.5825 80.1769 13.5832 79.7926 13.5832 79.4082Z" fill="#171717"></path><path d="M15.4754 80.0348C15.5481 79.6658 15.9115 79.3486 16.2983 79.4145C16.4529 79.4225 16.5767 79.5266 16.6888 79.6233C16.6888 79.5833 16.6888 79.5038 16.6888 79.4638C16.8071 79.4662 16.9254 79.4693 17.0436 79.4761C17.0344 79.76 17.0535 80.0452 17.035 80.3292L16.9814 80.3742L17.0344 80.4191C17.0467 80.8361 17.064 81.2722 16.9254 81.6708C16.663 82.1315 15.9521 82.1605 15.5967 81.797C15.5358 81.6603 15.4963 81.5162 15.4698 81.3696C15.598 81.3702 15.7261 81.3714 15.8536 81.388C15.869 81.7003 16.2638 81.6905 16.4782 81.6049C16.6673 81.534 16.658 81.3117 16.6833 81.146C16.6248 81.2106 16.5589 81.2667 16.4905 81.3197C16.1493 81.4466 15.7113 81.3326 15.5394 80.9951C15.4046 80.6969 15.4132 80.3501 15.4754 80.0348ZM15.8444 80.0674C15.7945 80.2867 15.7957 80.5201 15.8419 80.7394C15.9275 80.9636 16.2207 81.0425 16.4215 80.9267C16.6476 80.822 16.6968 80.5392 16.6882 80.3156C16.6895 80.0951 16.5724 79.8777 16.3611 79.7964C16.1536 79.7699 15.9158 79.8537 15.8444 80.0674Z" fill="#171717"></path><path d="M17.6178 79.6589C17.7866 79.4883 18.0225 79.3885 18.264 79.4082C18.5436 79.4015 18.9144 79.524 18.9446 79.8486C18.9668 80.2225 18.9458 80.5989 18.9545 80.974C19.0013 80.9746 19.0955 80.9765 19.1423 80.9777C19.1429 81.0935 19.1436 81.2093 19.146 81.3257C18.9514 81.4231 18.668 81.3725 18.6298 81.1268C18.3699 81.335 17.9837 81.4723 17.6794 81.2752C17.4349 81.1286 17.3856 80.812 17.4589 80.5564C17.6283 80.1702 18.1057 80.1924 18.4574 80.1388C18.6717 80.1449 18.6249 79.8382 18.4432 79.8259C18.3194 79.7914 18.19 79.8006 18.0631 79.7981C17.9258 79.861 17.8617 79.9952 17.8463 80.1394C17.7404 80.1394 17.6351 80.1388 17.5297 80.1381C17.5365 79.9749 17.547 79.8086 17.6178 79.6589ZM17.996 80.5354C17.8636 80.5952 17.7139 80.7707 17.8605 80.8989C18.1555 81.1237 18.6785 80.8533 18.6034 80.4597C18.5411 80.4652 18.4161 80.4763 18.3533 80.4819L18.3557 80.5157C18.2356 80.5225 18.1161 80.5324 17.996 80.5354Z" fill="#171717"></path><path d="M20.6139 79.883C20.7789 79.4907 21.252 79.3096 21.6481 79.4469C21.7399 79.4981 21.8279 79.5566 21.9092 79.6243C21.9265 79.6539 21.9622 79.713 21.9795 79.7426C22.0331 79.8886 22.0645 80.0407 22.0916 80.1935C21.9758 80.1935 21.8606 80.1941 21.7454 80.1941C21.7109 80.0278 21.6351 79.8658 21.4738 79.7907C21.3407 79.7913 21.2101 79.8122 21.0869 79.8633C20.8713 80.1159 20.8375 80.4996 20.981 80.7947C21.0703 80.9869 21.329 81.0158 21.5058 80.9388C21.6444 80.8692 21.6986 80.7164 21.7522 80.5822C21.8698 80.584 21.9869 80.5852 22.1045 80.5896C22.0645 80.7269 22.0214 80.8637 21.9819 81.001C21.7707 81.3737 21.2471 81.4735 20.8898 81.2567C20.7974 81.1797 20.7174 81.0897 20.6453 80.9936C20.5979 80.8735 20.5584 80.7509 20.5202 80.6277C20.5172 80.4793 20.5178 80.3315 20.5239 80.1836C20.5566 80.0839 20.5837 79.9828 20.6139 79.883Z" fill="#171717"></path><path d="M22.6305 79.577C22.9755 79.3153 23.5397 79.3411 23.8292 79.6768C23.9247 80.1012 23.8576 80.541 23.8785 80.9722C23.9259 80.9734 24.0208 80.9759 24.0688 80.9771C24.0688 81.0917 24.0701 81.2069 24.0725 81.3215C23.8828 81.4169 23.5939 81.38 23.5576 81.133C23.3303 81.2796 23.0617 81.4305 22.7815 81.3492C22.6367 81.3208 22.5277 81.2186 22.4297 81.1163C22.3521 80.9593 22.3466 80.7849 22.3601 80.6143C22.4396 80.3686 22.6774 80.225 22.9237 80.1961C23.1215 80.1493 23.3457 80.1905 23.5225 80.0778C23.5255 79.9947 23.5028 79.9183 23.4535 79.8487C23.3032 79.8031 23.1473 79.7914 22.9909 79.7963C22.8504 79.8567 22.7876 79.9928 22.7691 80.1382C22.6644 80.1376 22.5603 80.1376 22.4562 80.1376C22.4655 79.9423 22.4575 79.7089 22.6305 79.577ZM22.9244 80.5349C22.7839 80.5878 22.6367 80.7726 22.7876 80.8989C23.0808 81.1213 23.6013 80.8509 23.5299 80.4591C23.4676 80.464 23.3432 80.4745 23.281 80.48L23.2829 80.5145C23.1634 80.5207 23.0439 80.5306 22.9244 80.5349Z" fill="#171717"></path><path d="M26.8239 79.4465C27.0044 79.3954 27.1947 79.3997 27.3758 79.4459C27.512 79.5155 27.6783 79.5814 27.7343 79.7378C27.7781 79.861 27.8341 79.9793 27.8871 80.0994C27.913 80.2405 27.9012 80.3858 27.9099 80.5287C27.4879 80.5294 27.066 80.53 26.6447 80.5287C26.6607 80.6291 26.6755 80.7332 26.7297 80.8226C26.9028 81.0351 27.2797 81.0338 27.4479 80.8152C27.4929 80.7517 27.5237 80.6772 27.5822 80.6236L27.5883 80.602C27.653 80.602 27.7824 80.602 27.8464 80.602L27.836 80.6593L27.9086 80.6365C27.8926 80.6914 27.8766 80.7462 27.8612 80.801C27.7534 81.1964 27.3395 81.4225 26.9447 81.3689C26.8806 81.3461 26.8147 81.3283 26.7488 81.3116C26.4913 81.1946 26.325 80.947 26.2646 80.6766C26.1747 80.2066 26.3385 79.6282 26.8239 79.4465ZM26.6416 80.1364C26.9391 80.1413 27.2372 80.1394 27.5347 80.1382C27.4732 79.6762 26.7278 79.6947 26.6416 80.1364Z" fill="#171717"></path><path d="M35.6163 79.4082C35.7611 79.4082 35.9052 79.4101 36.05 79.4181C35.9748 79.5228 35.928 79.6429 35.8929 79.7655C35.8701 79.8258 35.8492 79.8874 35.8307 79.949C35.8024 80.0279 35.7759 80.1067 35.7475 80.1849C35.5837 80.6364 35.4334 81.0941 35.2424 81.5351C35.1698 81.7107 35.1063 81.9281 34.9104 82.002C34.7768 82.0679 34.6265 82.0378 34.486 82.0137C34.4867 81.8844 34.4873 81.7557 34.4873 81.6269C34.6006 81.6392 34.7152 81.6472 34.8297 81.6362C34.8747 81.524 34.9246 81.4132 34.9714 81.3017C34.8427 80.9506 34.7164 80.5982 34.6018 80.2422C34.5704 80.1646 34.5421 80.0864 34.5144 80.0075C34.4497 79.8061 34.3715 79.6096 34.3037 79.4101C34.4411 79.4094 34.5784 79.4094 34.7158 79.4113C34.847 79.8184 34.9831 80.2244 35.1174 80.6303C35.1396 80.6457 35.1839 80.6752 35.2067 80.6906C35.2252 80.6069 35.248 80.5249 35.2751 80.4436C35.389 80.0987 35.5042 79.7544 35.6163 79.4082Z" fill="#171717"></path><path d="M38.2679 79.4091C38.603 79.3734 38.9153 79.6302 39.0126 79.9413C39.0847 80.2936 39.0933 80.6897 38.9122 81.0124C38.7348 81.313 38.343 81.4473 38.0178 81.3217C37.9421 81.2742 37.8768 81.2169 37.8213 81.1486C37.8182 81.4276 37.8182 81.7073 37.8189 81.9869C37.6975 81.9863 37.5768 81.9863 37.4561 81.9869C37.4561 81.1461 37.4561 80.3059 37.4561 79.4658C37.5737 79.4651 37.6914 79.4651 37.8096 79.4645C37.8121 79.5064 37.817 79.5902 37.8195 79.6321C37.9421 79.515 38.0911 79.4091 38.2679 79.4091ZM38.1441 79.7971C37.9223 79.8618 37.8145 80.0928 37.8152 80.309C37.8176 80.4741 37.7837 80.6644 37.8965 80.803C38.0579 81.074 38.5266 81.0229 38.6319 80.726C38.7484 80.4137 38.744 79.9093 38.3554 79.7971C38.2845 79.7984 38.2137 79.7978 38.1441 79.7971Z" fill="#171717"></path><path d="M41.0559 79.4459C41.4242 79.3331 41.8579 79.4606 42.0642 79.7957C42.2404 80.153 42.217 80.5829 42.0605 80.9433C41.8191 81.4262 41.0922 81.518 40.73 81.1231C40.4356 80.7825 40.4541 80.2713 40.6013 79.8696C40.7011 79.6799 40.8668 79.5407 41.0559 79.4459ZM40.9204 80.0637C40.8674 80.3322 40.8138 80.6753 41.0306 80.8872C41.2499 81.0498 41.6663 81.0141 41.7489 80.7148C41.8801 80.4025 41.8511 79.9436 41.4914 79.8013C41.3848 79.7994 41.2783 79.8007 41.1729 79.8148C41.0565 79.8616 40.9838 79.962 40.9204 80.0637Z" fill="#171717"></path><path d="M44.5226 79.4082C44.647 79.4088 44.7721 79.4101 44.8971 79.4125C44.9014 79.8985 44.8774 80.3851 44.9125 80.8705C45.1361 81.0732 45.5303 80.9795 45.6098 80.6802C45.6646 80.2589 45.6239 79.8326 45.6363 79.4088C45.757 79.4094 45.879 79.4101 46.0003 79.4113C45.9991 80.0457 46.0003 80.6796 45.9997 81.314C45.8845 81.314 45.7693 81.3134 45.6547 81.3134C45.6492 81.2666 45.6387 81.1723 45.6338 81.1249C45.5543 81.274 45.3886 81.3158 45.2451 81.375C45.0665 81.3805 44.8872 81.346 44.7339 81.2524C44.6667 81.1705 44.6051 81.0842 44.5534 80.9925C44.4912 80.467 44.5361 79.9361 44.5226 79.4082Z" fill="#171717"></path><path d="M46.905 79.4472C47.1718 79.3764 47.4865 79.3862 47.704 79.5766C47.8721 79.7349 47.9054 79.9788 47.938 80.1962C47.8111 80.1962 47.6842 80.1962 47.5611 80.1673C47.5537 80.0613 47.5161 79.964 47.4674 79.8716C47.4335 79.8544 47.3664 79.8199 47.3331 79.8026C47.2032 79.7866 47.0775 79.8088 46.9568 79.855C46.8829 79.9344 46.8182 80.0225 46.7831 80.1266C46.7406 80.2917 46.7467 80.4629 46.7572 80.6317C46.8151 80.8036 46.9389 80.9921 47.1459 80.9767C47.3134 80.9976 47.4533 80.8886 47.5432 80.7586C47.5494 80.7167 47.5617 80.6323 47.5678 80.5904C47.6923 80.5861 47.8167 80.5843 47.9423 80.5843C47.906 80.8393 47.8198 81.1079 47.598 81.2618C47.4921 81.2976 47.3867 81.3339 47.2826 81.3727C46.894 81.4226 46.5299 81.1732 46.4117 80.8054C46.2835 80.3126 46.392 79.6745 46.905 79.4472Z" fill="#171717"></path><path d="M49.5519 79.4506C49.9098 79.3373 50.4007 79.4216 50.5356 79.8196C50.5522 79.9064 50.5639 79.9939 50.5725 80.082C50.458 80.082 50.3453 80.082 50.2319 80.0813C50.2134 79.9643 50.1642 79.8559 50.0459 79.8159C49.9221 79.798 49.797 79.798 49.6732 79.7974C49.6178 79.8442 49.563 79.8916 49.51 79.9397C49.5408 79.9865 49.5722 80.0333 49.6036 80.0801C49.8999 80.199 50.2516 80.1928 50.5073 80.401C50.7475 80.6665 50.612 81.1433 50.2929 81.2843C49.9523 81.4352 49.4989 81.4057 49.2396 81.1174C49.1706 80.9677 49.1306 80.8076 49.1219 80.6431C49.2316 80.6425 49.3412 80.6419 49.4515 80.6413C49.4743 80.7219 49.5008 80.8026 49.5273 80.8827C49.6923 80.9819 49.8944 81.0028 50.0804 80.9542C50.1863 80.9197 50.3218 80.815 50.2418 80.693C50.1414 80.5988 49.9849 80.5988 49.8605 80.5476C49.7958 80.5372 49.7311 80.5273 49.6677 80.5174C49.4965 80.4509 49.2907 80.3936 49.2106 80.2088C49.13 80.0653 49.1725 79.8984 49.215 79.7499C49.2913 79.6144 49.4115 79.5153 49.5519 79.4506Z" fill="#171717"></path><path d="M54.2407 79.9456C54.3983 79.5416 54.8628 79.305 55.281 79.4418C55.4221 79.5028 55.5564 79.581 55.6543 79.7029C55.6728 79.8385 55.7467 79.9549 55.7966 80.0805C55.8329 80.2265 55.8188 80.3799 55.8249 80.5296C55.3993 80.5302 54.9737 80.5253 54.5486 80.532C54.5819 80.6558 54.6072 80.7981 54.7143 80.8825C54.9527 81.0821 55.4024 80.9657 55.4529 80.6374C55.5748 80.6331 55.6974 80.6318 55.8206 80.6337C55.7707 80.9484 55.5662 81.2638 55.2379 81.3346C54.8437 81.472 54.3959 81.2441 54.2394 80.8653C54.1606 80.5678 54.1618 80.2431 54.2407 79.9456ZM54.5603 80.1366C54.8572 80.1403 55.1541 80.139 55.4516 80.1372C55.4252 79.8656 55.1295 79.7701 54.8954 79.7941C54.7402 79.8576 54.5985 79.9641 54.5603 80.1366Z" fill="#171717"></path><path d="M56.022 79.4243C56.1729 79.4089 56.325 79.4071 56.4772 79.4157C56.503 79.5124 56.5351 79.6072 56.5665 79.7027C56.5856 79.7643 56.6047 79.8265 56.6238 79.8887C56.6435 79.9503 56.6626 80.0119 56.6817 80.0748C56.7088 80.1536 56.7353 80.2331 56.7624 80.3131C56.8116 80.4788 56.8683 80.6421 56.9305 80.8041C57.0568 80.3359 57.2508 79.8887 57.3716 79.4194C57.5108 79.4095 57.6512 79.4089 57.7923 79.4101C57.7713 79.4613 57.751 79.513 57.7307 79.5647C57.621 79.8795 57.4947 80.1887 57.3845 80.5041C57.2872 80.7751 57.1781 81.0412 57.0888 81.3147C56.9706 81.3147 56.8529 81.3147 56.7359 81.3147C56.702 81.2069 56.6644 81.0997 56.6225 80.995C56.4716 80.5577 56.3016 80.1277 56.1544 79.6892C56.1211 79.5955 56.078 79.5056 56.022 79.4243Z" fill="#171717"></path><path d="M58.4847 79.4473C58.6652 79.398 58.8555 79.3974 59.0373 79.4442C59.1136 79.483 59.1931 79.5175 59.2652 79.5661C59.4376 79.6789 59.4284 79.9111 59.551 80.0632C59.5707 80.2172 59.5725 80.3731 59.5762 80.5289C59.1531 80.5301 58.7299 80.527 58.3067 80.5301C58.3301 80.6669 58.3615 80.8239 58.4878 80.9046C58.7268 81.0611 59.1253 80.9662 59.1931 80.6663C59.2122 80.6502 59.251 80.6182 59.2707 80.6022C59.3298 80.6022 59.4487 80.601 59.5085 80.601L59.5005 80.6582L59.5775 80.6342C59.5115 80.9428 59.3212 81.2637 58.9911 81.334C58.5919 81.4719 58.1515 81.2422 57.9827 80.8677C57.9636 80.7765 57.9495 80.6847 57.9402 80.5923L57.91 80.5874C57.9107 80.4661 57.9113 80.3447 57.9107 80.2234L57.9396 80.2147C57.9507 80.123 57.9661 80.0324 57.987 79.9425C58.0905 79.7238 58.2605 79.544 58.4847 79.4473ZM58.4761 79.8717C58.4059 79.9505 58.3468 80.038 58.3079 80.1359C58.6042 80.1414 58.9017 80.1378 59.1986 80.1384C59.1777 79.8735 58.8857 79.7632 58.6535 79.7977C58.5944 79.8236 58.5352 79.8482 58.4761 79.8717Z" fill="#171717"></path><path d="M61.1981 79.4455C61.4808 79.3728 61.8048 79.3974 62.0303 79.6001C62.2366 79.7467 62.3074 80.0078 62.3259 80.2481C62.3444 80.5548 62.2791 80.8844 62.074 81.1221C61.7414 81.4763 61.0934 81.4511 60.8119 81.0476C60.5846 80.7027 60.6049 80.245 60.7435 79.8699C60.8427 79.6801 61.009 79.5403 61.1981 79.4455ZM61.0657 80.0651C61.0466 80.1483 61.0262 80.2302 61.0053 80.3127C60.9825 80.4864 61.0225 80.6706 61.1143 80.8209C61.2406 81.0014 61.4993 81.0057 61.6909 80.9447C61.8547 80.885 61.888 80.7027 61.9471 80.5597C61.9982 80.2721 61.9409 79.9173 61.6336 79.8009C61.5258 79.799 61.4186 79.7984 61.3139 79.8194C61.1932 79.8569 61.1254 79.9616 61.0657 80.0651Z" fill="#171717"></path><path d="M63.0484 79.627C63.2467 79.4293 63.5627 79.3351 63.8226 79.4669C64.1109 79.5845 64.2735 79.8913 64.292 80.1913C64.3148 80.5183 64.2778 80.883 64.0542 81.1398C63.8239 81.3887 63.4272 81.4417 63.1414 81.2569C63.1223 81.2335 63.0841 81.1867 63.065 81.1626C63.0521 81.4374 63.0582 81.7127 63.0576 81.9874C62.9363 81.9874 62.8162 81.9874 62.6967 81.988C62.696 81.1472 62.6967 80.3071 62.696 79.4663C62.8143 79.4663 62.9326 79.4669 63.0521 79.4675C63.0515 79.5075 63.0496 79.587 63.0484 79.627ZM63.2165 79.866C62.9979 80.1481 62.9954 80.5627 63.1568 80.8719C63.3718 81.0351 63.7444 81.0203 63.8602 80.745C63.9803 80.461 63.9797 80.0718 63.729 79.8562C63.5633 79.7767 63.3798 79.7921 63.2165 79.866Z" fill="#171717"></path><path d="M65.1752 79.5566C65.4407 79.3503 65.8694 79.3398 66.0665 79.6466C66.2544 79.4359 66.5402 79.3614 66.8124 79.4279C67.0403 79.5295 67.1703 79.7605 67.1654 80.0075C67.1814 80.1276 67.1851 80.2508 67.1605 80.3703C67.1531 80.5138 67.1481 80.6586 67.1789 80.7996C67.1814 80.8853 67.1722 80.9697 67.1518 81.0522C67.1882 81.1341 67.206 81.245 67.1278 81.3097C67.0219 81.3189 66.9159 81.3164 66.8112 81.3201C66.7576 80.8686 66.8143 80.4122 66.7804 79.9595C66.7705 79.8757 66.6923 79.8357 66.6307 79.795C66.5574 79.7981 66.4854 79.7999 66.4139 79.7999C66.3012 79.8504 66.2162 79.9398 66.1595 80.0482C66.1299 80.4695 66.1515 80.892 66.1453 81.314C66.0221 81.314 65.9002 81.314 65.7788 81.3146C65.7622 80.8397 65.8115 80.3586 65.7517 79.888C65.7339 79.8714 65.6988 79.8375 65.6809 79.8209C65.5971 79.8086 65.5134 79.7993 65.4308 79.7925C65.254 79.8541 65.153 80.0026 65.1148 80.1806C65.1124 80.5588 65.1142 80.937 65.1136 81.3152C64.991 81.314 64.8691 81.3134 64.7477 81.3127C64.7453 80.7073 64.7526 80.1018 64.744 79.4963C64.7606 79.479 64.7933 79.4439 64.8099 79.426C64.9072 79.4285 65.0046 79.4304 65.1031 79.431C65.1093 79.487 65.1216 79.5997 65.1278 79.6558C65.1395 79.6312 65.1635 79.5819 65.1752 79.5566Z" fill="#171717"></path><path d="M67.673 79.8247C67.814 79.5993 68.0536 79.4157 68.3284 79.4095C68.5883 79.3831 68.8495 79.4976 69.0213 79.6923C69.0441 79.8266 69.1137 79.9448 69.1648 80.0699C69.2061 80.2183 69.1907 80.3754 69.1963 80.5281C68.7694 80.53 68.3431 80.5238 67.9175 80.5324C67.9606 80.6513 67.9766 80.7967 68.0844 80.8805C68.3191 81.08 68.7792 80.9673 68.8217 80.6378C68.9437 80.6322 69.0663 80.631 69.1901 80.631C69.1488 80.9519 68.9314 81.2654 68.6025 81.3357C68.2107 81.4687 67.7629 81.2396 67.6114 80.8626C67.5258 80.6014 67.5541 80.323 67.5744 80.0545C67.6089 79.9787 67.6409 79.9017 67.673 79.8247ZM67.928 80.1358C68.2267 80.1388 68.5261 80.1395 68.8261 80.1358C68.7965 80.0267 68.746 79.9226 68.6548 79.8543C68.5279 79.8105 68.3967 79.7902 68.2637 79.7933C68.106 79.8549 67.976 79.9682 67.928 80.1358Z" fill="#171717"></path><path d="M76.1728 79.522C76.5541 79.283 77.1054 79.4278 77.3296 79.817C77.3561 79.8971 77.3838 79.9778 77.4158 80.0573C77.4343 80.2673 77.4312 80.478 77.4109 80.688C77.3752 80.7656 77.345 80.8445 77.3154 80.9239C77.106 81.4025 76.4124 81.5128 76.033 81.1771C75.8069 80.9781 75.7324 80.6609 75.7484 80.3708C75.7453 80.0443 75.8796 79.692 76.1728 79.522ZM76.3367 79.8546C76.1008 80.0542 76.086 80.3991 76.15 80.6794C76.2393 81.0539 76.8664 81.0964 76.9914 80.7299C77.0838 80.4958 77.0986 80.2131 76.9797 79.9858C76.8418 79.7739 76.5498 79.7628 76.3367 79.8546Z" fill="#171717"></path><path d="M79.4668 79.426C79.6855 79.3934 79.9467 79.3872 80.105 79.5714C80.275 79.7543 80.2645 80.0161 80.2608 80.2489C80.259 80.6037 80.2602 80.9591 80.2602 81.3146C80.1351 81.3146 80.0107 81.3146 79.8875 81.3146C79.8857 80.8963 79.8894 80.4781 79.8869 80.0598C79.8931 79.9828 79.8635 79.9126 79.8321 79.8455C79.7354 79.8134 79.6337 79.7974 79.534 79.7919C79.4336 79.8424 79.3368 79.9015 79.2685 79.9921C79.2426 80.4159 79.2481 80.8415 79.2623 81.2653C79.1404 81.3386 78.9975 81.3121 78.8644 81.3139C78.849 80.8316 78.897 80.345 78.8355 79.8652C78.8016 79.8486 78.7338 79.8153 78.6999 79.7993C78.6476 79.7993 78.5423 79.8005 78.4899 79.8011C78.3199 79.8843 78.2072 80.0537 78.2152 80.2459C78.2059 80.6019 78.2152 80.9585 78.2121 81.3146C78.0908 81.3146 77.97 81.3146 77.8499 81.3146C77.8518 80.6869 77.8456 80.0586 77.8536 79.4303C77.9706 79.4309 78.0889 79.4309 78.2078 79.4309C78.2096 79.4821 78.2127 79.5831 78.2139 79.6342C78.4264 79.3558 78.9309 79.3028 79.1243 79.6287C79.2543 79.5923 79.3504 79.4907 79.4668 79.426Z" fill="#171717"></path><path d="M81.133 79.557C81.332 79.4085 81.5882 79.3704 81.8248 79.4461C82.0065 79.5478 82.1654 79.6907 82.2467 79.8872C82.3323 80.1662 82.304 80.4637 82.2787 80.7501C82.2436 80.8265 82.2135 80.9053 82.1839 80.9836C82.0656 81.1838 81.8661 81.3137 81.6462 81.3753C81.4373 81.3704 81.1879 81.3408 81.0659 81.1462C81.0665 81.4265 81.0641 81.7073 81.0659 81.9876C80.9446 81.987 80.8245 81.987 80.705 81.987C80.705 81.1474 80.7056 80.3079 80.705 79.4683C80.8208 79.4664 80.9378 79.4658 81.0554 79.464C81.0604 79.5102 81.0702 79.602 81.0752 79.6482C81.0893 79.6254 81.1183 79.5798 81.133 79.557ZM81.2618 79.852C81.1768 79.9266 81.1257 80.0264 81.0893 80.1298C81.053 80.3411 81.0259 80.5758 81.1244 80.7741C81.2482 81.0193 81.6332 81.0532 81.8051 80.8431C81.9763 80.6528 81.9535 80.3682 81.9203 80.1329C81.8944 79.9611 81.7478 79.8527 81.5969 79.7923C81.4805 79.7923 81.3708 79.8212 81.2618 79.852Z" fill="#171717"></path><path d="M82.9477 79.5729C83.2915 79.3228 83.8508 79.3351 84.1335 79.6727C84.1483 79.7201 84.1655 79.7675 84.1846 79.8143C84.1988 80.1999 84.1871 80.5868 84.192 80.973C84.2388 80.9736 84.3331 80.9748 84.3799 80.976C84.3799 81.0931 84.3799 81.2113 84.3836 81.329C84.1778 81.4245 83.8976 81.3641 83.8618 81.1097C83.807 81.1627 83.7473 81.2107 83.6888 81.2575C83.3795 81.4214 82.9662 81.4165 82.7426 81.1165C82.612 80.8492 82.6348 80.4482 82.9287 80.3003C83.2028 80.1309 83.5502 80.2184 83.8329 80.0841C83.8649 79.956 83.7867 79.8642 83.6771 79.8149C83.5495 79.7971 83.4214 79.7977 83.2945 79.7971C83.1603 79.8618 83.1042 80.0004 83.082 80.1389C82.9748 80.1383 82.8683 80.1377 82.763 80.1371C82.7753 79.94 82.7771 79.7072 82.9477 79.5729ZM83.2255 80.5356C83.0993 80.6022 82.944 80.7697 83.098 80.8966C83.3906 81.122 83.9204 80.8522 83.8391 80.4574C83.775 80.4636 83.6481 80.4759 83.5847 80.4814L83.5859 80.5147C83.4645 80.5221 83.3457 80.5313 83.2255 80.5356Z" fill="#171717"></path><path d="M85.058 79.6373C85.1991 79.5012 85.3796 79.3885 85.5847 79.4088C85.8871 79.3749 86.1736 79.6293 86.1785 79.9336C86.2007 80.3931 86.1809 80.8545 86.1877 81.3152C86.0602 81.3152 85.929 81.3288 85.8101 81.2776C85.8194 80.8526 85.8255 80.4264 85.8083 80.002C85.7929 79.7938 85.5428 79.7888 85.3864 79.7969C85.2237 79.864 85.079 79.997 85.0697 80.1837C85.0537 80.56 85.0679 80.9376 85.063 81.314C84.9404 81.314 84.8184 81.314 84.6977 81.3134C84.6989 80.6857 84.6952 80.058 84.6995 79.4297C84.8147 79.4304 84.9305 79.4304 85.0482 79.431C85.0506 79.4821 85.0556 79.5856 85.058 79.6373Z" fill="#171717"></path><path d="M20.1026 79.4212C20.1931 79.415 20.2837 79.4095 20.3749 79.4058C20.3749 79.5542 20.3749 79.702 20.3755 79.8505C20.2387 79.8468 20.1044 79.8634 19.9782 79.917C19.903 80.01 19.8143 80.1104 19.8236 80.2392C19.818 80.597 19.8236 80.9549 19.8217 81.3128C19.6998 81.3134 19.5778 81.3134 19.4565 81.314C19.4565 80.6968 19.4558 80.0802 19.4565 79.4637C19.5784 79.4643 19.7004 79.4667 19.8223 79.4704C19.8143 79.5296 19.7977 79.6478 19.7891 79.707C19.8722 79.5906 19.9936 79.5111 20.1026 79.4212Z" fill="#171717"></path><path d="M24.3877 79.4308C24.4863 79.4301 24.5842 79.4289 24.6828 79.4265C24.6982 79.4443 24.7284 79.48 24.7432 79.4979C24.7481 79.5312 24.7567 79.5983 24.761 79.6322C24.9446 79.4012 25.2636 79.3704 25.5328 79.4388C25.7232 79.5349 25.8574 79.7246 25.8661 79.9402C25.8852 80.3978 25.8691 80.8561 25.8741 81.3144C25.7515 81.3138 25.6289 81.3132 25.5063 81.3125C25.5051 80.9177 25.5088 80.5223 25.5051 80.1274C25.51 80.0301 25.4817 79.9371 25.4275 79.857C25.3961 79.8428 25.3339 79.8145 25.3031 79.8003C25.2476 79.7991 25.1361 79.7966 25.0801 79.7954C24.9902 79.8422 24.9039 79.8977 24.8257 79.9623C24.7924 80.0535 24.7499 80.1447 24.7542 80.2438C24.7499 80.6005 24.7549 80.9565 24.753 81.3132C24.6304 81.3132 24.5079 81.3138 24.3853 81.3138C24.3871 80.6861 24.3822 80.0584 24.3877 79.4308Z" fill="#171717"></path><path d="M39.7778 79.6884C39.9127 79.5116 40.1098 79.3743 40.3439 79.4007C40.3451 79.5517 40.3451 79.7032 40.3458 79.8547C40.2509 79.8559 40.1567 79.8572 40.063 79.8578C39.917 79.9366 39.7908 80.074 39.7932 80.2495C39.7871 80.6043 39.7938 80.9598 39.7914 81.3145C39.67 81.3139 39.5493 81.3139 39.4292 81.3139C39.4292 80.698 39.4292 80.082 39.4292 79.4654C39.5468 79.4654 39.6645 79.4654 39.7828 79.466C39.7815 79.5215 39.7791 79.633 39.7778 79.6884Z" fill="#171717"></path><path d="M69.5943 81.3152C69.5961 80.6869 69.59 80.0586 69.598 79.4303C69.7045 79.4309 69.8123 79.4309 69.9208 79.4303C69.922 79.4623 69.9238 79.527 69.9251 79.5597C69.9706 79.556 70.0168 79.5523 70.0637 79.5486C70.2491 79.3804 70.5145 79.3903 70.7443 79.4402C70.9334 79.5375 71.0664 79.7278 71.0751 79.9434C71.0954 80.3998 71.0775 80.8575 71.0837 81.3146C70.9605 81.3146 70.8373 81.3139 70.7153 81.3139C70.7141 80.9179 70.7184 80.5218 70.7147 80.1257C70.7203 80.0309 70.6852 79.9446 70.6414 79.8633C70.6094 79.8473 70.5453 79.8153 70.5133 79.7999C70.4591 79.7999 70.3501 79.8005 70.2953 79.8005C70.2632 79.8141 70.1986 79.8405 70.1665 79.8541C70.0612 79.9317 69.9645 80.0401 69.9682 80.1793C69.9546 80.5569 69.9669 80.9357 69.9633 81.3133C69.8394 81.3139 69.7163 81.3146 69.5943 81.3152Z" fill="#171717"></path><path d="M86.4537 79.4119C86.588 79.4094 86.7241 79.4088 86.8597 79.4088C86.904 79.5468 86.9514 79.6842 87.0001 79.8215C87.0186 79.8831 87.0377 79.9453 87.0568 80.0075C87.0765 80.0691 87.0962 80.1307 87.1171 80.1929C87.1368 80.2533 87.1566 80.3137 87.1769 80.3753C87.2021 80.4553 87.2286 80.536 87.2582 80.6161C87.2699 80.6525 87.2945 80.7251 87.3068 80.7615C87.4467 80.411 87.5452 80.0451 87.6746 79.6903C87.7035 79.6022 87.7195 79.5105 87.7399 79.4199C87.8822 79.4094 88.0245 79.4082 88.168 79.4082C88.0374 79.7685 87.9093 80.1295 87.7824 80.4911C87.7503 80.5964 87.714 80.7005 87.6746 80.8034C87.6518 80.8625 87.6302 80.9216 87.6093 80.9814C87.4941 81.274 87.3919 81.5746 87.2409 81.8517C87.1264 82.0415 86.8812 82.0501 86.6853 82.0458C86.6669 82.015 86.6299 81.954 86.6114 81.9232C86.6145 81.8228 86.6287 81.723 86.6478 81.6244C86.7439 81.6337 86.8424 81.6602 86.941 81.6392C87.0722 81.505 87.151 81.298 87.0555 81.1206C86.928 80.791 86.8258 80.4523 86.697 80.1233C86.6761 80.0617 86.657 80.0001 86.6404 79.9385C86.6083 79.8554 86.5763 79.7729 86.5406 79.6928C86.54 79.6792 86.5381 79.6515 86.5369 79.638C86.5166 79.5813 86.4747 79.4686 86.4537 79.4119Z" fill="#171717"></path><path d="M36.151 80.1394C36.4436 80.1376 36.7368 80.1388 37.03 80.1382C37.0294 80.2497 37.0294 80.3612 37.03 80.4727C36.7368 80.472 36.4442 80.4727 36.1516 80.472C36.151 80.3612 36.151 80.2503 36.151 80.1394Z" fill="#171717"></path></svg> 