<?xml version="1.0" encoding="UTF-8"?> <svg xmlns="http://www.w3.org/2000/svg" width="100" height="100" viewBox="0 0 100 100" fill="none"><mask id="mask0_9871_1101" style="mask-type:luminance" maskUnits="userSpaceOnUse" x="17" y="15" width="66" height="70"><path d="M17.09 15.3857H82.913V84.6137H17.09V15.3857Z" fill="white"></path></mask><g mask="url(#mask0_9871_1101)"><g style="mix-blend-mode:luminosity"><path d="M49.9999 81.0199C67.0144 81.0199 80.8084 67.2364 80.8084 50.2324C80.8084 33.2269 67.0144 19.4434 49.9999 19.4434C32.9854 19.4434 19.1914 33.2284 19.1914 50.2324C19.1914 67.2364 32.9854 81.0199 49.9999 81.0199Z" fill="black" stroke="black" stroke-width="0.0975" stroke-linecap="round"></path><path d="M22.682 64.3487C23.087 65.1287 23.525 65.8937 23.9945 66.6377C24.7145 66.1967 25.4435 65.6222 26.1905 64.8872C29.9765 68.2922 33.6695 69.0212 37.934 64.8872C41.786 68.2922 45.479 69.0212 49.658 64.8872C53.423 68.2922 57.1205 69.0212 61.385 64.8872C65.237 68.2922 68.93 69.0212 73.127 64.8872C74.0615 65.7272 74.9915 66.4052 75.926 66.8867C76.3355 66.2687 76.7225 65.6372 77.087 64.9922C77.1665 64.8347 77.243 64.6742 77.318 64.5137C75.911 64.0967 74.525 63.2087 73.127 61.9487C68.93 66.0827 65.237 65.3537 61.385 61.9487C57.1205 66.0827 53.4245 65.3537 49.658 61.9487C45.479 66.0827 41.786 65.3537 37.934 61.9487C33.6695 66.0827 29.9765 65.3537 26.1905 61.9487C24.9845 63.1367 23.8205 63.9122 22.6805 64.3487H22.682Z" fill="#585858"></path><path d="M20.561 59.2492C20.771 59.9707 21.008 60.6847 21.272 61.3897C21.3725 61.6207 21.476 61.8517 21.581 62.0797C23.0495 61.7827 24.551 60.9157 26.126 59.3647C29.9105 62.7712 33.605 63.4987 37.868 59.3647C41.7215 62.7712 45.4145 63.4987 49.592 59.3647C53.3585 62.7712 57.056 63.4987 61.319 59.3647C65.1725 62.7712 68.864 63.4987 73.061 59.3647C74.834 60.9607 76.586 61.9567 78.386 62.1547C78.776 61.2307 79.121 60.2887 79.418 59.3317L79.439 59.2447C77.264 59.3962 75.179 58.3327 73.061 56.4277C68.8655 60.5617 65.171 59.8327 61.319 56.4277C57.056 60.5617 53.3585 59.8327 49.592 56.4277C45.4145 60.5617 41.7215 59.8327 37.868 56.4277C33.605 60.5617 29.9105 59.8327 26.126 56.4277C24.185 58.3402 22.352 59.2042 20.561 59.2492ZM25.3655 68.4877C25.571 68.7877 25.781 69.0802 25.9955 69.3727C26.636 70.1752 27.314 70.9477 28.0295 71.6827C28.3325 71.9767 28.64 72.2647 28.955 72.5452C31.838 74.0812 34.76 73.7632 38.012 70.6102C41.864 74.0152 45.557 74.7442 49.736 70.6102C53.5025 74.0152 57.1985 74.7442 61.463 70.6102C65.276 73.9807 68.9345 74.7202 73.079 70.7272C73.286 70.5097 73.4915 70.2907 73.694 70.0672C74.0165 69.6622 74.3315 69.2497 74.6345 68.8282C74.1368 68.4703 73.6595 68.0847 73.205 67.6732C69.0095 71.8057 65.315 71.0782 61.463 67.6732C57.1985 71.8057 53.5025 71.0782 49.736 67.6732C45.5585 71.8057 41.864 71.0782 38.012 67.6732C33.7475 71.8057 30.0545 71.0782 26.27 67.6732C25.9655 67.9732 25.664 68.2372 25.3655 68.4877Z" fill="#585858"></path><path d="M81.215 47.3091C80.663 48.8976 78.842 49.2441 79.5815 52.0746C81.0545 50.6196 82.0025 50.0196 81.215 47.3091Z" fill="#C7C7C7" stroke="#616161" stroke-width="0.1065" stroke-miterlimit="2.613" stroke-linecap="round" stroke-linejoin="round"></path><path d="M80.8475 44.6025C80.4365 46.233 78.653 46.737 79.637 49.4925C80.9765 47.9145 81.869 47.235 80.8475 44.6025Z" fill="#C7C7C7" stroke="#616161" stroke-width="0.1065" stroke-miterlimit="2.613" stroke-linecap="round" stroke-linejoin="round"></path><path d="M80.243 41.9404C79.976 43.6009 78.2435 44.2579 79.463 46.9174C80.66 45.2299 81.4895 44.4724 80.243 41.9404Z" fill="#C7C7C7" stroke="#616161" stroke-width="0.1065" stroke-miterlimit="2.613" stroke-linecap="round" stroke-linejoin="round"></path><path d="M79.4195 39.3379C79.2995 41.0149 77.63 41.8204 79.076 44.3629C80.1215 42.5779 80.8805 41.7529 79.4195 39.3379Z" fill="#C7C7C7" stroke="#616161" stroke-width="0.1065" stroke-miterlimit="2.613" stroke-linecap="round" stroke-linejoin="round"></path><path d="M78.359 36.8135C78.3845 38.4935 76.7915 39.4415 78.455 41.8505C79.34 39.9785 80.027 39.0905 78.359 36.8135Z" fill="#C7C7C7" stroke="#616161" stroke-width="0.1065" stroke-miterlimit="2.613" stroke-linecap="round" stroke-linejoin="round"></path><path d="M77.096 34.394C77.2685 36.0665 75.764 37.1495 77.6315 39.404C78.3515 37.463 78.956 36.518 77.096 34.394Z" fill="#C7C7C7" stroke="#616161" stroke-width="0.1065" stroke-miterlimit="2.613" stroke-linecap="round" stroke-linejoin="round"></path><path d="M75.6125 32.0903C75.9305 33.7418 74.5265 34.9523 76.583 37.0343C77.1305 35.0393 77.651 34.0448 75.6125 32.0903Z" fill="#C7C7C7" stroke="#616161" stroke-width="0.1065" stroke-miterlimit="2.613" stroke-linecap="round" stroke-linejoin="round"></path><path d="M73.946 29.9297C74.4065 31.5467 73.1135 32.8742 75.344 34.7702C75.7145 32.7332 76.1465 31.6982 73.946 29.9297Z" fill="#C7C7C7" stroke="#616161" stroke-width="0.1065" stroke-miterlimit="2.613" stroke-linecap="round" stroke-linejoin="round"></path><path d="M72.095 27.9195C72.695 29.49 71.522 30.924 73.91 32.619C74.102 30.558 74.4425 29.49 72.095 27.9195Z" fill="#C7C7C7" stroke="#616161" stroke-width="0.1065" stroke-miterlimit="2.613" stroke-linecap="round" stroke-linejoin="round"></path><path d="M70.07 26.0796C70.8035 27.5931 69.761 29.1246 72.287 30.6036C72.2975 28.5336 72.545 27.4386 70.07 26.0796Z" fill="#C7C7C7" stroke="#616161" stroke-width="0.1065" stroke-miterlimit="2.613" stroke-linecap="round" stroke-linejoin="round"></path><path d="M67.8949 24.4185C68.7574 25.8615 67.8514 27.4785 70.4974 28.7325C70.3294 26.67 70.4794 25.5585 67.8949 24.4185Z" fill="#C7C7C7" stroke="#616161" stroke-width="0.1065" stroke-miterlimit="2.613" stroke-linecap="round" stroke-linejoin="round"></path><path d="M65.5895 22.9658C66.575 24.3293 65.8145 26.0183 68.5595 27.0368C68.2115 24.9968 68.2625 23.8763 65.5895 22.9658Z" fill="#C7C7C7" stroke="#616161" stroke-width="0.1065" stroke-miterlimit="2.613" stroke-linecap="round" stroke-linejoin="round"></path><path d="M63.1535 21.71C64.2545 22.982 63.644 24.731 66.467 25.508C65.942 23.5055 65.897 22.385 63.152 21.7115L63.1535 21.71Z" fill="#C7C7C7" stroke="#616161" stroke-width="0.1065" stroke-miterlimit="2.613" stroke-linecap="round" stroke-linejoin="round"></path><path d="M60.623 20.6724C61.8305 21.8424 61.376 23.6394 64.256 24.1674C63.5585 22.2174 63.4145 21.1059 60.623 20.6724Z" fill="#C7C7C7" stroke="#616161" stroke-width="0.1065" stroke-miterlimit="2.613" stroke-linecap="round" stroke-linejoin="round"></path><path d="M58.0175 19.8589C59.3225 20.9209 59.0255 22.7494 61.94 23.0239C61.076 21.1429 60.836 20.0464 58.0175 19.8589Z" fill="#C7C7C7" stroke="#616161" stroke-width="0.1065" stroke-miterlimit="2.613" stroke-linecap="round" stroke-linejoin="round"></path><path d="M55.3445 19.2728C56.7365 20.2163 56.6 22.0628 59.528 22.0823C58.502 20.2838 58.169 19.2143 55.3445 19.2728Z" fill="#C7C7C7" stroke="#616161" stroke-width="0.1065" stroke-miterlimit="2.613" stroke-linecap="round" stroke-linejoin="round"></path><path d="M52.631 18.9211C54.101 19.7386 54.125 21.5911 57.044 21.3556C55.865 19.6531 55.439 18.6166 52.631 18.9211Z" fill="#C7C7C7" stroke="#616161" stroke-width="0.1065" stroke-miterlimit="2.613" stroke-linecap="round" stroke-linejoin="round"></path><path d="M49.913 18.8142C51.449 19.5027 51.635 21.3447 54.5225 20.8557C53.1995 19.2627 52.6835 18.2652 49.913 18.8142Z" fill="#C7C7C7" stroke="#616161" stroke-width="0.1065" stroke-miterlimit="2.613" stroke-linecap="round" stroke-linejoin="round"></path><path d="M47.174 18.9365C48.764 19.487 49.1105 21.3065 51.944 20.5685C50.4875 19.097 49.886 18.149 47.174 18.9365Z" fill="#C7C7C7" stroke="#616161" stroke-width="0.1065" stroke-miterlimit="2.613" stroke-linecap="round" stroke-linejoin="round"></path><path d="M44.468 19.3038C46.1 19.7133 46.604 21.4968 49.361 20.5143C47.783 19.1748 47.102 18.2838 44.468 19.3038Z" fill="#C7C7C7" stroke="#616161" stroke-width="0.1065" stroke-miterlimit="2.613" stroke-linecap="round" stroke-linejoin="round"></path><path d="M41.804 19.9071C43.4645 20.1741 44.1215 21.9066 46.784 20.6871C45.0935 19.4901 44.339 18.6621 41.804 19.9071Z" fill="#C7C7C7" stroke="#616161" stroke-width="0.1065" stroke-miterlimit="2.613" stroke-linecap="round" stroke-linejoin="round"></path><path d="M39.2001 20.7303C40.8771 20.8503 41.6826 22.5198 44.2296 21.0738C42.4401 20.0283 41.6151 19.2693 39.2001 20.7303Z" fill="#C7C7C7" stroke="#616161" stroke-width="0.1065" stroke-miterlimit="2.613" stroke-linecap="round" stroke-linejoin="round"></path><path d="M36.6741 21.7911C38.3541 21.7656 39.3036 23.3571 41.7141 21.6951C39.8421 20.8101 38.9541 20.1246 36.6741 21.7911Z" fill="#C7C7C7" stroke="#616161" stroke-width="0.1065" stroke-miterlimit="2.613" stroke-linecap="round" stroke-linejoin="round"></path><path d="M34.2531 23.0527C35.9271 22.8802 37.0101 24.3832 39.2661 22.5172C37.3236 21.7972 36.3786 21.1942 34.2531 23.0527Z" fill="#C7C7C7" stroke="#616161" stroke-width="0.1065" stroke-miterlimit="2.613" stroke-linecap="round" stroke-linejoin="round"></path><path d="M31.9475 24.5337C33.599 24.2172 34.811 25.6197 36.8945 23.5632C34.8965 23.0172 33.9035 22.4982 31.9475 24.5337Z" fill="#C7C7C7" stroke="#616161" stroke-width="0.1065" stroke-miterlimit="2.613" stroke-linecap="round" stroke-linejoin="round"></path><path d="M29.786 26.2008C31.403 25.7403 32.732 27.0318 34.628 24.8028C32.591 24.4323 31.5545 24.0003 29.786 26.2008Z" fill="#C7C7C7" stroke="#616161" stroke-width="0.1065" stroke-miterlimit="2.613" stroke-linecap="round" stroke-linejoin="round"></path><path d="M27.7745 28.0497C29.3465 27.4497 30.782 28.6227 32.477 26.2362C30.4145 26.0442 29.345 25.7037 27.7745 28.0497Z" fill="#C7C7C7" stroke="#616161" stroke-width="0.1065" stroke-miterlimit="2.613" stroke-linecap="round" stroke-linejoin="round"></path><path d="M25.9325 30.0752C27.4475 29.3417 28.979 30.3842 30.461 27.8597C28.3895 27.8477 27.2945 27.6017 25.9325 30.0752Z" fill="#C7C7C7" stroke="#616161" stroke-width="0.1065" stroke-miterlimit="2.613" stroke-linecap="round" stroke-linejoin="round"></path><path d="M24.272 32.2495C25.7165 31.387 27.3335 32.2915 28.589 29.647C26.525 29.8165 25.412 29.6665 24.272 32.2495Z" fill="#C7C7C7" stroke="#616161" stroke-width="0.1065" stroke-miterlimit="2.613" stroke-linecap="round" stroke-linejoin="round"></path><path d="M22.8185 34.553C24.1805 33.5675 25.871 34.328 26.891 31.5845C24.8495 31.9325 23.729 31.8815 22.8185 34.553Z" fill="#C7C7C7" stroke="#616161" stroke-width="0.1065" stroke-miterlimit="2.613" stroke-linecap="round" stroke-linejoin="round"></path><path d="M21.5615 36.9873C22.8335 35.8863 24.584 36.4968 25.361 33.6753C23.357 34.2003 22.2365 34.2453 21.5615 36.9873Z" fill="#C7C7C7" stroke="#616161" stroke-width="0.1065" stroke-miterlimit="2.613" stroke-linecap="round" stroke-linejoin="round"></path><path d="M20.522 39.5148C21.692 38.3088 23.4905 38.7648 24.017 35.8848C22.067 36.5823 20.954 36.7248 20.522 39.5148Z" fill="#C7C7C7" stroke="#616161" stroke-width="0.1065" stroke-miterlimit="2.613" stroke-linecap="round" stroke-linejoin="round"></path><path d="M19.709 42.1202C20.771 40.8152 22.5995 41.1122 22.874 38.1992C20.993 39.0632 19.8965 39.3032 19.709 42.1202Z" fill="#C7C7C7" stroke="#616161" stroke-width="0.1065" stroke-miterlimit="2.613" stroke-linecap="round" stroke-linejoin="round"></path><path d="M19.1209 44.7924C20.0659 43.4004 21.9139 43.5369 21.9334 40.6104C20.1334 41.6364 19.0624 41.9694 19.1209 44.7924Z" fill="#C7C7C7" stroke="#616161" stroke-width="0.1065" stroke-miterlimit="2.613" stroke-linecap="round" stroke-linejoin="round"></path><path d="M18.77 47.5042C19.589 46.0342 21.443 46.0102 21.2075 43.0942C19.5035 44.2702 18.4655 44.6977 18.77 47.5042Z" fill="#C7C7C7" stroke="#616161" stroke-width="0.1065" stroke-miterlimit="2.613" stroke-linecap="round" stroke-linejoin="round"></path><path d="M18.665 50.2188C19.352 48.6843 21.197 48.4983 20.7065 45.6123C19.1135 46.9338 18.116 47.4513 18.665 50.2188Z" fill="#C7C7C7" stroke="#616161" stroke-width="0.1065" stroke-miterlimit="2.613" stroke-linecap="round" stroke-linejoin="round"></path><path d="M18.785 52.955C19.337 51.368 21.158 51.02 20.42 48.1895C18.9455 49.6445 17.9975 50.2445 18.785 52.9565V52.955Z" fill="#C7C7C7" stroke="#616161" stroke-width="0.1065" stroke-miterlimit="2.613" stroke-linecap="round" stroke-linejoin="round"></path><path d="M19.1524 55.6595C19.5634 54.0305 21.3469 53.5265 20.3644 50.7695C19.0234 52.3475 18.1324 53.0285 19.1524 55.6595Z" fill="#C7C7C7" stroke="#616161" stroke-width="0.1065" stroke-miterlimit="2.613" stroke-linecap="round" stroke-linejoin="round"></path><path d="M19.757 58.3247C20.024 56.6642 21.7565 56.0072 20.537 53.3462C19.34 55.0352 18.512 55.7927 19.757 58.3247Z" fill="#C7C7C7" stroke="#616161" stroke-width="0.1065" stroke-miterlimit="2.613" stroke-linecap="round" stroke-linejoin="round"></path><path d="M20.5805 60.9259C20.7005 59.2504 22.3715 58.4434 20.924 55.9009C19.8785 57.6859 19.118 58.5109 20.579 60.9259H20.5805Z" fill="#C7C7C7" stroke="#616161" stroke-width="0.1065" stroke-miterlimit="2.613" stroke-linecap="round" stroke-linejoin="round"></path><path d="M21.6425 63.4501C21.6155 61.7701 23.2085 60.8221 21.545 58.4131C20.66 60.2836 19.9745 61.1731 21.6425 63.4501Z" fill="#C7C7C7" stroke="#616161" stroke-width="0.1065" stroke-miterlimit="2.613" stroke-linecap="round" stroke-linejoin="round"></path><path d="M22.904 65.8704C22.7315 64.1979 24.236 63.1149 22.3685 60.8604C21.6485 62.8014 21.044 63.7464 22.904 65.8704Z" fill="#C7C7C7" stroke="#616161" stroke-width="0.1065" stroke-miterlimit="2.613" stroke-linecap="round" stroke-linejoin="round"></path><path d="M24.3875 68.1735C24.0695 66.5235 25.4735 65.3115 23.417 63.2295C22.8695 65.2245 22.349 66.219 24.3875 68.1735Z" fill="#C7C7C7" stroke="#616161" stroke-width="0.1065" stroke-miterlimit="2.613" stroke-linecap="round" stroke-linejoin="round"></path><path d="M26.054 70.3337C25.5935 68.7182 26.8865 67.3892 24.656 65.4932C24.2855 67.5302 23.8535 68.5652 26.054 70.3337Z" fill="#C7C7C7" stroke="#616161" stroke-width="0.1065" stroke-miterlimit="2.613" stroke-linecap="round" stroke-linejoin="round"></path><path d="M27.9049 72.344C27.3049 70.7735 28.4779 69.3395 26.0899 67.6445C25.8979 69.7055 25.5589 70.7735 27.9049 72.344Z" fill="#C7C7C7" stroke="#616161" stroke-width="0.1065" stroke-miterlimit="2.613" stroke-linecap="round" stroke-linejoin="round"></path><path d="M29.93 74.1842C29.198 72.6707 30.2405 71.1392 27.7145 69.6602C27.7025 71.7302 27.4565 72.8252 29.9315 74.1842H29.93Z" fill="#C7C7C7" stroke="#616161" stroke-width="0.1065" stroke-miterlimit="2.613" stroke-linecap="round" stroke-linejoin="round"></path><path d="M32.1049 75.8448C31.2424 74.4018 32.1484 72.7848 29.5024 71.5308C29.6719 73.5948 29.5219 74.7063 32.1064 75.8448H32.1049Z" fill="#C7C7C7" stroke="#616161" stroke-width="0.1065" stroke-miterlimit="2.613" stroke-linecap="round" stroke-linejoin="round"></path><path d="M34.412 77.2981C33.4265 75.9361 34.187 74.2456 31.442 73.2271C31.79 75.2671 31.7375 76.3876 34.412 77.2981Z" fill="#C7C7C7" stroke="#616161" stroke-width="0.1065" stroke-miterlimit="2.613" stroke-linecap="round" stroke-linejoin="round"></path><path d="M36.848 78.5533C35.7455 77.2813 36.3575 75.5323 33.533 74.7568C34.058 76.7578 34.1045 77.8798 36.848 78.5533Z" fill="#C7C7C7" stroke="#616161" stroke-width="0.1065" stroke-miterlimit="2.613" stroke-linecap="round" stroke-linejoin="round"></path><path d="M39.377 79.5916C38.1695 78.4216 38.6255 76.6261 35.7455 76.0981C36.443 78.0481 36.5855 79.1581 39.377 79.5916Z" fill="#C7C7C7" stroke="#616161" stroke-width="0.1065" stroke-miterlimit="2.613" stroke-linecap="round" stroke-linejoin="round"></path><path d="M41.9826 80.4052C40.6776 79.3447 40.9746 77.5162 38.0601 77.2417C38.9256 79.1227 39.1656 80.2177 41.9841 80.4067L41.9826 80.4052Z" fill="#C7C7C7" stroke="#616161" stroke-width="0.1065" stroke-miterlimit="2.613" stroke-linecap="round" stroke-linejoin="round"></path><path d="M44.6569 80.9911C43.2634 80.0476 43.3999 78.2011 40.4719 78.1816C41.4979 79.9801 41.8324 81.0511 44.6569 80.9911Z" fill="#C7C7C7" stroke="#616161" stroke-width="0.1065" stroke-miterlimit="2.613" stroke-linecap="round" stroke-linejoin="round"></path><path d="M47.3705 81.3422C45.9005 80.5247 45.875 78.6722 42.9575 78.9077C44.135 80.6102 44.5625 81.6467 47.3705 81.3422Z" fill="#C7C7C7" stroke="#616161" stroke-width="0.1065" stroke-miterlimit="2.613" stroke-linecap="round" stroke-linejoin="round"></path><path d="M50.087 81.4486C48.551 80.7616 48.365 78.9181 45.4775 79.4086C46.8005 81.0001 47.3165 81.9961 50.087 81.4486Z" fill="#C7C7C7" stroke="#616161" stroke-width="0.1065" stroke-miterlimit="2.613" stroke-linecap="round" stroke-linejoin="round"></path><path d="M52.826 81.3271C51.236 80.7766 50.891 78.9571 48.056 79.6951C49.5125 81.1666 50.114 82.1146 52.826 81.3271Z" fill="#C7C7C7" stroke="#616161" stroke-width="0.1065" stroke-miterlimit="2.613" stroke-linecap="round" stroke-linejoin="round"></path><path d="M55.532 80.9599C53.9015 80.5504 53.3975 78.7669 50.639 79.7494C52.2185 81.0889 52.8995 81.9814 55.532 80.9599Z" fill="#C7C7C7" stroke="#616161" stroke-width="0.1065" stroke-miterlimit="2.613" stroke-linecap="round" stroke-linejoin="round"></path><path d="M58.1975 80.3573C56.5355 80.0903 55.8785 78.3578 53.2175 79.5773C54.9065 80.7743 55.6625 81.6023 58.1975 80.3573Z" fill="#C7C7C7" stroke="#616161" stroke-width="0.1065" stroke-miterlimit="2.613" stroke-linecap="round" stroke-linejoin="round"></path><path d="M60.8 79.5344C59.123 79.4114 58.3175 77.7434 55.772 79.1894C57.56 80.2349 58.3835 80.9954 60.8 79.5344Z" fill="#C7C7C7" stroke="#616161" stroke-width="0.1065" stroke-miterlimit="2.613" stroke-linecap="round" stroke-linejoin="round"></path><path d="M63.3275 78.473C61.6445 78.4985 60.6965 76.907 58.2875 78.5705C60.1595 79.4555 61.0475 80.141 63.3275 78.473Z" fill="#C7C7C7" stroke="#616161" stroke-width="0.1065" stroke-miterlimit="2.613" stroke-linecap="round" stroke-linejoin="round"></path><path d="M65.747 77.211C64.0745 77.3835 62.99 75.8805 60.7355 77.7465C62.6765 78.465 63.6215 79.071 65.747 77.211Z" fill="#C7C7C7" stroke="#616161" stroke-width="0.1065" stroke-miterlimit="2.613" stroke-linecap="round" stroke-linejoin="round"></path><path d="M68.0525 75.7295C66.401 76.046 65.1905 74.6435 63.1055 76.7C65.1035 77.246 66.098 77.7665 68.0525 75.7295Z" fill="#C7C7C7" stroke="#616161" stroke-width="0.1065" stroke-miterlimit="2.613" stroke-linecap="round" stroke-linejoin="round"></path><path d="M70.2155 74.063C68.597 74.5235 67.2695 73.2305 65.3705 75.4595C67.4105 75.8315 68.4455 76.262 70.2155 74.063Z" fill="#C7C7C7" stroke="#616161" stroke-width="0.1065" stroke-miterlimit="2.613" stroke-linecap="round" stroke-linejoin="round"></path><path d="M72.2255 72.2134C70.655 72.8134 69.2179 71.6404 67.5229 74.0269C69.5854 74.2189 70.655 74.5594 72.2255 72.2134Z" fill="#C7C7C7" stroke="#616161" stroke-width="0.1065" stroke-miterlimit="2.613" stroke-linecap="round" stroke-linejoin="round"></path><path d="M74.0675 70.188C72.5525 70.9215 71.021 69.879 69.5405 72.4035C71.6105 72.4155 72.7055 72.6615 74.0675 70.188Z" fill="#C7C7C7" stroke="#616161" stroke-width="0.1065" stroke-miterlimit="2.613" stroke-linecap="round" stroke-linejoin="round"></path><path d="M75.728 68.0146C74.285 68.8771 72.668 67.9727 71.4125 70.6157C73.4765 70.4477 74.588 70.5961 75.728 68.0146Z" fill="#C7C7C7" stroke="#616161" stroke-width="0.1065" stroke-miterlimit="2.613" stroke-linecap="round" stroke-linejoin="round"></path><path d="M77.183 65.7109C75.8195 66.6964 74.129 65.9359 73.109 68.6794C75.152 68.3314 76.2725 68.3839 77.183 65.7109Z" fill="#C7C7C7" stroke="#616161" stroke-width="0.1065" stroke-miterlimit="2.613" stroke-linecap="round" stroke-linejoin="round"></path><path d="M78.44 63.2778C77.1665 64.3773 75.416 63.7668 74.6405 66.5883C76.6445 66.0633 77.7665 66.0183 78.44 63.2778Z" fill="#C7C7C7" stroke="#616161" stroke-width="0.1065" stroke-miterlimit="2.613" stroke-linecap="round" stroke-linejoin="round"></path><path d="M79.478 60.749C78.308 61.955 76.5095 61.5005 75.983 64.379C77.933 63.6815 79.046 63.539 79.478 60.749Z" fill="#C7C7C7" stroke="#616161" stroke-width="0.1065" stroke-miterlimit="2.613" stroke-linecap="round" stroke-linejoin="round"></path><path d="M80.2925 58.145C79.2305 59.4485 77.4005 59.1515 77.126 62.0645C79.0085 61.2005 80.105 60.9605 80.2925 58.145Z" fill="#C7C7C7" stroke="#616161" stroke-width="0.1065" stroke-miterlimit="2.613" stroke-linecap="round" stroke-linejoin="round"></path><path d="M80.8789 55.4731C79.9339 56.8636 78.0859 56.7271 78.0664 59.6536C79.8664 58.6291 80.9374 58.2946 80.8789 55.4731Z" fill="#C7C7C7" stroke="#616161" stroke-width="0.1065" stroke-miterlimit="2.613" stroke-linecap="round" stroke-linejoin="round"></path><path d="M81.2301 52.7598C80.4111 54.2298 78.5571 54.2538 78.7941 57.1698C80.4966 55.9938 81.5346 55.5663 81.2301 52.7598Z" fill="#C7C7C7" stroke="#616161" stroke-width="0.1065" stroke-miterlimit="2.613" stroke-linecap="round" stroke-linejoin="round"></path><path d="M81.335 50.0444C80.648 51.5789 78.8045 51.7649 79.2935 54.6494C80.888 53.3294 81.884 52.8134 81.335 50.0444Z" fill="#C7C7C7" stroke="#616161" stroke-width="0.1065" stroke-miterlimit="2.613" stroke-linecap="round" stroke-linejoin="round"></path><path d="M53.4755 79.6131C54.7955 78.8826 56.0195 79.4586 57.5315 80.3226C56.1485 79.8801 54.851 79.2096 53.4755 79.6131Z" fill="#A9A9A9"></path><path d="M53.858 79.8467C54.752 80.6612 55.9925 81.2477 57.83 80.4137C56.3645 80.7167 54.989 80.5067 53.858 79.8467Z" fill="#ECECEC"></path><path d="M56.0959 79.2133C57.3559 78.3823 58.6204 78.8623 60.1954 79.6078C58.7824 79.2733 57.4354 78.7048 56.0959 79.2133Z" fill="#A9A9A9"></path><path d="M56.495 79.4175C57.4505 80.16 58.7315 80.6505 60.5 79.6755C59.06 80.091 57.674 79.9875 56.495 79.4175Z" fill="#ECECEC"></path><path d="M58.5605 78.534C59.744 77.598 61.0445 77.964 62.678 78.5715C61.241 78.3615 59.852 77.9115 58.5605 78.534Z" fill="#A9A9A9"></path><path d="M58.976 78.7043C59.9915 79.3613 61.31 79.7393 62.987 78.6143C61.592 79.1528 60.2 79.1693 58.976 78.7043Z" fill="#ECECEC"></path><path d="M61.073 77.7918C62.135 76.7193 63.4715 76.9278 65.1665 77.3313C63.7145 77.2968 62.2805 77.0178 61.073 77.7918Z" fill="#A9A9A9"></path><path d="M61.505 77.9094C62.594 78.4404 63.95 78.6549 65.4785 77.3364C64.1555 78.0399 62.7785 78.2244 61.5065 77.9109L61.505 77.9094Z" fill="#ECECEC"></path><path d="M63.3876 76.6728C64.3716 75.5298 65.7201 75.6453 67.4376 75.9333C65.9871 75.9978 64.5381 75.8178 63.3876 76.6728Z" fill="#A9A9A9"></path><path d="M63.827 76.7595C64.949 77.214 66.3155 77.334 67.7495 75.915C66.4805 76.707 65.117 76.986 63.827 76.7595Z" fill="#ECECEC"></path><path d="M65.6075 75.445C66.4805 74.215 67.8335 74.203 69.572 74.3275C68.132 74.527 66.6725 74.485 65.6075 75.445Z" fill="#A9A9A9"></path><path d="M66.0544 75.4893C67.2139 75.8343 68.5849 75.8268 69.8794 74.2803C68.6899 75.1878 67.3594 75.5928 66.0544 75.4893Z" fill="#ECECEC"></path><path d="M67.7555 73.8904C68.5505 72.6079 69.9005 72.5119 71.642 72.5284C70.22 72.8179 68.7575 72.8674 67.7555 73.8904Z" fill="#A9A9A9"></path><path d="M68.204 73.9084C69.383 74.1814 70.7525 74.0884 71.948 72.4639C70.8155 73.4434 69.5135 73.9309 68.204 73.9084Z" fill="#ECECEC"></path><path d="M69.818 72.2749C70.463 70.9099 71.7935 70.6639 73.526 70.4839C72.146 70.9309 70.7 71.1439 69.818 72.2749Z" fill="#A9A9A9"></path><path d="M70.265 72.2418C71.468 72.3813 72.818 72.1338 73.8215 70.3833C72.809 71.4843 71.57 72.1158 70.2665 72.2418H70.265Z" fill="#ECECEC"></path><path d="M71.6165 70.4972C72.1565 69.0872 73.463 68.7407 75.1775 68.4272C73.8335 68.9807 72.41 69.3032 71.6165 70.4972Z" fill="#A9A9A9"></path><path d="M72.0605 70.4301C73.2695 70.4781 74.5955 70.1286 75.4655 68.3076C74.537 69.4821 73.3505 70.2066 72.0605 70.4301Z" fill="#ECECEC"></path><path d="M73.3115 68.5604C73.7165 67.1084 74.987 66.6404 76.664 66.1694C75.3785 66.8444 73.9895 67.2974 73.3115 68.5604Z" fill="#A9A9A9"></path><path d="M73.7466 68.4529C74.9556 68.3884 76.2441 67.9174 76.9386 66.0229C76.1256 67.2784 75.0111 68.1109 73.7466 68.4529Z" fill="#ECECEC"></path><path d="M74.87 66.4486C75.125 64.9606 76.34 64.3651 77.96 63.7261C76.751 64.5286 75.416 65.1211 74.87 66.4486Z" fill="#A9A9A9"></path><path d="M75.293 66.2963C76.4885 66.1073 77.7215 65.5073 78.218 63.5513C77.5385 64.8848 76.5155 65.8253 75.293 66.2963Z" fill="#ECECEC"></path><path d="M76.145 64.2097C76.307 62.7097 77.4815 62.0407 79.0595 61.3027C77.9015 62.1787 76.607 62.8522 76.145 64.2097Z" fill="#A9A9A9"></path><path d="M76.556 64.0323C77.738 63.7683 78.932 63.0933 79.307 61.1118C78.71 62.4828 77.747 63.4863 76.556 64.0323Z" fill="#ECECEC"></path><path d="M77.342 61.8421C77.3555 60.3346 78.4595 59.5531 79.9565 58.6621C78.8915 59.6491 77.6675 60.4471 77.342 61.8421Z" fill="#A9A9A9"></path><path d="M77.735 61.6247C78.884 61.2482 80.0045 60.4592 80.1845 58.4492C79.7255 59.8742 78.8645 60.9662 77.7335 61.6247H77.735Z" fill="#ECECEC"></path><path d="M78.239 59.4437C78.1265 57.9392 79.16 57.0677 80.5775 56.0537C79.598 57.1262 78.4475 58.0247 78.239 59.4437Z" fill="#A9A9A9"></path><path d="M78.6124 59.1928C79.7254 58.7203 80.7769 57.8383 80.7844 55.8208C80.4484 57.2788 79.6834 58.4398 78.6124 59.1928Z" fill="#ECECEC"></path><path d="M78.9469 56.9556C78.7009 55.4661 79.6519 54.5076 80.9749 53.3721C80.0944 54.5271 79.0279 55.5246 78.9469 56.9556Z" fill="#A9A9A9"></path><path d="M79.295 56.6715C80.3645 56.1015 81.332 55.131 81.1625 53.121C80.9555 54.603 80.2955 55.827 79.295 56.6715ZM79.613 51.7095C79.1975 50.2605 80.033 49.197 81.215 47.9175C80.4725 49.167 79.5275 50.28 79.613 51.7095Z" fill="#ECECEC"></path><path d="M79.829 51.5299C80.819 50.8324 81.659 49.7509 81.242 47.7769C81.221 49.2724 80.717 50.5684 79.829 51.5299ZM79.691 54.1039C80.7125 53.4559 81.608 52.4179 81.2885 50.4244C81.1925 51.9184 80.627 53.1874 79.691 54.1039Z" fill="#A9A9A9"></path><path d="M79.46 54.3963C79.07 52.9398 79.925 51.8913 81.1295 50.6343C80.3645 51.8688 79.4 52.9653 79.46 54.3963ZM79.664 49.0173C79.1135 47.6133 79.844 46.4763 80.9015 45.0918C80.2805 46.4043 79.445 47.6013 79.664 49.0173Z" fill="#ECECEC"></path><path d="M79.817 48.9543C80.744 48.1743 81.488 47.0238 80.903 45.0933C81.008 46.5858 80.6195 47.9193 79.817 48.9543Z" fill="#A9A9A9"></path><path d="M79.526 46.4748C78.8045 45.1518 79.388 43.9323 80.2655 42.4263C79.8125 43.8063 79.1315 45.0963 79.526 46.4748Z" fill="#ECECEC"></path><path d="M79.715 46.2829C80.537 45.3949 81.1325 44.1604 80.312 42.3184C80.6045 43.7854 80.384 45.1579 79.715 46.2829Z" fill="#A9A9A9"></path><path d="M79.049 43.9634C78.254 42.6809 78.77 41.4314 79.5605 39.8789C79.1855 41.2814 78.5795 42.6089 79.049 43.9634Z" fill="#ECECEC"></path><path d="M79.2275 43.7601C79.9985 42.8271 80.525 41.5611 79.6025 39.7671C79.9745 41.2161 79.832 42.5991 79.2275 43.7601Z" fill="#A9A9A9"></path><path d="M78.3516 41.3522C77.4636 40.1327 77.8851 38.8472 78.5571 37.2422C78.2871 38.6672 77.7831 40.0382 78.3516 41.3522Z" fill="#ECECEC"></path><path d="M78.5435 41.2326C79.2215 40.2306 79.6235 38.9211 78.533 37.2231C79.043 38.6301 79.0325 40.0191 78.5435 41.2326Z" fill="#A9A9A9"></path><path d="M77.4589 38.9226C76.4689 37.7826 76.7794 36.4671 77.3119 34.8081C77.1664 36.2526 76.7779 37.6611 77.4589 38.9226Z" fill="#ECECEC"></path><path d="M77.6389 38.7855C78.2284 37.7295 78.5164 36.39 77.2849 34.791C77.9149 36.15 78.0229 37.536 77.6389 38.7855Z" fill="#A9A9A9"></path><path d="M76.355 36.6003C75.281 35.5413 75.4865 34.2048 75.89 32.5098C75.8555 33.9618 75.578 35.3958 76.355 36.6003Z" fill="#ECECEC"></path><path d="M76.5229 36.4501C77.0299 35.3521 77.2129 33.9931 75.8629 32.4946C76.5934 33.7996 76.8094 35.1736 76.5229 36.4501Z" fill="#A9A9A9"></path><path d="M75.0545 34.3789C73.9025 33.4069 74.0045 32.0584 74.2745 30.3379C74.354 31.7869 74.189 33.2389 75.0545 34.3789Z" fill="#ECECEC"></path><path d="M75.2119 34.2183C75.6319 33.0828 75.7099 31.7148 74.2459 30.3258C75.0769 31.5708 75.3979 32.9223 75.2119 34.2183ZM73.7044 32.2578C74.0839 31.1088 74.1139 29.7378 72.6019 28.4028C73.4764 29.6163 73.8454 30.9558 73.7044 32.2578Z" fill="#A9A9A9"></path><path d="M73.631 32.2085C72.3815 31.3625 72.341 30.011 72.4265 28.2725C72.659 29.705 72.6485 31.1645 73.631 32.2085Z" fill="#ECECEC"></path><path d="M72.0711 30.2783C72.3336 29.0978 72.2286 27.7298 70.5906 26.5508C71.5806 27.6713 72.0816 28.9688 72.0711 30.2783Z" fill="#A9A9A9"></path><path d="M71.9931 30.2345C70.6656 29.5175 70.4901 28.178 70.4031 26.438C70.7781 27.8405 70.9116 29.294 71.9931 30.2345Z" fill="#ECECEC"></path><path d="M70.235 28.2271C70.34 27.0226 70.055 25.6816 68.276 24.7261C69.4055 25.7086 70.073 26.9281 70.2335 28.2271H70.235Z" fill="#A9A9A9"></path><path d="M70.187 28.3649C68.798 27.7739 68.4995 26.4554 68.2505 24.7319C68.753 26.0939 69.023 27.5294 70.187 28.3649Z" fill="#ECECEC"></path><path d="M68.2535 26.5171C68.2385 25.3081 67.8245 24.0016 65.9615 23.2261C67.181 24.0916 67.964 25.2406 68.2535 26.5171Z" fill="#A9A9A9"></path><path d="M68.285 26.7554C66.8465 26.2949 66.4265 25.0109 66.02 23.3174C66.6455 24.6269 67.0475 26.0309 68.285 26.7554Z" fill="#ECECEC"></path><path d="M66.17 25.0337C66.0425 23.8307 65.507 22.5692 63.578 21.9722C64.8755 22.7192 65.762 23.7902 66.17 25.0337Z" fill="#A9A9A9"></path><path d="M66.2225 25.2676C64.7495 24.9451 64.2095 23.7046 63.6455 22.0576C64.3925 23.3026 64.9235 24.6631 66.2225 25.2676Z" fill="#ECECEC"></path><path d="M63.887 23.661C63.647 22.476 62.996 21.2685 61.022 20.853C62.381 21.477 63.365 22.461 63.887 23.661Z" fill="#A9A9A9"></path><path d="M63.9619 23.8891C62.4619 23.7046 61.8109 22.5196 61.0969 20.9326C61.9549 22.1026 62.6119 23.4076 63.9619 23.8891Z" fill="#ECECEC"></path><path d="M61.511 22.5111C61.1585 21.3546 60.3935 20.2161 58.3865 19.9941C59.801 20.4831 60.878 21.3666 61.511 22.5111Z" fill="#A9A9A9"></path><path d="M61.607 22.73C60.098 22.6925 59.3345 21.575 58.469 20.0645C59.438 21.146 60.2165 22.3805 61.607 22.73Z" fill="#ECECEC"></path><path d="M59.063 21.7128C58.637 20.5803 57.8 19.4958 55.7825 19.4028C57.227 19.8003 58.355 20.6118 59.063 21.7128Z" fill="#A9A9A9"></path><path d="M59.174 21.9262C57.665 21.9862 56.831 20.9212 55.8695 19.4692C56.906 20.4862 57.7625 21.6682 59.174 21.9262Z" fill="#ECECEC"></path><path d="M56.609 21.041C56.084 19.9505 55.1555 18.9425 53.1395 19.028C54.611 19.2965 55.8065 20.006 56.609 21.041Z" fill="#A9A9A9"></path><path d="M56.7381 21.245C55.2411 21.434 54.3171 20.447 53.2311 19.085C54.3531 20.0075 55.3101 21.11 56.7381 21.245Z" fill="#ECECEC"></path><path d="M53.9869 20.5668C53.3779 19.5213 52.3714 18.5913 50.3674 18.8358C51.8569 18.9858 53.1049 19.5993 53.9869 20.5668Z" fill="#A9A9A9"></path><path d="M54.131 20.7588C52.6535 21.0678 51.6545 20.1588 50.4635 18.8853C51.656 19.7163 52.6985 20.7393 54.131 20.7588Z" fill="#ECECEC"></path><path d="M51.4445 20.2551C50.7065 19.2951 49.5905 18.5001 47.6345 18.9996C49.13 18.9591 50.447 19.4076 51.4445 20.2551Z" fill="#A9A9A9"></path><path d="M51.614 20.4256C50.1875 20.9206 49.079 20.1466 47.7365 19.0366C49.0235 19.7086 50.189 20.5891 51.614 20.4256Z" fill="#ECECEC"></path><path d="M48.7611 20.171C47.9286 19.292 46.7361 18.617 44.8416 19.313C46.3266 19.118 47.6811 19.43 48.7611 20.171Z" fill="#A9A9A9"></path><path d="M48.9455 20.3253C47.5775 20.9628 46.3955 20.3058 44.9465 19.3398C46.2965 19.8753 47.5445 20.6328 48.9455 20.3253Z" fill="#ECECEC"></path><path d="M46.214 20.5038C45.341 19.6668 44.117 19.0488 42.2585 19.8333C43.7315 19.5693 45.101 19.8153 46.214 20.5038Z" fill="#A9A9A9"></path><path d="M46.406 20.6495C45.071 21.3515 43.859 20.7515 42.365 19.8545C43.739 20.327 45.0215 21.0245 46.406 20.6495Z" fill="#ECECEC"></path><path d="M43.6699 20.9599C42.7369 20.1874 41.4724 19.6594 39.6754 20.5774C41.1244 20.2084 42.5089 20.3539 43.6699 20.9599Z" fill="#A9A9A9"></path><path d="M43.871 21.0903C42.59 21.8868 41.3375 21.3753 39.782 20.5908C41.1875 20.9613 42.518 21.5643 43.871 21.0903Z" fill="#ECECEC"></path><path d="M41.1575 21.6016C40.1555 20.9221 38.846 20.5171 37.145 21.6046C38.5535 21.0961 39.944 21.1096 41.1575 21.6016Z" fill="#A9A9A9"></path><path d="M41.3705 21.7109C40.1735 22.6289 38.8775 22.2404 37.2545 21.6074C38.687 21.8414 40.07 22.3124 41.3705 21.7124V21.7109Z" fill="#ECECEC"></path><path d="M38.6315 22.5044C37.5725 21.9209 36.23 21.6389 34.637 22.8779C35.9915 22.2434 37.3775 22.1279 38.6315 22.5044Z" fill="#A9A9A9"></path><path d="M38.855 22.5947C37.745 23.6192 36.4205 23.3522 34.745 22.8707C36.194 22.9712 37.6145 23.3147 38.855 22.5947Z" fill="#ECECEC"></path><path d="M36.2899 23.6283C35.1934 23.1168 33.8344 22.9233 32.3284 24.2673C33.6379 23.5428 35.0149 23.3343 36.2899 23.6283Z" fill="#A9A9A9"></path><path d="M36.518 23.7041C35.48 24.7991 34.139 24.6206 32.4365 24.2531C33.8885 24.2576 35.3285 24.5036 36.5165 23.7041H36.518Z" fill="#ECECEC"></path><path d="M33.9965 24.9545C32.861 24.5345 31.4915 24.458 30.1025 25.9205C31.3475 25.091 32.7005 24.7685 33.9965 24.9545Z" fill="#A9A9A9"></path><path d="M34.2305 25.0093C33.2885 26.1868 31.9355 26.1208 30.209 25.8973C31.6565 25.7788 33.1115 25.9063 34.229 25.0093H34.2305Z" fill="#ECECEC"></path><path d="M31.898 26.3705C30.728 26.06 29.357 26.111 28.1105 27.698C29.273 26.753 30.59 26.3075 31.898 26.3705Z" fill="#A9A9A9"></path><path d="M32.135 26.4048C31.307 27.6648 29.9555 27.7263 28.214 27.6648C29.645 27.4128 31.106 27.4023 32.135 26.4048Z" fill="#ECECEC"></path><path d="M29.804 28.0565C28.607 27.8765 27.251 28.0775 26.186 29.7905C27.236 28.7255 28.496 28.1375 29.804 28.0565Z" fill="#A9A9A9"></path><path d="M30.0439 28.0649C29.3599 29.4089 28.0219 29.6174 26.2849 29.7464C27.6799 29.3384 29.1304 29.1689 30.0439 28.0649Z" fill="#ECECEC"></path><path d="M28.0774 29.865C26.8729 29.7525 25.5289 30.03 24.5659 31.803C25.5544 30.6795 26.7769 30.0195 28.0774 29.865Z" fill="#A9A9A9"></path><path d="M28.3175 29.8579C27.7115 31.2394 26.39 31.5244 24.662 31.7539C26.0315 31.2679 27.4685 31.0129 28.3175 29.8579Z" fill="#ECECEC"></path><path d="M26.4035 31.8878C25.193 31.8698 23.8745 32.2493 23.051 34.0928C23.9495 32.8943 25.118 32.1428 26.4035 31.8878Z" fill="#A9A9A9"></path><path d="M26.642 31.8633C26.144 33.2868 24.848 33.6723 23.1425 34.0353C24.47 33.4428 25.8845 33.0798 26.642 31.8633Z" fill="#ECECEC"></path><path d="M24.8449 34.0591C23.6389 34.1581 22.3639 34.6651 21.7219 36.5776C22.5004 35.2996 23.5909 34.4371 24.8449 34.0576V34.0591Z" fill="#A9A9A9"></path><path d="M25.0806 34.0093C24.7236 35.4748 23.4696 35.9863 21.8091 36.5113C23.0721 35.7943 24.4446 35.2948 25.0791 34.0108L25.0806 34.0093Z" fill="#ECECEC"></path><path d="M23.5955 36.2593C22.4015 36.4588 21.1745 37.0693 20.693 39.0298C21.362 37.6918 22.3775 36.7393 23.5955 36.2593Z" fill="#A9A9A9"></path><path d="M23.825 36.1938C23.591 37.6848 22.385 38.2968 20.774 38.9583C21.974 38.1393 23.2985 37.5273 23.825 36.1938Z" fill="#ECECEC"></path><path d="M22.4255 38.6025C21.26 38.928 20.105 39.6675 19.8395 41.6685C20.36 40.266 21.266 39.2115 22.4255 38.6025Z" fill="#A9A9A9"></path><path d="M22.6475 38.5093C22.5755 40.0168 21.443 40.7548 19.9115 41.5873C21.0155 40.6423 22.2665 39.8923 22.6475 38.5093ZM21.7235 40.9603C21.7835 42.4663 20.7215 43.3033 19.271 44.2663C20.2865 43.2283 21.467 42.3703 21.7235 40.9603Z" fill="#ECECEC"></path><path d="M21.7234 41.084C20.5684 41.447 19.439 42.224 19.2365 44.231C19.712 42.812 20.5849 41.7305 21.7234 41.084Z" fill="#A9A9A9"></path><path d="M21.101 43.3638C21.266 44.8623 20.261 45.7683 18.8795 46.8288C19.8215 45.7248 20.9435 44.7873 21.101 43.3638Z" fill="#ECECEC"></path><path d="M21.11 43.4854C19.982 43.9279 18.9065 44.7784 18.842 46.7944C19.22 45.3469 20.018 44.2084 21.11 43.4854Z" fill="#A9A9A9"></path><path d="M20.606 45.938C20.921 47.4125 20.0135 48.416 18.746 49.61C19.571 48.416 20.591 47.3705 20.606 45.938Z" fill="#ECECEC"></path><path d="M20.6286 46.0596C19.5516 46.6116 18.5676 47.5671 18.7056 49.5786C18.9351 48.1011 19.6146 46.8876 20.6286 46.0596ZM20.3391 48.6411C20.7306 50.0961 19.8786 51.1461 18.6741 52.4061C19.4361 51.1701 20.3991 50.0721 20.3391 48.6411Z" fill="#A9A9A9"></path><path d="M20.393 48.6289C19.3475 49.2364 18.4145 50.2429 18.659 52.2439C18.8105 50.7574 19.424 49.5094 20.393 48.6289Z" fill="#ECECEC"></path><path d="M20.2789 51.2388C20.8339 52.6413 20.1049 53.7798 19.0504 55.1673C19.6684 53.8533 20.5009 52.6533 20.2804 51.2373L20.2789 51.2388Z" fill="#A9A9A9"></path><path d="M20.3315 51.2207C19.361 51.9437 18.5495 53.0477 19.0175 55.0097C19.001 53.5127 19.4675 52.2047 20.3315 51.2207Z" fill="#ECECEC"></path><path d="M20.5474 53.7827C21.1714 55.1567 20.5024 56.3297 19.5184 57.7682C20.0689 56.4257 20.8414 55.1852 20.5474 53.7827Z" fill="#A9A9A9"></path><path d="M20.6 53.7617C19.6655 54.5327 18.911 55.6772 19.478 57.6122C19.385 56.1197 19.787 54.7892 20.5985 53.7617H20.6Z" fill="#ECECEC"></path><path d="M20.9225 56.3105C21.6995 57.6035 21.167 58.8455 20.3555 60.3875C20.7485 58.991 21.374 57.671 20.9225 56.3105Z" fill="#A9A9A9"></path><path d="M20.9704 56.2847C20.1319 57.1547 19.5124 58.3772 20.2954 60.2372C20.0344 58.7642 20.2804 57.3962 20.9704 56.2832V56.2847Z" fill="#ECECEC"></path><path d="M21.617 58.8394C22.484 60.0739 22.043 61.3504 21.3425 62.9464C21.6365 61.5244 22.1645 60.1639 21.617 58.8394Z" fill="#A9A9A9"></path><path d="M21.665 58.8091C20.8895 59.7391 20.3585 61.0036 21.275 62.8006C20.9075 61.3516 21.056 59.9686 21.665 58.8106V58.8091Z" fill="#ECECEC"></path><path d="M23.5671 63.647C24.6516 64.6955 24.4596 66.032 24.0756 67.7315C24.0921 66.2795 24.3561 64.844 23.5671 63.647Z" fill="#A9A9A9"></path><path d="M23.6075 63.6079C23.0225 64.6669 22.7405 66.0079 23.9795 67.6009C23.345 66.2464 23.2295 64.8604 23.6075 63.6079Z" fill="#ECECEC"></path><path d="M24.755 65.9106C25.952 66.8271 25.9145 68.1786 25.727 69.9096C25.5785 68.4666 25.6745 67.0086 24.755 65.9106Z" fill="#A9A9A9"></path><path d="M24.791 65.8702C24.3305 66.9877 24.2045 68.3527 25.616 69.7927C24.8315 68.5207 24.5585 67.1572 24.791 65.8687V65.8702Z" fill="#ECECEC"></path><path d="M22.4525 61.2227C23.4575 62.3462 23.171 63.6677 22.664 65.3327C22.787 63.8867 23.1515 62.4722 22.4525 61.2227Z" fill="#A9A9A9"></path><path d="M22.4945 61.1895C21.8345 62.202 21.458 63.5205 22.5785 65.1975C22.043 63.801 22.028 62.412 22.4945 61.1895Z" fill="#ECECEC"></path><path d="M26.225 67.9785C27.503 68.778 27.593 70.1265 27.5705 71.868C27.2855 70.4445 27.245 68.985 26.225 67.9785Z" fill="#A9A9A9"></path><path d="M26.255 67.9336C25.904 69.0901 25.907 70.4611 27.4505 71.7616C26.5475 70.5676 26.1455 69.2371 26.255 67.9336Z" fill="#ECECEC"></path><path d="M27.8975 69.9951C29.2325 70.7001 29.42 72.0396 29.525 73.7781C29.1365 72.3786 28.988 70.9251 27.8975 69.9951Z" fill="#A9A9A9"></path><path d="M27.926 69.9497C27.659 71.1287 27.7625 72.4967 29.3975 73.6802C28.409 72.5552 27.9125 71.2577 27.926 69.9497Z" fill="#ECECEC"></path><path d="M29.7665 71.8911C31.1465 72.5031 31.427 73.8246 31.652 75.5511C31.1675 74.1816 30.92 72.7446 29.7665 71.8911Z" fill="#A9A9A9"></path><path d="M29.7921 71.8428C29.6076 73.0383 29.8056 74.3943 31.5171 75.4623C30.4536 74.4093 29.8686 73.1493 29.7921 71.8428Z" fill="#ECECEC"></path><path d="M31.712 73.4854C33.1325 73.9939 33.5105 75.2914 33.8585 76.9983C33.278 75.6679 32.924 74.2519 31.7135 73.4854H31.712Z" fill="#A9A9A9"></path><path d="M31.733 73.4341C31.6385 74.6401 31.934 75.9781 33.719 76.9201C32.582 75.9466 31.9055 74.7316 31.733 73.4341Z" fill="#ECECEC"></path><path d="M33.8136 75.105C35.2866 75.4305 35.8236 76.671 36.3876 78.3195C35.6421 77.073 35.1126 75.7125 33.8136 75.105Z" fill="#A9A9A9"></path><path d="M33.83 75.0527C33.8855 76.2602 34.349 77.5517 36.239 78.2582C34.988 77.4377 34.163 76.3172 33.8285 75.0527H33.83Z" fill="#ECECEC"></path><path d="M36.0544 76.3955C37.5499 76.601 38.1844 77.7935 38.8789 79.3925C38.0359 78.209 37.3984 76.8965 36.0544 76.3955Z" fill="#A9A9A9"></path><path d="M36.0651 76.3398C36.2196 77.5398 36.7851 78.7893 38.7261 79.3428C37.4121 78.6243 36.5016 77.5728 36.0651 76.3398Z" fill="#ECECEC"></path><path d="M38.4155 77.5234C39.923 77.5864 40.6685 78.7144 41.5085 80.2399C40.559 79.1419 39.8 77.8939 38.4155 77.5234Z" fill="#A9A9A9"></path><path d="M38.42 77.4663C38.687 78.6468 39.3665 79.8363 41.351 80.2053C39.977 79.6143 38.9705 78.6543 38.4215 77.4663H38.42Z" fill="#ECECEC"></path><path d="M40.8771 78.4206C42.3846 78.3576 43.2216 79.4181 44.1891 80.8671C43.1481 79.8546 42.2871 78.6741 40.8771 78.4221V78.4206Z" fill="#A9A9A9"></path><path d="M40.8771 78.3652C41.2431 79.5202 42.0201 80.6482 44.0301 80.8477C42.6096 80.3737 41.5251 79.5022 40.8771 78.3652Z" fill="#ECECEC"></path><path d="M43.3235 79.0698C44.822 78.8883 45.74 79.8798 46.8185 81.2478C45.701 80.3193 44.75 79.2123 43.3235 79.0698Z" fill="#A9A9A9"></path><path d="M43.319 79.0161C43.775 80.1366 44.639 81.2001 46.658 81.2406C45.2045 80.8806 44.0555 80.0976 43.319 79.0161Z" fill="#ECECEC"></path><path d="M45.8721 79.5226C47.3496 79.2136 48.3486 80.1226 49.5396 81.3961C48.3486 80.5651 47.3046 79.5436 45.8721 79.5226Z" fill="#A9A9A9"></path><path d="M45.863 79.4688C46.412 80.5473 47.3645 81.5328 49.379 81.4038C47.9 81.1668 46.688 80.4842 45.863 79.4688Z" fill="#ECECEC"></path><path d="M48.4506 79.8313C49.8861 79.3663 50.9781 80.1628 52.2981 81.3013C51.0231 80.6023 49.8786 79.6963 48.4506 79.8313Z" fill="#A9A9A9"></path><path d="M48.4355 79.7783C49.0955 80.7923 50.1485 81.6698 52.1375 81.3233C50.642 81.2483 49.364 80.7008 48.4355 79.7783Z" fill="#ECECEC"></path><path d="M51.0725 79.8044C52.475 79.2479 53.615 79.9754 55.0055 81.0254C53.69 80.4104 52.4885 79.5794 51.0725 79.8044Z" fill="#A9A9A9"></path><path d="M51.0544 79.7524C51.7789 80.7214 52.8844 81.5314 54.8494 81.0604C53.3509 81.0799 52.0414 80.6134 51.0544 79.7524Z" fill="#ECECEC"></path><path d="M71.3735 49.67V49.706C71.3735 50.231 71.357 50.741 71.3255 51.236C71.2925 51.728 71.246 52.205 71.183 52.6685C71.1221 53.1187 71.0446 53.5665 70.9505 54.011C70.7748 54.8372 70.5371 55.649 70.2395 56.4395C69.9606 57.1695 69.6251 57.8767 69.236 58.5545C68.8666 59.1976 68.4484 59.8114 67.985 60.3905C67.5372 60.9525 67.0511 61.4827 66.53 61.9775C66.0194 62.4668 65.4805 62.9256 64.916 63.3515C64.3595 63.7765 63.7828 64.1745 63.188 64.544C62.8925 64.7285 62.594 64.9085 62.294 65.0825C61.694 65.429 61.0835 65.756 60.4745 66.065C59.8655 66.374 59.255 66.668 58.652 66.95C57.4445 67.514 56.264 68.0345 55.169 68.5565C54.623 68.8175 54.0965 69.0785 53.6 69.3455C53.351 69.479 53.1095 69.614 52.8755 69.7505C52.647 69.8838 52.422 70.0229 52.2005 70.1675C51.9899 70.3059 51.7838 70.4509 51.5825 70.6025C51.3845 70.751 51.197 70.9025 51.0215 71.0585C50.8445 71.2145 50.6795 71.3735 50.5265 71.5385C50.3735 71.7035 50.231 71.8745 50.102 72.0485C49.9705 71.8703 49.8288 71.7001 49.6775 71.5385C49.5199 71.3704 49.3542 71.2102 49.181 71.0585C48.9991 70.8995 48.811 70.7479 48.617 70.604C48.4136 70.4524 48.2055 70.3073 47.993 70.169C47.77 70.0243 47.5434 69.8853 47.3135 69.752C47.078 69.6155 46.8335 69.4805 46.5845 69.347C46.0623 69.0719 45.5337 68.8093 44.999 68.5595C43.8935 68.039 42.701 67.5185 41.4815 66.9545C40.8618 66.6703 40.2467 66.3763 39.6365 66.0725C39.0215 65.7635 38.4065 65.4395 37.7975 65.0915C37.1873 64.7425 36.59 64.3718 36.0065 63.98C35.4209 63.5812 34.8548 63.1547 34.31 62.702C33.7613 62.2417 33.2404 61.7493 32.75 61.2275C32.2519 60.692 31.7923 60.1221 31.3745 59.522C30.7145 58.5685 30.1706 57.5398 29.7545 56.4575C29.4489 55.6688 29.2081 54.8567 29.0345 54.029C28.9393 53.5851 28.8607 53.1377 28.799 52.688C28.7335 52.2118 28.6849 51.7335 28.6535 51.254C28.6235 50.7815 28.6085 50.294 28.6085 49.7915C28.5155 50.2235 27.707 54.2165 28.5785 59.4545C29.4905 64.943 31.838 68.27 31.838 68.27C31.838 68.27 31.598 66.1025 32.537 62.948C33.098 63.9185 33.917 65.1485 35.0735 66.497C37.793 69.668 39.26 70.847 42.6245 72.149C48.935 74.588 49.9985 76.58 50.009 76.568C50.021 76.556 51.104 74.5745 57.38 72.149C60.7445 70.847 62.21 69.668 64.931 66.497C65.8841 65.3947 66.7332 64.2066 67.4675 62.948C68.408 66.1025 68.1665 68.27 68.1665 68.27C68.1665 68.27 70.514 64.943 71.426 59.4545C72.314 54.122 71.441 49.973 71.3735 49.6685V49.67Z" fill="#D8D8D8" stroke="black" stroke-width="0.693"></path><path d="M28.6325 49.667L28.6205 49.7225L28.6085 49.7915C28.6027 50.7598 28.6664 51.7273 28.799 52.6865C28.9692 53.9765 29.2899 55.2421 29.7545 56.4575C30.0369 57.1881 30.3764 57.8953 30.77 58.5725C31.145 59.215 31.5687 59.8279 32.0375 60.4055C32.4913 60.9678 32.9835 61.4981 33.5105 61.9925C34.0274 62.4815 34.5728 62.9393 35.144 63.3635C35.708 63.7877 36.2917 64.1851 36.893 64.5545C37.193 64.739 37.493 64.9175 37.7975 65.0915C38.405 65.438 39.0215 65.7635 39.638 66.0725C40.253 66.3815 40.871 66.674 41.4815 66.956C42.701 67.5185 43.8935 68.039 44.999 68.5595C45.5525 68.8205 46.0835 69.08 46.5845 69.347C46.835 69.4805 47.0795 69.614 47.3135 69.752C47.549 69.887 47.7755 70.0265 47.993 70.169C48.2105 70.31 48.419 70.454 48.617 70.604C48.815 70.751 49.004 70.904 49.181 71.0585C49.358 71.2145 49.523 71.3735 49.6775 71.5385C49.832 71.7035 49.973 71.8745 50.102 72.0485C50.231 71.8745 50.372 71.7035 50.5265 71.5385C50.6795 71.3735 50.846 71.2145 51.0215 71.0585C51.197 70.9025 51.3845 70.751 51.581 70.6025C51.779 70.454 51.986 70.31 52.202 70.1675C52.418 70.0265 52.643 69.887 52.877 69.7505C53.1095 69.6125 53.351 69.479 53.6 69.3455C54.0965 69.0785 54.623 68.8175 55.1705 68.5565C56.2655 68.0345 57.4445 67.514 58.6505 66.95C59.255 66.668 59.8655 66.374 60.4745 66.065C61.085 65.756 61.6925 65.429 62.294 65.0825C62.8974 64.7326 63.4878 64.3609 64.064 63.968C64.6429 63.5682 65.2025 63.1412 65.741 62.6885C66.2829 62.2275 66.7968 61.7346 67.28 61.2125C67.7724 60.676 68.2266 60.1056 68.639 59.5055C69.2917 58.5503 69.8289 57.5211 70.2395 56.4395C70.5413 55.6499 70.779 54.8372 70.9505 54.0095C71.042 53.5775 71.12 53.1305 71.183 52.6685C71.246 52.205 71.294 51.728 71.3255 51.2345C71.357 50.741 71.3735 50.2325 71.375 49.9595C71.378 49.688 71.3735 49.667 71.3735 49.667C71.3735 49.667 70.058 52.2275 67.589 54.5765C65.12 56.924 62.8955 57.8465 62.8955 57.8465C62.8955 57.8465 63.455 57.851 64.208 58.241L64.217 58.2455C64.4217 58.3529 64.6183 58.4752 64.805 58.6115C64.9839 58.7412 65.1534 58.8836 65.312 59.0375C65.4005 59.122 65.4866 59.209 65.57 59.2985C65.6138 59.3453 65.6568 59.3928 65.699 59.441C64.4045 61.106 62.309 63.4535 60.3485 64.295C59.0255 64.865 57.8015 65.1455 56.7095 64.925C56.2543 64.8322 55.822 64.6502 55.4375 64.3895C55.3447 64.3263 55.2547 64.2593 55.1675 64.1885C55.0803 64.1182 54.9962 64.0441 54.9155 63.9665C54.8387 63.8923 54.7646 63.8152 54.6935 63.7355C54.6593 63.6961 54.6258 63.6561 54.593 63.6155C54.578 63.6005 54.5675 63.5855 54.554 63.569L54.4985 63.4985C54.4393 63.421 54.3827 63.3414 54.329 63.26C54.2536 63.1453 54.1835 63.0272 54.119 62.906C53.9761 62.6373 53.859 62.3548 53.7725 62.063C53.7295 61.92 53.6945 61.7748 53.6675 61.628L53.375 55.1H46.646L46.3655 61.4615H46.361C46.361 61.4615 46.3115 62.003 46.001 62.6765C45.9831 62.7148 45.9646 62.7528 45.9455 62.7905C45.8218 63.0389 45.6746 63.2765 45.506 63.497L45.467 63.5465L45.4115 63.617C45.3444 63.6975 45.2744 63.7756 45.2015 63.851C45.0866 63.9709 44.9643 64.0836 44.8355 64.1885L44.759 64.2485L44.699 64.295L44.5655 64.3895L44.5415 64.4045C44.3705 64.5185 44.1965 64.6145 44.0165 64.6955C42.7535 65.258 41.2775 64.994 39.6545 64.295C37.6955 63.4535 35.6 61.106 34.3055 59.441L34.433 59.2985C34.594 59.1253 34.7653 58.962 34.946 58.8095C35.0666 58.7088 35.1917 58.6137 35.321 58.5245C36.3035 57.8525 37.1075 57.845 37.1075 57.845C37.1075 57.845 34.8845 56.924 32.4155 54.575C29.945 52.2275 28.6325 49.667 28.6325 49.667Z" fill="#C7C7C7" stroke="black" stroke-width="0.693"></path><path d="M71.384 49.7256L71.3705 49.7061C71.3705 50.2311 71.3555 50.7411 71.324 51.2346C71.291 51.7266 71.2445 52.2051 71.1815 52.6671C71.1185 53.1291 71.0405 53.5776 70.949 54.0096C70.7734 54.8363 70.5357 55.6486 70.238 56.4396C69.9591 57.1696 69.6236 57.8768 69.2345 58.5546C68.8645 59.1968 68.4463 59.8101 67.9835 60.3891C67.536 60.9517 67.0498 61.4825 66.5285 61.9776C66.0181 62.4665 65.4791 62.9248 64.9145 63.3501C64.3576 63.7746 63.781 64.1725 63.1865 64.5426C62.8918 64.7279 62.5937 64.9079 62.2925 65.0826C61.6925 65.4276 61.0835 65.7546 60.473 66.0636C59.864 66.3741 59.2535 66.6666 58.6505 66.9486C57.443 67.5126 56.2625 68.0346 55.169 68.5566C54.6215 68.8161 54.095 69.0771 53.5985 69.3441C53.3495 69.4791 53.108 69.6126 52.874 69.7491C52.6415 69.8871 52.4165 70.0251 52.2005 70.1676C51.9894 70.3059 51.7828 70.451 51.581 70.6026C51.383 70.7496 51.1955 70.9026 51.02 71.0571C50.8445 71.2131 50.678 71.3736 50.525 71.5386C50.3738 71.7002 50.232 71.8705 50.1005 72.0486C49.9691 71.8704 49.8274 71.7001 49.676 71.5386C49.5185 71.3705 49.3528 71.2103 49.1795 71.0586C48.9977 70.899 48.8096 70.7469 48.6155 70.6026C48.4122 70.4509 48.2041 70.3059 47.9915 70.1676C47.7685 70.0229 47.542 69.8839 47.312 69.7506C47.0765 69.6141 46.832 69.4806 46.583 69.3456C46.0608 69.071 45.5322 68.8089 44.9975 68.5596C43.892 68.0376 42.6995 67.5186 41.48 66.9546C40.8603 66.6704 40.2453 66.3764 39.635 66.0726C39.02 65.7636 38.405 65.4381 37.796 65.0916C37.186 64.7419 36.5886 64.3707 36.005 63.9786C35.4196 63.5802 34.8535 63.1542 34.3085 62.7021C33.7595 62.2421 33.2386 61.7498 32.7485 61.2276C32.2507 60.6914 31.7911 60.121 31.373 59.5206C30.7128 58.5678 30.1689 57.5395 29.753 56.4576C29.4474 55.6685 29.2066 54.8558 29.033 54.0276C28.9378 53.5836 28.8592 53.1363 28.7975 52.6866C28.732 52.2109 28.6835 51.7331 28.652 51.2541C28.622 50.7816 28.607 50.2926 28.607 49.7901C28.514 50.2221 27.7055 54.2166 28.577 59.4531C29.489 64.9431 31.8365 68.2701 31.8365 68.2701C31.8365 68.2701 31.5965 66.1011 32.5355 62.9481C33.0965 63.9171 33.9155 65.1486 35.072 66.4971C37.7915 69.6681 39.2585 70.8471 42.623 72.1476C48.9335 74.5881 49.997 76.5786 50.009 76.5666C50.0195 76.5546 51.104 74.5746 57.3785 72.1476C60.743 70.8471 62.21 69.6681 64.9295 66.4971C65.8827 65.3949 66.7319 64.2068 67.466 62.9481C68.4065 66.1011 68.165 68.2701 68.165 68.2701C68.165 68.2701 70.5125 64.9416 71.4245 59.4531C72.3125 54.1206 71.45 50.0286 71.384 49.7256Z" fill="#D8D8D8" stroke="#D8D8D8" stroke-width="0.069"></path><path d="M28.631 49.667L28.619 49.7225L28.607 49.7915C28.6013 50.7598 28.6649 51.7273 28.7975 52.6865C28.9677 53.9765 29.2884 55.2421 29.753 56.4575C30.0354 57.1881 30.375 57.8953 30.7685 58.5725C31.1435 59.215 31.5673 59.8278 32.036 60.4055C32.4899 60.9678 32.982 61.4981 33.509 61.9925C34.0259 62.4815 34.5713 62.9393 35.1425 63.3635C35.7066 63.7877 36.2902 64.1851 36.8915 64.5545C37.1915 64.739 37.4915 64.9175 37.796 65.0915C38.4035 65.438 39.02 65.7635 39.6365 66.0725C40.2515 66.3815 40.8695 66.674 41.48 66.956C42.6995 67.5185 43.892 68.039 44.9976 68.5595C45.5511 68.8205 46.082 69.08 46.583 69.347C46.8335 69.4805 47.078 69.614 47.312 69.752C47.5475 69.887 47.774 70.0265 47.9915 70.169C48.209 70.31 48.4175 70.454 48.6155 70.604C48.8135 70.751 49.0025 70.904 49.1795 71.0585C49.3565 71.2145 49.5215 71.3735 49.6745 71.5385C49.8305 71.7035 49.9715 71.8745 50.1005 72.0485C50.2295 71.8745 50.3705 71.7035 50.525 71.5385C50.678 71.3735 50.843 71.2145 51.02 71.0585C51.1955 70.9025 51.383 70.751 51.5795 70.6025C51.7775 70.454 51.9845 70.31 52.2005 70.1675C52.4165 70.0265 52.6415 69.887 52.8755 69.7505C53.108 69.6125 53.3495 69.479 53.5985 69.3455C54.095 69.0785 54.6215 68.8175 55.169 68.5565C56.264 68.0345 57.443 67.514 58.649 66.95C59.2535 66.668 59.864 66.374 60.473 66.065C61.0835 65.756 61.691 65.429 62.2925 65.0825C62.8958 64.7325 63.4862 64.3608 64.0625 63.968C64.6414 63.5682 65.201 63.1412 65.7395 62.6885C66.2814 62.2275 66.7953 61.7346 67.2785 61.2125C67.771 60.676 68.2251 60.1056 68.6375 59.5055C69.2902 58.5503 69.8275 57.5211 70.238 56.4395C70.5398 55.6499 70.7775 54.8372 70.949 54.0095C71.0405 53.5775 71.1185 53.1305 71.1815 52.6685C71.2445 52.205 71.291 51.728 71.324 51.2345C71.3555 50.741 71.372 50.2325 71.3705 49.706L71.384 49.727V49.724C71.3801 49.705 71.3761 49.686 71.372 49.667C71.372 49.667 70.0565 52.2275 67.5875 54.5765C65.1185 56.924 62.894 57.8465 62.894 57.8465C62.894 57.8465 63.4535 57.851 64.2065 58.241L64.2155 58.2455C64.4204 58.3527 64.6169 58.475 64.8035 58.6115C64.8455 58.6415 64.8875 58.6745 64.9295 58.7075C65.0135 58.772 65.0975 58.8425 65.183 58.9175C65.3657 59.0802 65.5375 59.256 65.6975 59.441C64.403 61.106 62.3075 63.4535 60.347 64.295C59.024 64.865 57.8 65.1455 56.708 64.925C56.2529 64.8322 55.8205 64.6502 55.436 64.3895C55.3432 64.3265 55.2531 64.2594 55.166 64.1885C55.0788 64.1182 54.9948 64.0441 54.914 63.9665C54.8372 63.8923 54.7631 63.8152 54.692 63.7355C54.6578 63.6961 54.6243 63.6561 54.5915 63.6155C54.5765 63.6005 54.566 63.5855 54.5525 63.569L54.497 63.4985C54.4377 63.4211 54.3811 63.3415 54.3275 63.26C54.2521 63.1453 54.1821 63.0272 54.1175 62.906H54.116C53.9731 62.6373 53.8575 62.3548 53.771 62.063C53.7281 61.92 53.693 61.7748 53.666 61.628L53.375 55.1H46.646L46.3655 61.4615H46.361C46.361 61.4615 46.3115 62.003 46.001 62.6765L45.9456 62.7905C45.8218 63.0389 45.6746 63.2765 45.506 63.497L45.4671 63.5465L45.4115 63.617C45.3446 63.6977 45.2746 63.7757 45.2015 63.851C45.0866 63.9709 44.9643 64.0836 44.8355 64.1885L44.7591 64.2485L44.699 64.295L44.5655 64.3895L44.5415 64.4045C44.3705 64.5185 44.1965 64.6145 44.0165 64.6955C42.7535 65.258 41.279 64.994 39.6545 64.295C37.6955 63.4535 35.6 61.106 34.3055 59.441L34.433 59.2985C34.5946 59.1258 34.7659 58.9626 34.946 58.8095C35.0666 58.7088 35.1917 58.6137 35.321 58.5245C36.3035 57.854 37.1075 57.845 37.1075 57.845C37.1075 57.845 34.8846 56.924 32.4155 54.575C29.9451 52.2275 28.631 49.667 28.631 49.667Z" fill="#C7C7C7" stroke="#C5C5C5" stroke-width="0.069"></path><path d="M50 31.586C48.1536 31.5856 46.3826 32.3186 45.0765 33.6238C43.7705 34.929 43.0363 36.6995 43.0355 38.546C43.0355 42.3905 46.154 45.506 50 45.506C50.9262 45.5252 51.8469 45.3594 52.7081 45.0183C53.5694 44.6771 54.3539 44.1675 55.0157 43.5193C55.6775 42.8711 56.2033 42.0974 56.5622 41.2434C56.9211 40.3894 57.106 39.4723 57.106 38.546C57.106 37.6196 56.9211 36.7026 56.5622 35.8486C56.2033 34.9946 55.6775 34.2208 55.0157 33.5726C54.3539 32.9244 53.5694 32.4148 52.7081 32.0737C51.8469 31.7326 50.9262 31.5667 50 31.586ZM50 42.3695C48.9856 42.3699 48.0125 41.9673 47.2949 41.2502C46.5773 40.5332 46.1739 39.5604 46.1735 38.546C46.1731 37.5315 46.5757 36.5585 47.2928 35.8409C48.0098 35.1232 48.9826 34.7199 49.997 34.7195C51.0115 34.7191 51.9845 35.1217 52.7021 35.8387C53.4198 36.5558 53.8231 37.5285 53.8235 38.543C53.8239 39.5574 53.4213 40.5305 52.7043 41.2481C51.9872 41.9657 51.0145 42.3691 50 42.3695Z" fill="#C5C5C5" stroke="black" stroke-width="0.3465"></path><path d="M59.75 48.3016C59.7496 49.5815 59.4971 50.8488 59.0069 52.0311C58.5167 53.2135 57.7983 54.2877 56.893 55.1923C55.9876 56.097 54.9128 56.8145 53.7301 57.3038C52.5474 57.7931 51.2799 58.0447 50 58.0441C44.615 58.0441 40.25 53.6836 40.25 48.3016C40.2504 47.0217 40.5029 45.7543 40.9931 44.572C41.4833 43.3897 42.2017 42.3155 43.107 41.4108C44.0124 40.5061 45.0872 39.7886 46.2699 39.2993C47.4526 38.81 48.7201 38.5585 50 38.5591C55.385 38.5591 59.75 42.9211 59.75 48.3016Z" fill="#414141"></path><path d="M58.7045 48.3016C58.7045 53.1061 54.8075 57.0016 50 57.0016C48.8572 57.002 47.7255 56.7772 46.6695 56.3402C45.6136 55.9032 44.654 55.2624 43.8457 54.4545C43.0374 53.6467 42.3962 52.6875 41.9586 51.6317C41.521 50.576 41.2957 49.4444 41.2955 48.3016C41.2955 43.4971 45.1925 39.6016 50 39.6016C51.1429 39.6012 52.2746 39.8259 53.3305 40.2629C54.3865 40.6999 55.346 41.3407 56.1543 42.1486C56.9626 42.9565 57.6039 43.9157 58.0415 44.9714C58.479 46.0271 58.7043 47.1587 58.7045 48.3016Z" fill="white"></path><path d="M57.6591 48.302C57.6589 49.3076 57.4606 50.3033 57.0756 51.2322C56.6906 52.1612 56.1264 53.0053 55.4152 53.7162C54.704 54.4271 53.8597 54.991 52.9306 55.3756C52.0015 55.7603 51.0057 55.9582 50.0001 55.958C48.9945 55.9582 47.9987 55.7603 47.0696 55.3756C46.1404 54.991 45.2962 54.4271 44.585 53.7162C43.8738 53.0053 43.3095 52.1612 42.9245 51.2322C42.5395 50.3033 42.3413 49.3076 42.3411 48.302C42.3419 46.2713 43.1492 44.3242 44.5855 42.8887C46.0218 41.4532 47.9694 40.6471 50.0001 40.6475C52.0307 40.6471 53.9783 41.4532 55.4146 42.8887C56.8509 44.3242 57.6583 46.2713 57.6591 48.302Z" fill="white"></path><path d="M50 54.9063C50.868 54.9071 51.7277 54.7368 52.53 54.4053C53.3322 54.0738 54.0613 53.5876 54.6756 52.9742C55.2898 52.3609 55.7773 51.6326 56.1101 50.8309C56.4428 50.0292 56.6144 49.1698 56.615 48.3018C56.6144 47.4337 56.4428 46.5743 56.1101 45.7726C55.7773 44.9709 55.2898 44.2426 54.6756 43.6293C54.0613 43.016 53.3322 42.5297 52.53 42.1982C51.7277 41.8667 50.868 41.6965 50 41.6973C49.132 41.6965 48.2723 41.8667 47.4701 42.1982C46.6678 42.5297 45.9387 43.016 45.3245 43.6293C44.7102 44.2426 44.2227 44.9709 43.89 45.7726C43.5572 46.5743 43.3856 47.4337 43.385 48.3018C43.3856 49.1698 43.5572 50.0292 43.89 50.8309C44.2227 51.6326 44.7102 52.3609 45.3245 52.9742C45.9387 53.5876 46.6678 54.0738 47.4701 54.4053C48.2723 54.7368 49.132 54.9071 50 54.9063Z" fill="black" stroke="black" stroke-width="0.0915" stroke-linecap="round"></path><path d="M52.1151 44.5098C52.1151 44.5098 55.8726 47.4468 53.1111 51.6678C55.7121 50.0778 55.9371 45.7083 52.1151 44.5098ZM50.0001 44.0928C49.4016 44.7678 48.3741 44.0973 48.7281 43.3623C49.3461 44.4708 50.0001 43.5753 50.0001 43.5753C50.0001 43.5753 50.6541 44.4708 51.2721 43.3623C51.6261 44.0973 50.5971 44.7678 50.0001 44.0928Z" fill="#C7C7C7" stroke="black" stroke-width="0.069"></path><path d="M50 53.24L49.571 52.6775C49.571 52.6775 48.5585 53.015 47.2265 52.55C48.3185 52.55 48.9275 52.358 49.1525 52.2455C49.1525 52.2455 46.6805 50.9135 46.7285 48.2015C46.8725 45.4565 48.3335 44.6225 48.3335 44.6225C48.3335 44.6225 45.7325 48.4099 49.5545 51.5749L49.385 47.66V44.7829C49.6025 44.7304 50 44.2729 50 44.2729C50 44.2729 50.3975 44.7304 50.615 44.7829V47.66L50.4455 51.5749C54.2675 48.4099 51.665 44.6225 51.665 44.6225C51.665 44.6225 53.1275 45.4565 53.27 48.2015C53.3195 50.9135 50.8475 52.2455 50.8475 52.2455C51.0725 52.358 51.6815 52.55 52.7735 52.55C51.4415 53.015 50.429 52.6775 50.429 52.6775L50 53.24Z" fill="#C7C7C7" stroke="black" stroke-width="0.069"></path><path d="M47.8851 44.5098C47.8851 44.5098 44.1276 47.4468 46.8891 51.6678C44.2881 50.0778 44.0631 45.7083 47.8851 44.5098Z" fill="#C7C7C7" stroke="black" stroke-width="0.069"></path><path fill-rule="evenodd" clip-rule="evenodd" d="M50.0029 21.7603C43.4051 21.7647 37.0146 24.0653 31.9279 28.2673C26.8424 32.4682 23.3789 38.3093 22.1329 44.7868L29.6344 46.2028C30.5505 41.4741 33.084 37.2118 36.7999 34.1473C40.5169 31.0811 45.1845 29.4033 50.0029 29.4013C54.8029 29.4058 59.4529 31.0738 63.1609 34.1203C66.8689 37.1659 69.406 41.4031 70.3399 46.1098L77.8639 44.6878C76.598 38.2305 73.1276 32.4138 68.0464 28.2328C62.9628 24.0489 56.5839 21.7605 49.9999 21.7588L50.0029 21.7603Z" fill="black" stroke="#585858" stroke-width="0.693" stroke-linecap="round"></path><path d="M74.5835 43.4279L74.447 42.9929L74.882 42.8564L75.017 43.2914L74.582 43.4264L74.5835 43.4279ZM73.3925 43.0559L72.902 43.2104L73.0355 43.6349C73.145 43.9814 73.3985 44.0939 73.7975 43.9679C73.9505 43.9199 74.1665 43.7384 74.447 43.4234L74.0645 43.1144L73.7525 43.4444C73.728 43.4717 73.6971 43.4923 73.6625 43.5044C73.5845 43.5284 73.5275 43.4894 73.496 43.3844L73.3925 43.0559Z" fill="#C7C7C7"></path><path d="M72.152 43.3892L72.014 43.0082L72.3995 42.8687L72.5375 43.2512L72.152 43.3892ZM71.966 42.8747L71.828 42.4922L72.2135 42.3527L72.3515 42.7352L71.966 42.8747ZM72.938 43.3097L72.902 43.2107C72.8691 43.1167 72.8634 43.0153 72.8855 42.9182C72.9056 42.821 72.953 42.7315 73.022 42.6602C72.9205 42.6551 72.8232 42.6185 72.7434 42.5556C72.6636 42.4928 72.6053 42.4067 72.5765 42.3092L72.494 42.0812L72.977 41.9072L73.007 41.9897C73.07 42.1622 73.1975 42.2147 73.3925 42.1427L73.8695 41.9702L74.024 42.3977L73.7795 42.4862C73.43 42.6122 73.301 42.8012 73.3925 43.0517L73.4225 43.1357L72.938 43.3097Z" fill="#C7C7C7"></path><path d="M72.5255 41.5059C72.4339 41.5133 72.3417 41.5097 72.251 41.4954C71.9705 41.4654 71.483 41.1954 70.79 40.6824L71.075 40.3044C71.24 40.4319 71.4005 40.5459 71.555 40.6479C71.912 40.8834 72.182 41.0109 72.365 41.0349C72.4345 41.0419 72.5046 41.0295 72.5675 40.9989C72.6216 40.9754 72.6698 40.94 72.7085 40.8954C72.7835 40.8234 72.9005 40.6824 73.0625 40.4754L73.4585 40.7514L73.0985 41.1969C73.0339 41.2686 72.9803 41.3495 72.9395 41.4369C72.8945 41.5614 72.905 41.7024 72.977 41.8614L73.022 41.9664L72.5525 42.1749L72.5075 42.0729C72.4645 41.984 72.4437 41.8859 72.4468 41.7872C72.4499 41.6885 72.4769 41.592 72.5255 41.5059ZM71.9315 39.7719C71.6285 39.9384 71.264 39.9459 70.841 39.7944C70.5053 39.6697 70.1945 39.4863 69.923 39.2529L70.181 38.8734C70.4615 39.0729 70.6415 39.1944 70.721 39.2394C71.0645 39.4299 71.3405 39.4899 71.5475 39.4209C71.4816 39.3596 71.4259 39.2882 71.3825 39.2094C71.3364 39.1337 71.3075 39.0488 71.2976 38.9607C71.2878 38.8726 71.2973 38.7834 71.3255 38.6994C71.3883 38.5314 71.5127 38.3936 71.6735 38.3139C71.8083 38.2376 71.9672 38.2161 72.1175 38.2539C72.1925 38.2686 72.2633 38.2998 72.3247 38.3452C72.3862 38.3906 72.4368 38.4491 72.473 38.5164C72.5589 38.6928 72.5724 38.8958 72.5105 39.0819C72.4355 39.3714 72.242 39.6024 71.9315 39.7719ZM71.942 39.1899C71.9848 39.1656 72.0216 39.1319 72.0496 39.0914C72.0777 39.0509 72.0962 39.0046 72.104 38.9559C72.1207 38.8885 72.1132 38.8174 72.083 38.7549C72.065 38.7219 72.032 38.6979 71.984 38.6814C71.936 38.6664 71.894 38.6664 71.8625 38.6844C71.7665 38.7369 71.7395 38.8179 71.7815 38.9259C71.822 39.0324 71.876 39.1209 71.942 39.1899ZM71.9015 37.6434L71.489 37.6794C71.476 37.5711 71.4498 37.4648 71.411 37.3629C71.3 37.1979 71.1185 37.1139 70.868 37.1109C70.852 37.1113 70.8365 37.116 70.823 37.1244C70.808 37.1334 70.8005 37.1439 70.802 37.1544C70.8238 37.2405 70.8593 37.3225 70.907 37.3974L71.0765 37.6929C71.1425 37.8069 71.168 37.9164 71.1515 38.0199C71.1421 38.076 71.1208 38.1294 71.089 38.1765C71.0571 38.2236 71.0155 38.2633 70.967 38.2929C70.7705 38.4279 70.511 38.4429 70.1915 38.3409C69.8255 38.2224 69.512 37.9734 69.2525 37.5894C69.041 37.2789 68.9825 36.9819 69.0755 36.7014C69.1505 36.4764 69.3155 36.2799 69.5675 36.1089C69.7025 36.0159 69.887 35.9364 70.118 35.8719L70.247 36.2769C70.064 36.3474 69.932 36.4089 69.8555 36.4614C69.641 36.6069 69.536 36.7659 69.5375 36.9369C69.5524 37.0847 69.6091 37.2252 69.701 37.3419C69.803 37.4919 69.9335 37.6329 70.0925 37.7589C70.316 37.9359 70.5065 38.0004 70.6625 37.9509C70.4315 37.5849 70.3025 37.3419 70.2755 37.2234C70.2425 37.0704 70.3115 36.9354 70.484 36.8184C70.673 36.6909 70.913 36.6669 71.2025 36.7464C71.4665 36.8184 71.6525 36.9324 71.7575 37.0884C71.861 37.2399 71.9075 37.4259 71.9015 37.6434ZM68.7305 34.5879C68.7684 34.5524 68.7923 34.5045 68.798 34.4529L68.96 33.3159L69.44 33.3504L69.275 34.5024C69.2577 34.6696 69.1811 34.825 69.059 34.9404C68.7335 35.2329 68.405 35.1954 68.0735 34.8294L67.7435 34.4634C67.5665 34.2699 67.5095 33.9969 67.5695 33.6444L68.0135 33.6669C68.003 33.6759 68 33.7299 68.006 33.8289C68.0135 33.9429 68.0405 34.0269 68.0885 34.0794L68.4695 34.4994C68.576 34.6194 68.6645 34.6479 68.7305 34.5879ZM67.0445 33.4524C66.7745 33.5319 66.2195 33.4749 65.3825 33.2829L65.5055 32.8179C66.2105 33.0084 66.6995 33.0639 66.9755 32.9859C67.0432 32.9652 67.1039 32.9263 67.151 32.8734C67.1911 32.8319 67.2209 32.7816 67.238 32.7264C67.2785 32.6304 67.334 32.4549 67.4015 32.1999L67.8785 32.3079L67.7165 32.8524C67.6823 32.9732 67.6201 33.0842 67.535 33.1764C67.3991 33.3106 67.2297 33.4059 67.0445 33.4524ZM65.1935 33.0399L64.8815 32.7804L65.144 32.4654L65.456 32.7249L65.1935 33.0399ZM64.772 32.6889L64.46 32.4294L64.7225 32.1144L65.0345 32.3739L64.772 32.6889ZM65.228 31.4034L64.898 31.7979L65.24 32.0829C65.5205 32.3154 65.795 32.2719 66.062 31.9494C66.164 31.8264 66.248 31.5564 66.3125 31.1409L65.8235 31.0869L65.7395 31.5339C65.7335 31.57 65.7185 31.6041 65.696 31.6329C65.6435 31.6959 65.576 31.6929 65.492 31.6224L65.228 31.4034Z" fill="#C7C7C7"></path><path d="M64.9851 31.8634L64.6686 31.6234C64.5912 31.5691 64.531 31.4937 64.4952 31.4063C64.4593 31.3188 64.4492 31.2229 64.4661 31.1299C64.4978 30.9426 64.5779 30.7667 64.6986 30.6199L65.6406 29.3779L66.0036 29.6524L65.1576 30.7669C65.0853 30.8505 65.032 30.9487 65.0016 31.0549C64.9836 31.1584 65.0286 31.2499 65.1381 31.3339L65.2971 31.4539L64.9851 31.8634ZM63.5016 31.7029L63.1671 31.4734L63.4011 31.1359L63.7356 31.3654L63.5016 31.7029ZM63.0516 31.3924L62.7156 31.1614L62.9481 30.8239L63.2826 31.0549L63.0516 31.3924ZM63.3876 30.0694L63.0951 30.4924L63.4611 30.7444C63.7611 30.9514 64.0311 30.8824 64.2681 30.5374C64.3581 30.4054 64.4181 30.1294 64.4436 29.7094L63.9516 29.7004L63.9096 30.1534C63.9071 30.1903 63.8952 30.226 63.8751 30.2569C63.8301 30.3244 63.7611 30.3259 63.6711 30.2644L63.3876 30.0694Z" fill="#C7C7C7"></path><path d="M63.2121 30.5174L63.0996 30.4529C63.0464 30.5519 62.9722 30.6379 62.8821 30.7049C62.6676 30.8534 62.3901 30.9059 62.0481 30.8639C61.7593 30.8278 61.4808 30.7339 61.2291 30.5879C60.6291 30.2429 60.5106 29.7479 60.8796 29.1089C60.9636 28.9619 61.0971 28.8119 61.2786 28.6589L61.5636 28.9679C61.4566 29.0671 61.3646 29.1813 61.2906 29.3069C61.0776 29.6759 61.1601 29.9699 61.5381 30.1874C61.9491 30.4244 62.2836 30.4964 62.5416 30.4049C62.5618 30.3983 62.5789 30.3844 62.5896 30.3659C62.6046 30.3434 62.5986 30.3179 62.5746 30.2909C62.3817 30.0844 62.18 29.8862 61.9701 29.6969L62.2836 29.3909L63.4686 30.0719L63.2121 30.5174ZM59.7906 28.6754L59.3736 28.4954L60.3216 26.3189L60.7386 26.4989L59.7906 28.6754ZM58.9911 28.1204C58.7736 28.2989 58.2396 28.4579 57.3906 28.6004L57.3261 28.1249C58.0491 28.0319 58.5246 27.8954 58.7511 27.7169C58.8053 27.6714 58.8458 27.6117 58.8681 27.5444C58.8891 27.4911 58.8973 27.4335 58.8921 27.3764C58.8921 27.2714 58.8756 27.0884 58.8411 26.8274L59.3211 26.7449L59.3811 27.3089C59.3961 27.4409 59.3811 27.5639 59.3376 27.6779C59.2641 27.8536 59.145 28.0064 58.9926 28.1204H58.9911ZM57.8421 26.1554L57.4521 26.0354L57.5721 25.6439L57.9621 25.7639L57.8421 26.1554ZM57.3171 25.9934L56.9301 25.8734L57.0501 25.4819L57.4401 25.6019L57.3171 25.9934ZM56.4681 26.9084L56.3151 27.3974L56.7411 27.5294C57.0891 27.6374 57.3261 27.4919 57.4491 27.0914C57.4956 26.9384 57.4701 26.6564 57.3696 26.2484L56.8971 26.3864L56.9916 26.8319C57.0002 26.8675 56.9996 26.9046 56.9901 26.9399C56.9661 27.0179 56.9001 27.0419 56.7966 27.0089L56.4666 26.9069L56.4681 26.9084Z" fill="#C7C7C7"></path><path d="M55.577 25.1385L55.175 25.0665L55.1015 25.4745L55.5035 25.5465L55.577 25.1385ZM55.076 25.0485L54.6815 24.9795L54.6095 25.386L55.004 25.4565L55.076 25.0485ZM55.406 24.618L54.9965 24.543L54.9245 24.9465L55.334 25.0185L55.406 24.618ZM54.809 25.6725L55.262 25.7535C55.166 26.283 55.2245 26.568 55.436 26.6055C55.565 26.628 55.646 26.5425 55.6805 26.3505L55.772 25.836L56.2175 25.9155C56.1575 26.25 56.15 26.478 56.192 26.5995C56.2235 26.694 56.306 26.7525 56.438 26.7765L56.54 26.7945L56.45 27.3L56.342 27.282C56.2386 27.2689 56.1404 27.2291 56.057 27.1665C55.9832 27.0929 55.9268 27.0037 55.892 26.9055C55.7345 27.0855 55.5515 27.156 55.343 27.1185C55.175 27.0885 55.037 26.9685 54.9275 26.7585C54.803 26.9175 54.6515 26.982 54.47 26.949C54.3615 26.9346 54.261 26.8838 54.185 26.805C54.154 27.0125 54.081 27.2116 53.9705 27.39C53.8614 27.5672 53.7036 27.7093 53.516 27.7995C53.2955 27.9 53.0135 27.9195 52.67 27.858C52.253 27.783 51.965 27.591 51.8045 27.282C51.6762 27.0233 51.6392 26.7288 51.6995 26.4465C51.7202 26.3631 51.7483 26.2818 51.7835 26.2035C51.8375 26.0685 51.8885 25.9665 51.941 25.893L52.3055 26.1015C52.2188 26.2315 52.1581 26.3773 52.127 26.5305C52.0835 26.7765 52.139 26.9745 52.295 27.1215C52.415 27.2355 52.58 27.312 52.7825 27.3465C53.03 27.3915 53.2355 27.366 53.4005 27.2685C53.49 27.2113 53.5656 27.1349 53.6219 27.0449C53.6782 26.9549 53.7138 26.8534 53.726 26.748C53.771 26.496 53.7065 26.148 53.534 25.7025L53.9585 25.5255C54.011 25.692 54.0635 25.845 54.1145 25.9845C54.2075 26.2335 54.3185 26.37 54.449 26.394C54.5975 26.421 54.689 26.334 54.725 26.139L54.809 25.6725ZM49.397 27.2655H48.9425V26.8095H49.397V27.2655ZM50.522 26.106L50.2625 26.46H48.5675V25.947H49.7345L49.259 25.4775C49.2286 25.4457 49.192 25.4204 49.1516 25.4031C49.1111 25.3858 49.0675 25.3769 49.0235 25.377H48.716V24.909H49.1135C49.179 24.9071 49.2442 24.9186 49.3051 24.9428C49.366 24.9671 49.4213 25.0035 49.4675 25.05L50.522 26.106Z" fill="#C7C7C7"></path><path d="M47.786 26.0007C47.7844 25.9539 47.7693 25.9086 47.7425 25.8702C47.7106 25.8346 47.6737 25.8037 47.633 25.7787C47.54 25.7142 47.465 25.6857 47.4065 25.6902C47.3645 25.6932 47.3225 25.7337 47.279 25.8102L47.189 25.9767C47.378 26.0997 47.5295 26.1567 47.6435 26.1462C47.747 26.1372 47.792 26.0892 47.786 26.0007ZM48.1355 26.3277C48.0939 26.406 48.0325 26.472 47.9576 26.5194C47.8826 26.5667 47.7966 26.5937 47.708 26.5977C47.5652 26.6118 47.4212 26.5875 47.291 26.5272L47.0135 26.3952C46.9656 26.4594 46.9046 26.5127 46.8345 26.5515C46.7644 26.5903 46.6869 26.6137 46.607 26.6202L46.493 26.6307L46.4525 26.1177L46.5425 26.1102C46.6355 26.1027 46.7075 26.0547 46.76 25.9632L46.8815 25.6782C47.0015 25.4112 47.1575 25.2687 47.351 25.2522C47.4578 25.2463 47.5648 25.2619 47.6655 25.2979C47.7662 25.334 47.8587 25.3899 47.9375 25.4622C48.11 25.6062 48.2075 25.7562 48.236 25.9107C48.3385 25.9486 48.4488 25.9604 48.557 25.9452L48.638 25.9392L48.68 26.4507L48.5705 26.4597C48.4928 26.4686 48.4141 26.4615 48.3393 26.4388C48.2645 26.4161 48.1951 26.3783 48.1355 26.3277Z" fill="#C7C7C7"></path><path d="M46.6069 26.6258L46.4959 26.6438C46.3996 26.6585 46.3064 26.6889 46.2199 26.7338C46.1044 26.7938 46.0534 26.8658 46.0669 26.9483C46.0774 27.0158 46.1479 27.0713 46.2769 27.1133C46.3174 27.1253 46.4119 27.1463 46.5619 27.1748L46.4869 27.6473C46.2212 27.6279 45.9662 27.5342 45.7511 27.377C45.5361 27.2197 45.3695 27.0052 45.2704 26.7578C45.2254 26.8178 45.1384 26.8598 45.0109 26.8793L44.8969 26.8973L44.8159 26.3903L44.8939 26.3783C45.0769 26.3483 45.1549 26.2538 45.1294 26.0948L45.0349 25.4948L45.4849 25.4243L45.6229 26.2868C45.6484 26.4488 45.6889 26.5733 45.7444 26.6633C45.7849 26.5296 45.8625 26.4102 45.9682 26.3188C46.0738 26.2275 46.2033 26.168 46.3414 26.1473L46.5259 26.1188L46.6054 26.6258H46.6069Z" fill="#C7C7C7"></path><path d="M43.07 26.5845C43.0316 26.433 43.0525 26.2726 43.1285 26.136C43.1634 26.0683 43.2129 26.0091 43.2733 25.9627C43.3337 25.9163 43.4036 25.8838 43.478 25.8675C43.6419 25.8315 43.813 25.8516 43.964 25.9245C44.1951 26.0346 44.3766 26.2273 44.4725 26.4645L44.885 26.367L45.0035 26.8665L44.591 26.964C44.591 27.198 44.5025 27.45 44.327 27.72C44.132 28.02 43.856 28.2885 43.502 28.527L43.2035 28.1655C43.4 28.0155 43.517 27.9255 43.553 27.8955C43.6835 27.786 43.7855 27.681 43.859 27.5775C43.9728 27.4222 44.0489 27.2424 44.081 27.0525C44.0441 27.0649 44.0066 27.0754 43.9685 27.084C43.7895 27.1331 43.5991 27.1199 43.4285 27.0465C43.3361 27.0036 43.2553 26.9391 43.1929 26.8584C43.1305 26.7778 43.0884 26.6833 43.07 26.583V26.5845ZM43.985 26.5575C43.9731 26.5102 43.9507 26.4661 43.9196 26.4285C43.8885 26.3908 43.8493 26.3606 43.805 26.34C43.7443 26.3049 43.6732 26.2922 43.604 26.304C43.568 26.313 43.535 26.3385 43.508 26.382C43.478 26.4255 43.469 26.463 43.478 26.499C43.5035 26.6055 43.574 26.6535 43.6895 26.6415C43.7931 26.6334 43.8926 26.6049 43.985 26.5575ZM42.701 27.2415C42.641 27.516 42.3215 27.9735 41.7455 28.6125L41.4005 28.2795C41.9075 27.756 42.1955 27.354 42.2615 27.075C42.2759 27.0055 42.2707 26.9333 42.2465 26.8665C42.2298 26.812 42.2005 26.7622 42.161 26.721C42.0423 26.5804 41.9151 26.4471 41.78 26.322L42.1055 25.9575L42.503 26.3625C42.5919 26.4507 42.6588 26.5586 42.698 26.6775C42.749 26.838 42.7505 27.0255 42.701 27.2415ZM40.5905 26.6235L40.5485 27.036C40.4397 27.0288 40.3304 27.0348 40.223 27.054C40.04 27.1335 39.923 27.294 39.8735 27.5415C39.8712 27.5567 39.8727 27.5722 39.878 27.5865C39.8855 27.6045 39.893 27.6135 39.905 27.6135C39.9935 27.6083 40.0806 27.5891 40.163 27.5565L40.4855 27.444C40.592 27.4004 40.7104 27.3957 40.82 27.4305C40.925 27.468 41.0045 27.5445 41.0555 27.663C41.15 27.882 41.117 28.1385 40.9565 28.4325C40.7735 28.7715 40.469 29.0325 40.043 29.217C39.698 29.367 39.3965 29.3685 39.1385 29.2245C38.9132 29.0873 38.74 28.8788 38.6465 28.632C38.5725 28.4451 38.5285 28.2477 38.516 28.047L38.939 27.996C38.975 28.1895 39.011 28.329 39.047 28.4145C39.1505 28.6515 39.287 28.785 39.455 28.815C39.6028 28.8275 39.751 28.7978 39.8825 28.7295C40.052 28.6575 40.2125 28.554 40.367 28.422C40.583 28.236 40.682 28.062 40.6625 27.897C40.2575 28.0575 39.995 28.1385 39.8735 28.143C39.7175 28.1475 39.599 28.053 39.5165 27.864C39.4265 27.654 39.446 27.414 39.578 27.144C39.698 26.898 39.845 26.739 40.0175 26.664C40.1992 26.5894 40.4002 26.5752 40.5905 26.6235ZM37.7555 29.493L37.361 29.718L36.1865 27.6555L36.581 27.4305L37.7555 29.493ZM35.462 29.3325C35.7515 29.766 35.996 29.916 36.197 29.7825C36.314 29.703 36.3395 29.613 36.272 29.5125C36.206 29.4135 36.053 29.304 35.813 29.184L35.999 28.788C36.338 28.944 36.56 29.1 36.665 29.2575C36.7701 29.3983 36.8231 29.5711 36.815 29.7465C36.8062 29.8328 36.7772 29.9158 36.7303 29.9888C36.6833 30.0618 36.6199 30.1227 36.545 30.1665C36.455 30.2329 36.3491 30.2744 36.238 30.2867C36.1269 30.2991 36.0144 30.282 35.912 30.237C35.9297 30.3408 35.9162 30.4475 35.8732 30.5436C35.8302 30.6398 35.7597 30.721 35.6705 30.777C35.5846 30.8286 35.4871 30.8577 35.3869 30.8616C35.2868 30.8655 35.1873 30.8442 35.0975 30.7995C35.1074 30.9081 35.086 31.0173 35.0361 31.1143C34.9862 31.2112 34.9097 31.2919 34.8155 31.347L34.7225 31.41L34.4375 30.9825L34.4975 30.942C34.5725 30.8925 34.616 30.846 34.631 30.801C34.6535 30.7365 34.6295 30.651 34.559 30.5445L34.274 30.117L34.6505 29.865C34.8005 30.0885 34.922 30.2355 35.018 30.309C35.138 30.402 35.252 30.4125 35.363 30.339C35.4215 30.2985 35.4485 30.2385 35.444 30.159C35.4396 30.0875 35.4157 30.0185 35.375 29.9595L35.111 29.5665L35.462 29.3325Z" fill="#C7C7C7"></path><path d="M34.4795 30.9544L34.8095 31.3489L34.724 31.4194C34.478 31.6264 34.217 31.6264 33.941 31.4209C33.9965 31.8109 33.857 32.1469 33.521 32.4274C33.3339 32.5721 33.1109 32.6628 32.876 32.6899L32.684 32.4604L33.359 31.8934L31.679 31.1689L31.817 30.7489L33.5045 31.4839C33.5067 31.3961 33.486 31.3093 33.4445 31.2319C33.409 31.1522 33.3631 31.0775 33.308 31.0099L32.57 30.1294L32.9195 29.8369L33.662 30.7219C33.8525 30.9499 34.013 31.0759 34.142 31.1014C34.232 31.1179 34.325 31.0849 34.4255 31.0009L34.4795 30.9544ZM32.0945 33.0034C32.045 32.9539 31.964 32.9329 31.8485 32.9389C31.7345 32.9449 31.652 32.9734 31.6025 33.0229C31.574 33.0499 31.568 33.1069 31.583 33.1909L31.619 33.3724C31.847 33.3424 31.9985 33.2899 32.075 33.2134C32.1515 33.1369 32.1575 33.0664 32.0945 33.0034ZM32.4005 33.5374C32.3056 33.6321 32.1893 33.7026 32.0615 33.7429C31.9604 33.7709 31.8577 33.7924 31.754 33.8074C31.757 34.0009 31.706 34.1494 31.5995 34.2559L31.52 34.3339L31.157 33.9709L31.2095 33.9184C31.2785 33.8494 31.2965 33.7339 31.2665 33.5719C31.2375 33.4222 31.2075 33.2727 31.1765 33.1234C31.16 32.9479 31.1975 32.8144 31.292 32.7199C31.409 32.6029 31.5845 32.5339 31.817 32.5159C32.069 32.4964 32.261 32.5549 32.3975 32.6899C32.516 32.8099 32.576 32.9509 32.5775 33.1144C32.5791 33.1932 32.5643 33.2715 32.5341 33.3443C32.5039 33.4171 32.4574 33.4829 32.4005 33.5374Z" fill="#C7C7C7"></path><path d="M31.5725 34.2318L31.4915 34.3308C31.58 34.3997 31.6522 34.4873 31.703 34.5873C31.814 34.8228 31.82 35.1063 31.721 35.4348C31.6375 35.7136 31.4988 35.9727 31.313 36.1968C30.872 36.7323 30.3665 36.7668 29.795 36.2958C29.6434 36.1624 29.5155 36.0041 29.417 35.8278L29.7695 35.5998C29.8496 35.7218 29.9472 35.8315 30.0591 35.9253C30.3891 36.1953 30.692 36.1638 30.9695 35.8263C31.271 35.4603 31.3986 35.1423 31.3506 34.8738C31.3475 34.8527 31.3368 34.8335 31.3205 34.8198C31.2995 34.8018 31.2755 34.8033 31.2455 34.8198C31.145 34.8798 30.9155 35.0463 30.5555 35.3193L30.3066 34.9593L31.1765 33.9048L31.5725 34.2318ZM29.1875 37.2978L28.9401 37.6788L26.951 36.3843L27.1985 36.0033L29.1875 37.2978ZM29.414 38.3523L29.204 38.7003L28.853 38.4888L29.063 38.1408L29.414 38.3508V38.3523ZM29.1305 38.8218L28.9205 39.1698L28.5695 38.9598L28.7796 38.6103L29.1305 38.8218ZM27.7895 38.5683L28.2305 38.8323L28.46 38.4513C28.6475 38.1393 28.562 37.8753 28.2035 37.6608C28.0655 37.5783 27.7865 37.5363 27.365 37.5363L27.3876 38.0283L27.8406 38.0433C27.8771 38.0429 27.9132 38.0516 27.9455 38.0688C28.016 38.1123 28.0235 38.1798 27.9665 38.2728L27.7895 38.5683Z" fill="#C7C7C7"></path><path d="M27.7595 39.1682C27.794 39.1967 27.8495 39.2702 27.9245 39.3872C28.076 39.6257 28.1705 40.1747 28.2065 41.0357L27.734 41.0507C27.7295 40.8544 27.7185 40.6583 27.701 40.4627C27.659 40.0367 27.59 39.7442 27.4925 39.5882C27.4549 39.53 27.4019 39.4833 27.3395 39.4532C27.287 39.4257 27.2291 39.4103 27.17 39.4082C26.9868 39.3938 26.803 39.3903 26.6195 39.3977L26.5865 38.9162H27.1595C27.2945 38.9162 27.389 38.9072 27.446 38.8877C27.572 38.8472 27.674 38.7482 27.7535 38.5937L27.806 38.4917L28.2635 38.7257L28.2125 38.8262C28.1702 38.9156 28.1069 38.9933 28.028 39.0529C27.9491 39.1125 27.857 39.152 27.7595 39.1682ZM27.1895 40.8782L27.0095 41.2937L24.83 40.3487L25.0115 39.9332L27.1895 40.8782ZM26.366 41.4107C26.6161 41.4991 26.8333 41.6619 26.9885 41.8772C27.2285 42.1997 27.2705 42.5747 27.119 43.0037C27.0754 43.1431 27.0035 43.272 26.9078 43.3822C26.812 43.4924 26.6944 43.5816 26.5625 43.6442C26.4288 43.7054 26.2842 43.7389 26.1373 43.7428C25.9903 43.7466 25.8441 43.7208 25.7075 43.6667C25.5622 43.6041 25.4235 43.5272 25.2935 43.4372L25.523 43.0922C25.613 43.1462 25.718 43.1942 25.8335 43.2347C25.9135 43.2659 25.9994 43.2788 26.085 43.2726C26.1706 43.2664 26.2538 43.2411 26.3285 43.1987C26.4786 43.1114 26.5909 42.9713 26.6435 42.8057C26.6817 42.7115 26.7009 42.6106 26.6999 42.5088C26.6989 42.4071 26.6776 42.3066 26.6375 42.2132C26.5946 42.1222 26.533 42.0413 26.4567 41.9756C26.3805 41.91 26.2913 41.8611 26.195 41.8322C26.06 41.7842 25.847 41.7752 25.553 41.8022L25.4435 41.3462C25.7165 41.2682 26.024 41.2907 26.366 41.4107ZM25.5185 42.2567L25.3685 42.6857L24.9395 42.5342L25.0895 42.1052L25.5185 42.2567Z" fill="#C7C7C7"></path></g></g></svg> 