<?xml version="1.0" encoding="UTF-8"?>
<svg xmlns="http://www.w3.org/2000/svg" viewBox="17.34 1.13 110.08 61.9">
  <path d="M28.28 53.534h-1.138a.217.217 0 0 0-.216.217v1.063c0 .12.097.217.216.217h1.137c.12 0 .217-.097.217-.217V53.75a.217.217 0 0 0-.216-.217m15.136 7.237h-2.883a.217.217 0 0 0-.217.217v1.076c0 .12.097.217.217.217h2.883c.12 0 .217-.098.217-.217v-1.076a.217.217 0 0 0-.217-.218m.587-6.803-1.5.37a.22.22 0 0 0-.163.212v2.12a.91.91 0 0 1-.917.918H32.08a.194.194 0 0 1-.193-.194v-3.227a.216.216 0 0 0-.173-.213.2.2 0 0 0-.098.002l-1.514.38a.22.22 0 0 0-.163.21v5.632a.92.92 0 0 1-.263.655.85.85 0 0 1-.64.277h-1.258a.83.83 0 0 1-.458-.133 1 1 0 0 1-.333-.339.87.87 0 0 1-.125-.46v-3.492a.217.217 0 0 0-.271-.21l-1.502.38a.22.22 0 0 0-.162.21v3.115c-.005.505.128 1 .383 1.435.25.43.607.788 1.036 1.038.434.256.93.388 1.432.384h1.257c.503.004.998-.128 1.432-.384.43-.25.786-.608 1.036-1.038a2.8 2.8 0 0 0 .383-1.434v-.46a.194.194 0 0 1 .194-.195h9.34c.5.002.99-.131 1.42-.383a2.84 2.84 0 0 0 1.432-2.473v-2.493a.217.217 0 0 0-.27-.21m6.901-.143h-2.635a2.74 2.74 0 0 0-1.432.39 2.9 2.9 0 0 0-1.036 1.045c-.254.43-.386.922-.383 1.422-.005.51.134 1.012.402 1.447.25.418.597.77 1.01 1.025q.61.372 1.188.372h.18a.097.097 0 0 1 .055.177l-1.986 1.313a.22.22 0 0 0-.06.302l.837 1.249a.217.217 0 0 0 .3.06l3.681-2.459a.22.22 0 0 0 .097-.18V54.04a.22.22 0 0 0-.135-.201.2.2 0 0 0-.083-.017m-1.717 3.763h-.918a.915.915 0 0 1-.916-.913.92.92 0 0 1 .917-.924h.917zm5.436 1.722v-8.301a.218.218 0 0 0-.271-.212l-1.5.372a.216.216 0 0 0-.163.21v7.93a.217.217 0 0 0 .216.218h1.5a.216.216 0 0 0 .218-.217" fill="#fff"></path>
  <path d="m57.831 53.97-1.513.38a.216.216 0 0 0-.163.21v4.868a.22.22 0 0 1-.096.18l-2.102 1.407a.217.217 0 0 0-.06.302l.839 1.248a.216.216 0 0 0 .3.06l2.97-1.986a.22.22 0 0 0 .096-.181v-6.28a.217.217 0 0 0-.27-.208m17.918.224a2.8 2.8 0 0 0-1.432-.383h-2.635a.217.217 0 0 0-.216.217v2.64a.924.924 0 0 1-.917.918h-5.954c-.72 0-1.41.286-1.919.796a2.72 2.72 0 0 0 0 3.843c.51.51 1.2.797 1.92.797h4.582a.22.22 0 0 0 .21-.16l.408-1.49a.216.216 0 0 0-.21-.275h-4.99a.793.793 0 0 1-.733-1.091.8.8 0 0 1 .173-.25.76.76 0 0 1 .56-.233h5.953c.352.002.7-.068 1.024-.207q.392-.166.721-.438a.22.22 0 0 1 .279 0q.328.27.721.438c.323.139.672.21 1.024.207a2.84 2.84 0 0 0 2.47-1.428c.255-.437.387-.934.383-1.44a2.76 2.76 0 0 0-.383-1.422 2.87 2.87 0 0 0-1.039-1.039m-.79 3.121a.88.88 0 0 1-.654.272.86.86 0 0 1-.64-.272.9.9 0 0 1-.265-.648v-.918h.905a.88.88 0 0 1 .653.271.93.93 0 0 1 0 1.296m7.609-3.493H78.44a.217.217 0 0 0-.216.217v1.504a.22.22 0 0 0 .216.217h2.421v.906a.88.88 0 0 1-.27.655.9.9 0 0 1-.648.264H78.44a.217.217 0 0 0-.216.217v1.504a.217.217 0 0 0 .216.217h1.504c.502.004.995-.128 1.426-.384a2.9 2.9 0 0 0 1.03-1.038c.253-.43.386-.922.383-1.422v-2.64a.217.217 0 0 0-.217-.217m14.269.384a2.8 2.8 0 0 0-1.426-.384h-4.434l2.513-1.466a.22.22 0 0 0 .104-.227.2.2 0 0 0-.034-.081l-.758-1.13a.194.194 0 0 0-.258-.06l-5.01 2.91a.2.2 0 0 0-.097.169v1.633a.193.193 0 0 0 .192.19h7.782a.9.9 0 0 1 .647.264.86.86 0 0 1 .271.642.88.88 0 0 1-.293.677.94.94 0 0 1-.637.242h-9.484v-6.581a.216.216 0 0 0-.178-.213.2.2 0 0 0-.1.005l-1.5.439a.22.22 0 0 0-.157.208v7.862a.217.217 0 0 0 .217.218H95.41c.501.002.994-.13 1.426-.384.433-.25.794-.608 1.049-1.038a2.82 2.82 0 0 0 0-2.857 2.9 2.9 0 0 0-1.05-1.038m4.273-3.412-1.501.37a.22.22 0 0 0-.163.211v7.93a.217.217 0 0 0 .217.218h1.501a.216.216 0 0 0 .217-.217v-8.301a.214.214 0 0 0-.173-.214.2.2 0 0 0-.098.003m1.818-2.308-1.263-.44a.22.22 0 0 0-.197.029.22.22 0 0 0-.091.177v.289h-3.414a.217.217 0 0 0-.217.217v1.063a.22.22 0 0 0 .217.217h4.894a.217.217 0 0 0 .217-.217v-1.129a.22.22 0 0 0-.146-.206m-5.082-6.975H83.688a6.07 6.07 0 0 1-3.716-1.273l-12.256-9.502a6.06 6.06 0 0 0-7.432 0l-12.256 9.502a6.07 6.07 0 0 1-3.716 1.273H30.156a6.06 6.06 0 0 1-5.256-3.04l-6.746-11.698a6.09 6.09 0 0 1 0-6.08l6.745-11.698a6.07 6.07 0 0 1 5.257-3.04h14.156c1.345 0 2.652.447 3.716 1.272l12.256 9.503a6.06 6.06 0 0 0 7.432 0l12.256-9.504a6.07 6.07 0 0 1 3.716-1.273h14.156a6.06 6.06 0 0 1 5.256 3.04l6.746 11.7a6.1 6.1 0 0 1 0 6.08l-6.745 11.698a6.07 6.07 0 0 1-5.257 3.04M85.91 34.998h8.179a6.06 6.06 0 0 0 5.256-3.04l2.989-5.184a6.09 6.09 0 0 0 0-6.08l-2.99-5.184a6.08 6.08 0 0 0-5.256-3.04H85.91a6.06 6.06 0 0 0-3.716 1.272L69.31 23.734l12.884 9.991a6.06 6.06 0 0 0 3.716 1.273m-52 0h8.178a6.06 6.06 0 0 0 3.716-1.273l12.884-9.991-12.884-9.992a6.06 6.06 0 0 0-3.716-1.272H33.91a6.06 6.06 0 0 0-5.256 3.04l-2.99 5.184a6.09 6.09 0 0 0 0 6.08l2.99 5.184a6.08 6.08 0 0 0 5.256 3.04" fill="#fff"></path>
  <path d="m125.791 1.567 1.517 2.632a.87.87 0 0 1-.317 1.187l-15.957 9.228a.433.433 0 0 1-.592-.159l-1.707-2.962a.926.926 0 0 1 .337-1.26l15.535-8.984a.863.863 0 0 1 1.184.318" fill="url(#a)"></path>
  <path d="M124.478 10.054h-15.097l-.355.206a.86.86 0 0 0-.405.527.88.88 0 0 0 .087.66l1.701 2.95a.86.86 0 0 0 .751.434h13.318a.867.867 0 0 0 .867-.868v-3.04a.87.87 0 0 0-.867-.869" fill="url(#b)"></path>
  <defs>
    <linearGradient id="a" x1="126.55" y1="2.883" x2="109.452" y2="12.737" gradientUnits="userSpaceOnUse">
      <stop stop-color="#FC3E35"></stop>
      <stop offset="1" stop-color="#8250FF"></stop>
    </linearGradient>
    <linearGradient id="b" x1="124.874" y1="10.253" x2="111.217" y2="17.346" gradientUnits="userSpaceOnUse">
      <stop stop-color="#019BE5"></stop>
      <stop offset="1" stop-color="#860EFE"></stop>
    </linearGradient>
  </defs>
</svg>
