<?xml version="1.0" encoding="UTF-8"?> <svg xmlns="http://www.w3.org/2000/svg" width="124" height="124" viewBox="0 0 124 124" fill="none"><g filter="url(#a)"><path fill-rule="evenodd" clip-rule="evenodd" d="M81.84 102.081c0 .691-.562 1.252-1.253 1.252H41.758a1.253 1.253 0 0 1-1.252-1.252v-1.253c0-.692.56-1.252 1.252-1.252h38.829c.691 0 1.252.56 1.252 1.252v1.253Z" fill="#262626"></path></g><g filter="url(#b)"><path d="M93.604 91.443c3.63-2.09 20.063-30.426 20.063-34.605 0-4.178-16.432-32.515-20.063-34.605-3.63-2.089-59.603-2.089-63.207 0-3.63 2.09-20.063 30.427-20.063 34.605 0 4.179 16.432 32.516 20.063 34.605 3.63 2.09 59.576 2.062 63.207 0Z" fill="#262626"></path><path d="m30.896 23.1.002-.001s.018-.01.068-.03c.047-.018.112-.04.197-.065.17-.049.397-.101.682-.155.571-.107 1.329-.21 2.257-.306 1.854-.193 4.328-.355 7.226-.486 5.791-.26 13.223-.39 20.662-.39 7.44 0 14.874.13 20.668.39 2.9.13 5.376.293 7.232.486.93.096 1.69.199 2.262.306.286.054.513.106.685.156a2.238 2.238 0 0 1 .269.095c.109.063.311.22.61.524.29.292.63.678 1.016 1.155.772.952 1.694 2.221 2.712 3.718 2.034 2.99 4.415 6.837 6.688 10.757 2.273 3.92 4.428 7.898 6.012 11.147.793 1.625 1.435 3.055 1.877 4.197.222.572.388 1.058.497 1.453.114.41.149.662.149.787s-.035.377-.149.788c-.109.394-.275.88-.497 1.452-.442 1.142-1.084 2.572-1.877 4.198-1.584 3.25-3.739 7.226-6.012 11.146-2.273 3.92-4.654 7.768-6.688 10.758-1.018 1.496-1.94 2.765-2.712 3.718-.386.477-.726.863-1.015 1.155-.296.3-.497.456-.608.52a2.453 2.453 0 0 1-.27.095 7.22 7.22 0 0 1-.685.155c-.573.106-1.332.207-2.262.303-1.856.191-4.332.352-7.23.482-5.793.259-13.224.39-20.662.392-7.438.001-14.869-.126-20.661-.385-2.898-.129-5.373-.29-7.23-.482a29.264 29.264 0 0 1-2.26-.306 7.572 7.572 0 0 1-.685-.155 2.408 2.408 0 0 1-.199-.066c-.048-.018-.068-.03-.07-.03-.109-.063-.31-.22-.61-.523a16.076 16.076 0 0 1-1.016-1.155c-.772-.953-1.694-2.222-2.712-3.718-2.034-2.99-4.415-6.837-6.688-10.758-2.273-3.92-4.428-7.897-6.012-11.146-.792-1.626-1.435-3.056-1.877-4.198a15.994 15.994 0 0 1-.497-1.453c-.114-.41-.149-.662-.149-.787s.035-.377.15-.787c.108-.395.274-.881.496-1.453.442-1.142 1.085-2.572 1.877-4.197 1.584-3.25 3.739-7.227 6.012-11.147 2.273-3.92 4.654-7.767 6.688-10.757 1.018-1.497 1.94-2.766 2.712-3.718.387-.477.727-.863 1.015-1.155.3-.303.502-.46.612-.524Z" stroke="#fff" stroke-width="2"></path></g><path fill-rule="evenodd" clip-rule="evenodd" d="M32.365 46.77c0-.692.561-1.253 1.253-1.253h11.899c.692 0 1.252.56 1.252 1.252v1.253c0 .692-.56 1.253-1.252 1.253H33.618a1.253 1.253 0 0 1-1.253-1.253v-1.253Zm.001 8.767c0-.692.56-1.252 1.252-1.252h26.303c.692 0 1.253.56 1.253 1.252v1.253c0 .691-.56 1.252-1.253 1.252H33.618c-.691 0-1.252-.56-1.252-1.252v-1.253Zm-.002 8.768c0-.692.561-1.253 1.253-1.253h55.11c.693 0 1.254.561 1.254 1.253v1.252c0 .692-.561 1.253-1.253 1.253H33.617c-.692 0-1.253-.56-1.253-1.253v-1.252Z" fill="#fff"></path><defs><filter id="a" x="40.506" y="99.576" width="43.839" height="6.263" filterUnits="userSpaceOnUse" color-interpolation-filters="sRGB"><feFlood flood-opacity="0" result="BackgroundImageFix"></feFlood><feColorMatrix in="SourceAlpha" values="0 0 0 0 0 0 0 0 0 0 0 0 0 0 0 0 0 0 127 0" result="hardAlpha"></feColorMatrix><feOffset dx="2.505" dy="2.505"></feOffset><feComposite in2="hardAlpha" operator="out"></feComposite><feColorMatrix values="0 0 0 0 0 0 0 0 0 0 0 0 0 0 0 0 0 0 0.05 0"></feColorMatrix><feBlend in2="BackgroundImageFix" result="effect1_dropShadow_7752_25442"></feBlend><feBlend in="SourceGraphic" in2="effect1_dropShadow_7752_25442" result="shape"></feBlend></filter><filter id="b" x="10.334" y="20.667" width="105.839" height="74.838" filterUnits="userSpaceOnUse" color-interpolation-filters="sRGB"><feFlood flood-opacity="0" result="BackgroundImageFix"></feFlood><feColorMatrix in="SourceAlpha" values="0 0 0 0 0 0 0 0 0 0 0 0 0 0 0 0 0 0 127 0" result="hardAlpha"></feColorMatrix><feOffset dx="2.505" dy="2.505"></feOffset><feComposite in2="hardAlpha" operator="out"></feComposite><feColorMatrix values="0 0 0 0 0 0 0 0 0 0 0 0 0 0 0 0 0 0 0.05 0"></feColorMatrix><feBlend in2="BackgroundImageFix" result="effect1_dropShadow_7752_25442"></feBlend><feBlend in="SourceGraphic" in2="effect1_dropShadow_7752_25442" result="shape"></feBlend></filter></defs></svg> 