<?xml version="1.0" encoding="UTF-8"?> <svg xmlns="http://www.w3.org/2000/svg" width="100" height="100" viewBox="0 0 100 100" fill="none"><g clip-path="url(#clip0_9871_723)"><path d="M46.6237 11.9997H46.751C47.1481 12.3485 47.5198 12.7533 48.0163 12.9671C48.9328 13.2396 49.9511 12.7482 50.4858 11.9997H50.6716C51.3335 13.3999 53.3957 13.3287 54.0831 11.9997H54.5006C54.7093 14.0237 52.2602 15.3603 50.529 14.5354C51.2164 15.07 51.9802 15.7981 52.7388 16.2106C52.7388 23.1099 52.2551 27.7942 52.2551 35.661C56.634 32.4023 58.5689 26.4704 57.4487 21.2005C57.1865 19.5711 56.4151 18.0945 55.8703 16.5415C57.4283 17.4937 58.5689 19.011 59.3581 20.6404C60.7227 23.4663 60.8856 26.6995 60.5114 29.78C59.9436 33.3951 57.991 36.9848 54.605 38.6142C56.0205 39.4899 57.7364 39.327 59.2639 39.8183C58.0928 40.5974 56.6671 40.7909 55.3178 40.9793C54.4013 41.0964 53.4695 41.0047 52.5683 40.7501C51.7918 41.4375 51.0153 42.1249 50.277 42.8454C49.6278 42.1325 48.9633 41.4452 48.2912 40.7629C46.0509 40.9309 43.6578 40.8291 41.6975 39.6274C43.2046 39.0419 44.8798 39.2506 46.3818 38.6142C41.9775 35.5846 39.508 29.9328 40.3991 24.6374C40.9592 21.4805 42.7565 18.4764 45.3889 16.6179C44.1007 19.2911 43.1995 22.2188 43.4617 25.1975C43.6654 29.1181 45.473 32.9369 48.4007 35.5337C48.4771 29.0672 48.2581 22.6007 48.1639 16.1342C49.0295 15.7014 49.8187 15.1286 50.4679 14.4081C49.7551 14.6372 48.9863 14.9758 48.2403 14.6678C47.0947 14.347 46.4073 13.1454 46.5982 11.9946L46.6237 11.9997ZM35.6001 21.8267C37.1582 18.288 40.7937 15.844 44.6888 15.8185C44.475 16.3328 43.8945 16.4652 43.4846 16.7732C41.672 17.9698 40.4805 19.8792 39.564 21.7886C38.1434 24.92 37.6546 28.4333 38.0874 31.8447C38.3929 33.6472 38.9606 35.4598 40.0325 36.9619C39.8644 37.0179 39.6557 37.2165 39.4978 37.0179C37.8608 35.9665 36.4937 34.4873 35.6027 32.7409C33.9377 29.3549 33.9988 25.2306 35.6052 21.8191L35.6001 21.8267ZM57.0617 16.0731C60.6259 16.1571 63.8083 18.6953 65.3612 21.8013C67.151 25.391 67.2757 29.8462 65.3205 33.3595C64.4396 35.0143 63.0496 36.3382 61.4253 37.2292C61.382 36.3891 62.1636 35.7832 62.4182 35.0143C63.1361 33.1762 63.3525 31.1955 63.4697 29.2607C63.3322 26.613 62.9427 23.9398 61.7894 21.5212C61.2038 20.2483 60.407 19.0823 59.4777 18.0334C58.7649 17.2595 57.8433 16.735 57.0668 16.0375L57.0617 16.0731ZM37.0513 37.4583C37.484 36.967 38.3165 36.8117 38.8257 37.2801L47.9654 46.6744C48.5764 47.377 49.391 47.9371 49.7475 48.8256C49.4929 49.182 49.2383 49.5461 48.9226 49.8516L38.4337 60.2896H37.2804C35.2182 58.1307 33.0033 56.1144 30.9666 53.925C32.5502 52.2549 34.1744 50.6153 35.9056 49.0878C36.7254 49.1489 37.2295 50.0553 37.9245 50.4575C38.5202 49.8465 39.0548 49.2024 39.6913 48.5659C39.1007 47.9753 38.538 47.3286 37.955 46.7456C36.5497 47.9753 35.2055 49.2915 33.8307 50.5644C31.2594 53.1867 28.459 55.5543 25.9131 58.202C25.4039 58.6094 24.961 59.3629 24.2074 59.2C21.8397 59.0345 19.4721 59.0472 17.079 59.0472L17.0713 51.8934C18.7516 51.8679 20.4573 51.9697 22.1121 51.8603C25.0653 49.2126 27.764 46.3103 30.6917 43.6371C32.8557 41.6361 34.8924 39.4874 37.0309 37.4762L37.0513 37.4583ZM62.1534 37.2037C62.6193 37.2292 63.1845 37.0917 63.5078 37.5347L69.5925 43.6448C68.1413 44.9534 66.792 46.3689 65.3918 47.7182C65.0252 48.0568 64.6789 48.6041 64.0934 48.4005C63.5282 48.0491 63.0929 47.5349 62.6321 47.0715C61.9345 47.6163 61.3209 48.263 60.7227 48.9147C61.3082 49.6352 61.9803 50.2767 62.6372 50.9259C67.0924 46.9035 71.2167 42.5501 75.621 38.4767L83.4114 38.4843L83.4241 45.6382L78.4342 45.6433L70.2366 53.5609C68.3399 55.483 66.3668 57.3288 64.4065 59.1873C63.8668 59.6786 63.4086 60.282 62.7594 60.6282C62.2196 60.7301 61.7817 60.31 61.4355 59.9663L52.5759 50.9539C52.0082 50.3251 51.3081 49.7981 50.8804 49.0573C50.6945 48.6805 51.0077 48.319 51.2495 48.0593L62.1203 37.1885L62.1534 37.2037ZM17.2699 38.2221L24.7293 38.1966C25.3403 38.0821 25.6865 38.66 26.0735 39.0113C27.4992 40.4294 28.8739 41.8881 30.3505 43.2629C28.7034 44.9304 26.9646 46.4961 25.2843 48.151C24.2277 47.1632 23.1814 46.1652 22.0765 45.2487C20.5032 45.1468 18.9196 45.2512 17.3412 45.2054C17.359 42.8836 17.3157 40.5719 17.2648 38.2297L17.2699 38.2221ZM13.777 46.1143C15.7246 46.0124 17.6722 46.1194 19.6325 46.0175C20.3606 46.0124 21.0989 45.9055 21.8219 46.0353C22.6035 46.8246 23.2476 47.736 24.0012 48.5557C23.1432 49.2482 22.5169 50.2437 21.6335 50.8648C19.2735 50.8572 16.8982 50.903 14.556 50.8954C12.8859 51.0074 11.5264 48.8663 12.4684 47.433C12.8248 46.9417 13.2067 46.3459 13.7923 46.1245L13.777 46.1143ZM78.7015 46.878L86.2373 46.8373C87.1793 46.7609 87.7572 47.652 88.2613 48.3063V49.849C87.8081 50.6128 87.2989 51.7279 86.2373 51.6235L78.7015 51.7253C77.9887 50.8037 77.1893 49.9687 76.4357 49.0776C77.1333 48.2808 78.004 47.6571 78.7143 46.8704L78.7015 46.878Z" fill="black"></path><path d="M70.3002 54.5149L75.4937 49.2959C76.4662 50.4415 77.5049 51.5286 78.5233 52.631H83.2586C83.3146 55.0114 83.6023 57.3663 83.5132 59.7594C80.7636 59.7288 77.9887 59.5379 75.2391 59.515L70.3002 54.5251V54.5149ZM49.4241 50.4415C49.699 50.136 50.0529 49.9222 50.4272 49.7542L51.1858 50.0291L62.5913 61.6128C61.0256 61.7306 59.078 61.6764 57.4486 61.6764C56.2648 59.6499 54.2154 58.0358 51.8223 57.8831C52.9934 58.4381 53.9659 59.487 54.2027 60.7854C54.7704 63.0716 52.8024 65.4443 50.4857 65.5461L50.5061 72.369C50.5239 72.6949 50.4042 72.9673 50.1369 73.1837C46.268 69.4319 42.4822 65.5952 38.7824 61.6764C38.8257 61.3149 38.6806 60.8617 39.0319 60.6224L49.419 50.4135M44.5819 60.2406C43.8359 61.0934 43.9556 62.5471 44.8492 63.2447C45.7148 63.983 46.784 64.4361 47.8533 64.7849C47.1201 63.9779 46.364 63.0359 46.3843 61.8826C46.1628 60.3398 47.031 58.8785 48.2937 58.0384C46.9088 58.4406 45.4933 59.0644 44.5768 60.2278L44.5819 60.2406ZM56.5525 75.6456C57.0617 74.5839 58.3983 74.7291 59.2766 75.1975C58.8183 76.0987 57.6472 76.0784 56.9344 76.6945L57.6421 77.5193C57.6747 77.8936 57.6083 78.0081 57.3366 78.1609L56.191 78.194C55.5112 78.7286 55.4196 79.6196 54.9232 80.2816C55.025 79.86 55.0932 79.4309 55.1268 78.9985C54.862 78.9043 54.5616 78.6217 54.3223 78.9221C53.6349 79.5458 53.2021 80.3783 52.7286 81.1624C52.1176 81.4425 51.4811 81.6589 50.8192 81.748C51.5117 81.2032 52.3824 80.8773 52.9374 80.1696C52.805 79.7979 51.9572 80.1059 52.0285 79.5076C52.2067 78.9832 52.5275 78.53 52.8534 78.0921C53.2225 78.3467 53.5153 78.6777 53.7801 79.0392C54.1874 78.642 54.5184 77.695 55.2236 77.9954L55.468 78.4486C55.9008 77.8706 56.3463 77.2978 56.6823 76.6563C57.0133 76.0147 57.7592 75.8161 58.3015 75.4037C57.9298 75.2683 57.8 75.2586 57.2984 75.3732L56.8809 75.6659L56.5525 75.6456ZM35.1673 79.2098C35.1851 77.8986 34.928 76.4348 35.8368 75.3401C35.6586 76.3177 35.6281 77.3258 35.7095 78.3187C35.9005 78.8279 36.4478 78.6955 36.8704 78.6955C37.1938 78.3595 37.6342 78.2296 38.0543 78.0641C38.4107 77.7841 38.6958 77.4226 39.0268 77.1145C38.8129 77.9979 38.1688 78.9323 37.1887 78.9857C36.789 79.4949 36.1652 80.3198 35.4651 79.7699C35.3633 80.5387 34.9738 81.2796 34.3195 81.7149C33.9631 81.8498 33.6423 81.5621 33.3317 81.4399C33.3251 81.1464 33.4255 80.8604 33.6143 80.6355C33.8129 79.141 33.6092 77.5295 34.3933 76.1547C34.3679 77.7841 34.4366 79.5407 33.655 81.0173C34.6174 81.0682 35.2131 80.0601 35.1673 79.197V79.2098ZM67.7543 75.9001C67.6066 76.8319 67.5201 77.7714 67.352 78.7006C67.3648 79.253 67.1484 79.9913 67.683 80.3681C67.9503 80.6813 68.3653 80.4445 68.625 80.2587C69.3302 79.7393 69.4651 78.7311 70.2492 78.2984C70.5649 78.0845 70.8933 78.3187 71.1912 78.446C71.6995 78.1584 72.1862 77.8342 72.6474 77.476C72.8078 77.9674 72.3165 78.2653 71.9753 78.5122C71.3389 78.9399 70.5751 79.0366 69.8241 79.001C69.8444 79.388 70.155 79.4338 70.2314 80.0448C70.0405 80.6915 69.4371 80.5438 68.9203 80.4852C68.6912 80.8035 68.4671 81.1293 68.2787 81.4781C68.0598 81.6131 67.8281 81.7251 67.5863 81.8091C67.2044 81.6182 66.8225 81.2388 66.8378 80.7806C66.769 79.0137 67.1178 77.3946 67.7543 75.8925V75.9001ZM19.2302 81.2465C19.8157 79.7037 19.5408 77.8859 20.6253 76.5366C20.2307 78.1023 20.5744 80.0754 19.2302 81.2465ZM24.9838 79.2098C25.0271 78.2831 25.4039 77.4149 25.8749 76.6384C25.6457 78.1991 25.7094 79.8972 24.7292 81.2465C24.714 81.4298 24.6529 81.5876 24.5459 81.7174C24.5587 80.8646 24.9431 80.0754 24.9787 79.2225L24.9838 79.2098ZM39.2406 81.501C39.8771 79.9735 39.5767 78.1914 40.595 76.7912C40.4016 78.3951 40.5187 80.3045 39.2406 81.501ZM76.9194 81.501C77.5813 79.9277 77.2707 78.0641 78.3705 76.6639C78.0498 78.3034 78.256 80.2536 76.9194 81.501ZM31.3739 78.1914L32.0511 76.893L33.0542 77.5142C32.7563 78.7999 31.1575 78.889 30.5516 79.9888L31.3281 80.3503C31.7507 80.9257 31.4299 81.6283 31.2772 82.2393C30.8699 83.4614 29.9406 84.7801 28.5022 84.7343C27.6977 84.8259 27.2293 84.0393 27.0511 83.3697C26.8092 81.8931 27.6748 80.5947 28.1203 79.2709L28.3596 79.2887C28.0389 80.307 27.3489 81.249 27.5195 82.3692C27.4686 82.8173 27.9268 83.0566 28.1509 83.3773C29.3805 83.5937 30.7222 83.0795 31.1041 81.8244L30.1112 81.2465C29.9253 80.0703 30.8622 79.1334 31.6387 78.3951L31.3637 78.2092L31.3739 78.1914ZM44.587 81.2465C44.5411 79.4313 45.9999 77.7841 47.642 77.1476C47.4943 77.5957 47.3365 78.0387 47.1328 78.4664C46.2061 78.3773 45.5442 79.1614 45.1216 79.8819C45.4704 80.1288 46.0381 80.2689 45.9999 80.8035C45.9999 82.2852 45.3125 83.8076 44.0141 84.5714C43.2376 84.7292 42.0589 84.8769 41.7356 83.9349C41.1806 82.6569 41.8883 81.2872 42.3899 80.1161C42.6139 79.7037 42.7539 79.2301 43.1129 78.9094C42.8456 80.2077 41.8298 81.333 42.0436 82.7281C42.1277 82.9741 42.3135 83.1813 42.6801 83.3137C43.953 83.5632 45.3278 82.9445 45.6842 81.6436C45.316 81.51 44.9502 81.37 44.587 81.2235V81.2465ZM62.9172 80.7373C63.2812 79.1156 64.4345 77.6823 65.9722 77.0458C65.9162 77.4989 65.7507 77.9267 65.5852 78.3493C64.7196 78.2398 64.1799 78.9603 63.658 79.5204C63.4365 79.9964 64.1086 80.0754 64.3708 80.3045C64.5185 81.7454 63.938 83.2831 62.7924 84.1997C62.189 84.6681 61.3718 84.6503 60.659 84.5052C60.3662 84.332 60.188 84.1487 60.0989 83.9069C59.7679 82.8733 59.992 81.7684 60.4553 80.8009C60.7863 80.1212 60.9848 79.3447 61.5551 78.8152C61.1732 79.9557 60.5622 81.0097 60.3178 82.2012L60.6233 82.9445C61.7384 83.6447 63.1692 83.138 63.882 82.1095L63.9253 81.5316C63.4722 81.4298 63.131 81.1421 62.9121 80.7424L62.9172 80.7373ZM23.0744 78.446C23.5149 78.2042 23.8687 77.8503 24.2404 77.5219C23.9655 78.1023 23.8585 78.8712 23.1966 79.1588C22.7435 79.3702 22.4201 79.7444 22.2547 80.2128C22.1121 81.2999 21.0072 81.6894 20.0474 81.6742C20.5489 81.1141 21.2439 80.7984 21.804 80.307C22.2445 79.696 22.3463 78.805 23.077 78.4486L23.0744 78.446ZM83.5386 79.7189C84.0122 79.0927 84.361 78.4205 85.0611 78.0132C85.476 77.9572 85.6542 78.1497 85.6721 78.2678C85.7153 79.7826 84.1089 81.3737 82.5916 80.5845C82.2555 80.9791 82.0315 81.5163 81.535 81.7454C80.9673 81.9491 80.3741 81.4349 80.481 80.8417C80.0228 81.6665 79.0808 81.8015 78.2483 82.0026C78.8288 81.3738 79.7377 81.1293 80.1934 80.3783C80.4887 79.9201 80.7331 79.4287 80.9826 78.945L81.2041 79.1232C80.8808 79.5611 80.9138 80.414 81.5732 80.498C82.3879 80.6456 82.7036 79.4949 83.5412 79.7164M83.7856 79.7673C84.3609 79.8564 85.3131 79.36 85.1094 78.698C84.4373 78.5962 84.1878 79.3854 83.7856 79.7673ZM49.1695 80.2281C49.7703 79.6324 49.6965 78.6751 50.2693 78.0641C50.1013 78.9908 49.9893 79.9557 49.5234 80.7882C49.1542 81.4247 48.3345 81.5138 47.6954 81.7047C48.113 81.1395 48.7011 80.7373 49.172 80.2281H49.1695ZM74.6281 78.1914C74.9769 78.003 75.3919 78.2614 75.4122 78.5911C75.3792 79.2785 75.2799 79.9735 74.9387 80.582C74.6383 81.4094 73.6607 81.5087 72.9453 81.7785C73.5207 81.1319 74.3252 80.7424 74.8598 80.0474C74.5034 79.971 74.0604 80.0092 73.9076 79.5993C74.0477 79.0901 74.2284 78.5555 74.6281 78.1889V78.1914ZM18.11 81.2465C18.0642 80.2027 18.1355 79.0825 18.8992 78.2933C18.6446 79.6171 18.7134 81.0173 18.1227 82.2648C17.471 83.7974 15.8824 85.1416 14.1257 84.5815C12.6135 83.2424 13.6522 81.0428 14.5789 79.668C14.4669 80.7958 13.3365 81.8829 14.141 83.0031C15.6354 83.9374 17.7307 82.9344 18.1125 81.2617L18.11 81.2465ZM15.4623 80.7373L16.1802 79.4822L16.8778 80.0041C16.86 80.4496 16.7658 80.8824 16.5265 81.2643C16.1548 81.1243 15.8009 80.9435 15.4623 80.7373Z" fill="black"></path><path d="M70.0456 85.5752L70.7534 86.3568L70.1118 87.4591L69.3353 86.6088C69.5466 86.2422 69.8114 85.9214 70.0482 85.5752H70.0456Z" fill="black"></path><path d="M68.7727 85.5752L69.4804 86.3568L68.8389 87.4591L68.0624 86.6088C68.2737 86.2422 68.5385 85.9214 68.7752 85.5752H68.7727Z" fill="black"></path><path d="M57.8257 81.501L58.5334 82.2826L57.8918 83.3849L57.1154 82.5346C57.3267 82.168 57.5914 81.8472 57.8282 81.501H57.8257Z" fill="black"></path><path d="M22.0562 84.5566L22.764 85.3382L22.1224 86.4406L21.3459 85.5903C21.5573 85.2237 21.822 84.9029 22.0588 84.5566H22.0562Z" fill="black"></path><path d="M23.431 84.5566L24.1387 85.3382L23.4972 86.4406L22.7207 85.5903C22.932 85.2237 23.1968 84.9029 23.4335 84.5566H23.431Z" fill="black"></path></g><defs><clipPath id="clip0_9871_723"><rect width="76.3758" height="75.6121" fill="white" transform="translate(12 12)"></rect></clipPath></defs></svg> 