<?xml version="1.0" encoding="UTF-8"?> <svg xmlns="http://www.w3.org/2000/svg" width="32" height="32" viewBox="0 0 32 32" fill="none"><path d="M10.666 7.99992H14.666C15.0196 7.99992 15.3588 7.85944 15.6088 7.60939C15.8589 7.35935 15.9993 7.02021 15.9993 6.66658C15.9993 6.31296 15.8589 5.97382 15.6088 5.72378C15.3588 5.47373 15.0196 5.33325 14.666 5.33325H10.666C10.3124 5.33325 9.97326 5.47373 9.72321 5.72378C9.47316 5.97382 9.33268 6.31296 9.33268 6.66658C9.33268 7.02021 9.47316 7.35935 9.72321 7.60939C9.97326 7.85944 10.3124 7.99992 10.666 7.99992ZM21.3327 7.99992C21.5964 7.99992 21.8542 7.92172 22.0734 7.77521C22.2927 7.6287 22.4636 7.42046 22.5645 7.17683C22.6654 6.93319 22.6918 6.66511 22.6404 6.40646C22.5889 6.14782 22.462 5.91025 22.2755 5.72378C22.089 5.53731 21.8514 5.41032 21.5928 5.35887C21.3342 5.30742 21.0661 5.33383 20.8224 5.43475C20.5788 5.53566 20.3706 5.70656 20.2241 5.92582C20.0775 6.14509 19.9993 6.40288 19.9993 6.66658C19.9993 7.02021 20.1398 7.35935 20.3899 7.60939C20.6399 7.85944 20.9791 7.99992 21.3327 7.99992ZM21.3327 13.3333C21.069 13.3333 20.8112 13.4115 20.5919 13.558C20.3727 13.7045 20.2018 13.9127 20.1008 14.1563C19.9999 14.4 19.9735 14.6681 20.025 14.9267C20.0764 15.1853 20.2034 15.4229 20.3899 15.6094C20.5763 15.7959 20.8139 15.9229 21.0726 15.9743C21.3312 16.0257 21.5993 15.9993 21.8429 15.8984C22.0866 15.7975 22.2948 15.6266 22.4413 15.4073C22.5878 15.1881 22.666 14.9303 22.666 14.6666C22.666 14.313 22.5255 13.9738 22.2755 13.7238C22.0254 13.4737 21.6863 13.3333 21.3327 13.3333ZM27.9993 25.3333H19.7593C19.5603 24.7741 19.2392 24.2662 18.8195 23.8464C18.3998 23.4267 17.8919 23.1057 17.3327 22.9066V19.9999H22.666C23.7269 19.9999 24.7443 19.5785 25.4944 18.8283C26.2446 18.0782 26.666 17.0608 26.666 15.9999V13.3333C26.6601 12.3465 26.2897 11.3968 25.626 10.6666C26.2897 9.9364 26.6601 8.98666 26.666 7.99992V5.33325C26.666 4.27239 26.2446 3.25497 25.4944 2.50482C24.7443 1.75468 23.7269 1.33325 22.666 1.33325H9.33268C8.27182 1.33325 7.2544 1.75468 6.50426 2.50482C5.75411 3.25497 5.33268 4.27239 5.33268 5.33325V7.99992C5.33856 8.98666 5.70896 9.9364 6.37268 10.6666C5.70896 11.3968 5.33856 12.3465 5.33268 13.3333V15.9999C5.33268 17.0608 5.75411 18.0782 6.50426 18.8283C7.2544 19.5785 8.27182 19.9999 9.33268 19.9999H14.666V22.9066C14.1068 23.1057 13.5989 23.4267 13.1792 23.8464C12.7595 24.2662 12.4384 24.7741 12.2393 25.3333H3.99935C3.64573 25.3333 3.30659 25.4737 3.05654 25.7238C2.80649 25.9738 2.66602 26.313 2.66602 26.6666C2.66602 27.0202 2.80649 27.3593 3.05654 27.6094C3.30659 27.8594 3.64573 27.9999 3.99935 27.9999H12.2393C12.5196 28.7721 13.0309 29.4393 13.7036 29.9108C14.3763 30.3823 15.1779 30.6352 15.9993 30.6352C16.8208 30.6352 17.6224 30.3823 18.2951 29.9108C18.9678 29.4393 19.4791 28.7721 19.7593 27.9999H27.9993C28.353 27.9999 28.6921 27.8594 28.9422 27.6094C29.1922 27.3593 29.3327 27.0202 29.3327 26.6666C29.3327 26.313 29.1922 25.9738 28.9422 25.7238C28.6921 25.4737 28.353 25.3333 27.9993 25.3333ZM7.99935 5.33325C7.99935 4.97963 8.13983 4.64049 8.38987 4.39044C8.63992 4.14039 8.97906 3.99992 9.33268 3.99992H22.666C23.0196 3.99992 23.3588 4.14039 23.6088 4.39044C23.8589 4.64049 23.9993 4.97963 23.9993 5.33325V7.99992C23.9993 8.35354 23.8589 8.69268 23.6088 8.94273C23.3588 9.19278 23.0196 9.33325 22.666 9.33325H9.33268C8.97906 9.33325 8.63992 9.19278 8.38987 8.94273C8.13983 8.69268 7.99935 8.35354 7.99935 7.99992V5.33325ZM9.33268 17.3333C8.97906 17.3333 8.63992 17.1928 8.38987 16.9427C8.13983 16.6927 7.99935 16.3535 7.99935 15.9999V13.3333C7.99935 12.9796 8.13983 12.6405 8.38987 12.3904C8.63992 12.1404 8.97906 11.9999 9.33268 11.9999H22.666C23.0196 11.9999 23.3588 12.1404 23.6088 12.3904C23.8589 12.6405 23.9993 12.9796 23.9993 13.3333V15.9999C23.9993 16.3535 23.8589 16.6927 23.6088 16.9427C23.3588 17.1928 23.0196 17.3333 22.666 17.3333H9.33268ZM15.9993 27.9999C15.7356 27.9999 15.4779 27.9217 15.2586 27.7752C15.0393 27.6287 14.8684 27.4205 14.7675 27.1768C14.6666 26.9332 14.6402 26.6651 14.6916 26.4065C14.7431 26.1478 14.8701 25.9102 15.0565 25.7238C15.243 25.5373 15.4806 25.4103 15.7392 25.3589C15.9979 25.3074 16.266 25.3338 16.5096 25.4347C16.7532 25.5357 16.9615 25.7066 17.108 25.9258C17.2545 26.1451 17.3327 26.4029 17.3327 26.6666C17.3327 27.0202 17.1922 27.3593 16.9422 27.6094C16.6921 27.8594 16.353 27.9999 15.9993 27.9999ZM14.666 13.3333H10.666C10.3124 13.3333 9.97326 13.4737 9.72321 13.7238C9.47316 13.9738 9.33268 14.313 9.33268 14.6666C9.33268 15.0202 9.47316 15.3593 9.72321 15.6094C9.97326 15.8594 10.3124 15.9999 10.666 15.9999H14.666C15.0196 15.9999 15.3588 15.8594 15.6088 15.6094C15.8589 15.3593 15.9993 15.0202 15.9993 14.6666C15.9993 14.313 15.8589 13.9738 15.6088 13.7238C15.3588 13.4737 15.0196 13.3333 14.666 13.3333Z" fill="#262626"></path></svg> 