<?xml version="1.0" encoding="UTF-8"?> <svg xmlns="http://www.w3.org/2000/svg" width="124" height="124" viewBox="0 0 124 124" fill="none"><g filter="url(#a)"><path d="M36.175 17.352c-4.677 2.695-25.842 39.251-25.842 44.642 0 5.39 21.165 41.946 25.842 44.641 4.676 2.695 47.007 2.695 51.649 0 4.677-2.695 25.842-39.251 25.842-44.642 0-5.39-21.165-41.946-25.842-44.641-4.677-2.695-46.973-2.66-51.65 0Z" fill="#262626"></path><path d="m87.325 105.769-.003.001c-.172.1-.505.231-1.044.371-.523.136-1.183.267-1.97.391-1.571.246-3.593.454-5.926.622-4.664.334-10.512.503-16.37.503-5.858 0-11.708-.169-16.376-.503-2.335-.168-4.36-.376-5.935-.622a21.341 21.341 0 0 1-1.976-.391c-.54-.14-.876-.271-1.051-.372-.175-.101-.457-.326-.849-.723-.38-.385-.825-.892-1.326-1.511-1.002-1.237-2.195-2.882-3.508-4.816-2.624-3.865-5.695-8.834-8.626-13.895-2.93-5.061-5.71-10.198-7.753-14.398-1.023-2.101-1.854-3.954-2.428-5.438a20.93 20.93 0 0 1-.649-1.901c-.148-.537-.202-.893-.202-1.094 0-.2.054-.556.202-1.093a20.94 20.94 0 0 1 .649-1.9c.574-1.484 1.405-3.337 2.428-5.438 2.044-4.2 4.823-9.337 7.753-14.398 2.93-5.061 6.002-10.03 8.626-13.895 1.313-1.934 2.506-3.579 3.508-4.816.501-.62.945-1.126 1.326-1.511.39-.395.671-.62.847-.721.176-.1.512-.23 1.05-.368a21.308 21.308 0 0 1 1.976-.386c1.575-.245 3.599-.451 5.933-.618 4.666-.333 10.513-.502 16.369-.505 5.856-.002 11.702.163 16.368.495 2.334.166 4.357.373 5.932.619.787.123 1.449.253 1.974.39.54.14.876.27 1.05.371.176.101.457.326.85.723.38.385.825.892 1.326 1.51 1.001 1.238 2.194 2.883 3.507 4.817 2.625 3.865 5.696 8.834 8.626 13.895 2.93 5.061 5.71 10.198 7.754 14.398 1.022 2.101 1.854 3.954 2.428 5.438.287.742.504 1.38.648 1.901.149.537.203.893.203 1.093 0 .201-.054.557-.203 1.094a20.775 20.775 0 0 1-.648 1.901c-.574 1.484-1.406 3.337-2.428 5.438-2.044 4.2-4.824 9.337-7.754 14.398-2.93 5.061-6.001 10.03-8.626 13.895-1.313 1.934-2.506 3.579-3.507 4.816a20.888 20.888 0 0 1-1.327 1.511c-.392.397-.673.622-.848.723Z" stroke="#fff" stroke-width="2"></path></g><path d="M50.97 69.113c.758-.447 4.15-6.339 4.15-7.187 0-.848-3.392-6.74-4.15-7.187-.76-.446-7.544-.446-8.303 0-.759.447-4.151 6.339-4.151 7.187 0 .848 3.392 6.74 4.15 7.187.76.446 7.59.446 8.303 0Zm24.728-16.516c.759-.447 4.151-6.339 4.151-7.187 0-.848-3.392-6.74-4.151-7.186-.759-.447-7.544-.447-8.303 0-.758.446-4.15 6.338-4.15 7.186 0 .848 3.392 6.74 4.15 7.187.76.401 7.544.401 8.303 0Zm-.092 33.031c.759-.446 4.151-6.338 4.151-7.186 0-.849-3.392-6.74-4.15-7.187-.76-.446-7.545-.446-8.303 0-.76.446-4.152 6.338-4.152 7.187 0 .848 3.393 6.74 4.152 7.186.758.447 7.588.447 8.302 0Z" fill="#fff"></path><path fill-rule="evenodd" clip-rule="evenodd" d="m43.338 61.926 30.009 20.053V41.873l-30.01 20.053ZM69.55 48.904v26.044L50.1 61.926l19.45-13.022Z" fill="#fff"></path><defs><filter id="a" x="10.332" y="15.343" width="105.839" height="95.818" filterUnits="userSpaceOnUse" color-interpolation-filters="sRGB"><feFlood flood-opacity="0" result="BackgroundImageFix"></feFlood><feColorMatrix in="SourceAlpha" values="0 0 0 0 0 0 0 0 0 0 0 0 0 0 0 0 0 0 127 0" result="hardAlpha"></feColorMatrix><feOffset dx="2.505" dy="2.505"></feOffset><feComposite in2="hardAlpha" operator="out"></feComposite><feColorMatrix values="0 0 0 0 0 0 0 0 0 0 0 0 0 0 0 0 0 0 0.05 0"></feColorMatrix><feBlend in2="BackgroundImageFix" result="effect1_dropShadow_7752_25439"></feBlend><feBlend in="SourceGraphic" in2="effect1_dropShadow_7752_25439" result="shape"></feBlend></filter></defs></svg> 