<?xml version="1.0" encoding="UTF-8"?> <svg xmlns="http://www.w3.org/2000/svg" width="100" height="100" viewBox="0 0 100 100" fill="none"><g clip-path="url(#clip0_9871_2756)"><path d="M72.1737 79.3614V70.7354H70.0037V81.518H72.1737H77.0562V79.3614H72.1737Z" fill="black"></path><path d="M52.099 70.7354V72.8919H55.354V81.518H57.524V72.8919H60.779V70.7354H52.099Z" fill="black"></path><path d="M39.0786 70.7354V75.0484H34.7386V70.7354H32.5686V81.518H34.7386V77.2049H39.0786V81.518H41.2486V70.7354H39.0786Z" fill="black"></path><path d="M48.3029 70.7354L42.3354 81.518H45.0479L48.3029 75.5875L51.5579 81.518H54.2704L48.3029 70.7354Z" fill="black"></path><path d="M28.2303 75.0484H26.0603C25.4635 75.0484 24.9753 74.5632 24.9753 73.9701C24.9753 73.3771 25.4635 72.8919 26.0603 72.8919H30.9428V70.7354H26.0603C24.27 70.7354 22.8053 72.191 22.8053 73.9701C22.8053 75.7493 24.27 77.2049 26.0603 77.2049H28.2303C28.827 77.2049 29.3153 77.6901 29.3153 78.2832C29.3153 78.8762 28.827 79.3614 28.2303 79.3614H23.3478V81.518H28.2303C30.0205 81.518 31.4853 80.0623 31.4853 78.2832C31.4853 76.504 30.0205 75.0484 28.2303 75.0484Z" fill="black"></path><path d="M68.9187 72.8919V70.7354H64.0362H61.8662V81.518H64.0362H68.9187V79.3614H64.0362V77.2049H68.3762V75.0484H64.0362V72.8919H68.9187Z" fill="black"></path><path d="M48.3038 81.5146C49.2026 81.5146 49.9313 80.7904 49.9313 79.8972C49.9313 79.0039 49.2026 78.2798 48.3038 78.2798C47.4049 78.2798 46.6763 79.0039 46.6763 79.8972C46.6763 80.7904 47.4049 81.5146 48.3038 81.5146Z" fill="black"></path><path d="M49.9297 68.0385C53.9745 68.0385 57.2535 64.7799 57.2535 60.7602C57.2535 56.7405 53.9745 53.4819 49.9297 53.4819C45.8849 53.4819 42.606 56.7405 42.606 60.7602C42.606 64.7799 45.8849 68.0385 49.9297 68.0385Z" fill="black"></path><path d="M49.9288 40.2194L50.4171 41.082L65.0103 67.4994H75.8603L49.9288 20.6489L23.9973 67.4994H34.8473L49.4406 41.082L49.9288 40.2194Z" fill="black" stroke="black" stroke-width="1.9375" stroke-miterlimit="10"></path></g><defs><clipPath id="clip0_9871_2756"><rect width="54.25" height="62" fill="white" transform="translate(22.5448 19)"></rect></clipPath></defs></svg> 