<?xml version="1.0" encoding="UTF-8"?> <svg xmlns="http://www.w3.org/2000/svg" width="100" height="100" viewBox="0 0 100 100" fill="none"><path fill-rule="evenodd" clip-rule="evenodd" d="M98.8457 45.6455L95.787 45.6457L95.7872 49.7101H89.1611V45.6455H86.1026V49.7101H80.7508C79.7673 49.7101 78.967 48.9124 78.967 47.9319L78.9668 45.6455L75.9083 45.6457L75.9085 47.9321C75.9085 48.9124 75.1082 49.7101 74.1246 49.7101C73.1408 49.7101 72.3407 48.9124 72.3407 47.9321V45.6455H69.2821V47.9321C69.2821 48.9124 68.4818 49.7101 67.4982 49.7101H65.7145V45.6455H62.656V49.7101H46.3451V52.7589H49.913V53.2668C49.913 55.7884 47.8552 57.8396 45.3256 57.8396C42.7962 57.8396 40.7384 55.7884 40.7384 53.2668V49.7101H37.6799V53.2668C37.6799 57.4695 41.11 60.8883 45.3256 60.8883C49.5417 60.8883 52.9715 57.4695 52.9715 53.2668V52.7589H62.656H65.7145H67.4982C68.7791 52.7589 69.9444 52.2597 70.8114 51.4475C71.6782 52.2597 72.8437 52.7589 74.1246 52.7589C75.4053 52.7589 76.5708 52.2597 77.4378 51.4475C78.3046 52.2597 79.4699 52.7589 80.7508 52.7589H86.1026H89.1611H98.8457V45.6455Z" fill="black"></path><path fill-rule="evenodd" clip-rule="evenodd" d="M82.4218 58.3217H86.0811V60.8877H89.218V55.2422H82.4218V58.3217Z" fill="black"></path><path fill-rule="evenodd" clip-rule="evenodd" d="M98.8459 40H92.6161V42.8227H98.8459V40Z" fill="black"></path><path fill-rule="evenodd" clip-rule="evenodd" d="M27.4858 50.7265H12.1943V45.6455H27.4858V50.7265Z" fill="black"></path><path fill-rule="evenodd" clip-rule="evenodd" d="M27.4858 60.8881H2V55.8071H27.4858V60.8881Z" fill="black"></path></svg> 