<?xml version="1.0" encoding="UTF-8"?> <svg xmlns="http://www.w3.org/2000/svg" width="100" height="100" viewBox="0 0 100 100" fill="none"><g clip-path="url(#clip0_9871_1505)"><path d="M48.2779 15.4037C50.7453 14.776 53.3994 14.9275 55.8668 15.5335C57.9855 16.0313 60.0338 16.8754 61.9663 17.8493C62.5481 18.174 63.1304 18.4986 63.759 18.8016C67.0176 20.7278 70.0674 22.9788 72.8607 25.4894C74.2812 26.7663 75.7244 28.0216 77.0284 29.4067C72.8607 29.4284 68.6938 29.4284 64.5268 29.4501C64.3875 29.4501 64.2242 29.4717 64.1312 29.3418C63.6425 28.8008 63.1304 28.2596 62.6411 27.6969C61.5473 26.6364 60.5231 25.4894 59.3825 24.4721C58.7071 23.8878 58.0785 23.2818 57.3803 22.7407C55.4712 21.269 53.4691 19.8838 51.2112 18.9531C49.3951 18.2822 47.4164 17.8493 45.4845 18.2173C43.1564 18.5419 41.2011 19.9703 39.7344 21.6585C41.2941 20.1868 43.3425 19.083 45.5776 18.9748C48.1848 18.8449 50.6757 19.7972 52.8873 21.0309C53.4925 21.3339 54.0046 21.7451 54.5869 22.0914C56.2631 23.1952 57.7759 24.4721 59.2426 25.814C59.9876 26.5715 60.8023 27.2641 61.5239 28.0432C63.4564 30.0128 65.2484 32.1121 67.0176 34.2115H66.9714C66.5758 34.2115 66.2029 34.2115 65.8308 34.2115C62.129 34.1033 58.4513 34.0168 54.7496 33.9086C54.4939 33.9518 54.4236 33.6921 54.3071 33.5406C52.5848 30.9651 50.7225 28.4112 48.2083 26.4416C46.9277 25.4461 45.368 24.6236 43.6919 24.6236C42.1322 24.6236 40.689 25.4027 39.5945 26.3984C37.9652 27.8917 36.7777 29.7747 35.7535 31.6793C35.3111 32.545 34.8458 33.4107 34.473 34.3197C34.0774 34.2981 33.6817 34.2981 33.2861 34.2765C34.3103 30.6837 35.7073 27.1559 37.6861 23.9094C38.9894 21.81 40.5491 19.8405 42.5278 18.2605C44.1805 16.9403 46.1365 15.9014 48.2779 15.4037Z" fill="black"></path><path d="M33.2854 34.2764C33.681 34.298 34.0766 34.298 34.4729 34.3197C38.1974 34.4712 41.9454 34.4928 45.6933 34.6443C45.9959 34.9473 46.182 35.3585 46.4383 35.7048C47.905 37.8258 49.5115 39.9036 51.4902 41.6134C52.7005 42.609 54.0975 43.5396 55.7034 43.821C57.1239 44.0807 58.6367 43.6478 59.7774 42.8254C61.2908 41.7649 62.4315 40.2932 63.4088 38.7998C64.3172 37.3064 65.1318 35.7914 65.83 34.2114C66.2029 34.2114 66.575 34.2114 66.9707 34.2114C66.156 37.0683 65.085 39.8603 63.7114 42.5008C62.5245 44.9031 60.9883 47.1324 59.0792 49.0587C57.5657 50.552 55.7737 51.7857 53.7715 52.5432C52.165 53.1925 50.4192 53.4738 48.6734 53.5172C47.7189 53.4522 46.7409 53.4089 45.7629 53.2574C43.5285 52.8462 41.3402 52.1103 39.2912 51.1364C38.3835 50.7685 37.5689 50.249 36.7073 49.8161C33.1227 47.7168 29.84 45.2062 26.8137 42.4358C25.58 41.397 24.4393 40.2499 23.2753 39.1461C27.5353 39.0811 31.7726 39.1028 36.0092 39.0595C39.1051 42.4142 42.3175 45.7473 46.2757 48.1929C47.4163 48.8639 48.6031 49.4482 49.8603 49.9027C51.4668 50.3788 53.1664 50.6603 54.8419 50.3572C57.1935 49.9677 59.2184 48.5392 60.6623 46.7645C59.5444 47.7384 58.2873 48.6474 56.8441 49.1235C55.6104 49.5132 54.2602 49.643 52.9797 49.4482C50.4192 49.1235 48.0676 47.9765 45.9959 46.5697C44.8552 45.8988 43.8779 45.0547 42.8531 44.2539C41.0838 42.7388 39.4311 41.1156 37.8252 39.4491C36.2421 37.7826 34.7755 36.0295 33.2854 34.2764Z" fill="black"></path><mask id="mask0_9871_1505" style="mask-type:luminance" maskUnits="userSpaceOnUse" x="23" y="57" width="54" height="10"><path d="M76.4621 57.2949H23.8414V66.8186H76.4621V57.2949Z" fill="white"></path></mask><g mask="url(#mask0_9871_1505)"><path d="M74.8037 64.7573C74.9583 64.68 75.3751 64.4429 75.6738 64.4326C75.7253 64.4326 75.8132 64.4172 75.8851 64.3554C76.2046 64.0874 76.4206 63.3968 76.4569 62.9742C76.4773 62.6959 76.4002 62.1702 76.0396 62.1445C75.9007 62.1342 75.7617 62.2115 75.6842 62.3403C75.5193 62.6959 75.5141 62.7062 75.3132 63.0721C75.2414 63.2061 75.3184 63.3916 75.4422 63.4947C75.6124 63.6442 75.9111 63.6184 76.1067 63.5359C76.024 63.8658 75.3959 64.2316 75.1228 64.4069C75.0098 64.4893 74.8241 64.6079 74.8037 64.7573Z" fill="black"></path><path d="M74.5 63.3849C74.5874 63.0963 74.6649 62.7613 74.7419 62.4006C74.7523 62.3387 74.7679 62.2769 74.8039 62.2202C74.706 62.2202 74.6597 62.3903 74.6389 62.4727C74.603 62.6016 74.5671 62.7355 74.5207 62.8592C74.2632 63.6065 73.748 64.1373 73.0835 64.5599C73.0117 64.6063 72.9034 64.6784 72.9034 64.7609C73.0783 64.7094 73.4238 64.5547 73.5831 64.5547C74.1394 64.5547 74.361 63.8281 74.5 63.3849Z" fill="black"></path><path d="M74.7882 60.1494C74.6029 60.3813 74.4588 60.5669 74.2319 60.8606C74.4843 60.9224 74.7523 61.1337 74.8501 61.2574C75.0202 61.144 75.2774 60.8554 75.2774 60.6287C75.2774 60.3968 75.0458 60.2473 74.7882 60.1494Z" fill="black"></path><path d="M73.1558 60.5615C73.0839 60.6955 72.9909 60.8553 72.893 61.046C72.7385 61.3655 72.6614 61.6592 72.6614 62.0458C72.6666 62.6229 72.6614 63.9989 72.4194 64.4989C72.8212 64.2824 73.0064 63.3187 73.0424 62.9064C73.1043 62.2416 73.0735 61.1542 73.2896 60.5615C73.3463 60.4069 73.3515 60.309 73.3103 60.2729C73.2588 60.3657 73.2073 60.4636 73.1558 60.5615Z" fill="black"></path><path d="M71.9095 63.3849C71.9969 63.0963 72.074 62.7613 72.1515 62.4006C72.1619 62.3387 72.177 62.2769 72.2134 62.2202C72.1156 62.2202 72.0692 62.3903 72.0485 62.4727C72.0125 62.6016 71.9762 62.7355 71.9299 62.8592C71.6727 63.6065 71.1576 64.1373 70.4931 64.5599C70.4208 64.6063 70.313 64.6784 70.313 64.7609C70.4879 64.7094 70.8329 64.5547 70.9926 64.5547C71.5489 64.5547 71.7705 63.8281 71.9095 63.3849Z" fill="black"></path><path d="M70.951 63.2109C71.1055 62.9738 71.2293 62.5616 71.2549 62.2729C71.2241 62.2781 71.1934 62.3193 71.1622 62.4069C71.0129 62.8089 70.3488 63.0614 69.9518 63.1851C69.0713 63.4531 67.825 63.6025 66.8103 63.6025C66.4908 63.6025 66.1973 63.5871 65.9398 63.5562C65.5588 63.5098 64.8069 63.3758 64.8277 62.8708C64.8324 62.7935 64.8173 62.7574 64.7761 62.7471C64.7246 62.9842 64.6627 63.2676 64.6627 63.5304C64.6627 63.6438 64.6783 63.7572 64.7038 63.8551C64.8839 64.5096 65.8835 64.4993 66.4294 64.4993C67.4852 64.4941 70.3228 64.1798 70.951 63.2109Z" fill="black"></path><path d="M68.4692 60.7271C68.2991 60.9332 68.1497 61.1239 67.9541 61.3712C67.8974 61.1806 67.6039 61.062 67.4389 60.995C67.2484 61.2321 67.0887 61.4331 66.8623 61.7268C67.0476 61.7732 67.2536 61.9021 67.3723 62.0154C67.5883 62.0154 67.9285 61.7011 67.9645 61.4795C68.1294 61.5362 68.2991 61.6444 68.3969 61.7423C68.629 61.7423 68.9428 61.4022 68.9428 61.1703C68.9428 60.9435 68.7008 60.8147 68.4692 60.7271Z" fill="black"></path><path d="M64.8533 59.062C64.7814 59.196 64.6888 59.3558 64.591 59.5465C64.4364 59.866 64.3589 60.1597 64.3589 60.5462C64.3641 61.1234 64.3589 62.4994 64.1169 62.9993C64.5187 62.7829 64.704 61.8192 64.7403 61.4069C64.8018 60.7421 64.771 59.6547 64.9875 59.062C65.0442 58.9074 65.0494 58.8095 65.0078 58.7734C64.9563 58.8662 64.9048 58.9641 64.8533 59.062Z" fill="black"></path><path d="M63.4986 63.3849C63.5861 63.0963 63.6635 62.7613 63.7406 62.4006C63.751 62.3387 63.7666 62.2769 63.8025 62.2202C63.7047 62.2202 63.6584 62.3903 63.6376 62.4727C63.6016 62.6016 63.5657 62.7355 63.5194 62.8592C63.2618 63.6065 62.7467 64.1373 62.0822 64.5599C62.0103 64.6063 61.9021 64.6784 61.9021 64.7609C62.077 64.7094 62.4224 64.5547 62.5817 64.5547C63.138 64.5547 63.3597 63.8281 63.4986 63.3849Z" fill="black"></path><path d="M62.8965 59.7832C62.7263 59.9893 62.577 60.18 62.3813 60.4274C62.3246 60.2367 62.0311 60.1182 61.8662 60.0512C61.6757 60.2882 61.516 60.4892 61.2896 60.783C61.4748 60.8294 61.6809 60.9582 61.7995 61.0716C62.0155 61.0716 62.3558 60.7572 62.3917 60.5356C62.5566 60.5923 62.7263 60.7005 62.8242 60.7984C63.0562 60.7984 63.37 60.4583 63.37 60.2264C63.37 59.9997 63.1281 59.8708 62.8965 59.7832Z" fill="black"></path><path d="M61.2277 63.907C61.3047 63.7936 61.4285 63.639 61.6242 63.6339C61.6857 63.6339 61.722 63.6597 61.7788 63.6597C62.2523 63.6597 62.4792 62.8299 62.4792 62.4795C62.3298 62.4795 62.345 62.9794 62.0926 62.9794C61.9948 62.9794 61.9333 62.9536 61.8454 62.9536C61.5878 62.9536 61.4337 63.2525 61.2688 63.3968C61.1298 63.5205 60.9238 63.5978 60.7177 63.5978C60.1718 63.6029 59.9965 63.1031 59.9965 62.6289C59.8009 62.562 59.6822 62.7526 59.6411 63.1907C59.6411 64.1338 59.9965 64.4996 60.4086 64.4996C60.7844 64.4996 61.0368 64.1905 61.2277 63.907Z" fill="black"></path><path d="M60.5528 65.1992C60.3675 65.4311 60.2234 65.6166 59.9969 65.9104C60.2493 65.9722 60.5169 66.1835 60.6147 66.3072C60.7848 66.1938 61.0424 65.9052 61.0424 65.6785C61.0424 65.4466 60.8104 65.2971 60.5528 65.1992Z" fill="black"></path><path d="M59.6411 63.19C59.8472 63.1487 59.9658 62.9684 59.9965 62.6282C59.9965 61.9016 60.1151 61.077 60.2026 60.3401C60.2286 60.17 60.2078 60.0773 60.1615 60.0566C60.0688 60.4225 59.9861 60.6441 59.868 60.9224C59.8368 60.9894 59.8216 61.0822 59.806 61.1956C59.7286 61.8552 59.6411 62.52 59.6411 63.19Z" fill="black"></path><path d="M58.4412 63.8905C58.7763 63.5452 59.1265 62.9835 59.1265 62.4836C59.1265 62.2878 59.0646 62.1022 58.8278 62.1022C58.4412 62.1022 58.0291 62.6433 57.8131 62.9371C57.9213 62.6279 57.978 62.2775 57.9983 62.0713C58.0499 61.4787 58.0243 60.618 58.22 60.0975C58.2663 59.9635 58.2715 59.8708 58.2403 59.8398C58.1118 60.0614 57.9828 60.2985 57.8698 60.5253C57.7256 60.8087 57.6585 61.0715 57.6585 61.4117C57.6585 61.8652 57.7408 62.9732 57.5295 63.3288C57.4732 63.4216 57.4061 63.5143 57.3494 63.6071C56.8291 63.4937 56.7828 63.0402 56.7828 62.6279L56.4274 63.1897C56.4274 63.7617 56.5252 64.4986 57.2001 64.4986C57.7048 64.4986 58.117 64.2255 58.4412 63.8905ZM57.4629 63.6225C57.8594 63.035 58.1373 62.6794 58.4776 62.6794C58.6628 62.6794 58.7914 62.7671 58.8689 62.8959C58.6061 63.4164 57.9676 63.7101 57.4629 63.6225Z" fill="black"></path><path d="M56.4274 63.19C56.6334 63.1487 56.752 62.9684 56.7828 62.6282C56.7828 61.9016 56.9014 61.077 56.9888 60.3401C57.0148 60.17 56.994 60.0773 56.9477 60.0566C56.8551 60.4225 56.7728 60.6441 56.6542 60.9224C56.6235 60.9894 56.6079 61.0822 56.5923 61.1956C56.5152 61.8552 56.4274 62.52 56.4274 63.19Z" fill="black"></path><path d="M55.7112 63.2109C55.8658 62.9738 55.9896 62.5616 56.0151 62.2729C55.9844 62.2781 55.9536 62.3193 55.9225 62.4069C55.7731 62.8089 55.1086 63.0614 54.7121 63.1851C53.8316 63.4531 52.5853 63.6025 51.5706 63.6025C51.2511 63.6025 50.9576 63.5871 50.7 63.5562C50.3191 63.5098 49.5671 63.3758 49.5875 62.8708C49.5927 62.7935 49.5775 62.7574 49.536 62.7471C49.4849 62.9842 49.423 63.2676 49.423 63.5304C49.423 63.6438 49.4381 63.7572 49.4641 63.8551C49.6442 64.5096 50.6433 64.4993 51.1896 64.4993C52.245 64.4941 55.0831 64.1798 55.7112 63.2109Z" fill="black"></path><path d="M53.2291 60.7271C53.059 60.9332 52.9096 61.1239 52.714 61.3712C52.6572 61.1806 52.3637 61.062 52.1988 60.995C52.0083 61.2321 51.8486 61.4331 51.6222 61.7268C51.8075 61.7732 52.0135 61.9021 52.1321 62.0154C52.3482 62.0154 52.6884 61.7011 52.7243 61.4795C52.8893 61.5362 53.059 61.6444 53.1568 61.7423C53.3888 61.7423 53.7027 61.4022 53.7027 61.1703C53.7027 60.9435 53.4607 60.8147 53.2291 60.7271Z" fill="black"></path><path d="M48.6508 62.3506C48.8049 62.2733 49.2222 62.0362 49.5209 62.0259C49.5724 62.0259 49.6598 62.0104 49.7321 61.9486C50.0516 61.6806 50.2676 60.99 50.304 60.5675C50.3243 60.2892 50.2473 59.7635 49.8867 59.7377C49.7477 59.7274 49.6083 59.8047 49.5313 59.9336C49.3663 60.2892 49.3611 60.2995 49.1603 60.6654C49.0884 60.7994 49.1655 60.9849 49.2893 61.088C49.459 61.2374 49.7577 61.2116 49.9538 61.1292C49.8711 61.459 49.243 61.8249 48.9698 62.0001C48.8564 62.0826 48.6711 62.2011 48.6508 62.3506Z" fill="black"></path><path d="M47.5022 61.3823C47.3735 61.3823 47.2756 61.439 47.2138 61.573C47.0233 62.011 47.0747 61.8925 46.8482 62.2687C46.6267 62.6758 47.1211 62.9439 47.4816 62.7429C47.5949 62.7686 47.6876 62.8562 47.6928 62.9954C47.6001 63.2015 47.2962 63.2531 47.1159 63.1448C46.9666 63.3458 46.9408 63.5674 47.2035 63.8251C47.3168 63.8251 47.425 63.7581 47.5228 63.655C47.8422 63.3149 48.043 62.712 48.043 62.2533C48.043 61.9234 47.9244 61.3823 47.5022 61.3823Z" fill="black"></path><path d="M47.8985 58.5781C47.7132 58.81 47.5689 58.9956 47.3423 59.2893C47.5947 59.3512 47.8626 59.5624 47.9604 59.6861C48.1301 59.5728 48.3877 59.2842 48.3877 59.0574C48.3877 58.8255 48.1561 58.676 47.8985 58.5781Z" fill="black"></path><path d="M47.2032 63.8235C47.3577 63.5556 47.2753 63.2361 47.1156 63.1433C46.9148 63.1433 46.8426 63.2876 46.7087 63.401C46.5491 63.5298 46.374 63.571 46.2195 63.5762C45.5551 63.5762 45.5551 62.8547 45.5551 62.6279C45.4366 62.8135 45.3181 62.999 45.1997 63.1897C45.1997 63.6741 45.2615 64.4935 45.9053 64.4935C46.2452 64.4935 46.4409 64.2152 46.6366 63.9421C46.7139 63.839 46.8015 63.7772 46.9045 63.7772C47.0177 63.7772 47.0744 63.8235 47.2032 63.8235Z" fill="black"></path><path d="M46.642 59.1143C46.4566 59.3462 46.3124 59.5317 46.0858 59.8254C46.3382 59.8873 46.606 60.0986 46.7038 60.2223C46.8738 60.1089 47.1313 59.8203 47.1313 59.5935C47.1313 59.3616 46.8995 59.2122 46.642 59.1143Z" fill="black"></path><path d="M45.1997 63.19C45.4057 63.1487 45.5242 62.9684 45.5551 62.6282C45.5551 61.9016 45.6735 61.077 45.7611 60.3401C45.7868 60.17 45.7662 60.0773 45.7199 60.0566C45.6272 60.4225 45.5448 60.6441 45.4263 60.9224C45.3954 60.9894 45.38 61.0822 45.3645 61.1956C45.2872 61.8552 45.1997 62.52 45.1997 63.19Z" fill="black"></path><path d="M47.1594 57.8096C47.1594 58.0879 46.9225 58.4383 46.6031 58.4383C46.4692 58.5671 46.3405 58.6341 46.2117 58.6341C46.083 58.6341 46.016 58.5723 46.016 58.4538C46.016 58.3816 46.0521 58.2837 46.119 58.1652C46.1345 58.1652 46.1396 58.1858 46.1551 58.2115C46.1808 58.2682 46.2375 58.2888 46.3096 58.2888C46.4486 58.2888 46.5722 58.2064 46.6701 58.0672C46.6907 58.0415 46.7113 58.026 46.7319 58.026C46.7628 58.0621 46.804 58.0776 46.8555 58.0776C46.9482 58.0776 47.0306 57.9951 47.1027 57.8508C47.1182 57.825 47.1388 57.8096 47.1594 57.8096Z" fill="black"></path><path d="M43.1295 64.7573C43.284 64.68 43.7012 64.4429 43.9999 64.4326C44.0514 64.4326 44.1389 64.4172 44.2111 64.3554C44.5304 64.0874 44.7467 63.3968 44.7827 62.9742C44.8034 62.6959 44.7261 62.1702 44.3656 62.1445C44.2265 62.1342 44.0875 62.2115 44.0102 62.3403C43.8454 62.6959 43.8402 62.7062 43.6394 63.0721C43.5673 63.2061 43.6445 63.3916 43.7681 63.4947C43.9381 63.6442 44.2368 63.6184 44.4325 63.5359C44.3501 63.8658 43.7218 64.2316 43.4488 64.4069C43.3355 64.4893 43.1501 64.6079 43.1295 64.7573Z" fill="black"></path><path d="M42.8254 63.3849C42.9129 63.0963 42.9902 62.7613 43.0674 62.4006C43.0777 62.3387 43.0932 62.2769 43.1293 62.2202C43.0314 62.2202 42.985 62.3903 42.9644 62.4727C42.9284 62.6016 42.8923 62.7355 42.846 62.8592C42.5884 63.6065 42.0734 64.1373 41.409 64.5599C41.3369 64.6063 41.2288 64.6784 41.2288 64.7609C41.4039 64.7094 41.749 64.5547 41.9086 64.5547C42.4648 64.5547 42.6863 63.8281 42.8254 63.3849Z" fill="black"></path><path d="M38.5046 66.8185C39.6016 66.8185 40.7089 65.2621 40.7089 64.1954C40.7089 63.9171 40.6265 63.7934 40.3433 63.747C40.096 63.7058 39.9364 63.6079 39.9364 63.4378C39.9364 62.9997 40.9046 62.1958 41.3682 62.1958C41.4042 62.1958 41.4454 62.201 41.4815 62.2061C41.6463 62.1082 41.9244 61.6289 41.9296 61.4279C41.9296 61.3506 41.8935 61.3403 41.8162 61.3403C41.7287 61.3403 41.6257 61.3713 41.5124 61.4176C40.6729 61.7835 39.5449 63.0925 39.5346 64.0614C39.5346 64.3912 39.6943 64.6592 40.1784 64.7468C40.2969 64.7726 40.4102 64.8293 40.3742 64.9736C40.0652 65.5147 39.3853 65.9063 38.7621 65.896C38.1595 65.8857 37.8144 65.4374 37.8144 64.8963C37.8144 64.2057 38.2162 63.3502 38.587 62.706C38.6488 62.5978 38.8188 62.3092 38.7518 62.2061C38.2265 63.0977 37.387 64.3964 37.387 65.5095C37.387 66.195 37.6806 66.8185 38.5046 66.8185Z" fill="black"></path><path d="M38.7415 58.7012C38.6694 58.8352 38.5767 58.9949 38.4788 59.1856C38.3243 59.5051 38.247 59.7989 38.247 60.1854C38.2522 60.7626 38.247 62.1386 38.005 62.6385C38.4067 62.4221 38.5921 61.4583 38.6282 61.046C38.69 60.3812 38.6591 59.2939 38.8754 58.7012C38.9321 58.5466 38.9372 58.4487 38.896 58.4126C38.8445 58.5054 38.793 58.6033 38.7415 58.7012Z" fill="black"></path><path d="M37.0883 62.6586C37.423 62.3133 37.7732 61.7515 37.7732 61.2517C37.7732 61.0558 37.7114 60.8703 37.4745 60.8703C37.0883 60.8703 36.6762 61.4114 36.4599 61.7052C36.5681 61.396 36.6247 61.0455 36.6453 60.8394C36.6968 60.2467 36.6711 59.3861 36.8668 58.8656C36.9131 58.7316 36.9183 58.6388 36.8874 58.6079C36.7586 58.8295 36.6299 59.0666 36.5166 59.2933C36.3724 59.5768 36.3054 59.8396 36.3054 60.1797C36.3054 60.6332 36.3878 61.7412 36.1767 62.0969C36.12 62.1896 36.053 62.2824 35.9964 62.3751C35.4762 62.2617 35.4299 61.8082 35.4299 61.396L35.0745 61.9577C35.0745 62.5298 35.1723 63.2667 35.847 63.2667C36.3518 63.2667 36.7638 62.9936 37.0883 62.6586ZM36.1097 62.3906C36.5063 61.8031 36.7844 61.4475 37.1243 61.4475C37.3097 61.4475 37.4385 61.5351 37.5157 61.664C37.2531 62.1844 36.6144 62.4782 36.1097 62.3906Z" fill="black"></path><path d="M35.0744 61.9584C35.0744 62.8191 34.8735 63.8755 33.8486 64.025C34.1885 63.4117 34.2554 62.6748 34.2967 61.9842C34.3276 61.4173 34.3379 60.7164 34.4924 60.299C34.5387 60.1599 34.5439 60.0723 34.513 60.0413C34.4615 60.1238 34.4151 60.2114 34.3688 60.299C34.307 60.4124 34.2245 60.5567 34.1422 60.7268C33.9979 61.0102 33.931 61.273 33.9361 61.6132C33.9361 62.2161 33.931 63.5354 33.6735 64.0559C33.6735 64.3909 33.8331 64.5506 34.0391 64.5506C34.6726 64.5506 35.1259 63.422 35.2443 62.9273C35.301 62.6542 35.2443 62.3347 35.0744 61.9584C35.2804 61.9636 35.3988 61.7729 35.4297 61.3967C35.4297 60.8814 35.4503 60.2475 35.6254 59.7682C35.6769 59.6291 35.6821 59.5414 35.646 59.5054C35.5997 59.593 35.5533 59.6806 35.5018 59.7682C35.0795 60.5618 35.0692 60.8504 35.0744 61.5668C35.0744 61.6853 35.0744 61.8141 35.0744 61.9584Z" fill="black"></path><path d="M36.846 57.2949C36.846 57.5732 36.6091 57.9237 36.2898 57.9237C36.1559 58.0525 36.0271 58.1195 35.8984 58.1195C35.7696 58.1195 35.7026 58.0576 35.7026 57.9391C35.7026 57.867 35.7387 57.769 35.8057 57.6505C35.8211 57.6505 35.8263 57.6711 35.8417 57.6969C35.8674 57.7536 35.9241 57.7742 35.9962 57.7742C36.1353 57.7742 36.2589 57.6917 36.3567 57.5526C36.3773 57.5268 36.398 57.5114 36.4185 57.5114C36.4494 57.5474 36.4906 57.5629 36.5422 57.5629C36.6348 57.5629 36.7173 57.4804 36.7894 57.3362C36.8048 57.3104 36.8254 57.2949 36.846 57.2949Z" fill="black"></path><path d="M31.7166 63.5399C31.2942 63.4574 31.2016 63.0194 31.2016 62.6277L30.8462 63.1894C30.8462 63.8027 30.9646 64.4984 31.6136 64.4984C32.484 64.4984 33.1432 63.4677 33.3441 62.705C33.3544 62.6741 33.375 62.5813 33.3183 62.5813C33.2359 62.7565 32.963 63.2152 32.7982 63.2925C32.5406 63.308 32.1904 63.1894 32.1904 62.8957C32.1904 62.5659 32.5149 62.4164 32.8033 62.4164C32.9269 62.4164 33.1741 62.4783 33.1741 62.303C33.1741 62.1278 32.9578 62.0093 32.7982 62.0093C32.2264 62.0093 31.8248 63.0812 31.7166 63.5399Z" fill="black"></path><path d="M30.8462 63.19C31.0522 63.1487 31.1706 62.9684 31.2016 62.6282C31.2016 61.9016 31.32 61.077 31.4076 60.3401C31.4333 60.17 31.4127 60.0773 31.3664 60.0566C31.2736 60.4225 31.1913 60.6441 31.0728 60.9224C31.0419 60.9894 31.0265 61.0822 31.011 61.1956C30.9337 61.8552 30.8462 62.52 30.8462 63.19Z" fill="black"></path><path d="M31.9585 59.3664C32.0976 59.083 32.1645 58.9438 32.1645 58.9438C32.2675 58.9645 32.3293 59.0418 32.3293 59.1448C32.3293 59.3201 31.9894 59.9591 31.8967 60.1601C31.8607 60.1189 31.8916 60.0519 31.9122 60.0106C31.9894 59.8406 32.2057 59.4901 31.9585 59.3664Z" fill="black"></path><path d="M30.1301 63.2109C30.2846 62.9738 30.4082 62.5616 30.4339 62.2729C30.403 62.2781 30.3721 62.3193 30.3412 62.4069C30.1919 62.8089 29.5275 63.0614 29.1309 63.1851C28.2502 63.4531 27.0039 63.6025 25.9892 63.6025C25.6699 63.6025 25.3763 63.5871 25.1188 63.5562C24.7377 63.5098 23.9857 63.3758 24.0064 62.8708C24.0115 62.7935 23.9961 62.7574 23.9548 62.7471C23.9034 62.9842 23.8416 63.2676 23.8416 63.5304C23.8416 63.6438 23.857 63.7572 23.8828 63.8551C24.063 64.5096 25.0622 64.4993 25.6081 64.4993C26.6639 64.4941 29.5018 64.1798 30.1301 63.2109Z" fill="black"></path><path d="M27.6476 60.7271C27.4777 60.9332 27.3283 61.1239 27.1326 61.3712C27.076 61.1806 26.7824 61.062 26.6176 60.995C26.427 61.2321 26.2674 61.4331 26.0408 61.7268C26.2262 61.7732 26.4322 61.9021 26.5506 62.0154C26.767 62.0154 27.1069 61.7011 27.1429 61.4795C27.3077 61.5362 27.4777 61.6444 27.5756 61.7423C27.8073 61.7423 28.1215 61.4022 28.1215 61.1703C28.1215 60.9435 27.8794 60.8147 27.6476 60.7271Z" fill="black"></path></g><mask id="mask1_9871_1505" style="mask-type:luminance" maskUnits="userSpaceOnUse" x="14" y="66" width="73" height="20"><path d="M86.3035 66.8188H14V85.0005H86.3035V66.8188Z" fill="white"></path></mask><g mask="url(#mask1_9871_1505)"><path d="M84.3728 76.2572C84.1542 76.495 83.904 76.5701 83.6667 76.5763C83.004 76.5826 82.8602 76.0131 82.8602 75.4248C82.5728 75.8754 82.4291 76.107 82.4291 76.107C82.4291 76.8079 82.5542 77.6967 83.3602 77.6967C84.0291 77.6967 84.1979 76.8142 84.5663 76.8142C84.6291 76.8142 84.7039 76.8455 84.7728 76.8455C85.1974 76.8455 85.4226 76.47 85.6723 76.0944C86.1723 76.0944 86.3035 75.1431 86.3035 74.7676C86.2537 74.7739 86.1974 74.849 86.1788 74.9366C86.1477 75.1494 86.0723 75.3935 85.9039 75.3935C85.8351 75.3935 85.7849 75.3747 85.7477 75.3371C85.71 75.3371 85.6914 75.3997 85.6602 75.4748C85.5788 75.6501 85.3602 76.0193 85.1728 76.0193C85.0849 76.0006 84.9602 75.963 84.8788 75.963C84.6728 75.963 84.51 76.107 84.3728 76.2572Z" fill="black"></path><path d="M82.4291 76.1071C82.6793 76.057 82.823 75.838 82.8602 75.4249C82.8602 74.5424 83.004 73.541 83.1105 72.646C83.1416 72.4395 83.1165 72.3268 83.0602 72.3018C82.9477 72.7461 82.8477 73.0153 82.704 73.3533C82.6667 73.4346 82.6477 73.5472 82.6291 73.6849C82.5356 74.4861 82.4291 75.2935 82.4291 76.1071Z" fill="black"></path><path d="M81.4356 76.3442C81.5417 75.9937 81.6356 75.5869 81.7291 75.1487C81.7417 75.0736 81.7607 74.9985 81.8045 74.9297C81.6854 74.9297 81.6291 75.1362 81.6045 75.2364C81.5607 75.3928 81.517 75.5556 81.4607 75.7058C81.1482 76.6133 80.5231 77.2579 79.717 77.7712C79.6296 77.8275 79.4984 77.9151 79.4984 78.0152C79.711 77.9526 80.1296 77.7649 80.3231 77.7649C80.998 77.7649 81.2668 76.8824 81.4356 76.3442Z" fill="black"></path><path d="M81.7854 72.4136C81.5607 72.6952 81.3858 72.9205 81.1105 73.2773C81.417 73.3524 81.7416 73.609 81.8607 73.7592C82.0667 73.6215 82.3793 73.271 82.3793 72.9956C82.3793 72.714 82.0979 72.5325 81.7854 72.4136Z" fill="black"></path><path d="M79.1486 76.301C78.9049 76.2572 78.7984 75.9756 78.7984 75.4248C78.511 75.8754 78.3672 76.107 78.3672 76.107C78.3672 76.4012 78.3361 77.4276 78.9235 77.4213C79.4235 77.4213 79.8733 76.7266 79.8733 76.276C79.8733 75.9693 79.7109 75.769 79.3923 75.6814C79.3109 75.888 79.2296 76.0945 79.1486 76.301Z" fill="black"></path><path d="M78.3668 76.1071C78.617 76.057 78.7608 75.838 78.7984 75.4249C78.7984 74.5424 78.9421 73.541 79.0482 72.646C79.0794 72.4395 79.0543 72.3268 78.998 72.3018C78.8859 72.7461 78.7859 73.0153 78.6421 73.3533C78.6045 73.4346 78.5859 73.5472 78.5668 73.6849C78.4733 74.4861 78.3668 75.2935 78.3668 76.1071Z" fill="black"></path><path d="M77.6734 74.155C77.4547 74.6431 77.3357 74.8935 77.3357 74.8935C77.2422 75.075 77.2357 75.3816 77.2794 75.7947C77.5231 78.148 75.7924 79.4123 74.4362 79.4123C73.2924 79.4123 72.7738 78.655 72.9738 77.5409C73.0678 77.0089 73.2738 76.6209 73.4989 76.1577C73.5613 76.0263 73.5738 75.9387 73.5427 75.8886C73.5427 75.8886 73.4989 75.9762 73.405 76.139C72.9241 76.9151 72.505 77.8226 72.505 78.7488C72.505 79.6877 72.9427 80.5138 73.9738 80.5138C75.8171 80.5076 77.0483 78.7426 77.4859 77.1278C77.6859 76.4018 77.711 75.607 77.6734 74.6869C77.6669 74.5179 77.692 74.2739 77.7422 74.0986C77.7171 74.0986 77.692 74.1174 77.6734 74.155Z" fill="black"></path><path d="M75.0798 76.1758C74.6552 76.8079 74.4426 77.1208 74.4426 77.1208C74.7924 77.2773 75.0738 77.4714 75.2798 77.6967C75.4863 77.6466 75.8673 77.1271 75.8673 76.8392C75.8673 76.6577 75.4738 76.351 75.0798 76.1758Z" fill="black"></path><path d="M75.4361 66.8188C75.23 67.0692 75.0487 67.3008 74.811 67.6012C74.7426 67.3696 74.3863 67.2257 74.1863 67.1443C73.9552 67.4322 73.7612 67.6763 73.4863 68.033C73.7114 68.0894 73.9612 68.2458 74.1049 68.3835C74.3673 68.3835 74.7798 68.0017 74.8235 67.7326C75.0235 67.8015 75.23 67.9329 75.3486 68.0518C75.63 68.0518 76.011 67.6388 76.011 67.3571C76.011 67.0817 75.7175 66.9253 75.4361 66.8188Z" fill="black"></path><path d="M71.8054 74.3104C72.5928 74.1728 73.1179 73.8848 73.4742 73.4092C73.5742 73.2903 73.6742 73.2089 73.7802 73.2089C73.9304 73.2089 74.0491 73.3278 74.1863 73.3278C74.4737 73.3278 74.73 72.8835 74.8174 72.4078C74.849 72.2763 74.8612 72.1074 74.8928 71.9822C74.83 71.9759 74.7863 72.0886 74.7616 72.1512C74.7239 72.2826 74.6677 72.6018 74.4802 72.6018C74.3239 72.6018 74.23 72.4954 74.0802 72.4954C73.8365 72.4954 73.6677 72.6957 73.5114 72.9147C73.2365 73.3028 72.5802 73.7909 72.1244 73.8974C71.7993 73.8974 71.637 74.0851 71.637 74.3167C71.6681 74.323 71.737 74.3167 71.8054 74.3104Z" fill="black"></path><path d="M72.9618 68.3721C72.7366 68.6538 72.5618 68.879 72.2869 69.2358C72.5929 69.3109 72.918 69.5675 73.0366 69.7177C73.2427 69.58 73.5553 69.2296 73.5553 68.9541C73.5553 68.6725 73.2739 68.491 72.9618 68.3721Z" fill="black"></path><path d="M71.2682 67.9712C71.0431 68.2528 70.8682 68.4781 70.5929 68.8349C70.8994 68.91 71.2241 69.1666 71.3431 69.3168C71.5492 69.1791 71.8617 68.8286 71.8617 68.5532C71.8617 68.2716 71.5803 68.0901 71.2682 67.9712Z" fill="black"></path><path d="M70.812 74.4865C70.9743 74.2487 71.0055 73.9545 70.912 73.6103C70.8371 73.5853 70.7743 73.554 70.7371 73.4726C70.6497 73.4539 70.5869 73.4413 70.5246 73.4413C70.0869 73.4413 69.5497 73.7793 69.2185 74.0359C68.506 74.5679 68.1999 75.0936 67.8436 75.9072C68.0809 75.8384 68.3311 75.5255 68.5748 74.9872C68.8683 74.5867 69.4934 74.2299 70.0059 74.2237C70.312 74.2174 70.2994 74.4928 70.812 74.4865ZM72.3367 73.748C72.7306 73.3349 73.0929 72.6965 73.0929 72.2209C73.0929 71.9893 72.999 71.7827 72.7241 71.7827C72.3367 71.7827 71.7929 72.3898 71.3994 72.9219C71.5683 72.4837 71.618 72.0269 71.6492 71.5637C71.6869 70.9253 71.6929 70.2431 71.8929 69.6923C71.9557 69.5296 71.9618 69.417 71.918 69.3794C71.7618 69.6485 71.6055 69.9364 71.4683 70.2118C71.2929 70.5623 71.2181 70.8753 71.2181 71.2883C71.2181 71.8453 71.312 72.9594 71.0557 73.3913C71.012 73.4664 70.9618 73.5352 70.912 73.6103C70.7557 73.8794 70.7181 74.1736 70.812 74.4865C71.4557 74.474 71.918 74.1987 72.3367 73.748ZM71.0371 73.6416C71.4683 72.997 71.8869 72.49 72.2994 72.49C72.4994 72.49 72.6618 72.5776 72.7618 72.7529C72.4678 73.1784 71.8869 73.7292 71.0371 73.6416Z" fill="black"></path><path d="M70.1681 78.229C69.9621 78.4793 69.7807 78.7109 69.5435 79.0113C69.4746 78.7798 69.1184 78.6358 68.9184 78.5545C68.6872 78.8424 68.4933 79.0864 68.2184 79.4432C68.4435 79.4995 68.6933 79.656 68.837 79.7937C69.0998 79.7937 69.5119 79.4119 69.5556 79.1428C69.7556 79.2116 69.9621 79.3431 70.0807 79.462C70.3621 79.462 70.743 79.0489 70.743 78.7673C70.743 78.4919 70.4495 78.3354 70.1681 78.229Z" fill="black"></path><path d="M67.8435 75.9072C67.2435 76.1827 66.8561 76.5519 66.5747 76.9713C65.5937 78.4358 65.7124 80.7703 65.7998 82.3725C65.8747 83.6368 65.9561 84.513 66.0249 85.0012C66.0998 84.9449 66.0872 84.7133 66.0937 84.6382C66.0375 83.1048 66.0123 81.4587 66.0747 79.9567C66.1063 79.1931 66.1747 78.4984 66.3998 77.7599C66.6621 76.9525 67.7184 76.6458 68.4682 76.4956C68.7244 76.4518 69.0309 76.3642 69.2058 76.1701C69.3807 75.9761 69.4807 75.7508 69.5621 75.5317C69.6993 75.1499 68.8747 74.9372 68.5747 74.9872C68.3682 74.9872 68.0309 75.4942 67.8435 75.9072Z" fill="black"></path><path d="M66.4124 73.8168C65.9873 73.8043 65.4063 75.0811 64.6938 75.2751C64.1938 75.2751 64.1063 75.4628 64.1063 75.8384C64.9124 75.8384 65.2686 75.2751 65.8124 74.7306C65.931 74.6179 66.0626 74.5491 66.1873 74.5491C66.35 74.5491 66.45 74.6617 66.5998 74.6993C66.7872 74.7493 66.9812 74.6492 67.1496 74.3676C67.3059 74.0922 67.3184 73.8481 67.1059 73.6165C66.931 73.4288 66.8124 73.2848 66.7686 73.1597C66.631 73.3474 66.4561 73.6228 66.4124 73.8168Z" fill="black"></path><path d="M64.1064 75.838C64.3753 75.7754 64.6939 75.5126 64.6939 75.2748C65.0064 74.8867 65.1939 73.6475 64.5315 73.6475C63.9441 73.6475 63.0004 75.112 63.2506 75.6315C61.7571 76.4764 61.0571 78.2414 59.526 79.0926C59.4446 79.1426 59.3822 79.199 59.3511 79.2616C59.8822 79.2616 60.3948 78.9048 60.832 78.4917C61.4134 77.9347 61.7069 77.5404 62.0692 77.1774C62.4255 76.8269 62.8506 76.5578 63.6753 76.1697C63.9255 76.0571 64.1753 75.8944 64.2255 75.8318C64.1818 75.8255 64.1502 75.8318 64.1064 75.838ZM64.1315 75.2184C63.9064 75.1621 63.6878 75.0056 63.6255 74.774C63.8255 74.2546 64.5441 74.0918 64.6627 74.8304C64.5753 74.9868 64.2692 75.1809 64.1315 75.2184Z" fill="black"></path><path d="M64.9752 70.2056C64.7691 70.4559 64.5877 70.6875 64.3501 70.9879C64.2817 70.7563 63.9254 70.6124 63.7254 70.531C63.4942 70.8189 63.3003 71.063 63.0254 71.4198C63.2505 71.4761 63.5003 71.6326 63.644 71.7702C63.9063 71.7702 64.3189 71.3885 64.3626 71.1193C64.5626 71.1882 64.7691 71.3196 64.8877 71.4385C65.1691 71.4385 65.55 71.0255 65.55 70.7438C65.55 70.4684 65.2565 70.312 64.9752 70.2056Z" fill="black"></path><path d="M60.6069 76.3442C60.7129 75.9937 60.8069 75.5869 60.9004 75.1487C60.9129 75.0736 60.9316 74.9985 60.9753 74.9297C60.8567 74.9297 60.8004 75.1362 60.7753 75.2364C60.7316 75.3928 60.6878 75.5556 60.6316 75.7058C60.3194 76.6133 59.6943 77.2579 58.8883 77.7712C58.8008 77.8275 58.6697 77.9151 58.6697 78.0152C58.8818 77.9526 59.3008 77.7649 59.4943 77.7649C60.1692 77.7649 60.4381 76.8824 60.6069 76.3442Z" fill="black"></path><path d="M58.9068 72.915C58.8194 73.0777 58.7068 73.2717 58.5882 73.5033C58.4007 73.8913 58.3068 74.2481 58.3068 74.7175C58.3133 75.4184 58.3068 77.0895 58.0133 77.6966C58.5007 77.4338 58.7259 76.2634 58.7696 75.7627C58.8445 74.9553 58.8068 73.6347 59.0696 72.915C59.138 72.7272 59.1445 72.6083 59.0942 72.5645C59.0319 72.6771 58.9696 72.7961 58.9068 72.915Z" fill="black"></path><path d="M57.3198 76.1323C57.5073 75.8444 57.657 75.3437 57.6882 74.9932C57.651 74.9994 57.6133 75.0495 57.5757 75.1559C57.3947 75.6441 56.5885 75.9508 56.1073 76.101C55.0387 76.4264 53.5263 76.608 52.2952 76.608C51.9078 76.608 51.5516 76.5892 51.2391 76.5516C50.7767 76.4953 49.8643 76.3325 49.8893 75.7192C49.8955 75.6253 49.8768 75.5815 49.8268 75.569C49.7643 75.8569 49.6893 76.2011 49.6893 76.5203C49.6893 76.658 49.7081 76.7957 49.7393 76.9146C49.958 77.7095 51.1704 77.6969 51.8328 77.6969C53.1139 77.6907 56.5572 77.3089 57.3198 76.1323Z" fill="black"></path><path d="M54.3075 73.1152C54.1013 73.3656 53.9201 73.5971 53.6826 73.8976C53.6139 73.666 53.2577 73.522 53.0577 73.4407C52.8265 73.7286 52.6328 73.9727 52.3578 74.3294C52.5828 74.3857 52.8327 74.5422 52.9765 74.6799C53.2389 74.6799 53.6514 74.2981 53.6951 74.029C53.8951 74.0979 54.1013 74.2293 54.2201 74.3482C54.5013 74.3482 54.8825 73.9351 54.8825 73.6535C54.8825 73.3781 54.5888 73.2216 54.3075 73.1152Z" fill="black"></path><path d="M46.3898 78.0102C46.5773 77.9163 47.0834 77.6284 47.4459 77.6159C47.5084 77.6159 47.6146 77.5972 47.7021 77.522C48.0896 77.1966 48.352 76.3579 48.3958 75.8447C48.4208 75.5067 48.327 74.8683 47.8896 74.8371C47.7208 74.8245 47.5521 74.9184 47.4584 75.0749C47.2584 75.5067 47.2521 75.5192 47.0084 75.9636C46.9209 76.1263 47.0147 76.3517 47.1647 76.4768C47.3709 76.6583 47.7334 76.627 47.9708 76.5269C47.8708 76.9275 47.1084 77.3718 46.7772 77.5846C46.6397 77.6848 46.4147 77.8287 46.3898 78.0102Z" fill="black"></path><path d="M45.4213 72.915C45.3338 73.0777 45.2213 73.2717 45.1025 73.5033C44.9151 73.8913 44.8213 74.2481 44.8213 74.7175C44.8276 75.4184 44.8213 77.0895 44.5276 77.6966C45.015 77.4338 45.24 76.2634 45.2838 75.7627C45.3587 74.9553 45.3213 73.6347 45.5837 72.915C45.6525 72.7272 45.6587 72.6083 45.6087 72.5645C45.5462 72.6771 45.4837 72.7961 45.4213 72.915Z" fill="black"></path><path d="M43.8336 76.3442C43.9398 75.9937 44.0336 75.5869 44.1273 75.1487C44.1398 75.0736 44.1586 74.9985 44.2023 74.9297C44.0836 74.9297 44.0273 75.1362 44.0024 75.2364C43.9586 75.3928 43.9149 75.5556 43.8586 75.7058C43.5462 76.6133 42.9212 77.2579 42.1151 77.7712C42.0276 77.8275 41.8964 77.9151 41.8964 78.0152C42.1088 77.9526 42.5275 77.7649 42.7212 77.7649C43.3962 77.7649 43.6649 76.8824 43.8336 76.3442Z" fill="black"></path><path d="M42.6464 72.271C42.4402 72.5213 42.259 72.7529 42.0215 73.0533C41.9527 72.8218 41.5966 72.6778 41.3966 72.5964C41.1654 72.8843 40.9716 73.1284 40.6967 73.4852C40.9216 73.5415 41.1716 73.698 41.3153 73.8357C41.5778 73.8357 41.9903 73.4539 42.034 73.1848C42.234 73.2536 42.4402 73.3851 42.5589 73.504C42.8401 73.504 43.2213 73.0909 43.2213 72.8092C43.2213 72.5339 42.9276 72.3774 42.6464 72.271Z" fill="black"></path><path d="M40.9214 76.9773C41.0152 76.8397 41.1652 76.6519 41.4027 76.6456C41.4776 76.6456 41.5214 76.6769 41.5901 76.6769C42.1651 76.6769 42.44 75.6692 42.44 75.2437C42.2588 75.2437 42.2775 75.8507 41.9713 75.8507C41.8526 75.8507 41.7776 75.8194 41.6714 75.8194C41.3589 75.8194 41.1714 76.1825 40.9714 76.3577C40.8027 76.5079 40.5527 76.6018 40.3028 76.6018C39.6404 76.6081 39.4279 76.001 39.4279 75.4252C39.1904 75.3438 39.0467 75.5754 38.9967 76.1074C38.9967 77.2527 39.4279 77.6971 39.9278 77.6971C40.384 77.6971 40.6902 77.3216 40.9214 76.9773Z" fill="black"></path><path d="M40.0906 78.6104C39.8656 78.892 39.6906 79.1173 39.4156 79.4741C39.7219 79.5492 40.0469 79.8058 40.1656 79.956C40.3718 79.8183 40.6843 79.4678 40.6843 79.1924C40.6843 78.9108 40.403 78.7293 40.0906 78.6104Z" fill="black"></path><path d="M38.9967 76.1071C39.2467 76.057 39.3904 75.838 39.4279 75.4249C39.4279 74.5424 39.5716 73.541 39.6779 72.646C39.7091 72.4395 39.6841 72.3268 39.6279 72.3018C39.5154 72.7461 39.4154 73.0153 39.2716 73.3533C39.2341 73.4346 39.2154 73.5472 39.1967 73.6849C39.1029 74.4861 38.9967 75.2935 38.9967 76.1071Z" fill="black"></path><path d="M37.5407 76.9589C37.9469 76.5395 38.3719 75.8573 38.3719 75.2503C38.3719 75.0124 38.2969 74.7871 38.0094 74.7871C37.5407 74.7871 37.0408 75.4443 36.7783 75.801C36.9096 75.4255 36.9783 74.9999 37.0033 74.7496C37.0658 74.0298 37.0345 72.9846 37.272 72.3525C37.3283 72.1897 37.3345 72.0771 37.297 72.0396C37.1408 72.3086 36.9845 72.5966 36.8471 72.872C36.6721 73.2162 36.5908 73.5354 36.5908 73.9484C36.5908 74.4992 36.6908 75.8448 36.4346 76.2767C36.3658 76.3894 36.2846 76.502 36.2159 76.6147C35.5847 76.477 35.5285 75.9262 35.5285 75.4255L35.0973 76.1077C35.0973 76.8024 35.216 77.6974 36.0346 77.6974C36.6471 77.6974 37.147 77.3657 37.5407 76.9589ZM36.3534 76.6334C36.8345 75.9199 37.172 75.4881 37.5844 75.4881C37.8094 75.4881 37.9657 75.5945 38.0594 75.751C37.7407 76.3831 36.9658 76.7398 36.3534 76.6334Z" fill="black"></path><path d="M35.0973 76.1071C35.3472 76.057 35.491 75.838 35.5285 75.4249C35.5285 74.5424 35.6722 73.541 35.7785 72.646C35.8097 72.4395 35.7847 72.3268 35.7285 72.3018C35.6159 72.7461 35.516 73.0153 35.3722 73.3533C35.3347 73.4346 35.316 73.5472 35.2972 73.6849C35.2035 74.4861 35.0973 75.2935 35.0973 76.1071Z" fill="black"></path><path d="M34.1039 76.1323C34.2914 75.8444 34.4414 75.3437 34.4726 74.9932C34.4351 74.9994 34.3977 75.0495 34.3601 75.1559C34.1789 75.6441 33.3728 75.9508 32.8916 76.101C31.823 76.4264 30.3106 76.608 29.0795 76.608C28.6921 76.608 28.3359 76.5892 28.0234 76.5516C27.561 76.4953 26.6486 76.3325 26.6736 75.7192C26.6798 75.6253 26.6611 75.5815 26.6111 75.569C26.5486 75.8569 26.4736 76.2011 26.4736 76.5203C26.4736 76.658 26.4924 76.7957 26.5236 76.9146C26.7423 77.7095 27.9547 77.6969 28.6171 77.6969C29.8982 77.6907 33.3415 77.3089 34.1039 76.1323Z" fill="black"></path><path d="M31.0919 73.1152C30.8856 73.3656 30.7044 73.5971 30.4669 73.8976C30.3982 73.666 30.042 73.522 29.842 73.4407C29.6108 73.7286 29.4171 73.9727 29.1421 74.3294C29.3671 74.3857 29.617 74.5422 29.7608 74.6799C30.0232 74.6799 30.4357 74.2981 30.4794 74.029C30.6794 74.0979 30.8856 74.2293 31.0044 74.3482C31.2856 74.3482 31.6668 73.9351 31.6668 73.6535C31.6668 73.3781 31.3731 73.2216 31.0919 73.1152Z" fill="black"></path><path d="M25.4799 76.3442C25.5861 75.9937 25.6799 75.5869 25.7736 75.1487C25.7861 75.0736 25.8048 74.9985 25.8486 74.9297C25.7299 74.9297 25.6736 75.1362 25.6486 75.2364C25.6049 75.3928 25.5611 75.5556 25.5049 75.7058C25.1924 76.6133 24.5675 77.2579 23.7613 77.7712C23.6739 77.8275 23.5426 77.9151 23.5426 78.0152C23.7551 77.9526 24.1738 77.7649 24.3675 77.7649C25.0425 77.7649 25.3112 76.8824 25.4799 76.3442Z" fill="black"></path><path d="M23.8614 72.915C23.774 73.0777 23.6614 73.2717 23.5427 73.5033C23.3552 73.8913 23.2615 74.2481 23.2615 74.7175C23.2677 75.4184 23.2615 77.0895 22.9678 77.6966C23.4552 77.4338 23.6802 76.2634 23.724 75.7627C23.7989 74.9553 23.7614 73.6347 24.0239 72.915C24.0927 72.7272 24.0989 72.6083 24.0489 72.5645C23.9864 72.6771 23.9239 72.7961 23.8614 72.915Z" fill="black"></path><path d="M22.1802 76.4946C21.949 76.8326 21.6615 77.0829 21.2553 77.3833C21.1366 77.471 20.9741 77.6024 20.9741 77.6963C21.3553 77.5273 21.6365 77.3771 21.8177 77.3771C21.924 77.3771 22.0115 77.2894 22.0677 77.2081C22.6614 76.4258 23.0426 74.9863 21.899 74.498C21.7303 74.7672 21.4991 75.1865 21.3678 75.5057C21.9865 75.8249 22.1739 76.1566 22.1802 76.4946Z" fill="black"></path><path d="M18.2181 78.0284C18.4056 77.9345 18.9118 77.6467 19.2743 77.6404C19.3368 77.6404 19.443 77.6216 19.5305 77.5465C19.8179 77.3087 20.1117 76.7454 20.2242 76.2822C20.6929 75.8128 20.8928 74.9304 20.9116 74.0854C20.9178 73.9352 20.9116 73.785 20.9116 73.641C20.9053 73.4658 20.9303 73.228 20.9741 73.0527C20.949 73.0527 20.9303 73.0715 20.9116 73.1091C20.7616 73.4408 20.6054 73.7099 20.4116 74.0229C20.3429 74.1292 20.3241 74.2481 20.3429 74.3921C20.3804 74.6988 20.4179 74.9929 20.4303 75.3059C20.3741 75.4123 20.3054 75.5187 20.2179 75.6188C20.1866 75.3121 20.0867 74.8553 19.693 74.8553C19.5305 74.8553 19.3805 74.9429 19.2868 75.0931C19.0868 75.5312 19.0805 75.5437 18.8431 75.9818C18.8181 76.0256 18.8056 76.0695 18.8056 76.1195C18.8056 76.4387 19.0993 76.6265 19.393 76.6265C19.5367 76.6265 19.6867 76.5952 19.7992 76.5451C19.6992 76.9519 18.943 77.39 18.6056 77.6091C18.4744 77.703 18.2431 77.8469 18.2181 78.0284Z" fill="black"></path><path d="M20.718 78.8799C20.5118 79.1302 20.3305 79.3618 20.0931 79.6622C20.0243 79.4306 19.6681 79.2867 19.4681 79.2053C19.2369 79.4932 19.0432 79.7373 18.7682 80.0941C18.9932 80.1504 19.2432 80.3068 19.3869 80.4445C19.6493 80.4445 20.0618 80.0628 20.1055 79.7936C20.3055 79.8625 20.5118 79.9939 20.6305 80.1128C20.9117 80.1128 21.2929 79.6997 21.2929 79.4181C21.2929 79.1427 20.9992 78.9862 20.718 78.8799Z" fill="black"></path><path d="M15.2811 79.2119C16.6559 79.2119 17.9183 77.3406 17.9183 76.0512C17.9183 75.6694 17.787 75.4316 17.3808 75.1562C17.1746 75.0123 17.1684 74.8245 17.2559 74.6117C17.5558 73.9045 17.8808 73.3913 17.8808 72.5839C17.8808 72.0269 17.737 71.4886 17.2746 71.2383C17.2121 71.4448 17.1121 71.7452 16.9871 72.0644C16.9496 72.1771 16.9059 72.271 16.9559 72.3023C17.3121 72.5526 17.4496 72.8593 17.4496 73.191C17.4496 74.0484 16.6997 74.8746 16.6997 75.6131C16.6997 76.0012 16.8809 76.3016 17.3496 76.5206C17.5371 76.602 17.6058 76.7898 17.5058 76.965C17.1746 77.5721 16.3747 78.0916 15.6186 78.0916C14.8499 78.0853 14.4124 77.5784 14.4374 76.8023C14.4749 75.9073 14.9436 75.1312 15.3311 74.3551C15.3936 74.2362 15.4311 74.0922 15.3873 73.9671C14.7874 74.9685 14 76.3391 14 77.5971C14 78.4045 14.3562 79.2119 15.2811 79.2119Z" fill="black"></path><path d="M17.3743 79.2793C17.1681 79.5297 16.9869 79.7612 16.7494 80.0617C16.6807 79.8301 16.3244 79.6861 16.1245 79.6048C15.8933 79.8927 15.6995 80.1368 15.4246 80.4935C15.6495 80.5498 15.8995 80.7063 16.0432 80.844C16.3057 80.844 16.7181 80.4622 16.7619 80.1931C16.9619 80.2619 17.1681 80.3934 17.2868 80.5123C17.568 80.5123 17.9493 80.0992 17.9493 79.8176C17.9493 79.5422 17.6555 79.3857 17.3743 79.2793Z" fill="black"></path></g></g><defs><clipPath id="clip0_9871_1505"><rect width="72.3035" height="70" fill="white" transform="translate(14 15)"></rect></clipPath></defs></svg> 